<svg xmlns="http://www.w3.org/2000/svg" width="960" height="540" viewBox="0 0 960 540">
<rect width="100%" height="100%" fill="white"/>
<text x="24" y="28" font-size="20" font-weight="700">各股票订单数量对比</text>
<text x="108" y="58" text-anchor="end" font-size="14">002251</text><rect x="120.0" y="40" width="47.3" height="24" fill="#3b82f6" /><rect x="167.3" y="40" width="0.0" height="24" fill="#ef4444" /><rect x="167.3" y="40" width="0.0" height="24" fill="#a3a3a3" /><text x="175.3" y="58" font-size="13">104,919</text><text x="108" y="100" text-anchor="end" font-size="14">000612</text><rect x="120.0" y="82" width="87.4" height="24" fill="#3b82f6" /><rect x="207.4" y="82" width="0.2" height="24" fill="#ef4444" /><rect x="207.5" y="82" width="0.1" height="24" fill="#a3a3a3" /><text x="215.6" y="100" font-size="13">194,469</text><text x="108" y="142" text-anchor="end" font-size="14">300228</text><rect x="120.0" y="124" width="93.2" height="24" fill="#3b82f6" /><rect x="213.2" y="124" width="0.0" height="24" fill="#ef4444" /><rect x="213.2" y="124" width="0.0" height="24" fill="#a3a3a3" /><text x="221.2" y="142" font-size="13">206,842</text><text x="108" y="184" text-anchor="end" font-size="14">002457</text><rect x="120.0" y="166" width="111.6" height="24" fill="#3b82f6" /><rect x="231.6" y="166" width="0.1" height="24" fill="#ef4444" /><rect x="231.7" y="166" width="0.0" height="24" fill="#a3a3a3" /><text x="239.7" y="184" font-size="13">247,824</text><text x="108" y="226" text-anchor="end" font-size="14">300227</text><rect x="120.0" y="208" width="121.7" height="24" fill="#3b82f6" /><rect x="241.7" y="208" width="0.1" height="24" fill="#ef4444" /><rect x="241.7" y="208" width="0.0" height="24" fill="#a3a3a3" /><text x="249.8" y="226" font-size="13">270,252</text><text x="108" y="268" text-anchor="end" font-size="14">300131</text><rect x="120.0" y="250" width="213.9" height="24" fill="#3b82f6" /><rect x="333.9" y="250" width="0.1" height="24" fill="#ef4444" /><rect x="334.0" y="250" width="0.0" height="24" fill="#a3a3a3" /><text x="342.1" y="268" font-size="13">475,003</text><text x="108" y="310" text-anchor="end" font-size="14">300684</text><rect x="120.0" y="292" width="324.9" height="24" fill="#3b82f6" /><rect x="444.9" y="292" width="1.2" height="24" fill="#ef4444" /><rect x="446.1" y="292" width="0.0" height="24" fill="#a3a3a3" /><text x="454.1" y="310" font-size="13">723,544</text><text x="108" y="352" text-anchor="end" font-size="14">000001</text><rect x="120.0" y="334" width="477.8" height="24" fill="#3b82f6" /><rect x="597.8" y="334" width="1.8" height="24" fill="#ef4444" /><rect x="599.7" y="334" width="0.2" height="24" fill="#a3a3a3" /><text x="607.8" y="352" font-size="13">1,064,808</text><text x="108" y="394" text-anchor="end" font-size="14">002277</text><rect x="120.0" y="376" width="798.4" height="24" fill="#3b82f6" /><rect x="918.4" y="376" width="1.5" height="24" fill="#ef4444" /><rect x="919.9" y="376" width="0.1" height="24" fill="#a3a3a3" /><text x="928.0" y="394" font-size="13">1,775,242</text>
<rect x="120" y="500" width="14" height="14" fill="#3b82f6"/><text x="140" y="512" font-size="13">限价单</text><rect x="210" y="500" width="14" height="14" fill="#ef4444"/><text x="230" y="512" font-size="13">市价单</text><rect x="300" y="500" width="14" height="14" fill="#a3a3a3"/><text x="320" y="512" font-size="13">其他</text>
</svg>
