<svg xmlns="http://www.w3.org/2000/svg" width="980" height="420" viewBox="0 0 980 420">
<rect width="100%" height="100%" fill="white"/>
<text x="70" y="29" font-size="17" font-weight="700">成交 VWAP 价格 vs 订单总数</text><line x1="70" y1="345" x2="470" y2="345" stroke="#555"/><line x1="70" y1="45" x2="70" y2="345" stroke="#555"/><circle cx="129.2" cy="45.0" r="5.5" fill="#7c3aed" opacity="0.85"/><text x="136.2" y="38.0" font-size="11">002277</text><circle cx="230.3" cy="165.1" r="5.5" fill="#7c3aed" opacity="0.85"/><text x="237.3" y="158.1" font-size="11">000001</text><circle cx="470.0" cy="222.7" r="5.5" fill="#16a34a" opacity="0.85"/><text x="477.0" y="215.7" font-size="11">300684</text><circle cx="153.4" cy="264.7" r="5.5" fill="#16a34a" opacity="0.85"/><text x="160.4" y="257.7" font-size="11">300131</text><circle cx="171.2" cy="299.3" r="5.5" fill="#16a34a" opacity="0.85"/><text x="178.2" y="292.3" font-size="11">300227</text><circle cx="233.5" cy="303.1" r="5.5" fill="#7c3aed" opacity="0.85"/><text x="240.5" y="296.1" font-size="11">002457</text><circle cx="135.3" cy="310.0" r="5.5" fill="#16a34a" opacity="0.85"/><text x="142.3" y="303.0" font-size="11">300228</text><circle cx="122.5" cy="312.1" r="5.5" fill="#7c3aed" opacity="0.85"/><text x="129.5" y="305.1" font-size="11">000612</text><circle cx="70.0" cy="327.3" r="5.5" fill="#7c3aed" opacity="0.85"/><text x="77.0" y="320.3" font-size="11">002251</text><text x="560" y="29" font-size="17" font-weight="700">期间成交额 vs 订单总数</text><line x1="560" y1="345" x2="920" y2="345" stroke="#555"/><line x1="560" y1="45" x2="560" y2="345" stroke="#555"/><circle cx="920.0" cy="45.0" r="5.5" fill="#7c3aed" opacity="0.85"/><text x="927.0" y="38.0" font-size="11">002277</text><circle cx="906.7" cy="165.1" r="5.5" fill="#7c3aed" opacity="0.85"/><text x="913.7" y="158.1" font-size="11">000001</text><circle cx="680.3" cy="222.7" r="5.5" fill="#16a34a" opacity="0.85"/><text x="687.3" y="215.7" font-size="11">300684</text><circle cx="645.6" cy="264.7" r="5.5" fill="#16a34a" opacity="0.85"/><text x="652.6" y="257.7" font-size="11">300131</text><circle cx="577.9" cy="299.3" r="5.5" fill="#16a34a" opacity="0.85"/><text x="584.9" y="292.3" font-size="11">300227</text><circle cx="573.6" cy="303.1" r="5.5" fill="#7c3aed" opacity="0.85"/><text x="580.6" y="296.1" font-size="11">002457</text><circle cx="560.0" cy="310.0" r="5.5" fill="#16a34a" opacity="0.85"/><text x="567.0" y="303.0" font-size="11">300228</text><circle cx="563.2" cy="312.1" r="5.5" fill="#7c3aed" opacity="0.85"/><text x="570.2" y="305.1" font-size="11">000612</text><circle cx="565.0" cy="327.3" r="5.5" fill="#7c3aed" opacity="0.85"/><text x="572.0" y="320.3" font-size="11">002251</text>
<text x="70" y="390" font-size="13" fill="#555">紫色：深市主板/中小板；绿色：创业板。纵轴均为订单总数。</text>
</svg>
