<svg xmlns="http://www.w3.org/2000/svg" width="1040" height="460">
<rect width="100%" height="100%" fill="white"/>
<text x="120" y="24" font-size="16">GMV 组合月度权重变化</text>
<line class="axis-x" x1="120" y1="405" x2="790" y2="405" stroke="black" stroke-width="1"/><line class="axis-y" x1="120" y1="55" x2="120" y2="405" stroke="black" stroke-width="1"/><text x="455.0" y="448" font-size="12" text-anchor="middle">时间</text><text class="y-label" x="32" y="230.0" font-size="12" text-anchor="middle" transform="rotate(-90 32 230.0)">权重</text><rect class="legend-box" x="810" y="55" width="215" height="120" fill="white" stroke="#cccccc" stroke-width="1"/><line x1="120.0" y1="405" x2="120.0" y2="410" stroke="black" stroke-width="1"/><text x="120.0" y="423" font-size="10" text-anchor="middle">2010-03</text><line x1="232.4" y1="405" x2="232.4" y2="410" stroke="black" stroke-width="1"/><text x="232.4" y="423" font-size="10" text-anchor="middle">2012-04</text><line x1="344.8" y1="405" x2="344.8" y2="410" stroke="black" stroke-width="1"/><text x="344.8" y="423" font-size="10" text-anchor="middle">2014-05</text><line x1="457.2" y1="405" x2="457.2" y2="410" stroke="black" stroke-width="1"/><text x="457.2" y="423" font-size="10" text-anchor="middle">2016-06</text><line x1="569.7" y1="405" x2="569.7" y2="410" stroke="black" stroke-width="1"/><text x="569.7" y="423" font-size="10" text-anchor="middle">2018-07</text><line x1="682.1" y1="405" x2="682.1" y2="410" stroke="black" stroke-width="1"/><text x="682.1" y="423" font-size="10" text-anchor="middle">2020-08</text><line x1="790.0" y1="405" x2="790.0" y2="410" stroke="black" stroke-width="1"/><text x="790.0" y="423" font-size="10" text-anchor="middle">2022-08</text><line x1="115" y1="405.0" x2="120" y2="405.0" stroke="black" stroke-width="1"/><text x="110" y="408.0" font-size="10" text-anchor="end">-0.42</text><line x1="115" y1="230.0" x2="120" y2="230.0" stroke="black" stroke-width="1"/><text x="110" y="233.0" font-size="10" text-anchor="end">0.41</text><line x1="115" y1="55.0" x2="120" y2="55.0" stroke="black" stroke-width="1"/><text x="110" y="58.0" font-size="10" text-anchor="end">1.2</text><polyline fill="none" stroke="#1f77b4" stroke-width="2" points="120.0,233.2 124.5,186.5 129.0,185.3 133.5,194.1 138.0,231.6 142.5,284.6 147.0,287.7 151.5,253.6 156.0,243.2 160.5,263.2 165.0,252.7 169.5,221.0 174.0,238.2 178.5,205.5 183.0,197.2 187.4,206.5 191.9,201.2 196.4,173.4 200.9,192.7 205.4,217.2 209.9,210.7 214.4,210.1 218.9,241.2 223.4,266.7 227.9,246.4 232.4,240.5 236.9,260.9 241.4,280.1 245.9,297.6 250.4,284.2 254.9,278.0 259.4,286.9 263.9,262.5 268.4,258.8 272.9,239.0 277.4,228.4 281.9,213.8 286.4,215.6 290.9,237.9 295.4,229.1 299.9,206.1 304.4,243.3 308.9,265.9 313.4,256.1 317.9,224.7 322.3,203.2 326.8,260.9 331.3,275.5 335.8,285.0 340.3,298.3 344.8,282.7 349.3,269.6 353.8,259.6 358.3,231.3 362.8,180.7 367.3,156.2 371.8,226.3 376.3,253.1 380.8,260.0 385.3,250.4 389.8,204.3 394.3,279.6 398.8,219.3 403.3,267.6 407.8,276.4 412.3,285.0 416.8,55.0 421.3,93.0 425.8,194.9 430.3,240.2 434.8,290.3 439.3,287.0 443.8,255.5 448.3,230.5 452.8,248.0 457.2,297.0 461.7,314.5 466.2,317.2 470.7,274.3 475.2,259.6 479.7,268.3 484.2,255.0 488.7,255.5 493.2,266.6 497.7,249.4 502.2,259.9 506.7,246.6 511.2,232.3 515.7,251.0 520.2,265.5 524.7,206.3 529.2,258.6 533.7,238.1 538.2,236.0 542.7,278.2 547.2,302.5 551.7,287.0 556.2,261.1 560.7,267.5 565.2,281.6 569.7,255.6 574.2,192.7 578.7,235.8 583.2,327.8 587.7,306.9 592.1,337.6 596.6,325.5 601.1,260.8 605.6,287.3 610.1,259.0 614.6,274.8 619.1,231.6 623.6,208.8 628.1,221.6 632.6,293.3 637.1,283.7 641.6,266.9 646.1,213.2 650.6,236.4 655.1,247.2 659.6,387.3 664.1,405.0 668.6,340.9 673.1,273.6 677.6,314.0 682.1,309.3 686.6,255.4 691.1,251.4 695.6,256.3 700.1,230.7 704.6,233.7 709.1,269.2 713.6,267.0 718.1,243.9 722.6,248.4 727.0,274.7 731.5,301.9 736.0,293.0 740.5,303.4 745.0,274.9 749.5,238.2 754.0,253.7 758.5,257.6 763.0,258.8 767.5,245.9 772.0,220.6 776.5,183.5 781.0,166.0 785.5,128.9 790.0,116.7"/><line x1="825" y1="75" x2="849" y2="75" stroke="#1f77b4" stroke-width="2"/><text x="855" y="79" font-size="11">贵州茅台</text><polyline fill="none" stroke="#d62728" stroke-width="2" points="120.0,328.4 124.5,345.6 129.0,370.5 133.5,344.8 138.0,273.3 142.5,55.0 147.0,240.5 151.5,310.4 156.0,307.7 160.5,320.8 165.0,351.8 169.5,374.0 174.0,324.6 178.5,275.3 183.0,233.1 187.4,256.3 191.9,263.0 196.4,367.3 200.9,354.8 205.4,387.0 209.9,405.0 214.4,357.4 218.9,345.6 223.4,333.5 227.9,353.4 232.4,342.5 236.9,347.9 241.4,351.7 245.9,357.2 250.4,328.2 254.9,324.1 259.4,330.6 263.9,349.1 268.4,374.4 272.9,332.9 277.4,309.6 281.9,309.5 286.4,331.6 290.9,297.4 295.4,337.7 299.9,324.7 304.4,311.9 308.9,346.9 313.4,354.4 317.9,380.4 322.3,366.0 326.8,328.7 331.3,323.1 335.8,329.5 340.3,333.6 344.8,327.0 349.3,284.4 353.8,253.2 358.3,247.3 362.8,316.5 367.3,281.7 371.8,295.8 376.3,319.0 380.8,328.7 385.3,324.4 389.8,393.3 394.3,342.4 398.8,311.1 403.3,366.1 407.8,329.0 412.3,328.0 416.8,295.4 421.3,299.0 425.8,304.6 430.3,299.6 434.8,317.3 439.3,325.0 443.8,326.3 448.3,326.8 452.8,287.5 457.2,193.4 461.7,173.2 466.2,255.6 470.7,282.8 475.2,304.6 479.7,311.4 484.2,316.4 488.7,308.3 493.2,299.7 497.7,307.5 502.2,288.0 506.7,304.5 511.2,340.5 515.7,329.2 520.2,317.3 524.7,304.8 529.2,282.0 533.7,329.5 538.2,369.2 542.7,341.6 547.2,352.8 551.7,365.7 556.2,373.5 560.7,353.7 565.2,300.5 569.7,317.5 574.2,355.2 578.7,324.9 583.2,358.4 587.7,400.1 592.1,262.9 596.6,175.4 601.1,310.8 605.6,297.4 610.1,325.5 614.6,305.8 619.1,385.1 623.6,359.5 628.1,281.5 632.6,197.4 637.1,196.9 641.6,209.9 646.1,263.5 650.6,282.5 655.1,317.2 659.6,307.9 664.1,251.8 668.6,254.8 673.1,234.7 677.6,254.0 682.1,261.3 686.6,267.9 691.1,275.1 695.6,263.7 700.1,255.7 704.6,288.3 709.1,274.6 713.6,252.2 718.1,238.0 722.6,226.8 727.0,224.5 731.5,244.1 736.0,290.4 740.5,232.9 745.0,264.8 749.5,266.1 754.0,206.6 758.5,242.0 763.0,284.3 767.5,358.8 772.0,300.5 776.5,270.3 781.0,211.0 785.5,261.0 790.0,326.9"/><line x1="825" y1="93" x2="849" y2="93" stroke="#d62728" stroke-width="2"/><text x="855" y="97" font-size="11">中国平安</text><polyline fill="none" stroke="#2ca02c" stroke-width="2" points="120.0,177.9 124.5,265.1 129.0,249.1 133.5,241.9 138.0,227.8 142.5,388.1 147.0,233.3 151.5,244.5 156.0,237.0 160.5,192.5 165.0,132.3 169.5,121.4 174.0,206.1 178.5,303.8 183.0,347.3 187.4,287.4 191.9,241.0 196.4,203.1 200.9,243.2 205.4,254.4 209.9,252.4 214.4,227.7 218.9,142.0 223.4,139.7 227.9,142.8 232.4,141.8 236.9,147.8 241.4,188.2 245.9,153.2 250.4,154.9 254.9,200.8 259.4,202.0 263.9,212.2 268.4,151.6 272.9,204.8 277.4,301.7 281.9,307.5 286.4,242.5 290.9,252.9 295.4,246.6 299.9,275.8 304.4,243.6 308.9,180.2 313.4,176.0 317.9,177.3 322.3,205.0 326.8,198.2 331.3,187.7 335.8,166.8 340.3,182.2 344.8,205.2 349.3,237.5 353.8,320.5 358.3,365.3 362.8,356.0 367.3,392.8 371.8,340.3 376.3,353.1 380.8,347.3 385.3,354.4 389.8,317.9 394.3,375.8 398.8,341.2 403.3,253.2 407.8,143.0 412.3,122.9 416.8,405.0 421.3,405.0 425.8,273.8 430.3,328.6 434.8,245.1 439.3,105.7 443.8,170.4 448.3,205.9 452.8,246.7 457.2,276.1 461.7,274.8 466.2,304.5 470.7,327.3 475.2,316.5 479.7,243.1 484.2,298.2 488.7,275.3 493.2,249.1 497.7,228.8 502.2,239.5 506.7,224.1 511.2,194.6 515.7,240.8 520.2,265.7 524.7,277.1 529.2,256.0 533.7,195.3 538.2,152.6 542.7,154.3 547.2,144.0 551.7,147.4 556.2,160.1 560.7,162.5 565.2,181.9 569.7,195.6 574.2,183.3 578.7,180.4 583.2,90.7 587.7,55.0 592.1,156.5 596.6,265.2 601.1,188.0 605.6,174.0 610.1,189.9 614.6,158.9 619.1,143.1 623.6,202.0 628.1,245.2 632.6,314.2 637.1,304.5 641.6,296.5 646.1,254.9 650.6,246.1 655.1,205.8 659.6,110.0 664.1,107.5 668.6,185.7 673.1,280.6 677.6,228.5 682.1,225.6 686.6,272.6 691.1,276.6 695.6,314.7 700.1,288.5 704.6,250.0 709.1,224.2 713.6,264.6 718.1,264.3 722.6,253.4 727.0,232.7 731.5,194.6 736.0,165.5 740.5,213.4 745.0,215.4 749.5,245.6 754.0,307.9 758.5,301.0 763.0,313.6 767.5,226.9 772.0,222.4 776.5,273.1 781.0,312.4 785.5,317.2 790.0,276.3"/><line x1="825" y1="111" x2="849" y2="111" stroke="#2ca02c" stroke-width="2"/><text x="855" y="115" font-size="11">长江电力</text><polyline fill="none" stroke="#ff7f0e" stroke-width="2" points="120.0,314.7 124.5,271.0 129.0,294.9 133.5,305.7 138.0,335.4 142.5,311.2 147.0,300.9 151.5,283.3 156.0,309.9 160.5,332.8 165.0,337.9 169.5,349.4 174.0,319.8 178.5,322.7 183.0,321.6 187.4,339.1 191.9,405.0 196.4,316.2 200.9,309.1 205.4,282.9 209.9,287.7 214.4,303.1 218.9,343.9 223.4,309.7 227.9,302.7 232.4,315.1 236.9,294.6 241.4,260.5 245.9,293.5 250.4,310.4 254.9,279.8 259.4,267.2 263.9,286.3 268.4,300.3 272.9,301.2 277.4,258.3 281.9,294.2 286.4,325.5 290.9,321.2 295.4,290.7 299.9,253.6 304.4,252.0 308.9,282.0 313.4,284.4 317.9,291.9 322.3,313.7 326.8,303.8 331.3,296.2 335.8,276.3 340.3,240.3 344.8,261.4 349.3,259.2 353.8,236.7 358.3,284.2 362.8,276.0 367.3,270.4 371.8,247.1 376.3,250.5 380.8,276.6 385.3,291.7 389.8,238.6 394.3,55.0 398.8,306.5 403.3,206.2 407.8,282.3 412.3,306.5 416.8,307.2 421.3,300.4 425.8,293.4 430.3,270.0 434.8,337.9 439.3,388.5 443.8,380.3 448.3,338.2 452.8,290.8 457.2,310.0 461.7,292.4 466.2,219.1 470.7,201.8 475.2,210.6 479.7,241.4 484.2,226.1 488.7,248.2 493.2,256.5 497.7,284.2 502.2,280.0 506.7,283.1 511.2,278.5 515.7,255.6 520.2,263.9 524.7,280.9 529.2,280.1 533.7,280.9 538.2,276.5 542.7,277.4 547.2,302.4 551.7,285.1 556.2,276.3 560.7,269.3 565.2,288.4 569.7,290.8 574.2,338.6 578.7,322.5 583.2,285.3 587.7,277.8 592.1,318.2 596.6,270.7 601.1,300.9 605.6,278.0 610.1,246.2 614.6,272.1 619.1,282.4 623.6,333.6 628.1,324.4 632.6,256.5 637.1,262.5 641.6,282.9 646.1,278.6 650.6,268.9 655.1,312.2 659.6,268.0 664.1,284.1 668.6,313.0 673.1,295.0 677.6,311.4 682.1,313.7 686.6,314.6 691.1,313.7 695.6,302.0 700.1,281.9 704.6,295.2 709.1,300.8 713.6,319.8 718.1,320.3 722.6,313.6 727.0,328.9 731.5,307.1 736.0,284.2 740.5,261.0 745.0,268.7 749.5,304.8 754.0,310.3 758.5,288.3 763.0,271.1 767.5,303.6 772.0,341.9 776.5,354.4 781.0,330.8 785.5,341.4 790.0,296.6"/><line x1="825" y1="129" x2="849" y2="129" stroke="#ff7f0e" stroke-width="2"/><text x="855" y="133" font-size="11">中国中免</text><polyline fill="none" stroke="#9467bd" stroke-width="2" points="120.0,339.4 124.5,310.0 129.0,261.4 133.5,283.6 138.0,315.2 142.5,349.0 147.0,319.3 151.5,270.9 156.0,264.0 160.5,249.0 165.0,309.6 169.5,326.7 174.0,281.7 178.5,246.8 183.0,257.7 187.4,278.3 191.9,252.3 196.4,330.8 200.9,262.2 205.4,190.9 209.9,168.4 214.4,264.4 218.9,313.3 223.4,347.6 227.9,354.5 232.4,364.5 236.9,343.5 241.4,290.1 245.9,259.8 250.4,300.3 254.9,287.1 259.4,279.4 263.9,243.2 268.4,288.4 272.9,297.9 277.4,256.6 281.9,215.4 286.4,237.6 290.9,245.0 295.4,252.5 299.9,320.2 304.4,335.7 308.9,301.7 313.4,309.1 317.9,305.3 322.3,283.9 326.8,275.3 331.3,289.7 335.8,329.6 340.3,330.8 344.8,295.7 349.3,335.8 353.8,298.2 358.3,205.6 362.8,205.8 367.3,249.6 371.8,234.7 376.3,125.4 380.8,67.6 385.3,55.0 389.8,163.7 394.3,308.5 398.8,127.7 403.3,262.2 407.8,375.5 412.3,359.2 416.8,318.2 421.3,259.7 425.8,312.9 430.3,189.5 434.8,112.8 439.3,262.3 443.8,216.3 448.3,262.6 452.8,302.2 457.2,294.1 461.7,327.3 466.2,252.4 470.7,268.1 475.2,261.7 479.7,312.4 484.2,257.1 488.7,273.6 493.2,300.4 497.7,307.7 502.2,310.6 506.7,326.8 511.2,349.1 515.7,294.0 520.2,234.3 524.7,307.7 529.2,294.2 533.7,352.3 538.2,370.5 542.7,340.5 547.2,260.3 551.7,286.5 556.2,309.1 560.7,337.5 565.2,338.2 569.7,326.8 574.2,316.9 578.7,324.3 583.2,325.6 587.7,364.6 592.1,302.6 596.6,355.3 601.1,326.3 605.6,363.1 610.1,387.0 614.6,405.0 619.1,358.7 623.6,259.3 628.1,306.3 632.6,312.6 637.1,336.4 641.6,325.1 646.1,404.3 650.6,364.6 655.1,291.1 659.6,302.9 664.1,344.0 668.6,269.0 673.1,281.7 677.6,245.2 682.1,242.7 686.6,241.0 691.1,230.7 695.6,194.9 700.1,326.0 704.6,312.1 709.1,310.1 713.6,252.8 718.1,314.1 722.6,353.6 727.0,324.7 731.5,345.7 736.0,369.8 740.5,401.0 745.0,381.3 749.5,333.3 754.0,290.8 758.5,272.5 763.0,207.1 767.5,203.4 772.0,288.2 776.5,294.0 781.0,390.1 785.5,345.9 790.0,397.9"/><line x1="825" y1="147" x2="849" y2="147" stroke="#9467bd" stroke-width="2"/><text x="855" y="151" font-size="11">恒瑞医药</text>
</svg>
