<svg xmlns="http://www.w3.org/2000/svg" width="1040" height="460">
<rect width="100%" height="100%" fill="white"/>
<text x="120" y="24" font-size="16">协方差矩阵最小特征值序列</text>
<line class="axis-x" x1="120" y1="405" x2="790" y2="405" stroke="black" stroke-width="1"/><line class="axis-y" x1="120" y1="55" x2="120" y2="405" stroke="black" stroke-width="1"/><text x="455.0" y="448" font-size="12" text-anchor="middle">时间</text><text class="y-label" x="32" y="230.0" font-size="12" text-anchor="middle" transform="rotate(-90 32 230.0)">特征值</text><rect class="legend-box" x="810" y="55" width="215" height="70" fill="white" stroke="#cccccc" stroke-width="1"/><line x1="120.0" y1="405" x2="120.0" y2="410" stroke="black" stroke-width="1"/><text x="120.0" y="423" font-size="10" text-anchor="middle">1</text><line x1="452.8" y1="405" x2="452.8" y2="410" stroke="black" stroke-width="1"/><text x="452.8" y="423" font-size="10" text-anchor="middle">75</text><line x1="790.0" y1="405" x2="790.0" y2="410" stroke="black" stroke-width="1"/><text x="790.0" y="423" font-size="10" text-anchor="middle">150</text><line x1="115" y1="405.0" x2="120" y2="405.0" stroke="black" stroke-width="1"/><text x="110" y="408.0" font-size="10" text-anchor="end">0.0e+00</text><line x1="115" y1="230.0" x2="120" y2="230.0" stroke="black" stroke-width="1"/><text x="110" y="233.0" font-size="10" text-anchor="end">1.0e-04</text><line x1="115" y1="55.0" x2="120" y2="55.0" stroke="black" stroke-width="1"/><text x="110" y="58.0" font-size="10" text-anchor="end">2.1e-04</text><polyline fill="none" stroke="#1f77b4" stroke-width="2" points="120.0,326.5 124.5,176.8 129.0,204.7 133.5,219.4 138.0,326.3 142.5,391.5 147.0,320.8 151.5,169.7 156.0,114.3 160.5,253.5 165.0,303.5 169.5,337.6 174.0,290.8 178.5,282.6 183.0,201.5 187.4,262.3 191.9,306.8 196.4,345.1 200.9,272.4 205.4,280.3 209.9,275.7 214.4,258.7 218.9,281.6 223.4,301.7 227.9,317.1 232.4,353.4 236.9,348.6 241.4,334.4 245.9,337.3 250.4,358.6 254.9,304.8 259.4,317.3 263.9,323.2 268.4,346.7 272.9,300.2 277.4,177.8 281.9,128.1 286.4,224.2 290.9,226.3 295.4,244.9 299.9,165.9 304.4,214.4 308.9,329.2 313.4,335.6 317.9,332.6 322.3,313.3 326.8,313.5 331.3,297.1 335.8,314.4 340.3,292.6 344.8,316.4 349.3,331.6 353.8,336.2 358.3,290.2 362.8,270.6 367.3,306.6 371.8,205.7 376.3,78.1 380.8,104.1 385.3,90.5 389.8,195.2 394.3,308.6 398.8,405.0 403.3,130.8 407.8,92.1 412.3,405.0 416.8,405.0 421.3,405.0 425.8,226.4 430.3,276.3 434.8,289.4 439.3,321.2 443.8,293.9 448.3,310.7 452.8,357.0 457.2,362.8 461.7,353.7 466.2,325.9 470.7,322.8 475.2,332.0 479.7,366.1 484.2,358.7 488.7,359.3 493.2,361.5 497.7,383.3 502.2,373.2 506.7,344.0 511.2,337.0 515.7,286.2 520.2,305.0 524.7,282.0 529.2,295.1 533.7,282.5 538.2,296.2 542.7,283.4 547.2,301.9 551.7,309.6 556.2,309.9 560.7,325.8 565.2,291.4 569.7,267.2 574.2,297.0 578.7,253.9 583.2,291.8 587.7,324.2 592.1,296.8 596.6,290.1 601.1,247.4 605.6,244.2 610.1,246.8 614.6,264.7 619.1,315.3 623.6,337.9 628.1,326.3 632.6,277.0 637.1,263.4 641.6,287.8 646.1,322.2 650.6,326.0 655.1,286.8 659.6,322.8 664.1,335.1 668.6,297.3 673.1,285.3 677.6,203.4 682.1,232.1 686.6,309.1 691.1,259.0 695.6,216.1 700.1,156.4 704.6,206.5 709.1,200.0 713.6,55.0 718.1,155.3 722.6,268.2 727.0,295.8 731.5,243.4 736.0,238.4 740.5,160.1 745.0,151.5 749.5,126.9 754.0,175.5 758.5,242.8 763.0,234.5 767.5,224.1 772.0,187.0 776.5,235.0 781.0,256.3 785.5,288.0 790.0,334.3"/><line x1="825" y1="75" x2="849" y2="75" stroke="#1f77b4" stroke-width="2"/><text x="855" y="79" font-size="11">min_eigenvalue</text>
</svg>
