<svg xmlns="http://www.w3.org/2000/svg" width="1040" height="460">
<rect width="100%" height="100%" fill="white"/>
<text x="120" y="24" font-size="16">MV 组合月度权重变化</text>
<line class="axis-x" x1="120" y1="405" x2="790" y2="405" stroke="black" stroke-width="1"/><line class="axis-y" x1="120" y1="55" x2="120" y2="405" stroke="black" stroke-width="1"/><text x="455.0" y="448" font-size="12" text-anchor="middle">时间</text><text class="y-label" x="32" y="230.0" font-size="12" text-anchor="middle" transform="rotate(-90 32 230.0)">权重</text><rect class="legend-box" x="810" y="55" width="215" height="120" fill="white" stroke="#cccccc" stroke-width="1"/><line x1="120.0" y1="405" x2="120.0" y2="410" stroke="black" stroke-width="1"/><text x="120.0" y="423" font-size="10" text-anchor="middle">2010-03</text><line x1="232.4" y1="405" x2="232.4" y2="410" stroke="black" stroke-width="1"/><text x="232.4" y="423" font-size="10" text-anchor="middle">2012-04</text><line x1="344.8" y1="405" x2="344.8" y2="410" stroke="black" stroke-width="1"/><text x="344.8" y="423" font-size="10" text-anchor="middle">2014-05</text><line x1="457.2" y1="405" x2="457.2" y2="410" stroke="black" stroke-width="1"/><text x="457.2" y="423" font-size="10" text-anchor="middle">2016-06</text><line x1="569.7" y1="405" x2="569.7" y2="410" stroke="black" stroke-width="1"/><text x="569.7" y="423" font-size="10" text-anchor="middle">2018-07</text><line x1="682.1" y1="405" x2="682.1" y2="410" stroke="black" stroke-width="1"/><text x="682.1" y="423" font-size="10" text-anchor="middle">2020-08</text><line x1="790.0" y1="405" x2="790.0" y2="410" stroke="black" stroke-width="1"/><text x="790.0" y="423" font-size="10" text-anchor="middle">2022-08</text><line x1="115" y1="405.0" x2="120" y2="405.0" stroke="black" stroke-width="1"/><text x="110" y="408.0" font-size="10" text-anchor="end">-0.45</text><line x1="115" y1="230.0" x2="120" y2="230.0" stroke="black" stroke-width="1"/><text x="110" y="233.0" font-size="10" text-anchor="end">0.37</text><line x1="115" y1="55.0" x2="120" y2="55.0" stroke="black" stroke-width="1"/><text x="110" y="58.0" font-size="10" text-anchor="end">1.2</text><polyline fill="none" stroke="#1f77b4" stroke-width="2" points="120.0,269.6 124.5,212.2 129.0,207.5 133.5,205.9 138.0,180.7 142.5,195.8 147.0,250.9 151.5,249.3 156.0,230.4 160.5,257.3 165.0,283.7 169.5,190.9 174.0,263.1 178.5,206.4 183.0,253.8 187.4,243.5 191.9,175.9 196.4,144.4 200.9,234.1 205.4,225.2 209.9,249.2 214.4,200.1 218.9,220.1 223.4,272.7 227.9,256.8 232.4,210.2 236.9,228.8 241.4,259.1 245.9,228.2 250.4,259.9 254.9,281.6 259.4,285.4 263.9,256.9 268.4,213.5 272.9,228.3 277.4,236.9 281.9,212.3 286.4,215.6 290.9,236.2 295.4,250.9 299.9,206.4 304.4,249.6 308.9,282.6 313.4,269.0 317.9,234.4 322.3,219.3 326.8,252.6 331.3,215.1 335.8,254.6 340.3,273.6 344.8,273.6 349.3,237.2 353.8,257.0 358.3,224.1 362.8,192.3 367.3,181.9 371.8,232.1 376.3,248.6 380.8,306.3 385.3,275.8 389.8,191.8 394.3,266.9 398.8,273.3 403.3,295.4 407.8,229.3 412.3,250.0 416.8,55.0 421.3,86.5 425.8,189.8 430.3,201.7 434.8,312.9 439.3,316.7 443.8,280.7 448.3,242.6 452.8,249.6 457.2,266.9 461.7,245.8 466.2,301.6 470.7,255.2 475.2,261.7 479.7,243.2 484.2,226.1 488.7,230.4 493.2,258.9 497.7,239.2 502.2,209.4 506.7,229.4 511.2,221.0 515.7,233.8 520.2,272.7 524.7,192.3 529.2,263.5 533.7,224.1 538.2,183.3 542.7,237.5 547.2,257.9 551.7,267.7 556.2,252.9 560.7,268.2 565.2,277.0 569.7,246.3 574.2,242.1 578.7,229.3 583.2,280.9 587.7,351.9 592.1,321.3 596.6,293.0 601.1,243.7 605.6,236.0 610.1,226.3 614.6,266.5 619.1,234.6 623.6,223.3 628.1,213.6 632.6,239.7 637.1,259.9 641.6,235.4 646.1,221.8 650.6,247.4 655.1,228.9 659.6,405.0 664.1,266.3 668.6,212.2 673.1,185.5 677.6,258.5 682.1,166.6 686.6,234.8 691.1,311.7 695.6,253.2 700.1,232.4 704.6,214.6 709.1,270.4 713.6,266.7 718.1,220.9 722.6,188.9 727.0,258.6 731.5,326.1 736.0,255.9 740.5,324.8 745.0,307.0 749.5,239.6 754.0,270.4 758.5,264.7 763.0,256.3 767.5,261.4 772.0,297.2 776.5,221.8 781.0,93.7 785.5,163.6 790.0,122.7"/><line x1="825" y1="75" x2="849" y2="75" stroke="#1f77b4" stroke-width="2"/><text x="855" y="79" font-size="11">贵州茅台</text><polyline fill="none" stroke="#d62728" stroke-width="2" points="120.0,296.1 124.5,300.1 129.0,320.8 133.5,308.3 138.0,252.4 142.5,55.0 147.0,125.6 151.5,217.1 156.0,211.6 160.5,324.1 165.0,173.5 169.5,149.9 174.0,226.4 178.5,228.4 183.0,203.6 187.4,193.2 191.9,226.3 196.4,309.0 200.9,248.2 205.4,333.7 209.9,255.5 214.4,217.4 218.9,334.0 223.4,309.0 227.9,305.8 232.4,303.6 236.9,285.6 241.4,289.6 245.9,297.7 250.4,230.2 254.9,265.5 259.4,282.3 263.9,242.2 268.4,330.6 272.9,300.7 277.4,262.3 281.9,262.7 286.4,293.0 290.9,256.4 295.4,271.4 299.9,275.1 304.4,269.9 308.9,279.7 313.4,283.9 317.9,252.8 322.3,287.9 326.8,269.1 331.3,310.1 335.8,296.5 340.3,262.8 344.8,325.7 349.3,236.9 353.8,208.4 358.3,225.7 362.8,278.0 367.3,270.9 371.8,248.2 376.3,220.2 380.8,205.5 385.3,272.3 389.8,356.1 394.3,327.1 398.8,111.6 403.3,205.7 407.8,202.6 412.3,207.3 416.8,326.4 421.3,302.4 425.8,218.7 430.3,249.4 434.8,253.6 439.3,268.9 443.8,269.0 448.3,286.7 452.8,243.4 457.2,139.8 461.7,250.6 466.2,220.7 470.7,259.2 475.2,221.5 479.7,231.2 484.2,230.2 488.7,249.5 493.2,267.7 497.7,284.0 502.2,317.7 506.7,217.7 511.2,218.4 515.7,252.1 520.2,257.7 524.7,271.2 529.2,189.9 533.7,191.4 538.2,217.1 542.7,345.0 547.2,356.2 551.7,313.0 556.2,314.0 560.7,286.3 565.2,261.0 569.7,272.7 574.2,263.6 578.7,302.4 583.2,405.0 587.7,223.2 592.1,180.3 596.6,160.3 601.1,269.6 605.6,217.9 610.1,247.2 614.6,269.8 619.1,341.5 623.6,300.0 628.1,251.2 632.6,216.4 637.1,143.9 641.6,192.6 646.1,181.9 650.6,237.7 655.1,275.7 659.6,239.2 664.1,336.5 668.6,317.3 673.1,253.7 677.6,277.8 682.1,265.0 686.6,223.4 691.1,224.2 695.6,230.4 700.1,210.3 704.6,312.8 709.1,268.4 713.6,190.8 718.1,200.7 722.6,281.4 727.0,242.5 731.5,97.1 736.0,170.0 740.5,99.5 745.0,191.0 749.5,219.5 754.0,138.3 758.5,208.8 763.0,240.2 767.5,333.2 772.0,217.9 776.5,225.4 781.0,207.0 785.5,320.5 790.0,248.1"/><line x1="825" y1="93" x2="849" y2="93" stroke="#d62728" stroke-width="2"/><text x="855" y="97" font-size="11">中国平安</text><polyline fill="none" stroke="#2ca02c" stroke-width="2" points="120.0,149.6 124.5,224.8 129.0,220.7 133.5,198.8 138.0,240.9 142.5,405.0 147.0,348.0 151.5,258.2 156.0,311.8 160.5,182.9 165.0,255.2 169.5,312.4 174.0,267.7 178.5,268.6 183.0,292.0 187.4,252.5 191.9,248.4 196.4,259.7 200.9,236.6 205.4,284.6 209.9,200.0 214.4,259.9 218.9,153.9 223.4,126.7 227.9,120.2 232.4,147.6 236.9,148.6 241.4,207.4 245.9,251.0 250.4,163.4 254.9,175.5 259.4,174.9 263.9,315.0 268.4,233.6 272.9,182.8 277.4,270.6 281.9,275.7 286.4,214.0 290.9,221.4 295.4,209.5 299.9,246.8 304.4,213.2 308.9,177.8 313.4,164.7 317.9,238.5 322.3,203.8 326.8,224.8 331.3,244.7 335.8,144.7 340.3,164.1 344.8,193.7 349.3,225.7 353.8,284.2 358.3,294.0 362.8,308.7 367.3,323.2 371.8,302.6 376.3,303.0 380.8,325.0 385.3,324.3 389.8,259.7 394.3,266.4 398.8,315.8 403.3,269.9 407.8,201.1 412.3,149.4 416.8,365.9 421.3,365.9 425.8,270.6 430.3,328.9 434.8,224.5 439.3,70.2 443.8,134.0 448.3,176.7 452.8,218.7 457.2,242.3 461.7,198.1 466.2,243.6 470.7,291.0 475.2,308.9 479.7,251.0 484.2,312.7 488.7,314.2 493.2,255.5 497.7,257.5 502.2,216.8 506.7,250.8 511.2,233.7 515.7,210.3 520.2,234.6 524.7,282.5 529.2,297.2 533.7,252.1 538.2,253.9 542.7,224.3 547.2,138.8 551.7,128.8 556.2,138.1 560.7,143.3 565.2,155.4 569.7,170.3 574.2,164.8 578.7,149.5 583.2,55.0 587.7,108.8 592.1,155.9 596.6,221.9 601.1,165.8 605.6,224.8 610.1,285.6 614.6,137.6 619.1,140.6 623.6,174.5 628.1,212.8 632.6,302.7 637.1,321.9 641.6,260.7 646.1,250.2 650.6,214.8 655.1,171.7 659.6,87.8 664.1,78.6 668.6,172.4 673.1,258.9 677.6,212.0 682.1,204.6 686.6,216.3 691.1,300.2 695.6,279.6 700.1,321.9 704.6,215.8 709.1,226.0 713.6,259.7 718.1,314.7 722.6,192.6 727.0,174.2 731.5,255.7 736.0,284.8 740.5,282.2 745.0,251.9 749.5,216.4 754.0,287.7 758.5,276.1 763.0,288.1 767.5,212.6 772.0,228.5 776.5,243.9 781.0,320.0 785.5,247.3 790.0,271.6"/><line x1="825" y1="111" x2="849" y2="111" stroke="#2ca02c" stroke-width="2"/><text x="855" y="115" font-size="11">长江电力</text><polyline fill="none" stroke="#ff7f0e" stroke-width="2" points="120.0,214.2 124.5,226.8 129.0,269.3 133.5,257.6 138.0,247.0 142.5,199.8 147.0,230.4 151.5,256.5 156.0,256.3 160.5,287.7 165.0,314.1 169.5,327.4 174.0,277.3 178.5,305.4 183.0,250.4 187.4,294.2 191.9,405.0 196.4,260.9 200.9,284.6 205.4,229.7 209.9,309.4 214.4,233.8 218.9,339.9 223.4,293.2 227.9,295.9 232.4,226.9 236.9,314.3 241.4,269.1 245.9,271.0 250.4,284.2 254.9,215.1 259.4,222.4 263.9,224.7 268.4,217.2 272.9,253.9 277.4,198.7 281.9,264.7 286.4,298.3 290.9,298.5 295.4,266.8 299.9,200.7 304.4,184.7 308.9,216.4 313.4,239.7 317.9,273.9 322.3,317.3 326.8,273.6 331.3,196.8 335.8,242.8 340.3,233.9 344.8,106.5 349.3,170.4 353.8,175.1 358.3,233.0 362.8,231.8 367.3,216.5 371.8,188.3 376.3,194.8 380.8,223.3 385.3,222.0 389.8,217.7 394.3,134.0 398.8,280.3 403.3,182.5 407.8,314.0 412.3,236.8 416.8,242.9 421.3,173.9 425.8,291.7 430.3,211.7 434.8,319.6 439.3,389.5 443.8,375.6 448.3,319.4 452.8,254.1 457.2,339.2 461.7,252.5 466.2,209.6 470.7,113.9 475.2,158.3 479.7,257.2 484.2,193.3 488.7,168.8 493.2,158.3 497.7,195.8 502.2,213.7 506.7,260.8 511.2,264.4 515.7,223.8 520.2,237.1 524.7,226.1 529.2,177.8 533.7,243.7 538.2,247.5 542.7,135.4 547.2,196.8 551.7,256.4 556.2,243.0 560.7,234.0 565.2,251.4 569.7,272.6 574.2,291.0 578.7,300.9 583.2,224.0 587.7,284.4 592.1,339.8 596.6,239.4 601.1,283.9 605.6,358.6 610.1,55.0 614.6,205.2 619.1,139.7 623.6,306.2 628.1,311.0 632.6,233.8 637.1,258.0 641.6,293.7 646.1,223.0 650.6,222.3 655.1,266.4 659.6,205.8 664.1,227.6 668.6,264.9 673.1,208.2 677.6,183.9 682.1,234.4 686.6,271.0 691.1,229.9 695.6,273.5 700.1,194.1 704.6,199.9 709.1,141.8 713.6,313.5 718.1,318.5 722.6,267.6 727.0,271.2 731.5,296.2 736.0,297.1 740.5,204.1 745.0,232.7 749.5,275.8 754.0,264.8 758.5,247.2 763.0,226.0 767.5,249.9 772.0,285.0 776.5,344.3 781.0,292.4 785.5,218.9 790.0,274.7"/><line x1="825" y1="129" x2="849" y2="129" stroke="#ff7f0e" stroke-width="2"/><text x="855" y="133" font-size="11">中国中免</text><polyline fill="none" stroke="#9467bd" stroke-width="2" points="120.0,285.1 124.5,242.3 129.0,194.8 133.5,252.7 138.0,305.9 142.5,339.1 147.0,232.1 151.5,225.3 156.0,182.6 160.5,161.7 165.0,191.7 169.5,256.0 174.0,165.0 178.5,215.8 183.0,193.5 187.4,241.1 191.9,209.2 196.4,247.1 200.9,215.1 205.4,96.7 209.9,217.3 214.4,307.3 218.9,199.2 223.4,234.3 227.9,266.9 232.4,348.9 236.9,275.4 241.4,182.9 245.9,151.9 250.4,305.7 254.9,270.1 259.4,239.0 263.9,129.3 268.4,197.7 272.9,257.2 277.4,214.1 281.9,187.4 286.4,205.1 290.9,212.3 295.4,215.6 299.9,271.3 304.4,279.2 308.9,246.8 313.4,259.8 317.9,214.7 322.3,205.6 326.8,189.2 331.3,221.8 335.8,289.3 340.3,285.4 344.8,266.3 349.3,330.9 353.8,253.9 358.3,217.0 362.8,175.1 367.3,190.0 371.8,201.5 376.3,208.4 380.8,95.3 385.3,55.0 389.8,158.3 394.3,149.9 398.8,224.8 403.3,219.5 407.8,305.1 412.3,405.0 416.8,211.6 421.3,253.5 425.8,258.5 430.3,185.7 434.8,90.9 439.3,227.8 443.8,197.8 448.3,212.0 452.8,249.4 457.2,254.7 461.7,275.7 466.2,207.7 470.7,231.9 475.2,209.7 479.7,225.4 484.2,213.9 488.7,201.4 493.2,231.0 497.7,204.7 502.2,245.7 506.7,258.5 511.2,290.2 515.7,295.9 520.2,191.4 524.7,224.9 529.2,247.7 533.7,310.1 538.2,327.7 542.7,225.3 547.2,255.0 551.7,262.4 556.2,278.8 560.7,292.5 565.2,281.4 569.7,270.5 574.2,280.6 578.7,263.2 583.2,259.0 587.7,266.3 592.1,251.2 596.6,301.4 601.1,275.2 605.6,208.2 610.1,340.3 614.6,346.2 619.1,347.5 623.6,235.0 628.1,251.5 632.6,194.7 637.1,211.8 641.6,241.7 646.1,344.2 650.6,290.2 655.1,293.4 659.6,266.4 664.1,328.2 668.6,264.2 673.1,303.3 677.6,259.5 682.1,370.3 686.6,284.3 691.1,94.1 695.6,159.9 700.1,216.8 704.6,257.4 709.1,268.8 713.6,187.3 718.1,155.5 722.6,310.0 727.0,287.3 731.5,243.3 736.0,205.5 740.5,277.7 745.0,207.5 749.5,278.8 754.0,247.0 758.5,196.9 763.0,169.2 767.5,133.2 772.0,178.5 776.5,202.5 781.0,333.4 785.5,257.3 790.0,324.8"/><line x1="825" y1="147" x2="849" y2="147" stroke="#9467bd" stroke-width="2"/><text x="855" y="151" font-size="11">恒瑞医药</text>
</svg>
