<svg xmlns="http://www.w3.org/2000/svg" width="1040" height="460">
<rect width="100%" height="100%" fill="white"/>
<text x="120" y="24" font-size="16">Utility 组合月度权重变化</text>
<line class="axis-x" x1="120" y1="405" x2="790" y2="405" stroke="black" stroke-width="1"/><line class="axis-y" x1="120" y1="55" x2="120" y2="405" stroke="black" stroke-width="1"/><text x="455.0" y="448" font-size="12" text-anchor="middle">时间</text><text class="y-label" x="32" y="230.0" font-size="12" text-anchor="middle" transform="rotate(-90 32 230.0)">权重</text><rect class="legend-box" x="810" y="55" width="215" height="120" fill="white" stroke="#cccccc" stroke-width="1"/><line x1="120.0" y1="405" x2="120.0" y2="410" stroke="black" stroke-width="1"/><text x="120.0" y="423" font-size="10" text-anchor="middle">2010-03</text><line x1="232.4" y1="405" x2="232.4" y2="410" stroke="black" stroke-width="1"/><text x="232.4" y="423" font-size="10" text-anchor="middle">2012-04</text><line x1="344.8" y1="405" x2="344.8" y2="410" stroke="black" stroke-width="1"/><text x="344.8" y="423" font-size="10" text-anchor="middle">2014-05</text><line x1="457.2" y1="405" x2="457.2" y2="410" stroke="black" stroke-width="1"/><text x="457.2" y="423" font-size="10" text-anchor="middle">2016-06</text><line x1="569.7" y1="405" x2="569.7" y2="410" stroke="black" stroke-width="1"/><text x="569.7" y="423" font-size="10" text-anchor="middle">2018-07</text><line x1="682.1" y1="405" x2="682.1" y2="410" stroke="black" stroke-width="1"/><text x="682.1" y="423" font-size="10" text-anchor="middle">2020-08</text><line x1="790.0" y1="405" x2="790.0" y2="410" stroke="black" stroke-width="1"/><text x="790.0" y="423" font-size="10" text-anchor="middle">2022-08</text><line x1="115" y1="405.0" x2="120" y2="405.0" stroke="black" stroke-width="1"/><text x="110" y="408.0" font-size="10" text-anchor="end">-4.1</text><line x1="115" y1="230.0" x2="120" y2="230.0" stroke="black" stroke-width="1"/><text x="110" y="233.0" font-size="10" text-anchor="end">-0.42</text><line x1="115" y1="55.0" x2="120" y2="55.0" stroke="black" stroke-width="1"/><text x="110" y="58.0" font-size="10" text-anchor="end">3.2</text><polyline fill="none" stroke="#1f77b4" stroke-width="2" points="120.0,231.2 124.5,405.0 129.0,328.8 133.5,265.7 138.0,171.6 142.5,145.7 147.0,188.0 151.5,250.9 156.0,244.7 160.5,254.5 165.0,235.3 169.5,271.5 174.0,233.5 178.5,242.9 183.0,150.4 187.4,87.9 191.9,86.4 196.4,109.1 200.9,175.2 205.4,235.3 209.9,226.7 214.4,248.3 218.9,277.0 223.4,243.1 227.9,230.1 232.4,219.7 236.9,202.0 241.4,221.1 245.9,213.8 250.4,307.9 254.9,251.8 259.4,255.8 263.9,264.4 268.4,324.1 272.9,330.6 277.4,304.4 281.9,351.2 286.4,237.8 290.9,206.9 295.4,151.6 299.9,264.3 304.4,362.0 308.9,361.4 313.4,334.5 317.9,261.4 322.3,293.1 326.8,249.4 331.3,210.1 335.8,197.8 340.3,219.4 344.8,283.1 349.3,301.8 353.8,201.1 358.3,216.4 362.8,357.2 367.3,322.4 371.8,374.9 376.3,253.2 380.8,286.8 385.3,295.2 389.8,259.5 394.3,253.9 398.8,221.8 403.3,208.2 407.8,288.8 412.3,280.9 416.8,201.2 421.3,228.7 425.8,227.2 430.3,190.7 434.8,188.1 439.3,76.2 443.8,127.6 448.3,163.7 452.8,139.0 457.2,135.1 461.7,184.9 466.2,251.3 470.7,377.8 475.2,273.4 479.7,159.8 484.2,151.2 488.7,199.0 493.2,225.9 497.7,233.7 502.2,176.6 506.7,218.6 511.2,234.6 515.7,221.9 520.2,280.9 524.7,205.4 529.2,273.3 533.7,240.7 538.2,228.1 542.7,243.1 547.2,225.5 551.7,385.3 556.2,304.0 560.7,248.1 565.2,173.8 569.7,295.3 574.2,367.1 578.7,299.1 583.2,393.2 587.7,345.5 592.1,326.2 596.6,55.0 601.1,121.4 605.6,220.4 610.1,228.9 614.6,206.8 619.1,256.1 623.6,302.8 628.1,78.3 632.6,169.8 637.1,218.0 641.6,148.9 646.1,215.7 650.6,320.6 655.1,297.8 659.6,100.7 664.1,72.2 668.6,122.1 673.1,84.9 677.6,225.0 682.1,158.1 686.6,218.5 691.1,241.3 695.6,276.1 700.1,252.9 704.6,224.7 709.1,262.6 713.6,256.9 718.1,273.9 722.6,146.3 727.0,203.1 731.5,220.3 736.0,299.0 740.5,237.0 745.0,239.2 749.5,146.2 754.0,192.0 758.5,172.3 763.0,287.6 767.5,205.7 772.0,123.9 776.5,156.5 781.0,151.2 785.5,250.3 790.0,219.0"/><line x1="825" y1="75" x2="849" y2="75" stroke="#1f77b4" stroke-width="2"/><text x="855" y="79" font-size="11">贵州茅台</text><polyline fill="none" stroke="#d62728" stroke-width="2" points="120.0,206.4 124.5,211.1 129.0,203.7 133.5,226.5 138.0,226.9 142.5,207.1 147.0,95.5 151.5,150.3 156.0,181.2 160.5,245.2 165.0,274.4 169.5,304.8 174.0,237.7 178.5,193.4 183.0,176.2 187.4,247.1 191.9,235.2 196.4,181.4 200.9,283.2 205.4,231.7 209.9,260.3 214.4,228.0 218.9,190.3 223.4,180.8 227.9,219.8 232.4,218.0 236.9,193.5 241.4,189.8 245.9,208.2 250.4,277.6 254.9,229.0 259.4,240.1 263.9,259.3 268.4,218.6 272.9,150.8 277.4,199.6 281.9,253.7 286.4,268.6 290.9,290.7 295.4,276.7 299.9,271.5 304.4,242.2 308.9,133.2 313.4,123.6 317.9,154.0 322.3,146.0 326.8,198.3 331.3,228.9 335.8,229.9 340.3,174.4 344.8,136.0 349.3,205.0 353.8,230.7 358.3,274.6 362.8,263.6 367.3,293.4 371.8,174.7 376.3,171.5 380.8,181.3 385.3,203.7 389.8,217.6 394.3,231.3 398.8,258.2 403.3,352.6 407.8,241.3 412.3,234.6 416.8,242.5 421.3,175.1 425.8,147.8 430.3,201.0 434.8,246.9 439.3,252.8 443.8,250.4 448.3,187.3 452.8,153.7 457.2,166.6 461.7,292.8 466.2,211.6 470.7,108.4 475.2,96.6 479.7,111.1 484.2,107.7 488.7,186.4 493.2,253.9 497.7,240.6 502.2,285.4 506.7,147.5 511.2,136.5 515.7,167.5 520.2,186.9 524.7,227.1 529.2,128.3 533.7,155.9 538.2,185.4 542.7,229.8 547.2,248.4 551.7,254.8 556.2,281.5 560.7,302.6 565.2,342.5 569.7,208.1 574.2,135.9 578.7,104.7 583.2,55.0 587.7,90.1 592.1,295.3 596.6,344.9 601.1,231.2 605.6,185.3 610.1,190.3 614.6,258.9 619.1,221.7 623.6,175.7 628.1,405.0 632.6,269.8 637.1,179.5 641.6,261.2 646.1,292.9 650.6,206.6 655.1,203.5 659.6,327.1 664.1,341.9 668.6,287.5 673.1,281.9 677.6,239.6 682.1,225.6 686.6,202.3 691.1,202.7 695.6,130.9 700.1,198.8 704.6,269.4 709.1,214.9 713.6,230.4 718.1,190.4 722.6,315.6 727.0,367.2 731.5,314.8 736.0,249.3 740.5,270.5 745.0,212.6 749.5,231.2 754.0,241.8 758.5,106.8 763.0,182.4 767.5,178.4 772.0,245.9 776.5,199.7 781.0,221.6 785.5,255.0 790.0,289.0"/><line x1="825" y1="93" x2="849" y2="93" stroke="#d62728" stroke-width="2"/><text x="855" y="97" font-size="11">中国平安</text><polyline fill="none" stroke="#2ca02c" stroke-width="2" points="120.0,172.7 124.5,138.0 129.0,185.3 133.5,158.9 138.0,223.5 142.5,258.6 147.0,400.8 151.5,236.4 156.0,237.6 160.5,185.9 165.0,95.9 169.5,55.0 174.0,128.4 178.5,172.8 183.0,222.8 187.4,199.9 191.9,327.1 196.4,405.0 200.9,156.9 205.4,113.0 209.9,192.2 214.4,171.8 218.9,139.4 223.4,150.2 227.9,165.9 232.4,186.9 236.9,195.7 241.4,241.3 245.9,234.7 250.4,125.5 254.9,174.2 259.4,185.3 263.9,79.0 268.4,60.5 272.9,154.5 277.4,198.1 281.9,163.1 286.4,182.9 290.9,139.4 295.4,208.4 299.9,161.6 304.4,163.2 308.9,256.3 313.4,219.7 317.9,242.9 322.3,232.3 326.8,223.7 331.3,223.4 335.8,171.9 340.3,182.2 344.8,149.3 349.3,166.5 353.8,123.2 358.3,87.1 362.8,104.1 367.3,121.6 371.8,155.3 376.3,190.2 380.8,205.2 385.3,206.9 389.8,213.1 394.3,159.0 398.8,195.6 403.3,127.4 407.8,134.0 412.3,146.3 416.8,209.7 421.3,209.7 425.8,229.8 430.3,235.7 434.8,164.9 439.3,222.8 443.8,212.1 448.3,190.5 452.8,153.3 457.2,177.7 461.7,145.3 466.2,157.3 470.7,206.5 475.2,274.1 479.7,290.0 484.2,313.6 488.7,303.3 493.2,316.6 497.7,270.3 502.2,188.2 506.7,261.1 511.2,241.8 515.7,179.0 520.2,184.5 524.7,253.6 529.2,304.6 533.7,225.9 538.2,206.9 542.7,200.6 547.2,177.8 551.7,147.1 556.2,162.5 560.7,151.5 565.2,129.9 569.7,173.2 574.2,183.4 578.7,202.5 583.2,187.9 587.7,225.0 592.1,105.8 596.6,116.4 601.1,190.3 605.6,218.0 610.1,251.1 614.6,179.6 619.1,185.5 623.6,171.2 628.1,133.3 632.6,222.7 637.1,266.9 641.6,182.0 646.1,115.9 650.6,172.7 655.1,188.7 659.6,171.1 664.1,148.8 668.6,182.6 673.1,201.8 677.6,186.8 682.1,182.9 686.6,152.1 691.1,178.5 695.6,204.7 700.1,231.8 704.6,178.4 709.1,189.3 713.6,129.2 718.1,139.0 722.6,143.9 727.0,93.4 731.5,66.7 736.0,78.9 740.5,89.1 745.0,147.5 749.5,202.7 754.0,161.1 758.5,137.8 763.0,89.2 767.5,151.5 772.0,141.1 776.5,185.2 781.0,225.0 785.5,174.5 790.0,124.0"/><line x1="825" y1="111" x2="849" y2="111" stroke="#2ca02c" stroke-width="2"/><text x="855" y="115" font-size="11">长江电力</text><polyline fill="none" stroke="#ff7f0e" stroke-width="2" points="120.0,251.1 124.5,215.3 129.0,236.6 133.5,190.9 138.0,154.6 142.5,149.1 147.0,163.2 151.5,229.0 156.0,208.3 160.5,205.7 165.0,235.3 169.5,240.5 174.0,236.2 178.5,228.5 183.0,279.7 187.4,325.7 191.9,154.7 196.4,139.5 200.9,221.9 205.4,231.4 209.9,198.5 214.4,225.7 218.9,229.1 223.4,210.8 227.9,190.7 232.4,177.4 236.9,277.7 241.4,291.3 245.9,223.7 250.4,225.1 254.9,247.1 259.4,195.0 263.9,233.4 268.4,268.7 272.9,302.7 277.4,177.8 281.9,129.9 286.4,134.5 290.9,149.3 295.4,187.9 299.9,195.6 304.4,85.3 308.9,125.2 313.4,192.9 317.9,229.9 322.3,275.7 326.8,218.9 331.3,182.0 335.8,226.8 340.3,280.2 344.8,379.7 349.3,240.3 353.8,232.7 358.3,176.7 362.8,198.7 367.3,191.5 371.8,187.3 376.3,207.8 380.8,210.2 385.3,185.7 389.8,178.2 394.3,293.8 398.8,221.7 403.3,136.7 407.8,191.2 412.3,234.4 416.8,204.2 421.3,278.0 425.8,261.5 430.3,199.6 434.8,245.7 439.3,298.8 443.8,291.9 448.3,270.8 452.8,287.9 457.2,381.6 461.7,213.0 466.2,269.8 470.7,224.1 475.2,264.4 479.7,405.0 484.2,284.4 488.7,173.8 493.2,55.0 497.7,143.9 502.2,188.6 506.7,237.7 511.2,239.7 515.7,236.1 520.2,242.9 524.7,191.0 529.2,120.7 533.7,216.7 538.2,218.0 542.7,182.3 547.2,170.7 551.7,179.2 556.2,180.6 560.7,174.8 565.2,188.4 569.7,173.4 574.2,168.4 578.7,242.0 583.2,256.6 587.7,259.8 592.1,122.0 596.6,277.5 601.1,284.4 605.6,283.5 610.1,130.2 614.6,94.8 619.1,121.2 623.6,188.8 628.1,268.2 632.6,244.0 637.1,270.1 641.6,327.6 646.1,251.0 650.6,209.7 655.1,256.0 659.6,288.6 664.1,196.9 668.6,203.7 673.1,150.3 677.6,164.8 682.1,195.2 686.6,197.3 691.1,232.9 695.6,220.3 700.1,187.7 704.6,163.4 709.1,179.8 713.6,199.2 718.1,216.1 722.6,196.7 727.0,117.3 731.5,205.2 736.0,187.6 740.5,216.2 745.0,208.2 749.5,299.2 754.0,270.4 758.5,251.2 763.0,216.8 767.5,269.8 772.0,279.8 776.5,246.1 781.0,210.7 785.5,173.3 790.0,198.6"/><line x1="825" y1="129" x2="849" y2="129" stroke="#ff7f0e" stroke-width="2"/><text x="855" y="133" font-size="11">中国中免</text><polyline fill="none" stroke="#9467bd" stroke-width="2" points="120.0,166.4 124.5,78.4 129.0,73.3 133.5,181.0 138.0,209.8 142.5,215.5 147.0,109.6 151.5,152.2 156.0,133.5 160.5,114.7 165.0,195.3 169.5,174.2 174.0,199.0 178.5,193.0 183.0,185.6 187.4,140.6 191.9,131.1 196.4,84.2 200.9,165.1 205.4,231.7 209.9,118.1 214.4,145.6 218.9,212.2 223.4,258.0 227.9,213.8 232.4,208.0 236.9,154.3 241.4,64.0 245.9,116.7 250.4,89.6 254.9,118.2 259.4,130.7 263.9,214.0 268.4,206.8 272.9,126.6 277.4,136.6 281.9,113.3 286.4,167.7 290.9,215.9 295.4,153.3 299.9,114.0 304.4,158.7 308.9,136.4 313.4,165.6 317.9,127.2 322.3,81.8 326.8,116.6 331.3,146.3 335.8,189.4 340.3,180.6 344.8,128.9 349.3,120.4 353.8,249.5 358.3,278.3 362.8,116.4 367.3,90.7 371.8,156.0 376.3,206.7 380.8,138.2 385.3,120.0 389.8,133.0 394.3,92.8 398.8,99.8 403.3,160.2 407.8,174.8 412.3,134.6 416.8,135.8 421.3,133.6 425.8,157.9 430.3,168.4 434.8,168.7 439.3,135.6 443.8,112.0 448.3,212.4 452.8,318.3 457.2,185.2 461.7,167.8 466.2,145.6 470.7,135.8 475.2,117.0 479.7,55.0 484.2,142.9 488.7,107.0 493.2,79.6 497.7,75.9 502.2,146.3 506.7,143.2 511.2,168.6 515.7,231.7 520.2,136.4 524.7,101.8 529.2,161.1 533.7,180.2 538.2,178.6 542.7,146.2 547.2,180.9 551.7,58.1 556.2,75.6 560.7,120.8 565.2,155.8 569.7,173.2 574.2,192.3 578.7,204.5 583.2,190.0 587.7,132.1 592.1,170.0 596.6,203.3 601.1,181.5 605.6,110.9 610.1,187.5 614.6,250.4 619.1,221.7 623.6,198.6 628.1,85.2 632.6,74.3 637.1,63.4 641.6,88.1 646.1,146.2 650.6,119.3 655.1,80.4 659.6,96.1 664.1,217.6 668.6,189.1 673.1,252.6 677.6,185.7 682.1,245.4 686.6,261.9 691.1,170.0 695.6,207.4 700.1,129.1 704.6,159.3 709.1,166.3 713.6,219.1 718.1,227.3 722.6,190.4 727.0,211.5 731.5,224.1 736.0,236.4 740.5,225.8 745.0,225.2 749.5,127.0 754.0,155.0 758.5,405.0 763.0,295.5 767.5,241.3 772.0,233.6 776.5,232.3 781.0,183.3 785.5,151.0 790.0,184.2"/><line x1="825" y1="147" x2="849" y2="147" stroke="#9467bd" stroke-width="2"/><text x="855" y="151" font-size="11">恒瑞医药</text>
</svg>
