<svg xmlns="http://www.w3.org/2000/svg" width="900" height="360">
<rect width="100%" height="100%" fill="white"/>
<text x="30" y="20" font-size="16">50ETF购9月2450 收益率直方图</text>
<rect x="30.0" y="130.0" width="27.0" height="200.0" fill="#9ecae1"/><rect x="58.0" y="330.0" width="27.0" height="0.0" fill="#9ecae1"/><rect x="86.0" y="130.0" width="27.0" height="200.0" fill="#9ecae1"/><rect x="114.0" y="230.0" width="27.0" height="100.0" fill="#9ecae1"/><rect x="142.0" y="30.0" width="27.0" height="300.0" fill="#9ecae1"/><rect x="170.0" y="230.0" width="27.0" height="100.0" fill="#9ecae1"/><rect x="198.0" y="30.0" width="27.0" height="300.0" fill="#9ecae1"/><rect x="226.0" y="330.0" width="27.0" height="0.0" fill="#9ecae1"/><rect x="254.0" y="130.0" width="27.0" height="200.0" fill="#9ecae1"/><rect x="282.0" y="330.0" width="27.0" height="0.0" fill="#9ecae1"/><rect x="310.0" y="230.0" width="27.0" height="100.0" fill="#9ecae1"/><rect x="338.0" y="130.0" width="27.0" height="200.0" fill="#9ecae1"/><rect x="366.0" y="330.0" width="27.0" height="0.0" fill="#9ecae1"/><rect x="394.0" y="330.0" width="27.0" height="0.0" fill="#9ecae1"/><rect x="422.0" y="330.0" width="27.0" height="0.0" fill="#9ecae1"/><rect x="450.0" y="230.0" width="27.0" height="100.0" fill="#9ecae1"/><rect x="478.0" y="230.0" width="27.0" height="100.0" fill="#9ecae1"/><rect x="506.0" y="330.0" width="27.0" height="0.0" fill="#9ecae1"/><rect x="534.0" y="330.0" width="27.0" height="0.0" fill="#9ecae1"/><rect x="562.0" y="230.0" width="27.0" height="100.0" fill="#9ecae1"/><rect x="590.0" y="330.0" width="27.0" height="0.0" fill="#9ecae1"/><rect x="618.0" y="330.0" width="27.0" height="0.0" fill="#9ecae1"/><rect x="646.0" y="330.0" width="27.0" height="0.0" fill="#9ecae1"/><rect x="674.0" y="130.0" width="27.0" height="200.0" fill="#9ecae1"/><rect x="702.0" y="330.0" width="27.0" height="0.0" fill="#9ecae1"/><rect x="730.0" y="330.0" width="27.0" height="0.0" fill="#9ecae1"/><rect x="758.0" y="230.0" width="27.0" height="100.0" fill="#9ecae1"/><rect x="786.0" y="330.0" width="27.0" height="0.0" fill="#9ecae1"/><rect x="814.0" y="330.0" width="27.0" height="0.0" fill="#9ecae1"/><rect x="842.0" y="230.0" width="27.0" height="100.0" fill="#9ecae1"/>
<polyline fill="none" stroke="#d62728" stroke-width="2" points="30.0,191.4 37.1,186.3 44.1,181.1 51.2,175.9 58.2,170.6 65.3,165.3 72.4,160.0 79.4,154.6 86.5,149.3 93.5,143.9 100.6,138.6 107.6,133.2 114.7,127.9 121.8,122.6 128.8,117.4 135.9,112.2 142.9,107.1 150.0,102.1 157.1,97.2 164.1,92.3 171.2,87.6 178.2,83.0 185.3,78.5 192.4,74.2 199.4,70.0 206.5,66.0 213.5,62.1 220.6,58.5 227.6,55.0 234.7,51.7 241.8,48.6 248.8,45.8 255.9,43.1 262.9,40.7 270.0,38.5 277.1,36.6 284.1,34.9 291.2,33.4 298.2,32.2 305.3,31.3 312.4,30.6 319.4,30.2 326.5,30.0 333.5,30.1 340.6,30.4 347.6,31.1 354.7,31.9 361.8,33.0 368.8,34.4 375.9,36.1 382.9,37.9 390.0,40.0 397.1,42.4 404.1,45.0 411.2,47.8 418.2,50.8 425.3,54.0 432.4,57.4 439.4,61.0 446.5,64.8 453.5,68.8 460.6,72.9 467.6,77.2 474.7,81.6 481.8,86.2 488.8,90.9 495.9,95.7 502.9,100.6 510.0,105.6 517.1,110.7 524.1,115.8 531.2,121.1 538.2,126.3 545.3,131.6 552.4,137.0 559.4,142.3 566.5,147.7 573.5,153.0 580.6,158.4 587.6,163.7 594.7,169.0 601.8,174.3 608.8,179.6 615.9,184.7 622.9,189.9 630.0,194.9 637.1,199.9 644.1,204.8 651.2,209.7 658.2,214.4 665.3,219.1 672.4,223.7 679.4,228.1 686.5,232.5 693.5,236.7 700.6,240.9 707.6,244.9 714.7,248.9 721.8,252.7 728.8,256.4 735.9,259.9 742.9,263.4 750.0,266.8 757.1,270.0 764.1,273.1 771.2,276.1 778.2,279.0 785.3,281.8 792.4,284.4 799.4,287.0 806.5,289.4 813.5,291.8 820.6,294.0 827.6,296.1 834.7,298.2 841.8,300.1 848.8,302.0 855.9,303.7 862.9,305.4 870.0,307.0"/>
</svg>
