<svg xmlns="http://www.w3.org/2000/svg" width="900" height="360">
<rect width="100%" height="100%" fill="white"/>
<text x="30" y="20" font-size="16">50ETF沽9月3500 收益率直方图</text>
<rect x="30.0" y="230.0" width="27.0" height="100.0" fill="#9ecae1"/><rect x="58.0" y="330.0" width="27.0" height="0.0" fill="#9ecae1"/><rect x="86.0" y="330.0" width="27.0" height="0.0" fill="#9ecae1"/><rect x="114.0" y="330.0" width="27.0" height="0.0" fill="#9ecae1"/><rect x="142.0" y="330.0" width="27.0" height="0.0" fill="#9ecae1"/><rect x="170.0" y="230.0" width="27.0" height="100.0" fill="#9ecae1"/><rect x="198.0" y="330.0" width="27.0" height="0.0" fill="#9ecae1"/><rect x="226.0" y="230.0" width="27.0" height="100.0" fill="#9ecae1"/><rect x="254.0" y="330.0" width="27.0" height="0.0" fill="#9ecae1"/><rect x="282.0" y="330.0" width="27.0" height="0.0" fill="#9ecae1"/><rect x="310.0" y="130.0" width="27.0" height="200.0" fill="#9ecae1"/><rect x="338.0" y="330.0" width="27.0" height="0.0" fill="#9ecae1"/><rect x="366.0" y="230.0" width="27.0" height="100.0" fill="#9ecae1"/><rect x="394.0" y="230.0" width="27.0" height="100.0" fill="#9ecae1"/><rect x="422.0" y="330.0" width="27.0" height="0.0" fill="#9ecae1"/><rect x="450.0" y="330.0" width="27.0" height="0.0" fill="#9ecae1"/><rect x="478.0" y="30.0" width="27.0" height="300.0" fill="#9ecae1"/><rect x="506.0" y="230.0" width="27.0" height="100.0" fill="#9ecae1"/><rect x="534.0" y="230.0" width="27.0" height="100.0" fill="#9ecae1"/><rect x="562.0" y="230.0" width="27.0" height="100.0" fill="#9ecae1"/><rect x="590.0" y="330.0" width="27.0" height="0.0" fill="#9ecae1"/><rect x="618.0" y="30.0" width="27.0" height="300.0" fill="#9ecae1"/><rect x="646.0" y="30.0" width="27.0" height="300.0" fill="#9ecae1"/><rect x="674.0" y="230.0" width="27.0" height="100.0" fill="#9ecae1"/><rect x="702.0" y="230.0" width="27.0" height="100.0" fill="#9ecae1"/><rect x="730.0" y="230.0" width="27.0" height="100.0" fill="#9ecae1"/><rect x="758.0" y="330.0" width="27.0" height="0.0" fill="#9ecae1"/><rect x="786.0" y="230.0" width="27.0" height="100.0" fill="#9ecae1"/><rect x="814.0" y="330.0" width="27.0" height="0.0" fill="#9ecae1"/><rect x="842.0" y="230.0" width="27.0" height="100.0" fill="#9ecae1"/>
<polyline fill="none" stroke="#d62728" stroke-width="2" points="30.0,314.5 37.1,313.1 44.1,311.7 51.2,310.1 58.2,308.5 65.3,306.7 72.4,304.8 79.4,302.9 86.5,300.7 93.5,298.5 100.6,296.1 107.6,293.6 114.7,291.0 121.8,288.2 128.8,285.2 135.9,282.1 142.9,278.9 150.0,275.5 157.1,272.0 164.1,268.3 171.2,264.4 178.2,260.4 185.3,256.2 192.4,251.8 199.4,247.3 206.5,242.7 213.5,237.9 220.6,232.9 227.6,227.8 234.7,222.6 241.8,217.2 248.8,211.7 255.9,206.1 262.9,200.3 270.0,194.5 277.1,188.6 284.1,182.5 291.2,176.4 298.2,170.3 305.3,164.1 312.4,157.8 319.4,151.6 326.5,145.3 333.5,139.0 340.6,132.8 347.6,126.6 354.7,120.4 361.8,114.3 368.8,108.3 375.9,102.4 382.9,96.7 390.0,91.0 397.1,85.5 404.1,80.2 411.2,75.1 418.2,70.2 425.3,65.5 432.4,61.0 439.4,56.8 446.5,52.9 453.5,49.2 460.6,45.8 467.6,42.8 474.7,40.0 481.8,37.5 488.8,35.4 495.9,33.7 502.9,32.2 510.0,31.1 517.1,30.4 524.1,30.0 531.2,30.0 538.2,30.3 545.3,31.0 552.4,32.1 559.4,33.5 566.5,35.2 573.5,37.3 580.6,39.7 587.6,42.4 594.7,45.5 601.8,48.8 608.8,52.4 615.9,56.4 622.9,60.5 630.0,65.0 637.1,69.6 644.1,74.5 651.2,79.6 658.2,84.9 665.3,90.4 672.4,96.0 679.4,101.7 686.5,107.6 693.5,113.6 700.6,119.7 707.6,125.8 714.7,132.0 721.8,138.3 728.8,144.5 735.9,150.8 742.9,157.1 750.0,163.3 757.1,169.6 764.1,175.7 771.2,181.8 778.2,187.9 785.3,193.8 792.4,199.7 799.4,205.4 806.5,211.1 813.5,216.6 820.6,222.0 827.6,227.2 834.7,232.3 841.8,237.3 848.8,242.1 855.9,246.8 862.9,251.3 870.0,255.7"/>
</svg>
