<svg xmlns="http://www.w3.org/2000/svg" width="900" height="360">
<rect width="100%" height="100%" fill="white"/>
<text x="45" y="20" font-size="16">50ETF购9月2450 收益率直方图</text>
<line class="axis-x" x1="45" y1="315" x2="855" y2="315" stroke="black" stroke-width="1"/>
<line class="axis-y" x1="45" y1="45" x2="45" y2="315" stroke="black" stroke-width="1"/>
<text x="450.0" y="355" font-size="12" text-anchor="middle">收益率</text>
<text x="14" y="180.0" font-size="12" text-anchor="middle" transform="rotate(-90 14 180.0)">频数</text>
<line x1="45.0" y1="315" x2="45.0" y2="320" stroke="black" stroke-width="1"/>
<text x="45.0" y="333" font-size="10" text-anchor="middle">-0.100</text>
<line x1="450.0" y1="315" x2="450.0" y2="320" stroke="black" stroke-width="1"/>
<text x="450.0" y="333" font-size="10" text-anchor="middle">0.029</text>
<line x1="855.0" y1="315" x2="855.0" y2="320" stroke="black" stroke-width="1"/>
<text x="855.0" y="333" font-size="10" text-anchor="middle">0.159</text>
<line x1="40" y1="315.0" x2="45" y2="315.0" stroke="black" stroke-width="1"/>
<text x="37" y="318.0" font-size="10" text-anchor="end">0</text>
<line x1="40" y1="180.0" x2="45" y2="180.0" stroke="black" stroke-width="1"/>
<text x="37" y="183.0" font-size="10" text-anchor="end">1</text>
<line x1="40" y1="45.0" x2="45" y2="45.0" stroke="black" stroke-width="1"/>
<text x="37" y="48.0" font-size="10" text-anchor="end">3</text>
<rect x="45.0" y="135.0" width="26.0" height="180.0" fill="#9ecae1"/><rect x="72.0" y="315.0" width="26.0" height="0.0" fill="#9ecae1"/><rect x="99.0" y="135.0" width="26.0" height="180.0" fill="#9ecae1"/><rect x="126.0" y="225.0" width="26.0" height="90.0" fill="#9ecae1"/><rect x="153.0" y="45.0" width="26.0" height="270.0" fill="#9ecae1"/><rect x="180.0" y="225.0" width="26.0" height="90.0" fill="#9ecae1"/><rect x="207.0" y="45.0" width="26.0" height="270.0" fill="#9ecae1"/><rect x="234.0" y="315.0" width="26.0" height="0.0" fill="#9ecae1"/><rect x="261.0" y="135.0" width="26.0" height="180.0" fill="#9ecae1"/><rect x="288.0" y="315.0" width="26.0" height="0.0" fill="#9ecae1"/><rect x="315.0" y="225.0" width="26.0" height="90.0" fill="#9ecae1"/><rect x="342.0" y="135.0" width="26.0" height="180.0" fill="#9ecae1"/><rect x="369.0" y="315.0" width="26.0" height="0.0" fill="#9ecae1"/><rect x="396.0" y="315.0" width="26.0" height="0.0" fill="#9ecae1"/><rect x="423.0" y="315.0" width="26.0" height="0.0" fill="#9ecae1"/><rect x="450.0" y="225.0" width="26.0" height="90.0" fill="#9ecae1"/><rect x="477.0" y="225.0" width="26.0" height="90.0" fill="#9ecae1"/><rect x="504.0" y="315.0" width="26.0" height="0.0" fill="#9ecae1"/><rect x="531.0" y="315.0" width="26.0" height="0.0" fill="#9ecae1"/><rect x="558.0" y="225.0" width="26.0" height="90.0" fill="#9ecae1"/><rect x="585.0" y="315.0" width="26.0" height="0.0" fill="#9ecae1"/><rect x="612.0" y="315.0" width="26.0" height="0.0" fill="#9ecae1"/><rect x="639.0" y="315.0" width="26.0" height="0.0" fill="#9ecae1"/><rect x="666.0" y="135.0" width="26.0" height="180.0" fill="#9ecae1"/><rect x="693.0" y="315.0" width="26.0" height="0.0" fill="#9ecae1"/><rect x="720.0" y="315.0" width="26.0" height="0.0" fill="#9ecae1"/><rect x="747.0" y="225.0" width="26.0" height="90.0" fill="#9ecae1"/><rect x="774.0" y="315.0" width="26.0" height="0.0" fill="#9ecae1"/><rect x="801.0" y="315.0" width="26.0" height="0.0" fill="#9ecae1"/><rect x="828.0" y="225.0" width="26.0" height="90.0" fill="#9ecae1"/>
<polyline fill="none" stroke="#d62728" stroke-width="2" points="45.0,190.2 51.8,185.6 58.6,181.0 65.4,176.3 72.2,171.6 79.0,166.8 85.8,162.0 92.6,157.2 99.5,152.3 106.3,147.5 113.1,142.7 119.9,137.9 126.7,133.1 133.5,128.4 140.3,123.7 147.1,119.0 153.9,114.4 160.7,109.9 167.5,105.4 174.3,101.1 181.1,96.8 187.9,92.7 194.7,88.7 201.6,84.8 208.4,81.0 215.2,77.4 222.0,73.9 228.8,70.6 235.6,67.5 242.4,64.5 249.2,61.8 256.0,59.2 262.8,56.8 269.6,54.6 276.4,52.7 283.2,50.9 290.0,49.4 296.8,48.1 303.7,47.0 310.5,46.2 317.3,45.5 324.1,45.2 330.9,45.0 337.7,45.1 344.5,45.4 351.3,45.9 358.1,46.7 364.9,47.7 371.7,49.0 378.5,50.4 385.3,52.1 392.1,54.0 398.9,56.1 405.8,58.5 412.6,61.0 419.4,63.7 426.2,66.6 433.0,69.7 439.8,72.9 446.6,76.3 453.4,79.9 460.2,83.6 467.0,87.5 473.8,91.5 480.6,95.6 487.4,99.8 494.2,104.1 501.1,108.6 507.9,113.1 514.7,117.6 521.5,122.3 528.3,127.0 535.1,131.7 541.9,136.5 548.7,141.3 555.5,146.1 562.3,150.9 569.1,155.7 575.9,160.6 582.7,165.4 589.5,170.1 596.3,174.9 603.2,179.6 610.0,184.3 616.8,188.9 623.6,193.4 630.4,197.9 637.2,202.4 644.0,206.7 650.8,211.0 657.6,215.2 664.4,219.3 671.2,223.3 678.0,227.2 684.8,231.1 691.6,234.8 698.4,238.4 705.3,242.0 712.1,245.4 718.9,248.7 725.7,251.9 732.5,255.1 739.3,258.1 746.1,261.0 752.9,263.8 759.7,266.5 766.5,269.1 773.3,271.6 780.1,274.0 786.9,276.3 793.7,278.5 800.5,280.6 807.4,282.6 814.2,284.5 821.0,286.4 827.8,288.1 834.6,289.8 841.4,291.3 848.2,292.8 855.0,294.3"/>
</svg>
