<svg xmlns="http://www.w3.org/2000/svg" width="900" height="360">
<rect width="100%" height="100%" fill="white"/>
<text x="45" y="20" font-size="16">50ETF沽9月3500 收益率直方图</text>
<line class="axis-x" x1="45" y1="315" x2="855" y2="315" stroke="black" stroke-width="1"/>
<line class="axis-y" x1="45" y1="45" x2="45" y2="315" stroke="black" stroke-width="1"/>
<text x="450.0" y="355" font-size="12" text-anchor="middle">收益率</text>
<text x="14" y="180.0" font-size="12" text-anchor="middle" transform="rotate(-90 14 180.0)">频数</text>
<line x1="45.0" y1="315" x2="45.0" y2="320" stroke="black" stroke-width="1"/>
<text x="45.0" y="333" font-size="10" text-anchor="middle">-0.096</text>
<line x1="450.0" y1="315" x2="450.0" y2="320" stroke="black" stroke-width="1"/>
<text x="450.0" y="333" font-size="10" text-anchor="middle">-0.012</text>
<line x1="855.0" y1="315" x2="855.0" y2="320" stroke="black" stroke-width="1"/>
<text x="855.0" y="333" font-size="10" text-anchor="middle">0.072</text>
<line x1="40" y1="315.0" x2="45" y2="315.0" stroke="black" stroke-width="1"/>
<text x="37" y="318.0" font-size="10" text-anchor="end">0</text>
<line x1="40" y1="180.0" x2="45" y2="180.0" stroke="black" stroke-width="1"/>
<text x="37" y="183.0" font-size="10" text-anchor="end">1</text>
<line x1="40" y1="45.0" x2="45" y2="45.0" stroke="black" stroke-width="1"/>
<text x="37" y="48.0" font-size="10" text-anchor="end">3</text>
<rect x="45.0" y="225.0" width="26.0" height="90.0" fill="#9ecae1"/><rect x="72.0" y="315.0" width="26.0" height="0.0" fill="#9ecae1"/><rect x="99.0" y="315.0" width="26.0" height="0.0" fill="#9ecae1"/><rect x="126.0" y="315.0" width="26.0" height="0.0" fill="#9ecae1"/><rect x="153.0" y="315.0" width="26.0" height="0.0" fill="#9ecae1"/><rect x="180.0" y="225.0" width="26.0" height="90.0" fill="#9ecae1"/><rect x="207.0" y="315.0" width="26.0" height="0.0" fill="#9ecae1"/><rect x="234.0" y="225.0" width="26.0" height="90.0" fill="#9ecae1"/><rect x="261.0" y="315.0" width="26.0" height="0.0" fill="#9ecae1"/><rect x="288.0" y="315.0" width="26.0" height="0.0" fill="#9ecae1"/><rect x="315.0" y="135.0" width="26.0" height="180.0" fill="#9ecae1"/><rect x="342.0" y="315.0" width="26.0" height="0.0" fill="#9ecae1"/><rect x="369.0" y="225.0" width="26.0" height="90.0" fill="#9ecae1"/><rect x="396.0" y="225.0" width="26.0" height="90.0" fill="#9ecae1"/><rect x="423.0" y="315.0" width="26.0" height="0.0" fill="#9ecae1"/><rect x="450.0" y="315.0" width="26.0" height="0.0" fill="#9ecae1"/><rect x="477.0" y="45.0" width="26.0" height="270.0" fill="#9ecae1"/><rect x="504.0" y="225.0" width="26.0" height="90.0" fill="#9ecae1"/><rect x="531.0" y="225.0" width="26.0" height="90.0" fill="#9ecae1"/><rect x="558.0" y="225.0" width="26.0" height="90.0" fill="#9ecae1"/><rect x="585.0" y="315.0" width="26.0" height="0.0" fill="#9ecae1"/><rect x="612.0" y="45.0" width="26.0" height="270.0" fill="#9ecae1"/><rect x="639.0" y="45.0" width="26.0" height="270.0" fill="#9ecae1"/><rect x="666.0" y="225.0" width="26.0" height="90.0" fill="#9ecae1"/><rect x="693.0" y="225.0" width="26.0" height="90.0" fill="#9ecae1"/><rect x="720.0" y="225.0" width="26.0" height="90.0" fill="#9ecae1"/><rect x="747.0" y="315.0" width="26.0" height="0.0" fill="#9ecae1"/><rect x="774.0" y="225.0" width="26.0" height="90.0" fill="#9ecae1"/><rect x="801.0" y="315.0" width="26.0" height="0.0" fill="#9ecae1"/><rect x="828.0" y="225.0" width="26.0" height="90.0" fill="#9ecae1"/>
<polyline fill="none" stroke="#d62728" stroke-width="2" points="45.0,301.0 51.8,299.8 58.6,298.5 65.4,297.1 72.2,295.6 79.0,294.0 85.8,292.4 92.6,290.6 99.5,288.7 106.3,286.6 113.1,284.5 119.9,282.3 126.7,279.9 133.5,277.4 140.3,274.7 147.1,271.9 153.9,269.0 160.7,266.0 167.5,262.8 174.3,259.4 181.1,256.0 187.9,252.3 194.7,248.6 201.6,244.7 208.4,240.6 215.2,236.4 222.0,232.1 228.8,227.6 235.6,223.0 242.4,218.3 249.2,213.5 256.0,208.5 262.8,203.5 269.6,198.3 276.4,193.0 283.2,187.7 290.0,182.3 296.8,176.8 303.7,171.2 310.5,165.7 317.3,160.0 324.1,154.4 330.9,148.8 337.7,143.1 344.5,137.5 351.3,131.9 358.1,126.4 364.9,120.9 371.7,115.5 378.5,110.2 385.3,105.0 392.1,99.9 398.9,95.0 405.8,90.2 412.6,85.6 419.4,81.2 426.2,76.9 433.0,72.9 439.8,69.1 446.6,65.6 453.4,62.3 460.2,59.3 467.0,56.5 473.8,54.0 480.6,51.8 487.4,49.9 494.2,48.3 501.1,47.0 507.9,46.0 514.7,45.4 521.5,45.0 528.3,45.0 535.1,45.3 541.9,45.9 548.7,46.9 555.5,48.1 562.3,49.7 569.1,51.6 575.9,53.7 582.7,56.2 589.5,58.9 596.3,61.9 603.2,65.2 610.0,68.7 616.8,72.5 623.6,76.5 630.4,80.7 637.2,85.1 644.0,89.7 650.8,94.4 657.6,99.3 664.4,104.4 671.2,109.6 678.0,114.9 684.8,120.2 691.6,125.7 698.4,131.2 705.3,136.8 712.1,142.5 718.9,148.1 725.7,153.7 732.5,159.4 739.3,165.0 746.1,170.6 752.9,176.1 759.7,181.6 766.5,187.1 773.3,192.4 780.1,197.7 786.9,202.9 793.7,207.9 800.5,212.9 807.4,217.8 814.2,222.5 821.0,227.1 827.8,231.6 834.6,235.9 841.4,240.1 848.2,244.2 855.0,248.1"/>
</svg>
