<svg xmlns="http://www.w3.org/2000/svg" width="900" height="360">
<rect width="100%" height="100%" fill="white"/>
<text x="45" y="20" font-size="16">50ETF购9月2450 价格</text>
<line class="axis-x" x1="45" y1="315" x2="855" y2="315" stroke="black" stroke-width="1"/>
<line class="axis-y" x1="45" y1="45" x2="45" y2="315" stroke="black" stroke-width="1"/>
<text x="450.0" y="355" font-size="12" text-anchor="middle">样本点</text>
<text x="14" y="180.0" font-size="12" text-anchor="middle" transform="rotate(-90 14 180.0)">价格</text>
<line x1="45.0" y1="315" x2="45.0" y2="320" stroke="black" stroke-width="1"/>
<text x="45.0" y="333" font-size="10" text-anchor="middle">1</text>
<line x1="450.0" y1="315" x2="450.0" y2="320" stroke="black" stroke-width="1"/>
<text x="450.0" y="333" font-size="10" text-anchor="middle">13</text>
<line x1="855.0" y1="315" x2="855.0" y2="320" stroke="black" stroke-width="1"/>
<text x="855.0" y="333" font-size="10" text-anchor="middle">25</text>
<line x1="40" y1="315.0" x2="45" y2="315.0" stroke="black" stroke-width="1"/>
<text x="37" y="318.0" font-size="10" text-anchor="end">0.31</text>
<line x1="40" y1="302.3" x2="45" y2="302.3" stroke="black" stroke-width="1"/>
<text x="37" y="305.3" font-size="10" text-anchor="end">0.35</text>
<line x1="40" y1="45.0" x2="45" y2="45.0" stroke="black" stroke-width="1"/>
<text x="37" y="48.0" font-size="10" text-anchor="end">0.40</text>
<polyline fill="none" stroke="#1f77b4" stroke-width="2" points="45.0,110.3 78.8,214.4 112.5,271.0 146.2,209.8 180.0,104.8 213.8,148.5 247.5,150.5 281.2,246.0 315.0,81.8 348.8,45.0 382.5,92.4 416.2,141.6 450.0,91.6 483.8,150.5 517.5,181.9 551.2,188.5 585.0,245.7 618.8,315.0 652.5,189.6 686.2,191.1 720.0,250.6 753.8,271.9 787.5,171.2 821.2,251.5 855.0,313.3"/>
</svg>
