<svg xmlns="http://www.w3.org/2000/svg" width="900" height="360">
<rect width="100%" height="100%" fill="white"/>
<text x="45" y="20" font-size="16">上证50ETF 收益率直方图</text>
<line class="axis-x" x1="45" y1="315" x2="855" y2="315" stroke="black" stroke-width="1"/>
<line class="axis-y" x1="45" y1="45" x2="45" y2="315" stroke="black" stroke-width="1"/>
<text x="450.0" y="355" font-size="12" text-anchor="middle">收益率</text>
<text x="14" y="180.0" font-size="12" text-anchor="middle" transform="rotate(-90 14 180.0)">频数</text>
<line x1="45.0" y1="315" x2="45.0" y2="320" stroke="black" stroke-width="1"/>
<text x="45.0" y="333" font-size="10" text-anchor="middle">-0.105</text>
<line x1="450.0" y1="315" x2="450.0" y2="320" stroke="black" stroke-width="1"/>
<text x="450.0" y="333" font-size="10" text-anchor="middle">-0.005</text>
<line x1="855.0" y1="315" x2="855.0" y2="320" stroke="black" stroke-width="1"/>
<text x="855.0" y="333" font-size="10" text-anchor="middle">0.096</text>
<line x1="40" y1="315.0" x2="45" y2="315.0" stroke="black" stroke-width="1"/>
<text x="37" y="318.0" font-size="10" text-anchor="end">0</text>
<line x1="40" y1="180.0" x2="45" y2="180.0" stroke="black" stroke-width="1"/>
<text x="37" y="183.0" font-size="10" text-anchor="end">542</text>
<line x1="40" y1="45.0" x2="45" y2="45.0" stroke="black" stroke-width="1"/>
<text x="37" y="48.0" font-size="10" text-anchor="end">1085</text>
<rect x="45.0" y="314.5" width="26.0" height="0.5" fill="#9ecae1"/><rect x="72.0" y="314.8" width="26.0" height="0.2" fill="#9ecae1"/><rect x="99.0" y="314.3" width="26.0" height="0.7" fill="#9ecae1"/><rect x="126.0" y="314.3" width="26.0" height="0.7" fill="#9ecae1"/><rect x="153.0" y="314.3" width="26.0" height="0.7" fill="#9ecae1"/><rect x="180.0" y="313.0" width="26.0" height="2.0" fill="#9ecae1"/><rect x="207.0" y="314.0" width="26.0" height="1.0" fill="#9ecae1"/><rect x="234.0" y="311.5" width="26.0" height="3.5" fill="#9ecae1"/><rect x="261.0" y="309.0" width="26.0" height="6.0" fill="#9ecae1"/><rect x="288.0" y="307.0" width="26.0" height="8.0" fill="#9ecae1"/><rect x="315.0" y="305.3" width="26.0" height="9.7" fill="#9ecae1"/><rect x="342.0" y="292.6" width="26.0" height="22.4" fill="#9ecae1"/><rect x="369.0" y="275.4" width="26.0" height="39.6" fill="#9ecae1"/><rect x="396.0" y="233.9" width="26.0" height="81.1" fill="#9ecae1"/><rect x="423.0" y="162.5" width="26.0" height="152.5" fill="#9ecae1"/><rect x="450.0" y="45.0" width="26.0" height="270.0" fill="#9ecae1"/><rect x="477.0" y="107.0" width="26.0" height="208.0" fill="#9ecae1"/><rect x="504.0" y="200.0" width="26.0" height="115.0" fill="#9ecae1"/><rect x="531.0" y="257.5" width="26.0" height="57.5" fill="#9ecae1"/><rect x="558.0" y="279.4" width="26.0" height="35.6" fill="#9ecae1"/><rect x="585.0" y="294.3" width="26.0" height="20.7" fill="#9ecae1"/><rect x="612.0" y="304.1" width="26.0" height="10.9" fill="#9ecae1"/><rect x="639.0" y="308.5" width="26.0" height="6.5" fill="#9ecae1"/><rect x="666.0" y="311.8" width="26.0" height="3.2" fill="#9ecae1"/><rect x="693.0" y="313.3" width="26.0" height="1.7" fill="#9ecae1"/><rect x="720.0" y="314.5" width="26.0" height="0.5" fill="#9ecae1"/><rect x="747.0" y="313.8" width="26.0" height="1.2" fill="#9ecae1"/><rect x="774.0" y="314.3" width="26.0" height="0.7" fill="#9ecae1"/><rect x="801.0" y="314.5" width="26.0" height="0.5" fill="#9ecae1"/><rect x="828.0" y="314.0" width="26.0" height="1.0" fill="#9ecae1"/>
<polyline fill="none" stroke="#d62728" stroke-width="2" points="45.0,315.0 51.8,315.0 58.6,315.0 65.4,315.0 72.2,315.0 79.0,315.0 85.8,315.0 92.6,315.0 99.5,315.0 106.3,315.0 113.1,315.0 119.9,315.0 126.7,315.0 133.5,315.0 140.3,315.0 147.1,315.0 153.9,315.0 160.7,315.0 167.5,315.0 174.3,315.0 181.1,315.0 187.9,315.0 194.7,314.9 201.6,314.9 208.4,314.8 215.2,314.8 222.0,314.7 228.8,314.5 235.6,314.3 242.4,314.0 249.2,313.6 256.0,313.1 262.8,312.5 269.6,311.6 276.4,310.4 283.2,308.9 290.0,307.0 296.8,304.7 303.7,301.7 310.5,298.1 317.3,293.8 324.1,288.5 330.9,282.3 337.7,275.0 344.5,266.7 351.3,257.1 358.1,246.3 364.9,234.4 371.7,221.3 378.5,207.2 385.3,192.1 392.1,176.4 398.9,160.2 405.8,143.8 412.6,127.6 419.4,111.9 426.2,97.0 433.0,83.4 439.8,71.4 446.6,61.3 453.4,53.4 460.2,48.0 467.0,45.2 473.8,45.0 480.6,47.5 487.4,52.7 494.2,60.3 501.1,70.1 507.9,81.9 514.7,95.3 521.5,110.0 528.3,125.7 535.1,141.9 541.9,158.2 548.7,174.5 555.5,190.3 562.3,205.4 569.1,219.7 575.9,232.9 582.7,245.0 589.5,255.9 596.3,265.6 603.2,274.1 610.0,281.5 616.8,287.8 623.6,293.2 630.4,297.6 637.2,301.3 644.0,304.4 650.8,306.8 657.6,308.7 664.4,310.3 671.2,311.4 678.0,312.4 684.8,313.1 691.6,313.6 698.4,314.0 705.3,314.3 712.1,314.5 718.9,314.6 725.7,314.8 732.5,314.8 739.3,314.9 746.1,314.9 752.9,314.9 759.7,315.0 766.5,315.0 773.3,315.0 780.1,315.0 786.9,315.0 793.7,315.0 800.5,315.0 807.4,315.0 814.2,315.0 821.0,315.0 827.8,315.0 834.6,315.0 841.4,315.0 848.2,315.0 855.0,315.0"/>
</svg>
