<svg xmlns="http://www.w3.org/2000/svg" width="900" height="360">
<rect width="100%" height="100%" fill="white"/>
<text x="45" y="20" font-size="16">上证50指数 收益率直方图</text>
<line class="axis-x" x1="45" y1="315" x2="855" y2="315" stroke="black" stroke-width="1"/>
<line class="axis-y" x1="45" y1="45" x2="45" y2="315" stroke="black" stroke-width="1"/>
<text x="450.0" y="355" font-size="12" text-anchor="middle">收益率</text>
<text x="14" y="180.0" font-size="12" text-anchor="middle" transform="rotate(-90 14 180.0)">频数</text>
<line x1="45.0" y1="315" x2="45.0" y2="320" stroke="black" stroke-width="1"/>
<text x="45.0" y="333" font-size="10" text-anchor="middle">-0.099</text>
<line x1="450.0" y1="315" x2="450.0" y2="320" stroke="black" stroke-width="1"/>
<text x="450.0" y="333" font-size="10" text-anchor="middle">-0.004</text>
<line x1="855.0" y1="315" x2="855.0" y2="320" stroke="black" stroke-width="1"/>
<text x="855.0" y="333" font-size="10" text-anchor="middle">0.092</text>
<line x1="40" y1="315.0" x2="45" y2="315.0" stroke="black" stroke-width="1"/>
<text x="37" y="318.0" font-size="10" text-anchor="end">0</text>
<line x1="40" y1="180.0" x2="45" y2="180.0" stroke="black" stroke-width="1"/>
<text x="37" y="183.0" font-size="10" text-anchor="end">546</text>
<line x1="40" y1="45.0" x2="45" y2="45.0" stroke="black" stroke-width="1"/>
<text x="37" y="48.0" font-size="10" text-anchor="end">1093</text>
<rect x="45.0" y="314.0" width="26.0" height="1.0" fill="#9ecae1"/><rect x="72.0" y="315.0" width="26.0" height="0.0" fill="#9ecae1"/><rect x="99.0" y="314.8" width="26.0" height="0.2" fill="#9ecae1"/><rect x="126.0" y="313.5" width="26.0" height="1.5" fill="#9ecae1"/><rect x="153.0" y="313.0" width="26.0" height="2.0" fill="#9ecae1"/><rect x="180.0" y="314.3" width="26.0" height="0.7" fill="#9ecae1"/><rect x="207.0" y="312.3" width="26.0" height="2.7" fill="#9ecae1"/><rect x="234.0" y="309.8" width="26.0" height="5.2" fill="#9ecae1"/><rect x="261.0" y="307.3" width="26.0" height="7.7" fill="#9ecae1"/><rect x="288.0" y="307.8" width="26.0" height="7.2" fill="#9ecae1"/><rect x="315.0" y="301.4" width="26.0" height="13.6" fill="#9ecae1"/><rect x="342.0" y="287.8" width="26.0" height="27.2" fill="#9ecae1"/><rect x="369.0" y="260.7" width="26.0" height="54.3" fill="#9ecae1"/><rect x="396.0" y="217.2" width="26.0" height="97.8" fill="#9ecae1"/><rect x="423.0" y="134.9" width="26.0" height="180.1" fill="#9ecae1"/><rect x="450.0" y="45.0" width="26.0" height="270.0" fill="#9ecae1"/><rect x="477.0" y="122.8" width="26.0" height="192.2" fill="#9ecae1"/><rect x="504.0" y="199.9" width="26.0" height="115.1" fill="#9ecae1"/><rect x="531.0" y="257.9" width="26.0" height="57.1" fill="#9ecae1"/><rect x="558.0" y="279.9" width="26.0" height="35.1" fill="#9ecae1"/><rect x="585.0" y="291.8" width="26.0" height="23.2" fill="#9ecae1"/><rect x="612.0" y="302.6" width="26.0" height="12.4" fill="#9ecae1"/><rect x="639.0" y="308.1" width="26.0" height="6.9" fill="#9ecae1"/><rect x="666.0" y="312.5" width="26.0" height="2.5" fill="#9ecae1"/><rect x="693.0" y="313.3" width="26.0" height="1.7" fill="#9ecae1"/><rect x="720.0" y="313.5" width="26.0" height="1.5" fill="#9ecae1"/><rect x="747.0" y="314.8" width="26.0" height="0.2" fill="#9ecae1"/><rect x="774.0" y="313.8" width="26.0" height="1.2" fill="#9ecae1"/><rect x="801.0" y="314.8" width="26.0" height="0.2" fill="#9ecae1"/><rect x="828.0" y="314.5" width="26.0" height="0.5" fill="#9ecae1"/>
<polyline fill="none" stroke="#d62728" stroke-width="2" points="45.0,315.0 51.8,315.0 58.6,315.0 65.4,315.0 72.2,315.0 79.0,315.0 85.8,315.0 92.6,315.0 99.5,315.0 106.3,315.0 113.1,315.0 119.9,315.0 126.7,315.0 133.5,315.0 140.3,315.0 147.1,315.0 153.9,315.0 160.7,315.0 167.5,315.0 174.3,315.0 181.1,314.9 187.9,314.9 194.7,314.8 201.6,314.8 208.4,314.7 215.2,314.5 222.0,314.4 228.8,314.1 235.6,313.8 242.4,313.3 249.2,312.7 256.0,311.9 262.8,310.9 269.6,309.6 276.4,308.0 283.2,305.9 290.0,303.4 296.8,300.2 303.7,296.4 310.5,291.9 317.3,286.5 324.1,280.1 330.9,272.7 337.7,264.3 344.5,254.7 351.3,244.1 358.1,232.3 364.9,219.4 371.7,205.6 378.5,190.9 385.3,175.6 392.1,159.9 398.9,144.0 405.8,128.3 412.6,113.0 419.4,98.6 426.2,85.2 433.0,73.3 439.8,63.2 446.6,55.1 453.4,49.3 460.2,45.9 467.0,45.0 473.8,46.6 480.6,50.7 487.4,57.2 494.2,65.9 501.1,76.6 507.9,88.9 514.7,102.6 521.5,117.3 528.3,132.8 535.1,148.6 541.9,164.4 548.7,180.0 555.5,195.2 562.3,209.6 569.1,223.2 575.9,235.7 582.7,247.2 589.5,257.6 596.3,266.8 603.2,275.0 610.0,282.0 616.8,288.1 623.6,293.3 630.4,297.6 637.2,301.2 644.0,304.2 650.8,306.6 657.6,308.5 664.4,310.0 671.2,311.2 678.0,312.2 684.8,312.9 691.6,313.5 698.4,313.9 705.3,314.2 712.1,314.4 718.9,314.6 725.7,314.7 732.5,314.8 739.3,314.9 746.1,314.9 752.9,314.9 759.7,315.0 766.5,315.0 773.3,315.0 780.1,315.0 786.9,315.0 793.7,315.0 800.5,315.0 807.4,315.0 814.2,315.0 821.0,315.0 827.8,315.0 834.6,315.0 841.4,315.0 848.2,315.0 855.0,315.0"/>
</svg>
