<svg xmlns="http://www.w3.org/2000/svg" width="900" height="360">
<rect width="100%" height="100%" fill="white"/>
<text x="45" y="20" font-size="16">上证50ETF 价格</text>
<line class="axis-x" x1="45" y1="315" x2="855" y2="315" stroke="black" stroke-width="1"/>
<line class="axis-y" x1="45" y1="45" x2="45" y2="315" stroke="black" stroke-width="1"/>
<text x="450.0" y="355" font-size="12" text-anchor="middle">样本点</text>
<text x="14" y="180.0" font-size="12" text-anchor="middle" transform="rotate(-90 14 180.0)">价格</text>
<line x1="45.0" y1="315" x2="45.0" y2="320" stroke="black" stroke-width="1"/>
<text x="45.0" y="333" font-size="10" text-anchor="middle">1</text>
<line x1="449.9" y1="315" x2="449.9" y2="320" stroke="black" stroke-width="1"/>
<text x="449.9" y="333" font-size="10" text-anchor="middle">2134</text>
<line x1="855.0" y1="315" x2="855.0" y2="320" stroke="black" stroke-width="1"/>
<text x="855.0" y="333" font-size="10" text-anchor="middle">4268</text>
<line x1="40" y1="315.0" x2="45" y2="315.0" stroke="black" stroke-width="1"/>
<text x="37" y="318.0" font-size="10" text-anchor="end">0.53</text>
<line x1="40" y1="180.0" x2="45" y2="180.0" stroke="black" stroke-width="1"/>
<text x="37" y="183.0" font-size="10" text-anchor="end">2.24</text>
<line x1="40" y1="45.0" x2="45" y2="45.0" stroke="black" stroke-width="1"/>
<text x="37" y="48.0" font-size="10" text-anchor="end">3.96</text>
<polyline fill="none" stroke="#1f77b4" stroke-width="2" points="45.0,305.0 45.2,305.0 45.4,304.8 45.6,305.3 45.8,305.6 45.9,306.0 46.1,306.0 46.3,306.0 46.5,305.8 46.7,305.1 46.9,305.2 47.1,306.4 47.3,306.2 47.5,306.1 47.7,306.9 47.8,307.5 48.0,307.8 48.2,308.1 48.4,308.1 48.6,309.0 48.8,309.3 49.0,309.1 49.2,309.2 49.4,309.3 49.6,309.2 49.7,309.9 49.9,309.8 50.1,307.8 50.3,308.9 50.5,309.2 50.7,308.4 50.9,308.1 51.1,307.4 51.3,307.7 51.5,308.2 51.6,307.1 51.8,307.8 52.0,308.4 52.2,309.0 52.4,308.8 52.6,309.7 52.8,309.7 53.0,309.6 53.2,310.0 53.4,309.9 53.5,310.1 53.7,309.7 53.9,310.1 54.1,310.6 54.3,310.4 54.5,310.8 54.7,311.8 54.9,311.7 55.1,312.4 55.3,312.2 55.4,312.1 55.6,312.1 55.8,312.0 56.0,312.8 56.2,312.9 56.4,312.8 56.6,313.2 56.8,313.6 57.0,313.2 57.1,313.1 57.3,313.8 57.5,314.9 57.7,315.0 57.9,314.1 58.1,314.1 58.3,310.6 58.5,310.1 58.7,310.9 58.9,311.0 59.0,311.3 59.2,312.1 59.4,311.5 59.6,311.1 59.8,309.3 60.0,309.8 60.2,309.6 60.4,309.8 60.6,309.8 60.8,309.0 60.9,309.3 61.1,310.0 61.3,311.3 61.5,311.4 61.7,311.8 61.9,312.2 62.1,312.4 62.3,312.4 62.5,312.8 62.7,312.9 62.8,311.1 63.0,311.5 63.2,311.3 63.4,311.5 63.6,311.5 63.8,311.6 64.0,311.1 64.2,310.9 64.4,310.2 64.6,310.4 64.7,309.7 64.9,309.3 65.1,309.5 65.3,309.7 65.5,309.6 65.7,309.2 65.9,309.0 66.1,309.2 66.3,307.8 66.5,307.8 66.6,307.8 66.8,307.7 67.0,307.1 67.2,307.4 67.4,306.3 67.6,307.1 67.8,306.5 68.0,308.1 68.2,307.7 68.3,307.4 68.5,307.7 68.7,307.1 68.9,307.1 69.1,307.1 69.3,307.7 69.5,307.9 69.7,307.4 69.9,306.9 70.1,306.8 70.2,306.8 70.4,307.5 70.6,307.1 70.8,307.1 71.0,307.1 71.2,307.1 71.4,306.8 71.6,306.5 71.8,306.7 72.0,306.7 72.1,306.8 72.3,307.1 72.5,307.7 72.7,308.7 72.9,309.0 73.1,308.8 73.3,309.5 73.5,309.3 73.7,308.9 73.9,309.0 74.0,309.5 74.2,309.0 74.4,309.1 74.6,309.5 74.8,310.4 75.0,310.6 75.2,310.5 75.4,310.6 75.6,310.0 75.8,310.1 75.9,310.2 76.1,310.6 76.3,311.6 76.5,311.5 76.7,311.8 76.9,311.2 77.1,311.4 77.3,311.1 77.5,311.5 77.7,311.2 77.8,311.5 78.0,311.1 78.2,311.5 78.4,312.1 78.6,312.0 78.8,312.2 79.0,312.2 79.2,312.1 79.4,312.0 79.5,311.0 79.7,310.9 79.9,311.8 80.1,311.5 80.3,310.8 80.5,310.4 80.7,310.8 80.9,311.2 81.1,311.0 81.3,311.1 81.4,311.1 81.6,311.5 81.8,310.9 82.0,310.6 82.2,310.7 82.4,309.9 82.6,310.0 82.8,310.1 83.0,309.8 83.2,309.8 83.3,309.6 83.5,309.6 83.7,309.4 83.9,309.3 84.1,309.2 84.3,308.9 84.5,308.7 84.7,308.9 84.9,308.9 85.1,308.5 85.2,308.8 85.4,307.8 85.6,306.7 85.8,306.3 86.0,306.0 86.2,306.2 86.4,306.7 86.6,306.3 86.8,306.7 87.0,307.5 87.1,307.1 87.3,306.2 87.5,306.0 87.7,306.2 87.9,306.0 88.1,306.3 88.3,305.8 88.5,304.9 88.7,305.2 88.9,304.9 89.0,305.6 89.2,304.9 89.4,305.0 89.6,304.9 89.8,304.5 90.0,305.1 90.2,305.1 90.4,305.3 90.6,304.4 90.7,304.6 90.9,304.2 91.1,303.7 91.3,303.5 91.5,303.0 91.7,302.5 91.9,303.5 92.1,303.4 92.3,303.8 92.5,304.7 92.6,304.9 92.8,305.3 93.0,305.1 93.2,304.6 93.4,304.9 93.6,304.5 93.8,304.6 94.0,304.7 94.2,304.2 94.4,304.1 94.5,303.8 94.7,303.9 94.9,303.9 95.1,303.8 95.3,303.4 95.5,302.9 95.7,303.2 95.9,303.0 96.1,302.4 96.3,302.1 96.4,301.7 96.6,301.9 96.8,302.5 97.0,301.7 97.2,301.5 97.4,301.6 97.6,302.4 97.8,301.4 98.0,300.9 98.2,300.7 98.3,300.5 98.5,301.3 98.7,300.0 98.9,300.0 99.1,301.2 99.3,299.9 99.5,299.8 99.7,298.2 99.9,296.2 100.1,295.0 100.2,294.7 100.4,295.2 100.6,293.1 100.8,289.6 101.0,291.7 101.2,291.5 101.4,291.6 101.6,290.4 101.8,290.5 101.9,292.6 102.1,292.5 102.3,292.5 102.5,291.0 102.7,290.0 102.9,289.6 103.1,289.8 103.3,288.2 103.5,288.2 103.7,289.0 103.8,289.1 104.0,292.0 104.2,291.7 104.4,292.8 104.6,292.8 104.8,293.0 105.0,293.3 105.2,293.2 105.4,291.9 105.6,291.5 105.7,291.2 105.9,291.3 106.1,291.4 106.3,290.9 106.5,289.5 106.7,289.5 106.9,289.5 107.1,288.2 107.3,288.3 107.5,286.8 107.6,287.5 107.8,289.1 108.0,288.0 108.2,288.7 108.4,288.8 108.6,288.7 108.8,288.5 109.0,291.3 109.2,290.9 109.4,290.6 109.5,290.8 109.7,292.2 109.9,291.9 110.1,291.2 110.3,291.2 110.5,290.5 110.7,290.5 110.9,290.9 111.1,291.7 111.3,293.3 111.4,293.9 111.6,294.3 111.8,294.1 112.0,295.0 112.2,296.0 112.4,295.0 112.6,294.7 112.8,293.9 113.0,294.0 113.1,294.9 113.3,294.2 113.5,293.5 113.7,294.1 113.9,293.9 114.1,293.9 114.3,293.3 114.5,293.1 114.7,292.8 114.9,292.6 115.0,291.3 115.2,291.6 115.4,291.7 115.6,291.8 115.8,292.6 116.0,291.9 116.2,291.6 116.4,291.0 116.6,291.7 116.8,291.6 116.9,291.3 117.1,290.4 117.3,290.2 117.5,290.3 117.7,288.7 117.9,287.6 118.1,288.4 118.3,288.7 118.5,287.8 118.7,288.5 118.8,288.8 119.0,289.6 119.2,289.0 119.4,288.0 119.6,287.1 119.8,285.3 120.0,285.0 120.2,285.1 120.4,285.2 120.6,285.3 120.7,286.3 120.9,286.8 121.1,285.4 121.3,285.1 121.5,284.9 121.7,286.1 121.9,284.8 122.1,284.4 122.3,283.4 122.5,284.4 122.6,283.6 122.8,282.5 123.0,281.4 123.2,281.7 123.4,280.4 123.6,279.4 123.8,278.3 124.0,279.5 124.2,277.7 124.3,278.0 124.5,279.3 124.7,278.4 124.9,276.5 125.1,276.1 125.3,274.6 125.5,272.3 125.7,271.9 125.9,271.3 126.1,270.7 126.2,271.1 126.4,271.6 126.6,272.6 126.8,271.3 127.0,269.1 127.2,268.8 127.4,265.1 127.6,264.7 127.8,264.9 128.0,264.1 128.1,267.8 128.3,262.7 128.5,262.3 128.7,262.7 128.9,261.0 129.1,259.3 129.3,257.2 129.5,256.8 129.7,255.3 129.9,256.7 130.0,258.5 130.2,256.1 130.4,255.5 130.6,252.2 130.8,251.6 131.0,246.1 131.2,245.4 131.4,246.9 131.6,243.6 131.8,239.0 131.9,237.8 132.1,239.4 132.3,243.2 132.5,238.2 132.7,236.6 132.9,238.7 133.1,238.9 133.3,235.1 133.5,229.9 133.7,227.8 133.8,226.3 134.0,228.8 134.2,223.8 134.4,220.8 134.6,222.2 134.8,231.0 135.0,231.6 135.2,237.3 135.4,240.2 135.5,236.4 135.7,233.9 135.9,232.8 136.1,234.4 136.3,228.9 136.5,227.8 136.7,223.6 136.9,219.7 137.1,220.0 137.3,219.9 137.4,231.8 137.6,228.5 137.8,232.2 138.0,230.4 138.2,233.3 138.4,230.0 138.6,226.7 138.8,226.2 139.0,226.3 139.2,226.9 139.3,226.3 139.5,229.0 139.7,226.5 139.9,228.5 140.1,223.7 140.3,224.1 140.5,222.5 140.7,222.0 140.9,222.2 141.1,220.4 141.2,220.2 141.4,217.6 141.6,216.2 141.8,217.1 142.0,214.0 142.2,212.7 142.4,212.0 142.6,211.6 142.8,211.3 143.0,208.2 143.1,206.8 143.3,204.7 143.5,202.4 143.7,204.1 143.9,199.7 144.1,200.4 144.3,201.3 144.5,207.7 144.7,202.1 144.9,195.4 145.0,195.6 145.2,193.8 145.4,192.7 145.6,194.0 145.8,191.5 146.0,186.1 146.2,184.8 146.4,183.2 146.6,184.5 146.7,182.6 146.9,188.8 147.1,185.8 147.3,183.3 147.5,184.5 147.7,184.2 147.9,182.6 148.1,180.3 148.3,181.9 148.5,179.6 148.6,176.0 148.8,172.7 149.0,187.7 149.2,178.9 149.4,180.2 149.6,190.2 149.8,189.0 150.0,189.6 150.2,184.5 150.4,183.7 150.5,180.7 150.7,176.7 150.9,171.6 151.1,173.8 151.3,172.5 151.5,166.5 151.7,167.4 151.9,170.1 152.1,168.6 152.3,172.3 152.4,176.6 152.6,175.2 152.8,169.1 153.0,173.9 153.2,178.2 153.4,176.1 153.6,175.2 153.8,179.3 154.0,185.7 154.2,181.5 154.3,175.8 154.5,176.8 154.7,176.7 154.9,174.3 155.1,174.1 155.3,180.1 155.5,175.0 155.7,174.1 155.9,174.8 156.0,166.0 156.2,159.1 156.4,159.0 156.6,153.8 156.8,154.4 157.0,156.5 157.2,150.8 157.4,149.1 157.6,155.8 157.8,150.5 157.9,140.7 158.1,137.6 158.3,137.0 158.5,138.4 158.7,131.1 158.9,131.5 159.1,130.3 159.3,128.0 159.5,127.2 159.7,132.0 159.8,137.4 160.0,122.8 160.2,121.0 160.4,117.9 160.6,115.0 160.8,108.3 161.0,107.3 161.2,107.4 161.4,110.5 161.6,108.7 161.7,106.2 161.9,100.3 162.1,104.6 162.3,104.7 162.5,102.1 162.7,106.2 162.9,103.1 163.1,112.7 163.3,112.0 163.5,106.4 163.6,105.6 163.8,99.1 164.0,101.3 164.2,104.3 164.4,101.4 164.6,104.0 164.8,101.3 165.0,103.2 165.2,106.9 165.4,103.6 165.5,94.9 165.7,91.7 165.9,90.5 166.1,88.2 166.3,80.6 166.5,81.7 166.7,73.7 166.9,73.0 167.1,76.2 167.2,86.4 167.4,88.4 167.6,94.1 167.8,87.7 168.0,85.0 168.2,95.1 168.4,90.9 168.6,85.7 168.8,82.7 169.0,82.4 169.1,84.8 169.3,90.7 169.5,95.9 169.7,97.3 169.9,95.9 170.1,107.8 170.3,109.9 170.5,112.8 170.7,114.6 170.9,103.2 171.0,108.1 171.2,111.7 171.4,112.7 171.6,110.1 171.8,112.4 172.0,122.0 172.2,118.3 172.4,123.2 172.6,123.8 172.8,127.0 172.9,115.2 173.1,120.9 173.3,118.7 173.5,116.6 173.7,109.8 173.9,110.8 174.1,106.2 174.3,102.9 174.5,104.7 174.7,109.7 174.8,118.2 175.0,113.5 175.2,119.8 175.4,121.6 175.6,116.0 175.8,111.4 176.0,108.2 176.2,104.6 176.4,104.8 176.6,103.4 176.7,98.5 176.9,100.6 177.1,101.2 177.3,100.3 177.5,97.3 177.7,94.3 177.9,93.5 178.1,89.6 178.3,88.7 178.4,85.1 178.6,83.0 178.8,87.1 179.0,95.4 179.2,100.6 179.4,99.7 179.6,111.8 179.8,128.5 180.0,119.4 180.2,120.6 180.3,117.2 180.5,133.2 180.7,132.3 180.9,137.4 181.1,140.0 181.3,140.6 181.5,119.0 181.7,123.6 181.9,129.4 182.1,127.1 182.2,131.2 182.4,127.5 182.6,122.3 182.8,128.7 183.0,131.8 183.2,140.7 183.4,147.8 183.6,146.3 183.8,141.1 184.0,142.6 184.1,140.6 184.3,135.8 184.5,143.2 184.7,145.5 184.9,143.3 185.1,145.5 185.3,153.4 185.5,153.4 185.7,158.7 185.9,163.1 186.0,164.4 186.2,169.8 186.4,176.9 186.6,171.9 186.8,168.2 187.0,168.0 187.2,176.8 187.4,176.2 187.6,175.2 187.8,182.6 187.9,174.1 188.1,179.7 188.3,186.1 188.5,184.5 188.7,179.4 188.9,172.2 189.1,172.6 189.3,181.1 189.5,179.3 189.6,178.8 189.8,188.8 190.0,187.5 190.2,191.2 190.4,195.8 190.6,199.9 190.8,197.6 191.0,195.5 191.2,188.8 191.4,172.1 191.5,172.4 191.7,176.9 191.9,175.0 192.1,164.6 192.3,163.1 192.5,166.1 192.7,173.8 192.9,170.3 193.1,173.9 193.3,173.1 193.4,176.1 193.6,170.6 193.8,171.7 194.0,172.1 194.2,173.7 194.4,181.6 194.6,178.5 194.8,181.3 195.0,181.1 195.2,186.3 195.3,186.0 195.5,181.4 195.7,185.4 195.9,183.3 196.1,182.5 196.3,183.1 196.5,186.6 196.7,188.4 196.9,189.2 197.1,203.4 197.2,204.7 197.4,208.1 197.6,210.5 197.8,210.4 198.0,213.6 198.2,207.9 198.4,217.7 198.6,212.7 198.8,216.5 199.0,214.2 199.1,209.6 199.3,209.8 199.5,217.3 199.7,218.8 199.9,224.3 200.1,224.9 200.3,223.3 200.5,224.4 200.7,216.9 200.8,217.0 201.0,210.5 201.2,212.4 201.4,213.4 201.6,212.7 201.8,219.2 202.0,223.4 202.2,224.4 202.4,218.5 202.6,214.5 202.7,215.3 202.9,215.9 203.1,210.8 203.3,212.3 203.5,211.6 203.7,214.6 203.9,214.9 204.1,218.5 204.3,216.3 204.5,219.3 204.6,221.4 204.8,219.7 205.0,219.6 205.2,226.2 205.4,230.6 205.6,231.2 205.8,231.9 206.0,232.4 206.2,231.4 206.4,237.1 206.5,235.9 206.7,225.8 206.9,230.1 207.1,232.5 207.3,231.8 207.5,234.2 207.7,233.9 207.9,232.9 208.1,230.7 208.3,234.7 208.4,236.3 208.6,238.8 208.8,238.7 209.0,241.7 209.2,243.5 209.4,242.8 209.6,243.0 209.8,247.2 210.0,247.0 210.2,254.7 210.3,257.7 210.5,259.7 210.7,250.0 210.9,239.3 211.1,246.9 211.3,245.5 211.5,241.0 211.7,241.3 211.9,247.8 212.0,249.7 212.2,254.7 212.4,255.7 212.6,259.5 212.8,253.8 213.0,257.0 213.2,258.9 213.4,263.8 213.6,263.1 213.8,259.7 213.9,261.2 214.1,263.8 214.3,264.3 214.5,267.2 214.7,274.8 214.9,270.7 215.1,273.3 215.3,270.7 215.5,272.6 215.7,272.6 215.8,272.9 216.0,269.2 216.2,271.8 216.4,270.1 216.6,262.1 216.8,264.5 217.0,263.6 217.2,260.6 217.4,258.4 217.6,257.6 217.7,264.2 217.9,257.8 218.1,260.7 218.3,261.0 218.5,264.9 218.7,265.2 218.9,265.1 219.1,263.4 219.3,266.7 219.5,265.7 219.6,266.0 219.8,261.6 220.0,259.8 220.2,258.8 220.4,254.7 220.6,257.6 220.8,254.6 221.0,257.3 221.2,261.5 221.4,260.9 221.5,260.4 221.7,260.4 221.9,258.1 222.1,258.2 222.3,260.1 222.5,264.3 222.7,265.8 222.9,266.5 223.1,266.6 223.2,267.1 223.4,268.2 223.6,268.7 223.8,265.4 224.0,262.8 224.2,263.4 224.4,266.0 224.6,264.7 224.8,265.2 225.0,266.7 225.1,262.7 225.3,263.4 225.5,260.8 225.7,259.5 225.9,258.9 226.1,259.3 226.3,258.4 226.5,258.9 226.7,258.8 226.9,256.3 227.0,253.2 227.2,253.6 227.4,249.3 227.6,247.7 227.8,247.4 228.0,247.2 228.2,248.8 228.4,244.8 228.6,241.3 228.8,244.1 228.9,249.3 229.1,249.8 229.3,248.6 229.5,246.1 229.7,251.8 229.9,250.8 230.1,254.1 230.3,255.3 230.5,255.2 230.7,256.7 230.8,249.1 231.0,248.0 231.2,248.7 231.4,252.4 231.6,251.0 231.8,252.0 232.0,252.1 232.2,252.3 232.4,249.9 232.6,246.6 232.7,246.9 232.9,245.1 233.1,245.5 233.3,243.0 233.5,242.4 233.7,244.3 233.9,239.6 234.1,239.3 234.3,239.9 234.4,238.8 234.6,237.6 234.8,235.9 235.0,235.1 235.2,234.7 235.4,239.8 235.6,238.0 235.8,235.0 236.0,231.9 236.2,231.7 236.3,232.2 236.5,232.2 236.7,233.8 236.9,231.4 237.1,233.3 237.3,236.5 237.5,236.7 237.7,237.7 237.9,239.8 238.1,239.9 238.2,235.2 238.4,235.2 238.6,231.2 238.8,231.0 239.0,229.6 239.2,229.2 239.4,226.7 239.6,228.6 239.8,226.4 240.0,225.2 240.1,227.3 240.3,227.0 240.5,226.3 240.7,224.8 240.9,226.7 241.1,230.0 241.3,230.0 241.5,229.6 241.7,231.6 241.9,228.6 242.0,223.0 242.2,223.3 242.4,218.0 242.6,217.1 242.8,217.6 243.0,216.4 243.2,215.3 243.4,214.2 243.6,214.9 243.8,217.5 243.9,213.9 244.1,214.9 244.3,213.0 244.5,209.9 244.7,207.9 244.9,207.6 245.1,207.0 245.3,206.6 245.5,206.8 245.6,206.4 245.8,202.8 246.0,203.6 246.2,199.6 246.4,197.0 246.6,195.1 246.8,192.6 247.0,195.1 247.2,196.1 247.4,193.9 247.5,194.9 247.7,197.9 247.9,192.6 248.1,191.0 248.3,189.6 248.5,188.8 248.7,185.5 248.9,188.1 249.1,184.2 249.3,182.0 249.4,180.1 249.6,176.0 249.8,176.9 250.0,185.4 250.2,179.6 250.4,175.4 250.6,174.1 250.8,175.8 251.0,178.9 251.2,183.0 251.3,187.0 251.5,188.3 251.7,188.2 251.9,196.3 252.1,193.8 252.3,197.4 252.5,206.2 252.7,205.6 252.9,212.6 253.1,205.9 253.2,204.0 253.4,203.8 253.6,210.6 253.8,208.3 254.0,209.7 254.2,214.7 254.4,225.1 254.6,222.2 254.8,219.3 255.0,212.1 255.1,212.1 255.3,211.3 255.5,208.3 255.7,208.0 255.9,209.6 256.1,204.8 256.3,203.2 256.5,203.2 256.7,206.0 256.8,203.1 257.0,208.7 257.2,208.7 257.4,212.4 257.6,214.3 257.8,212.5 258.0,212.7 258.2,216.7 258.4,215.9 258.6,214.3 258.7,207.1 258.9,208.4 259.1,205.8 259.3,205.0 259.5,204.1 259.7,204.2 259.9,200.4 260.1,198.4 260.3,198.6 260.5,200.0 260.6,196.9 260.8,196.5 261.0,201.1 261.2,201.6 261.4,205.3 261.6,203.6 261.8,197.9 262.0,196.4 262.2,195.4 262.4,195.1 262.5,194.7 262.7,194.3 262.9,193.7 263.1,194.7 263.3,195.3 263.5,194.0 263.7,188.9 263.9,188.9 264.1,189.1 264.3,189.0 264.4,190.5 264.6,189.7 264.8,193.9 265.0,191.5 265.2,198.4 265.4,202.6 265.6,197.7 265.8,196.3 266.0,194.8 266.2,195.8 266.3,189.8 266.5,189.7 266.7,192.6 266.9,196.1 267.1,195.1 267.3,195.1 267.5,192.1 267.7,194.3 267.9,195.1 268.0,197.9 268.2,200.3 268.4,201.3 268.6,204.4 268.8,203.9 269.0,200.0 269.2,201.7 269.4,199.0 269.6,197.5 269.8,193.2 269.9,192.1 270.1,195.1 270.3,193.0 270.5,195.1 270.7,198.3 270.9,198.3 271.1,197.6 271.3,195.5 271.5,202.7 271.7,201.3 271.8,200.9 272.0,201.3 272.2,200.3 272.4,205.1 272.6,203.8 272.8,203.8 273.0,205.2 273.2,208.1 273.4,211.2 273.6,211.9 273.7,212.3 273.9,214.6 274.1,214.1 274.3,209.8 274.5,210.9 274.7,213.9 274.9,214.3 275.1,213.3 275.3,211.1 275.5,210.8 275.6,209.5 275.8,210.5 276.0,213.2 276.2,211.8 276.4,209.5 276.6,210.0 276.8,207.6 277.0,208.0 277.2,207.3 277.4,210.7 277.5,210.5 277.7,209.4 277.9,208.3 278.1,209.0 278.3,208.4 278.5,210.1 278.7,212.6 278.9,211.3 279.1,208.3 279.2,209.0 279.4,207.8 279.6,207.7 279.8,209.4 280.0,209.3 280.2,211.5 280.4,209.0 280.6,204.5 280.8,204.2 281.0,205.5 281.1,204.0 281.3,203.9 281.5,203.9 281.7,204.9 281.9,207.3 282.1,206.0 282.3,207.8 282.5,204.7 282.7,204.2 282.9,204.5 283.0,206.8 283.2,214.5 283.4,215.0 283.6,213.0 283.8,216.3 284.0,217.1 284.2,218.3 284.4,220.8 284.6,221.2 284.8,221.7 284.9,219.6 285.1,221.4 285.3,221.1 285.5,227.4 285.7,228.9 285.9,227.1 286.1,229.6 286.3,227.4 286.5,224.9 286.7,226.3 286.8,232.2 287.0,229.4 287.2,230.1 287.4,232.3 287.6,231.1 287.8,227.0 288.0,230.3 288.2,230.3 288.4,228.3 288.6,229.0 288.7,231.8 288.9,233.0 289.1,233.3 289.3,234.0 289.5,234.0 289.7,236.5 289.9,237.0 290.1,233.0 290.3,235.0 290.4,234.6 290.6,234.7 290.8,235.7 291.0,231.3 291.2,231.4 291.4,232.7 291.6,232.0 291.8,232.4 292.0,232.3 292.2,237.4 292.3,238.5 292.5,239.3 292.7,238.4 292.9,239.5 293.1,237.7 293.3,237.6 293.5,237.3 293.7,234.6 293.9,233.9 294.1,235.7 294.2,235.0 294.4,236.9 294.6,237.1 294.8,234.3 295.0,232.1 295.2,232.1 295.4,230.6 295.6,229.8 295.8,229.6 296.0,230.4 296.1,226.8 296.3,226.6 296.5,227.0 296.7,224.8 296.9,227.6 297.1,227.2 297.3,229.0 297.5,227.0 297.7,227.0 297.9,230.1 298.0,230.0 298.2,231.4 298.4,230.4 298.6,227.7 298.8,227.0 299.0,227.6 299.2,226.3 299.4,228.1 299.6,228.4 299.8,228.6 299.9,231.2 300.1,231.5 300.3,231.3 300.5,229.6 300.7,230.8 300.9,231.3 301.1,230.1 301.3,230.6 301.5,227.3 301.6,227.7 301.8,228.7 302.0,231.1 302.2,231.4 302.4,230.8 302.6,230.8 302.8,232.9 303.0,234.8 303.2,235.0 303.4,234.6 303.5,234.5 303.7,233.5 303.9,234.6 304.1,234.2 304.3,231.3 304.5,226.3 304.7,221.5 304.9,219.9 305.1,217.7 305.3,215.8 305.4,210.1 305.6,211.0 305.8,208.3 306.0,208.3 306.2,210.8 306.4,211.5 306.6,207.2 306.8,209.0 307.0,212.2 307.2,212.1 307.3,214.2 307.5,210.8 307.7,211.5 307.9,211.9 308.1,210.1 308.3,208.5 308.5,208.0 308.7,210.1 308.9,212.3 309.1,210.5 309.2,218.3 309.4,218.9 309.6,225.1 309.8,226.3 310.0,224.8 310.2,224.6 310.4,226.0 310.6,228.7 310.8,226.0 311.0,224.1 311.1,225.6 311.3,225.9 311.5,227.9 311.7,227.8 311.9,226.8 312.1,226.3 312.3,224.6 312.5,223.9 312.7,225.6 312.8,226.9 313.0,225.4 313.2,221.9 313.4,222.2 313.6,223.1 313.8,224.4 314.0,224.6 314.2,226.8 314.4,223.5 314.6,225.4 314.7,225.6 314.9,225.9 315.1,228.2 315.3,229.7 315.5,229.7 315.7,230.5 315.9,228.5 316.1,225.8 316.3,226.8 316.5,227.7 316.6,226.4 316.8,228.1 317.0,226.7 317.2,225.7 317.4,225.9 317.6,227.9 317.8,232.1 318.0,231.6 318.2,229.7 318.4,233.3 318.5,231.7 318.7,232.5 318.9,232.4 319.1,231.4 319.3,230.1 319.5,230.4 319.7,229.2 319.9,228.7 320.1,230.5 320.3,228.4 320.4,228.5 320.6,223.7 320.8,223.9 321.0,223.6 321.2,223.7 321.4,224.8 321.6,223.7 321.8,227.3 322.0,227.3 322.2,226.8 322.3,226.6 322.5,225.7 322.7,224.8 322.9,224.4 323.1,223.7 323.3,221.5 323.5,218.9 323.7,219.2 323.9,219.3 324.0,222.2 324.2,223.9 324.4,223.7 324.6,225.9 324.8,223.8 325.0,225.6 325.2,224.8 325.4,224.7 325.6,223.3 325.8,221.7 325.9,222.7 326.1,220.6 326.3,220.4 326.5,220.8 326.7,220.4 326.9,221.5 327.1,218.8 327.3,215.8 327.5,215.9 327.7,215.0 327.8,215.7 328.0,216.6 328.2,214.0 328.4,214.9 328.6,214.1 328.8,214.2 329.0,217.3 329.2,217.8 329.4,216.7 329.6,217.1 329.7,218.9 329.9,219.3 330.1,219.7 330.3,219.3 330.5,219.7 330.7,219.7 330.9,223.7 331.1,224.0 331.3,224.8 331.5,224.8 331.6,223.5 331.8,224.0 332.0,225.9 332.2,224.4 332.4,226.0 332.6,224.9 332.8,223.7 333.0,224.2 333.2,223.8 333.4,227.6 333.5,227.5 333.7,228.9 333.9,228.6 334.1,228.5 334.3,228.3 334.5,226.5 334.7,227.0 334.9,229.6 335.1,228.6 335.2,228.1 335.4,228.2 335.6,230.1 335.8,229.8 336.0,230.2 336.2,228.6 336.4,229.4 336.6,230.9 336.8,231.8 337.0,232.3 337.1,231.3 337.3,231.3 337.5,229.2 337.7,226.3 337.9,226.6 338.1,226.6 338.3,228.7 338.5,226.5 338.7,226.7 338.9,223.3 339.0,223.8 339.2,224.7 339.4,225.2 339.6,224.6 339.8,225.0 340.0,227.7 340.2,225.8 340.4,225.3 340.6,225.0 340.8,225.5 340.9,226.4 341.1,226.7 341.3,228.1 341.5,227.9 341.7,231.4 341.9,231.1 342.1,230.9 342.3,232.0 342.5,231.3 342.7,231.2 342.8,232.3 343.0,232.4 343.2,232.4 343.4,235.0 343.6,238.8 343.8,238.3 344.0,237.5 344.2,235.8 344.4,236.2 344.6,233.6 344.7,234.5 344.9,235.0 345.1,237.1 345.3,238.0 345.5,239.1 345.7,237.1 345.9,238.0 346.1,233.4 346.3,233.6 346.4,236.1 346.6,236.4 346.8,235.8 347.0,235.9 347.2,237.2 347.4,239.1 347.6,239.7 347.8,237.7 348.0,238.4 348.2,238.4 348.3,239.5 348.5,239.4 348.7,239.9 348.9,239.5 349.1,241.6 349.3,241.1 349.5,238.0 349.7,241.3 349.9,242.3 350.1,245.6 350.2,244.1 350.4,245.2 350.6,245.4 350.8,245.7 351.0,246.8 351.2,246.6 351.4,242.3 351.6,242.0 351.8,241.9 352.0,241.0 352.1,244.4 352.3,244.3 352.5,246.7 352.7,246.4 352.9,243.1 353.1,241.4 353.3,240.6 353.5,240.2 353.7,237.8 353.9,239.1 354.0,238.7 354.2,236.6 354.4,237.3 354.6,236.2 354.8,237.9 355.0,237.7 355.2,236.9 355.4,239.5 355.6,239.7 355.7,237.5 355.9,238.1 356.1,241.3 356.3,241.8 356.5,243.6 356.7,243.6 356.9,243.6 357.1,244.7 357.3,244.7 357.5,245.6 357.6,245.2 357.8,244.0 358.0,247.4 358.2,244.1 358.4,244.7 358.6,245.3 358.8,245.6 359.0,244.7 359.2,244.8 359.4,245.4 359.5,246.1 359.7,248.3 359.9,248.9 360.1,251.5 360.3,249.7 360.5,250.0 360.7,249.9 360.9,251.3 361.1,251.1 361.3,250.3 361.4,251.3 361.6,252.0 361.8,251.9 362.0,251.8 362.2,250.5 362.4,251.7 362.6,251.6 362.8,251.0 363.0,247.4 363.2,244.5 363.3,245.1 363.5,244.7 363.7,245.9 363.9,247.4 364.1,242.1 364.3,244.0 364.5,241.4 364.7,239.8 364.9,241.8 365.1,242.1 365.2,244.0 365.4,240.9 365.6,240.3 365.8,240.6 366.0,242.8 366.2,239.5 366.4,239.9 366.6,239.9 366.8,240.6 366.9,241.2 367.1,240.2 367.3,241.0 367.5,240.6 367.7,240.4 367.9,239.9 368.1,238.8 368.3,238.6 368.5,236.7 368.7,236.5 368.8,235.8 369.0,237.0 369.2,237.2 369.4,235.8 369.6,236.5 369.8,238.8 370.0,240.0 370.2,238.8 370.4,237.9 370.6,238.8 370.7,237.7 370.9,239.9 371.1,240.9 371.3,240.0 371.5,239.9 371.7,241.6 371.9,241.3 372.1,241.0 372.3,242.1 372.5,241.7 372.6,241.7 372.8,244.3 373.0,245.6 373.2,244.7 373.4,242.9 373.6,242.7 373.8,243.6 374.0,242.8 374.2,242.9 374.4,240.5 374.5,240.1 374.7,240.6 374.9,242.0 375.1,239.4 375.3,239.5 375.5,237.7 375.7,238.6 375.9,238.1 376.1,237.6 376.3,237.3 376.4,237.1 376.6,234.4 376.8,234.4 377.0,233.8 377.2,234.4 377.4,234.7 377.6,236.6 377.8,236.7 378.0,237.5 378.1,238.4 378.3,238.7 378.5,240.3 378.7,238.4 378.9,240.1 379.1,239.5 379.3,237.8 379.5,238.4 379.7,239.1 379.9,240.2 380.0,238.4 380.2,236.8 380.4,237.6 380.6,238.1 380.8,237.9 381.0,240.8 381.2,240.8 381.4,240.5 381.6,240.9 381.8,242.0 381.9,240.7 382.1,241.5 382.3,239.8 382.5,240.4 382.7,239.3 382.9,239.2 383.1,239.8 383.3,239.5 383.5,241.5 383.7,243.7 383.8,243.3 384.0,243.7 384.2,244.3 384.4,242.9 384.6,243.1 384.8,242.8 385.0,242.7 385.2,243.6 385.4,242.5 385.6,245.3 385.7,245.4 385.9,245.0 386.1,244.4 386.3,244.2 386.5,245.7 386.7,245.1 386.9,245.4 387.1,244.8 387.3,245.7 387.5,247.6 387.6,247.4 387.8,247.7 388.0,247.8 388.2,247.3 388.4,247.6 388.6,247.2 388.8,246.5 389.0,246.9 389.2,246.6 389.3,245.8 389.5,245.8 389.7,245.4 389.9,244.7 390.1,245.0 390.3,247.1 390.5,247.3 390.7,248.7 390.9,248.9 391.1,248.9 391.2,249.8 391.4,249.5 391.6,250.1 391.8,249.6 392.0,250.1 392.2,252.2 392.4,251.4 392.6,252.4 392.8,252.3 393.0,252.3 393.1,252.0 393.3,252.7 393.5,253.5 393.7,252.6 393.9,247.7 394.1,247.8 394.3,248.7 394.5,248.6 394.7,249.3 394.9,248.3 395.0,250.2 395.2,251.4 395.4,251.3 395.6,253.1 395.8,252.7 396.0,252.4 396.2,252.4 396.4,253.1 396.6,250.4 396.8,248.3 396.9,249.4 397.1,247.4 397.3,247.6 397.5,248.1 397.7,248.1 397.9,248.5 398.1,248.4 398.3,248.1 398.5,246.6 398.7,246.7 398.8,246.3 399.0,247.4 399.2,247.6 399.4,248.4 399.6,250.5 399.8,251.3 400.0,251.0 400.2,250.1 400.4,248.1 400.5,247.6 400.7,247.8 400.9,248.1 401.1,248.1 401.3,249.8 401.5,250.0 401.7,249.4 401.9,250.9 402.1,250.5 402.3,251.7 402.4,252.7 402.6,252.8 402.8,253.3 403.0,252.0 403.2,252.3 403.4,251.6 403.6,251.9 403.8,252.4 404.0,253.2 404.2,253.6 404.3,253.1 404.5,253.8 404.7,252.8 404.9,249.4 405.1,249.4 405.3,247.1 405.5,246.0 405.7,246.4 405.9,245.5 406.1,246.8 406.2,241.0 406.4,240.2 406.6,239.9 406.8,239.9 407.0,239.4 407.2,240.2 407.4,239.5 407.6,236.4 407.8,236.0 408.0,236.9 408.1,235.0 408.3,232.3 408.5,231.4 408.7,230.8 408.9,232.4 409.1,232.7 409.3,232.6 409.5,234.8 409.7,230.2 409.9,229.7 410.0,231.2 410.2,232.5 410.4,230.4 410.6,229.8 410.8,229.7 411.0,229.2 411.2,229.6 411.4,230.3 411.6,225.9 411.7,224.2 411.9,223.8 412.1,223.4 412.3,219.3 412.5,218.9 412.7,218.6 412.9,217.8 413.1,219.5 413.3,220.2 413.5,221.9 413.6,224.1 413.8,224.4 414.0,229.7 414.2,230.6 414.4,230.0 414.6,231.8 414.8,230.3 415.0,225.8 415.2,226.3 415.4,233.2 415.5,228.4 415.7,227.1 415.9,229.3 416.1,229.2 416.3,230.7 416.5,232.4 416.7,233.6 416.9,233.3 417.1,232.9 417.3,235.1 417.4,234.0 417.6,229.0 417.8,229.2 418.0,229.0 418.2,229.2 418.4,231.9 418.6,231.6 418.8,236.7 419.0,236.7 419.2,237.1 419.3,236.9 419.5,236.7 419.7,238.0 419.9,236.8 420.1,236.7 420.3,236.8 420.5,237.6 420.7,238.4 420.9,238.0 421.1,238.5 421.2,238.2 421.4,234.2 421.6,234.4 421.8,238.4 422.0,236.6 422.2,237.5 422.4,238.3 422.6,238.3 422.8,236.2 422.9,235.1 423.1,234.8 423.3,234.4 423.5,235.4 423.7,234.7 423.9,235.3 424.1,236.9 424.3,236.9 424.5,234.7 424.7,233.1 424.8,231.8 425.0,232.5 425.2,232.2 425.4,234.4 425.6,234.0 425.8,234.3 426.0,231.2 426.2,231.8 426.4,232.2 426.6,233.3 426.7,233.0 426.9,234.2 427.1,235.1 427.3,236.3 427.5,238.0 427.7,241.0 427.9,240.9 428.1,241.9 428.3,241.1 428.5,242.1 428.6,245.8 428.8,246.0 429.0,253.0 429.2,252.7 429.4,254.1 429.6,253.7 429.8,250.6 430.0,251.0 430.2,251.5 430.4,252.4 430.5,251.6 430.7,251.0 430.9,253.0 431.1,253.3 431.3,250.4 431.5,243.7 431.7,247.2 431.9,246.1 432.1,246.1 432.3,247.5 432.4,249.8 432.6,252.4 432.8,252.2 433.0,249.3 433.2,250.6 433.4,250.7 433.6,251.3 433.8,253.8 434.0,252.7 434.1,252.6 434.3,250.2 434.5,250.2 434.7,249.1 434.9,249.0 435.1,249.4 435.3,249.7 435.5,249.1 435.7,245.1 435.9,244.7 436.0,245.1 436.2,246.2 436.4,246.2 436.6,245.5 436.8,246.2 437.0,246.7 437.2,247.0 437.4,248.1 437.6,245.7 437.8,245.8 437.9,246.1 438.1,246.5 438.3,246.3 438.5,246.1 438.7,244.7 438.9,244.7 439.1,245.0 439.3,243.8 439.5,237.8 439.7,236.0 439.8,235.8 440.0,233.7 440.2,235.2 440.4,236.2 440.6,238.8 440.8,238.7 441.0,238.0 441.2,240.6 441.4,241.5 441.6,243.4 441.7,242.9 441.9,242.8 442.1,241.5 442.3,241.1 442.5,243.0 442.7,241.0 442.9,241.4 443.1,242.0 443.3,243.4 443.5,243.9 443.6,243.1 443.8,241.7 444.0,243.0 444.2,243.1 444.4,244.3 444.6,245.1 444.8,245.0 445.0,243.6 445.2,242.1 445.3,243.6 445.5,242.6 445.7,243.1 445.9,243.5 446.1,244.7 446.3,245.0 446.5,246.7 446.7,246.5 446.9,245.1 447.1,247.9 447.2,247.9 447.4,245.7 447.6,240.5 447.8,241.8 448.0,241.6 448.2,242.7 448.4,243.0 448.6,243.6 448.8,243.9 449.0,242.7 449.1,241.6 449.3,241.8 449.5,240.5 449.7,240.4 449.9,239.1 450.1,239.5 450.3,240.7 450.5,241.1 450.7,241.0 450.9,243.0 451.0,243.7 451.2,243.9 451.4,245.5 451.6,246.1 451.8,245.8 452.0,247.0 452.2,249.6 452.4,249.7 452.6,249.8 452.8,249.4 452.9,250.8 453.1,249.2 453.3,249.3 453.5,247.7 453.7,248.6 453.9,250.2 454.1,251.7 454.3,251.8 454.5,251.7 454.7,252.4 454.8,252.8 455.0,253.2 455.2,253.0 455.4,253.5 455.6,253.3 455.8,254.5 456.0,255.0 456.2,254.4 456.4,251.7 456.5,252.7 456.7,252.7 456.9,254.2 457.1,253.6 457.3,253.1 457.5,254.3 457.7,254.6 457.9,252.5 458.1,250.8 458.3,251.1 458.4,250.8 458.6,250.5 458.8,250.2 459.0,252.2 459.2,250.6 459.4,251.3 459.6,252.5 459.8,254.9 460.0,256.8 460.2,256.8 460.3,256.0 460.5,255.3 460.7,255.5 460.9,255.4 461.1,256.5 461.3,255.7 461.5,256.0 461.7,259.0 461.9,258.8 462.1,258.6 462.2,257.1 462.4,258.0 462.6,257.1 462.8,257.8 463.0,258.2 463.2,259.0 463.4,255.2 463.6,254.2 463.8,255.0 464.0,255.2 464.1,255.1 464.3,254.6 464.5,255.1 464.7,254.8 464.9,253.5 465.1,254.3 465.3,253.5 465.5,250.4 465.7,250.7 465.9,248.0 466.0,248.4 466.2,249.1 466.4,251.1 466.6,251.1 466.8,251.5 467.0,251.6 467.2,253.4 467.4,252.3 467.6,252.3 467.7,252.0 467.9,252.6 468.1,253.8 468.3,253.1 468.5,253.1 468.7,253.8 468.9,253.9 469.1,254.5 469.3,254.2 469.5,254.2 469.6,252.4 469.8,252.9 470.0,252.7 470.2,253.7 470.4,253.9 470.6,255.6 470.8,255.7 471.0,254.8 471.2,254.9 471.4,254.0 471.5,253.8 471.7,254.2 471.9,253.5 472.1,253.8 472.3,254.2 472.5,254.5 472.7,255.1 472.9,253.9 473.1,254.8 473.3,254.6 473.4,253.3 473.6,253.7 473.8,253.9 474.0,252.6 474.2,251.5 474.4,252.5 474.6,252.9 474.8,254.2 475.0,253.6 475.2,254.0 475.3,253.4 475.5,253.8 475.7,253.3 475.9,253.6 476.1,252.8 476.3,253.1 476.5,252.5 476.7,252.3 476.9,252.0 477.1,251.9 477.2,252.0 477.4,253.1 477.6,253.2 477.8,252.7 478.0,251.9 478.2,251.7 478.4,251.8 478.6,252.1 478.8,251.5 478.9,251.6 479.1,250.3 479.3,249.5 479.5,247.1 479.7,246.0 479.9,242.4 480.1,242.2 480.3,242.8 480.5,241.1 480.7,242.3 480.8,239.9 481.0,240.7 481.2,241.7 481.4,243.4 481.6,243.2 481.8,241.6 482.0,242.4 482.2,242.1 482.4,243.2 482.6,242.1 482.7,242.0 482.9,242.3 483.1,242.6 483.3,243.7 483.5,243.3 483.7,244.3 483.9,244.5 484.1,244.7 484.3,244.9 484.5,244.1 484.6,243.9 484.8,242.3 485.0,241.0 485.2,240.2 485.4,238.8 485.6,239.9 485.8,240.8 486.0,241.1 486.2,240.5 486.4,241.0 486.5,242.7 486.7,242.4 486.9,242.1 487.1,241.2 487.3,243.8 487.5,242.9 487.7,240.7 487.9,241.5 488.1,241.4 488.3,241.0 488.4,241.1 488.6,240.4 488.8,240.4 489.0,241.3 489.2,242.1 489.4,242.7 489.6,241.6 489.8,241.9 490.0,242.2 490.1,241.9 490.3,242.5 490.5,242.7 490.7,243.5 490.9,243.7 491.1,245.4 491.3,243.7 491.5,242.1 491.7,241.3 491.9,238.4 492.0,239.1 492.2,239.5 492.4,239.9 492.6,240.0 492.8,239.7 493.0,236.4 493.2,234.8 493.4,233.5 493.6,233.6 493.8,233.6 493.9,235.2 494.1,237.0 494.3,237.7 494.5,237.4 494.7,234.4 494.9,231.7 495.1,230.6 495.3,227.7 495.5,225.2 495.7,220.8 495.8,220.4 496.0,213.0 496.2,212.3 496.4,201.9 496.6,200.7 496.8,192.5 497.0,202.6 497.2,197.6 497.4,201.7 497.6,201.7 497.7,201.6 497.9,194.7 498.1,189.4 498.3,190.7 498.5,188.5 498.7,185.9 498.9,189.6 499.1,196.5 499.3,190.3 499.5,182.6 499.6,182.1 499.8,179.7 500.0,175.5 500.2,170.5 500.4,172.7 500.6,173.0 500.8,177.9 501.0,177.4 501.2,179.2 501.3,180.2 501.5,179.6 501.7,173.0 501.9,171.8 502.1,190.3 502.3,189.0 502.5,178.9 502.7,179.3 502.9,177.4 503.1,177.8 503.2,180.7 503.4,183.3 503.6,186.2 503.8,188.6 504.0,193.4 504.2,188.6 504.4,191.0 504.6,192.2 504.8,194.0 505.0,191.1 505.1,188.4 505.3,187.7 505.5,187.3 505.7,187.0 505.9,186.6 506.1,185.5 506.3,188.4 506.5,182.7 506.7,183.6 506.9,183.3 507.0,188.8 507.2,188.9 507.4,191.0 507.6,190.6 507.8,186.5 508.0,189.2 508.2,188.1 508.4,182.9 508.6,182.3 508.8,178.5 508.9,176.1 509.1,171.3 509.3,173.0 509.5,169.6 509.7,166.7 509.9,169.3 510.1,171.8 510.3,169.0 510.5,168.6 510.7,162.1 510.8,164.5 511.0,161.3 511.2,162.2 511.4,159.8 511.6,155.0 511.8,151.0 512.0,152.4 512.2,148.3 512.4,144.4 512.5,143.8 512.7,142.9 512.9,133.4 513.1,130.6 513.3,136.4 513.5,133.7 513.7,126.7 513.9,128.7 514.1,131.6 514.3,125.6 514.4,127.5 514.6,128.2 514.8,129.7 515.0,128.8 515.2,136.9 515.4,137.8 515.6,140.5 515.8,139.8 516.0,135.9 516.2,134.6 516.3,137.8 516.5,138.5 516.7,143.3 516.9,147.6 517.1,139.1 517.3,139.1 517.5,136.3 517.7,129.7 517.9,122.3 518.1,121.1 518.2,123.5 518.4,138.1 518.6,139.1 518.8,129.7 519.0,128.9 519.2,130.2 519.4,125.4 519.6,125.7 519.8,113.5 520.0,118.2 520.1,121.1 520.3,122.5 520.5,121.6 520.7,128.4 520.9,133.3 521.1,131.3 521.3,140.7 521.5,152.7 521.7,145.5 521.9,142.5 522.0,149.5 522.2,166.0 522.4,167.9 522.6,154.3 522.8,163.0 523.0,166.1 523.2,173.6 523.4,162.0 523.6,158.6 523.7,171.8 523.9,158.5 524.1,150.5 524.3,153.5 524.5,160.6 524.7,161.5 524.9,162.1 525.1,157.7 525.3,159.5 525.5,160.2 525.6,162.4 525.8,158.3 526.0,161.8 526.2,179.6 526.4,180.3 526.6,176.7 526.8,181.4 527.0,181.8 527.2,180.7 527.4,176.3 527.5,179.8 527.7,181.2 527.9,178.9 528.1,170.9 528.3,172.8 528.5,174.6 528.7,173.8 528.9,173.8 529.1,175.8 529.3,185.5 529.4,184.4 529.6,189.0 529.8,195.2 530.0,211.2 530.2,222.6 530.4,218.4 530.6,206.8 530.8,202.7 531.0,199.8 531.2,198.4 531.3,197.9 531.5,204.6 531.7,202.0 531.9,199.8 532.1,200.0 532.3,200.9 532.5,198.8 532.7,202.8 532.9,197.4 533.1,200.6 533.2,200.6 533.4,199.6 533.6,197.8 533.8,201.8 534.0,201.3 534.2,202.5 534.4,202.3 534.6,205.6 534.8,204.2 534.9,200.7 535.1,198.9 535.3,194.2 535.5,194.8 535.7,196.3 535.9,193.1 536.1,191.8 536.3,191.9 536.5,190.4 536.7,191.9 536.8,191.0 537.0,189.8 537.2,189.8 537.4,189.9 537.6,192.8 537.8,192.5 538.0,192.6 538.2,194.6 538.4,195.3 538.6,187.3 538.7,183.0 538.9,179.3 539.1,176.9 539.3,177.7 539.5,178.9 539.7,181.3 539.9,183.1 540.1,182.8 540.3,182.7 540.5,183.6 540.6,181.2 540.8,182.1 541.0,182.7 541.2,183.1 541.4,182.4 541.6,182.9 541.8,192.1 542.0,191.3 542.2,190.6 542.4,181.8 542.5,182.0 542.7,186.4 542.9,187.0 543.1,188.7 543.3,188.4 543.5,189.5 543.7,190.3 543.9,185.2 544.1,187.5 544.3,188.2 544.4,186.2 544.6,184.7 544.8,179.3 545.0,179.9 545.2,179.3 545.4,180.7 545.6,180.1 545.8,185.4 546.0,184.0 546.1,184.5 546.3,185.1 546.5,194.9 546.7,194.3 546.9,192.1 547.1,202.0 547.3,199.1 547.5,205.7 547.7,205.3 547.9,206.7 548.0,205.3 548.2,209.7 548.4,209.7 548.6,205.3 548.8,208.2 549.0,211.6 549.2,209.8 549.4,210.0 549.6,217.6 549.8,217.6 549.9,220.6 550.1,216.4 550.3,218.7 550.5,216.4 550.7,217.9 550.9,216.2 551.1,216.9 551.3,218.2 551.5,214.5 551.7,213.7 551.8,213.8 552.0,214.2 552.2,210.8 552.4,212.5 552.6,211.9 552.8,219.1 553.0,217.7 553.2,219.0 553.4,216.7 553.6,211.2 553.7,210.9 553.9,206.0 554.1,206.8 554.3,206.4 554.5,207.0 554.7,210.4 554.9,209.9 555.1,209.2 555.3,207.6 555.4,205.0 555.6,205.3 555.8,204.6 556.0,201.0 556.2,202.6 556.4,202.5 556.6,204.6 556.8,204.3 557.0,206.1 557.2,207.2 557.3,203.4 557.5,203.5 557.7,202.9 557.9,202.2 558.1,202.9 558.3,204.7 558.5,205.8 558.7,204.4 558.9,204.6 559.1,202.7 559.2,202.3 559.4,202.0 559.6,203.7 559.8,203.2 560.0,204.1 560.2,204.2 560.4,203.5 560.6,204.3 560.8,203.9 561.0,204.4 561.1,204.6 561.3,205.0 561.5,203.3 561.7,203.8 561.9,203.9 562.1,207.3 562.3,209.6 562.5,209.7 562.7,209.1 562.9,208.7 563.0,209.0 563.2,208.9 563.4,209.1 563.6,209.0 563.8,209.5 564.0,208.7 564.2,208.7 564.4,209.7 564.6,209.4 564.8,209.4 564.9,209.0 565.1,208.3 565.3,203.2 565.5,204.6 565.7,204.6 565.9,203.7 566.1,204.6 566.3,204.5 566.5,204.7 566.6,208.3 566.8,207.5 567.0,206.8 567.2,207.4 567.4,206.8 567.6,206.5 567.8,206.7 568.0,205.8 568.2,206.4 568.4,208.3 568.5,206.8 568.7,206.3 568.9,205.0 569.1,205.0 569.3,204.6 569.5,202.0 569.7,201.5 569.9,201.6 570.1,201.2 570.3,202.0 570.4,201.3 570.6,198.1 570.8,197.9 571.0,198.1 571.2,197.9 571.4,198.4 571.6,199.3 571.8,199.8 572.0,199.0 572.2,200.4 572.3,200.3 572.5,198.5 572.7,199.4 572.9,199.6 573.1,200.3 573.3,201.1 573.5,201.1 573.7,201.3 573.9,201.4 574.1,200.8 574.2,200.2 574.4,198.9 574.6,199.3 574.8,198.8 575.0,195.3 575.2,190.8 575.4,192.9 575.6,193.3 575.8,194.0 576.0,193.2 576.1,194.3 576.3,194.0 576.5,194.7 576.7,195.5 576.9,195.7 577.1,195.8 577.3,195.1 577.5,194.5 577.7,195.6 577.8,194.8 578.0,194.7 578.2,194.3 578.4,194.0 578.6,194.0 578.8,194.7 579.0,196.9 579.2,197.4 579.4,198.4 579.6,197.4 579.7,197.6 579.9,197.4 580.1,196.5 580.3,196.9 580.5,198.9 580.7,198.4 580.9,199.1 581.1,198.3 581.3,198.0 581.5,196.0 581.6,195.8 581.8,196.4 582.0,196.4 582.2,195.8 582.4,196.9 582.6,194.6 582.8,194.8 583.0,194.7 583.2,193.7 583.4,191.7 583.5,192.0 583.7,192.5 583.9,193.0 584.1,192.9 584.3,193.0 584.5,192.2 584.7,193.3 584.9,191.4 585.1,191.7 585.3,191.2 585.4,190.7 585.6,191.9 585.8,190.3 586.0,188.8 586.2,188.1 586.4,188.7 586.6,189.0 586.8,188.4 587.0,188.8 587.2,187.0 587.3,185.7 587.5,185.2 587.7,184.4 587.9,182.6 588.1,182.0 588.3,179.2 588.5,181.1 588.7,180.1 588.9,181.4 589.0,184.4 589.2,184.8 589.4,184.3 589.6,184.0 589.8,181.5 590.0,183.5 590.2,184.6 590.4,185.4 590.6,189.2 590.8,189.7 590.9,190.3 591.1,191.1 591.3,189.9 591.5,190.3 591.7,191.3 591.9,189.9 592.1,190.6 592.3,191.4 592.5,191.4 592.7,190.7 592.8,189.2 593.0,188.0 593.2,188.1 593.4,188.8 593.6,188.4 593.8,188.8 594.0,189.6 594.2,190.0 594.4,189.0 594.6,187.0 594.7,187.7 594.9,186.6 595.1,187.3 595.3,186.2 595.5,186.2 595.7,185.9 595.9,185.6 596.1,185.0 596.3,186.7 596.5,186.6 596.6,187.2 596.8,186.2 597.0,185.9 597.2,185.0 597.4,184.1 597.6,184.7 597.8,184.8 598.0,184.5 598.2,185.3 598.4,182.9 598.5,183.0 598.7,182.8 598.9,183.4 599.1,183.6 599.3,184.9 599.5,184.8 599.7,184.8 599.9,185.9 600.1,186.6 600.2,186.2 600.4,185.9 600.6,185.8 600.8,186.6 601.0,187.2 601.2,185.8 601.4,186.1 601.6,185.9 601.8,184.8 602.0,186.6 602.1,186.3 602.3,185.9 602.5,187.1 602.7,186.6 602.9,185.1 603.1,185.4 603.3,185.9 603.5,186.0 603.7,186.6 603.9,185.7 604.0,183.8 604.2,183.7 604.4,183.7 604.6,184.2 604.8,184.1 605.0,184.4 605.2,184.9 605.4,186.1 605.6,185.9 605.8,187.0 605.9,188.1 606.1,187.5 606.3,186.8 606.5,187.1 606.7,186.7 606.9,187.0 607.1,186.6 607.3,186.9 607.5,187.4 607.7,188.0 607.8,188.3 608.0,188.8 608.2,188.4 608.4,188.7 608.6,188.2 608.8,187.3 609.0,184.7 609.2,184.4 609.4,184.0 609.6,185.5 609.7,186.1 609.9,185.8 610.1,184.4 610.3,182.3 610.5,182.6 610.7,177.4 610.9,177.8 611.1,177.1 611.3,176.0 611.4,177.4 611.6,179.5 611.8,178.4 612.0,176.7 612.2,175.2 612.4,174.1 612.6,174.2 612.8,174.4 613.0,176.6 613.2,177.8 613.3,178.2 613.5,175.5 613.7,176.5 613.9,174.6 614.1,173.5 614.3,172.2 614.5,171.3 614.7,170.6 614.9,171.8 615.1,170.5 615.2,171.1 615.4,172.2 615.6,173.8 615.8,170.7 616.0,170.4 616.2,170.8 616.4,169.8 616.6,167.7 616.8,168.2 617.0,165.3 617.1,163.3 617.3,163.1 617.5,163.8 617.7,160.6 617.9,160.1 618.1,162.2 618.3,160.8 618.5,162.0 618.7,162.4 618.9,162.4 619.0,162.2 619.2,162.1 619.4,159.1 619.6,158.7 619.8,161.6 620.0,162.9 620.2,162.3 620.4,162.1 620.6,163.4 620.8,164.0 620.9,167.1 621.1,165.5 621.3,164.3 621.5,165.1 621.7,164.2 621.9,163.4 622.1,163.5 622.3,161.6 622.5,160.2 622.6,160.9 622.8,156.6 623.0,154.4 623.2,154.3 623.4,155.4 623.6,156.0 623.8,156.5 624.0,156.1 624.2,154.8 624.4,156.1 624.5,157.6 624.7,158.0 624.9,158.6 625.1,157.5 625.3,158.0 625.5,159.2 625.7,159.2 625.9,158.7 626.1,159.4 626.3,159.5 626.4,158.7 626.6,158.7 626.8,158.7 627.0,158.5 627.2,160.0 627.4,159.7 627.6,158.9 627.8,157.2 628.0,157.5 628.2,156.3 628.3,155.5 628.5,155.7 628.7,154.9 628.9,155.0 629.1,153.4 629.3,153.1 629.5,154.3 629.7,154.2 629.9,153.1 630.1,153.4 630.2,151.6 630.4,148.3 630.6,149.1 630.8,149.9 631.0,150.5 631.2,150.1 631.4,149.9 631.6,150.4 631.8,148.1 632.0,148.2 632.1,147.3 632.3,145.0 632.5,144.3 632.7,145.4 632.9,146.2 633.1,144.0 633.3,139.8 633.5,139.3 633.7,135.7 633.8,134.2 634.0,139.7 634.2,139.8 634.4,141.5 634.6,142.7 634.8,143.1 635.0,145.5 635.2,146.9 635.4,145.5 635.6,141.8 635.7,144.5 635.9,146.6 636.1,145.0 636.3,142.5 636.5,146.4 636.7,144.6 636.9,146.1 637.1,148.6 637.3,147.7 637.5,144.6 637.6,144.2 637.8,142.9 638.0,144.0 638.2,144.2 638.4,142.9 638.6,147.3 638.8,145.7 639.0,145.5 639.2,141.9 639.4,141.5 639.5,141.0 639.7,140.0 639.9,139.2 640.1,137.2 640.3,135.5 640.5,135.7 640.7,133.7 640.9,131.9 641.1,130.3 641.3,129.8 641.4,127.2 641.6,126.7 641.8,125.5 642.0,122.3 642.2,122.3 642.4,123.9 642.6,122.4 642.8,126.6 643.0,129.5 643.2,126.7 643.3,125.1 643.5,124.3 643.7,121.7 643.9,126.9 644.1,133.3 644.3,139.5 644.5,149.5 644.7,149.8 644.9,146.2 645.0,144.9 645.2,140.6 645.4,138.3 645.6,137.6 645.8,140.9 646.0,144.5 646.2,143.6 646.4,145.6 646.6,145.7 646.8,143.3 646.9,144.5 647.1,142.9 647.3,142.2 647.5,142.0 647.7,144.4 647.9,145.1 648.1,143.1 648.3,145.2 648.5,143.0 648.7,142.8 648.8,143.6 649.0,145.5 649.2,151.2 649.4,154.7 649.6,154.3 649.8,158.0 650.0,154.7 650.2,156.2 650.4,157.0 650.6,157.6 650.7,157.6 650.9,156.3 651.1,151.6 651.3,151.6 651.5,154.0 651.7,155.9 651.9,160.5 652.1,162.6 652.3,161.3 652.5,158.9 652.6,161.8 652.8,160.2 653.0,155.8 653.2,157.6 653.4,160.5 653.6,161.4 653.8,161.1 654.0,160.5 654.2,162.0 654.4,159.1 654.5,156.1 654.7,156.3 654.9,155.4 655.1,156.0 655.3,153.9 655.5,154.2 655.7,156.8 655.9,158.0 656.1,154.7 656.2,154.5 656.4,155.9 656.6,159.2 656.8,160.5 657.0,160.5 657.2,159.5 657.4,160.5 657.6,164.5 657.8,160.8 658.0,161.3 658.1,158.2 658.3,157.5 658.5,158.2 658.7,157.6 658.9,160.7 659.1,159.9 659.3,158.0 659.5,159.2 659.7,159.0 659.9,158.7 660.0,163.6 660.2,163.8 660.4,165.1 660.6,164.7 660.8,168.3 661.0,170.4 661.2,174.5 661.4,176.3 661.6,172.3 661.8,179.2 661.9,178.5 662.1,180.0 662.3,180.0 662.5,177.4 662.7,172.2 662.9,172.4 663.1,175.3 663.3,171.6 663.5,171.2 663.7,172.7 663.8,173.8 664.0,174.6 664.2,173.8 664.4,169.0 664.6,166.8 664.8,163.8 665.0,163.8 665.2,166.4 665.4,166.4 665.6,165.5 665.7,164.9 665.9,169.2 666.1,173.1 666.3,175.1 666.5,175.2 666.7,169.7 666.9,172.3 667.1,168.2 667.3,168.2 667.4,170.0 667.6,170.6 667.8,175.3 668.0,175.4 668.2,177.8 668.4,175.0 668.6,172.2 668.8,171.9 669.0,171.2 669.2,170.2 669.3,166.7 669.5,167.5 669.7,168.0 669.9,169.5 670.1,170.4 670.3,171.0 670.5,168.2 670.7,172.9 670.9,174.4 671.1,172.6 671.2,174.4 671.4,175.6 671.6,176.9 671.8,174.4 672.0,173.8 672.2,175.5 672.4,170.9 672.6,169.1 672.8,168.9 673.0,162.2 673.1,164.6 673.3,161.7 673.5,162.4 673.7,160.2 673.9,169.5 674.1,168.6 674.3,168.6 674.5,176.4 674.7,172.3 674.9,174.6 675.0,174.3 675.2,173.6 675.4,177.9 675.6,172.6 675.8,164.6 676.0,171.1 676.2,170.1 676.4,169.6 676.6,170.8 676.8,177.0 676.9,174.6 677.1,172.2 677.3,171.4 677.5,164.9 677.7,167.6 677.9,168.5 678.1,169.8 678.3,169.2 678.5,173.4 678.6,172.7 678.8,171.2 679.0,173.8 679.2,171.6 679.4,171.4 679.6,169.0 679.8,172.0 680.0,172.1 680.2,173.1 680.4,176.2 680.5,175.6 680.7,176.4 680.9,174.4 681.1,175.4 681.3,173.8 681.5,169.5 681.7,169.0 681.9,169.7 682.1,173.2 682.3,173.8 682.4,175.1 682.6,174.7 682.8,174.3 683.0,171.7 683.2,174.0 683.4,174.2 683.6,176.3 683.8,178.3 684.0,180.9 684.2,183.1 684.3,182.9 684.5,183.8 684.7,185.1 684.9,185.1 685.1,184.3 685.3,184.3 685.5,186.6 685.7,186.2 685.9,182.5 686.1,182.7 686.2,183.3 686.4,181.4 686.6,181.1 686.8,179.7 687.0,181.4 687.2,178.0 687.4,177.7 687.6,178.3 687.8,175.0 688.0,173.9 688.1,176.0 688.3,176.3 688.5,175.5 688.7,173.2 688.9,173.4 689.1,172.1 689.3,172.9 689.5,170.1 689.7,168.8 689.8,167.0 690.0,166.4 690.2,162.8 690.4,163.1 690.6,167.4 690.8,162.8 691.0,163.1 691.2,162.4 691.4,163.2 691.6,159.3 691.7,144.4 691.9,151.0 692.1,150.4 692.3,150.4 692.5,145.5 692.7,144.4 692.9,144.6 693.1,144.1 693.3,147.7 693.5,155.0 693.6,153.9 693.8,153.1 694.0,152.7 694.2,152.4 694.4,150.1 694.6,144.7 694.8,146.3 695.0,146.1 695.2,146.8 695.4,147.3 695.5,153.0 695.7,153.7 695.9,151.4 696.1,151.7 696.3,144.2 696.5,140.0 696.7,140.2 696.9,138.0 697.1,135.2 697.3,134.8 697.4,134.4 697.6,133.3 697.8,137.2 698.0,137.6 698.2,137.6 698.4,130.0 698.6,130.8 698.8,131.5 699.0,128.7 699.2,133.7 699.3,133.3 699.5,133.7 699.7,137.1 699.9,139.6 700.1,136.5 700.3,135.9 700.5,146.6 700.7,146.3 700.9,149.7 701.0,154.2 701.2,147.3 701.4,151.3 701.6,152.5 701.8,148.2 702.0,147.6 702.2,151.4 702.4,153.2 702.6,151.5 702.8,152.4 702.9,154.9 703.1,153.8 703.3,152.1 703.5,150.6 703.7,149.5 703.9,150.3 704.1,151.0 704.3,150.1 704.5,151.5 704.7,151.7 704.8,152.8 705.0,150.2 705.2,144.5 705.4,145.5 705.6,145.9 705.8,146.3 706.0,145.7 706.2,144.8 706.4,141.4 706.6,134.0 706.7,134.1 706.9,133.7 707.1,136.7 707.3,136.9 707.5,133.9 707.7,134.1 707.9,134.1 708.1,129.0 708.3,129.3 708.5,131.5 708.6,132.3 708.8,131.5 709.0,136.3 709.2,137.0 709.4,137.2 709.6,136.4 709.8,134.8 710.0,134.9 710.2,136.2 710.4,136.9 710.5,137.7 710.7,135.1 710.9,136.4 711.1,136.3 711.3,134.1 711.5,132.2 711.7,131.9 711.9,132.2 712.1,131.5 712.2,133.6 712.4,135.5 712.6,138.9 712.8,142.9 713.0,145.2 713.2,146.2 713.4,143.3 713.6,144.1 713.8,140.4 714.0,142.6 714.1,141.9 714.3,141.2 714.5,140.3 714.7,136.0 714.9,136.5 715.1,136.7 715.3,136.3 715.5,133.3 715.7,137.0 715.9,135.6 716.0,137.2 716.2,138.0 716.4,136.9 716.6,135.1 716.8,135.2 717.0,132.6 717.2,130.2 717.4,127.8 717.6,128.2 717.8,128.9 717.9,130.0 718.1,127.0 718.3,128.0 718.5,131.5 718.7,130.3 718.9,130.0 719.1,129.6 719.3,132.0 719.5,131.5 719.7,132.2 719.8,132.2 720.0,132.2 720.2,134.7 720.4,133.0 720.6,132.7 720.8,131.5 721.0,128.2 721.2,126.0 721.4,125.9 721.6,126.7 721.7,126.1 721.9,129.5 722.1,129.3 722.3,129.1 722.5,130.5 722.7,130.0 722.9,129.5 723.1,128.5 723.3,129.3 723.4,130.6 723.6,130.3 723.8,126.7 724.0,125.3 724.2,124.1 724.4,124.6 724.6,124.6 724.8,126.0 725.0,129.6 725.2,129.3 725.3,129.4 725.5,129.6 725.7,130.3 725.9,128.5 726.1,127.1 726.3,129.6 726.5,130.9 726.7,133.0 726.9,131.0 727.1,131.1 727.2,131.5 727.4,132.2 727.6,135.2 727.8,134.8 728.0,134.0 728.2,134.4 728.4,133.0 728.6,131.8 728.8,132.2 729.0,132.0 729.1,130.9 729.3,131.7 729.5,126.9 729.7,127.4 729.9,124.9 730.1,125.6 730.3,126.1 730.5,126.5 730.7,128.5 730.9,127.8 731.0,128.4 731.2,126.7 731.4,126.2 731.6,123.0 731.8,122.4 732.0,120.7 732.2,121.6 732.4,123.1 732.6,122.1 732.8,124.4 732.9,122.5 733.1,122.2 733.3,120.8 733.5,121.1 733.7,123.4 733.9,124.2 734.1,123.7 734.3,122.4 734.5,126.4 734.6,126.4 734.8,132.6 735.0,149.3 735.2,143.3 735.4,142.1 735.6,138.9 735.8,139.0 736.0,139.2 736.2,136.8 736.4,135.8 736.5,136.9 736.7,135.7 736.9,131.5 737.1,133.5 737.3,133.5 737.5,129.4 737.7,130.0 737.9,132.7 738.1,134.6 738.3,135.0 738.4,134.7 738.6,141.1 738.8,134.6 739.0,134.0 739.2,131.5 739.4,126.6 739.6,130.6 739.8,137.5 740.0,133.7 740.2,136.5 740.3,139.4 740.5,142.5 740.7,150.8 740.9,151.7 741.1,156.1 741.3,160.2 741.5,155.7 741.7,161.1 741.9,155.4 742.1,150.8 742.2,151.6 742.4,150.4 742.6,151.3 742.8,151.7 743.0,152.1 743.2,149.4 743.4,150.2 743.6,146.6 743.8,147.5 744.0,146.9 744.1,146.9 744.3,147.8 744.5,144.4 744.7,145.9 744.9,145.8 745.1,142.7 745.3,141.9 745.5,144.4 745.7,142.9 745.8,143.2 746.0,144.8 746.2,142.9 746.4,141.4 746.6,140.0 746.8,138.2 747.0,138.5 747.2,138.9 747.4,137.4 747.6,137.4 747.7,137.6 747.9,137.6 748.1,139.8 748.3,141.3 748.5,139.6 748.7,138.2 748.9,138.5 749.1,139.2 749.3,144.6 749.5,143.7 749.6,142.0 749.8,142.8 750.0,142.1 750.2,142.0 750.4,137.3 750.6,136.1 750.8,135.7 751.0,136.2 751.2,135.2 751.4,134.1 751.5,132.8 751.7,133.9 751.9,136.2 752.1,135.2 752.3,138.6 752.5,136.3 752.7,135.9 752.9,134.9 753.1,132.5 753.3,132.7 753.4,132.2 753.6,130.0 753.8,131.7 754.0,130.2 754.2,124.8 754.4,119.0 754.6,112.6 754.8,91.0 755.0,96.1 755.1,92.7 755.3,91.8 755.5,98.4 755.7,95.1 755.9,97.8 756.1,100.1 756.3,111.1 756.5,109.4 756.7,101.6 756.9,101.7 757.0,101.4 757.2,101.6 757.4,111.6 757.6,110.7 757.8,109.2 758.0,104.6 758.2,105.7 758.4,104.3 758.6,101.8 758.8,99.4 758.9,101.2 759.1,101.0 759.3,103.3 759.5,101.4 759.7,103.4 759.9,104.2 760.1,105.0 760.3,100.7 760.5,94.9 760.7,95.3 760.8,100.0 761.0,103.0 761.2,101.2 761.4,100.4 761.6,99.4 761.8,102.1 762.0,100.7 762.2,94.4 762.4,96.6 762.6,95.9 762.7,96.6 762.9,97.3 763.1,99.6 763.3,103.9 763.5,101.2 763.7,105.1 763.9,104.3 764.1,102.9 764.3,100.8 764.5,98.8 764.6,100.4 764.8,102.9 765.0,95.9 765.2,99.2 765.4,102.2 765.6,102.0 765.8,106.2 766.0,105.3 766.2,103.8 766.3,104.3 766.5,105.4 766.7,101.1 766.9,93.0 767.1,93.4 767.3,94.4 767.5,94.4 767.7,93.8 767.9,95.6 768.1,95.4 768.2,93.7 768.4,94.8 768.6,95.7 768.8,99.8 769.0,100.4 769.2,99.0 769.4,97.6 769.6,101.7 769.8,102.6 770.0,99.7 770.1,97.8 770.3,94.9 770.5,95.7 770.7,91.1 770.9,91.2 771.1,91.4 771.3,92.7 771.5,97.2 771.7,94.0 771.9,94.0 772.0,93.6 772.2,91.7 772.4,91.3 772.6,87.1 772.8,89.2 773.0,91.1 773.2,88.9 773.4,84.3 773.6,86.8 773.8,80.3 773.9,81.2 774.1,81.8 774.3,81.4 774.5,83.9 774.7,84.9 774.9,87.1 775.1,88.2 775.3,90.3 775.5,87.8 775.7,87.5 775.8,86.1 776.0,81.9 776.2,84.4 776.4,83.8 776.6,87.5 776.8,85.4 777.0,85.9 777.2,84.1 777.4,83.3 777.5,83.8 777.7,79.8 777.9,74.3 778.1,74.5 778.3,71.5 778.5,67.2 778.7,61.2 778.9,62.8 779.1,64.2 779.3,53.8 779.4,56.6 779.6,61.3 779.8,61.0 780.0,58.6 780.2,61.7 780.4,61.4 780.6,58.4 780.8,58.9 781.0,54.4 781.2,61.4 781.3,61.0 781.5,66.8 781.7,68.9 781.9,66.8 782.1,65.2 782.3,64.3 782.5,62.4 782.7,58.8 782.9,55.6 783.1,50.7 783.2,45.0 783.4,45.4 783.6,46.1 783.8,55.8 784.0,54.7 784.2,62.4 784.4,58.1 784.6,65.9 784.8,63.6 785.0,68.7 785.1,61.1 785.3,69.4 785.5,70.9 785.7,80.0 785.9,84.4 786.1,83.0 786.3,75.9 786.5,75.7 786.7,80.2 786.9,78.4 787.0,78.8 787.2,77.7 787.4,85.0 787.6,83.0 787.8,84.5 788.0,88.3 788.2,88.5 788.4,83.7 788.6,83.1 788.7,80.0 788.9,82.7 789.1,79.5 789.3,76.9 789.5,78.7 789.7,81.5 789.9,80.2 790.1,84.3 790.3,87.2 790.5,88.6 790.6,88.2 790.8,91.0 791.0,89.9 791.2,84.8 791.4,85.3 791.6,84.9 791.8,86.2 792.0,83.7 792.2,88.0 792.4,87.4 792.5,87.3 792.7,83.8 792.9,86.1 793.1,89.1 793.3,92.6 793.5,92.6 793.7,90.3 793.9,89.3 794.1,91.9 794.3,84.9 794.4,82.4 794.6,82.6 794.8,84.5 795.0,83.5 795.2,86.7 795.4,85.6 795.6,74.2 795.8,73.2 796.0,72.5 796.2,73.0 796.3,73.9 796.5,73.8 796.7,76.0 796.9,78.2 797.1,76.9 797.3,77.5 797.5,79.1 797.7,78.4 797.9,76.9 798.1,79.2 798.2,83.0 798.4,85.8 798.6,86.3 798.8,88.2 799.0,89.8 799.2,87.5 799.4,87.1 799.6,85.6 799.8,81.6 799.9,82.7 800.1,84.9 800.3,83.6 800.5,81.0 800.7,90.7 800.9,91.0 801.1,90.1 801.3,89.3 801.5,92.9 801.7,93.9 801.8,91.7 802.0,90.9 802.2,95.0 802.4,89.4 802.6,92.2 802.8,91.2 803.0,91.8 803.2,90.9 803.4,90.6 803.6,93.4 803.7,103.4 803.9,111.4 804.1,109.3 804.3,107.1 804.5,110.9 804.7,104.7 804.9,103.8 805.1,103.1 805.3,103.5 805.5,105.5 805.6,102.8 805.8,98.5 806.0,100.7 806.2,103.2 806.4,103.8 806.6,103.2 806.8,109.4 807.0,106.2 807.2,109.7 807.4,115.2 807.5,113.0 807.7,109.2 807.9,108.3 808.1,113.6 808.3,111.2 808.5,112.0 808.7,112.8 808.9,107.5 809.1,107.7 809.3,107.1 809.4,104.3 809.6,101.5 809.8,104.2 810.0,104.9 810.2,100.9 810.4,101.8 810.6,105.8 810.8,109.1 811.0,110.6 811.1,108.1 811.3,111.3 811.5,110.8 811.7,109.1 811.9,104.3 812.1,104.3 812.3,104.3 812.5,105.6 812.7,100.7 812.9,99.3 813.0,100.7 813.2,98.1 813.4,99.8 813.6,97.7 813.8,102.8 814.0,101.0 814.2,100.8 814.4,99.2 814.6,96.2 814.8,96.4 814.9,98.0 815.1,101.3 815.3,101.4 815.5,99.9 815.7,101.1 815.9,104.1 816.1,106.5 816.3,104.5 816.5,104.7 816.7,105.6 816.8,106.2 817.0,107.6 817.2,102.2 817.4,103.2 817.6,103.1 817.8,103.1 818.0,104.6 818.2,107.2 818.4,104.1 818.6,104.3 818.7,103.2 818.9,102.4 819.1,103.8 819.3,106.2 819.5,106.2 819.7,107.6 819.9,106.7 820.1,105.8 820.3,103.6 820.5,102.9 820.6,100.8 820.8,96.9 821.0,92.9 821.2,93.1 821.4,92.7 821.6,94.0 821.8,96.6 822.0,95.8 822.2,99.7 822.3,101.4 822.5,100.3 822.7,101.4 822.9,98.9 823.1,99.1 823.3,99.5 823.5,98.1 823.7,102.9 823.9,101.1 824.1,100.4 824.2,101.1 824.4,101.6 824.6,105.4 824.8,104.3 825.0,103.6 825.2,105.1 825.4,103.2 825.6,107.5 825.8,111.1 826.0,110.2 826.1,107.3 826.3,107.3 826.5,103.7 826.7,104.3 826.9,105.2 827.1,110.4 827.3,109.2 827.5,112.1 827.7,117.7 827.9,113.1 828.0,112.8 828.2,111.1 828.4,110.5 828.6,110.9 828.8,113.6 829.0,112.7 829.2,111.4 829.4,111.2 829.6,109.2 829.8,110.3 829.9,114.2 830.1,112.7 830.3,117.2 830.5,116.1 830.7,115.7 830.9,112.3 831.1,113.6 831.3,114.4 831.5,116.9 831.7,124.1 831.8,127.2 832.0,129.4 832.2,127.4 832.4,126.7 832.6,133.7 832.8,145.1 833.0,135.5 833.2,131.8 833.4,129.1 833.5,130.4 833.7,129.8 833.9,128.5 834.1,129.7 834.3,133.3 834.5,133.4 834.7,134.4 834.9,128.6 835.1,129.9 835.3,126.6 835.4,127.5 835.6,129.7 835.8,127.7 836.0,133.7 836.2,130.3 836.4,131.1 836.6,127.5 836.8,127.3 837.0,130.7 837.2,132.8 837.3,135.0 837.5,137.8 837.7,136.7 837.9,147.1 838.1,146.9 838.3,143.0 838.5,140.3 838.7,136.8 838.9,137.8 839.1,143.9 839.2,145.9 839.4,144.0 839.6,142.4 839.8,144.0 840.0,141.8 840.2,144.0 840.4,141.2 840.6,141.9 840.8,142.1 841.0,136.8 841.1,139.2 841.3,142.5 841.5,142.2 841.7,142.2 841.9,140.7 842.1,139.6 842.3,136.9 842.5,137.7 842.7,138.1 842.9,135.5 843.0,134.0 843.2,131.3 843.4,132.1 843.6,129.5 843.8,133.5 844.0,130.4 844.2,127.4 844.4,129.5 844.6,126.1 844.7,126.6 844.9,126.1 845.1,128.6 845.3,125.3 845.5,122.3 845.7,119.3 845.9,117.2 846.1,119.1 846.3,115.1 846.5,116.0 846.6,115.6 846.8,115.6 847.0,119.7 847.2,120.4 847.4,120.1 847.6,123.6 847.8,124.9 848.0,125.6 848.2,127.2 848.4,130.6 848.5,127.5 848.7,128.5 848.9,127.8 849.1,130.4 849.3,129.4 849.5,130.1 849.7,129.1 849.9,131.0 850.1,131.1 850.3,134.1 850.4,134.8 850.6,138.6 850.8,140.2 851.0,138.1 851.2,135.1 851.4,136.3 851.6,136.2 851.8,138.8 852.0,134.2 852.2,133.4 852.3,134.7 852.5,135.7 852.7,134.4 852.9,136.5 853.1,136.9 853.3,136.8 853.5,138.3 853.7,140.5 853.9,136.8 854.1,136.7 854.2,138.5 854.4,138.8 854.6,136.2 854.8,138.2 855.0,140.0"/>
</svg>
