<svg xmlns="http://www.w3.org/2000/svg" width="900" height="360">
<rect width="100%" height="100%" fill="white"/>
<text x="30" y="20" font-size="16">上证50指数 收益率直方图</text>
<rect x="30.0" y="328.9" width="27.0" height="1.1" fill="#9ecae1"/><rect x="58.0" y="330.0" width="27.0" height="0.0" fill="#9ecae1"/><rect x="86.0" y="329.7" width="27.0" height="0.3" fill="#9ecae1"/><rect x="114.0" y="328.4" width="27.0" height="1.6" fill="#9ecae1"/><rect x="142.0" y="327.8" width="27.0" height="2.2" fill="#9ecae1"/><rect x="170.0" y="329.2" width="27.0" height="0.8" fill="#9ecae1"/><rect x="198.0" y="327.0" width="27.0" height="3.0" fill="#9ecae1"/><rect x="226.0" y="324.2" width="27.0" height="5.8" fill="#9ecae1"/><rect x="254.0" y="321.5" width="27.0" height="8.5" fill="#9ecae1"/><rect x="282.0" y="322.0" width="27.0" height="8.0" fill="#9ecae1"/><rect x="310.0" y="314.9" width="27.0" height="15.1" fill="#9ecae1"/><rect x="338.0" y="299.8" width="27.0" height="30.2" fill="#9ecae1"/><rect x="366.0" y="269.6" width="27.0" height="60.4" fill="#9ecae1"/><rect x="394.0" y="221.3" width="27.0" height="108.7" fill="#9ecae1"/><rect x="422.0" y="129.9" width="27.0" height="200.1" fill="#9ecae1"/><rect x="450.0" y="30.0" width="27.0" height="300.0" fill="#9ecae1"/><rect x="478.0" y="116.5" width="27.0" height="213.5" fill="#9ecae1"/><rect x="506.0" y="202.1" width="27.0" height="127.9" fill="#9ecae1"/><rect x="534.0" y="266.6" width="27.0" height="63.4" fill="#9ecae1"/><rect x="562.0" y="291.0" width="27.0" height="39.0" fill="#9ecae1"/><rect x="590.0" y="304.2" width="27.0" height="25.8" fill="#9ecae1"/><rect x="618.0" y="316.3" width="27.0" height="13.7" fill="#9ecae1"/><rect x="646.0" y="322.3" width="27.0" height="7.7" fill="#9ecae1"/><rect x="674.0" y="327.3" width="27.0" height="2.7" fill="#9ecae1"/><rect x="702.0" y="328.1" width="27.0" height="1.9" fill="#9ecae1"/><rect x="730.0" y="328.4" width="27.0" height="1.6" fill="#9ecae1"/><rect x="758.0" y="329.7" width="27.0" height="0.3" fill="#9ecae1"/><rect x="786.0" y="328.6" width="27.0" height="1.4" fill="#9ecae1"/><rect x="814.0" y="329.7" width="27.0" height="0.3" fill="#9ecae1"/><rect x="842.0" y="329.5" width="27.0" height="0.5" fill="#9ecae1"/>
<polyline fill="none" stroke="#d62728" stroke-width="2" points="30.0,330.0 37.1,330.0 44.1,330.0 51.2,330.0 58.2,330.0 65.3,330.0 72.4,330.0 79.4,330.0 86.5,330.0 93.5,330.0 100.6,330.0 107.6,330.0 114.7,330.0 121.8,330.0 128.8,330.0 135.9,330.0 142.9,330.0 150.0,330.0 157.1,330.0 164.1,329.9 171.2,329.9 178.2,329.9 185.3,329.8 192.4,329.8 199.4,329.6 206.5,329.5 213.5,329.3 220.6,329.0 227.6,328.6 234.7,328.1 241.8,327.5 248.8,326.6 255.9,325.5 262.9,324.0 270.0,322.2 277.1,319.9 284.1,317.1 291.2,313.6 298.2,309.4 305.3,304.3 312.4,298.3 319.4,291.2 326.5,283.0 333.5,273.7 340.6,263.1 347.6,251.2 354.7,238.1 361.8,223.8 368.8,208.4 375.9,192.1 382.9,175.1 390.0,157.7 397.1,140.0 404.1,122.6 411.2,105.6 418.2,89.5 425.3,74.7 432.4,61.5 439.4,50.2 446.5,41.3 453.5,34.8 460.6,31.0 467.6,30.0 474.7,31.8 481.8,36.4 488.8,43.6 495.9,53.2 502.9,65.1 510.0,78.8 517.1,94.0 524.1,110.4 531.2,127.5 538.2,145.1 545.3,162.7 552.4,180.0 559.4,196.9 566.5,212.9 573.5,228.0 580.6,241.9 587.6,254.7 594.7,266.2 601.8,276.5 608.8,285.5 615.9,293.4 622.9,300.1 630.0,305.8 637.1,310.7 644.1,314.7 651.2,318.0 658.2,320.6 665.3,322.8 672.4,324.5 679.4,325.8 686.5,326.9 693.5,327.7 700.6,328.3 707.6,328.8 714.7,329.1 721.8,329.4 728.8,329.5 735.9,329.7 742.9,329.8 750.0,329.8 757.1,329.9 764.1,329.9 771.2,330.0 778.2,330.0 785.3,330.0 792.4,330.0 799.4,330.0 806.5,330.0 813.5,330.0 820.6,330.0 827.6,330.0 834.7,330.0 841.8,330.0 848.8,330.0 855.9,330.0 862.9,330.0 870.0,330.0"/>
</svg>
