<svg xmlns="http://www.w3.org/2000/svg" width="900" height="360">
<rect width="100%" height="100%" fill="white"/>
<text x="30" y="20" font-size="16">上证50ETF 收益率直方图</text>
<rect x="30.0" y="329.4" width="27.0" height="0.6" fill="#9ecae1"/><rect x="58.0" y="329.7" width="27.0" height="0.3" fill="#9ecae1"/><rect x="86.0" y="329.2" width="27.0" height="0.8" fill="#9ecae1"/><rect x="114.0" y="329.2" width="27.0" height="0.8" fill="#9ecae1"/><rect x="142.0" y="329.2" width="27.0" height="0.8" fill="#9ecae1"/><rect x="170.0" y="327.8" width="27.0" height="2.2" fill="#9ecae1"/><rect x="198.0" y="328.9" width="27.0" height="1.1" fill="#9ecae1"/><rect x="226.0" y="326.1" width="27.0" height="3.9" fill="#9ecae1"/><rect x="254.0" y="323.4" width="27.0" height="6.6" fill="#9ecae1"/><rect x="282.0" y="321.2" width="27.0" height="8.8" fill="#9ecae1"/><rect x="310.0" y="319.2" width="27.0" height="10.8" fill="#9ecae1"/><rect x="338.0" y="305.1" width="27.0" height="24.9" fill="#9ecae1"/><rect x="366.0" y="286.0" width="27.0" height="44.0" fill="#9ecae1"/><rect x="394.0" y="239.9" width="27.0" height="90.1" fill="#9ecae1"/><rect x="422.0" y="160.5" width="27.0" height="169.5" fill="#9ecae1"/><rect x="450.0" y="30.0" width="27.0" height="300.0" fill="#9ecae1"/><rect x="478.0" y="98.8" width="27.0" height="231.2" fill="#9ecae1"/><rect x="506.0" y="202.3" width="27.0" height="127.7" fill="#9ecae1"/><rect x="534.0" y="266.1" width="27.0" height="63.9" fill="#9ecae1"/><rect x="562.0" y="290.5" width="27.0" height="39.5" fill="#9ecae1"/><rect x="590.0" y="307.1" width="27.0" height="22.9" fill="#9ecae1"/><rect x="618.0" y="317.8" width="27.0" height="12.2" fill="#9ecae1"/><rect x="646.0" y="322.8" width="27.0" height="7.2" fill="#9ecae1"/><rect x="674.0" y="326.4" width="27.0" height="3.6" fill="#9ecae1"/><rect x="702.0" y="328.1" width="27.0" height="1.9" fill="#9ecae1"/><rect x="730.0" y="329.4" width="27.0" height="0.6" fill="#9ecae1"/><rect x="758.0" y="328.6" width="27.0" height="1.4" fill="#9ecae1"/><rect x="786.0" y="329.2" width="27.0" height="0.8" fill="#9ecae1"/><rect x="814.0" y="329.4" width="27.0" height="0.6" fill="#9ecae1"/><rect x="842.0" y="328.9" width="27.0" height="1.1" fill="#9ecae1"/>
<polyline fill="none" stroke="#d62728" stroke-width="2" points="30.0,330.0 37.1,330.0 44.1,330.0 51.2,330.0 58.2,330.0 65.3,330.0 72.4,330.0 79.4,330.0 86.5,330.0 93.5,330.0 100.6,330.0 107.6,330.0 114.7,330.0 121.8,330.0 128.8,330.0 135.9,330.0 142.9,330.0 150.0,330.0 157.1,330.0 164.1,330.0 171.2,330.0 178.2,329.9 185.3,329.9 192.4,329.9 199.4,329.8 206.5,329.7 213.5,329.6 220.6,329.5 227.6,329.2 234.7,328.9 241.8,328.5 248.8,327.9 255.9,327.2 262.9,326.2 270.0,324.9 277.1,323.3 284.1,321.2 291.2,318.5 298.2,315.3 305.3,311.2 312.4,306.4 319.4,300.6 326.5,293.7 333.5,285.6 340.6,276.3 347.6,265.7 354.7,253.7 361.8,240.4 368.8,225.9 375.9,210.2 382.9,193.5 390.0,176.0 397.1,158.0 404.1,139.8 411.2,121.8 418.2,104.3 425.3,87.8 432.4,72.7 439.4,59.3 446.5,48.1 453.5,39.4 460.6,33.3 467.6,30.2 474.7,30.0 481.8,32.8 488.8,38.5 495.9,47.0 502.9,57.9 510.0,71.0 517.1,85.9 524.1,102.3 531.2,119.6 538.2,137.6 545.3,155.8 552.4,173.9 559.4,191.4 566.5,208.2 573.5,224.1 580.6,238.8 587.6,252.2 594.7,264.3 601.8,275.1 608.8,284.6 615.9,292.8 622.9,299.8 630.0,305.7 637.1,310.7 644.1,314.8 651.2,318.2 658.2,320.9 665.3,323.0 672.4,324.7 679.4,326.0 686.5,327.1 693.5,327.8 700.6,328.4 707.6,328.9 714.7,329.2 721.8,329.4 728.8,329.6 735.9,329.7 742.9,329.8 750.0,329.9 757.1,329.9 764.1,329.9 771.2,330.0 778.2,330.0 785.3,330.0 792.4,330.0 799.4,330.0 806.5,330.0 813.5,330.0 820.6,330.0 827.6,330.0 834.7,330.0 841.8,330.0 848.8,330.0 855.9,330.0 862.9,330.0 870.0,330.0"/>
</svg>
