<svg xmlns="http://www.w3.org/2000/svg" width="900" height="360">
<rect width="100%" height="100%" fill="white"/>
<text x="30" y="20" font-size="16">上证50ETF 价格</text>
<polyline fill="none" stroke="#1f77b4" stroke-width="2" points="30.0,318.9 30.2,318.9 30.4,318.6 30.6,319.2 30.8,319.5 31.0,320.0 31.2,320.0 31.4,320.0 31.6,319.8 31.8,319.0 32.0,319.1 32.2,320.4 32.4,320.2 32.6,320.1 32.8,321.0 33.0,321.6 33.1,322.1 33.3,322.3 33.5,322.3 33.7,323.4 33.9,323.6 34.1,323.4 34.3,323.5 34.5,323.7 34.7,323.5 34.9,324.3 35.1,324.2 35.3,322.0 35.5,323.2 35.7,323.5 35.9,322.7 36.1,322.3 36.3,321.5 36.5,321.9 36.7,322.5 36.9,321.3 37.1,322.1 37.3,322.7 37.5,323.4 37.7,323.1 37.9,324.1 38.1,324.1 38.3,324.0 38.5,324.5 38.7,324.3 38.9,324.6 39.1,324.1 39.3,324.6 39.4,325.1 39.6,324.9 39.8,325.4 40.0,326.4 40.2,326.3 40.4,327.1 40.6,326.9 40.8,326.8 41.0,326.8 41.2,326.7 41.4,327.6 41.6,327.6 41.8,327.6 42.0,328.0 42.2,328.4 42.4,328.0 42.6,327.9 42.8,328.7 43.0,329.9 43.2,330.0 43.4,329.0 43.6,329.0 43.8,325.1 44.0,324.6 44.2,325.5 44.4,325.5 44.6,325.9 44.8,326.8 45.0,326.1 45.2,325.6 45.4,323.6 45.6,324.2 45.7,324.0 45.9,324.2 46.1,324.2 46.3,323.4 46.5,323.7 46.7,324.4 46.9,325.9 47.1,326.0 47.3,326.4 47.5,326.9 47.7,327.1 47.9,327.1 48.1,327.6 48.3,327.6 48.5,325.6 48.7,326.2 48.9,325.9 49.1,326.1 49.3,326.2 49.5,326.2 49.7,325.6 49.9,325.5 50.1,324.7 50.3,324.8 50.5,324.1 50.7,323.6 50.9,323.9 51.1,324.1 51.3,324.0 51.5,323.5 51.7,323.4 51.9,323.5 52.0,322.1 52.2,322.1 52.4,322.0 52.6,321.9 52.8,321.3 53.0,321.5 53.2,320.3 53.4,321.3 53.6,320.6 53.8,322.3 54.0,321.9 54.2,321.5 54.4,321.9 54.6,321.3 54.8,321.3 55.0,321.3 55.2,321.9 55.4,322.1 55.6,321.5 55.8,321.0 56.0,320.9 56.2,320.9 56.4,321.6 56.6,321.3 56.8,321.2 57.0,321.2 57.2,321.3 57.4,320.9 57.6,320.6 57.8,320.7 58.0,320.8 58.2,320.9 58.3,321.3 58.5,321.9 58.7,323.0 58.9,323.4 59.1,323.1 59.3,323.9 59.5,323.7 59.7,323.3 59.9,323.4 60.1,323.9 60.3,323.4 60.5,323.4 60.7,323.9 60.9,324.8 61.1,325.1 61.3,325.0 61.5,325.1 61.7,324.5 61.9,324.6 62.1,324.7 62.3,325.1 62.5,326.2 62.7,326.2 62.9,326.4 63.1,325.8 63.3,326.0 63.5,325.6 63.7,326.1 63.9,325.8 64.1,326.1 64.3,325.6 64.5,326.1 64.6,326.8 64.8,326.7 65.0,326.9 65.2,326.9 65.4,326.8 65.6,326.7 65.8,325.5 66.0,325.5 66.2,326.4 66.4,326.1 66.6,325.4 66.8,324.9 67.0,325.3 67.2,325.8 67.4,325.5 67.6,325.6 67.8,325.6 68.0,326.1 68.2,325.5 68.4,325.1 68.6,325.2 68.8,324.3 69.0,324.5 69.2,324.6 69.4,324.2 69.6,324.2 69.8,324.0 70.0,324.0 70.2,323.8 70.4,323.7 70.6,323.5 70.7,323.2 70.9,323.0 71.1,323.3 71.3,323.3 71.5,322.8 71.7,323.1 71.9,322.0 72.1,320.7 72.3,320.3 72.5,320.0 72.7,320.2 72.9,320.7 73.1,320.3 73.3,320.8 73.5,321.7 73.7,321.3 73.9,320.2 74.1,320.0 74.3,320.2 74.5,320.0 74.7,320.3 74.9,319.8 75.1,318.7 75.3,319.1 75.5,318.8 75.7,319.6 75.9,318.7 76.1,318.9 76.3,318.8 76.5,318.3 76.7,319.0 76.9,319.0 77.0,319.2 77.2,318.2 77.4,318.5 77.6,317.9 77.8,317.4 78.0,317.2 78.2,316.6 78.4,316.1 78.6,317.2 78.8,317.2 79.0,317.5 79.2,318.6 79.4,318.8 79.6,319.2 79.8,319.0 80.0,318.5 80.2,318.7 80.4,318.3 80.6,318.5 80.8,318.6 81.0,317.9 81.2,317.9 81.4,317.5 81.6,317.7 81.8,317.7 82.0,317.5 82.2,317.1 82.4,316.6 82.6,316.9 82.8,316.6 83.0,316.0 83.2,315.7 83.3,315.2 83.5,315.4 83.7,316.1 83.9,315.2 84.1,315.0 84.3,315.2 84.5,316.0 84.7,314.9 84.9,314.3 85.1,314.1 85.3,313.9 85.5,314.8 85.7,313.3 85.9,313.3 86.1,314.6 86.3,313.2 86.5,313.1 86.7,311.3 86.9,309.1 87.1,307.8 87.3,307.5 87.5,308.0 87.7,305.6 87.9,301.8 88.1,304.1 88.3,303.9 88.5,304.0 88.7,302.7 88.9,302.8 89.1,305.1 89.3,305.0 89.5,305.0 89.6,303.4 89.8,302.2 90.0,301.8 90.2,302.1 90.4,300.2 90.6,300.2 90.8,301.1 91.0,301.3 91.2,304.5 91.4,304.1 91.6,305.3 91.8,305.3 92.0,305.5 92.2,305.9 92.4,305.8 92.6,304.3 92.8,303.9 93.0,303.5 93.2,303.6 93.4,303.8 93.6,303.3 93.8,301.6 94.0,301.6 94.2,301.6 94.4,300.2 94.6,300.3 94.8,298.6 95.0,299.4 95.2,301.2 95.4,300.0 95.6,300.8 95.8,300.9 95.9,300.7 96.1,300.6 96.3,303.7 96.5,303.3 96.7,302.9 96.9,303.1 97.1,304.7 97.3,304.3 97.5,303.5 97.7,303.5 97.9,302.8 98.1,302.8 98.3,303.3 98.5,304.1 98.7,305.9 98.9,306.5 99.1,307.0 99.3,306.8 99.5,307.8 99.7,308.9 99.9,307.8 100.1,307.5 100.3,306.6 100.5,306.7 100.7,307.6 100.9,306.9 101.1,306.2 101.3,306.8 101.5,306.6 101.7,306.5 101.9,305.9 102.1,305.7 102.2,305.4 102.4,305.1 102.6,303.7 102.8,304.0 103.0,304.1 103.2,304.2 103.4,305.1 103.6,304.3 103.8,304.0 104.0,303.4 104.2,304.1 104.4,304.0 104.6,303.6 104.8,302.7 105.0,302.5 105.2,302.6 105.4,300.7 105.6,299.5 105.8,300.5 106.0,300.8 106.2,299.8 106.4,300.6 106.6,300.9 106.8,301.8 107.0,301.1 107.2,300.0 107.4,299.0 107.6,297.0 107.8,296.6 108.0,296.7 108.2,296.9 108.4,297.0 108.5,298.1 108.7,298.6 108.9,297.1 109.1,296.8 109.3,296.6 109.5,297.9 109.7,296.5 109.9,296.0 110.1,294.9 110.3,296.0 110.5,295.2 110.7,293.8 110.9,292.7 111.1,293.0 111.3,291.6 111.5,290.4 111.7,289.2 111.9,290.5 112.1,288.6 112.3,288.9 112.5,290.3 112.7,289.4 112.9,287.2 113.1,286.8 113.3,285.1 113.5,282.6 113.7,282.1 113.9,281.4 114.1,280.8 114.3,281.3 114.5,281.8 114.6,282.8 114.8,281.4 115.0,279.0 115.2,278.6 115.4,274.5 115.6,274.1 115.8,274.4 116.0,273.4 116.2,277.5 116.4,271.8 116.6,271.4 116.8,271.8 117.0,270.0 117.2,268.2 117.4,265.8 117.6,265.4 117.8,263.6 118.0,265.2 118.2,267.2 118.4,264.6 118.6,263.9 118.8,260.2 119.0,259.6 119.2,253.5 119.4,252.6 119.6,254.4 119.8,250.7 120.0,245.5 120.2,244.2 120.4,246.0 120.6,250.2 120.8,244.7 120.9,242.8 121.1,245.2 121.3,245.5 121.5,241.2 121.7,235.4 121.9,233.1 122.1,231.5 122.3,234.2 122.5,228.7 122.7,225.3 122.9,226.9 123.1,236.6 123.3,237.3 123.5,243.6 123.7,246.9 123.9,242.7 124.1,239.9 124.3,238.6 124.5,240.4 124.7,234.4 124.9,233.1 125.1,228.4 125.3,224.1 125.5,224.5 125.7,224.3 125.9,237.6 126.1,233.9 126.3,237.9 126.5,236.0 126.7,239.3 126.9,235.5 127.1,231.9 127.2,231.3 127.4,231.4 127.6,232.1 127.8,231.5 128.0,234.5 128.2,231.7 128.4,233.9 128.6,228.6 128.8,229.0 129.0,227.2 129.2,226.7 129.4,226.9 129.6,224.8 129.8,224.7 130.0,221.8 130.2,220.2 130.4,221.3 130.6,217.8 130.8,216.3 131.0,215.6 131.2,215.2 131.4,214.8 131.6,211.3 131.8,209.7 132.0,207.5 132.2,204.9 132.4,206.8 132.6,201.9 132.8,202.7 133.0,203.7 133.2,210.8 133.4,204.6 133.5,197.1 133.7,197.3 133.9,195.3 134.1,194.1 134.3,195.5 134.5,192.8 134.7,186.8 134.9,185.3 135.1,183.5 135.3,185.0 135.5,182.8 135.7,189.7 135.9,186.4 136.1,183.7 136.3,185.0 136.5,184.7 136.7,182.8 136.9,180.3 137.1,182.1 137.3,179.5 137.5,175.6 137.7,171.9 137.9,188.5 138.1,178.8 138.3,180.2 138.5,191.3 138.7,190.0 138.9,190.6 139.1,185.0 139.3,184.1 139.5,180.8 139.7,176.4 139.8,170.6 140.0,173.1 140.2,171.7 140.4,165.0 140.6,166.0 140.8,169.0 141.0,167.3 141.2,171.5 141.4,176.2 141.6,174.6 141.8,167.9 142.0,173.2 142.2,178.0 142.4,175.7 142.6,174.6 142.8,179.3 143.0,186.3 143.2,181.7 143.4,175.3 143.6,176.5 143.8,176.3 144.0,173.7 144.2,173.4 144.4,180.1 144.6,174.5 144.8,173.4 145.0,174.2 145.2,164.4 145.4,156.7 145.6,156.6 145.8,150.9 146.0,151.6 146.1,153.8 146.3,147.6 146.5,145.7 146.7,153.1 146.9,147.2 147.1,136.3 147.3,132.9 147.5,132.2 147.7,133.8 147.9,125.6 148.1,126.1 148.3,124.8 148.5,122.2 148.7,121.4 148.9,126.7 149.1,132.6 149.3,116.5 149.5,114.5 149.7,111.0 149.9,107.7 150.1,100.3 150.3,99.3 150.5,99.3 150.7,102.8 150.9,100.7 151.1,97.9 151.3,91.5 151.5,96.2 151.7,96.4 151.9,93.4 152.1,97.9 152.2,94.5 152.4,105.2 152.6,104.4 152.8,98.2 153.0,97.3 153.2,90.1 153.4,92.5 153.6,95.9 153.8,92.6 154.0,95.6 154.2,92.5 154.4,94.6 154.6,98.7 154.8,95.1 155.0,85.5 155.2,81.9 155.4,80.6 155.6,77.9 155.8,69.6 156.0,70.8 156.2,61.9 156.4,61.1 156.6,64.7 156.8,76.0 157.0,78.2 157.2,84.6 157.4,77.4 157.6,74.5 157.8,85.6 158.0,81.0 158.2,75.2 158.4,71.8 158.5,71.6 158.7,74.2 158.9,80.7 159.1,86.5 159.3,88.1 159.5,86.6 159.7,99.8 159.9,102.1 160.1,105.4 160.3,107.3 160.5,94.7 160.7,100.1 160.9,104.1 161.1,105.2 161.3,102.3 161.5,104.8 161.7,115.5 161.9,111.5 162.1,116.9 162.3,117.5 162.5,121.1 162.7,108.0 162.9,114.4 163.1,111.9 163.3,109.6 163.5,102.1 163.7,103.1 163.9,97.9 164.1,94.3 164.3,96.3 164.5,101.9 164.7,111.3 164.8,106.1 165.0,113.1 165.2,115.1 165.4,108.9 165.6,103.8 165.8,100.2 166.0,96.2 166.2,96.5 166.4,94.9 166.6,89.5 166.8,91.7 167.0,92.4 167.2,91.4 167.4,88.2 167.6,84.8 167.8,83.9 168.0,79.6 168.2,78.6 168.4,74.5 168.6,72.2 168.8,76.7 169.0,86.0 169.2,91.7 169.4,90.8 169.6,104.2 169.8,122.8 170.0,112.7 170.2,114.0 170.4,110.3 170.6,128.0 170.8,127.0 171.0,132.7 171.1,135.5 171.3,136.2 171.5,112.3 171.7,117.3 171.9,123.8 172.1,121.2 172.3,125.8 172.5,121.6 172.7,115.9 172.9,123.0 173.1,126.4 173.3,136.3 173.5,144.2 173.7,142.6 173.9,136.8 174.1,138.5 174.3,136.2 174.5,130.9 174.7,139.1 174.9,141.6 175.1,139.2 175.3,141.7 175.5,150.4 175.7,150.4 175.9,156.4 176.1,161.3 176.3,162.7 176.5,168.7 176.7,176.6 176.9,171.0 177.1,166.9 177.3,166.7 177.4,176.5 177.6,175.8 177.8,174.6 178.0,182.8 178.2,173.4 178.4,179.7 178.6,186.8 178.8,185.0 179.0,179.3 179.2,171.3 179.4,171.7 179.6,181.2 179.8,179.3 180.0,178.6 180.2,189.8 180.4,188.3 180.6,192.4 180.8,197.5 181.0,202.1 181.2,199.6 181.4,197.2 181.6,189.8 181.8,171.2 182.0,171.6 182.2,176.6 182.4,174.5 182.6,162.9 182.8,161.3 183.0,164.6 183.2,173.1 183.4,169.2 183.6,173.2 183.7,172.4 183.9,175.7 184.1,169.6 184.3,170.8 184.5,171.2 184.7,173.0 184.9,181.8 185.1,178.3 185.3,181.4 185.5,181.2 185.7,187.0 185.9,186.7 186.1,181.5 186.3,186.0 186.5,183.7 186.7,182.8 186.9,183.4 187.1,187.4 187.3,189.4 187.5,190.3 187.7,206.0 187.9,207.5 188.1,211.2 188.3,213.8 188.5,213.8 188.7,217.3 188.9,211.0 189.1,221.9 189.3,216.4 189.5,220.6 189.7,218.0 189.9,212.9 190.0,213.1 190.2,221.4 190.4,223.1 190.6,229.2 190.8,229.9 191.0,228.1 191.2,229.4 191.4,221.0 191.6,221.1 191.8,213.8 192.0,216.0 192.2,217.1 192.4,216.4 192.6,223.5 192.8,228.3 193.0,229.3 193.2,222.8 193.4,218.3 193.6,219.3 193.8,219.9 194.0,214.2 194.2,215.9 194.4,215.1 194.6,218.5 194.8,218.8 195.0,222.8 195.2,220.3 195.4,223.7 195.6,226.0 195.8,224.1 196.0,224.0 196.1,231.3 196.3,236.2 196.5,236.9 196.7,237.7 196.9,238.2 197.1,237.2 197.3,243.4 197.5,242.1 197.7,230.9 197.9,235.7 198.1,238.4 198.3,237.6 198.5,240.2 198.7,239.9 198.9,238.8 199.1,236.4 199.3,240.7 199.5,242.6 199.7,245.3 199.9,245.2 200.1,248.6 200.3,250.5 200.5,249.8 200.7,250.0 200.9,254.7 201.1,254.5 201.3,263.0 201.5,266.3 201.7,268.5 201.9,257.8 202.1,245.9 202.3,254.3 202.4,252.8 202.6,247.7 202.8,248.2 203.0,255.3 203.2,257.4 203.4,263.0 203.6,264.1 203.8,268.3 204.0,262.1 204.2,265.5 204.4,267.6 204.6,273.1 204.8,272.4 205.0,268.6 205.2,270.3 205.4,273.1 205.6,273.7 205.8,276.9 206.0,285.4 206.2,280.8 206.4,283.7 206.6,280.7 206.8,282.9 207.0,282.8 207.2,283.2 207.4,279.1 207.6,282.0 207.8,280.1 208.0,271.2 208.2,273.8 208.4,272.9 208.6,269.6 208.7,267.1 208.9,266.2 209.1,273.6 209.3,266.4 209.5,269.7 209.7,270.0 209.9,274.4 210.1,274.6 210.3,274.5 210.5,272.6 210.7,276.3 210.9,275.2 211.1,275.6 211.3,270.7 211.5,268.7 211.7,267.6 211.9,263.0 212.1,266.2 212.3,262.9 212.5,265.9 212.7,270.5 212.9,269.9 213.1,269.3 213.3,269.4 213.5,266.8 213.7,266.9 213.9,269.0 214.1,273.7 214.3,275.3 214.5,276.1 214.7,276.2 214.9,276.7 215.0,278.0 215.2,278.6 215.4,274.9 215.6,272.0 215.8,272.6 216.0,275.6 216.2,274.1 216.4,274.6 216.6,276.3 216.8,271.8 217.0,272.7 217.2,269.7 217.4,268.3 217.6,267.6 217.8,268.2 218.0,267.1 218.2,267.6 218.4,267.6 218.6,264.8 218.8,261.4 219.0,261.8 219.2,257.0 219.4,255.2 219.6,254.9 219.8,254.7 220.0,256.5 220.2,252.0 220.4,248.1 220.6,251.2 220.8,257.0 221.0,257.5 221.2,256.2 221.3,253.4 221.5,259.8 221.7,258.6 221.9,262.3 222.1,263.6 222.3,263.5 222.5,265.2 222.7,256.7 222.9,255.5 223.1,256.4 223.3,260.5 223.5,258.9 223.7,260.0 223.9,260.1 224.1,260.3 224.3,257.7 224.5,254.0 224.7,254.4 224.9,252.4 225.1,252.8 225.3,250.0 225.5,249.4 225.7,251.5 225.9,246.2 226.1,245.9 226.3,246.5 226.5,245.4 226.7,244.0 226.9,242.1 227.1,241.2 227.3,240.8 227.5,246.4 227.6,244.4 227.8,241.1 228.0,237.7 228.2,237.4 228.4,237.9 228.6,238.0 228.8,239.8 229.0,237.1 229.2,239.3 229.4,242.8 229.6,243.0 229.8,244.1 230.0,246.4 230.2,246.5 230.4,241.4 230.6,241.4 230.8,236.9 231.0,236.6 231.2,235.2 231.4,234.6 231.6,231.9 231.8,234.0 232.0,231.6 232.2,230.2 232.4,232.5 232.6,232.3 232.8,231.5 233.0,229.8 233.2,231.8 233.4,235.5 233.6,235.6 233.7,235.1 233.9,237.3 234.1,234.0 234.3,227.8 234.5,228.1 234.7,222.2 234.9,221.3 235.1,221.8 235.3,220.4 235.5,219.3 235.7,218.0 235.9,218.8 236.1,221.7 236.3,217.7 236.5,218.7 236.7,216.6 236.9,213.2 237.1,211.0 237.3,210.7 237.5,210.0 237.7,209.6 237.9,209.7 238.1,209.3 238.3,205.3 238.5,206.2 238.7,201.8 238.9,198.9 239.1,196.8 239.3,194.0 239.5,196.7 239.7,197.9 239.9,195.4 240.0,196.6 240.2,199.9 240.4,194.0 240.6,192.2 240.8,190.6 241.0,189.7 241.2,186.2 241.4,189.0 241.6,184.7 241.8,182.2 242.0,180.1 242.2,175.6 242.4,176.6 242.6,186.0 242.8,179.6 243.0,174.9 243.2,173.5 243.4,175.3 243.6,178.8 243.8,183.4 244.0,187.8 244.2,189.2 244.4,189.1 244.6,198.1 244.8,195.3 245.0,199.3 245.2,209.1 245.4,208.4 245.6,216.2 245.8,208.8 246.0,206.7 246.2,206.4 246.3,214.0 246.5,211.5 246.7,213.0 246.9,218.6 247.1,230.1 247.3,226.9 247.5,223.6 247.7,215.7 247.9,215.7 248.1,214.8 248.3,211.4 248.5,211.1 248.7,212.9 248.9,207.6 249.1,205.8 249.3,205.8 249.5,208.9 249.7,205.7 249.9,211.9 250.1,211.8 250.3,216.0 250.5,218.1 250.7,216.1 250.9,216.4 251.1,220.8 251.3,219.9 251.5,218.1 251.7,210.1 251.9,211.6 252.1,208.7 252.3,207.7 252.5,206.8 252.6,206.9 252.8,202.7 253.0,200.5 253.2,200.7 253.4,202.2 253.6,198.8 253.8,198.4 254.0,203.4 254.2,204.0 254.4,208.2 254.6,206.2 254.8,199.9 255.0,198.2 255.2,197.2 255.4,196.7 255.6,196.4 255.8,195.9 256.0,195.2 256.2,196.4 256.4,197.0 256.6,195.5 256.8,189.9 257.0,189.9 257.2,190.1 257.4,190.0 257.6,191.7 257.8,190.8 258.0,195.4 258.2,192.8 258.4,200.4 258.6,205.1 258.8,199.7 258.9,198.1 259.1,196.5 259.3,197.6 259.5,190.9 259.7,190.8 259.9,194.0 260.1,197.9 260.3,196.7 260.5,196.7 260.7,193.5 260.9,195.9 261.1,196.7 261.3,199.9 261.5,202.6 261.7,203.7 261.9,207.1 262.1,206.6 262.3,202.2 262.5,204.1 262.7,201.1 262.9,199.4 263.1,194.6 263.3,193.4 263.5,196.7 263.7,194.5 263.9,196.7 264.1,200.3 264.3,200.3 264.5,199.5 264.7,197.2 264.9,205.2 265.1,203.6 265.2,203.2 265.4,203.7 265.6,202.6 265.8,207.9 266.0,206.4 266.2,206.4 266.4,208.0 266.6,211.2 266.8,214.6 267.0,215.4 267.2,215.9 267.4,218.5 267.6,217.9 267.8,213.1 268.0,214.4 268.2,217.7 268.4,218.1 268.6,217.0 268.8,214.5 269.0,214.2 269.2,212.8 269.4,213.9 269.6,216.9 269.8,215.3 270.0,212.8 270.2,213.3 270.4,210.6 270.6,211.1 270.8,210.3 271.0,214.1 271.2,213.8 271.3,212.6 271.5,211.5 271.7,212.2 271.9,211.6 272.1,213.5 272.3,216.2 272.5,214.8 272.7,211.5 272.9,212.3 273.1,210.9 273.3,210.8 273.5,212.7 273.7,212.5 273.9,215.0 274.1,212.2 274.3,207.2 274.5,206.9 274.7,208.3 274.9,206.7 275.1,206.5 275.3,206.6 275.5,207.6 275.7,210.3 275.9,208.9 276.1,210.9 276.3,207.5 276.5,206.9 276.7,207.2 276.9,209.7 277.1,218.3 277.3,218.9 277.5,216.6 277.6,220.3 277.8,221.3 278.0,222.6 278.2,225.4 278.4,225.8 278.6,226.3 278.8,224.0 279.0,226.0 279.2,225.6 279.4,232.6 279.6,234.3 279.8,232.4 280.0,235.2 280.2,232.6 280.4,229.9 280.6,231.4 280.8,237.9 281.0,234.9 281.2,235.7 281.4,238.1 281.6,236.7 281.8,232.2 282.0,235.9 282.2,235.9 282.4,233.7 282.6,234.5 282.8,237.6 283.0,238.9 283.2,239.2 283.4,240.0 283.6,240.0 283.8,242.8 283.9,243.4 284.1,238.9 284.3,241.1 284.5,240.7 284.7,240.7 284.9,241.9 285.1,237.0 285.3,237.2 285.5,238.6 285.7,237.8 285.9,238.2 286.1,238.1 286.3,243.8 286.5,245.0 286.7,245.9 286.9,244.9 287.1,246.2 287.3,244.1 287.5,244.0 287.7,243.6 287.9,240.7 288.1,239.9 288.3,241.9 288.5,241.1 288.7,243.2 288.9,243.4 289.1,240.3 289.3,237.9 289.5,237.9 289.7,236.2 289.9,235.3 290.1,235.2 290.2,236.0 290.4,232.0 290.6,231.7 290.8,232.2 291.0,229.8 291.2,232.9 291.4,232.4 291.6,234.5 291.8,232.3 292.0,232.2 292.2,235.7 292.4,235.6 292.6,237.2 292.8,236.0 293.0,233.0 293.2,232.3 293.4,232.9 293.6,231.4 293.8,233.4 294.0,233.8 294.2,234.0 294.4,236.9 294.6,237.2 294.8,237.0 295.0,235.2 295.2,236.5 295.4,237.0 295.6,235.7 295.8,236.2 296.0,232.5 296.2,233.0 296.4,234.1 296.5,236.8 296.7,237.1 296.9,236.5 297.1,236.5 297.3,238.7 297.5,240.9 297.7,241.1 297.9,240.7 298.1,240.6 298.3,239.4 298.5,240.7 298.7,240.2 298.9,237.0 299.1,231.4 299.3,226.1 299.5,224.3 299.7,221.9 299.9,219.8 300.1,213.5 300.3,214.5 300.5,211.4 300.7,211.5 300.9,214.2 301.1,215.0 301.3,210.2 301.5,212.3 301.7,215.8 301.9,215.7 302.1,218.0 302.3,214.2 302.5,215.0 302.7,215.4 302.8,213.4 303.0,211.7 303.2,211.1 303.4,213.5 303.6,215.9 303.8,213.8 304.0,222.6 304.2,223.2 304.4,230.1 304.6,231.5 304.8,229.8 305.0,229.6 305.2,231.1 305.4,234.1 305.6,231.1 305.8,229.0 306.0,230.6 306.2,231.0 306.4,233.2 306.6,233.1 306.8,232.0 307.0,231.5 307.2,229.6 307.4,228.8 307.6,230.6 307.8,232.1 308.0,230.4 308.2,226.5 308.4,226.9 308.6,227.9 308.8,229.3 309.0,229.6 309.1,232.0 309.3,228.3 309.5,230.4 309.7,230.7 309.9,231.0 310.1,233.6 310.3,235.2 310.5,235.2 310.7,236.1 310.9,233.8 311.1,230.9 311.3,232.0 311.5,233.0 311.7,231.6 311.9,233.5 312.1,231.9 312.3,230.8 312.5,231.0 312.7,233.2 312.9,237.9 313.1,237.3 313.3,235.2 313.5,239.3 313.7,237.4 313.9,238.4 314.1,238.2 314.3,237.1 314.5,235.7 314.7,236.0 314.9,234.7 315.1,234.1 315.2,236.1 315.4,233.8 315.6,233.8 315.8,228.6 316.0,228.8 316.2,228.4 316.4,228.6 316.6,229.8 316.8,228.6 317.0,232.5 317.2,232.5 317.4,232.0 317.6,231.7 317.8,230.8 318.0,229.8 318.2,229.3 318.4,228.5 318.6,226.2 318.8,223.3 319.0,223.5 319.2,223.6 319.4,226.9 319.6,228.8 319.8,228.5 320.0,231.0 320.2,228.7 320.4,230.6 320.6,229.7 320.8,229.7 321.0,228.2 321.2,226.3 321.4,227.5 321.5,225.1 321.7,224.8 321.9,225.3 322.1,224.9 322.3,226.2 322.5,223.1 322.7,219.8 322.9,219.9 323.1,218.9 323.3,219.7 323.5,220.7 323.7,217.8 323.9,218.8 324.1,217.9 324.3,217.9 324.5,221.4 324.7,222.0 324.9,220.8 325.1,221.3 325.3,223.2 325.5,223.6 325.7,224.1 325.9,223.7 326.1,224.1 326.3,224.1 326.5,228.5 326.7,228.9 326.9,229.7 327.1,229.8 327.3,228.3 327.5,228.9 327.7,231.0 327.8,229.3 328.0,231.1 328.2,229.9 328.4,228.6 328.6,229.1 328.8,228.7 329.0,232.9 329.2,232.8 329.4,234.4 329.6,234.0 329.8,233.8 330.0,233.7 330.2,231.7 330.4,232.3 330.6,235.1 330.8,234.0 331.0,233.5 331.2,233.6 331.4,235.7 331.6,235.3 331.8,235.8 332.0,234.0 332.2,234.9 332.4,236.6 332.6,237.5 332.8,238.1 333.0,237.0 333.2,237.0 333.4,234.7 333.6,231.5 333.8,231.7 334.0,231.7 334.1,234.1 334.3,231.7 334.5,231.9 334.7,228.1 334.9,228.7 335.1,229.7 335.3,230.3 335.5,229.6 335.7,230.0 335.9,233.0 336.1,230.9 336.3,230.3 336.5,230.0 336.7,230.5 336.9,231.6 337.1,231.9 337.3,233.5 337.5,233.2 337.7,237.1 337.9,236.8 338.1,236.6 338.3,237.8 338.5,237.0 338.7,236.9 338.9,238.1 339.1,238.2 339.3,238.2 339.5,241.1 339.7,245.3 339.9,244.8 340.1,243.9 340.3,242.1 340.4,242.5 340.6,239.5 340.8,240.6 341.0,241.1 341.2,243.4 341.4,244.5 341.6,245.7 341.8,243.4 342.0,244.4 342.2,239.3 342.4,239.6 342.6,242.3 342.8,242.7 343.0,242.0 343.2,242.1 343.4,243.5 343.6,245.7 343.8,246.3 344.0,244.1 344.2,244.8 344.4,244.9 344.6,246.2 344.8,246.0 345.0,246.5 345.2,246.2 345.4,248.4 345.6,247.9 345.8,244.4 346.0,248.2 346.2,249.2 346.4,252.9 346.6,251.2 346.7,252.4 346.9,252.7 347.1,253.0 347.3,254.2 347.5,254.0 347.7,249.2 347.9,248.9 348.1,248.8 348.3,247.8 348.5,251.6 348.7,251.5 348.9,254.1 349.1,253.8 349.3,250.1 349.5,248.3 349.7,247.4 349.9,246.9 350.1,244.2 350.3,245.6 350.5,245.2 350.7,242.8 350.9,243.6 351.1,242.5 351.3,244.3 351.5,244.1 351.7,243.2 351.9,246.2 352.1,246.3 352.3,243.9 352.5,244.6 352.7,248.2 352.8,248.7 353.0,250.7 353.2,250.7 353.4,250.7 353.6,251.9 353.8,251.9 354.0,252.9 354.2,252.4 354.4,251.1 354.6,254.9 354.8,251.2 355.0,251.9 355.2,252.5 355.4,252.9 355.6,251.9 355.8,252.0 356.0,252.6 356.2,253.5 356.4,255.9 356.6,256.6 356.8,259.4 357.0,257.4 357.2,257.8 357.4,257.7 357.6,259.2 357.8,259.0 358.0,258.1 358.2,259.3 358.4,260.0 358.6,259.9 358.8,259.8 359.0,258.3 359.1,259.7 359.3,259.6 359.5,258.9 359.7,254.9 359.9,251.7 360.1,252.4 360.3,251.9 360.5,253.2 360.7,254.9 360.9,249.0 361.1,251.1 361.3,248.3 361.5,246.4 361.7,248.7 361.9,249.0 362.1,251.1 362.3,247.6 362.5,247.0 362.7,247.3 362.9,249.8 363.1,246.1 363.3,246.5 363.5,246.5 363.7,247.3 363.9,248.0 364.1,246.9 364.3,247.8 364.5,247.4 364.7,247.1 364.9,246.5 365.1,245.4 365.3,245.1 365.4,243.0 365.6,242.8 365.8,242.0 366.0,243.4 366.2,243.5 366.4,242.0 366.6,242.8 366.8,245.3 367.0,246.7 367.2,245.3 367.4,244.3 367.6,245.4 367.8,244.1 368.0,246.5 368.2,247.6 368.4,246.7 368.6,246.6 368.8,248.4 369.0,248.1 369.2,247.8 369.4,249.0 369.6,248.6 369.8,248.6 370.0,251.4 370.2,252.9 370.4,251.8 370.6,249.9 370.8,249.7 371.0,250.7 371.2,249.8 371.4,249.9 371.6,247.2 371.7,246.8 371.9,247.4 372.1,248.9 372.3,246.0 372.5,246.1 372.7,244.1 372.9,245.1 373.1,244.6 373.3,244.0 373.5,243.6 373.7,243.4 373.9,240.4 374.1,240.4 374.3,239.8 374.5,240.4 374.7,240.7 374.9,242.9 375.1,243.0 375.3,243.9 375.5,244.9 375.7,245.2 375.9,247.0 376.1,244.9 376.3,246.8 376.5,246.2 376.7,244.2 376.9,244.9 377.1,245.7 377.3,246.9 377.5,244.9 377.7,243.1 377.9,244.0 378.0,244.6 378.2,244.3 378.4,247.6 378.6,247.6 378.8,247.2 379.0,247.6 379.2,248.9 379.4,247.5 379.6,248.3 379.8,246.4 380.0,247.1 380.2,245.9 380.4,245.8 380.6,246.4 380.8,246.2 381.0,248.3 381.2,250.8 381.4,250.3 381.6,250.8 381.8,251.5 382.0,249.9 382.2,250.1 382.4,249.7 382.6,249.7 382.8,250.7 383.0,249.5 383.2,252.5 383.4,252.6 383.6,252.2 383.8,251.6 384.0,251.3 384.2,253.0 384.3,252.4 384.5,252.7 384.7,252.0 384.9,253.0 385.1,255.1 385.3,254.9 385.5,255.2 385.7,255.3 385.9,254.8 386.1,255.1 386.3,254.6 386.5,253.9 386.7,254.4 386.9,254.0 387.1,253.1 387.3,253.1 387.5,252.6 387.7,251.8 387.9,252.3 388.1,254.5 388.3,254.8 388.5,256.4 388.7,256.6 388.9,256.6 389.1,257.5 389.3,257.2 389.5,257.9 389.7,257.3 389.9,257.9 390.1,260.2 390.3,259.3 390.4,260.4 390.6,260.3 390.8,260.3 391.0,260.0 391.2,260.8 391.4,261.7 391.6,260.7 391.8,255.2 392.0,255.3 392.2,256.3 392.4,256.2 392.6,257.0 392.8,255.9 393.0,258.0 393.2,259.3 393.4,259.3 393.6,261.2 393.8,260.8 394.0,260.4 394.2,260.4 394.4,261.3 394.6,258.2 394.8,255.9 395.0,257.2 395.2,254.9 395.4,255.2 395.6,255.7 395.8,255.7 396.0,256.1 396.2,256.0 396.4,255.7 396.6,254.0 396.7,254.1 396.9,253.7 397.1,254.9 397.3,255.2 397.5,256.0 397.7,258.3 397.9,259.2 398.1,258.9 398.3,257.9 398.5,255.7 398.7,255.1 398.9,255.3 399.1,255.7 399.3,255.7 399.5,257.6 399.7,257.8 399.9,257.1 400.1,258.7 400.3,258.3 400.5,259.7 400.7,260.7 400.9,260.9 401.1,261.4 401.3,260.0 401.5,260.3 401.7,259.5 401.9,259.9 402.1,260.5 402.3,261.4 402.5,261.8 402.7,261.2 402.9,262.0 403.0,260.9 403.2,257.1 403.4,257.1 403.6,254.5 403.8,253.3 404.0,253.8 404.2,252.8 404.4,254.2 404.6,247.7 404.8,246.9 405.0,246.5 405.2,246.6 405.4,246.0 405.6,246.9 405.8,246.1 406.0,242.7 406.2,242.2 406.4,243.2 406.6,241.1 406.8,238.1 407.0,237.2 407.2,236.5 407.4,238.2 407.6,238.6 407.8,238.5 408.0,240.9 408.2,235.8 408.4,235.2 408.6,236.9 408.8,238.3 409.0,236.0 409.2,235.3 409.3,235.2 409.5,234.6 409.7,235.1 409.9,235.9 410.1,231.0 410.3,229.1 410.5,228.7 410.7,228.3 410.9,223.7 411.1,223.2 411.3,222.9 411.5,222.0 411.7,223.9 411.9,224.7 412.1,226.5 412.3,229.0 412.5,229.3 412.7,235.2 412.9,236.2 413.1,235.6 413.3,237.5 413.5,235.9 413.7,230.9 413.9,231.5 414.1,239.1 414.3,233.8 414.5,232.4 414.7,234.8 414.9,234.7 415.1,236.3 415.3,238.2 415.5,239.6 415.6,239.3 415.8,238.8 416.0,241.3 416.2,240.0 416.4,234.5 416.6,234.6 416.8,234.5 417.0,234.6 417.2,237.7 417.4,237.3 417.6,243.0 417.8,243.0 418.0,243.4 418.2,243.2 418.4,243.0 418.6,244.4 418.8,243.1 419.0,243.0 419.2,243.1 419.4,244.0 419.6,244.9 419.8,244.4 420.0,245.0 420.2,244.7 420.4,240.2 420.6,240.5 420.8,244.9 421.0,242.9 421.2,243.9 421.4,244.8 421.6,244.8 421.8,242.5 421.9,241.2 422.1,240.9 422.3,240.5 422.5,241.5 422.7,240.7 422.9,241.4 423.1,243.3 423.3,243.2 423.5,240.7 423.7,239.0 423.9,237.6 424.1,238.3 424.3,237.9 424.5,240.5 424.7,240.0 424.9,240.3 425.1,236.9 425.3,237.6 425.5,238.0 425.7,239.2 425.9,238.9 426.1,240.2 426.3,241.2 426.5,242.6 426.7,244.4 426.9,247.7 427.1,247.6 427.3,248.8 427.5,247.9 427.7,249.0 427.9,253.1 428.1,253.3 428.2,261.1 428.4,260.7 428.6,262.3 428.8,261.9 429.0,258.5 429.2,258.9 429.4,259.4 429.6,260.4 429.8,259.5 430.0,258.9 430.2,261.1 430.4,261.4 430.6,258.2 430.8,250.8 431.0,254.6 431.2,253.4 431.4,253.4 431.6,255.0 431.8,257.5 432.0,260.4 432.2,260.2 432.4,257.0 432.6,258.5 432.8,258.6 433.0,259.3 433.2,262.1 433.4,260.8 433.6,260.7 433.8,257.9 434.0,258.0 434.2,256.8 434.3,256.6 434.5,257.2 434.7,257.4 434.9,256.7 435.1,252.4 435.3,251.8 435.5,252.4 435.7,253.6 435.9,253.6 436.1,252.8 436.3,253.6 436.5,254.1 436.7,254.5 436.9,255.7 437.1,253.0 437.3,253.1 437.5,253.5 437.7,253.9 437.9,253.7 438.1,253.4 438.3,251.9 438.5,251.8 438.7,252.2 438.9,250.9 439.1,244.2 439.3,242.2 439.5,242.0 439.7,239.7 439.9,241.4 440.1,242.4 440.3,245.4 440.5,245.2 440.6,244.4 440.8,247.3 441.0,248.3 441.2,250.4 441.4,249.9 441.6,249.8 441.8,248.3 442.0,247.9 442.2,250.0 442.4,247.7 442.6,248.3 442.8,248.9 443.0,250.4 443.2,251.0 443.4,250.1 443.6,248.5 443.8,250.0 444.0,250.1 444.2,251.5 444.4,252.4 444.6,252.2 444.8,250.6 445.0,249.0 445.2,250.7 445.4,249.6 445.6,250.1 445.8,250.5 446.0,251.9 446.2,252.3 446.4,254.1 446.6,253.9 446.8,252.4 446.9,255.4 447.1,255.4 447.3,253.0 447.5,247.2 447.7,248.7 447.9,248.4 448.1,249.7 448.3,250.0 448.5,250.7 448.7,251.0 448.9,249.7 449.1,248.4 449.3,248.7 449.5,247.2 449.7,247.1 449.9,245.6 450.1,246.1 450.3,247.5 450.5,247.9 450.7,247.7 450.9,250.0 451.1,250.8 451.3,251.0 451.5,252.8 451.7,253.4 451.9,253.1 452.1,254.5 452.3,257.3 452.5,257.4 452.7,257.6 452.9,257.2 453.1,258.6 453.2,256.9 453.4,257.0 453.6,255.2 453.8,256.2 454.0,258.0 454.2,259.7 454.4,259.8 454.6,259.7 454.8,260.5 455.0,260.9 455.2,261.4 455.4,261.1 455.6,261.7 455.8,261.4 456.0,262.8 456.2,263.4 456.4,262.7 456.6,259.7 456.8,260.7 457.0,260.7 457.2,262.4 457.4,261.8 457.6,261.3 457.8,262.6 458.0,262.8 458.2,260.6 458.4,258.6 458.6,259.0 458.8,258.6 459.0,258.4 459.2,258.0 459.4,260.2 459.5,258.5 459.7,259.3 459.9,260.6 460.1,263.2 460.3,265.3 460.5,265.3 460.7,264.4 460.9,263.7 461.1,263.9 461.3,263.8 461.5,265.0 461.7,264.1 461.9,264.4 462.1,267.7 462.3,267.6 462.5,267.3 462.7,265.7 462.9,266.7 463.1,265.7 463.3,266.4 463.5,266.9 463.7,267.7 463.9,263.5 464.1,262.5 464.3,263.4 464.5,263.5 464.7,263.4 464.9,262.9 465.1,263.4 465.3,263.1 465.5,261.6 465.7,262.6 465.8,261.6 466.0,258.2 466.2,258.6 466.4,255.5 466.6,256.0 466.8,256.7 467.0,259.0 467.2,259.0 467.4,259.4 467.6,259.5 467.8,261.5 468.0,260.3 468.2,260.3 468.4,260.0 468.6,260.7 468.8,262.0 469.0,261.2 469.2,261.3 469.4,262.0 469.6,262.1 469.8,262.8 470.0,262.5 470.2,262.5 470.4,260.5 470.6,261.0 470.8,260.8 471.0,261.9 471.2,262.1 471.4,264.0 471.6,264.1 471.8,263.1 471.9,263.3 472.1,262.2 472.3,262.1 472.5,262.4 472.7,261.6 472.9,262.1 473.1,262.5 473.3,262.8 473.5,263.4 473.7,262.1 473.9,263.1 474.1,262.8 474.3,261.4 474.5,261.9 474.7,262.1 474.9,260.7 475.1,259.4 475.3,260.6 475.5,261.0 475.7,262.4 475.9,261.8 476.1,262.2 476.3,261.5 476.5,262.1 476.7,261.4 476.9,261.8 477.1,260.9 477.3,261.2 477.5,260.6 477.7,260.3 477.9,260.0 478.1,259.9 478.2,260.0 478.4,261.3 478.6,261.4 478.8,260.8 479.0,259.9 479.2,259.7 479.4,259.8 479.6,260.1 479.8,259.4 480.0,259.5 480.2,258.1 480.4,257.2 480.6,254.5 480.8,253.3 481.0,249.4 481.2,249.1 481.4,249.7 481.6,247.9 481.8,249.2 482.0,246.5 482.2,247.5 482.4,248.5 482.6,250.4 482.8,250.2 483.0,248.4 483.2,249.4 483.4,249.0 483.6,250.2 483.8,249.0 484.0,248.9 484.2,249.2 484.4,249.6 484.5,250.8 484.7,250.3 484.9,251.5 485.1,251.7 485.3,251.8 485.5,252.1 485.7,251.2 485.9,251.0 486.1,249.2 486.3,247.8 486.5,246.9 486.7,245.4 486.9,246.5 487.1,247.6 487.3,247.9 487.5,247.2 487.7,247.7 487.9,249.7 488.1,249.3 488.3,249.0 488.5,248.0 488.7,250.9 488.9,249.9 489.1,247.5 489.3,248.3 489.5,248.3 489.7,247.8 489.9,247.9 490.1,247.1 490.3,247.1 490.5,248.1 490.7,249.0 490.8,249.7 491.0,248.4 491.2,248.8 491.4,249.1 491.6,248.8 491.8,249.5 492.0,249.7 492.2,250.5 492.4,250.8 492.6,252.7 492.8,250.8 493.0,249.0 493.2,248.2 493.4,244.9 493.6,245.7 493.8,246.1 494.0,246.5 494.2,246.7 494.4,246.3 494.6,242.7 494.8,240.9 495.0,239.4 495.2,239.5 495.4,239.6 495.6,241.4 495.8,243.4 496.0,244.1 496.2,243.8 496.4,240.5 496.6,237.4 496.8,236.2 497.0,233.0 497.1,230.2 497.3,225.4 497.5,224.9 497.7,216.6 497.9,215.9 498.1,204.3 498.3,203.0 498.5,193.8 498.7,205.1 498.9,199.6 499.1,204.1 499.3,204.1 499.5,204.0 499.7,196.3 499.9,190.4 500.1,191.8 500.3,189.5 500.5,186.6 500.7,190.6 500.9,198.3 501.1,191.4 501.3,182.8 501.5,182.3 501.7,179.7 501.9,175.0 502.1,169.5 502.3,171.8 502.5,172.2 502.7,177.7 502.9,177.2 503.1,179.1 503.3,180.2 503.4,179.5 503.6,172.3 503.8,170.9 504.0,191.4 504.2,190.0 504.4,178.8 504.6,179.2 504.8,177.2 505.0,177.6 505.2,180.8 505.4,183.6 505.6,186.9 505.8,189.6 506.0,194.9 506.2,189.6 506.4,192.2 506.6,193.6 506.8,195.5 507.0,192.4 507.2,189.4 507.4,188.5 507.6,188.2 507.8,187.7 508.0,187.4 508.2,186.1 508.4,189.3 508.6,183.0 508.8,184.0 509.0,183.7 509.2,189.7 509.4,189.9 509.6,192.2 509.7,191.7 509.9,187.2 510.1,190.2 510.3,189.0 510.5,183.2 510.7,182.6 510.9,178.3 511.1,175.7 511.3,170.3 511.5,172.2 511.7,168.4 511.9,165.2 512.1,168.2 512.3,170.9 512.5,167.8 512.7,167.4 512.9,160.1 513.1,162.8 513.3,159.2 513.5,160.2 513.7,157.6 513.9,152.2 514.1,147.7 514.3,149.4 514.5,144.8 514.7,140.4 514.9,139.8 515.1,138.8 515.3,128.3 515.5,125.1 515.7,131.6 515.8,128.6 516.0,120.7 516.2,123.0 516.4,126.2 516.6,119.6 516.8,121.7 517.0,122.4 517.2,124.1 517.4,123.1 517.6,132.1 517.8,133.1 518.0,136.1 518.2,135.3 518.4,131.0 518.6,129.6 518.8,133.1 519.0,133.9 519.2,139.3 519.4,144.0 519.6,134.5 519.8,134.5 520.0,131.5 520.2,124.1 520.4,115.9 520.6,114.5 520.8,117.2 521.0,133.5 521.2,134.5 521.4,124.1 521.6,123.3 521.8,124.7 522.0,119.3 522.1,119.7 522.3,106.1 522.5,111.3 522.7,114.5 522.9,116.1 523.1,115.1 523.3,122.7 523.5,128.1 523.7,125.9 523.9,136.4 524.1,149.7 524.3,141.6 524.5,138.3 524.7,146.1 524.9,164.4 525.1,166.5 525.3,151.4 525.5,161.1 525.7,164.6 525.9,172.9 526.1,160.0 526.3,156.2 526.5,170.9 526.7,156.1 526.9,147.2 527.1,150.5 527.3,158.5 527.5,159.4 527.7,160.1 527.9,155.2 528.1,157.2 528.3,157.9 528.4,160.4 528.6,155.9 528.8,159.8 529.0,179.5 529.2,180.3 529.4,176.4 529.6,181.5 529.8,182.1 530.0,180.8 530.2,175.9 530.4,179.8 530.6,181.4 530.8,178.7 531.0,169.9 531.2,172.0 531.4,174.0 531.6,173.1 531.8,173.1 532.0,175.3 532.2,186.2 532.4,184.8 532.6,190.0 532.8,196.9 533.0,214.7 533.2,227.4 533.4,222.7 533.6,209.8 533.8,205.2 534.0,202.0 534.2,200.5 534.4,199.9 534.6,207.4 534.7,204.5 534.9,202.0 535.1,202.2 535.3,203.3 535.5,200.9 535.7,205.3 535.9,199.3 536.1,202.8 536.3,202.8 536.5,201.8 536.7,199.8 536.9,204.2 537.1,203.7 537.3,205.0 537.5,204.8 537.7,208.4 537.9,206.9 538.1,203.0 538.3,201.0 538.5,195.8 538.7,196.5 538.9,198.1 539.1,194.5 539.3,193.1 539.5,193.2 539.7,191.6 539.9,193.2 540.1,192.2 540.3,190.9 540.5,190.9 540.7,191.0 540.9,194.2 541.0,193.9 541.2,194.0 541.4,196.2 541.6,197.0 541.8,188.1 542.0,183.4 542.2,179.2 542.4,176.6 542.6,177.4 542.8,178.7 543.0,181.4 543.2,183.4 543.4,183.1 543.6,183.0 543.8,184.0 544.0,181.4 544.2,182.3 544.4,183.0 544.6,183.4 544.8,182.7 545.0,183.3 545.2,193.4 545.4,192.5 545.6,191.7 545.8,182.1 546.0,182.2 546.2,187.1 546.4,187.7 546.6,189.7 546.8,189.4 547.0,190.5 547.2,191.4 547.3,185.8 547.5,188.3 547.7,189.1 547.9,186.9 548.1,185.2 548.3,179.2 548.5,179.9 548.7,179.2 548.9,180.8 549.1,180.1 549.3,186.0 549.5,184.4 549.7,185.0 549.9,185.7 550.1,196.6 550.3,195.9 550.5,193.5 550.7,204.5 550.9,201.2 551.1,208.6 551.3,208.2 551.5,209.7 551.7,208.2 551.9,213.0 552.1,213.0 552.3,208.2 552.5,211.3 552.7,215.1 552.9,213.1 553.1,213.3 553.3,221.8 553.4,221.8 553.6,225.1 553.8,220.4 554.0,223.0 554.2,220.4 554.4,222.1 554.6,220.2 554.8,221.0 555.0,222.5 555.2,218.4 555.4,217.4 555.6,217.6 555.8,217.9 556.0,214.2 556.2,216.1 556.4,215.4 556.6,223.4 556.8,221.9 557.0,223.4 557.2,220.7 557.4,214.6 557.6,214.3 557.8,208.9 558.0,209.7 558.2,209.4 558.4,210.0 558.6,213.8 558.8,213.2 559.0,212.4 559.2,210.7 559.4,207.8 559.6,208.1 559.7,207.4 559.9,203.4 560.1,205.1 560.3,205.0 560.5,207.4 560.7,207.0 560.9,209.0 561.1,210.3 561.3,206.0 561.5,206.2 561.7,205.5 561.9,204.7 562.1,205.5 562.3,207.5 562.5,208.7 562.7,207.1 562.9,207.3 563.1,205.2 563.3,204.8 563.5,204.4 563.7,206.3 563.9,205.8 564.1,206.8 564.3,206.9 564.5,206.2 564.7,207.0 564.9,206.5 565.1,207.1 565.3,207.3 565.5,207.8 565.7,205.9 565.9,206.4 566.0,206.6 566.2,210.3 566.4,212.9 566.6,213.0 566.8,212.4 567.0,211.9 567.2,212.2 567.4,212.1 567.6,212.4 567.8,212.3 568.0,212.8 568.2,211.9 568.4,211.8 568.6,213.0 568.8,212.6 569.0,212.6 569.2,212.3 569.4,211.4 569.6,205.8 569.8,207.3 570.0,207.4 570.2,206.3 570.4,207.4 570.6,207.2 570.8,207.5 571.0,211.5 571.2,210.5 571.4,209.8 571.6,210.4 571.8,209.8 572.0,209.5 572.2,209.7 572.3,208.7 572.5,209.3 572.7,211.4 572.9,209.7 573.1,209.2 573.3,207.8 573.5,207.7 573.7,207.3 573.9,204.5 574.1,203.9 574.3,204.0 574.5,203.5 574.7,204.5 574.9,203.6 575.1,200.1 575.3,199.9 575.5,200.1 575.7,199.9 575.9,200.5 576.1,201.4 576.3,202.0 576.5,201.1 576.7,202.7 576.9,202.6 577.1,200.6 577.3,201.5 577.5,201.8 577.7,202.6 577.9,203.4 578.1,203.4 578.3,203.6 578.5,203.8 578.6,203.1 578.8,202.4 579.0,201.0 579.2,201.4 579.4,200.9 579.6,197.0 579.8,192.0 580.0,194.4 580.2,194.8 580.4,195.6 580.6,194.7 580.8,195.9 581.0,195.6 581.2,196.4 581.4,197.2 581.6,197.4 581.8,197.6 582.0,196.7 582.2,196.1 582.4,197.3 582.6,196.5 582.8,196.4 583.0,195.9 583.2,195.6 583.4,195.6 583.6,196.4 583.8,198.7 584.0,199.3 584.2,200.4 584.4,199.3 584.6,199.6 584.8,199.3 584.9,198.4 585.1,198.8 585.3,201.0 585.5,200.4 585.7,201.2 585.9,200.3 586.1,200.0 586.3,197.8 586.5,197.6 586.7,198.2 586.9,198.2 587.1,197.5 587.3,198.7 587.5,196.2 587.7,196.5 587.9,196.4 588.1,195.2 588.3,193.0 588.5,193.3 588.7,193.9 588.9,194.5 589.1,194.3 589.3,194.5 589.5,193.6 589.7,194.8 589.9,192.7 590.1,193.0 590.3,192.4 590.5,191.8 590.7,193.2 590.9,191.4 591.0,189.8 591.2,189.0 591.4,189.7 591.6,190.0 591.8,189.4 592.0,189.8 592.2,187.7 592.4,186.3 592.6,185.8 592.8,184.9 593.0,182.9 593.2,182.2 593.4,179.1 593.6,181.3 593.8,180.1 594.0,181.5 594.2,184.9 594.4,185.4 594.6,184.8 594.8,184.4 595.0,181.7 595.2,183.9 595.4,185.1 595.6,186.0 595.8,190.2 596.0,190.8 596.2,191.4 596.4,192.4 596.6,191.0 596.8,191.5 597.0,192.5 597.2,191.0 597.3,191.7 597.5,192.6 597.7,192.6 597.9,191.9 598.1,190.3 598.3,188.9 598.5,189.0 598.7,189.7 598.9,189.3 599.1,189.8 599.3,190.6 599.5,191.1 599.7,190.0 599.9,187.7 600.1,188.5 600.3,187.3 600.5,188.1 600.7,186.9 600.9,186.9 601.1,186.5 601.3,186.2 601.5,185.5 601.7,187.5 601.9,187.4 602.1,188.0 602.3,186.9 602.5,186.5 602.7,185.5 602.9,184.6 603.1,185.2 603.3,185.3 603.5,185.0 603.6,185.9 603.8,183.2 604.0,183.4 604.2,183.1 604.4,183.8 604.6,184.0 604.8,185.5 605.0,185.4 605.2,185.4 605.4,186.6 605.6,187.4 605.8,186.9 606.0,186.5 606.2,186.4 606.4,187.4 606.6,188.0 606.8,186.4 607.0,186.8 607.2,186.5 607.4,185.3 607.6,187.4 607.8,187.0 608.0,186.6 608.2,187.9 608.4,187.3 608.6,185.7 608.8,186.0 609.0,186.5 609.2,186.7 609.4,187.4 609.6,186.3 609.8,184.2 609.9,184.1 610.1,184.1 610.3,184.7 610.5,184.6 610.7,184.8 610.9,185.5 611.1,186.8 611.3,186.6 611.5,187.8 611.7,189.0 611.9,188.3 612.1,187.6 612.3,187.9 612.5,187.5 612.7,187.7 612.9,187.3 613.1,187.6 613.3,188.3 613.5,188.9 613.7,189.2 613.9,189.8 614.1,189.4 614.3,189.7 614.5,189.1 614.7,188.1 614.9,185.2 615.1,184.8 615.3,184.5 615.5,186.2 615.7,186.8 615.9,186.4 616.1,184.9 616.2,182.6 616.4,182.8 616.6,177.2 616.8,177.5 617.0,176.7 617.2,175.5 617.4,177.2 617.6,179.4 617.8,178.2 618.0,176.4 618.2,174.6 618.4,173.4 618.6,173.6 618.8,173.8 619.0,176.2 619.2,177.5 619.4,177.9 619.6,175.0 619.8,176.1 620.0,174.0 620.2,172.8 620.4,171.3 620.6,170.3 620.8,169.6 621.0,170.9 621.2,169.5 621.4,170.1 621.6,171.3 621.8,173.1 622.0,169.7 622.2,169.4 622.4,169.8 622.5,168.7 622.7,166.3 622.9,166.9 623.1,163.6 623.3,161.4 623.5,161.2 623.7,162.0 623.9,158.5 624.1,157.9 624.3,160.2 624.5,158.6 624.7,160.0 624.9,160.5 625.1,160.5 625.3,160.2 625.5,160.1 625.7,156.7 625.9,156.4 626.1,159.5 626.3,161.0 626.5,160.3 626.7,160.1 626.9,161.5 627.1,162.2 627.3,165.6 627.5,163.9 627.7,162.6 627.9,163.4 628.1,162.5 628.3,161.5 628.5,161.6 628.7,159.5 628.8,158.0 629.0,158.8 629.2,154.0 629.4,151.6 629.6,151.5 629.8,152.7 630.0,153.3 630.2,153.8 630.4,153.5 630.6,152.0 630.8,153.5 631.0,155.2 631.2,155.6 631.4,156.2 631.6,155.0 631.8,155.5 632.0,156.9 632.2,156.9 632.4,156.3 632.6,157.1 632.8,157.2 633.0,156.4 633.2,156.3 633.4,156.3 633.6,156.1 633.8,157.8 634.0,157.4 634.2,156.6 634.4,154.6 634.6,155.0 634.8,153.7 634.9,152.8 635.1,153.0 635.3,152.1 635.5,152.3 635.7,150.4 635.9,150.1 636.1,151.4 636.3,151.3 636.5,150.1 636.7,150.4 636.9,148.4 637.1,144.8 637.3,145.7 637.5,146.5 637.7,147.2 637.9,146.8 638.1,146.5 638.3,147.1 638.5,144.6 638.7,144.7 638.9,143.7 639.1,141.1 639.3,140.3 639.5,141.5 639.7,142.5 639.9,140.0 640.1,135.3 640.3,134.8 640.5,130.8 640.7,129.1 640.9,135.2 641.1,135.3 641.2,137.2 641.4,138.6 641.6,139.0 641.8,141.7 642.0,143.3 642.2,141.7 642.4,137.6 642.6,140.6 642.8,142.8 643.0,141.1 643.2,138.4 643.4,142.7 643.6,140.7 643.8,142.3 644.0,145.1 644.2,144.1 644.4,140.7 644.6,140.2 644.8,138.8 645.0,140.0 645.2,140.2 645.4,138.8 645.6,143.6 645.8,141.9 646.0,141.7 646.2,137.7 646.4,137.2 646.6,136.6 646.8,135.5 647.0,134.6 647.2,132.4 647.4,130.5 647.5,130.8 647.7,128.5 647.9,126.5 648.1,124.8 648.3,124.2 648.5,121.4 648.7,120.7 648.9,119.4 649.1,115.9 649.3,115.9 649.5,117.7 649.7,116.0 649.9,120.7 650.1,123.9 650.3,120.7 650.5,119.0 650.7,118.1 650.9,115.2 651.1,121.0 651.3,128.2 651.5,135.0 651.7,146.2 651.9,146.4 652.1,142.5 652.3,141.0 652.5,136.2 652.7,133.7 652.9,132.9 653.1,136.6 653.3,140.6 653.5,139.5 653.7,141.8 653.8,141.9 654.0,139.2 654.2,140.6 654.4,138.8 654.6,137.9 654.8,137.8 655.0,140.4 655.2,141.3 655.4,139.0 655.6,141.4 655.8,138.9 656.0,138.6 656.2,139.5 656.4,141.7 656.6,148.0 656.8,151.8 657.0,151.4 657.2,155.6 657.4,151.8 657.6,153.6 657.8,154.5 658.0,155.2 658.2,155.1 658.4,153.7 658.6,148.4 658.8,148.4 659.0,151.1 659.2,153.2 659.4,158.3 659.6,160.7 659.8,159.3 660.0,156.6 660.1,159.8 660.3,158.0 660.5,153.1 660.7,155.2 660.9,158.3 661.1,159.3 661.3,159.0 661.5,158.4 661.7,160.0 661.9,156.7 662.1,153.5 662.3,153.7 662.5,152.7 662.7,153.3 662.9,151.0 663.1,151.3 663.3,154.2 663.5,155.5 663.7,151.9 663.9,151.7 664.1,153.2 664.3,156.9 664.5,158.3 664.7,158.4 664.9,157.2 665.1,158.3 665.3,162.8 665.5,158.6 665.7,159.3 665.9,155.8 666.1,155.0 666.3,155.8 666.4,155.1 666.6,158.6 666.8,157.7 667.0,155.6 667.2,156.9 667.4,156.6 667.6,156.4 667.8,161.8 668.0,162.0 668.2,163.4 668.4,163.0 668.6,167.0 668.8,169.4 669.0,173.8 669.2,175.9 669.4,171.4 669.6,179.1 669.8,178.4 670.0,180.0 670.2,180.0 670.4,177.2 670.6,171.3 670.8,171.6 671.0,174.8 671.2,170.6 671.4,170.3 671.6,171.8 671.8,173.1 672.0,174.0 672.2,173.1 672.4,167.7 672.5,165.4 672.7,162.0 672.9,162.1 673.1,164.8 673.3,164.8 673.5,163.9 673.7,163.2 673.9,168.0 674.1,172.4 674.3,174.5 674.5,174.7 674.7,168.5 674.9,171.5 675.1,166.9 675.3,166.9 675.5,168.9 675.7,169.6 675.9,174.8 676.1,174.9 676.3,177.6 676.5,174.5 676.7,171.3 676.9,171.0 677.1,170.3 677.3,169.1 677.5,165.2 677.7,166.1 677.9,166.7 678.1,168.3 678.3,169.3 678.5,170.0 678.7,166.9 678.8,172.1 679.0,173.8 679.2,171.7 679.4,173.8 679.6,175.2 679.8,176.6 680.0,173.8 680.2,173.1 680.4,175.0 680.6,169.9 680.8,167.9 681.0,167.6 681.2,160.2 681.4,162.8 681.6,159.7 681.8,160.5 682.0,157.9 682.2,168.3 682.4,167.3 682.6,167.3 682.8,176.0 683.0,171.5 683.2,174.0 683.4,173.7 683.6,172.9 683.8,177.7 684.0,171.7 684.2,162.9 684.4,170.1 684.6,169.0 684.8,168.4 685.0,169.7 685.1,176.6 685.3,174.0 685.5,171.3 685.7,170.4 685.9,163.3 686.1,166.2 686.3,167.2 686.5,168.7 686.7,168.0 686.9,172.6 687.1,171.8 687.3,170.3 687.5,173.1 687.7,170.6 687.9,170.4 688.1,167.7 688.3,171.1 688.5,171.2 688.7,172.4 688.9,175.8 689.1,175.1 689.3,176.0 689.5,173.8 689.7,174.9 689.9,173.1 690.1,168.3 690.3,167.7 690.5,168.6 690.7,172.4 690.9,173.1 691.1,174.5 691.3,174.1 691.4,173.7 691.6,170.8 691.8,173.3 692.0,173.6 692.2,175.9 692.4,178.1 692.6,181.0 692.8,183.4 693.0,183.3 693.2,184.2 693.4,185.7 693.6,185.7 693.8,184.8 694.0,184.8 694.2,187.4 694.4,186.9 694.6,182.8 694.8,183.0 695.0,183.6 695.2,181.5 695.4,181.3 695.6,179.7 695.8,181.5 696.0,177.8 696.2,177.4 696.4,178.1 696.6,174.5 696.8,173.2 697.0,175.6 697.2,175.9 697.4,175.0 697.6,172.4 697.7,172.7 697.9,171.2 698.1,172.1 698.3,169.0 698.5,167.6 698.7,165.5 698.9,164.8 699.1,160.9 699.3,161.3 699.5,166.0 699.7,160.9 699.9,161.3 700.1,160.4 700.3,161.4 700.5,157.0 700.7,140.5 700.9,147.8 701.1,147.1 701.3,147.1 701.5,141.6 701.7,140.5 701.9,140.7 702.1,140.1 702.3,144.1 702.5,152.3 702.7,151.0 702.9,150.1 703.1,149.7 703.3,149.3 703.5,146.8 703.7,140.7 703.9,142.6 704.0,142.3 704.2,143.1 704.4,143.7 704.6,150.0 704.8,150.8 705.0,148.3 705.2,148.6 705.4,140.2 705.6,135.6 705.8,135.8 706.0,133.3 706.2,130.2 706.4,129.8 706.6,129.3 706.8,128.1 707.0,132.4 707.2,132.9 707.4,132.9 707.6,124.4 707.8,125.3 708.0,126.2 708.2,123.0 708.4,128.6 708.6,128.2 708.8,128.6 709.0,132.4 709.2,135.1 709.4,131.7 709.6,131.0 709.8,142.8 710.0,142.6 710.1,146.3 710.3,151.3 710.5,143.7 710.7,148.1 710.9,149.5 711.1,144.7 711.3,144.0 711.5,148.3 711.7,150.3 711.9,148.3 712.1,149.4 712.3,152.1 712.5,150.9 712.7,149.0 712.9,147.4 713.1,146.2 713.3,147.0 713.5,147.8 713.7,146.8 713.9,148.3 714.1,148.6 714.3,149.8 714.5,146.9 714.7,140.6 714.9,141.6 715.1,142.1 715.3,142.6 715.5,141.9 715.7,140.9 715.9,137.1 716.1,128.9 716.3,129.0 716.4,128.5 716.6,131.8 716.8,132.1 717.0,128.8 717.2,129.0 717.4,129.0 717.6,123.4 717.8,123.7 718.0,126.2 718.2,127.0 718.4,126.2 718.6,131.4 718.8,132.3 719.0,132.4 719.2,131.6 719.4,129.8 719.6,129.9 719.8,131.3 720.0,132.1 720.2,133.0 720.4,130.1 720.6,131.6 720.8,131.5 721.0,129.0 721.2,126.9 721.4,126.6 721.6,126.9 721.8,126.1 722.0,128.4 722.2,130.5 722.4,134.3 722.6,138.8 722.7,141.4 722.9,142.5 723.1,139.2 723.3,140.1 723.5,136.0 723.7,138.5 723.9,137.7 724.1,136.9 724.3,135.9 724.5,131.1 724.7,131.7 724.9,131.8 725.1,131.5 725.3,128.2 725.5,132.3 725.7,130.6 725.9,132.4 726.1,133.3 726.3,132.1 726.5,130.1 726.7,130.2 726.9,127.3 727.1,124.7 727.3,122.0 727.5,122.4 727.7,123.3 727.9,124.5 728.1,121.1 728.3,122.2 728.5,126.2 728.7,124.8 728.9,124.5 729.0,124.0 729.2,126.7 729.4,126.2 729.6,126.9 729.8,126.9 730.0,126.9 730.2,129.7 730.4,127.7 730.6,127.5 730.8,126.2 731.0,122.4 731.2,120.0 731.4,119.9 731.6,120.7 731.8,120.1 732.0,123.9 732.2,123.7 732.4,123.4 732.6,125.0 732.8,124.4 733.0,123.9 733.2,122.8 733.4,123.7 733.6,125.1 733.8,124.8 734.0,120.7 734.2,119.3 734.4,117.9 734.6,118.5 734.8,118.5 735.0,120.0 735.2,124.0 735.3,123.6 735.5,123.8 735.7,124.0 735.9,124.8 736.1,122.8 736.3,121.2 736.5,124.0 736.7,125.5 736.9,127.8 737.1,125.5 737.3,125.6 737.5,126.1 737.7,126.9 737.9,130.3 738.1,129.7 738.3,128.9 738.5,129.4 738.7,127.8 738.9,126.4 739.1,126.9 739.3,126.7 739.5,125.5 739.7,126.3 739.9,121.0 740.1,121.5 740.3,118.8 740.5,119.5 740.7,120.1 740.9,120.6 741.1,122.8 741.3,122.0 741.5,122.7 741.6,120.8 741.8,120.2 742.0,116.6 742.2,116.0 742.4,114.1 742.6,115.2 742.8,116.7 743.0,115.7 743.2,118.2 743.4,116.1 743.6,115.8 743.8,114.2 744.0,114.5 744.2,117.1 744.4,117.9 744.6,117.4 744.8,116.0 745.0,120.4 745.2,120.5 745.4,127.4 745.6,145.9 745.8,139.3 746.0,137.9 746.2,134.4 746.4,134.5 746.6,134.6 746.8,132.0 747.0,130.9 747.2,132.1 747.4,130.8 747.6,126.2 747.8,128.3 747.9,128.3 748.1,123.8 748.3,124.5 748.5,127.5 748.7,129.6 748.9,130.0 749.1,129.7 749.3,136.8 749.5,129.6 749.7,128.9 749.9,126.2 750.1,120.7 750.3,125.1 750.5,132.8 750.7,128.5 750.9,131.7 751.1,134.9 751.3,138.3 751.5,147.6 751.7,148.6 751.9,153.4 752.1,158.0 752.3,153.0 752.5,159.0 752.7,152.7 752.9,147.6 753.1,148.4 753.3,147.1 753.5,148.2 753.7,148.6 753.9,149.0 754.0,146.0 754.2,146.9 754.4,142.8 754.6,143.9 754.8,143.2 755.0,143.3 755.2,144.2 755.4,140.4 755.6,142.1 755.8,142.0 756.0,138.6 756.2,137.7 756.4,140.4 756.6,138.8 756.8,139.1 757.0,140.9 757.2,138.8 757.4,137.2 757.6,135.5 757.8,133.6 758.0,133.9 758.2,134.3 758.4,132.6 758.6,132.6 758.8,132.9 759.0,132.9 759.2,135.3 759.4,137.0 759.6,135.2 759.8,133.6 760.0,133.8 760.2,134.7 760.3,140.7 760.5,139.7 760.7,137.8 760.9,138.6 761.1,137.9 761.3,137.8 761.5,132.5 761.7,131.2 761.9,130.8 762.1,131.3 762.3,130.2 762.5,129.0 762.7,127.6 762.9,128.8 763.1,131.3 763.3,130.3 763.5,134.0 763.7,131.4 763.9,131.0 764.1,129.9 764.3,127.2 764.5,127.5 764.7,126.9 764.9,124.5 765.1,126.3 765.3,124.7 765.5,118.6 765.7,112.2 765.9,105.1 766.1,81.1 766.3,86.8 766.5,83.0 766.6,82.0 766.8,89.3 767.0,85.6 767.2,88.7 767.4,91.2 767.6,103.4 767.8,101.5 768.0,92.9 768.2,93.0 768.4,92.6 768.6,92.9 768.8,104.0 769.0,103.0 769.2,101.4 769.4,96.2 769.6,97.4 769.8,95.9 770.0,93.1 770.2,90.4 770.4,92.4 770.6,92.3 770.8,94.8 771.0,92.7 771.2,94.9 771.4,95.8 771.6,96.6 771.8,91.8 772.0,85.5 772.2,85.9 772.4,91.1 772.6,94.5 772.8,92.4 772.9,91.6 773.1,90.4 773.3,93.5 773.5,91.9 773.7,84.9 773.9,87.4 774.1,86.6 774.3,87.4 774.5,88.1 774.7,90.7 774.9,95.4 775.1,92.4 775.3,96.7 775.5,95.9 775.7,94.4 775.9,92.0 776.1,89.7 776.3,91.6 776.5,94.3 776.7,86.5 776.9,90.2 777.1,93.6 777.3,93.3 777.5,97.9 777.7,97.0 777.9,95.3 778.1,95.9 778.3,97.1 778.5,92.4 778.7,83.4 778.9,83.8 779.1,84.9 779.2,84.8 779.4,84.2 779.6,86.2 779.8,86.0 780.0,84.1 780.2,85.3 780.4,86.3 780.6,90.9 780.8,91.6 781.0,90.0 781.2,88.4 781.4,93.0 781.6,94.0 781.8,90.8 782.0,88.7 782.2,85.5 782.4,86.3 782.6,81.2 782.8,81.4 783.0,81.5 783.2,83.0 783.4,88.0 783.6,84.5 783.8,84.4 784.0,84.0 784.2,81.9 784.4,81.4 784.6,76.7 784.8,79.1 785.0,81.2 785.2,78.7 785.4,73.7 785.5,76.5 785.7,69.2 785.9,70.3 786.1,70.9 786.3,70.4 786.5,73.2 786.7,74.3 786.9,76.7 787.1,77.9 787.3,80.3 787.5,77.5 787.7,77.2 787.9,75.7 788.1,71.0 788.3,73.8 788.5,73.1 788.7,77.2 788.9,74.9 789.1,75.4 789.3,73.4 789.5,72.5 789.7,73.1 789.9,68.7 790.1,62.6 790.3,62.8 790.5,59.4 790.7,54.6 790.9,48.0 791.1,49.8 791.3,51.3 791.5,39.8 791.6,42.9 791.8,48.1 792.0,47.8 792.2,45.1 792.4,48.5 792.6,48.3 792.8,44.8 793.0,45.5 793.2,40.5 793.4,48.3 793.6,47.7 793.8,54.2 794.0,56.6 794.2,54.2 794.4,52.4 794.6,51.4 794.8,49.4 795.0,45.4 795.2,41.8 795.4,36.3 795.6,30.0 795.8,30.4 796.0,31.2 796.2,42.0 796.4,40.8 796.6,49.3 796.8,44.6 797.0,53.2 797.2,50.6 797.4,56.3 797.6,47.9 797.8,57.1 797.9,58.8 798.1,68.9 798.3,73.8 798.5,72.2 798.7,64.3 798.9,64.1 799.1,69.1 799.3,67.1 799.5,67.6 799.7,66.3 799.9,74.5 800.1,72.2 800.3,73.8 800.5,78.1 800.7,78.3 800.9,73.0 801.1,72.4 801.3,68.9 801.5,71.8 801.7,68.3 801.9,65.5 802.1,67.5 802.3,70.5 802.5,69.1 802.7,73.7 802.9,76.9 803.1,78.5 803.3,77.9 803.5,81.1 803.7,79.9 803.9,74.2 804.1,74.8 804.2,74.3 804.4,75.8 804.6,73.0 804.8,77.8 805.0,77.1 805.2,77.0 805.4,73.1 805.6,75.7 805.8,79.0 806.0,82.8 806.2,82.8 806.4,80.3 806.6,79.2 806.8,82.1 807.0,74.3 807.2,71.6 807.4,71.7 807.6,73.8 807.8,72.8 808.0,76.3 808.2,75.1 808.4,62.5 808.6,61.4 808.8,60.6 809.0,61.1 809.2,62.1 809.4,62.1 809.6,64.4 809.8,66.9 810.0,65.5 810.2,66.2 810.4,67.9 810.5,67.1 810.7,65.5 810.9,68.0 811.1,72.3 811.3,75.3 811.5,75.9 811.7,78.0 811.9,79.8 812.1,77.2 812.3,76.8 812.5,75.2 812.7,70.6 812.9,71.8 813.1,74.4 813.3,72.9 813.5,70.0 813.7,80.8 813.9,81.1 814.1,80.1 814.3,79.2 814.5,83.2 814.7,84.3 814.9,81.9 815.1,81.0 815.3,85.5 815.5,79.3 815.7,82.5 815.9,81.4 816.1,82.1 816.3,81.0 816.5,80.7 816.7,83.8 816.8,94.9 817.0,103.8 817.2,101.4 817.4,99.0 817.6,103.2 817.8,96.4 818.0,95.3 818.2,94.5 818.4,95.0 818.6,97.2 818.8,94.2 819.0,89.5 819.2,91.8 819.4,94.7 819.6,95.3 819.8,94.6 820.0,101.5 820.2,97.9 820.4,101.9 820.6,108.0 820.8,105.5 821.0,101.4 821.2,100.3 821.4,106.2 821.6,103.5 821.8,104.4 822.0,105.4 822.2,99.4 822.4,99.7 822.6,99.0 822.8,95.9 823.0,92.8 823.1,95.8 823.3,96.6 823.5,92.1 823.7,93.1 823.9,97.6 824.1,101.3 824.3,102.8 824.5,100.1 824.7,103.6 824.9,103.1 825.1,101.3 825.3,95.9 825.5,95.9 825.7,95.9 825.9,97.3 826.1,91.8 826.3,90.3 826.5,91.8 826.7,89.0 826.9,90.9 827.1,88.6 827.3,94.2 827.5,92.2 827.7,92.0 827.9,90.2 828.1,86.9 828.3,87.1 828.5,88.9 828.7,92.5 828.9,92.6 829.1,91.0 829.3,92.4 829.4,95.7 829.6,98.4 829.8,96.1 830.0,96.3 830.2,97.3 830.4,97.9 830.6,99.5 830.8,93.6 831.0,94.6 831.2,94.5 831.4,94.5 831.6,96.2 831.8,99.1 832.0,95.7 832.2,95.9 832.4,94.7 832.6,93.8 832.8,95.3 833.0,98.0 833.2,98.0 833.4,99.6 833.6,98.6 833.8,97.5 834.0,95.2 834.2,94.3 834.4,92.0 834.6,87.6 834.8,83.2 835.0,83.4 835.2,83.0 835.4,84.5 835.5,87.4 835.7,86.4 835.9,90.8 836.1,92.7 836.3,91.4 836.5,92.6 836.7,89.9 836.9,90.1 837.1,90.5 837.3,89.0 837.5,94.3 837.7,92.4 837.9,91.6 838.1,92.4 838.3,92.9 838.5,97.1 838.7,95.9 838.9,95.1 839.1,96.8 839.3,94.7 839.5,99.4 839.7,103.4 839.9,102.5 840.1,99.2 840.3,99.2 840.5,95.2 840.7,95.9 840.9,96.9 841.1,102.7 841.3,101.4 841.5,104.6 841.7,110.8 841.8,105.6 842.0,105.4 842.2,103.4 842.4,102.8 842.6,103.2 842.8,106.2 843.0,105.2 843.2,103.8 843.4,103.5 843.6,101.4 843.8,102.6 844.0,106.9 844.2,105.2 844.4,110.2 844.6,109.0 844.8,108.6 845.0,104.8 845.2,106.2 845.4,107.1 845.6,109.9 845.8,117.9 846.0,121.4 846.2,123.8 846.4,121.5 846.6,120.7 846.8,128.6 847.0,141.3 847.2,130.5 847.4,126.4 847.6,123.4 847.8,124.9 848.0,124.2 848.1,122.8 848.3,124.1 848.5,128.1 848.7,128.3 848.9,129.4 849.1,122.8 849.3,124.3 849.5,120.7 849.7,121.7 849.9,124.1 850.1,121.9 850.3,128.6 850.5,124.8 850.7,125.6 850.9,121.7 851.1,121.4 851.3,125.2 851.5,127.6 851.7,130.0 851.9,133.1 852.1,131.8 852.3,143.4 852.5,143.3 852.7,138.9 852.9,135.9 853.1,132.0 853.3,133.1 853.5,139.9 853.7,142.1 853.9,140.0 854.1,138.2 854.3,140.0 854.4,137.6 854.6,140.0 854.8,136.9 855.0,137.7 855.2,137.9 855.4,132.0 855.6,134.6 855.8,138.4 856.0,137.9 856.2,137.9 856.4,136.3 856.6,135.1 856.8,132.1 857.0,133.0 857.2,133.4 857.4,130.5 857.6,128.9 857.8,125.9 858.0,126.8 858.2,123.9 858.4,128.3 858.6,124.9 858.8,121.5 859.0,123.9 859.2,120.1 859.4,120.7 859.6,120.1 859.8,122.8 860.0,119.3 860.2,115.9 860.4,112.5 860.6,110.2 860.7,112.4 860.9,107.9 861.1,108.9 861.3,108.4 861.5,108.4 861.7,113.0 861.9,113.8 862.1,113.4 862.3,117.3 862.5,118.8 862.7,119.6 862.9,121.4 863.1,125.1 863.3,121.7 863.5,122.8 863.7,122.0 863.9,124.9 864.1,123.8 864.3,124.6 864.5,123.4 864.7,125.5 864.9,125.6 865.1,129.0 865.3,129.8 865.5,134.0 865.7,135.8 865.9,133.4 866.1,130.1 866.3,131.4 866.5,131.3 866.7,134.2 866.9,129.1 867.0,128.3 867.2,129.7 867.4,130.8 867.6,129.4 867.8,131.7 868.0,132.1 868.2,132.0 868.4,133.7 868.6,136.1 868.8,132.0 869.0,131.9 869.2,133.8 869.4,134.2 869.6,131.3 869.8,133.6 870.0,135.6"/>
</svg>
