<svg xmlns="http://www.w3.org/2000/svg" width="900" height="360">
<rect width="100%" height="100%" fill="white"/>
<text x="45" y="20" font-size="16">上证50指数 价格</text>
<line class="axis-x" x1="45" y1="315" x2="855" y2="315" stroke="black" stroke-width="1"/>
<line class="axis-y" x1="45" y1="45" x2="45" y2="315" stroke="black" stroke-width="1"/>
<text x="450.0" y="355" font-size="12" text-anchor="middle">样本点</text>
<text x="14" y="180.0" font-size="12" text-anchor="middle" transform="rotate(-90 14 180.0)">价格</text>
<line x1="45.0" y1="315" x2="45.0" y2="320" stroke="black" stroke-width="1"/>
<text x="45.0" y="333" font-size="10" text-anchor="middle">1</text>
<line x1="450.0" y1="315" x2="450.0" y2="320" stroke="black" stroke-width="1"/>
<text x="450.0" y="333" font-size="10" text-anchor="middle">2270</text>
<line x1="855.0" y1="315" x2="855.0" y2="320" stroke="black" stroke-width="1"/>
<text x="855.0" y="333" font-size="10" text-anchor="middle">4539</text>
<line x1="40" y1="315.0" x2="45" y2="315.0" stroke="black" stroke-width="1"/>
<text x="37" y="318.0" font-size="10" text-anchor="end">700.43</text>
<line x1="40" y1="180.0" x2="45" y2="180.0" stroke="black" stroke-width="1"/>
<text x="37" y="183.0" font-size="10" text-anchor="end">2716.13</text>
<line x1="40" y1="45.0" x2="45" y2="45.0" stroke="black" stroke-width="1"/>
<text x="37" y="48.0" font-size="10" text-anchor="end">4731.83</text>
<polyline fill="none" stroke="#1f77b4" stroke-width="2" points="45.0,294.9 45.2,294.2 45.4,290.9 45.5,289.9 45.7,289.2 45.9,288.1 46.1,289.5 46.2,287.1 46.4,288.1 46.6,289.6 46.8,290.0 47.0,289.3 47.1,288.2 47.3,290.4 47.5,288.8 47.7,288.0 47.9,286.3 48.0,286.4 48.2,286.8 48.4,285.9 48.6,286.8 48.7,287.6 48.9,288.6 49.1,288.5 49.3,286.6 49.5,286.7 49.6,286.3 49.8,286.7 50.0,286.6 50.2,288.7 50.4,288.7 50.5,290.2 50.7,289.6 50.9,289.0 51.1,288.6 51.2,288.7 51.4,290.1 51.6,289.7 51.8,290.1 52.0,291.1 52.1,290.8 52.3,288.8 52.5,288.5 52.7,288.3 52.9,286.1 53.0,285.9 53.2,285.9 53.4,287.4 53.6,286.2 53.7,285.9 53.9,286.8 54.1,287.2 54.3,287.2 54.5,287.4 54.6,288.1 54.8,288.2 55.0,287.7 55.2,286.7 55.4,286.4 55.5,287.0 55.7,286.6 55.9,287.1 56.1,287.4 56.2,289.0 56.4,289.6 56.6,290.1 56.8,290.5 57.0,291.2 57.1,290.2 57.3,291.3 57.5,291.4 57.7,292.0 57.9,291.5 58.0,292.6 58.2,292.3 58.4,292.8 58.6,292.9 58.7,293.8 58.9,293.2 59.1,295.2 59.3,294.7 59.5,293.3 59.6,293.5 59.8,295.1 60.0,296.2 60.2,295.7 60.4,295.7 60.5,295.9 60.7,295.3 60.9,295.5 61.1,296.4 61.2,295.9 61.4,294.7 61.6,295.2 61.8,294.9 62.0,294.0 62.1,294.8 62.3,295.8 62.5,295.9 62.7,296.7 62.8,298.0 63.0,298.9 63.2,298.7 63.4,298.8 63.6,300.0 63.7,298.8 63.9,298.5 64.1,299.9 64.3,301.0 64.5,301.0 64.6,300.4 64.8,300.8 65.0,301.2 65.2,302.2 65.3,302.7 65.5,301.6 65.7,301.8 65.9,300.0 66.1,299.9 66.2,299.7 66.4,299.5 66.6,300.0 66.8,299.8 67.0,300.1 67.1,301.3 67.3,301.2 67.5,300.8 67.7,299.9 67.8,298.5 68.0,298.5 68.2,299.0 68.4,298.9 68.6,300.8 68.7,300.6 68.9,301.4 69.1,301.4 69.3,301.2 69.5,300.4 69.6,301.2 69.8,301.6 70.0,302.1 70.2,300.1 70.3,301.0 70.5,300.9 70.7,300.2 70.9,299.9 71.1,300.7 71.2,301.1 71.4,301.2 71.6,301.4 71.8,300.9 72.0,300.8 72.1,301.4 72.3,301.3 72.5,302.3 72.7,301.8 72.8,302.0 73.0,302.2 73.2,302.7 73.4,302.8 73.6,301.9 73.7,302.9 73.9,302.9 74.1,303.0 74.3,303.3 74.5,303.1 74.6,304.0 74.8,305.1 75.0,304.9 75.2,306.0 75.3,304.3 75.5,302.1 75.7,301.4 75.9,299.5 76.1,297.3 76.2,298.0 76.4,299.4 76.6,297.1 76.8,298.2 77.0,298.5 77.1,298.4 77.3,299.2 77.5,300.0 77.7,299.2 77.8,300.1 78.0,301.5 78.2,301.5 78.4,303.2 78.6,303.0 78.7,302.8 78.9,302.6 79.1,303.0 79.3,304.0 79.4,303.1 79.6,303.9 79.8,303.3 80.0,302.6 80.2,302.8 80.3,303.6 80.5,304.1 80.7,304.2 80.9,303.1 81.1,304.3 81.2,304.2 81.4,304.0 81.6,304.0 81.8,301.8 81.9,302.0 82.1,301.8 82.3,301.2 82.5,301.2 82.7,301.9 82.8,301.6 83.0,301.2 83.2,301.2 83.4,302.1 83.6,302.4 83.7,302.3 83.9,302.4 84.1,303.0 84.3,303.0 84.4,303.3 84.6,303.6 84.8,303.5 85.0,303.3 85.2,303.8 85.3,303.7 85.5,303.1 85.7,303.7 85.9,303.9 86.1,304.2 86.2,303.8 86.4,303.8 86.6,304.5 86.8,305.3 86.9,305.3 87.1,304.0 87.3,304.9 87.5,304.9 87.7,305.1 87.8,305.1 88.0,305.4 88.2,305.4 88.4,305.5 88.6,306.5 88.7,306.2 88.9,306.8 89.1,306.7 89.3,306.1 89.4,305.8 89.6,305.8 89.8,306.0 90.0,306.4 90.2,307.6 90.3,307.2 90.5,307.6 90.7,308.0 90.9,306.2 91.1,305.5 91.2,305.5 91.4,306.0 91.6,306.9 91.8,306.9 91.9,307.4 92.1,307.1 92.3,304.3 92.5,305.1 92.7,303.5 92.8,303.3 93.0,303.6 93.2,304.6 93.4,303.4 93.6,302.5 93.7,303.1 93.9,303.2 94.1,303.1 94.3,303.7 94.4,303.9 94.6,304.6 94.8,304.2 95.0,304.3 95.2,304.1 95.3,303.2 95.5,303.7 95.7,304.9 95.9,304.7 96.0,304.5 96.2,305.6 96.4,306.1 96.6,306.5 96.8,306.9 96.9,306.8 97.1,307.8 97.3,308.2 97.5,307.8 97.7,307.9 97.8,308.0 98.0,308.1 98.2,309.0 98.4,308.6 98.5,306.8 98.7,307.8 98.9,308.2 99.1,307.2 99.3,306.7 99.4,305.8 99.6,306.3 99.8,307.1 100.0,305.9 100.2,306.6 100.3,307.2 100.5,307.9 100.7,307.7 100.9,308.4 101.0,308.8 101.2,308.7 101.4,309.0 101.6,308.8 101.8,309.5 101.9,308.7 102.1,309.0 102.3,310.0 102.5,309.7 102.7,310.2 102.8,311.4 103.0,311.2 103.2,311.8 103.4,311.6 103.5,311.5 103.7,311.4 103.9,311.5 104.1,312.5 104.3,312.5 104.4,312.5 104.6,313.1 104.8,313.4 105.0,313.1 105.2,313.0 105.3,313.8 105.5,314.9 105.7,315.0 105.9,313.9 106.0,314.1 106.2,310.2 106.4,309.8 106.6,310.6 106.8,311.0 106.9,311.4 107.1,312.0 107.3,311.2 107.5,310.9 107.7,309.7 107.8,310.3 108.0,310.1 108.2,310.5 108.4,310.2 108.5,309.5 108.7,310.0 108.9,310.2 109.1,311.1 109.3,311.8 109.4,311.9 109.6,312.3 109.8,312.7 110.0,312.6 110.1,313.2 110.3,313.2 110.5,311.5 110.7,311.8 110.9,311.4 111.0,311.8 111.2,311.9 111.4,311.8 111.6,311.4 111.8,311.2 111.9,310.4 112.1,310.7 112.3,309.6 112.5,308.8 112.6,309.0 112.8,309.1 113.0,309.0 113.2,308.5 113.4,308.5 113.5,308.7 113.7,307.5 113.9,307.5 114.1,307.4 114.3,306.8 114.4,306.2 114.6,306.8 114.8,305.7 115.0,306.4 115.1,306.1 115.3,307.4 115.5,307.1 115.7,306.8 115.9,307.1 116.0,306.6 116.2,306.8 116.4,306.8 116.6,307.6 116.8,307.7 116.9,307.2 117.1,306.5 117.3,306.4 117.5,306.4 117.6,307.3 117.8,306.6 118.0,306.5 118.2,306.7 118.4,306.9 118.5,306.3 118.7,306.1 118.9,306.1 119.1,306.3 119.3,306.2 119.4,306.5 119.6,307.6 119.8,308.5 120.0,308.8 120.1,308.8 120.3,309.5 120.5,309.5 120.7,308.9 120.9,308.8 121.0,309.2 121.2,308.6 121.4,308.6 121.6,309.1 121.8,309.8 121.9,310.4 122.1,310.2 122.3,310.4 122.5,310.1 122.6,310.1 122.8,310.3 123.0,310.7 123.2,311.7 123.4,311.6 123.5,311.7 123.7,311.1 123.9,311.2 124.1,310.8 124.3,311.3 124.4,311.1 124.6,311.4 124.8,311.1 125.0,311.3 125.1,311.9 125.3,311.9 125.5,312.1 125.7,312.4 125.9,312.1 126.0,312.1 126.2,311.0 126.4,311.1 126.6,311.9 126.7,311.4 126.9,310.9 127.1,310.6 127.3,310.8 127.5,311.3 127.6,311.0 127.8,311.1 128.0,311.2 128.2,311.6 128.4,311.0 128.5,310.5 128.7,310.6 128.9,309.9 129.1,310.0 129.2,310.1 129.4,309.8 129.6,309.8 129.8,309.5 130.0,309.6 130.1,309.2 130.3,309.4 130.5,309.2 130.7,308.9 130.9,308.6 131.0,308.9 131.2,308.8 131.4,308.2 131.6,308.6 131.7,307.5 131.9,306.5 132.1,305.9 132.3,305.8 132.5,305.7 132.6,306.2 132.8,305.9 133.0,306.2 133.2,307.3 133.4,307.1 133.5,306.0 133.7,305.6 133.9,305.6 134.1,305.6 134.2,305.8 134.4,305.2 134.6,304.2 134.8,304.5 135.0,304.1 135.1,304.9 135.3,304.3 135.5,304.3 135.7,304.1 135.9,303.8 136.0,304.6 136.2,304.4 136.4,304.4 136.6,303.5 136.7,303.6 136.9,303.1 137.1,302.8 137.3,302.5 137.5,302.1 137.6,301.9 137.8,303.2 138.0,302.9 138.2,303.0 138.4,304.2 138.5,304.4 138.7,304.8 138.9,304.5 139.1,304.1 139.2,304.3 139.4,303.8 139.6,303.9 139.8,304.1 140.0,303.3 140.1,303.3 140.3,303.3 140.5,303.3 140.7,303.7 140.9,303.5 141.0,303.3 141.2,302.6 141.4,303.1 141.6,303.1 141.7,302.2 141.9,301.6 142.1,301.2 142.3,301.5 142.5,301.8 142.6,301.0 142.8,300.8 143.0,301.0 143.2,302.2 143.3,300.9 143.5,300.2 143.7,299.8 143.9,299.6 144.1,300.2 144.2,299.0 144.4,298.9 144.6,299.5 144.8,298.4 145.0,298.7 145.1,297.3 145.3,295.2 145.5,293.8 145.7,293.4 145.8,294.1 146.0,291.5 146.2,289.2 146.4,289.6 146.6,289.5 146.7,290.4 146.9,288.5 147.1,288.5 147.3,291.0 147.5,291.2 147.6,291.5 147.8,290.6 148.0,288.9 148.2,288.8 148.3,289.7 148.5,287.8 148.7,288.4 148.9,288.0 149.1,288.2 149.2,291.8 149.4,291.1 149.6,292.8 149.8,292.6 150.0,292.8 150.1,293.5 150.3,293.5 150.5,291.8 150.7,291.1 150.8,290.9 151.0,291.2 151.2,291.1 151.4,290.8 151.6,289.4 151.7,289.5 151.9,289.5 152.1,287.9 152.3,288.1 152.5,286.5 152.6,287.2 152.8,288.7 153.0,287.6 153.2,288.3 153.3,288.3 153.5,288.1 153.7,288.2 153.9,291.5 154.1,291.0 154.2,290.4 154.4,290.6 154.6,292.2 154.8,291.8 155.0,291.1 155.1,291.0 155.3,290.4 155.5,290.3 155.7,290.9 155.8,291.5 156.0,293.6 156.2,294.2 156.4,294.4 156.6,294.4 156.7,295.6 156.9,296.4 157.1,295.3 157.3,295.4 157.5,294.2 157.6,294.2 157.8,295.4 158.0,294.4 158.2,293.7 158.3,294.3 158.5,294.4 158.7,294.4 158.9,293.7 159.1,293.5 159.2,293.0 159.4,293.0 159.6,291.7 159.8,291.6 159.9,291.7 160.1,291.7 160.3,292.7 160.5,291.8 160.7,291.4 160.8,291.2 161.0,291.9 161.2,291.5 161.4,291.1 161.6,290.5 161.7,290.3 161.9,290.2 162.1,288.6 162.3,288.5 162.4,288.1 162.6,288.3 162.8,287.8 163.0,288.6 163.2,288.8 163.3,289.8 163.5,289.0 163.7,288.1 163.9,287.2 164.1,284.8 164.2,284.7 164.4,284.7 164.6,285.1 164.8,284.9 164.9,285.9 165.1,286.5 165.3,285.1 165.5,285.0 165.7,284.7 165.8,286.0 166.0,284.3 166.2,283.8 166.4,283.0 166.6,283.9 166.7,283.2 166.9,282.0 167.1,280.8 167.3,281.0 167.4,280.3 167.6,278.5 167.8,277.6 168.0,278.8 168.2,277.0 168.3,277.4 168.5,278.5 168.7,277.4 168.9,275.3 169.1,274.9 169.2,273.4 169.4,270.7 169.6,269.7 169.8,269.3 169.9,268.4 170.1,269.1 170.3,269.4 170.5,270.3 170.7,269.3 170.8,266.5 171.0,266.1 171.2,262.4 171.4,261.4 171.6,261.6 171.7,260.9 171.9,264.5 172.1,259.8 172.3,258.4 172.4,258.5 172.6,256.5 172.8,254.9 173.0,252.3 173.2,251.9 173.3,251.8 173.5,253.4 173.7,253.8 173.9,250.4 174.1,249.8 174.2,246.3 174.4,245.6 174.6,241.0 174.8,238.9 174.9,240.3 175.1,237.6 175.3,232.5 175.5,230.4 175.7,232.8 175.8,236.3 176.0,230.4 176.2,228.5 176.4,230.9 176.5,232.2 176.7,228.3 176.9,222.9 177.1,220.9 177.3,218.2 177.4,221.4 177.6,216.9 177.8,213.1 178.0,214.8 178.2,224.4 178.3,224.5 178.5,231.0 178.7,234.3 178.9,231.0 179.0,227.9 179.2,226.4 179.4,227.7 179.6,222.4 179.8,220.7 179.9,216.3 180.1,212.2 180.3,212.4 180.5,211.7 180.7,225.9 180.8,221.5 181.0,225.3 181.2,223.3 181.4,226.6 181.5,222.8 181.7,219.3 181.9,217.9 182.1,218.3 182.3,218.6 182.4,217.9 182.6,221.2 182.8,218.7 183.0,220.8 183.2,216.2 183.3,216.2 183.5,215.0 183.7,214.0 183.9,214.6 184.0,212.6 184.2,212.1 184.4,209.3 184.6,207.8 184.8,208.7 184.9,205.0 185.1,203.7 185.3,203.0 185.5,201.7 185.7,201.8 185.8,198.3 186.0,196.2 186.2,193.9 186.4,192.1 186.5,193.3 186.7,188.8 186.9,189.3 187.1,190.6 187.3,197.7 187.4,191.3 187.6,184.3 187.8,183.8 188.0,182.5 188.2,180.9 188.3,182.3 188.5,177.2 188.7,172.3 188.9,170.3 189.0,168.6 189.2,169.8 189.4,168.7 189.6,176.3 189.8,172.5 189.9,169.5 190.1,170.7 190.3,170.0 190.5,168.8 190.7,166.3 190.8,167.2 191.0,164.8 191.2,161.1 191.4,157.6 191.5,170.6 191.7,165.0 191.9,167.2 192.1,181.4 192.3,175.8 192.4,175.6 192.6,170.6 192.8,170.6 193.0,166.5 193.1,162.1 193.3,157.9 193.5,160.3 193.7,158.6 193.9,152.0 194.0,152.1 194.2,157.0 194.4,153.6 194.6,158.5 194.8,164.9 194.9,163.2 195.1,157.1 195.3,163.0 195.5,166.6 195.6,167.0 195.8,164.0 196.0,169.2 196.2,178.0 196.4,170.3 196.5,165.1 196.7,165.2 196.9,165.2 197.1,163.0 197.3,163.0 197.4,169.1 197.6,163.9 197.8,162.4 198.0,162.8 198.1,154.1 198.3,145.9 198.5,145.8 198.7,140.6 198.9,139.9 199.0,141.3 199.2,136.9 199.4,134.7 199.6,142.1 199.8,136.7 199.9,126.2 200.1,121.1 200.3,120.0 200.5,121.1 200.6,113.8 200.8,113.6 201.0,111.4 201.2,108.3 201.4,107.5 201.5,114.2 201.7,120.4 201.9,105.3 202.1,100.5 202.3,97.4 202.4,93.1 202.6,87.0 202.8,85.0 203.0,84.1 203.1,88.7 203.3,86.6 203.5,84.0 203.7,77.9 203.9,82.8 204.0,84.1 204.2,80.3 204.4,86.5 204.6,82.4 204.8,94.5 204.9,91.6 205.1,84.4 205.3,82.9 205.5,78.1 205.6,80.3 205.8,83.2 206.0,79.1 206.2,80.8 206.4,78.5 206.5,81.1 206.7,84.6 206.9,81.3 207.1,73.4 207.2,67.1 207.4,65.5 207.6,64.1 207.8,55.3 208.0,55.3 208.1,47.5 208.3,45.0 208.5,48.2 208.7,59.9 208.9,60.9 209.0,67.9 209.2,62.2 209.4,57.1 209.6,69.6 209.7,65.2 209.9,58.7 210.1,54.3 210.3,52.0 210.5,53.3 210.6,57.6 210.8,66.5 211.0,70.9 211.2,68.3 211.4,83.6 211.5,84.7 211.7,86.8 211.9,89.2 212.1,77.5 212.2,80.5 212.4,85.1 212.6,88.2 212.8,84.9 213.0,89.7 213.1,101.0 213.3,96.6 213.5,100.0 213.7,105.4 213.9,108.5 214.0,95.6 214.2,102.0 214.4,100.0 214.6,96.5 214.7,89.3 214.9,89.3 215.1,85.8 215.3,82.9 215.5,83.3 215.6,88.4 215.8,97.4 216.0,93.4 216.2,102.3 216.4,104.1 216.5,97.2 216.7,91.3 216.9,88.6 217.1,82.5 217.2,83.2 217.4,82.3 217.6,76.7 217.8,78.8 218.0,79.3 218.1,78.6 218.3,75.1 218.5,71.9 218.7,70.0 218.9,66.8 219.0,65.1 219.2,61.8 219.4,60.6 219.6,64.5 219.7,75.7 219.9,82.0 220.1,80.9 220.3,95.6 220.5,115.5 220.6,105.9 220.8,106.2 221.0,102.3 221.2,121.0 221.4,120.0 221.5,124.7 221.7,127.6 221.9,127.5 222.1,107.7 222.2,109.7 222.4,116.8 222.6,113.6 222.8,117.7 223.0,113.5 223.1,108.3 223.3,115.7 223.5,119.4 223.7,129.8 223.8,138.8 224.0,136.6 224.2,130.2 224.4,131.8 224.6,129.5 224.7,124.9 224.9,132.5 225.1,135.5 225.3,131.1 225.5,134.5 225.6,143.8 225.8,143.3 226.0,150.0 226.2,153.5 226.3,155.3 226.5,162.1 226.7,169.7 226.9,164.7 227.1,160.2 227.2,159.5 227.4,169.7 227.6,168.7 227.8,167.9 228.0,177.0 228.1,167.0 228.3,172.8 228.5,180.2 228.7,178.1 228.8,172.5 229.0,164.1 229.2,163.0 229.4,174.2 229.6,171.7 229.7,170.0 229.9,182.1 230.1,180.0 230.3,184.1 230.5,188.5 230.6,193.7 230.8,191.4 231.0,188.1 231.2,179.9 231.3,162.2 231.5,162.0 231.7,166.4 231.9,163.6 232.1,152.6 232.2,149.7 232.4,152.4 232.6,162.3 232.8,158.5 233.0,162.4 233.1,161.6 233.3,166.0 233.5,159.2 233.7,160.6 233.8,160.4 234.0,162.4 234.2,172.0 234.4,168.2 234.6,171.6 234.7,171.8 234.9,178.1 235.1,177.5 235.3,172.0 235.5,176.7 235.6,174.3 235.8,173.4 236.0,174.1 236.2,178.6 236.3,179.6 236.5,181.0 236.7,195.8 236.9,198.0 237.1,202.0 237.2,206.3 237.4,206.3 237.6,210.4 237.8,203.3 238.0,214.5 238.1,209.6 238.3,213.2 238.5,210.8 238.7,205.6 238.8,206.1 239.0,214.1 239.2,216.2 239.4,222.5 239.6,223.7 239.7,222.0 239.9,222.8 240.1,215.2 240.3,215.0 240.4,208.6 240.6,210.6 240.8,211.5 241.0,210.6 241.2,217.4 241.3,222.0 241.5,223.1 241.7,217.3 241.9,212.7 242.1,213.4 242.2,213.7 242.4,207.9 242.6,210.2 242.8,209.3 242.9,212.4 243.1,213.3 243.3,217.0 243.5,214.2 243.7,217.5 243.8,219.9 244.0,217.9 244.2,218.3 244.4,224.2 244.6,229.6 244.7,230.6 244.9,231.4 245.1,231.9 245.3,230.8 245.4,237.3 245.6,235.4 245.8,225.1 246.0,229.6 246.2,231.4 246.3,231.0 246.5,233.3 246.7,233.2 246.9,232.1 247.1,229.6 247.2,234.3 247.4,235.9 247.6,238.1 247.8,238.3 247.9,241.6 248.1,243.3 248.3,242.6 248.5,242.6 248.7,247.4 248.8,247.3 249.0,253.7 249.2,259.2 249.4,260.9 249.6,251.4 249.7,242.7 249.9,246.3 250.1,245.6 250.3,240.8 250.4,240.6 250.6,247.2 250.8,249.5 251.0,254.7 251.2,255.6 251.3,259.6 251.5,253.8 251.7,257.1 251.9,258.2 252.1,263.2 252.2,262.8 252.4,259.3 252.6,260.5 252.8,263.4 252.9,264.2 253.1,267.6 253.3,274.5 253.5,271.2 253.7,273.7 253.8,270.9 254.0,273.0 254.2,273.2 254.4,274.0 254.6,270.1 254.7,272.7 254.9,270.6 255.1,263.5 255.3,265.3 255.4,264.3 255.6,260.8 255.8,258.1 256.0,256.6 256.2,264.2 256.3,258.5 256.5,260.7 256.7,261.4 256.9,265.8 257.0,265.8 257.2,265.4 257.4,264.4 257.6,267.4 257.8,266.5 257.9,266.8 258.1,262.3 258.3,260.0 258.5,258.9 258.7,254.6 258.8,257.8 259.0,254.3 259.2,257.0 259.4,261.5 259.5,260.9 259.7,260.6 259.9,260.8 260.1,257.9 260.3,257.8 260.4,259.9 260.6,264.7 260.8,266.2 261.0,267.1 261.2,267.0 261.3,267.6 261.5,268.8 261.7,269.2 261.9,265.7 262.0,262.6 262.2,263.6 262.4,266.1 262.6,265.0 262.8,265.4 262.9,267.2 263.1,263.0 263.3,263.5 263.5,261.3 263.7,259.5 263.8,258.8 264.0,259.0 264.2,258.3 264.4,258.9 264.5,258.7 264.7,256.1 264.9,252.6 265.1,252.8 265.3,248.8 265.4,246.9 265.6,246.5 265.8,246.1 266.0,248.1 266.2,244.3 266.3,240.2 266.5,243.8 266.7,249.7 266.9,249.7 267.0,248.4 267.2,245.8 267.4,252.0 267.6,250.6 267.8,254.4 267.9,255.3 268.1,255.2 268.3,257.2 268.5,250.0 268.7,248.4 268.8,249.6 269.0,253.4 269.2,251.5 269.4,252.5 269.5,252.9 269.7,253.0 269.9,251.0 270.1,247.7 270.3,247.9 270.4,245.8 270.6,246.3 270.8,243.6 271.0,243.0 271.2,244.9 271.3,240.6 271.5,239.6 271.7,240.2 271.9,239.3 272.0,237.9 272.2,236.1 272.4,235.1 272.6,235.1 272.8,240.3 272.9,238.2 273.1,235.0 273.3,232.0 273.5,231.4 273.6,231.8 273.8,231.8 274.0,233.3 274.2,230.9 274.4,232.6 274.5,236.4 274.7,236.2 274.9,237.3 275.1,239.5 275.3,239.6 275.4,234.6 275.6,234.9 275.8,230.8 276.0,230.6 276.1,229.3 276.3,228.6 276.5,226.4 276.7,227.9 276.9,225.6 277.0,224.4 277.2,226.5 277.4,226.5 277.6,226.0 277.8,224.6 277.9,226.7 278.1,229.8 278.3,230.1 278.5,229.9 278.6,231.6 278.8,228.5 279.0,222.8 279.2,223.0 279.4,217.9 279.5,216.3 279.7,217.2 279.9,215.5 280.1,214.8 280.3,213.8 280.4,214.8 280.6,217.5 280.8,213.4 281.0,214.1 281.1,212.2 281.3,209.0 281.5,207.3 281.7,206.5 281.9,205.8 282.0,205.5 282.2,205.5 282.4,204.9 282.6,201.8 282.8,202.5 282.9,198.4 283.1,195.7 283.3,193.9 283.5,191.2 283.6,193.3 283.8,194.3 284.0,192.3 284.2,193.2 284.4,196.7 284.5,191.2 284.7,189.3 284.9,187.9 285.1,187.5 285.3,184.3 285.4,186.3 285.6,182.6 285.8,179.9 286.0,178.2 286.1,174.0 286.3,174.4 286.5,183.0 286.7,177.5 286.9,173.3 287.0,171.9 287.2,173.7 287.4,176.9 287.6,181.2 287.8,185.5 287.9,187.0 288.1,186.8 288.3,194.9 288.5,192.6 288.6,196.9 288.8,205.7 289.0,205.0 289.2,212.5 289.4,205.6 289.5,203.3 289.7,203.3 289.9,210.6 290.1,208.4 290.2,209.5 290.4,215.0 290.6,224.8 290.8,222.8 291.0,219.7 291.1,212.5 291.3,212.1 291.5,211.0 291.7,208.2 291.9,207.5 292.0,208.9 292.2,204.1 292.4,202.2 292.6,202.2 292.7,205.4 292.9,202.3 293.1,208.1 293.3,208.5 293.5,212.4 293.6,214.6 293.8,212.2 294.0,212.8 294.2,217.1 294.4,216.1 294.5,214.7 294.7,207.3 294.9,208.3 295.1,205.8 295.2,204.4 295.4,203.6 295.6,203.9 295.8,200.3 296.0,197.5 296.1,197.8 296.3,199.2 296.5,195.7 296.7,195.5 296.9,200.3 297.0,200.5 297.2,204.6 297.4,202.8 297.6,197.0 297.7,195.3 297.9,194.3 298.1,194.1 298.3,193.6 298.5,193.2 298.6,193.1 298.8,193.7 299.0,193.9 299.2,192.9 299.4,187.7 299.5,187.4 299.7,187.4 299.9,187.6 300.1,188.9 300.2,188.2 300.4,192.9 300.6,190.0 300.8,197.2 301.0,201.9 301.1,196.7 301.3,195.0 301.5,193.6 301.7,194.7 301.9,188.6 302.0,188.1 302.2,190.9 302.4,194.8 302.6,193.8 302.7,194.0 302.9,190.9 303.1,192.8 303.3,193.6 303.5,196.8 303.6,199.5 303.8,200.3 304.0,204.0 304.2,203.2 304.3,199.1 304.5,200.7 304.7,198.1 304.9,196.4 305.1,191.7 305.2,190.9 305.4,193.5 305.6,191.5 305.8,193.5 306.0,196.9 306.1,196.7 306.3,195.9 306.5,193.9 306.7,201.2 306.8,199.6 307.0,199.3 307.2,199.8 307.4,199.0 307.6,203.9 307.7,202.7 307.9,202.5 308.1,204.3 308.3,207.1 308.5,210.2 308.6,211.0 308.8,211.6 309.0,214.0 309.2,213.6 309.3,209.4 309.5,210.5 309.7,213.3 309.9,213.8 310.1,212.6 310.2,210.5 310.4,210.2 310.6,208.9 310.8,209.9 311.0,212.7 311.1,211.1 311.3,209.0 311.5,209.6 311.7,207.1 311.8,207.7 312.0,207.1 312.2,210.4 312.4,210.0 312.6,208.9 312.7,207.7 312.9,208.4 313.1,207.9 313.3,209.6 313.5,211.8 313.6,210.4 313.8,207.4 314.0,208.2 314.2,207.2 314.3,206.8 314.5,208.4 314.7,208.4 314.9,210.6 315.1,208.4 315.2,203.6 315.4,203.3 315.6,204.5 315.8,202.7 316.0,202.6 316.1,202.6 316.3,203.7 316.5,206.2 316.7,204.8 316.8,206.7 317.0,203.5 317.2,203.4 317.4,203.4 317.6,205.9 317.7,213.8 317.9,214.2 318.1,212.0 318.3,214.8 318.5,215.6 318.6,216.6 318.8,219.1 319.0,219.5 319.2,219.6 319.3,218.0 319.5,220.6 319.7,220.6 319.9,227.5 320.1,229.3 320.2,227.5 320.4,230.1 320.6,227.9 320.8,225.2 320.9,226.6 321.1,232.8 321.3,230.1 321.5,230.9 321.7,233.0 321.8,231.8 322.0,227.4 322.2,230.7 322.4,230.8 322.6,229.1 322.7,229.7 322.9,232.9 323.1,233.9 323.3,234.1 323.4,235.0 323.6,235.0 323.8,237.8 324.0,238.3 324.2,234.2 324.3,236.4 324.5,235.8 324.7,235.9 324.9,236.6 325.1,232.4 325.2,232.7 325.4,233.7 325.6,233.7 325.8,233.6 325.9,234.0 326.1,239.1 326.3,240.1 326.5,241.4 326.7,240.5 326.8,241.5 327.0,239.6 327.2,239.4 327.4,239.5 327.6,236.6 327.7,235.5 327.9,237.4 328.1,236.5 328.3,238.6 328.4,238.7 328.6,236.1 328.8,234.0 329.0,233.7 329.2,232.4 329.3,231.6 329.5,231.2 329.7,232.2 329.9,229.1 330.1,228.4 330.2,228.8 330.4,226.9 330.6,229.4 330.8,229.2 330.9,231.0 331.1,229.4 331.3,228.8 331.5,232.3 331.7,232.0 331.8,233.7 332.0,232.6 332.2,229.9 332.4,229.3 332.6,229.7 332.7,228.4 332.9,230.2 333.1,230.5 333.3,230.6 333.4,233.7 333.6,233.7 333.8,233.5 334.0,231.8 334.2,233.1 334.3,233.5 334.5,232.3 334.7,232.7 334.9,229.6 335.1,229.8 335.2,230.9 335.4,233.4 335.6,233.6 335.8,233.2 335.9,233.0 336.1,235.1 336.3,237.4 336.5,237.5 336.7,237.3 336.8,237.0 337.0,235.9 337.2,237.1 337.4,236.8 337.5,233.8 337.7,228.6 337.9,223.5 338.1,221.8 338.3,219.5 338.4,217.2 338.6,210.9 338.8,211.8 339.0,209.3 339.2,208.9 339.3,211.5 339.5,212.5 339.7,208.2 339.9,209.7 340.0,212.9 340.2,212.9 340.4,215.3 340.6,212.0 340.8,212.4 340.9,212.8 341.1,210.9 341.3,209.3 341.5,208.5 341.7,210.7 341.8,212.8 342.0,211.1 342.2,219.2 342.4,219.5 342.5,225.8 342.7,227.1 342.9,225.5 343.1,225.3 343.3,226.6 343.4,229.2 343.6,227.0 343.8,225.2 344.0,226.7 344.2,227.2 344.3,229.3 344.5,229.0 344.7,228.1 344.9,227.4 345.0,225.8 345.2,224.8 345.4,226.7 345.6,228.2 345.8,226.5 345.9,223.0 346.1,223.3 346.3,224.3 346.5,225.5 346.7,225.8 346.8,228.0 347.0,224.7 347.2,226.5 347.4,226.8 347.5,227.1 347.7,229.5 347.9,231.3 348.1,231.1 348.3,231.5 348.4,229.5 348.6,227.0 348.8,228.0 349.0,229.0 349.2,227.5 349.3,229.6 349.5,228.0 349.7,226.8 349.9,227.0 350.0,229.1 350.2,233.4 350.4,233.1 350.6,231.1 350.8,235.0 350.9,232.9 351.1,233.9 351.3,233.9 351.5,232.9 351.7,231.4 351.8,231.6 352.0,230.4 352.2,230.1 352.4,231.8 352.5,229.6 352.7,229.5 352.9,224.8 353.1,225.1 353.3,224.5 353.4,224.8 353.6,225.9 353.8,224.9 354.0,228.6 354.1,228.3 354.3,227.8 354.5,227.5 354.7,226.5 354.9,225.6 355.0,225.2 355.2,224.5 355.4,222.6 355.6,219.7 355.8,219.7 355.9,219.9 356.1,223.2 356.3,224.7 356.5,224.4 356.6,226.7 356.8,224.7 357.0,226.4 357.2,225.7 357.4,225.5 357.5,224.3 357.7,223.0 357.9,223.7 358.1,221.5 358.3,221.1 358.4,221.4 358.6,221.2 358.8,222.4 359.0,219.5 359.1,216.2 359.3,216.3 359.5,215.6 359.7,216.2 359.9,216.9 360.0,214.6 360.2,215.2 360.4,214.5 360.6,214.5 360.8,217.8 360.9,218.3 361.1,217.2 361.3,217.8 361.5,219.4 361.6,220.0 361.8,220.4 362.0,220.5 362.2,220.3 362.4,220.3 362.5,224.2 362.7,224.6 362.9,225.4 363.1,225.5 363.3,224.1 363.4,224.7 363.6,226.5 363.8,225.1 364.0,226.7 364.1,225.7 364.3,224.4 364.5,224.9 364.7,224.4 364.9,228.4 365.0,228.3 365.2,229.9 365.4,229.7 365.6,229.5 365.8,229.3 365.9,227.3 366.1,227.8 366.3,230.4 366.5,229.6 366.6,229.0 366.8,229.3 367.0,231.5 367.2,231.2 367.4,231.6 367.5,230.0 367.7,231.2 367.9,232.8 368.1,233.8 368.3,234.3 368.4,233.1 368.6,233.1 368.8,231.3 369.0,228.1 369.1,228.3 369.3,228.4 369.5,230.6 369.7,228.7 369.9,228.9 370.0,225.7 370.2,226.0 370.4,226.8 370.6,227.6 370.7,227.0 370.9,227.2 371.1,230.1 371.3,228.1 371.5,227.6 371.6,227.2 371.8,227.8 372.0,228.7 372.2,229.1 372.4,230.6 372.5,230.3 372.7,234.0 372.9,233.7 373.1,233.4 373.2,234.6 373.4,234.1 373.6,234.0 373.8,235.0 374.0,235.1 374.1,235.0 374.3,238.0 374.5,241.7 374.7,241.2 374.9,240.4 375.0,238.7 375.2,238.8 375.4,236.5 375.6,237.1 375.7,237.5 375.9,239.7 376.1,240.9 376.3,242.0 376.5,239.9 376.6,240.9 376.8,236.1 377.0,236.2 377.2,238.9 377.4,239.0 377.5,238.6 377.7,238.7 377.9,240.0 378.1,242.3 378.2,242.7 378.4,240.4 378.6,241.4 378.8,241.3 379.0,242.5 379.1,242.2 379.3,242.7 379.5,242.4 379.7,244.7 379.9,244.2 380.0,240.8 380.2,244.7 380.4,245.4 380.6,248.7 380.7,247.3 380.9,248.3 381.1,248.8 381.3,249.1 381.5,250.1 381.6,249.7 381.8,245.6 382.0,244.9 382.2,245.0 382.4,244.2 382.5,247.4 382.7,247.5 382.9,249.8 383.1,249.7 383.2,246.1 383.4,244.6 383.6,243.7 383.8,243.1 384.0,240.9 384.1,241.9 384.3,241.7 384.5,239.7 384.7,240.1 384.9,239.2 385.0,240.7 385.2,240.8 385.4,239.9 385.6,242.6 385.7,242.7 385.9,240.3 386.1,240.8 386.3,244.3 386.5,244.8 386.6,246.7 386.8,246.6 387.0,246.6 387.2,248.0 387.3,247.7 387.5,248.6 387.7,248.5 387.9,247.0 388.1,250.5 388.2,247.2 388.4,247.8 388.6,248.4 388.8,248.8 389.0,247.9 389.1,247.9 389.3,248.6 389.5,249.5 389.7,251.7 389.8,252.3 390.0,254.8 390.2,252.8 390.4,253.1 390.6,253.1 390.7,254.5 390.9,254.2 391.1,253.6 391.3,254.7 391.5,255.4 391.6,255.1 391.8,255.0 392.0,253.6 392.2,255.1 392.3,255.0 392.5,254.2 392.7,250.8 392.9,247.7 393.1,248.4 393.2,248.0 393.4,249.0 393.6,250.6 393.8,245.6 394.0,247.1 394.1,244.7 394.3,243.0 394.5,245.2 394.7,245.1 394.8,247.1 395.0,243.9 395.2,243.2 395.4,243.7 395.6,245.9 395.7,242.6 395.9,242.8 396.1,242.8 396.3,243.5 396.5,244.1 396.6,243.2 396.8,243.9 397.0,243.7 397.2,243.4 397.3,242.7 397.5,241.7 397.7,241.4 397.9,239.6 398.1,239.5 398.2,238.7 398.4,239.8 398.6,240.1 398.8,238.4 399.0,239.5 399.1,241.7 399.3,242.9 399.5,241.5 399.7,240.6 399.8,241.6 400.0,240.5 400.2,242.9 400.4,244.0 400.6,242.7 400.7,242.8 400.9,244.3 401.1,244.1 401.3,244.0 401.4,244.8 401.6,244.7 401.8,244.8 402.0,247.5 402.2,248.9 402.3,247.7 402.5,245.7 402.7,245.5 402.9,246.6 403.1,245.6 403.2,245.7 403.4,243.3 403.6,242.9 403.8,243.3 403.9,244.7 404.1,242.1 404.3,241.9 404.5,240.3 404.7,241.4 404.8,240.8 405.0,240.1 405.2,239.9 405.4,239.8 405.6,237.2 405.7,237.1 405.9,236.2 406.1,236.9 406.3,237.2 406.4,239.3 406.6,239.4 406.8,240.3 407.0,241.3 407.2,241.3 407.3,243.1 407.5,241.3 407.7,243.0 407.9,242.4 408.1,240.7 408.2,241.3 408.4,242.1 408.6,242.9 408.8,241.3 408.9,239.7 409.1,240.1 409.3,241.0 409.5,240.8 409.7,244.0 409.8,243.8 410.0,243.5 410.2,244.2 410.4,245.5 410.6,244.3 410.7,245.0 410.9,243.3 411.1,244.3 411.3,243.4 411.4,242.9 411.6,243.7 411.8,243.8 412.0,245.7 412.2,247.7 412.3,248.0 412.5,248.4 412.7,249.3 412.9,247.5 413.1,247.6 413.2,247.4 413.4,247.2 413.6,248.4 413.8,247.3 413.9,250.2 414.1,250.4 414.3,249.9 414.5,249.4 414.7,249.1 414.8,250.9 415.0,250.1 415.2,250.3 415.4,249.8 415.6,250.8 415.7,252.8 415.9,252.5 416.1,252.9 416.3,253.1 416.4,252.7 416.6,253.0 416.8,252.6 417.0,251.7 417.2,252.4 417.3,252.0 417.5,250.8 417.7,250.9 417.9,250.5 418.0,249.9 418.2,250.4 418.4,252.6 418.6,252.5 418.8,254.1 418.9,254.4 419.1,254.4 419.3,255.0 419.5,254.9 419.7,255.3 419.8,255.0 420.0,255.5 420.2,257.6 420.4,256.7 420.5,257.8 420.7,257.4 420.9,258.0 421.1,257.4 421.3,258.2 421.4,258.9 421.6,258.0 421.8,253.5 422.0,253.4 422.2,254.4 422.3,254.2 422.5,254.9 422.7,253.8 422.9,256.0 423.0,257.1 423.2,256.8 423.4,258.7 423.6,258.4 423.8,257.8 423.9,257.9 424.1,258.7 424.3,255.6 424.5,253.9 424.7,255.0 424.8,252.9 425.0,253.1 425.2,253.7 425.4,253.5 425.5,253.9 425.7,253.8 425.9,253.6 426.1,252.1 426.3,252.2 426.4,251.8 426.6,253.0 426.8,253.2 427.0,253.9 427.2,255.8 427.3,256.7 427.5,256.3 427.7,255.6 427.9,253.6 428.0,253.0 428.2,253.1 428.4,253.4 428.6,253.6 428.8,255.3 428.9,255.3 429.1,254.7 429.3,256.4 429.5,256.0 429.7,257.2 429.8,258.0 430.0,258.0 430.2,258.7 430.4,257.2 430.5,257.8 430.7,256.8 430.9,257.2 431.1,257.9 431.3,258.6 431.4,259.2 431.6,258.3 431.8,259.3 432.0,258.4 432.2,254.6 432.3,254.7 432.5,252.4 432.7,251.2 432.9,251.7 433.0,250.9 433.2,252.4 433.4,246.2 433.6,245.5 433.8,245.1 433.9,245.1 434.1,244.6 434.3,245.5 434.5,244.9 434.6,241.4 434.8,241.3 435.0,242.2 435.2,240.2 435.4,237.5 435.5,236.6 435.7,236.0 435.9,237.5 436.1,237.7 436.3,237.6 436.4,240.1 436.6,235.1 436.8,234.7 437.0,236.2 437.1,237.7 437.3,235.5 437.5,234.8 437.7,234.8 437.9,234.0 438.0,234.6 438.2,235.6 438.4,230.8 438.6,229.1 438.8,228.7 438.9,228.4 439.1,224.2 439.3,223.6 439.5,223.3 439.6,222.7 439.8,224.7 440.0,225.1 440.2,227.0 440.4,229.2 440.5,229.4 440.7,234.8 440.9,235.8 441.1,235.3 441.3,237.0 441.4,235.4 441.6,230.9 441.8,231.7 442.0,238.6 442.1,233.5 442.3,232.4 442.5,234.5 442.7,234.6 442.9,236.0 443.0,237.7 443.2,239.0 443.4,238.8 443.6,238.6 443.8,240.6 443.9,239.3 444.1,234.3 444.3,234.5 444.5,234.4 444.6,234.5 444.8,237.3 445.0,236.8 445.2,241.9 445.4,241.8 445.5,242.4 445.7,242.5 445.9,242.0 446.1,243.2 446.3,242.1 446.4,242.2 446.6,242.4 446.8,243.1 447.0,244.0 447.1,243.2 447.3,243.9 447.5,243.5 447.7,239.5 447.9,239.8 448.0,244.0 448.2,241.8 448.4,242.8 448.6,243.6 448.8,243.8 448.9,241.7 449.1,240.2 449.3,240.2 449.5,239.7 449.6,240.8 449.8,240.1 450.0,240.6 450.2,242.3 450.4,242.1 450.5,239.9 450.7,238.4 450.9,237.3 451.1,237.9 451.2,237.5 451.4,239.8 451.6,239.4 451.8,239.5 452.0,236.7 452.1,237.2 452.3,237.6 452.5,238.6 452.7,238.8 452.9,240.1 453.0,240.9 453.2,242.4 453.4,244.0 453.6,248.0 453.7,247.8 453.9,248.6 454.1,247.8 454.3,248.9 454.5,252.6 454.6,252.5 454.8,259.8 455.0,259.7 455.2,260.8 455.4,260.6 455.5,257.9 455.7,258.1 455.9,258.7 456.1,259.9 456.2,259.1 456.4,258.6 456.6,261.0 456.8,261.1 457.0,258.3 457.1,252.4 457.3,255.6 457.5,254.4 457.7,254.3 457.9,255.9 458.0,258.1 458.2,260.7 458.4,260.5 458.6,257.7 458.7,259.3 458.9,259.5 459.1,260.0 459.3,262.5 459.5,261.4 459.6,261.2 459.8,258.9 460.0,259.0 460.2,257.8 460.4,257.7 460.5,258.0 460.7,258.5 460.9,257.9 461.1,254.1 461.2,253.4 461.4,254.1 461.6,255.1 461.8,255.2 462.0,254.2 462.1,255.1 462.3,255.6 462.5,255.9 462.7,257.0 462.9,254.7 463.0,254.6 463.2,255.2 463.4,255.5 463.6,255.4 463.7,255.3 463.9,253.8 464.1,253.8 464.3,254.1 464.5,253.0 464.6,247.2 464.8,245.5 465.0,245.3 465.2,243.2 465.4,244.8 465.5,245.5 465.7,248.1 465.9,248.0 466.1,247.2 466.2,249.8 466.4,250.6 466.6,252.6 466.8,252.1 467.0,251.9 467.1,250.8 467.3,250.2 467.5,252.2 467.7,250.1 467.8,250.6 468.0,251.0 468.2,252.5 468.4,252.9 468.6,252.3 468.7,250.9 468.9,252.1 469.1,252.2 469.3,253.3 469.5,254.0 469.6,254.0 469.8,252.5 470.0,251.2 470.2,252.7 470.3,251.8 470.5,252.2 470.7,252.5 470.9,253.8 471.1,254.0 471.2,255.6 471.4,255.3 471.6,254.0 471.8,256.8 472.0,256.6 472.1,254.4 472.3,249.7 472.5,250.8 472.7,250.5 472.8,251.5 473.0,251.9 473.2,252.5 473.4,252.7 473.6,251.5 473.7,250.4 473.9,250.6 474.1,249.5 474.3,249.3 474.5,248.1 474.6,248.6 474.8,249.7 475.0,250.1 475.2,250.0 475.3,252.1 475.5,252.6 475.7,253.0 475.9,254.6 476.1,254.9 476.2,254.8 476.4,256.1 476.6,258.9 476.8,258.7 477.0,258.8 477.1,258.3 477.3,259.8 477.5,258.1 477.7,258.2 477.8,256.4 478.0,257.4 478.2,259.0 478.4,260.6 478.6,260.7 478.7,260.4 478.9,261.2 479.1,261.6 479.3,261.8 479.5,261.5 479.6,262.2 479.8,261.9 480.0,263.1 480.2,263.8 480.3,262.9 480.5,260.5 480.7,261.5 480.9,261.3 481.1,262.9 481.2,262.3 481.4,261.8 481.6,263.0 481.8,263.1 482.0,261.1 482.1,259.6 482.3,259.6 482.5,259.6 482.7,259.2 482.8,258.9 483.0,260.9 483.2,259.2 483.4,260.1 483.6,261.1 483.7,263.6 483.9,265.4 484.1,265.2 484.3,264.6 484.4,263.8 484.6,263.9 484.8,263.8 485.0,264.9 485.2,264.2 485.3,264.4 485.5,267.6 485.7,267.3 485.9,266.9 486.1,265.6 486.2,266.4 486.4,265.9 486.6,266.3 486.8,266.9 486.9,267.7 487.1,263.9 487.3,263.0 487.5,263.5 487.7,263.7 487.8,263.8 488.0,263.3 488.2,263.7 488.4,263.2 488.6,262.0 488.7,263.0 488.9,262.1 489.1,259.1 489.3,259.4 489.4,256.7 489.6,257.1 489.8,257.6 490.0,259.9 490.2,259.6 490.3,260.1 490.5,260.0 490.7,261.9 490.9,260.8 491.1,261.0 491.2,260.8 491.4,261.4 491.6,262.5 491.8,261.7 491.9,261.8 492.1,262.3 492.3,262.4 492.5,263.0 492.7,262.9 492.8,262.7 493.0,260.9 493.2,261.2 493.4,261.4 493.6,262.2 493.7,262.3 493.9,264.2 494.1,264.1 494.3,263.2 494.4,263.4 494.6,262.5 494.8,262.4 495.0,262.8 495.2,262.0 495.3,262.5 495.5,262.6 495.7,263.0 495.9,263.7 496.1,262.5 496.2,263.3 496.4,263.1 496.6,261.9 496.8,262.2 496.9,262.5 497.1,261.3 497.3,260.2 497.5,261.3 497.7,261.8 497.8,262.9 498.0,262.5 498.2,263.1 498.4,262.8 498.6,263.5 498.7,262.9 498.9,263.2 499.1,262.6 499.3,262.7 499.4,262.5 499.6,262.1 499.8,262.0 500.0,261.9 500.2,262.0 500.3,263.1 500.5,263.4 500.7,263.6 500.9,262.6 501.0,262.5 501.2,262.6 501.4,263.2 501.6,262.9 501.8,262.8 501.9,261.7 502.1,261.0 502.3,258.6 502.5,257.6 502.7,254.1 502.8,254.0 503.0,254.7 503.2,253.3 503.4,254.2 503.5,251.8 503.7,252.6 503.9,253.5 504.1,255.2 504.3,255.0 504.4,253.5 504.6,254.2 504.8,254.1 505.0,255.0 505.2,253.9 505.3,253.9 505.5,254.1 505.7,254.7 505.9,255.6 506.0,255.1 506.2,256.3 506.4,256.5 506.6,256.6 506.8,257.2 506.9,256.0 507.1,255.7 507.3,254.2 507.5,253.1 507.7,252.3 507.8,251.0 508.0,251.7 508.2,252.7 508.4,253.2 508.5,252.7 508.7,253.1 508.9,254.7 509.1,254.4 509.3,254.1 509.4,253.4 509.6,255.8 509.8,255.0 510.0,253.0 510.2,253.5 510.3,253.7 510.5,253.3 510.7,253.4 510.9,252.5 511.0,252.5 511.2,253.3 511.4,254.4 511.6,254.7 511.8,253.9 511.9,254.2 512.1,254.2 512.3,253.9 512.5,254.7 512.7,254.9 512.8,255.7 513.0,255.9 513.2,257.4 513.4,255.7 513.5,254.2 513.7,253.5 513.9,250.9 514.1,251.3 514.3,251.7 514.4,252.2 514.6,252.3 514.8,252.1 515.0,248.8 515.1,247.3 515.3,246.0 515.5,246.3 515.7,246.1 515.9,247.5 516.0,249.4 516.2,250.0 516.4,249.6 516.6,247.1 516.8,244.2 516.9,242.9 517.1,240.0 517.3,237.8 517.5,233.7 517.6,233.3 517.8,226.5 518.0,225.4 518.2,217.2 518.4,214.6 518.5,207.9 518.7,215.7 518.9,210.9 519.1,215.0 519.3,215.0 519.4,214.5 519.6,207.9 519.8,202.2 520.0,203.6 520.1,201.8 520.3,199.4 520.5,202.9 520.7,209.8 520.9,203.9 521.0,196.8 521.2,195.7 521.4,192.9 521.6,189.0 521.8,184.5 521.9,185.8 522.1,185.4 522.3,190.6 522.5,189.9 522.6,191.5 522.8,192.6 523.0,192.2 523.2,185.6 523.4,184.2 523.5,200.5 523.7,200.9 523.9,191.6 524.1,191.5 524.3,190.2 524.4,190.3 524.6,193.0 524.8,195.4 525.0,198.4 525.1,200.8 525.3,205.7 525.5,200.8 525.7,203.0 525.9,204.6 526.0,206.2 526.2,203.4 526.4,200.9 526.6,200.2 526.8,200.1 526.9,199.3 527.1,199.1 527.3,198.1 527.5,200.7 527.6,195.9 527.8,196.2 528.0,195.9 528.2,201.4 528.4,201.3 528.5,203.4 528.7,203.1 528.9,199.2 529.1,201.5 529.3,200.6 529.4,195.5 529.6,194.8 529.8,191.1 530.0,188.9 530.1,184.5 530.3,185.8 530.5,182.4 530.7,179.7 530.9,182.2 531.0,184.5 531.2,181.9 531.4,181.8 531.6,175.4 531.7,177.4 531.9,174.4 532.1,175.6 532.3,173.2 532.5,168.4 532.6,164.2 532.8,165.6 533.0,161.9 533.2,158.2 533.4,157.5 533.5,157.4 533.7,148.7 533.9,145.2 534.1,150.0 534.2,146.6 534.4,140.9 534.6,142.7 534.8,146.0 535.0,140.3 535.1,142.1 535.3,142.0 535.5,144.2 535.7,142.8 535.9,151.0 536.0,151.7 536.2,154.6 536.4,153.6 536.6,149.7 536.7,148.4 536.9,151.5 537.1,152.4 537.3,156.9 537.5,161.1 537.6,153.2 537.8,152.8 538.0,150.9 538.2,144.3 538.4,137.6 538.5,135.1 538.7,137.9 538.9,152.6 539.1,153.5 539.2,144.6 539.4,143.7 539.6,145.0 539.8,141.0 540.0,140.6 540.1,130.3 540.3,133.3 540.5,136.2 540.7,137.7 540.9,137.5 541.0,143.4 541.2,149.0 541.4,146.8 541.6,156.4 541.7,167.5 541.9,160.8 542.1,158.0 542.3,164.7 542.5,178.6 542.6,182.5 542.8,169.7 543.0,178.6 543.2,180.1 543.4,189.0 543.5,177.7 543.7,173.5 543.9,187.2 544.1,175.7 544.2,167.8 544.4,169.8 544.6,176.9 544.8,177.2 545.0,178.2 545.1,173.9 545.3,175.5 545.5,176.2 545.7,178.4 545.9,175.0 546.0,178.3 546.2,194.9 546.4,195.4 546.6,192.4 546.7,196.7 546.9,197.1 547.1,195.8 547.3,192.2 547.5,195.3 547.6,196.7 547.8,194.2 548.0,186.6 548.2,188.4 548.3,190.4 548.5,189.1 548.7,189.3 548.9,191.1 549.1,200.6 549.2,199.1 549.4,204.1 549.6,209.8 549.8,224.1 550.0,233.7 550.1,231.8 550.3,221.6 550.5,217.2 550.7,213.9 550.8,212.5 551.0,211.6 551.2,219.0 551.4,215.9 551.6,213.8 551.7,214.0 551.9,214.9 552.1,212.7 552.3,216.2 552.5,211.8 552.6,214.9 552.8,214.6 553.0,213.6 553.2,212.1 553.3,216.0 553.5,215.4 553.7,215.7 553.9,216.6 554.1,219.4 554.2,218.2 554.4,215.1 554.6,213.3 554.8,209.0 555.0,209.8 555.1,211.0 555.3,208.0 555.5,206.3 555.7,206.6 555.8,205.4 556.0,205.2 556.2,205.7 556.4,204.9 556.6,204.5 556.7,204.5 556.9,207.2 557.1,207.4 557.3,207.0 557.5,209.2 557.6,209.8 557.8,203.1 558.0,198.5 558.2,194.9 558.3,192.2 558.5,193.0 558.7,194.1 558.9,196.1 559.1,198.0 559.2,198.0 559.4,197.6 559.6,198.5 559.8,196.6 560.0,196.7 560.1,197.4 560.3,198.0 560.5,197.2 560.7,197.8 560.8,205.6 561.0,205.4 561.2,204.9 561.4,197.3 561.6,197.1 561.7,201.3 561.9,201.5 562.1,203.6 562.3,203.2 562.5,204.0 562.6,205.0 562.8,200.2 563.0,202.3 563.2,202.7 563.3,200.6 563.5,199.6 563.7,194.5 563.9,194.7 564.1,194.3 564.2,195.7 564.4,195.0 564.6,200.4 564.8,199.0 564.9,199.0 565.1,199.8 565.3,209.8 565.5,208.7 565.7,206.7 565.8,215.9 566.0,213.3 566.2,219.9 566.4,219.2 566.6,220.9 566.7,219.1 566.9,223.2 567.1,223.3 567.3,219.4 567.4,222.0 567.6,225.2 567.8,223.8 568.0,223.6 568.2,231.2 568.3,231.1 568.5,233.8 568.7,229.8 568.9,232.2 569.1,230.0 569.2,231.2 569.4,229.7 569.6,230.2 569.8,231.4 569.9,227.9 570.1,227.0 570.3,227.3 570.5,227.7 570.7,224.4 570.8,226.0 571.0,225.2 571.2,232.5 571.4,230.9 571.6,231.7 571.7,229.8 571.9,225.1 572.1,224.4 572.3,219.8 572.4,220.8 572.6,220.2 572.8,220.5 573.0,223.8 573.2,223.2 573.3,222.7 573.5,221.2 573.7,218.8 573.9,219.2 574.1,218.5 574.2,215.0 574.4,216.4 574.6,216.2 574.8,218.7 574.9,218.0 575.1,219.7 575.3,220.8 575.5,217.4 575.7,217.5 575.8,216.7 576.0,215.9 576.2,216.7 576.4,218.6 576.6,219.7 576.7,218.0 576.9,218.3 577.1,216.5 577.3,216.0 577.4,215.8 577.6,217.4 577.8,217.0 578.0,217.6 578.2,218.1 578.3,217.4 578.5,218.0 578.7,217.5 578.9,218.2 579.1,218.4 579.2,218.9 579.4,217.4 579.6,217.7 579.8,217.7 579.9,220.8 580.1,223.1 580.3,223.1 580.5,222.7 580.7,222.3 580.8,222.9 581.0,222.4 581.2,222.9 581.4,222.7 581.5,223.0 581.7,222.4 581.9,222.4 582.1,223.5 582.3,223.1 582.4,222.9 582.6,222.9 582.8,221.8 583.0,217.5 583.2,218.7 583.3,218.7 583.5,217.7 583.7,218.8 583.9,218.6 584.0,219.1 584.2,222.3 584.4,221.6 584.6,220.8 584.8,221.6 584.9,221.1 585.1,221.0 585.3,221.0 585.5,220.2 585.7,220.9 585.8,222.9 586.0,221.5 586.2,221.1 586.4,219.7 586.5,219.7 586.7,219.5 586.9,217.0 587.1,216.7 587.3,216.8 587.4,216.8 587.6,218.0 587.8,217.5 588.0,214.5 588.2,214.7 588.3,214.9 588.5,215.1 588.7,215.4 588.9,216.2 589.0,216.8 589.2,216.1 589.4,217.4 589.6,217.3 589.8,215.7 589.9,216.3 590.1,217.0 590.3,217.6 590.5,218.1 590.7,218.0 590.8,218.2 591.0,218.3 591.2,218.0 591.4,217.3 591.5,216.2 591.7,216.6 591.9,216.1 592.1,213.1 592.3,208.7 592.4,210.7 592.6,211.0 592.8,211.6 593.0,211.3 593.2,212.1 593.3,211.8 593.5,212.4 593.7,213.1 593.9,213.3 594.0,213.6 594.2,213.0 594.4,212.4 594.6,213.2 594.8,212.6 594.9,212.6 595.1,212.4 595.3,212.1 595.5,212.1 595.7,212.6 595.8,214.6 596.0,215.0 596.2,216.1 596.4,215.3 596.5,215.6 596.7,215.4 596.9,214.5 597.1,214.8 597.3,216.8 597.4,216.1 597.6,216.8 597.8,216.2 598.0,216.1 598.1,214.4 598.3,213.9 598.5,214.5 598.7,214.4 598.9,213.9 599.0,215.0 599.2,213.0 599.4,213.1 599.6,213.0 599.8,211.8 599.9,209.8 600.1,210.1 600.3,210.7 600.5,211.2 600.6,211.0 600.8,211.2 601.0,210.3 601.2,211.6 601.4,209.6 601.5,209.7 601.7,209.4 601.9,209.0 602.1,210.3 602.3,208.6 602.4,207.3 602.6,206.7 602.8,207.1 603.0,207.2 603.1,206.8 603.3,207.4 603.5,205.5 603.7,204.3 603.9,203.8 604.0,203.3 604.2,201.6 604.4,201.0 604.6,198.4 604.8,199.9 604.9,199.1 605.1,200.1 605.3,202.8 605.5,203.3 605.6,202.7 605.8,202.6 606.0,200.4 606.2,202.0 606.4,203.0 606.5,203.8 606.7,207.2 606.9,207.7 607.1,208.4 607.3,209.2 607.4,208.0 607.6,208.4 607.8,209.3 608.0,208.2 608.1,208.7 608.3,209.4 608.5,209.5 608.7,208.7 608.9,207.3 609.0,206.4 609.2,206.4 609.4,207.3 609.6,206.6 609.8,207.0 609.9,207.8 610.1,208.2 610.3,207.3 610.5,205.4 610.6,205.9 610.8,205.0 611.0,205.5 611.2,204.7 611.4,204.7 611.5,204.4 611.7,203.9 611.9,203.6 612.1,205.2 612.2,204.9 612.4,205.4 612.6,204.8 612.8,204.2 613.0,203.3 613.1,202.6 613.3,202.9 613.5,203.0 613.7,202.7 613.9,203.7 614.0,201.6 614.2,201.4 614.4,201.3 614.6,202.0 614.7,201.9 614.9,203.1 615.1,203.1 615.3,203.1 615.5,204.2 615.6,204.7 615.8,204.5 616.0,204.1 616.2,204.0 616.4,204.8 616.5,205.2 616.7,204.2 616.9,204.2 617.1,204.0 617.2,203.2 617.4,204.7 617.6,204.5 617.8,204.0 618.0,205.3 618.1,204.7 618.3,203.5 618.5,203.6 618.7,204.1 618.9,204.3 619.0,204.7 619.2,203.9 619.4,202.2 619.6,201.8 619.7,202.0 619.9,202.6 620.1,202.4 620.3,202.6 620.5,203.3 620.6,204.2 620.8,204.0 621.0,205.4 621.2,206.2 621.4,205.5 621.5,204.7 621.7,205.1 621.9,204.9 622.1,204.9 622.2,204.4 622.4,204.7 622.6,205.4 622.8,205.9 623.0,206.2 623.1,206.5 623.3,206.1 623.5,206.8 623.7,206.2 623.9,205.2 624.0,202.8 624.2,202.4 624.4,202.4 624.6,203.6 624.7,204.2 624.9,203.7 625.1,202.4 625.3,200.4 625.5,200.7 625.6,196.2 625.8,196.4 626.0,195.9 626.2,194.7 626.4,196.1 626.5,197.8 626.7,196.8 626.9,195.5 627.1,194.0 627.2,193.2 627.4,193.1 627.6,193.5 627.8,196.0 628.0,197.0 628.1,197.6 628.3,195.5 628.5,196.2 628.7,194.7 628.8,193.4 629.0,192.5 629.2,191.6 629.4,190.8 629.6,192.0 629.7,190.9 629.9,191.1 630.1,192.2 630.3,193.7 630.5,191.3 630.6,190.9 630.8,191.6 631.0,191.1 631.2,189.7 631.3,190.1 631.5,187.7 631.7,186.2 631.9,185.7 632.1,186.1 632.2,183.9 632.4,183.4 632.6,185.2 632.8,184.1 633.0,184.9 633.1,185.4 633.3,185.3 633.5,185.3 633.7,185.2 633.8,182.3 634.0,182.4 634.2,184.7 634.4,185.9 634.6,185.5 634.7,185.4 634.9,186.4 635.1,187.0 635.3,189.8 635.5,188.4 635.6,187.4 635.8,188.1 636.0,187.5 636.2,186.9 636.3,186.7 636.5,184.9 636.7,183.8 636.9,184.7 637.1,180.7 637.2,178.6 637.4,178.5 637.6,179.2 637.8,180.1 638.0,180.4 638.1,180.3 638.3,179.1 638.5,180.1 638.7,181.6 638.8,182.0 639.0,182.8 639.2,181.6 639.4,181.9 639.6,182.9 639.7,183.2 639.9,182.8 640.1,183.0 640.3,183.6 640.5,182.7 640.6,182.5 640.8,182.4 641.0,182.5 641.2,183.7 641.3,183.7 641.5,182.9 641.7,181.6 641.9,181.4 642.1,180.6 642.2,179.9 642.4,180.2 642.6,179.3 642.8,179.5 643.0,177.5 643.1,177.3 643.3,178.6 643.5,178.8 643.7,177.5 643.8,177.6 644.0,176.3 644.2,173.4 644.4,173.8 644.6,174.8 644.7,175.1 644.9,174.8 645.1,174.4 645.3,174.9 645.4,172.9 645.6,173.0 645.8,172.2 646.0,170.2 646.2,169.5 646.3,170.3 646.5,171.0 646.7,169.1 646.9,165.1 647.1,164.9 647.2,161.8 647.4,160.2 647.6,165.0 647.8,165.2 647.9,166.5 648.1,167.9 648.3,168.1 648.5,170.1 648.7,171.6 648.8,170.3 649.0,167.0 649.2,169.3 649.4,171.1 649.6,170.0 649.7,167.7 649.9,171.0 650.1,169.5 650.3,171.0 650.4,173.0 650.6,172.4 650.8,169.5 651.0,169.0 651.2,168.0 651.3,169.0 651.5,169.0 651.7,168.1 651.9,171.7 652.1,170.4 652.2,170.3 652.4,167.1 652.6,166.8 652.8,166.4 652.9,165.5 653.1,164.5 653.3,163.0 653.5,161.3 653.7,161.2 653.8,159.7 654.0,157.7 654.2,156.7 654.4,155.9 654.6,153.9 654.7,153.1 654.9,152.3 655.1,149.2 655.3,148.9 655.4,150.4 655.6,149.4 655.8,152.9 656.0,155.7 656.2,153.2 656.3,151.5 656.5,151.0 656.7,148.8 656.9,153.1 657.1,159.0 657.2,164.6 657.4,173.7 657.6,174.0 657.8,170.9 657.9,169.6 658.1,165.6 658.3,163.9 658.5,162.7 658.7,165.9 658.8,169.1 659.0,168.3 659.2,170.1 659.4,170.1 659.6,168.2 659.7,169.1 659.9,167.8 660.1,167.1 660.3,167.0 660.4,168.8 660.6,169.6 660.8,168.0 661.0,169.6 661.2,167.9 661.3,167.4 661.5,168.1 661.7,169.9 661.9,175.0 662.0,178.5 662.2,177.9 662.4,181.4 662.6,178.5 662.8,179.6 662.9,180.3 663.1,181.3 663.3,180.9 663.5,180.0 663.7,175.7 663.8,175.4 664.0,177.8 664.2,179.3 664.4,183.4 664.5,185.4 664.7,184.2 664.9,182.2 665.1,184.6 665.3,183.4 665.4,179.5 665.6,180.9 665.8,183.4 666.0,184.2 666.2,184.2 666.3,183.5 666.5,184.7 666.7,182.2 666.9,179.5 667.0,179.9 667.2,179.1 667.4,179.4 667.6,177.5 667.8,177.7 667.9,180.0 668.1,181.0 668.3,178.4 668.5,178.0 668.7,179.2 668.8,182.2 669.0,183.4 669.2,183.7 669.4,182.9 669.5,183.5 669.7,187.4 669.9,183.9 670.1,184.6 670.3,181.4 670.4,180.6 670.6,181.6 670.8,181.4 671.0,184.3 671.2,183.7 671.3,181.9 671.5,183.0 671.7,183.0 671.9,183.2 672.0,187.8 672.2,187.9 672.4,189.2 672.6,188.9 672.8,192.0 672.9,194.0 673.1,197.6 673.3,199.5 673.5,195.8 673.7,202.1 673.8,201.9 674.0,203.3 674.2,202.9 674.4,201.0 674.5,196.4 674.7,196.4 674.9,199.0 675.1,196.2 675.3,196.0 675.4,197.9 675.6,199.1 675.8,199.8 676.0,199.4 676.2,194.9 676.3,192.7 676.5,190.2 676.7,190.2 676.9,192.4 677.0,192.8 677.2,191.7 677.4,191.5 677.6,195.1 677.8,198.5 677.9,200.3 678.1,200.7 678.3,195.8 678.5,198.0 678.6,194.2 678.8,194.3 679.0,195.9 679.2,196.5 679.4,200.6 679.5,200.8 679.7,202.9 679.9,200.6 680.1,197.7 680.3,197.8 680.4,197.1 680.6,196.4 680.8,193.0 681.0,193.7 681.1,194.2 681.3,195.9 681.5,196.2 681.7,196.8 681.9,194.4 682.0,198.4 682.2,200.1 682.4,198.6 682.6,200.3 682.8,201.3 682.9,202.4 683.1,200.1 683.3,199.5 683.5,201.2 683.6,197.2 683.8,195.3 684.0,195.3 684.2,189.5 684.4,191.3 684.5,188.9 684.7,189.4 684.9,187.3 685.1,195.4 685.3,195.0 685.4,194.9 685.6,201.8 685.8,198.2 686.0,200.3 686.1,200.1 686.3,199.2 686.5,203.2 686.7,198.1 686.9,191.8 687.0,196.8 687.2,196.0 687.4,195.5 687.6,196.6 687.8,201.9 687.9,200.1 688.1,197.7 688.3,197.1 688.5,191.6 688.6,193.7 688.8,194.5 689.0,195.7 689.2,195.4 689.4,198.9 689.5,198.2 689.7,197.0 689.9,199.2 690.1,197.2 690.3,197.1 690.4,195.0 690.6,198.0 690.8,197.7 691.0,198.7 691.1,201.2 691.3,201.0 691.5,201.6 691.7,199.8 691.9,201.0 692.0,199.3 692.2,195.3 692.4,194.7 692.6,195.7 692.8,198.9 692.9,199.1 693.1,200.6 693.3,200.1 693.5,199.6 693.6,197.3 693.8,199.6 694.0,199.4 694.2,201.3 694.4,203.2 694.5,205.5 694.7,207.5 694.9,207.3 695.1,208.0 695.2,209.1 695.4,209.5 695.6,208.3 695.8,210.4 696.0,209.9 696.1,206.9 696.3,206.9 696.5,207.5 696.7,205.7 696.9,205.7 697.0,204.2 697.2,205.8 697.4,202.6 697.6,202.4 697.7,203.1 697.9,200.0 698.1,199.0 698.3,201.1 698.5,201.4 698.6,200.4 698.8,198.4 699.0,198.7 699.2,197.4 699.4,198.5 699.5,195.6 699.7,194.5 699.9,192.6 700.1,192.3 700.2,189.1 700.4,189.4 700.6,193.3 700.8,188.9 701.0,189.2 701.1,188.6 701.3,189.3 701.5,186.2 701.7,175.2 701.9,178.8 702.0,177.7 702.2,178.1 702.4,173.1 702.6,172.2 702.7,172.4 702.9,171.7 703.1,175.1 703.3,182.0 703.5,180.5 703.6,179.8 703.8,179.5 704.0,179.1 704.2,177.3 704.4,172.7 704.5,173.9 704.7,173.5 704.9,174.2 705.1,174.7 705.2,179.9 705.4,180.7 705.6,178.3 705.8,178.8 706.0,171.8 706.1,168.2 706.3,168.5 706.5,166.3 706.7,164.2 706.9,163.5 707.0,163.2 707.2,162.4 707.4,165.8 707.6,166.3 707.7,166.0 707.9,159.4 708.1,159.8 708.3,160.7 708.5,158.1 708.6,163.0 708.8,162.4 709.0,162.7 709.2,165.8 709.3,168.2 709.5,165.0 709.7,164.7 709.9,174.0 710.1,174.0 710.2,177.2 710.4,181.2 710.6,174.8 710.8,178.3 711.0,179.4 711.1,175.5 711.3,175.0 711.5,178.7 711.7,180.0 711.8,178.4 712.0,179.4 712.2,182.0 712.4,180.9 712.6,179.6 712.7,177.8 712.9,177.3 713.1,178.2 713.3,179.1 713.5,178.2 713.6,179.7 713.8,179.8 714.0,180.6 714.2,178.2 714.3,173.5 714.5,174.6 714.7,174.7 714.9,175.3 715.1,174.8 715.2,174.0 715.4,171.5 715.6,164.8 715.8,165.1 716.0,164.4 716.1,167.0 716.3,167.5 716.5,165.2 716.7,165.6 716.8,160.8 717.0,161.0 717.2,163.4 717.4,164.1 717.6,163.5 717.7,167.9 717.9,168.9 718.1,169.1 718.3,168.5 718.5,167.5 718.6,167.5 718.8,168.7 719.0,169.4 719.2,170.4 719.3,168.0 719.5,168.9 719.7,169.0 719.9,167.2 720.1,165.6 720.2,165.1 720.4,165.6 720.6,164.7 720.8,166.8 721.0,168.5 721.1,171.5 721.3,175.3 721.5,177.0 721.7,177.9 721.8,175.3 722.0,176.2 722.2,172.7 722.4,174.9 722.6,174.1 722.7,173.4 722.9,172.8 723.1,169.2 723.3,169.3 723.5,169.7 723.6,169.2 723.8,166.5 724.0,170.1 724.2,168.5 724.3,169.9 724.5,170.7 724.7,169.5 724.9,168.0 725.1,168.2 725.2,166.4 725.4,163.9 725.6,162.3 725.8,162.2 725.9,163.0 726.1,163.9 726.3,161.0 726.5,162.2 726.7,165.2 726.8,164.0 727.0,163.9 727.2,163.4 727.4,165.6 727.6,165.0 727.7,165.8 727.9,165.8 728.1,165.7 728.3,167.8 728.4,166.2 728.6,166.1 728.8,165.0 729.0,162.1 729.2,160.1 729.3,160.0 729.5,160.7 729.7,160.2 729.9,163.5 730.1,163.1 730.2,162.8 730.4,164.0 730.6,163.7 730.8,163.2 730.9,162.2 731.1,163.1 731.3,164.2 731.5,164.0 731.7,160.8 731.8,159.5 732.0,158.3 732.2,158.8 732.4,158.8 732.6,160.2 732.7,163.3 732.9,162.9 733.1,163.2 733.3,163.1 733.4,164.0 733.6,162.3 733.8,160.9 734.0,163.1 734.2,164.4 734.3,166.2 734.5,164.3 734.7,164.6 734.9,164.7 735.1,165.6 735.2,168.0 735.4,167.7 735.6,167.0 735.8,167.6 735.9,166.2 736.1,165.0 736.3,165.5 736.5,165.2 736.7,164.4 736.8,165.1 737.0,160.6 737.2,161.0 737.4,158.8 737.6,159.3 737.7,159.8 737.9,160.1 738.1,162.0 738.3,161.2 738.4,161.9 738.6,160.2 738.8,159.8 739.0,156.8 739.2,156.8 739.3,154.9 739.5,155.7 739.7,157.2 739.9,156.0 740.1,158.5 740.2,156.5 740.4,156.4 740.6,155.0 740.8,155.6 740.9,157.1 741.1,158.1 741.3,157.4 741.5,156.6 741.7,160.2 741.8,159.8 742.0,165.5 742.2,179.3 742.4,174.7 742.5,173.5 742.7,170.7 742.9,170.9 743.1,171.0 743.3,169.0 743.4,168.0 743.6,169.3 743.8,168.0 744.0,164.3 744.2,166.1 744.3,166.1 744.5,162.4 744.7,163.1 744.9,165.7 745.0,167.1 745.2,167.6 745.4,166.9 745.6,173.0 745.8,167.2 745.9,166.2 746.1,164.5 746.3,159.8 746.5,163.3 746.7,169.8 746.8,166.1 747.0,168.5 747.2,171.6 747.4,174.5 747.5,181.5 747.7,182.0 747.9,186.1 748.1,189.8 748.3,185.9 748.4,190.5 748.6,185.1 748.8,181.1 749.0,181.8 749.2,181.0 749.3,181.7 749.5,181.8 749.7,182.3 749.9,179.7 750.0,180.5 750.2,177.2 750.4,178.1 750.6,177.6 750.8,177.7 750.9,178.5 751.1,175.3 751.3,176.8 751.5,176.5 751.7,173.8 751.8,173.1 752.0,175.4 752.2,174.1 752.4,174.5 752.5,176.0 752.7,174.0 752.9,172.7 753.1,171.4 753.3,170.2 753.4,170.1 753.6,170.7 753.8,169.5 754.0,169.6 754.2,169.7 754.3,169.8 754.5,172.1 754.7,173.1 754.9,171.9 755.0,170.3 755.2,170.6 755.4,171.2 755.6,176.0 755.8,175.1 755.9,173.8 756.1,174.7 756.3,173.7 756.5,173.9 756.7,169.7 756.8,168.6 757.0,168.4 757.2,168.8 757.4,167.9 757.5,167.0 757.7,165.8 757.9,167.1 758.1,169.3 758.3,168.7 758.4,171.8 758.6,169.1 758.8,168.9 759.0,168.4 759.1,165.9 759.3,166.2 759.5,166.0 759.7,164.8 759.9,166.0 760.0,164.9 760.2,160.3 760.4,155.3 760.6,150.3 760.8,135.9 760.9,135.4 761.1,132.2 761.3,131.4 761.5,137.4 761.6,134.9 761.8,137.7 762.0,140.0 762.2,150.1 762.4,148.5 762.5,141.7 762.7,141.8 762.9,141.5 763.1,142.0 763.3,150.4 763.4,150.1 763.6,148.5 763.8,144.7 764.0,145.5 764.1,144.3 764.3,142.2 764.5,140.1 764.7,141.4 764.9,141.4 765.0,143.3 765.2,141.8 765.4,143.4 765.6,144.3 765.8,144.8 765.9,141.7 766.1,136.3 766.3,136.4 766.5,140.4 766.6,143.3 766.8,141.9 767.0,141.0 767.2,140.2 767.4,142.4 767.5,141.5 767.7,136.3 767.9,138.0 768.1,137.2 768.3,137.7 768.4,138.6 768.6,140.3 768.8,144.0 769.0,141.6 769.1,145.2 769.3,144.5 769.5,143.2 769.7,141.3 769.9,139.7 770.0,141.2 770.2,143.3 770.4,137.7 770.6,140.1 770.8,142.9 770.9,142.5 771.1,146.3 771.3,145.6 771.5,144.2 771.6,144.8 771.8,145.4 772.0,141.8 772.2,135.0 772.4,135.1 772.5,136.2 772.7,136.1 772.9,135.5 773.1,137.3 773.3,136.6 773.4,135.7 773.6,136.2 773.8,137.8 774.0,140.6 774.1,141.3 774.3,140.0 774.5,139.3 774.7,142.2 774.9,143.2 775.0,140.4 775.2,138.7 775.4,136.2 775.6,136.9 775.7,133.0 775.9,133.1 776.1,133.4 776.3,134.4 776.5,138.3 776.6,135.7 776.8,135.6 777.0,135.1 777.2,133.5 777.4,133.4 777.5,129.5 777.7,131.3 777.9,132.8 778.1,131.1 778.2,127.6 778.4,129.5 778.6,123.9 778.8,124.5 779.0,125.0 779.1,124.7 779.3,126.8 779.5,127.6 779.7,129.6 779.9,130.2 780.0,132.3 780.2,129.7 780.4,129.6 780.6,128.5 780.7,124.9 780.9,127.0 781.1,126.0 781.3,129.4 781.5,127.9 781.6,128.2 781.8,126.7 782.0,125.9 782.2,126.3 782.4,122.5 782.5,118.1 782.7,117.9 782.9,115.2 783.1,111.7 783.2,106.9 783.4,108.2 783.6,109.0 783.8,100.3 784.0,102.5 784.1,106.7 784.3,106.2 784.5,104.1 784.7,106.8 784.9,106.4 785.0,104.1 785.2,104.3 785.4,100.8 785.6,106.5 785.7,106.2 785.9,111.8 786.1,113.2 786.3,111.0 786.5,109.3 786.6,109.0 786.8,107.3 787.0,104.7 787.2,101.3 787.4,97.2 787.5,92.1 787.7,93.1 787.9,93.0 788.1,101.9 788.2,100.9 788.4,107.0 788.6,104.0 788.8,110.3 789.0,108.2 789.1,112.8 789.3,106.2 789.5,113.5 789.7,114.9 789.9,122.6 790.0,126.9 790.2,125.4 790.4,119.1 790.6,118.6 790.7,123.0 790.9,120.9 791.1,121.4 791.3,120.4 791.5,126.7 791.6,124.9 791.8,126.4 792.0,129.8 792.2,129.9 792.3,125.5 792.5,125.0 792.7,122.3 792.9,124.9 793.1,122.0 793.2,119.7 793.4,121.2 793.6,123.6 793.8,122.6 794.0,126.6 794.1,129.0 794.3,130.1 794.5,129.6 794.7,132.1 794.8,131.0 795.0,126.6 795.2,126.8 795.4,126.4 795.6,128.3 795.7,125.9 795.9,129.7 796.1,129.1 796.3,129.3 796.5,126.3 796.6,128.1 796.8,130.9 797.0,133.8 797.2,134.2 797.3,131.7 797.5,131.0 797.7,133.3 797.9,127.3 798.1,124.8 798.2,125.0 798.4,126.7 798.6,126.0 798.8,128.7 799.0,127.7 799.1,118.0 799.3,117.0 799.5,116.5 799.7,116.8 799.8,117.4 800.0,117.4 800.2,119.3 800.4,121.4 800.6,120.0 800.7,120.7 800.9,122.1 801.1,121.6 801.3,120.3 801.5,122.4 801.6,125.6 801.8,128.4 802.0,128.7 802.2,130.5 802.3,132.1 802.5,129.9 802.7,129.4 802.9,128.6 803.1,125.2 803.2,126.1 803.4,128.7 803.6,127.6 803.8,125.1 804.0,133.6 804.1,133.9 804.3,133.8 804.5,132.6 804.7,136.0 804.8,136.8 805.0,135.2 805.2,134.8 805.4,138.3 805.6,133.4 805.7,136.2 805.9,135.2 806.1,135.6 806.3,135.0 806.4,134.7 806.6,137.0 806.8,145.7 807.0,152.5 807.2,150.6 807.3,148.7 807.5,152.1 807.7,146.8 807.9,146.0 808.1,145.4 808.2,145.8 808.4,147.9 808.6,145.2 808.8,141.7 808.9,143.4 809.1,145.8 809.3,146.4 809.5,146.1 809.7,150.9 809.8,148.2 810.0,151.3 810.2,156.1 810.4,154.3 810.6,151.1 810.7,150.3 810.9,155.0 811.1,152.7 811.3,153.4 811.4,154.5 811.6,149.9 811.8,149.8 812.0,149.2 812.2,146.8 812.3,144.4 812.5,146.7 812.7,147.3 812.9,144.1 813.1,144.8 813.2,148.4 813.4,151.2 813.6,152.4 813.8,150.1 813.9,152.8 814.1,152.4 814.3,151.3 814.5,147.6 814.7,146.8 814.8,147.6 815.0,147.8 815.2,143.8 815.4,142.5 815.6,143.6 815.7,141.4 815.9,142.9 816.1,141.2 816.3,145.6 816.4,143.8 816.6,143.9 816.8,142.3 817.0,139.7 817.2,140.1 817.3,141.6 817.5,144.4 817.7,144.9 817.9,143.1 818.1,144.2 818.2,146.8 818.4,148.8 818.6,147.1 818.8,147.5 818.9,147.8 819.1,148.5 819.3,149.6 819.5,145.4 819.7,146.2 819.8,146.1 820.0,146.1 820.2,147.0 820.4,149.4 820.6,146.7 820.7,146.8 820.9,146.0 821.1,145.5 821.3,146.4 821.4,148.4 821.6,148.5 821.8,149.9 822.0,148.9 822.2,148.2 822.3,146.2 822.5,145.7 822.7,143.9 822.9,140.6 823.0,136.9 823.2,137.3 823.4,136.5 823.6,137.5 823.8,139.6 823.9,138.8 824.1,142.3 824.3,143.9 824.5,142.7 824.7,143.5 824.8,141.8 825.0,141.5 825.2,142.3 825.4,140.7 825.5,144.9 825.7,143.5 825.9,142.6 826.1,143.3 826.3,144.0 826.4,146.9 826.6,146.0 826.8,145.2 827.0,146.6 827.2,145.2 827.3,148.7 827.5,151.7 827.7,151.1 827.9,148.4 828.0,148.5 828.2,145.3 828.4,146.3 828.6,146.9 828.8,151.3 828.9,150.0 829.1,153.0 829.3,157.4 829.5,153.3 829.7,153.2 829.8,151.6 830.0,151.3 830.2,151.4 830.4,154.0 830.5,153.0 830.7,151.9 830.9,151.7 831.1,150.1 831.3,151.3 831.4,154.1 831.6,153.1 831.8,157.0 832.0,155.9 832.2,155.6 832.3,152.6 832.5,153.8 832.7,154.5 832.9,156.8 833.0,162.7 833.2,165.5 833.4,167.2 833.6,165.4 833.8,165.3 833.9,170.9 834.1,180.9 834.3,172.5 834.5,169.2 834.7,166.8 834.8,168.2 835.0,167.6 835.2,166.6 835.4,167.4 835.5,170.6 835.7,170.8 835.9,171.6 836.1,166.6 836.3,167.8 836.4,164.8 836.6,165.6 836.8,167.5 837.0,166.0 837.2,171.3 837.3,168.1 837.5,168.9 837.7,165.8 837.9,165.6 838.0,168.5 838.2,170.3 838.4,172.0 838.6,174.5 838.8,173.4 838.9,182.2 839.1,182.4 839.3,178.8 839.5,176.4 839.6,174.0 839.8,174.3 840.0,179.8 840.2,181.4 840.4,179.8 840.5,178.3 840.7,179.6 840.9,177.8 841.1,179.7 841.3,177.3 841.4,178.0 841.6,178.1 841.8,173.9 842.0,175.6 842.1,178.8 842.3,178.2 842.5,178.1 842.7,176.9 842.9,175.8 843.0,173.5 843.2,174.5 843.4,175.0 843.6,172.7 843.8,171.2 843.9,169.1 844.1,169.8 844.3,167.7 844.5,171.4 844.6,168.8 844.8,166.1 845.0,168.3 845.2,165.3 845.4,166.0 845.5,165.9 845.7,168.2 845.9,165.3 846.1,162.7 846.3,160.1 846.4,158.3 846.6,160.4 846.8,157.1 847.0,158.0 847.1,157.6 847.3,157.5 847.5,161.2 847.7,161.7 847.9,161.4 848.0,164.9 848.2,166.2 848.4,166.7 848.6,168.0 848.8,171.7 848.9,169.1 849.1,170.0 849.3,169.4 849.5,171.9 849.6,171.1 849.8,171.9 850.0,170.7 850.2,172.4 850.4,172.6 850.5,174.9 850.7,175.6 850.9,179.0 851.1,180.4 851.3,178.3 851.4,176.1 851.6,177.0 851.8,176.8 852.0,179.0 852.1,175.2 852.3,174.6 852.5,175.5 852.7,176.4 852.9,175.3 853.0,177.1 853.2,177.7 853.4,177.3 853.6,178.7 853.8,180.5 853.9,177.6 854.1,177.6 854.3,178.9 854.5,179.3 854.6,176.9 854.8,178.9 855.0,180.3"/>
</svg>
