<svg xmlns="http://www.w3.org/2000/svg" width="900" height="360">
<rect width="100%" height="100%" fill="white"/>
<text x="30" y="20" font-size="16">上证50指数 价格</text>
<polyline fill="none" stroke="#1f77b4" stroke-width="2" points="30.0,307.7 30.2,306.9 30.4,303.2 30.6,302.1 30.7,301.3 30.9,300.1 31.1,301.6 31.3,299.0 31.5,300.1 31.7,301.8 31.9,302.2 32.0,301.5 32.2,300.2 32.4,302.7 32.6,300.9 32.8,300.0 33.0,298.1 33.1,298.2 33.3,298.6 33.5,297.7 33.7,298.7 33.9,299.5 34.1,300.7 34.3,300.5 34.4,298.5 34.6,298.5 34.8,298.1 35.0,298.6 35.2,298.4 35.4,300.8 35.6,300.8 35.7,302.5 35.9,301.8 36.1,301.1 36.3,300.7 36.5,300.8 36.7,302.3 36.8,301.9 37.0,302.4 37.2,303.5 37.4,303.2 37.6,300.9 37.8,300.6 38.0,300.3 38.1,297.9 38.3,297.6 38.5,297.6 38.7,299.4 38.9,298.0 39.1,297.7 39.3,298.7 39.4,299.1 39.6,299.1 39.8,299.3 40.0,300.1 40.2,300.2 40.4,299.6 40.6,298.5 40.7,298.2 40.9,298.9 41.1,298.5 41.3,299.0 41.5,299.3 41.7,301.1 41.8,301.7 42.0,302.3 42.2,302.8 42.4,303.5 42.6,302.4 42.8,303.6 43.0,303.8 43.1,304.5 43.3,303.9 43.5,305.1 43.7,304.8 43.9,305.4 44.1,305.5 44.3,306.5 44.4,305.8 44.6,308.0 44.8,307.4 45.0,305.8 45.2,306.1 45.4,307.9 45.5,309.1 45.7,308.5 45.9,308.5 46.1,308.8 46.3,308.1 46.5,308.3 46.7,309.3 46.8,308.8 47.0,307.5 47.2,308.0 47.4,307.6 47.6,306.7 47.8,307.6 48.0,308.7 48.1,308.7 48.3,309.7 48.5,311.1 48.7,312.1 48.9,311.9 49.1,312.0 49.3,313.3 49.4,312.0 49.6,311.6 49.8,313.2 50.0,314.4 50.2,314.5 50.4,313.7 50.5,314.2 50.7,314.7 50.9,315.8 51.1,316.4 51.3,315.1 51.5,315.3 51.7,313.3 51.8,313.2 52.0,313.0 52.2,312.8 52.4,313.4 52.6,313.1 52.8,313.4 53.0,314.8 53.1,314.6 53.3,314.2 53.5,313.2 53.7,311.7 53.9,311.6 54.1,312.2 54.2,312.1 54.4,314.2 54.6,314.0 54.8,314.9 55.0,314.9 55.2,314.7 55.4,313.8 55.5,314.7 55.7,315.1 55.9,315.6 56.1,313.4 56.3,314.5 56.5,314.3 56.7,313.6 56.8,313.2 57.0,314.1 57.2,314.6 57.4,314.6 57.6,314.9 57.8,314.3 58.0,314.3 58.1,314.9 58.3,314.8 58.5,315.9 58.7,315.3 58.9,315.6 59.1,315.7 59.2,316.4 59.4,316.5 59.6,315.5 59.8,316.6 60.0,316.5 60.2,316.7 60.4,317.0 60.5,316.8 60.7,317.8 60.9,319.0 61.1,318.7 61.3,320.1 61.5,318.1 61.7,315.7 61.8,314.9 62.0,312.7 62.2,310.3 62.4,311.1 62.6,312.7 62.8,310.1 62.9,311.3 63.1,311.7 63.3,311.6 63.5,312.4 63.7,313.3 63.9,312.5 64.1,313.4 64.2,314.9 64.4,315.0 64.6,316.9 64.8,316.7 65.0,316.4 65.2,316.3 65.4,316.7 65.5,317.8 65.7,316.7 65.9,317.7 66.1,316.9 66.3,316.3 66.5,316.4 66.7,317.3 66.8,317.9 67.0,318.0 67.2,316.8 67.4,318.1 67.6,318.0 67.8,317.8 67.9,317.8 68.1,315.3 68.3,315.6 68.5,315.3 68.7,314.6 68.9,314.6 69.1,315.4 69.2,315.1 69.4,314.6 69.6,314.7 69.8,315.6 70.0,316.0 70.2,315.8 70.4,316.0 70.5,316.7 70.7,316.7 70.9,317.0 71.1,317.3 71.3,317.3 71.5,317.0 71.6,317.5 71.8,317.5 72.0,316.7 72.2,317.5 72.4,317.7 72.6,318.0 72.8,317.6 72.9,317.6 73.1,318.3 73.3,319.2 73.5,319.2 73.7,317.7 73.9,318.8 74.1,318.7 74.2,319.0 74.4,319.0 74.6,319.3 74.8,319.4 75.0,319.4 75.2,320.6 75.4,320.3 75.5,320.9 75.7,320.8 75.9,320.1 76.1,319.8 76.3,319.8 76.5,320.0 76.6,320.4 76.8,321.7 77.0,321.3 77.2,321.8 77.4,322.2 77.6,320.2 77.8,319.4 77.9,319.5 78.1,320.0 78.3,321.0 78.5,321.1 78.7,321.6 78.9,321.3 79.1,318.1 79.2,319.0 79.4,317.2 79.6,317.0 79.8,317.4 80.0,318.4 80.2,317.1 80.3,316.1 80.5,316.8 80.7,316.8 80.9,316.7 81.1,317.5 81.3,317.7 81.5,318.4 81.6,318.0 81.8,318.2 82.0,317.9 82.2,316.9 82.4,317.4 82.6,318.8 82.8,318.6 82.9,318.3 83.1,319.5 83.3,320.1 83.5,320.6 83.7,321.0 83.9,320.9 84.1,322.0 84.2,322.4 84.4,322.0 84.6,322.1 84.8,322.2 85.0,322.4 85.2,323.3 85.3,322.9 85.5,320.9 85.7,322.0 85.9,322.4 86.1,321.3 86.3,320.8 86.5,319.8 86.6,320.3 86.8,321.2 87.0,319.9 87.2,320.7 87.4,321.3 87.6,322.1 87.8,321.9 87.9,322.7 88.1,323.1 88.3,323.0 88.5,323.3 88.7,323.2 88.9,323.9 89.0,323.0 89.2,323.4 89.4,324.4 89.6,324.1 89.8,324.7 90.0,326.0 90.2,325.8 90.3,326.5 90.5,326.3 90.7,326.1 90.9,326.0 91.1,326.1 91.3,327.2 91.5,327.3 91.6,327.2 91.8,327.9 92.0,328.2 92.2,327.9 92.4,327.7 92.6,328.6 92.8,329.9 92.9,330.0 93.1,328.8 93.3,329.0 93.5,324.7 93.7,324.2 93.9,325.1 94.0,325.6 94.2,326.0 94.4,326.7 94.6,325.8 94.8,325.4 95.0,324.1 95.2,324.8 95.3,324.5 95.5,324.9 95.7,324.7 95.9,323.9 96.1,324.4 96.3,324.7 96.5,325.7 96.6,326.5 96.8,326.5 97.0,327.0 97.2,327.4 97.4,327.4 97.6,328.0 97.7,328.0 97.9,326.1 98.1,326.4 98.3,326.0 98.5,326.4 98.7,326.5 98.9,326.5 99.0,326.0 99.2,325.8 99.4,324.9 99.6,325.2 99.8,324.0 100.0,323.1 100.2,323.3 100.3,323.4 100.5,323.3 100.7,322.8 100.9,322.8 101.1,323.0 101.3,321.7 101.4,321.6 101.6,321.5 101.8,320.9 102.0,320.2 102.2,320.9 102.4,319.7 102.6,320.5 102.7,320.1 102.9,321.5 103.1,321.3 103.3,320.9 103.5,321.2 103.7,320.7 103.9,320.8 104.0,320.9 104.2,321.7 104.4,321.9 104.6,321.3 104.8,320.5 105.0,320.4 105.2,320.4 105.3,321.4 105.5,320.7 105.7,320.6 105.9,320.8 106.1,321.0 106.3,320.4 106.4,320.1 106.6,320.1 106.8,320.3 107.0,320.2 107.2,320.6 107.4,321.8 107.6,322.8 107.7,323.1 107.9,323.1 108.1,323.9 108.3,323.9 108.5,323.2 108.7,323.1 108.9,323.5 109.0,322.9 109.2,322.9 109.4,323.5 109.6,324.3 109.8,324.9 110.0,324.7 110.1,324.8 110.3,324.5 110.5,324.5 110.7,324.7 110.9,325.2 111.1,326.4 111.3,326.2 111.4,326.3 111.6,325.6 111.8,325.8 112.0,325.3 112.2,325.9 112.4,325.6 112.6,326.0 112.7,325.7 112.9,325.9 113.1,326.6 113.3,326.6 113.5,326.8 113.7,327.1 113.9,326.7 114.0,326.8 114.2,325.5 114.4,325.7 114.6,326.5 114.8,326.0 115.0,325.4 115.1,325.1 115.3,325.4 115.5,325.9 115.7,325.6 115.9,325.6 116.1,325.8 116.3,326.2 116.4,325.6 116.6,325.0 116.8,325.2 117.0,324.3 117.2,324.5 117.4,324.6 117.6,324.2 117.7,324.2 117.9,323.9 118.1,323.9 118.3,323.5 118.5,323.8 118.7,323.5 118.8,323.2 119.0,322.9 119.2,323.2 119.4,323.1 119.6,322.4 119.8,322.9 120.0,321.7 120.1,320.5 120.3,319.8 120.5,319.7 120.7,319.7 120.9,320.2 121.1,319.9 121.3,320.3 121.4,321.5 121.6,321.2 121.8,320.0 122.0,319.6 122.2,319.6 122.4,319.6 122.6,319.7 122.7,319.1 122.9,318.0 123.1,318.4 123.3,317.9 123.5,318.8 123.7,318.1 123.8,318.2 124.0,317.9 124.2,317.5 124.4,318.4 124.6,318.3 124.8,318.3 125.0,317.2 125.1,317.4 125.3,316.8 125.5,316.4 125.7,316.1 125.9,315.7 126.1,315.5 126.3,316.9 126.4,316.6 126.6,316.7 126.8,318.0 127.0,318.2 127.2,318.6 127.4,318.3 127.5,317.9 127.7,318.1 127.9,317.5 128.1,317.7 128.3,317.9 128.5,317.0 128.7,317.0 128.8,316.9 129.0,317.0 129.2,317.4 129.4,317.2 129.6,317.0 129.8,316.2 130.0,316.8 130.1,316.8 130.3,315.8 130.5,315.1 130.7,314.7 130.9,315.0 131.1,315.3 131.3,314.5 131.4,314.2 131.6,314.5 131.8,315.7 132.0,314.4 132.2,313.6 132.4,313.1 132.5,312.9 132.7,313.5 132.9,312.2 133.1,312.1 133.3,312.8 133.5,311.6 133.7,311.9 133.8,310.4 134.0,308.0 134.2,306.4 134.4,306.0 134.6,306.7 134.8,303.9 135.0,301.3 135.1,301.8 135.3,301.7 135.5,302.6 135.7,300.5 135.9,300.6 136.1,303.3 136.2,303.6 136.4,303.9 136.6,302.9 136.8,301.0 137.0,300.8 137.2,301.8 137.4,299.8 137.5,300.5 137.7,300.0 137.9,300.2 138.1,304.3 138.3,303.5 138.5,305.4 138.7,305.1 138.8,305.3 139.0,306.1 139.2,306.1 139.4,304.2 139.6,303.5 139.8,303.2 140.0,303.5 140.1,303.4 140.3,303.1 140.5,301.5 140.7,301.7 140.9,301.7 141.1,299.9 141.2,300.1 141.4,298.4 141.6,299.1 141.8,300.8 142.0,299.5 142.2,300.3 142.4,300.4 142.5,300.1 142.7,300.2 142.9,303.8 143.1,303.3 143.3,302.7 143.5,302.9 143.7,304.7 143.8,304.2 144.0,303.5 144.2,303.4 144.4,302.6 144.6,302.5 144.8,303.2 144.9,303.9 145.1,306.2 145.3,306.9 145.5,307.1 145.7,307.1 145.9,308.4 146.1,309.3 146.2,308.1 146.4,308.2 146.6,306.8 146.8,306.8 147.0,308.3 147.2,307.1 147.4,306.3 147.5,307.0 147.7,307.1 147.9,307.1 148.1,306.3 148.3,306.1 148.5,305.6 148.7,305.6 148.8,304.1 149.0,304.0 149.2,304.1 149.4,304.1 149.6,305.2 149.8,304.3 149.9,303.8 150.1,303.5 150.3,304.3 150.5,303.9 150.7,303.4 150.9,302.7 151.1,302.6 151.2,302.5 151.4,300.7 151.6,300.5 151.8,300.1 152.0,300.3 152.2,299.8 152.4,300.7 152.5,300.9 152.7,302.0 152.9,301.1 153.1,300.1 153.3,299.1 153.5,296.4 153.6,296.4 153.8,296.4 154.0,296.8 154.2,296.6 154.4,297.6 154.6,298.4 154.8,296.8 154.9,296.7 155.1,296.4 155.3,297.8 155.5,295.9 155.7,295.3 155.9,294.5 156.1,295.5 156.2,294.6 156.4,293.3 156.6,292.0 156.8,292.2 157.0,291.4 157.2,289.4 157.4,288.5 157.5,289.7 157.7,287.7 157.9,288.2 158.1,289.4 158.3,288.2 158.5,285.9 158.6,285.4 158.8,283.8 159.0,280.7 159.2,279.7 159.4,279.3 159.6,278.3 159.8,279.0 159.9,279.3 160.1,280.4 160.3,279.2 160.5,276.1 160.7,275.7 160.9,271.5 161.1,270.5 161.2,270.6 161.4,269.9 161.6,273.9 161.8,268.6 162.0,267.2 162.2,267.2 162.3,265.0 162.5,263.3 162.7,260.3 162.9,259.8 163.1,259.8 163.3,261.6 163.5,262.0 163.6,258.2 163.8,257.6 164.0,253.6 164.2,252.9 164.4,247.8 164.6,245.5 164.8,247.0 164.9,244.0 165.1,238.3 165.3,236.0 165.5,238.7 165.7,242.5 165.9,236.0 166.1,233.9 166.2,236.6 166.4,238.0 166.6,233.6 166.8,227.7 167.0,225.4 167.2,222.4 167.3,226.0 167.5,221.0 167.7,216.7 167.9,218.6 168.1,229.4 168.3,229.4 168.5,236.6 168.6,240.3 168.8,236.7 169.0,233.2 169.2,231.6 169.4,233.0 169.6,227.2 169.8,225.2 169.9,220.3 170.1,215.8 170.3,216.0 170.5,215.2 170.7,231.0 170.9,226.1 171.0,230.3 171.2,228.2 171.4,231.8 171.6,227.6 171.8,223.7 172.0,222.1 172.2,222.6 172.3,222.8 172.5,222.1 172.7,225.8 172.9,223.0 173.1,225.3 173.3,220.2 173.5,220.3 173.6,218.9 173.8,217.8 174.0,218.4 174.2,216.2 174.4,215.6 174.6,212.6 174.8,210.9 174.9,211.8 175.1,207.8 175.3,206.3 175.5,205.6 175.7,204.1 175.9,204.2 176.0,200.3 176.2,198.0 176.4,195.5 176.6,193.5 176.8,194.8 177.0,189.7 177.2,190.4 177.3,191.7 177.5,199.6 177.7,192.5 177.9,184.8 178.1,184.2 178.3,182.8 178.5,181.0 178.6,182.6 178.8,176.9 179.0,171.4 179.2,169.3 179.4,167.4 179.6,168.7 179.7,167.4 179.9,175.9 180.1,171.6 180.3,168.3 180.5,169.7 180.7,168.9 180.9,167.6 181.0,164.8 181.2,165.8 181.4,163.2 181.6,159.0 181.8,155.1 182.0,169.5 182.2,163.3 182.3,165.8 182.5,181.5 182.7,175.3 182.9,175.1 183.1,169.6 183.3,169.6 183.5,165.0 183.6,160.1 183.8,155.5 184.0,158.1 184.2,156.2 184.4,148.9 184.6,149.0 184.7,154.5 184.9,150.7 185.1,156.1 185.3,163.2 185.5,161.4 185.7,154.6 185.9,161.1 186.0,165.1 186.2,165.5 186.4,162.2 186.6,168.0 186.8,177.8 187.0,169.2 187.2,163.4 187.3,163.6 187.5,163.5 187.7,161.1 187.9,161.1 188.1,167.9 188.3,162.1 188.4,160.4 188.6,160.9 188.8,151.2 189.0,142.1 189.2,142.0 189.4,136.2 189.6,135.4 189.7,137.0 189.9,132.1 190.1,129.7 190.3,137.9 190.5,131.9 190.7,120.2 190.9,114.6 191.0,113.3 191.2,114.5 191.4,106.4 191.6,106.2 191.8,103.8 192.0,100.3 192.2,99.4 192.3,106.9 192.5,113.7 192.7,97.0 192.9,91.6 193.1,88.2 193.3,83.5 193.4,76.7 193.6,74.4 193.8,73.5 194.0,78.5 194.2,76.2 194.4,73.3 194.6,66.6 194.7,72.0 194.9,73.5 195.1,69.2 195.3,76.1 195.5,71.6 195.7,85.1 195.9,81.8 196.0,73.8 196.2,72.1 196.4,66.8 196.6,69.2 196.8,72.4 197.0,67.9 197.1,69.8 197.3,67.2 197.5,70.1 197.7,74.0 197.9,70.4 198.1,61.6 198.3,54.6 198.4,52.8 198.6,51.3 198.8,41.5 199.0,41.4 199.2,32.8 199.4,30.0 199.6,33.6 199.7,46.6 199.9,47.7 200.1,55.4 200.3,49.1 200.5,43.5 200.7,57.4 200.9,52.5 201.0,45.2 201.2,40.4 201.4,37.7 201.6,39.3 201.8,44.0 202.0,53.9 202.1,58.8 202.3,55.9 202.5,72.9 202.7,74.1 202.9,76.5 203.1,79.2 203.3,66.1 203.4,69.4 203.6,74.5 203.8,78.0 204.0,74.3 204.2,79.6 204.4,92.2 204.6,87.3 204.7,91.1 204.9,97.1 205.1,100.5 205.3,86.3 205.5,93.4 205.7,91.1 205.8,87.2 206.0,79.2 206.2,79.2 206.4,75.4 206.6,72.1 206.8,72.6 207.0,78.2 207.1,88.3 207.3,83.8 207.5,93.7 207.7,95.7 207.9,88.0 208.1,81.5 208.3,78.4 208.4,71.6 208.6,72.4 208.8,71.4 209.0,65.2 209.2,67.6 209.4,68.1 209.6,67.3 209.7,63.4 209.9,59.9 210.1,57.8 210.3,54.3 210.5,52.4 210.7,48.6 210.8,47.3 211.0,51.7 211.2,64.1 211.4,71.2 211.6,69.9 211.8,86.3 212.0,108.3 212.1,97.6 212.3,98.0 212.5,93.7 212.7,114.4 212.9,113.3 213.1,118.6 213.3,121.8 213.4,121.7 213.6,99.6 213.8,101.9 214.0,109.7 214.2,106.3 214.4,110.8 214.5,106.1 214.7,100.3 214.9,108.5 215.1,112.7 215.3,124.2 215.5,134.2 215.7,131.8 215.8,124.7 216.0,126.5 216.2,123.9 216.4,118.7 216.6,127.3 216.8,130.5 217.0,125.7 217.1,129.4 217.3,139.8 217.5,139.2 217.7,146.6 217.9,150.6 218.1,152.6 218.3,160.1 218.4,168.6 218.6,163.0 218.8,158.0 219.0,157.3 219.2,168.6 219.4,167.5 219.5,166.6 219.7,176.7 219.9,165.5 220.1,172.0 220.3,180.2 220.5,177.9 220.7,171.6 220.8,162.3 221.0,161.1 221.2,173.5 221.4,170.7 221.6,168.9 221.8,182.3 222.0,180.0 222.1,184.6 222.3,189.5 222.5,195.2 222.7,192.7 222.9,189.0 223.1,179.8 223.2,160.3 223.4,160.0 223.6,164.9 223.8,161.8 224.0,149.5 224.2,146.3 224.4,149.3 224.5,160.4 224.7,156.1 224.9,160.5 225.1,159.5 225.3,164.5 225.5,156.8 225.7,158.5 225.8,158.2 226.0,160.5 226.2,171.1 226.4,166.9 226.6,170.7 226.8,170.9 227.0,177.8 227.1,177.2 227.3,171.1 227.5,176.3 227.7,173.7 227.9,172.7 228.1,173.5 228.2,178.5 228.4,179.5 228.6,181.1 228.8,197.5 229.0,200.0 229.2,204.4 229.4,209.3 229.5,209.2 229.7,213.8 229.9,205.9 230.1,218.3 230.3,212.9 230.5,216.9 230.7,214.2 230.8,208.4 231.0,209.0 231.2,217.9 231.4,220.2 231.6,227.3 231.8,228.6 231.9,226.7 232.1,227.5 232.3,219.1 232.5,218.9 232.7,211.7 232.9,214.0 233.1,215.0 233.2,214.0 233.4,221.5 233.6,226.7 233.8,227.8 234.0,221.5 234.2,216.3 234.4,217.1 234.5,217.4 234.7,211.0 234.9,213.5 235.1,212.6 235.3,216.0 235.5,217.0 235.7,221.1 235.8,218.0 236.0,221.7 236.2,224.3 236.4,222.1 236.6,222.6 236.8,229.1 236.9,235.1 237.1,236.2 237.3,237.1 237.5,237.7 237.7,236.5 237.9,243.7 238.1,241.5 238.2,230.1 238.4,235.1 238.6,237.2 238.8,236.7 239.0,239.2 239.2,239.1 239.4,237.8 239.5,235.1 239.7,240.3 239.9,242.1 240.1,244.5 240.3,244.8 240.5,248.4 240.6,250.4 240.8,249.6 241.0,249.5 241.2,254.9 241.4,254.7 241.6,261.9 241.8,268.0 241.9,269.9 242.1,259.3 242.3,249.6 242.5,253.7 242.7,252.9 242.9,247.5 243.1,247.3 243.2,254.7 243.4,257.2 243.6,263.0 243.8,264.0 244.0,268.4 244.2,262.0 244.3,265.7 244.5,266.9 244.7,272.5 244.9,272.0 245.1,268.1 245.3,269.4 245.5,272.7 245.6,273.5 245.8,277.3 246.0,285.0 246.2,281.4 246.4,284.1 246.6,281.0 246.8,283.3 246.9,283.6 247.1,284.4 247.3,280.1 247.5,282.9 247.7,280.7 247.9,272.8 248.1,274.7 248.2,273.7 248.4,269.8 248.6,266.7 248.8,265.1 249.0,273.5 249.2,267.2 249.3,269.6 249.5,270.4 249.7,275.3 249.9,275.3 250.1,274.9 250.3,273.8 250.5,277.1 250.6,276.1 250.8,276.5 251.0,271.5 251.2,268.9 251.4,267.6 251.6,262.9 251.8,266.4 251.9,262.5 252.1,265.5 252.3,270.6 252.5,269.9 252.7,269.6 252.9,269.7 253.0,266.6 253.2,266.5 253.4,268.8 253.6,274.1 253.8,275.8 254.0,276.8 254.2,276.7 254.3,277.4 254.5,278.7 254.7,279.1 254.9,275.2 255.1,271.8 255.3,272.8 255.5,275.7 255.6,274.4 255.8,274.8 256.0,276.9 256.2,272.2 256.4,272.8 256.6,270.4 256.8,268.3 256.9,267.6 257.1,267.8 257.3,267.0 257.5,267.7 257.7,267.4 257.9,264.5 258.0,260.7 258.2,260.9 258.4,256.4 258.6,254.4 258.8,253.9 259.0,253.5 259.2,255.7 259.3,251.5 259.5,246.9 259.7,250.9 259.9,257.4 260.1,257.4 260.3,256.0 260.5,253.1 260.6,260.0 260.8,258.4 261.0,262.6 261.2,263.7 261.4,263.6 261.6,265.7 261.7,257.7 261.9,256.0 262.1,257.3 262.3,261.6 262.5,259.5 262.7,260.5 262.9,260.9 263.0,261.1 263.2,258.9 263.4,255.2 263.6,255.4 263.8,253.1 264.0,253.7 264.2,250.6 264.3,250.0 264.5,252.1 264.7,247.3 264.9,246.3 265.1,246.9 265.3,245.9 265.5,244.3 265.6,242.3 265.8,241.3 266.0,241.2 266.2,247.0 266.4,244.7 266.6,241.1 266.7,237.8 266.9,237.1 267.1,237.5 267.3,237.5 267.5,239.2 267.7,236.5 267.9,238.5 268.0,242.6 268.2,242.5 268.4,243.7 268.6,246.1 268.8,246.2 269.0,240.7 269.2,241.1 269.3,236.4 269.5,236.2 269.7,234.8 269.9,233.9 270.1,231.6 270.3,233.2 270.4,230.6 270.6,229.3 270.8,231.7 271.0,231.6 271.2,231.1 271.4,229.6 271.6,231.8 271.7,235.3 271.9,235.7 272.1,235.5 272.3,237.3 272.5,233.9 272.7,227.6 272.9,227.7 273.0,222.2 273.2,220.3 273.4,221.4 273.6,219.4 273.8,218.6 274.0,217.5 274.2,218.7 274.3,221.6 274.5,217.1 274.7,217.8 274.9,215.7 275.1,212.2 275.3,210.3 275.4,209.4 275.6,208.6 275.8,208.3 276.0,208.3 276.2,207.7 276.4,204.2 276.6,204.9 276.7,200.5 276.9,197.5 277.1,195.5 277.3,192.4 277.5,194.8 277.7,195.9 277.9,193.7 278.0,194.7 278.2,198.5 278.4,192.5 278.6,190.4 278.8,188.8 279.0,188.3 279.1,184.8 279.3,187.0 279.5,182.9 279.7,179.9 279.9,178.0 280.1,173.4 280.3,173.8 280.4,183.3 280.6,177.2 280.8,172.5 281.0,171.0 281.2,173.0 281.4,176.6 281.6,181.3 281.7,186.1 281.9,187.7 282.1,187.5 282.3,196.6 282.5,194.0 282.7,198.8 282.9,208.6 283.0,207.8 283.2,216.1 283.4,208.5 283.6,205.9 283.8,205.9 284.0,214.0 284.1,211.5 284.3,212.8 284.5,218.9 284.7,229.8 284.9,227.6 285.1,224.1 285.3,216.1 285.4,215.6 285.6,214.4 285.8,211.3 286.0,210.6 286.2,212.2 286.4,206.7 286.6,204.7 286.7,204.6 286.9,208.2 287.1,204.8 287.3,211.2 287.5,211.7 287.7,215.9 287.8,218.5 288.0,215.8 288.2,216.5 288.4,221.2 288.6,220.1 288.8,218.5 289.0,210.3 289.1,211.4 289.3,208.6 289.5,207.1 289.7,206.2 289.9,206.6 290.1,202.6 290.3,199.4 290.4,199.8 290.6,201.4 290.8,197.5 291.0,197.2 291.2,202.5 291.4,202.8 291.6,207.3 291.7,205.3 291.9,198.9 292.1,197.0 292.3,195.9 292.5,195.7 292.7,195.2 292.8,194.7 293.0,194.6 293.2,195.2 293.4,195.5 293.6,194.3 293.8,188.5 294.0,188.2 294.1,188.2 294.3,188.4 294.5,189.9 294.7,189.1 294.9,194.4 295.1,191.2 295.3,199.1 295.4,204.3 295.6,198.5 295.8,196.7 296.0,195.1 296.2,196.3 296.4,189.6 296.5,189.0 296.7,192.2 296.9,196.5 297.1,195.4 297.3,195.5 297.5,192.1 297.7,194.2 297.8,195.1 298.0,198.7 298.2,201.7 298.4,202.6 298.6,206.7 298.8,205.8 299.0,201.3 299.1,203.0 299.3,200.1 299.5,198.2 299.7,193.0 299.9,192.1 300.1,195.0 300.3,192.8 300.4,195.0 300.6,198.8 300.8,198.6 301.0,197.7 301.2,195.5 301.4,203.6 301.5,201.8 301.7,201.5 301.9,201.9 302.1,201.1 302.3,206.5 302.5,205.2 302.7,205.0 302.8,207.0 303.0,210.1 303.2,213.6 303.4,214.5 303.6,215.1 303.8,217.7 304.0,217.4 304.1,212.6 304.3,213.8 304.5,216.9 304.7,217.6 304.9,216.2 305.1,213.9 305.2,213.6 305.4,212.1 305.6,213.3 305.8,216.3 306.0,214.6 306.2,212.3 306.4,212.9 306.5,210.1 306.7,210.8 306.9,210.1 307.1,213.8 307.3,213.4 307.5,212.1 307.7,210.8 307.8,211.5 308.0,211.0 308.2,212.9 308.4,215.4 308.6,213.8 308.8,210.4 309.0,211.3 309.1,210.2 309.3,209.7 309.5,211.6 309.7,211.6 309.9,214.0 310.1,211.5 310.2,206.2 310.4,205.9 310.6,207.2 310.8,205.3 311.0,205.1 311.2,205.1 311.4,206.3 311.5,209.1 311.7,207.6 311.9,209.7 312.1,206.1 312.3,206.0 312.5,206.0 312.7,208.8 312.8,217.6 313.0,218.1 313.2,215.5 313.4,218.7 313.6,219.5 313.8,220.6 313.9,223.5 314.1,223.9 314.3,224.0 314.5,222.2 314.7,225.1 314.9,225.1 315.1,232.8 315.2,234.8 315.4,232.7 315.6,235.7 315.8,233.2 316.0,230.2 316.2,231.8 316.4,238.7 316.5,235.6 316.7,236.5 316.9,238.9 317.1,237.5 317.3,232.7 317.5,236.4 317.7,236.4 317.8,234.6 318.0,235.3 318.2,238.8 318.4,239.9 318.6,240.1 318.8,241.1 318.9,241.1 319.1,244.2 319.3,244.8 319.5,240.2 319.7,242.7 319.9,242.0 320.1,242.1 320.2,242.9 320.4,238.2 320.6,238.5 320.8,239.7 321.0,239.6 321.2,239.5 321.4,240.0 321.5,245.7 321.7,246.8 321.9,248.2 322.1,247.2 322.3,248.3 322.5,246.2 322.6,246.0 322.8,246.1 323.0,242.9 323.2,241.7 323.4,243.8 323.6,242.7 323.8,245.1 323.9,245.3 324.1,242.3 324.3,240.0 324.5,239.7 324.7,238.2 324.9,237.4 325.1,236.9 325.2,238.0 325.4,234.5 325.6,233.7 325.8,234.3 326.0,232.1 326.2,234.9 326.4,234.7 326.5,236.7 326.7,234.8 326.9,234.2 327.1,238.2 327.3,237.8 327.5,239.7 327.6,238.5 327.8,235.4 328.0,234.8 328.2,235.2 328.4,233.7 328.6,235.7 328.8,236.1 328.9,236.3 329.1,239.6 329.3,239.6 329.5,239.4 329.7,237.6 329.9,239.0 330.1,239.4 330.2,238.1 330.4,238.6 330.6,235.1 330.8,235.3 331.0,236.5 331.2,239.4 331.3,239.6 331.5,239.1 331.7,238.9 331.9,241.3 332.1,243.8 332.3,243.9 332.5,243.6 332.6,243.4 332.8,242.1 333.0,243.4 333.2,243.1 333.4,239.8 333.6,234.0 333.8,228.3 333.9,226.5 334.1,223.9 334.3,221.3 334.5,214.4 334.7,215.3 334.9,212.6 335.1,212.1 335.2,215.0 335.4,216.1 335.6,211.4 335.8,213.0 336.0,216.5 336.2,216.6 336.3,219.2 336.5,215.5 336.7,216.0 336.9,216.4 337.1,214.3 337.3,212.5 337.5,211.7 337.6,214.1 337.8,216.5 338.0,214.5 338.2,223.6 338.4,223.9 338.6,230.9 338.8,232.3 338.9,230.5 339.1,230.4 339.3,231.8 339.5,234.7 339.7,232.2 339.9,230.2 340.0,231.9 340.2,232.4 340.4,234.8 340.6,234.5 340.8,233.4 341.0,232.7 341.2,230.9 341.3,229.8 341.5,231.9 341.7,233.6 341.9,231.7 342.1,227.8 342.3,228.1 342.5,229.3 342.6,230.6 342.8,230.9 343.0,233.3 343.2,229.6 343.4,231.7 343.6,232.0 343.8,232.3 343.9,235.0 344.1,237.0 344.3,236.8 344.5,237.3 344.7,235.0 344.9,232.2 345.0,233.3 345.2,234.5 345.4,232.8 345.6,235.1 345.8,233.3 346.0,232.0 346.2,232.2 346.3,234.6 346.5,239.4 346.7,239.0 346.9,236.8 347.1,241.1 347.3,238.8 347.5,239.9 347.6,239.9 347.8,238.8 348.0,237.1 348.2,237.4 348.4,236.0 348.6,235.6 348.7,237.5 348.9,235.1 349.1,235.0 349.3,229.7 349.5,230.1 349.7,229.5 349.9,229.8 350.0,231.0 350.2,229.9 350.4,234.0 350.6,233.6 350.8,233.1 351.0,232.8 351.2,231.7 351.3,230.7 351.5,230.2 351.7,229.4 351.9,227.3 352.1,224.1 352.3,224.1 352.5,224.3 352.6,228.0 352.8,229.6 353.0,229.3 353.2,231.9 353.4,229.7 353.6,231.6 353.7,230.7 353.9,230.6 354.1,229.2 354.3,227.7 354.5,228.5 354.7,226.1 354.9,225.6 355.0,226.0 355.2,225.7 355.4,227.1 355.6,223.9 355.8,220.2 356.0,220.3 356.2,219.5 356.3,220.2 356.5,221.0 356.7,218.5 356.9,219.1 357.1,218.3 357.3,218.3 357.4,222.0 357.6,222.6 357.8,221.3 358.0,222.0 358.2,223.8 358.4,224.5 358.6,224.9 358.7,225.0 358.9,224.8 359.1,224.8 359.3,229.1 359.5,229.6 359.7,230.5 359.9,230.6 360.0,229.0 360.2,229.7 360.4,231.7 360.6,230.1 360.8,231.8 361.0,230.8 361.2,229.3 361.3,229.9 361.5,229.4 361.7,233.8 361.9,233.6 362.1,235.4 362.3,235.2 362.4,235.0 362.6,234.7 362.8,232.5 363.0,233.1 363.2,236.0 363.4,235.2 363.6,234.4 363.7,234.7 363.9,237.2 364.1,236.9 364.3,237.3 364.5,235.5 364.7,236.9 364.9,238.7 365.0,239.8 365.2,240.4 365.4,239.0 365.6,239.0 365.8,236.9 366.0,233.5 366.1,233.7 366.3,233.8 366.5,236.2 366.7,234.1 366.9,234.3 367.1,230.8 367.3,231.1 367.4,232.0 367.6,232.8 367.8,232.2 368.0,232.5 368.2,235.7 368.4,233.4 368.6,232.9 368.7,232.4 368.9,233.1 369.1,234.2 369.3,234.5 369.5,236.2 369.7,235.9 369.9,240.0 370.0,239.7 370.2,239.3 370.4,240.7 370.6,240.1 370.8,240.0 371.0,241.2 371.1,241.3 371.3,241.1 371.5,244.4 371.7,248.6 371.9,248.0 372.1,247.1 372.3,245.2 372.4,245.3 372.6,242.8 372.8,243.5 373.0,243.8 373.2,246.3 373.4,247.7 373.6,248.9 373.7,246.6 373.9,247.7 374.1,242.3 374.3,242.5 374.5,245.4 374.7,245.6 374.8,245.1 375.0,245.2 375.2,246.6 375.4,249.2 375.6,249.7 375.8,247.1 376.0,248.2 376.1,248.1 376.3,249.4 376.5,249.1 376.7,249.7 376.9,249.3 377.1,251.9 377.3,251.3 377.4,247.6 377.6,251.8 377.8,252.6 378.0,256.4 378.2,254.8 378.4,255.9 378.6,256.4 378.7,256.8 378.9,257.9 379.1,257.4 379.3,252.8 379.5,252.1 379.7,252.3 379.8,251.4 380.0,254.9 380.2,255.0 380.4,257.5 380.6,257.4 380.8,253.5 381.0,251.8 381.1,250.7 381.3,250.1 381.5,247.6 381.7,248.8 381.9,248.5 382.1,246.3 382.3,246.8 382.4,245.8 382.6,247.4 382.8,247.5 383.0,246.6 383.2,249.5 383.4,249.7 383.5,247.0 383.7,247.6 383.9,251.5 384.1,252.0 384.3,254.1 384.5,254.0 384.7,254.0 384.8,255.5 385.0,255.3 385.2,256.2 385.4,256.1 385.6,254.4 385.8,258.4 386.0,254.6 386.1,255.3 386.3,256.0 386.5,256.4 386.7,255.4 386.9,255.5 387.1,256.2 387.2,257.2 387.4,259.6 387.6,260.3 387.8,263.1 388.0,260.9 388.2,261.2 388.4,261.2 388.5,262.7 388.7,262.4 388.9,261.7 389.1,262.9 389.3,263.7 389.5,263.4 389.7,263.3 389.8,261.7 390.0,263.4 390.2,263.3 390.4,262.4 390.6,258.7 390.8,255.3 391.0,256.0 391.1,255.5 391.3,256.7 391.5,258.4 391.7,252.9 391.9,254.5 392.1,251.9 392.2,250.0 392.4,252.4 392.6,252.3 392.8,254.6 393.0,251.0 393.2,250.2 393.4,250.8 393.5,253.2 393.7,249.5 393.9,249.8 394.1,249.8 394.3,250.5 394.5,251.2 394.7,250.2 394.8,251.0 395.0,250.7 395.2,250.5 395.4,249.7 395.6,248.5 395.8,248.2 395.9,246.2 396.1,246.1 396.3,245.3 396.5,246.5 396.7,246.8 396.9,244.9 397.1,246.1 397.2,248.6 397.4,249.9 397.6,248.3 397.8,247.3 398.0,248.4 398.2,247.2 398.4,249.9 398.5,251.1 398.7,249.7 398.9,249.7 399.1,251.5 399.3,251.3 399.5,251.1 399.7,252.1 399.8,251.9 400.0,252.0 400.2,255.0 400.4,256.5 400.6,255.2 400.8,253.0 400.9,252.8 401.1,254.0 401.3,252.9 401.5,253.0 401.7,250.3 401.9,249.9 402.1,250.4 402.2,251.9 402.4,248.9 402.6,248.8 402.8,247.0 403.0,248.2 403.2,247.5 403.4,246.7 403.5,246.5 403.7,246.5 403.9,243.5 404.1,243.4 404.3,242.5 404.5,243.2 404.6,243.5 404.8,245.9 405.0,246.0 405.2,247.0 405.4,248.1 405.6,248.1 405.8,250.1 405.9,248.1 406.1,250.0 406.3,249.3 406.5,247.4 406.7,248.1 406.9,249.0 407.1,249.9 407.2,248.1 407.4,246.4 407.6,246.8 407.8,247.8 408.0,247.5 408.2,251.1 408.4,250.9 408.5,250.5 408.7,251.3 408.9,252.7 409.1,251.4 409.3,252.2 409.5,250.3 409.6,251.4 409.8,250.4 410.0,249.9 410.2,250.8 410.4,250.9 410.6,253.0 410.8,255.3 410.9,255.6 411.1,256.0 411.3,257.0 411.5,255.0 411.7,255.2 411.9,254.8 412.1,254.7 412.2,256.0 412.4,254.8 412.6,258.0 412.8,258.3 413.0,257.7 413.2,257.1 413.3,256.7 413.5,258.8 413.7,257.9 413.9,258.2 414.1,257.5 414.3,258.7 414.5,260.9 414.6,260.6 414.8,261.0 415.0,261.2 415.2,260.8 415.4,261.1 415.6,260.7 415.8,259.7 415.9,260.5 416.1,260.0 416.3,258.7 416.5,258.7 416.7,258.4 416.9,257.7 417.1,258.2 417.2,260.7 417.4,260.6 417.6,262.3 417.8,262.7 418.0,262.6 418.2,263.3 418.3,263.2 418.5,263.7 418.7,263.3 418.9,263.9 419.1,266.2 419.3,265.3 419.5,266.5 419.6,266.0 419.8,266.7 420.0,266.0 420.2,266.9 420.4,267.7 420.6,266.7 420.8,261.6 420.9,261.6 421.1,262.7 421.3,262.5 421.5,263.3 421.7,262.0 421.9,264.4 422.0,265.7 422.2,265.4 422.4,267.5 422.6,267.1 422.8,266.5 423.0,266.5 423.2,267.4 423.3,264.0 423.5,262.1 423.7,263.3 423.9,261.0 424.1,261.2 424.3,261.9 424.5,261.7 424.6,262.1 424.8,262.0 425.0,261.7 425.2,260.1 425.4,260.2 425.6,259.8 425.8,261.1 425.9,261.3 426.1,262.1 426.3,264.2 426.5,265.2 426.7,264.8 426.9,264.0 427.0,261.7 427.2,261.1 427.4,261.2 427.6,261.6 427.8,261.7 428.0,263.7 428.2,263.7 428.3,263.0 428.5,264.9 428.7,264.4 428.9,265.8 429.1,266.7 429.3,266.7 429.5,267.5 429.6,265.8 429.8,266.4 430.0,265.4 430.2,265.8 430.4,266.6 430.6,267.4 430.7,268.0 430.9,266.9 431.1,268.1 431.3,267.1 431.5,262.9 431.7,263.0 431.9,260.5 432.0,259.1 432.2,259.7 432.4,258.8 432.6,260.4 432.8,253.5 433.0,252.7 433.2,252.3 433.3,252.3 433.5,251.8 433.7,252.8 433.9,252.2 434.1,248.3 434.3,248.1 434.5,249.2 434.6,246.8 434.8,243.9 435.0,242.9 435.2,242.2 435.4,243.9 435.6,244.1 435.7,244.0 435.9,246.8 436.1,241.2 436.3,240.7 436.5,242.4 436.7,244.1 436.9,241.7 437.0,240.8 437.2,240.8 437.4,240.0 437.6,240.7 437.8,241.7 438.0,236.5 438.2,234.6 438.3,234.1 438.5,233.8 438.7,229.1 438.9,228.4 439.1,228.2 439.3,227.5 439.4,229.7 439.6,230.1 439.8,232.2 440.0,234.7 440.2,234.9 440.4,240.9 440.6,242.0 440.7,241.4 440.9,243.3 441.1,241.5 441.3,236.5 441.5,237.4 441.7,245.1 441.9,239.5 442.0,238.2 442.2,240.6 442.4,240.6 442.6,242.2 442.8,244.1 443.0,245.5 443.2,245.3 443.3,245.1 443.5,247.3 443.7,245.9 443.9,240.3 444.1,240.6 444.3,240.4 444.4,240.6 444.6,243.6 444.8,243.1 445.0,248.8 445.2,248.7 445.4,249.4 445.6,249.4 445.7,248.9 445.9,250.2 446.1,249.0 446.3,249.1 446.5,249.4 446.7,250.1 446.9,251.2 447.0,250.2 447.2,251.0 447.4,250.5 447.6,246.1 447.8,246.4 448.0,251.1 448.1,248.6 448.3,249.8 448.5,250.7 448.7,250.9 448.9,248.5 449.1,246.9 449.3,246.8 449.4,246.4 449.6,247.6 449.8,246.8 450.0,247.4 450.2,249.2 450.4,249.0 450.6,246.6 450.7,244.9 450.9,243.6 451.1,244.4 451.3,243.8 451.5,246.4 451.7,246.0 451.9,246.1 452.0,243.0 452.2,243.6 452.4,244.0 452.6,245.1 452.8,245.3 453.0,246.7 453.1,247.7 453.3,249.3 453.5,251.1 453.7,255.6 453.9,255.3 454.1,256.2 454.3,255.3 454.4,256.5 454.6,260.7 454.8,260.6 455.0,268.6 455.2,268.5 455.4,269.8 455.6,269.6 455.7,266.6 455.9,266.8 456.1,267.4 456.3,268.8 456.5,267.9 456.7,267.4 456.8,270.0 457.0,270.1 457.2,267.0 457.4,260.4 457.6,264.0 457.8,262.7 458.0,262.6 458.1,264.4 458.3,266.8 458.5,269.7 458.7,269.5 458.9,266.3 459.1,268.1 459.3,268.3 459.4,268.9 459.6,271.7 459.8,270.4 460.0,270.2 460.2,267.7 460.4,267.8 460.6,266.5 460.7,266.3 460.9,266.7 461.1,267.2 461.3,266.6 461.5,262.3 461.7,261.6 461.8,262.3 462.0,263.4 462.2,263.6 462.4,262.4 462.6,263.5 462.8,263.9 463.0,264.4 463.1,265.6 463.3,263.0 463.5,262.9 463.7,263.6 463.9,263.9 464.1,263.8 464.3,263.7 464.4,262.0 464.6,262.1 464.8,262.3 465.0,261.1 465.2,254.6 465.4,252.8 465.5,252.5 465.7,250.2 465.9,252.0 466.1,252.8 466.3,255.7 466.5,255.6 466.7,254.6 466.8,257.6 467.0,258.5 467.2,260.6 467.4,260.1 467.6,259.9 467.8,258.6 468.0,258.0 468.1,260.2 468.3,257.9 468.5,258.4 468.7,258.9 468.9,260.5 469.1,261.0 469.3,260.3 469.4,258.8 469.6,260.1 469.8,260.2 470.0,261.4 470.2,262.2 470.4,262.3 470.5,260.5 470.7,259.1 470.9,260.7 471.1,259.7 471.3,260.2 471.5,260.6 471.7,262.0 471.8,262.3 472.0,264.0 472.2,263.7 472.4,262.3 472.6,265.3 472.8,265.1 473.0,262.7 473.1,257.5 473.3,258.6 473.5,258.3 473.7,259.5 473.9,259.9 474.1,260.5 474.2,260.8 474.4,259.4 474.6,258.2 474.8,258.5 475.0,257.2 475.2,257.0 475.4,255.7 475.5,256.2 475.7,257.5 475.9,257.9 476.1,257.8 476.3,260.1 476.5,260.7 476.7,261.1 476.8,262.9 477.0,263.3 477.2,263.2 477.4,264.5 477.6,267.7 477.8,267.4 478.0,267.6 478.1,267.0 478.3,268.6 478.5,266.8 478.7,266.9 478.9,264.9 479.1,266.0 479.2,267.8 479.4,269.5 479.6,269.7 479.8,269.4 480.0,270.2 480.2,270.6 480.4,270.9 480.5,270.6 480.7,271.4 480.9,271.0 481.1,272.3 481.3,273.1 481.5,272.1 481.7,269.4 481.8,270.6 482.0,270.3 482.2,272.1 482.4,271.4 482.6,270.9 482.8,272.2 482.9,272.3 483.1,270.1 483.3,268.4 483.5,268.5 483.7,268.4 483.9,268.0 484.1,267.7 484.2,269.9 484.4,268.0 484.6,269.0 484.8,270.1 485.0,272.9 485.2,274.9 485.4,274.7 485.5,274.0 485.7,273.2 485.9,273.3 486.1,273.2 486.3,274.3 486.5,273.5 486.7,273.8 486.8,277.3 487.0,277.0 487.2,276.5 487.4,275.2 487.6,276.0 487.8,275.4 487.9,275.9 488.1,276.5 488.3,277.4 488.5,273.2 488.7,272.2 488.9,272.7 489.1,272.9 489.2,273.1 489.4,272.6 489.6,273.0 489.8,272.5 490.0,271.1 490.2,272.2 490.4,271.2 490.5,267.9 490.7,268.2 490.9,265.3 491.1,265.6 491.3,266.2 491.5,268.8 491.6,268.5 491.8,269.0 492.0,268.9 492.2,271.0 492.4,269.8 492.6,270.0 492.8,269.7 492.9,270.4 493.1,271.7 493.3,270.8 493.5,270.9 493.7,271.4 493.9,271.6 494.1,272.3 494.2,272.1 494.4,271.9 494.6,269.9 494.8,270.2 495.0,270.4 495.2,271.3 495.4,271.4 495.5,273.5 495.7,273.4 495.9,272.4 496.1,272.6 496.3,271.7 496.5,271.5 496.6,272.0 496.8,271.1 497.0,271.7 497.2,271.8 497.4,272.2 497.6,273.0 497.8,271.7 497.9,272.6 498.1,272.3 498.3,271.0 498.5,271.3 498.7,271.7 498.9,270.3 499.1,269.1 499.2,270.4 499.4,270.8 499.6,272.1 499.8,271.7 500.0,272.3 500.2,272.0 500.3,272.7 500.5,272.1 500.7,272.5 500.9,271.8 501.1,271.9 501.3,271.6 501.5,271.3 501.6,271.1 501.8,271.0 502.0,271.1 502.2,272.3 502.4,272.6 502.6,272.8 502.8,271.8 502.9,271.6 503.1,271.8 503.3,272.5 503.5,272.1 503.7,272.0 503.9,270.8 504.1,270.0 504.2,267.4 504.4,266.3 504.6,262.4 504.8,262.2 505.0,263.0 505.2,261.4 505.3,262.5 505.5,259.7 505.7,260.6 505.9,261.6 506.1,263.5 506.3,263.4 506.5,261.6 506.6,262.5 506.8,262.3 507.0,263.3 507.2,262.2 507.4,262.1 507.6,262.4 507.8,263.0 507.9,264.0 508.1,263.5 508.3,264.7 508.5,265.0 508.7,265.1 508.9,265.7 509.0,264.5 509.2,264.1 509.4,262.5 509.6,261.3 509.8,260.3 510.0,258.9 510.2,259.7 510.3,260.8 510.5,261.4 510.7,260.8 510.9,261.3 511.1,263.0 511.3,262.7 511.5,262.3 511.6,261.6 511.8,264.3 512.0,263.4 512.2,261.1 512.4,261.7 512.6,261.9 512.8,261.4 512.9,261.6 513.1,260.6 513.3,260.5 513.5,261.4 513.7,262.6 513.9,263.0 514.0,262.1 514.2,262.4 514.4,262.4 514.6,262.1 514.8,263.0 515.0,263.3 515.2,264.1 515.3,264.3 515.5,266.0 515.7,264.1 515.9,262.4 516.1,261.6 516.3,258.8 516.5,259.3 516.6,259.7 516.8,260.3 517.0,260.4 517.2,260.1 517.4,256.4 517.6,254.8 517.7,253.3 517.9,253.7 518.1,253.5 518.3,255.0 518.5,257.1 518.7,257.7 518.9,257.4 519.0,254.5 519.2,251.3 519.4,249.8 519.6,246.6 519.8,244.2 520.0,239.7 520.2,239.2 520.3,231.7 520.5,230.5 520.7,221.3 520.9,218.4 521.1,211.1 521.3,219.7 521.4,214.3 521.6,218.9 521.8,218.9 522.0,218.3 522.2,211.0 522.4,204.7 522.6,206.2 522.7,204.2 522.9,201.5 523.1,205.4 523.3,213.1 523.5,206.5 523.7,198.7 523.9,197.4 524.0,194.3 524.2,190.0 524.4,184.9 524.6,186.5 524.8,186.0 525.0,191.8 525.2,190.9 525.3,192.8 525.5,194.0 525.7,193.5 525.9,186.2 526.1,184.7 526.3,202.8 526.4,203.2 526.6,192.9 526.8,192.8 527.0,191.3 527.2,191.4 527.4,194.4 527.6,197.1 527.7,200.4 527.9,203.1 528.1,208.5 528.3,203.1 528.5,205.6 528.7,207.3 528.9,209.1 529.0,206.0 529.2,203.3 529.4,202.4 529.6,202.3 529.8,201.5 530.0,201.2 530.1,200.2 530.3,203.0 530.5,197.7 530.7,198.0 530.9,197.6 531.1,203.8 531.3,203.7 531.4,206.0 531.6,205.6 531.8,201.3 532.0,203.9 532.2,202.9 532.4,197.2 532.6,196.4 532.7,192.3 532.9,189.9 533.1,184.9 533.3,186.4 533.5,182.6 533.7,179.7 533.9,182.4 534.0,185.0 534.2,182.1 534.4,182.0 534.6,174.9 534.8,177.1 535.0,173.8 535.1,175.1 535.3,172.5 535.5,167.1 535.7,162.4 535.9,164.0 536.1,159.9 536.3,155.8 536.4,155.0 536.6,154.9 536.8,145.2 537.0,141.4 537.2,146.6 537.4,142.9 537.6,136.6 537.7,138.5 537.9,142.2 538.1,135.9 538.3,137.9 538.5,137.8 538.7,140.2 538.8,138.6 539.0,147.8 539.2,148.5 539.4,151.8 539.6,150.7 539.8,146.3 540.0,144.9 540.1,148.4 540.3,149.3 540.5,154.4 540.7,159.0 540.9,150.2 541.1,149.7 541.3,147.6 541.4,140.4 541.6,132.8 541.8,130.1 542.0,133.2 542.2,149.6 542.4,150.6 542.6,140.7 542.7,139.7 542.9,141.1 543.1,136.6 543.3,136.3 543.5,124.7 543.7,128.1 543.8,131.3 544.0,133.0 544.2,132.8 544.4,139.3 544.6,145.5 544.8,143.1 545.0,153.8 545.1,166.1 545.3,158.6 545.5,155.5 545.7,163.0 545.9,178.5 546.1,182.8 546.3,168.5 546.4,178.5 546.6,180.1 546.8,190.0 547.0,177.5 547.2,172.8 547.4,188.0 547.5,175.2 547.7,166.4 547.9,168.6 548.1,176.5 548.3,176.9 548.5,178.0 548.7,173.2 548.8,175.0 549.0,175.8 549.2,178.2 549.4,174.4 549.6,178.1 549.8,196.6 550.0,197.1 550.1,193.7 550.3,198.5 550.5,199.0 550.7,197.6 550.9,193.5 551.1,197.0 551.3,198.5 551.4,195.8 551.6,187.3 551.8,189.3 552.0,191.5 552.2,190.1 552.4,190.4 552.5,192.3 552.7,202.9 552.9,201.3 553.1,206.7 553.3,213.1 553.5,229.0 553.7,239.7 553.8,237.6 554.0,226.2 554.2,221.4 554.4,217.6 554.6,216.2 554.8,215.2 555.0,223.3 555.1,219.9 555.3,217.6 555.5,217.8 555.7,218.8 555.9,216.3 556.1,220.3 556.2,215.3 556.4,218.8 556.6,218.5 556.8,217.3 557.0,215.6 557.2,220.0 557.4,219.3 557.5,219.6 557.7,220.6 557.9,223.8 558.1,222.4 558.3,219.1 558.5,217.0 558.7,212.2 558.8,213.1 559.0,214.4 559.2,211.1 559.4,209.2 559.6,209.6 559.8,208.2 560.0,208.0 560.1,208.6 560.3,207.7 560.5,207.2 560.7,207.3 560.9,210.2 561.1,210.4 561.2,210.0 561.4,212.4 561.6,213.1 561.8,205.7 562.0,200.5 562.2,196.6 562.4,193.5 562.5,194.4 562.7,195.6 562.9,197.8 563.1,200.0 563.3,200.0 563.5,199.6 563.7,200.6 563.8,198.4 564.0,198.6 564.2,199.3 564.4,200.0 564.6,199.1 564.8,199.7 564.9,208.4 565.1,208.3 565.3,207.6 565.5,199.2 565.7,199.0 565.9,203.7 566.1,203.9 566.2,206.2 566.4,205.8 566.6,206.7 566.8,207.8 567.0,202.4 567.2,204.7 567.4,205.3 567.5,202.9 567.7,201.8 567.9,196.1 568.1,196.4 568.3,195.9 568.5,197.4 568.7,196.7 568.8,202.7 569.0,201.1 569.2,201.1 569.4,202.0 569.6,213.2 569.8,211.9 569.9,209.7 570.1,219.9 570.3,216.9 570.5,224.3 570.7,223.5 570.9,225.4 571.1,223.5 571.2,228.0 571.4,228.1 571.6,223.7 571.8,226.7 572.0,230.2 572.2,228.7 572.4,228.4 572.5,236.9 572.7,236.8 572.9,239.8 573.1,235.3 573.3,238.0 573.5,235.6 573.6,236.8 573.8,235.2 574.0,235.7 574.2,237.1 574.4,233.2 574.6,232.2 574.8,232.6 574.9,233.0 575.1,229.3 575.3,231.1 575.5,230.2 575.7,238.3 575.9,236.6 576.1,237.4 576.2,235.3 576.4,230.1 576.6,229.3 576.8,224.2 577.0,225.3 577.2,224.7 577.4,225.0 577.5,228.7 577.7,228.0 577.9,227.5 578.1,225.8 578.3,223.2 578.5,223.5 578.6,222.8 578.8,218.9 579.0,220.4 579.2,220.2 579.4,223.1 579.6,222.2 579.8,224.1 579.9,225.3 580.1,221.6 580.3,221.6 580.5,220.8 580.7,219.9 580.9,220.8 581.1,222.9 581.2,224.1 581.4,222.2 581.6,222.6 581.8,220.5 582.0,220.0 582.2,219.7 582.3,221.5 582.5,221.1 582.7,221.8 582.9,222.3 583.1,221.6 583.3,222.3 583.5,221.7 583.6,222.5 583.8,222.7 584.0,223.2 584.2,221.5 584.4,221.9 584.6,221.9 584.8,225.3 584.9,227.9 585.1,227.9 585.3,227.5 585.5,227.0 585.7,227.6 585.9,227.1 586.1,227.7 586.2,227.4 586.4,227.8 586.6,227.1 586.8,227.2 587.0,228.3 587.2,227.9 587.3,227.6 587.5,227.7 587.7,226.4 587.9,221.7 588.1,223.0 588.3,223.0 588.5,221.9 588.6,223.1 588.8,222.9 589.0,223.4 589.2,227.0 589.4,226.2 589.6,225.4 589.8,226.2 589.9,225.7 590.1,225.5 590.3,225.5 590.5,224.7 590.7,225.4 590.9,227.6 591.0,226.2 591.2,225.7 591.4,224.1 591.6,224.2 591.8,223.8 592.0,221.1 592.2,220.7 592.3,220.9 592.5,220.9 592.7,222.2 592.9,221.7 593.1,218.4 593.3,218.6 593.5,218.8 593.6,219.0 593.8,219.3 594.0,220.2 594.2,220.9 594.4,220.1 594.6,221.6 594.8,221.4 594.9,219.7 595.1,220.3 595.3,221.1 595.5,221.7 595.7,222.3 595.9,222.2 596.0,222.4 596.2,222.6 596.4,222.2 596.6,221.4 596.8,220.2 597.0,220.6 597.2,220.1 597.3,216.7 597.5,211.9 597.7,214.1 597.9,214.4 598.1,215.1 598.3,214.7 598.5,215.6 598.6,215.3 598.8,216.0 599.0,216.8 599.2,217.0 599.4,217.3 599.6,216.6 599.7,216.0 599.9,216.9 600.1,216.2 600.3,216.3 600.5,216.0 600.7,215.7 600.9,215.7 601.0,216.2 601.2,218.4 601.4,218.9 601.6,220.2 601.8,219.2 602.0,219.6 602.2,219.4 602.3,218.4 602.5,218.7 602.7,220.8 602.9,220.2 603.1,220.9 603.3,220.2 603.5,220.1 603.6,218.2 603.8,217.7 604.0,218.3 604.2,218.3 604.4,217.7 604.6,218.9 604.7,216.7 604.9,216.8 605.1,216.7 605.3,215.4 605.5,213.1 605.7,213.5 605.9,214.2 606.0,214.7 606.2,214.4 606.4,214.7 606.6,213.7 606.8,215.1 607.0,212.9 607.2,213.1 607.3,212.7 607.5,212.3 607.7,213.7 607.9,211.8 608.1,210.3 608.3,209.6 608.4,210.2 608.6,210.2 608.8,209.7 609.0,210.4 609.2,208.4 609.4,207.0 609.6,206.5 609.7,205.9 609.9,204.0 610.1,203.3 610.3,200.4 610.5,202.1 610.7,201.2 610.9,202.3 611.0,205.4 611.2,205.9 611.4,205.2 611.6,205.1 611.8,202.7 612.0,204.5 612.2,205.5 612.3,206.5 612.5,210.2 612.7,210.8 612.9,211.6 613.1,212.5 613.3,211.2 613.4,211.6 613.6,212.6 613.8,211.4 614.0,211.9 614.2,212.7 614.4,212.8 614.6,211.9 614.7,210.4 614.9,209.3 615.1,209.3 615.3,210.3 615.5,209.6 615.7,210.0 615.9,210.9 616.0,211.3 616.2,210.4 616.4,208.2 616.6,208.8 616.8,207.8 617.0,208.4 617.1,207.5 617.3,207.5 617.5,207.1 617.7,206.6 617.9,206.2 618.1,208.0 618.3,207.7 618.4,208.2 618.6,207.5 618.8,206.9 619.0,205.9 619.2,205.1 619.4,205.5 619.6,205.6 619.7,205.3 619.9,206.3 620.1,204.0 620.3,203.8 620.5,203.7 620.7,204.5 620.9,204.3 621.0,205.7 621.2,205.7 621.4,205.6 621.6,206.9 621.8,207.5 622.0,207.3 622.1,206.8 622.3,206.6 622.5,207.5 622.7,208.0 622.9,206.9 623.1,206.9 623.3,206.7 623.4,205.8 623.6,207.5 623.8,207.2 624.0,206.7 624.2,208.1 624.4,207.4 624.6,206.1 624.7,206.2 624.9,206.8 625.1,207.0 625.3,207.5 625.5,206.5 625.7,204.7 625.8,204.2 626.0,204.4 626.2,205.1 626.4,204.9 626.6,205.1 626.8,205.9 627.0,206.8 627.1,206.7 627.3,208.2 627.5,209.1 627.7,208.3 627.9,207.4 628.1,207.8 628.3,207.6 628.4,207.7 628.6,207.1 628.8,207.5 629.0,208.2 629.2,208.8 629.4,209.1 629.6,209.4 629.7,209.0 629.9,209.8 630.1,209.1 630.3,208.0 630.5,205.4 630.7,204.9 630.8,204.9 631.0,206.2 631.2,206.9 631.4,206.4 631.6,204.9 631.8,202.6 632.0,203.0 632.1,198.1 632.3,198.2 632.5,197.6 632.7,196.3 632.9,197.9 633.1,199.8 633.3,198.6 633.4,197.3 633.6,195.6 633.8,194.6 634.0,194.5 634.2,195.0 634.4,197.8 634.5,198.9 634.7,199.6 634.9,197.3 635.1,198.0 635.3,196.3 635.5,194.8 635.7,193.9 635.8,192.9 636.0,192.0 636.2,193.3 636.4,192.1 636.6,192.4 636.8,193.5 637.0,195.3 637.1,192.5 637.3,192.1 637.5,192.8 637.7,192.4 637.9,190.8 638.1,191.2 638.3,188.6 638.4,186.9 638.6,186.3 638.8,186.8 639.0,184.3 639.2,183.8 639.4,185.7 639.5,184.6 639.7,185.4 639.9,185.9 640.1,185.9 640.3,185.9 640.5,185.8 640.7,182.6 640.8,182.6 641.0,185.2 641.2,186.6 641.4,186.1 641.6,186.0 641.8,187.1 642.0,187.8 642.1,190.9 642.3,189.3 642.5,188.3 642.7,189.0 642.9,188.3 643.1,187.7 643.2,187.4 643.4,185.4 643.6,184.2 643.8,185.2 644.0,180.7 644.2,178.5 644.4,178.3 644.5,179.1 644.7,180.1 644.9,180.4 645.1,180.4 645.3,179.0 645.5,180.1 645.7,181.8 645.8,182.2 646.0,183.1 646.2,181.8 646.4,182.1 646.6,183.2 646.8,183.6 647.0,183.1 647.1,183.4 647.3,184.0 647.5,183.0 647.7,182.8 647.9,182.6 648.1,182.8 648.2,184.1 648.4,184.1 648.6,183.3 648.8,181.8 649.0,181.5 649.2,180.6 649.4,179.8 649.5,180.2 649.7,179.2 649.9,179.4 650.1,177.3 650.3,177.0 650.5,178.4 650.7,178.6 650.8,177.2 651.0,177.3 651.2,175.9 651.4,172.7 651.6,173.1 651.8,174.2 651.9,174.5 652.1,174.2 652.3,173.7 652.5,174.3 652.7,172.1 652.9,172.3 653.1,171.3 653.2,169.1 653.4,168.3 653.6,169.2 653.8,170.0 654.0,167.9 654.2,163.4 654.4,163.3 654.5,159.8 654.7,158.0 654.9,163.3 655.1,163.6 655.3,165.0 655.5,166.5 655.7,166.8 655.8,169.0 656.0,170.6 656.2,169.2 656.4,165.5 656.6,168.1 656.8,170.1 656.9,168.9 657.1,166.4 657.3,170.0 657.5,168.3 657.7,170.0 657.9,172.3 658.1,171.6 658.2,168.3 658.4,167.8 658.6,166.7 658.8,167.7 659.0,167.8 659.2,166.7 659.4,170.8 659.5,169.4 659.7,169.3 659.9,165.7 660.1,165.3 660.3,164.9 660.5,163.9 660.6,162.8 660.8,161.2 661.0,159.2 661.2,159.1 661.4,157.5 661.6,155.2 661.8,154.1 661.9,153.2 662.1,150.9 662.3,150.1 662.5,149.2 662.7,145.7 662.9,145.5 663.1,147.2 663.2,146.0 663.4,149.9 663.6,153.0 663.8,150.2 664.0,148.4 664.2,147.7 664.3,145.4 664.5,150.1 664.7,156.7 664.9,162.9 665.1,173.0 665.3,173.4 665.5,169.8 665.6,168.4 665.8,163.9 666.0,162.1 666.2,160.8 666.4,164.3 666.6,167.9 666.8,167.0 666.9,169.0 667.1,169.0 667.3,166.9 667.5,167.9 667.7,166.4 667.9,165.7 668.1,165.6 668.2,167.6 668.4,168.5 668.6,166.7 668.8,168.5 669.0,166.5 669.2,166.0 669.3,166.8 669.5,168.8 669.7,174.4 669.9,178.3 670.1,177.7 670.3,181.6 670.5,178.3 670.6,179.6 670.8,180.4 671.0,181.4 671.2,181.0 671.4,180.0 671.6,175.2 671.8,174.8 671.9,177.5 672.1,179.2 672.3,183.8 672.5,186.0 672.7,184.6 672.9,182.5 673.0,185.1 673.2,183.8 673.4,179.5 673.6,181.0 673.8,183.7 674.0,184.7 674.2,184.7 674.3,183.9 674.5,185.2 674.7,182.4 674.9,179.5 675.1,179.9 675.3,179.0 675.5,179.4 675.6,177.2 675.8,177.4 676.0,180.0 676.2,181.1 676.4,178.2 676.6,177.8 676.8,179.1 676.9,182.4 677.1,183.8 677.3,184.1 677.5,183.2 677.7,183.9 677.9,188.2 678.0,184.3 678.2,185.1 678.4,181.6 678.6,180.7 678.8,181.8 679.0,181.6 679.2,184.8 679.3,184.1 679.5,182.1 679.7,183.3 679.9,183.3 680.1,183.6 680.3,188.7 680.5,188.8 680.6,190.2 680.8,189.9 681.0,193.4 681.2,195.6 681.4,199.6 681.6,201.7 681.7,197.6 681.9,204.5 682.1,204.3 682.3,205.9 682.5,205.4 682.7,203.3 682.9,198.2 683.0,198.2 683.2,201.1 683.4,198.0 683.6,197.8 683.8,199.9 684.0,201.3 684.2,202.0 684.3,201.6 684.5,196.5 684.7,194.1 684.9,191.4 685.1,191.3 685.3,193.8 685.5,194.2 685.6,193.0 685.8,192.7 686.0,196.8 686.2,200.5 686.4,202.5 686.6,203.0 686.7,197.6 686.9,200.0 687.1,195.7 687.3,195.8 687.5,197.7 687.7,198.4 687.9,202.9 688.0,203.1 688.2,205.4 688.4,202.8 688.6,199.6 688.8,199.8 689.0,199.0 689.2,198.2 689.3,194.4 689.5,195.3 689.7,195.8 689.9,197.6 690.1,198.0 690.3,198.6 690.4,196.1 690.6,200.5 690.8,202.3 691.0,200.7 691.2,202.5 691.4,203.6 691.6,204.9 691.7,202.4 691.9,201.6 692.1,203.5 692.3,199.2 692.5,197.0 692.7,197.0 692.9,190.6 693.0,192.5 693.2,189.9 693.4,190.5 693.6,188.1 693.8,197.1 694.0,196.7 694.2,196.5 694.3,204.2 694.5,200.2 694.7,202.6 694.9,202.4 695.1,201.4 695.3,205.8 695.4,200.1 695.6,193.1 695.8,198.7 696.0,197.8 696.2,197.2 696.4,198.4 696.6,204.3 696.7,202.4 696.9,199.7 697.1,199.0 697.3,192.9 697.5,195.2 697.7,196.1 697.9,197.4 698.0,197.1 698.2,201.0 698.4,200.2 698.6,198.8 698.8,201.3 699.0,199.1 699.1,199.0 699.3,196.7 699.5,200.0 699.7,199.7 699.9,200.7 700.1,203.6 700.3,203.4 700.4,203.9 700.6,202.0 700.8,203.4 701.0,201.4 701.2,197.0 701.4,196.4 701.6,197.4 701.7,201.0 701.9,201.2 702.1,202.9 702.3,202.4 702.5,201.8 702.7,199.2 702.9,201.8 703.0,201.6 703.2,203.7 703.4,205.8 703.6,208.4 703.8,210.5 704.0,210.3 704.1,211.2 704.3,212.3 704.5,212.7 704.7,211.5 704.9,213.7 705.1,213.3 705.3,209.9 705.4,209.9 705.6,210.6 705.8,208.5 706.0,208.6 706.2,206.9 706.4,208.6 706.6,205.1 706.7,204.9 706.9,205.7 707.1,202.2 707.3,201.1 707.5,203.4 707.7,203.7 707.8,202.7 708.0,200.4 708.2,200.8 708.4,199.4 708.6,200.5 708.8,197.3 709.0,196.1 709.1,194.0 709.3,193.6 709.5,190.1 709.7,190.4 709.9,194.8 710.1,189.9 710.3,190.2 710.4,189.5 710.6,190.3 710.8,186.9 711.0,174.7 711.2,178.7 711.4,177.5 711.6,177.9 711.7,172.3 711.9,171.3 712.1,171.6 712.3,170.8 712.5,174.5 712.7,182.3 712.8,180.6 713.0,179.7 713.2,179.4 713.4,179.0 713.6,177.0 713.8,171.9 714.0,173.2 714.1,172.8 714.3,173.5 714.5,174.1 714.7,179.8 714.9,180.7 715.1,178.1 715.3,178.7 715.4,170.9 715.6,166.9 715.8,167.2 716.0,164.8 716.2,162.4 716.4,161.7 716.5,161.3 716.7,160.4 716.9,164.2 717.1,164.8 717.3,164.5 717.5,157.2 717.7,157.6 717.8,158.5 718.0,155.7 718.2,161.1 718.4,160.4 718.6,160.7 718.8,164.2 719.0,166.8 719.1,163.4 719.3,163.0 719.5,173.4 719.7,173.3 719.9,176.9 720.1,181.3 720.3,174.2 720.4,178.1 720.6,179.4 720.8,175.0 721.0,174.4 721.2,178.6 721.4,180.1 721.5,178.2 721.7,179.3 721.9,182.2 722.1,181.0 722.3,179.5 722.5,177.6 722.7,177.0 722.8,178.0 723.0,179.0 723.2,178.0 723.4,179.6 723.6,179.7 723.8,180.7 724.0,178.0 724.1,172.8 724.3,174.0 724.5,174.2 724.7,174.8 724.9,174.2 725.1,173.3 725.2,170.6 725.4,163.1 725.6,163.4 725.8,162.6 726.0,165.6 726.2,166.1 726.4,163.6 726.5,164.0 726.7,158.7 726.9,158.9 727.1,161.5 727.3,162.4 727.5,161.7 727.7,166.5 727.8,167.7 728.0,167.9 728.2,167.2 728.4,166.2 728.6,166.1 728.8,167.5 729.0,168.2 729.1,169.4 729.3,166.6 729.5,167.7 729.7,167.7 729.9,165.8 730.1,164.0 730.2,163.4 730.4,164.0 730.6,163.0 730.8,165.4 731.0,167.2 731.2,170.5 731.4,174.7 731.5,176.7 731.7,177.7 731.9,174.7 732.1,175.8 732.3,171.9 732.5,174.3 732.7,173.4 732.8,172.7 733.0,172.0 733.2,168.0 733.4,168.1 733.6,168.6 733.8,168.0 733.9,165.0 734.1,169.0 734.3,167.3 734.5,168.8 734.7,169.6 734.9,168.4 735.1,166.7 735.2,166.9 735.4,164.9 735.6,162.2 735.8,160.3 736.0,160.2 736.2,161.1 736.4,162.1 736.5,158.9 736.7,160.2 736.9,163.6 737.1,162.3 737.3,162.1 737.5,161.6 737.7,164.0 737.8,163.3 738.0,164.2 738.2,164.2 738.4,164.1 738.6,166.5 738.8,164.7 738.9,164.6 739.1,163.3 739.3,160.1 739.5,157.9 739.7,157.7 739.9,158.5 740.1,158.0 740.2,161.6 740.4,161.2 740.6,160.9 740.8,162.3 741.0,161.9 741.2,161.3 741.4,160.3 741.5,161.2 741.7,162.4 741.9,162.2 742.1,158.7 742.3,157.2 742.5,155.9 742.6,156.4 742.8,156.4 743.0,157.9 743.2,161.4 743.4,161.0 743.6,161.3 743.8,161.2 743.9,162.2 744.1,160.3 744.3,158.8 744.5,161.2 744.7,162.6 744.9,164.7 745.1,162.5 745.2,162.9 745.4,163.0 745.6,164.0 745.8,166.7 746.0,166.4 746.2,165.6 746.4,166.2 746.5,164.7 746.7,163.4 746.9,163.9 747.1,163.6 747.3,162.6 747.5,163.5 747.6,158.4 747.8,158.9 748.0,156.4 748.2,157.0 748.4,157.6 748.6,157.9 748.8,160.0 748.9,159.1 749.1,159.9 749.3,158.0 749.5,157.6 749.7,154.2 749.9,154.2 750.1,152.1 750.2,153.1 750.4,154.6 750.6,153.4 750.8,156.1 751.0,153.8 751.2,153.8 751.3,152.2 751.5,152.9 751.7,154.6 751.9,155.7 752.1,154.9 752.3,154.0 752.5,158.0 752.6,157.5 752.8,163.9 753.0,179.2 753.2,174.2 753.4,172.8 753.6,169.7 753.8,169.9 753.9,170.0 754.1,167.8 754.3,166.6 754.5,168.1 754.7,166.7 754.9,162.6 755.1,164.5 755.2,164.5 755.4,160.5 755.6,161.2 755.8,164.1 756.0,165.6 756.2,166.2 756.3,165.4 756.5,172.2 756.7,165.7 756.9,164.7 757.1,162.8 757.3,157.5 757.5,161.5 757.6,168.6 757.8,164.5 758.0,167.2 758.2,170.6 758.4,173.9 758.6,181.6 758.8,182.3 758.9,186.7 759.1,190.9 759.3,186.5 759.5,191.6 759.7,185.7 759.9,181.2 760.0,182.0 760.2,181.1 760.4,181.9 760.6,182.0 760.8,182.5 761.0,179.7 761.2,180.5 761.3,176.9 761.5,177.9 761.7,177.3 761.9,177.5 762.1,178.3 762.3,174.8 762.5,176.4 762.6,176.1 762.8,173.1 763.0,172.3 763.2,174.9 763.4,173.4 763.6,173.9 763.8,175.5 763.9,173.4 764.1,171.9 764.3,170.4 764.5,169.2 764.7,169.0 764.9,169.7 765.0,168.3 765.2,168.4 765.4,168.6 765.6,168.7 765.8,171.2 766.0,172.3 766.2,171.0 766.3,169.2 766.5,169.6 766.7,170.3 766.9,175.6 767.1,174.5 767.3,173.1 767.5,174.1 767.6,173.0 767.8,173.3 768.0,168.5 768.2,167.4 768.4,167.1 768.6,167.6 768.7,166.6 768.9,165.6 769.1,164.2 769.3,165.7 769.5,168.1 769.7,167.5 769.9,170.9 770.0,167.9 770.2,167.7 770.4,167.1 770.6,164.4 770.8,164.7 771.0,164.4 771.2,163.1 771.3,164.4 771.5,163.2 771.7,158.1 771.9,152.6 772.1,147.0 772.3,131.0 772.5,130.5 772.6,126.9 772.8,126.0 773.0,132.7 773.2,129.8 773.4,133.0 773.6,135.5 773.7,146.8 773.9,145.0 774.1,137.4 774.3,137.5 774.5,137.2 774.7,137.7 774.9,147.1 775.0,146.7 775.2,145.0 775.4,140.8 775.6,141.6 775.8,140.3 776.0,138.0 776.2,135.6 776.3,137.1 776.5,137.1 776.7,139.2 776.9,137.6 777.1,139.3 777.3,140.3 777.4,140.9 777.6,137.4 777.8,131.4 778.0,131.5 778.2,136.0 778.4,139.2 778.6,137.7 778.7,136.6 778.9,135.7 779.1,138.2 779.3,137.2 779.5,131.5 779.7,133.3 779.9,132.5 780.0,133.0 780.2,134.0 780.4,135.9 780.6,140.0 780.8,137.3 781.0,141.3 781.2,140.6 781.3,139.1 781.5,137.0 781.7,135.2 781.9,136.9 782.1,139.2 782.3,133.0 782.4,135.7 782.6,138.7 782.8,138.4 783.0,142.6 783.2,141.8 783.4,140.2 783.6,140.9 783.7,141.6 783.9,137.5 784.1,130.0 784.3,130.1 784.5,131.4 784.7,131.2 784.9,130.6 785.0,132.5 785.2,131.8 785.4,130.8 785.6,131.4 785.8,133.1 786.0,136.2 786.1,137.0 786.3,135.6 786.5,134.7 786.7,138.0 786.9,139.1 787.1,136.0 787.3,134.2 787.4,131.4 787.6,132.2 787.8,127.7 788.0,127.9 788.2,128.3 788.4,129.3 788.6,133.7 788.7,130.8 788.9,130.7 789.1,130.1 789.3,128.4 789.5,128.2 789.7,123.9 789.9,125.9 790.0,127.6 790.2,125.7 790.4,121.8 790.6,123.9 790.8,117.6 791.0,118.3 791.1,118.9 791.3,118.6 791.5,120.9 791.7,121.7 791.9,124.0 792.1,124.7 792.3,127.0 792.4,124.1 792.6,124.0 792.8,122.8 793.0,118.7 793.2,121.1 793.4,120.0 793.6,123.8 793.7,122.1 793.9,122.5 794.1,120.7 794.3,119.9 794.5,120.4 794.7,116.2 794.8,111.2 795.0,111.0 795.2,108.0 795.4,104.1 795.6,98.7 795.8,100.2 796.0,101.1 796.1,91.4 796.3,93.9 796.5,98.5 796.7,98.0 796.9,95.7 797.1,98.7 797.3,98.3 797.4,95.6 797.6,95.9 797.8,92.0 798.0,98.4 798.2,98.0 798.4,104.2 798.6,105.8 798.7,103.3 798.9,101.5 799.1,101.1 799.3,99.2 799.5,96.3 799.7,92.6 799.8,88.0 800.0,82.3 800.2,83.4 800.4,83.4 800.6,93.3 800.8,92.1 801.0,98.9 801.1,95.5 801.3,102.6 801.5,100.2 801.7,105.4 801.9,98.0 802.1,106.1 802.3,107.6 802.4,116.2 802.6,121.0 802.8,119.3 803.0,112.3 803.2,111.8 803.4,116.7 803.5,114.3 803.7,114.9 803.9,113.8 804.1,120.8 804.3,118.8 804.5,120.5 804.7,124.2 804.8,124.4 805.0,119.5 805.2,118.9 805.4,115.9 805.6,118.7 805.8,115.5 806.0,113.0 806.1,114.6 806.3,117.3 806.5,116.2 806.7,120.6 806.9,123.4 807.1,124.5 807.2,124.0 807.4,126.8 807.6,125.5 807.8,120.7 808.0,120.9 808.2,120.5 808.4,122.6 808.5,119.9 808.7,124.1 808.9,123.4 809.1,123.7 809.3,120.4 809.5,122.3 809.7,125.4 809.8,128.6 810.0,129.1 810.2,126.3 810.4,125.5 810.6,128.1 810.8,121.4 811.0,118.7 811.1,118.9 811.3,120.8 811.5,120.0 811.7,123.0 811.9,121.8 812.1,111.2 812.2,110.0 812.4,109.4 812.6,109.8 812.8,110.5 813.0,110.4 813.2,112.6 813.4,114.9 813.5,113.3 813.7,114.1 813.9,115.7 814.1,115.2 814.3,113.7 814.5,116.0 814.7,119.5 814.8,122.7 815.0,123.0 815.2,125.0 815.4,126.8 815.6,124.3 815.8,123.8 815.9,122.9 816.1,119.1 816.3,120.1 816.5,123.0 816.7,121.8 816.9,119.0 817.1,128.5 817.2,128.8 817.4,128.7 817.6,127.3 817.8,131.1 818.0,132.0 818.2,130.3 818.4,129.7 818.5,133.6 818.7,128.3 818.9,131.3 819.1,130.2 819.3,130.7 819.5,130.0 819.7,129.7 819.8,132.3 820.0,141.9 820.2,149.5 820.4,147.4 820.6,145.3 820.8,149.0 820.9,143.2 821.1,142.2 821.3,141.5 821.5,142.0 821.7,144.3 821.9,141.4 822.1,137.4 822.2,139.3 822.4,142.0 822.6,142.7 822.8,142.3 823.0,147.7 823.2,144.7 823.4,148.1 823.5,153.5 823.7,151.4 823.9,147.9 824.1,147.0 824.3,152.3 824.5,149.7 824.6,150.5 824.8,151.7 825.0,146.6 825.2,146.4 825.4,145.8 825.6,143.2 825.8,140.4 825.9,143.0 826.1,143.7 826.3,140.1 826.5,140.9 826.7,144.9 826.9,148.0 827.1,149.3 827.2,146.8 827.4,149.8 827.6,149.4 827.8,148.1 828.0,144.0 828.2,143.2 828.4,144.0 828.5,144.2 828.7,139.8 828.9,138.3 829.1,139.6 829.3,137.1 829.5,138.7 829.6,136.9 829.8,141.8 830.0,139.8 830.2,139.9 830.4,138.1 830.6,135.2 830.8,135.6 830.9,137.3 831.1,140.5 831.3,141.0 831.5,139.0 831.7,140.2 831.9,143.1 832.1,145.4 832.2,143.5 832.4,143.9 832.6,144.3 832.8,145.0 833.0,146.2 833.2,141.5 833.3,142.5 833.5,142.4 833.7,142.3 833.9,143.3 834.1,146.0 834.3,143.0 834.5,143.1 834.6,142.2 834.8,141.6 835.0,142.6 835.2,144.9 835.4,145.0 835.6,146.6 835.8,145.4 835.9,144.7 836.1,142.4 836.3,141.9 836.5,139.9 836.7,136.2 836.9,132.1 837.1,132.6 837.2,131.6 837.4,132.8 837.6,135.1 837.8,134.3 838.0,138.1 838.2,139.9 838.3,138.6 838.5,139.5 838.7,137.5 838.9,137.3 839.1,138.2 839.3,136.3 839.5,141.0 839.6,139.4 839.8,138.5 840.0,139.2 840.2,140.0 840.4,143.2 840.6,142.3 840.8,141.3 840.9,142.9 841.1,141.3 841.3,145.2 841.5,148.5 841.7,147.9 841.9,144.9 842.0,144.9 842.2,141.5 842.4,142.6 842.6,143.3 842.8,148.1 843.0,146.7 843.2,150.0 843.3,154.9 843.5,150.4 843.7,150.2 843.9,148.5 844.1,148.1 844.3,148.2 844.5,151.1 844.6,150.0 844.8,148.7 845.0,148.5 845.2,146.8 845.4,148.1 845.6,151.3 845.8,150.1 845.9,154.4 846.1,153.3 846.3,152.9 846.5,149.5 846.7,150.9 846.9,151.7 847.0,154.2 847.2,160.8 847.4,163.8 847.6,165.8 847.8,163.8 848.0,163.7 848.2,169.9 848.3,181.0 848.5,171.7 848.7,168.0 848.9,165.3 849.1,166.9 849.3,166.3 849.5,165.1 849.6,166.0 849.8,169.6 850.0,169.8 850.2,170.6 850.4,165.2 850.6,166.4 850.7,163.1 850.9,164.0 851.1,166.1 851.3,164.4 851.5,170.3 851.7,166.7 851.9,167.6 852.0,164.2 852.2,164.0 852.4,167.2 852.6,169.2 852.8,171.1 853.0,173.9 853.2,172.7 853.3,182.4 853.5,182.6 853.7,178.6 853.9,176.0 854.1,173.4 854.3,173.7 854.5,179.7 854.6,181.6 854.8,179.8 855.0,178.1 855.2,179.6 855.4,177.6 855.6,179.7 855.7,177.0 855.9,177.8 856.1,177.9 856.3,173.2 856.5,175.1 856.7,178.7 856.9,178.0 857.0,177.9 857.2,176.5 857.4,175.4 857.6,172.8 857.8,173.9 858.0,174.5 858.2,171.8 858.3,170.3 858.5,167.9 858.7,168.7 858.9,166.3 859.1,170.4 859.3,167.6 859.4,164.5 859.6,167.0 859.8,163.6 860.0,164.5 860.2,164.3 860.4,166.9 860.6,163.6 860.7,160.8 860.9,157.8 861.1,155.9 861.3,158.2 861.5,154.5 861.7,155.5 861.9,155.1 862.0,155.0 862.2,159.1 862.4,159.7 862.6,159.4 862.8,163.2 863.0,164.7 863.2,165.3 863.3,166.7 863.5,170.8 863.7,167.9 863.9,168.9 864.1,168.2 864.3,171.0 864.4,170.2 864.6,171.0 864.8,169.7 865.0,171.5 865.2,171.7 865.4,174.3 865.6,175.1 865.7,178.9 865.9,180.4 866.1,178.1 866.3,175.7 866.5,176.6 866.7,176.4 866.9,178.9 867.0,174.7 867.2,174.0 867.4,175.0 867.6,176.0 867.8,174.8 868.0,176.8 868.1,177.4 868.3,177.0 868.5,178.5 868.7,180.6 868.9,177.3 869.1,177.4 869.3,178.8 869.4,179.2 869.6,176.6 869.8,178.8 870.0,180.4"/>
</svg>
