<svg xmlns="http://www.w3.org/2000/svg" width="900" height="360">
<rect width="100%" height="100%" fill="white"/>
<text x="30" y="20" font-size="16">中国平安 价格</text>
<polyline fill="none" stroke="#1f77b4" stroke-width="2" points="30.0,297.9 30.3,296.9 30.5,298.7 30.8,300.2 31.1,300.7 31.4,300.3 31.6,299.5 31.9,303.5 32.2,302.5 32.5,302.3 32.7,303.5 33.0,303.1 33.3,305.6 33.5,304.1 33.8,304.0 34.1,304.4 34.4,306.1 34.6,307.7 34.9,309.0 35.2,309.5 35.5,307.4 35.7,308.0 36.0,304.3 36.3,305.1 36.5,307.0 36.8,307.0 37.1,306.0 37.4,304.0 37.6,304.2 37.9,303.9 38.2,305.4 38.5,312.2 38.7,312.4 39.0,311.5 39.3,311.8 39.5,309.1 39.8,309.3 40.1,309.6 40.4,311.7 40.6,311.0 40.9,310.0 41.2,308.6 41.5,308.3 41.7,308.7 42.0,309.2 42.3,310.8 42.5,310.8 42.8,306.6 43.1,307.1 43.4,306.4 43.6,306.5 43.9,307.6 44.2,307.3 44.5,308.4 44.7,306.7 45.0,303.6 45.3,302.7 45.6,303.4 45.8,302.0 46.1,301.6 46.4,302.5 46.6,302.7 46.9,304.5 47.2,302.9 47.5,304.1 47.7,301.1 48.0,300.5 48.3,300.1 48.6,302.3 48.8,305.2 49.1,303.0 49.4,300.8 49.6,301.2 49.9,301.2 50.2,302.9 50.5,304.6 50.7,305.6 51.0,306.4 51.3,304.9 51.6,305.1 51.8,305.9 52.1,309.9 52.4,309.7 52.6,306.8 52.9,309.0 53.2,306.2 53.5,305.0 53.7,306.7 54.0,311.0 54.3,309.2 54.6,309.8 54.8,311.9 55.1,311.5 55.4,308.9 55.6,311.4 55.9,311.1 56.2,310.1 56.5,310.3 56.7,311.2 57.0,310.4 57.3,311.0 57.6,310.8 57.8,310.9 58.1,312.5 58.4,312.9 58.6,310.8 58.9,312.1 59.2,311.3 59.5,311.7 59.7,311.9 60.0,308.6 60.3,308.5 60.6,309.1 60.8,308.4 61.1,307.9 61.4,309.0 61.6,309.0 61.9,309.0 62.2,309.0 62.5,309.0 62.7,309.0 63.0,309.0 63.3,309.0 63.6,309.0 63.8,309.0 64.1,309.0 64.4,309.0 64.6,309.0 64.9,309.0 65.2,309.0 65.5,309.0 65.7,309.0 66.0,309.0 66.3,309.0 66.6,309.0 66.8,309.0 67.1,309.0 67.4,309.0 67.6,309.0 67.9,309.0 68.2,309.0 68.5,309.0 68.7,309.0 69.0,309.0 69.3,309.0 69.6,309.0 69.8,309.0 70.1,309.0 70.4,309.0 70.6,309.0 70.9,309.0 71.2,309.0 71.5,309.0 71.7,309.0 72.0,309.0 72.3,309.0 72.6,309.0 72.8,309.0 73.1,309.0 73.4,309.0 73.7,309.0 73.9,309.0 74.2,309.0 74.5,305.7 74.7,305.3 75.0,301.8 75.3,302.3 75.6,303.6 75.8,305.6 76.1,304.7 76.4,303.9 76.7,303.1 76.9,304.4 77.2,304.9 77.5,305.2 77.7,303.3 78.0,302.9 78.3,300.9 78.6,301.7 78.8,301.6 79.1,298.7 79.4,295.1 79.7,290.3 79.9,289.9 80.2,288.6 80.5,286.3 80.7,283.3 81.0,286.7 81.3,283.4 81.6,276.5 81.8,278.6 82.1,279.7 82.4,276.8 82.7,281.2 82.9,285.5 83.2,286.2 83.5,287.6 83.7,287.6 84.0,286.7 84.3,286.8 84.6,285.2 84.8,283.6 85.1,284.9 85.4,287.3 85.7,285.9 85.9,283.6 86.2,286.3 86.5,288.4 86.7,292.8 87.0,292.4 87.3,291.2 87.6,291.1 87.8,290.1 88.1,293.4 88.4,290.2 88.7,289.9 88.9,292.0 89.2,291.1 89.5,292.7 89.7,293.8 90.0,292.4 90.3,289.7 90.6,287.9 90.8,286.9 91.1,288.8 91.4,288.8 91.7,286.1 91.9,285.2 92.2,286.0 92.5,288.3 92.7,291.0 93.0,291.4 93.3,293.5 93.6,289.7 93.8,291.8 94.1,292.3 94.4,292.3 94.7,294.2 94.9,295.2 95.2,294.6 95.5,295.1 95.7,293.6 96.0,292.4 96.3,295.6 96.6,299.2 96.8,298.5 97.1,300.1 97.4,299.9 97.7,298.6 97.9,298.6 98.2,300.1 98.5,303.5 98.7,303.3 99.0,302.2 99.3,305.2 99.6,304.2 99.8,305.9 100.1,305.6 100.4,304.9 100.7,303.4 100.9,304.2 101.2,303.7 101.5,303.3 101.8,303.4 102.0,302.4 102.3,303.3 102.6,299.7 102.8,300.7 103.1,300.9 103.4,301.3 103.7,301.4 103.9,300.8 104.2,304.5 104.5,304.9 104.8,305.0 105.0,304.5 105.3,303.6 105.6,302.9 105.8,303.1 106.1,302.1 106.4,299.9 106.7,297.7 106.9,298.3 107.2,297.9 107.5,300.7 107.8,301.9 108.0,301.9 108.3,304.1 108.6,303.0 108.8,305.2 109.1,304.8 109.4,304.5 109.7,303.1 109.9,302.6 110.2,303.2 110.5,302.5 110.8,303.1 111.0,303.5 111.3,303.3 111.6,304.1 111.8,301.3 112.1,298.2 112.4,298.5 112.7,298.7 112.9,300.3 113.2,300.1 113.5,297.7 113.8,298.3 114.0,296.7 114.3,295.6 114.6,298.8 114.8,299.1 115.1,298.6 115.4,299.8 115.7,300.6 115.9,300.8 116.2,300.7 116.5,299.9 116.8,299.7 117.0,299.2 117.3,302.0 117.6,302.8 117.8,303.1 118.1,303.7 118.4,302.9 118.7,302.9 118.9,304.5 119.2,303.2 119.5,304.4 119.8,303.6 120.0,303.1 120.3,303.4 120.6,303.3 120.8,306.2 121.1,306.0 121.4,306.7 121.7,306.9 121.9,306.5 122.2,306.4 122.5,305.3 122.8,305.6 123.0,307.6 123.3,306.9 123.6,306.5 123.8,307.0 124.1,307.9 124.4,307.3 124.7,308.3 124.9,307.9 125.2,308.9 125.5,308.9 125.8,310.9 126.0,312.1 126.3,311.7 126.6,311.3 126.8,309.8 127.1,306.9 127.4,307.2 127.7,307.5 127.9,308.4 128.2,306.0 128.5,306.2 128.8,304.6 129.0,305.3 129.3,304.8 129.6,305.5 129.9,305.6 130.1,306.5 130.4,308.6 130.7,307.3 130.9,307.4 131.2,306.8 131.5,307.3 131.8,308.1 132.0,307.8 132.3,309.0 132.6,308.3 132.9,310.2 133.1,309.6 133.4,310.5 133.7,312.0 133.9,311.3 134.2,310.7 134.5,311.5 134.8,312.0 135.0,312.1 135.3,314.8 135.6,316.9 135.9,317.4 136.1,316.9 136.4,315.8 136.7,316.5 136.9,314.3 137.2,315.5 137.5,315.5 137.8,316.5 138.0,318.0 138.3,317.8 138.6,316.9 138.9,317.5 139.1,314.6 139.4,315.3 139.7,316.8 139.9,317.2 140.2,317.3 140.5,316.7 140.8,316.5 141.0,317.8 141.3,318.3 141.6,317.4 141.9,318.2 142.1,318.0 142.4,319.1 142.7,319.1 142.9,319.4 143.2,318.9 143.5,320.1 143.8,319.9 144.0,318.0 144.3,320.0 144.6,321.4 144.9,327.2 145.1,326.2 145.4,326.7 145.7,327.7 145.9,328.5 146.2,328.0 146.5,327.3 146.8,324.2 147.0,324.1 147.3,323.9 147.6,322.7 147.9,325.4 148.1,325.3 148.4,326.7 148.7,326.2 148.9,323.3 149.2,322.9 149.5,322.2 149.8,321.4 150.0,320.3 150.3,320.3 150.6,319.5 150.9,318.1 151.1,317.6 151.4,317.6 151.7,318.6 151.9,318.4 152.2,317.4 152.5,320.1 152.8,320.1 153.0,318.3 153.3,319.0 153.6,321.9 153.9,322.6 154.1,324.0 154.4,323.6 154.7,324.1 154.9,325.3 155.2,324.4 155.5,325.0 155.8,324.5 156.0,323.5 156.3,325.8 156.6,322.7 156.9,322.9 157.1,322.9 157.4,323.3 157.7,321.6 158.0,321.4 158.2,321.5 158.5,322.2 158.8,324.6 159.0,324.6 159.3,325.9 159.6,324.7 159.9,324.4 160.1,324.1 160.4,327.1 160.7,327.8 161.0,327.8 161.2,328.5 161.5,328.2 161.8,327.6 162.0,327.9 162.3,327.1 162.6,328.0 162.9,327.9 163.1,328.0 163.4,326.6 163.7,324.2 164.0,324.9 164.2,324.0 164.5,324.6 164.8,325.3 165.0,321.7 165.3,322.3 165.6,320.6 165.9,319.7 166.1,320.5 166.4,320.9 166.7,322.4 167.0,318.8 167.2,318.0 167.5,318.8 167.8,320.0 168.0,320.0 168.3,318.4 168.6,318.1 168.9,317.8 169.1,318.9 169.4,317.9 169.7,318.7 170.0,318.6 170.2,318.1 170.5,317.1 170.8,316.5 171.0,316.6 171.3,315.6 171.6,315.8 171.9,315.5 172.1,316.9 172.4,317.4 172.7,316.2 173.0,318.1 173.2,319.1 173.5,319.6 173.8,318.4 174.0,318.1 174.3,318.6 174.6,317.2 174.9,318.6 175.1,319.0 175.4,319.0 175.7,319.8 176.0,320.2 176.2,319.9 176.5,319.9 176.8,320.8 177.0,321.0 177.3,320.9 177.6,322.4 177.9,324.2 178.1,323.7 178.4,321.8 178.7,321.3 179.0,322.0 179.2,321.3 179.5,321.6 179.8,319.7 180.0,318.6 180.3,319.1 180.6,320.0 180.9,318.3 181.1,316.6 181.4,316.1 181.7,317.2 182.0,317.0 182.2,317.0 182.5,316.3 182.8,317.1 183.0,314.8 183.3,313.3 183.6,313.3 183.9,315.1 184.1,315.7 184.4,315.9 184.7,316.1 185.0,316.4 185.2,317.0 185.5,314.7 185.8,316.3 186.1,314.4 186.3,316.0 186.6,315.7 186.9,314.1 187.1,314.7 187.4,315.0 187.7,317.2 188.0,316.5 188.2,314.7 188.5,314.6 188.8,315.2 189.1,314.8 189.3,316.9 189.6,317.2 189.9,316.6 190.1,316.5 190.4,316.5 190.7,314.5 191.0,314.3 191.2,309.8 191.5,310.1 191.8,308.6 192.1,308.5 192.3,308.7 192.6,308.6 192.9,310.6 193.1,312.6 193.4,311.9 193.7,311.9 194.0,310.8 194.2,309.1 194.5,308.5 194.8,309.3 195.1,310.0 195.3,309.7 195.6,308.3 195.9,309.3 196.1,309.4 196.4,309.1 196.7,310.2 197.0,310.3 197.2,312.2 197.5,311.0 197.8,311.0 198.1,308.4 198.3,308.3 198.6,310.2 198.9,310.0 199.1,310.3 199.4,310.3 199.7,310.7 200.0,312.1 200.2,311.1 200.5,309.5 200.8,310.1 201.1,311.4 201.3,310.5 201.6,311.6 201.9,310.9 202.1,310.4 202.4,310.1 202.7,314.8 203.0,315.3 203.2,315.4 203.5,315.4 203.8,315.3 204.1,316.1 204.3,316.2 204.6,316.5 204.9,316.2 205.1,316.5 205.4,319.7 205.7,319.7 206.0,320.4 206.2,319.3 206.5,319.7 206.8,318.1 207.1,318.8 207.3,319.1 207.6,318.2 207.9,314.6 208.1,314.7 208.4,315.9 208.7,315.9 209.0,316.5 209.2,316.2 209.5,317.8 209.8,317.8 210.1,317.3 210.3,318.2 210.6,318.6 210.9,317.5 211.1,316.9 211.4,317.1 211.7,315.0 212.0,314.5 212.2,315.3 212.5,313.9 212.8,314.1 213.1,315.0 213.3,315.2 213.6,314.9 213.9,314.8 214.2,315.2 214.4,314.8 214.7,314.4 215.0,314.1 215.2,314.8 215.5,314.9 215.8,316.3 216.1,318.1 216.3,320.8 216.6,320.1 216.9,319.6 217.2,318.7 217.4,319.2 217.7,319.6 218.0,319.0 218.2,319.4 218.5,319.9 218.8,319.9 219.1,320.5 219.3,321.5 219.6,321.1 219.9,321.2 220.2,322.3 220.4,323.3 220.7,325.2 221.0,323.4 221.2,323.3 221.5,322.3 221.8,322.5 222.1,323.7 222.3,324.4 222.6,324.6 222.9,323.3 223.2,323.1 223.4,321.8 223.7,319.4 224.0,319.4 224.2,318.8 224.5,317.7 224.8,318.0 225.1,317.8 225.3,319.5 225.6,314.5 225.9,313.6 226.2,314.1 226.4,314.8 226.7,314.0 227.0,313.8 227.2,314.2 227.5,312.8 227.8,312.1 228.1,312.4 228.3,311.5 228.6,309.1 228.9,306.2 229.2,306.0 229.4,308.9 229.7,309.5 230.0,309.6 230.2,310.5 230.5,306.6 230.8,306.4 231.1,308.1 231.3,309.5 231.6,307.3 231.9,308.4 232.2,307.6 232.4,307.3 232.7,307.1 233.0,308.6 233.2,306.9 233.5,306.8 233.8,305.4 234.1,304.4 234.3,300.3 234.6,299.2 234.9,300.5 235.2,297.1 235.4,297.6 235.7,298.5 236.0,302.3 236.2,303.5 236.5,303.5 236.8,306.8 237.1,308.1 237.3,308.3 237.6,309.6 237.9,309.3 238.2,306.3 238.4,308.1 238.7,313.3 239.0,311.3 239.2,310.4 239.5,311.8 239.8,311.3 240.1,312.5 240.3,312.4 240.6,313.4 240.9,313.2 241.2,314.6 241.4,316.6 241.7,315.1 242.0,312.7 242.3,312.6 242.5,312.6 242.8,313.1 243.1,314.4 243.3,314.2 243.6,316.0 243.9,314.8 244.2,316.0 244.4,316.8 244.7,316.4 245.0,317.6 245.3,315.8 245.5,315.7 245.8,315.7 246.1,315.8 246.3,316.8 246.6,315.2 246.9,314.7 247.2,314.0 247.4,313.0 247.7,314.5 248.0,317.8 248.3,317.0 248.5,317.4 248.8,317.9 249.1,317.6 249.3,315.9 249.6,315.2 249.9,315.5 250.2,314.9 250.4,315.9 250.7,315.9 251.0,317.3 251.3,319.2 251.5,319.8 251.8,317.9 252.1,316.9 252.3,315.8 252.6,316.3 252.9,316.2 253.2,318.0 253.4,317.8 253.7,318.0 254.0,316.0 254.3,316.8 254.5,317.2 254.8,317.8 255.1,317.8 255.3,318.6 255.6,318.6 255.9,319.4 256.2,320.7 256.4,322.9 256.7,322.3 257.0,321.1 257.3,320.1 257.5,320.9 257.8,323.0 258.1,321.8 258.3,326.1 258.6,325.9 258.9,326.0 259.2,326.3 259.4,325.7 259.7,326.1 260.0,326.2 260.3,326.9 260.5,326.5 260.8,326.1 261.1,326.9 261.3,327.3 261.6,326.3 261.9,323.3 262.2,325.3 262.4,324.9 262.7,325.3 263.0,326.3 263.3,327.6 263.5,327.9 263.8,327.9 264.1,327.2 264.3,328.6 264.6,329.0 264.9,329.2 265.2,330.0 265.4,329.9 265.7,330.0 266.0,329.1 266.3,329.6 266.5,328.5 266.8,328.5 267.1,328.8 267.3,328.7 267.6,328.5 267.9,326.1 268.2,325.5 268.4,325.5 268.7,325.8 269.0,326.3 269.3,326.0 269.5,326.6 269.8,326.5 270.1,326.7 270.4,327.2 270.6,326.1 270.9,326.4 271.2,327.4 271.4,327.3 271.7,325.5 272.0,325.0 272.3,323.5 272.5,324.1 272.8,324.1 273.1,324.0 273.4,321.0 273.6,319.8 273.9,319.9 274.2,319.0 274.4,320.7 274.7,320.2 275.0,320.4 275.3,320.6 275.5,319.8 275.8,321.9 276.1,322.2 276.4,324.0 276.6,323.6 276.9,323.8 277.2,323.5 277.4,323.0 277.7,324.1 278.0,322.7 278.3,321.9 278.5,321.9 278.8,323.6 279.1,324.0 279.4,323.8 279.6,323.1 279.9,323.9 280.2,324.0 280.4,325.0 280.7,324.5 281.0,324.0 281.3,322.1 281.5,321.1 281.8,322.0 282.1,320.8 282.4,321.5 282.6,322.1 282.9,322.3 283.2,322.4 283.4,323.2 283.7,322.9 284.0,321.1 284.3,322.9 284.5,322.1 284.8,319.8 285.1,315.0 285.4,315.5 285.6,315.2 285.9,316.8 286.2,316.7 286.4,316.1 286.7,315.9 287.0,314.5 287.3,314.4 287.5,314.3 287.8,312.1 288.1,311.9 288.4,309.9 288.6,310.3 288.9,312.1 289.2,312.1 289.4,311.6 289.7,314.0 290.0,314.3 290.3,313.1 290.5,313.5 290.8,313.6 291.1,313.9 291.4,315.3 291.6,318.5 291.9,317.6 292.2,317.0 292.4,316.7 292.7,317.5 293.0,315.4 293.3,315.5 293.5,314.0 293.8,314.7 294.1,316.3 294.4,316.3 294.6,316.7 294.9,315.8 295.2,316.9 295.4,317.5 295.7,317.7 296.0,316.8 296.3,317.3 296.5,314.8 296.8,315.4 297.1,315.6 297.4,314.6 297.6,313.9 297.9,315.2 298.2,316.0 298.5,318.4 298.7,318.2 299.0,318.0 299.3,318.2 299.5,319.7 299.8,318.3 300.1,317.5 300.4,318.1 300.6,318.5 300.9,318.3 301.2,317.6 301.5,318.9 301.7,318.3 302.0,319.1 302.3,318.4 302.5,318.7 302.8,320.7 303.1,320.9 303.4,320.1 303.6,319.3 303.9,320.1 304.2,320.1 304.5,320.6 304.7,320.3 305.0,320.8 305.3,323.0 305.5,323.0 305.8,322.8 306.1,322.1 306.4,322.2 306.6,322.0 306.9,322.8 307.2,323.3 307.5,323.2 307.7,320.9 308.0,320.5 308.3,321.5 308.5,321.4 308.8,321.4 309.1,321.1 309.4,320.8 309.6,320.6 309.9,319.3 310.2,319.2 310.5,318.6 310.7,317.0 311.0,317.7 311.3,313.1 311.5,314.8 311.8,315.5 312.1,316.7 312.4,316.5 312.6,317.5 312.9,317.5 313.2,318.6 313.5,318.0 313.7,318.5 314.0,317.6 314.3,318.4 314.5,319.9 314.8,318.3 315.1,318.2 315.4,318.1 315.6,317.6 315.9,317.9 316.2,317.9 316.5,318.0 316.7,316.7 317.0,316.9 317.3,317.0 317.5,317.4 317.8,317.6 318.1,318.9 318.4,318.8 318.6,318.2 318.9,318.2 319.2,317.8 319.5,318.0 319.7,318.0 320.0,317.1 320.3,316.8 320.5,317.0 320.8,317.0 321.1,317.9 321.4,317.2 321.6,317.7 321.9,317.3 322.2,316.1 322.5,316.6 322.7,316.9 323.0,315.5 323.3,315.3 323.5,316.2 323.8,316.4 324.1,317.1 324.4,316.8 324.6,317.3 324.9,317.2 325.2,317.8 325.5,317.3 325.7,317.9 326.0,317.2 326.3,317.3 326.6,317.0 326.8,316.8 327.1,316.3 327.4,316.0 327.6,315.9 327.9,316.5 328.2,317.1 328.5,317.0 328.7,316.1 329.0,316.2 329.3,316.5 329.6,316.2 329.8,316.4 330.1,316.3 330.4,315.7 330.6,314.3 330.9,312.5 331.2,312.0 331.5,309.8 331.7,309.6 332.0,309.6 332.3,308.5 332.6,309.9 332.8,307.7 333.1,308.7 333.4,310.0 333.6,311.1 333.9,311.4 334.2,310.2 334.5,311.1 334.7,309.9 335.0,310.9 335.3,309.7 335.6,310.0 335.8,310.5 336.1,311.3 336.4,311.9 336.6,311.4 336.9,312.4 337.2,312.1 337.5,312.1 337.7,312.6 338.0,311.9 338.3,311.7 338.6,311.1 338.8,310.5 339.1,309.5 339.4,309.2 339.6,310.1 339.9,310.9 340.2,311.1 340.5,310.9 340.7,311.9 341.0,312.6 341.3,312.5 341.6,312.4 341.8,311.7 342.1,314.0 342.4,313.6 342.6,311.8 342.9,312.4 343.2,312.7 343.5,313.0 343.7,313.5 344.0,312.6 344.3,312.5 344.6,313.4 344.8,314.2 345.1,314.4 345.4,313.4 345.6,313.8 345.9,313.8 346.2,313.6 346.5,314.1 346.7,313.3 347.0,313.8 347.3,313.9 347.6,315.5 347.8,314.5 348.1,312.3 348.4,312.3 348.6,310.7 348.9,310.9 349.2,311.5 349.5,311.5 349.7,312.1 350.0,312.1 350.3,310.8 350.6,310.6 350.8,309.4 351.1,308.6 351.4,308.2 351.6,310.0 351.9,311.4 352.2,311.4 352.5,310.9 352.7,309.1 353.0,306.0 353.3,305.9 353.6,302.6 353.8,301.0 354.1,299.7 354.4,297.9 354.7,292.0 354.9,290.8 355.2,282.5 355.5,284.0 355.7,274.5 356.0,283.6 356.3,283.1 356.6,287.8 356.8,287.4 357.1,285.9 357.4,277.4 357.7,276.4 357.9,273.0 358.2,274.3 358.5,272.8 358.7,273.6 359.0,281.3 359.3,276.9 359.6,269.6 359.8,264.3 360.1,261.3 360.4,258.1 360.7,255.7 360.9,259.8 361.2,260.3 361.5,264.2 361.7,261.2 362.0,257.4 362.3,257.5 362.6,259.6 362.8,251.2 363.1,252.2 363.4,265.2 363.7,264.9 363.9,253.7 364.2,256.9 364.5,254.7 364.7,256.6 365.0,259.4 365.3,262.1 365.6,265.0 365.8,267.1 366.1,272.2 366.4,267.5 366.7,270.1 366.9,272.7 367.2,272.1 367.5,269.3 367.7,268.4 368.0,265.7 368.3,266.1 368.6,266.1 368.8,265.4 369.1,265.0 369.4,269.0 369.7,266.2 369.9,265.5 370.2,266.1 370.5,270.7 370.7,271.0 371.0,274.0 371.3,274.3 371.6,272.0 371.8,273.1 372.1,272.2 372.4,267.9 372.7,267.7 372.9,260.2 373.2,258.1 373.5,253.6 373.7,256.4 374.0,252.0 374.3,252.8 374.6,256.4 374.8,257.5 375.1,252.4 375.4,254.8 375.7,249.4 375.9,252.3 376.2,250.8 376.5,252.6 376.7,251.5 377.0,247.7 377.3,245.4 377.6,247.0 377.8,239.2 378.1,239.1 378.4,241.6 378.7,241.8 378.9,231.5 379.2,232.9 379.5,240.2 379.7,236.1 380.0,232.6 380.3,235.9 380.6,241.3 380.8,238.9 381.1,239.3 381.4,236.8 381.7,235.0 381.9,232.0 382.2,239.2 382.5,235.2 382.8,237.7 383.0,237.9 383.3,234.9 383.6,234.5 383.8,237.7 384.1,238.9 384.4,242.0 384.7,245.4 384.9,240.3 385.2,240.1 385.5,238.4 385.8,233.5 386.0,230.2 386.3,227.5 386.6,231.0 386.8,240.7 387.1,240.3 387.4,237.1 387.7,238.8 387.9,240.2 388.2,236.1 388.5,237.8 388.8,229.5 389.0,233.8 389.3,235.4 389.6,232.3 389.8,232.5 390.1,237.8 390.4,238.6 390.7,237.8 390.9,242.8 391.2,248.6 391.5,242.0 391.8,241.3 392.0,245.3 392.3,253.6 392.6,255.1 392.8,246.1 393.1,251.6 393.4,253.0 393.7,258.5 393.9,252.3 394.2,239.4 394.5,253.6 394.8,248.7 395.0,245.7 395.3,248.3 395.6,251.6 395.8,251.0 396.1,251.9 396.4,248.6 396.7,247.6 396.9,248.4 397.2,250.6 397.5,245.1 397.8,248.3 398.0,260.0 398.3,264.9 398.6,265.4 398.8,267.5 399.1,270.7 399.4,270.7 399.7,267.9 399.9,270.9 400.2,272.3 400.5,268.9 400.8,264.9 401.0,265.7 401.3,269.3 401.6,268.3 401.8,268.9 402.1,272.0 402.4,277.6 402.7,277.2 402.9,280.1 403.2,283.9 403.5,293.7 403.8,298.2 404.0,294.0 404.3,285.2 404.6,283.1 404.8,280.9 405.1,281.4 405.4,282.0 405.7,285.6 405.9,282.7 406.2,280.6 406.5,280.4 406.8,281.8 407.0,280.8 407.3,283.1 407.6,279.4 407.8,280.4 408.1,279.4 408.4,278.1 408.7,275.3 408.9,278.7 409.2,277.5 409.5,277.2 409.8,278.3 410.0,281.5 410.3,281.8 410.6,278.9 410.9,275.7 411.1,272.4 411.4,273.9 411.7,275.7 411.9,273.0 412.2,271.9 412.5,270.6 412.8,271.5 413.0,271.7 413.3,271.7 413.6,268.8 413.9,269.3 414.1,266.6 414.4,269.4 414.7,269.9 414.9,269.6 415.2,271.2 415.5,271.2 415.8,264.5 416.0,263.4 416.3,260.5 416.6,259.6 416.9,260.3 417.1,261.7 417.4,263.1 417.7,264.3 417.9,264.1 418.2,263.6 418.5,264.9 418.8,263.5 419.0,264.4 419.3,264.6 419.6,264.6 419.9,264.4 420.1,264.4 420.4,268.4 420.7,268.5 420.9,267.5 421.2,261.1 421.5,261.3 421.8,264.7 422.0,265.4 422.3,266.5 422.6,266.4 422.9,266.2 423.1,265.9 423.4,262.4 423.7,263.6 423.9,263.8 424.2,262.8 424.5,261.9 424.8,258.1 425.0,258.0 425.3,257.9 425.6,258.1 425.9,258.1 426.1,262.2 426.4,260.6 426.7,262.0 426.9,261.1 427.2,267.7 427.5,266.2 427.8,266.1 428.0,268.6 428.3,268.1 428.6,274.5 428.9,273.9 429.1,274.6 429.4,274.6 429.7,277.3 429.9,277.7 430.2,276.2 430.5,279.5 430.8,280.8 431.0,280.6 431.3,280.4 431.6,283.9 431.9,283.9 432.1,283.6 432.4,280.7 432.7,282.9 432.9,281.4 433.2,282.5 433.5,282.3 433.8,282.4 434.0,283.2 434.3,280.9 434.6,281.2 434.9,281.6 435.1,281.6 435.4,278.0 435.7,279.6 435.9,279.9 436.2,284.8 436.5,284.3 436.8,284.6 437.0,283.8 437.3,280.7 437.6,280.0 437.9,276.1 438.1,277.8 438.4,276.9 438.7,276.7 439.0,278.8 439.2,277.8 439.5,277.6 439.8,276.7 440.0,274.1 440.3,274.6 440.6,274.2 440.9,271.8 441.1,274.2 441.4,273.7 441.7,275.2 442.0,274.4 442.2,276.4 442.5,277.1 442.8,274.6 443.0,275.2 443.3,274.8 443.6,274.6 443.9,275.5 444.1,276.7 444.4,277.4 444.7,276.2 445.0,276.1 445.2,274.9 445.5,274.5 445.8,274.6 446.0,275.3 446.3,274.8 446.6,273.9 446.9,273.8 447.1,273.2 447.4,273.5 447.7,273.3 448.0,273.7 448.2,273.9 448.5,274.4 448.8,274.9 449.0,274.8 449.3,274.7 449.6,276.6 449.9,277.4 450.1,277.3 450.4,277.1 450.7,275.6 451.0,275.5 451.2,275.9 451.5,276.2 451.8,275.2 452.0,275.1 452.3,275.2 452.6,275.1 452.9,275.8 453.1,275.9 453.4,275.8 453.7,275.9 454.0,274.9 454.2,272.2 454.5,273.6 454.8,273.9 455.0,273.4 455.3,274.2 455.6,274.1 455.9,274.1 456.1,275.2 456.4,274.6 456.7,274.6 457.0,274.7 457.2,274.6 457.5,274.2 457.8,274.4 458.0,274.3 458.3,274.6 458.6,276.1 458.9,275.7 459.1,275.1 459.4,274.0 459.7,274.4 460.0,274.0 460.2,273.1 460.5,273.2 460.8,273.4 461.0,273.6 461.3,274.2 461.6,274.1 461.9,272.0 462.1,271.8 462.4,271.7 462.7,271.4 463.0,271.1 463.2,272.1 463.5,272.4 463.8,271.5 464.1,272.4 464.3,272.4 464.6,271.6 464.9,270.7 465.1,271.9 465.4,272.2 465.7,272.5 466.0,272.5 466.2,272.8 466.5,272.9 466.8,272.8 467.1,272.5 467.3,271.6 467.6,271.6 467.9,270.7 468.1,268.4 468.4,264.7 468.7,266.9 469.0,266.7 469.2,265.2 469.5,264.9 469.8,265.1 470.1,263.8 470.3,265.5 470.6,266.3 470.9,266.3 471.1,265.7 471.4,265.9 471.7,265.9 472.0,265.4 472.2,263.7 472.5,263.4 472.8,262.1 473.1,261.8 473.3,261.2 473.6,261.0 473.9,262.1 474.1,263.5 474.4,264.9 474.7,262.6 475.0,263.1 475.2,263.7 475.5,262.5 475.8,262.9 476.1,264.7 476.3,264.7 476.6,265.5 476.9,265.3 477.1,265.4 477.4,263.9 477.7,264.7 478.0,264.9 478.2,265.5 478.5,265.6 478.8,266.2 479.1,265.3 479.3,265.5 479.6,265.5 479.9,265.2 480.1,264.3 480.4,264.1 480.7,264.5 481.0,265.3 481.2,264.1 481.5,263.9 481.8,262.3 482.1,263.9 482.3,262.6 482.6,262.8 482.9,262.6 483.1,262.5 483.4,263.5 483.7,262.7 484.0,262.6 484.2,262.7 484.5,262.7 484.8,262.5 485.1,262.5 485.3,262.5 485.6,259.5 485.9,258.7 486.1,259.2 486.4,257.7 486.7,256.5 487.0,257.0 487.2,256.5 487.5,258.0 487.8,257.7 488.1,258.2 488.3,258.2 488.6,258.5 488.9,257.6 489.1,257.4 489.4,256.2 489.7,256.1 490.0,256.9 490.2,255.6 490.5,260.5 490.8,260.9 491.1,261.2 491.3,263.7 491.6,263.4 491.9,263.3 492.2,263.5 492.4,262.1 492.7,261.7 493.0,261.5 493.2,262.1 493.5,261.1 493.8,260.2 494.1,260.3 494.3,260.0 494.6,261.0 494.9,261.1 495.2,261.8 495.4,261.8 495.7,261.8 496.0,260.6 496.2,258.5 496.5,259.2 496.8,258.4 497.1,259.0 497.3,258.2 497.6,258.4 497.9,258.5 498.2,257.7 498.4,257.4 498.7,260.4 499.0,259.3 499.2,258.9 499.5,259.1 499.8,258.8 500.1,258.4 500.3,258.1 500.6,258.8 500.9,258.0 501.2,258.1 501.4,258.2 501.7,256.3 502.0,256.5 502.2,256.3 502.5,257.4 502.8,257.2 503.1,258.0 503.3,258.3 503.6,258.6 503.9,259.6 504.2,259.6 504.4,259.7 504.7,259.3 505.0,259.7 505.2,259.9 505.5,260.5 505.8,259.2 506.1,259.3 506.3,259.3 506.6,258.9 506.9,260.0 507.2,259.7 507.4,258.2 507.7,259.1 508.0,257.2 508.2,257.2 508.5,256.6 508.8,256.6 509.1,256.5 509.3,256.6 509.6,255.7 509.9,255.4 510.2,255.8 510.4,257.1 510.7,257.6 511.0,258.5 511.2,259.1 511.5,259.5 511.8,259.5 512.1,259.1 512.3,260.2 512.6,260.8 512.9,259.8 513.2,258.8 513.4,258.5 513.7,257.5 514.0,254.0 514.2,252.9 514.5,252.4 514.8,252.6 515.1,252.3 515.3,252.9 515.6,254.8 515.9,253.0 516.2,252.3 516.4,246.0 516.7,246.3 517.0,242.2 517.2,242.4 517.5,241.8 517.8,244.0 518.1,243.4 518.3,242.0 518.6,235.8 518.9,234.7 519.2,235.1 519.4,226.7 519.7,227.8 520.0,228.2 520.3,225.1 520.5,228.5 520.8,229.5 521.1,224.9 521.3,225.1 521.6,219.5 521.9,217.7 522.2,215.0 522.4,216.7 522.7,220.9 523.0,224.4 523.3,222.6 523.5,216.3 523.8,217.8 524.1,213.3 524.3,214.3 524.6,212.3 524.9,212.3 525.2,211.6 525.4,216.1 525.7,211.5 526.0,212.7 526.3,215.0 526.5,218.4 526.8,209.9 527.1,206.6 527.3,207.9 527.6,207.5 527.9,205.2 528.2,207.4 528.4,203.9 528.7,199.9 529.0,196.0 529.3,197.5 529.5,196.2 529.8,195.6 530.1,202.7 530.3,200.5 530.6,201.5 530.9,203.0 531.2,201.3 531.4,203.0 531.7,202.5 532.0,192.8 532.3,195.5 532.5,199.4 532.8,202.8 533.1,201.5 533.3,201.0 533.6,202.4 533.9,207.0 534.2,210.9 534.4,207.8 534.7,206.4 535.0,205.3 535.3,205.7 535.5,198.5 535.8,199.0 536.1,191.5 536.3,190.9 536.6,191.8 536.9,189.4 537.2,188.1 537.4,185.1 537.7,187.4 538.0,188.7 538.3,188.2 538.5,190.0 538.8,186.0 539.1,189.1 539.3,190.8 539.6,190.5 539.9,194.0 540.2,191.2 540.4,190.3 540.7,193.9 541.0,196.2 541.3,196.4 541.5,195.9 541.8,197.2 542.1,194.6 542.3,193.9 542.6,193.5 542.9,193.1 543.2,195.4 543.4,194.9 543.7,193.5 544.0,191.4 544.3,190.8 544.5,189.4 544.8,183.2 545.1,183.3 545.3,183.0 545.6,180.3 545.9,176.7 546.2,174.5 546.4,176.5 546.7,173.5 547.0,172.4 547.3,172.8 547.5,168.3 547.8,159.4 548.1,159.0 548.4,157.9 548.6,158.8 548.9,158.7 549.2,157.6 549.4,159.2 549.7,154.4 550.0,157.1 550.3,151.1 550.5,138.7 550.8,137.8 551.1,136.8 551.4,141.1 551.6,127.8 551.9,120.0 552.2,118.4 552.4,108.9 552.7,112.4 553.0,123.3 553.3,122.2 553.5,126.0 553.8,128.8 554.1,129.9 554.4,138.6 554.6,144.9 554.9,140.4 555.2,134.1 555.4,140.4 555.7,143.0 556.0,133.1 556.3,127.0 556.5,134.1 556.8,130.9 557.1,134.8 557.4,137.0 557.6,136.0 557.9,125.8 558.2,124.6 558.4,121.2 558.7,124.3 559.0,123.8 559.3,124.6 559.5,137.1 559.8,136.3 560.1,138.4 560.4,129.3 560.6,134.9 560.9,134.2 561.2,135.2 561.4,138.3 561.7,131.8 562.0,132.3 562.3,129.1 562.5,123.0 562.8,111.7 563.1,111.1 563.4,112.8 563.6,111.8 563.9,111.9 564.2,107.9 564.4,107.8 564.7,115.9 565.0,119.9 565.3,117.1 565.5,126.6 565.8,126.5 566.1,120.6 566.4,119.2 566.6,117.4 566.9,118.4 567.2,125.2 567.4,133.5 567.7,141.8 568.0,157.7 568.3,155.9 568.5,148.7 568.8,142.2 569.1,139.1 569.4,136.1 569.6,135.5 569.9,139.0 570.2,146.1 570.4,142.0 570.7,146.4 571.0,145.7 571.3,140.7 571.5,142.6 571.8,136.4 572.1,135.2 572.4,134.4 572.6,140.3 572.9,142.4 573.2,136.6 573.4,136.5 573.7,125.0 574.0,124.1 574.3,125.0 574.5,128.3 574.8,137.3 575.1,144.3 575.4,144.7 575.6,154.3 575.9,150.9 576.2,154.6 576.5,156.9 576.7,157.4 577.0,157.3 577.3,152.4 577.5,144.4 577.8,146.4 578.1,149.7 578.4,151.6 578.6,158.2 578.9,162.2 579.2,160.9 579.5,157.5 579.7,158.7 580.0,155.8 580.3,150.3 580.5,154.0 580.8,162.3 581.1,170.0 581.4,168.5 581.6,168.1 581.9,170.7 582.2,169.0 582.5,162.4 582.7,162.9 583.0,162.1 583.3,162.3 583.5,158.8 583.8,159.3 584.1,163.3 584.4,166.2 584.6,162.5 584.9,160.4 585.2,162.6 585.5,167.0 585.7,168.9 586.0,167.8 586.3,164.4 586.5,164.8 586.8,170.9 587.1,165.7 587.4,167.4 587.6,160.8 587.9,157.2 588.2,159.9 588.5,157.6 588.7,160.6 589.0,158.4 589.3,155.3 589.5,155.8 589.8,153.4 590.1,152.7 590.4,161.7 590.6,162.6 590.9,165.3 591.2,165.3 591.5,169.9 591.7,171.8 592.0,178.0 592.3,180.4 592.5,174.2 592.8,186.1 593.1,182.1 593.4,185.0 593.6,185.0 593.9,180.0 594.2,173.1 594.5,175.6 594.7,179.4 595.0,174.9 595.3,174.3 595.5,177.2 595.8,176.1 596.1,176.9 596.4,173.7 596.6,166.1 596.9,165.3 597.2,162.9 597.5,161.5 597.7,166.3 598.0,166.0 598.3,163.6 598.5,163.4 598.8,170.2 599.1,175.3 599.4,176.9 599.6,176.8 599.9,170.7 600.2,174.9 600.5,166.9 600.7,167.6 601.0,170.7 601.3,172.5 601.5,179.7 601.8,179.8 602.1,181.3 602.4,176.9 602.6,171.2 602.9,165.8 603.2,161.6 603.5,160.4 603.7,156.8 604.0,158.8 604.3,158.4 604.6,157.9 604.8,158.5 605.1,159.4 605.4,152.1 605.6,159.2 605.9,162.3 606.2,157.0 606.5,159.7 606.7,161.0 607.0,164.8 607.3,158.4 607.6,155.2 607.8,158.0 608.1,152.2 608.4,148.5 608.6,149.8 608.9,140.2 609.2,141.2 609.5,138.5 609.7,141.2 610.0,136.5 610.3,149.9 610.6,149.1 610.8,150.3 611.1,160.4 611.4,153.1 611.6,155.5 611.9,152.7 612.2,152.1 612.5,158.2 612.7,146.9 613.0,138.6 613.3,147.3 613.6,144.6 613.8,143.1 614.1,147.1 614.4,159.8 614.6,157.0 614.9,154.0 615.2,151.6 615.5,140.7 615.7,143.4 616.0,142.6 616.3,145.1 616.6,144.4 616.8,150.4 617.1,150.3 617.4,149.0 617.6,152.8 617.9,148.7 618.2,148.2 618.5,146.5 618.7,152.3 619.0,152.6 619.3,155.7 619.6,157.5 619.8,155.5 620.1,155.9 620.4,153.5 620.6,156.1 620.9,154.5 621.2,149.1 621.5,149.5 621.7,151.8 622.0,156.2 622.3,156.2 622.6,159.2 622.8,159.2 623.1,158.2 623.4,155.5 623.6,160.0 623.9,162.4 624.2,164.0 624.5,166.6 624.7,170.6 625.0,172.9 625.3,173.3 625.6,173.4 625.8,176.7 626.1,178.1 626.4,181.0 626.6,184.3 626.9,182.5 627.2,179.2 627.5,180.3 627.7,182.0 628.0,177.9 628.3,176.0 628.6,173.9 628.8,177.3 629.1,172.0 629.4,171.5 629.6,171.5 629.9,167.3 630.2,164.2 630.5,166.7 630.7,168.8 631.0,165.5 631.3,162.4 631.6,161.5 631.8,161.1 632.1,162.5 632.4,156.3 632.7,155.5 632.9,151.3 633.2,151.7 633.5,149.0 633.7,148.7 634.0,155.4 634.3,148.0 634.6,146.6 634.8,145.9 635.1,147.7 635.4,141.8 635.7,120.4 635.9,131.1 636.2,131.2 636.5,131.1 636.7,122.6 637.0,121.9 637.3,123.7 637.6,123.4 637.8,130.1 638.1,135.8 638.4,135.5 638.7,133.8 638.9,125.6 639.2,121.1 639.5,117.4 639.7,113.2 640.0,112.0 640.3,107.7 640.6,110.4 640.8,114.2 641.1,123.0 641.4,121.5 641.7,116.0 641.9,119.0 642.2,105.7 642.5,100.3 642.7,99.1 643.0,95.8 643.3,94.6 643.6,93.2 643.8,91.4 644.1,88.1 644.4,92.8 644.7,93.8 644.9,89.4 645.2,77.4 645.5,79.3 645.7,79.9 646.0,70.2 646.3,77.6 646.6,73.6 646.8,77.3 647.1,83.1 647.4,84.2 647.7,72.3 647.9,73.5 648.2,91.0 648.5,91.1 648.7,99.7 649.0,107.3 649.3,90.4 649.6,100.2 649.8,101.4 650.1,93.4 650.4,91.9 650.7,98.6 650.9,103.0 651.2,101.8 651.5,103.8 651.7,107.8 652.0,103.9 652.3,101.5 652.6,97.8 652.8,92.0 653.1,94.5 653.4,94.8 653.7,93.9 653.9,98.6 654.2,100.3 654.5,101.7 654.7,94.5 655.0,85.0 655.3,89.3 655.6,89.4 655.8,92.1 656.1,91.5 656.4,87.7 656.7,78.3 656.9,60.3 657.2,62.2 657.5,61.4 657.7,67.1 658.0,67.9 658.3,61.9 658.6,59.9 658.8,48.2 659.1,51.0 659.4,52.5 659.7,55.2 659.9,51.8 660.2,60.0 660.5,63.8 660.8,62.6 661.0,62.2 661.3,59.4 661.6,61.8 661.8,65.9 662.1,65.8 662.4,66.7 662.7,60.9 662.9,63.3 663.2,63.9 663.5,59.0 663.8,57.0 664.0,54.5 664.3,56.9 664.6,54.9 664.8,61.8 665.1,63.9 665.4,69.3 665.7,74.5 665.9,74.8 666.2,78.6 666.5,74.8 666.8,75.4 667.0,67.6 667.3,73.0 667.6,72.9 667.8,68.3 668.1,64.1 668.4,60.5 668.7,62.3 668.9,63.1 669.2,62.2 669.5,55.3 669.8,63.9 670.0,63.3 670.3,66.1 670.6,66.9 670.8,64.6 671.1,60.3 671.4,61.2 671.7,58.3 671.9,54.9 672.2,49.5 672.5,50.6 672.8,54.1 673.0,53.7 673.3,43.5 673.6,47.1 673.8,53.8 674.1,52.1 674.4,53.5 674.7,52.6 674.9,56.1 675.2,55.9 675.5,56.5 675.8,58.1 676.0,58.3 676.3,62.9 676.6,59.4 676.8,58.7 677.1,57.6 677.4,52.4 677.7,50.4 677.9,51.3 678.2,49.9 678.5,45.7 678.8,53.0 679.0,51.8 679.3,51.0 679.6,53.9 679.8,52.8 680.1,59.4 680.4,57.0 680.7,58.7 680.9,59.6 681.2,58.9 681.5,51.9 681.8,51.0 682.0,51.8 682.3,52.1 682.6,52.9 682.8,55.1 683.1,58.6 683.4,58.6 683.7,59.4 683.9,59.3 684.2,59.8 684.5,56.8 684.8,56.1 685.0,59.2 685.3,65.5 685.6,70.8 685.8,68.6 686.1,68.9 686.4,70.7 686.7,72.6 686.9,75.4 687.2,76.7 687.5,73.1 687.8,73.8 688.0,71.6 688.3,71.3 688.6,75.3 688.9,75.6 689.1,73.9 689.4,73.9 689.7,63.9 689.9,68.0 690.2,66.2 690.5,66.8 690.8,67.8 691.0,68.4 691.3,73.0 691.6,72.4 691.9,74.3 692.1,72.5 692.4,71.4 692.7,67.1 692.9,68.7 693.2,66.3 693.5,66.0 693.8,68.2 694.0,66.2 694.3,70.4 694.6,70.2 694.9,71.2 695.1,65.1 695.4,63.7 695.7,67.4 695.9,68.4 696.2,65.8 696.5,60.9 696.8,68.2 697.0,69.6 697.3,75.9 697.6,97.1 697.9,87.1 698.1,87.3 698.4,83.1 698.7,84.9 698.9,87.6 699.2,84.6 699.5,84.3 699.8,87.1 700.0,85.0 700.3,80.0 700.6,83.0 700.9,82.5 701.1,76.7 701.4,80.0 701.7,86.1 701.9,88.0 702.2,89.3 702.5,89.5 702.8,97.1 703.0,90.3 703.3,90.6 703.6,86.6 703.9,79.7 704.1,85.4 704.4,95.5 704.7,91.7 704.9,95.5 705.2,101.0 705.5,108.1 705.8,118.0 706.0,117.5 706.3,125.9 706.6,133.4 706.9,129.0 707.1,137.3 707.4,129.2 707.7,124.1 707.9,124.7 708.2,126.4 708.5,128.5 708.8,128.4 709.0,127.9 709.3,126.6 709.6,129.6 709.9,125.5 710.1,127.6 710.4,126.7 710.7,121.7 710.9,124.9 711.2,121.6 711.5,122.3 711.8,124.0 712.0,116.6 712.3,112.5 712.6,116.7 712.9,117.8 713.1,117.5 713.4,123.5 713.7,121.0 713.9,116.7 714.2,110.7 714.5,109.0 714.8,111.4 715.0,113.5 715.3,109.7 715.6,106.2 715.9,106.1 716.1,108.3 716.4,112.5 716.7,112.5 717.0,112.6 717.2,110.0 717.5,109.8 717.8,111.9 718.0,120.3 718.3,120.7 718.6,118.9 718.9,118.3 719.1,115.1 719.4,118.1 719.7,112.7 720.0,104.8 720.2,102.1 720.5,101.6 720.8,101.0 721.0,95.7 721.3,96.5 721.6,100.0 721.9,105.0 722.1,105.3 722.4,111.3 722.7,107.9 723.0,109.5 723.2,108.1 723.5,108.0 723.8,110.4 724.0,113.5 724.3,112.3 724.6,117.0 724.9,115.5 725.1,107.7 725.4,98.4 725.7,91.1 726.0,68.1 726.2,71.4 726.5,62.2 726.8,61.4 727.0,74.7 727.3,74.6 727.6,78.6 727.9,82.6 728.1,90.1 728.4,90.8 728.7,73.0 729.0,80.6 729.2,83.7 729.5,87.2 729.8,94.7 730.0,96.8 730.3,97.0 730.6,93.5 730.9,98.3 731.1,98.8 731.4,96.7 731.7,88.4 732.0,94.2 732.2,94.1 732.5,97.2 732.8,94.6 733.0,95.5 733.3,94.1 733.6,96.1 733.9,90.2 734.1,79.4 734.4,84.4 734.7,90.3 735.0,92.4 735.2,90.0 735.5,91.7 735.8,90.5 736.0,95.4 736.3,96.4 736.6,91.3 736.9,96.1 737.1,97.0 737.4,98.6 737.7,100.7 738.0,102.8 738.2,101.9 738.5,94.1 738.8,96.6 739.0,96.4 739.3,93.9 739.6,88.9 739.9,83.8 740.1,85.7 740.4,84.2 740.7,69.5 741.0,76.9 741.2,83.9 741.5,85.9 741.8,91.5 742.0,89.5 742.3,88.2 742.6,92.5 742.9,94.5 743.1,88.4 743.4,77.2 743.7,75.2 744.0,75.2 744.2,75.2 744.5,72.9 744.8,73.5 745.1,75.8 745.3,71.4 745.6,72.5 745.9,67.2 746.1,72.1 746.4,76.4 746.7,82.0 747.0,85.5 747.2,88.6 747.5,90.9 747.8,83.6 748.1,82.3 748.3,76.9 748.6,75.5 748.9,69.2 749.1,68.4 749.4,67.2 749.7,71.9 750.0,79.2 750.2,68.8 750.5,65.2 750.8,60.2 751.1,60.0 751.3,63.3 751.6,57.0 751.9,61.6 752.1,53.1 752.4,45.9 752.7,42.4 753.0,42.6 753.2,30.0 753.5,32.0 753.8,35.7 754.1,34.5 754.3,41.3 754.6,50.1 754.9,50.8 755.1,51.5 755.4,57.4 755.7,51.4 756.0,56.7 756.2,54.7 756.5,46.6 756.8,51.1 757.1,53.9 757.3,64.8 757.6,62.2 757.9,64.6 758.1,68.4 758.4,63.0 758.7,59.7 759.0,58.3 759.2,54.1 759.5,60.9 759.8,64.3 760.1,58.8 760.3,56.8 760.6,57.4 760.9,65.2 761.1,51.0 761.4,52.0 761.7,60.6 762.0,54.4 762.2,53.3 762.5,54.8 762.8,60.8 763.1,63.7 763.3,66.1 763.6,62.0 763.9,69.1 764.1,69.0 764.4,77.0 764.7,83.9 765.0,83.2 765.2,87.3 765.5,93.5 765.8,81.9 766.1,81.5 766.3,85.8 766.6,87.5 766.9,83.3 767.1,71.5 767.4,64.6 767.7,69.1 768.0,64.2 768.2,66.2 768.5,53.5 768.8,60.9 769.1,62.2 769.3,68.3 769.6,55.0 769.9,56.7 770.1,63.5 770.4,61.8 770.7,65.2 771.0,68.1 771.2,56.5 771.5,59.5 771.8,61.2 772.1,60.1 772.3,70.9 772.6,75.1 772.9,81.8 773.2,81.1 773.4,80.2 773.7,84.2 774.0,83.5 774.2,80.4 774.5,83.7 774.8,82.8 775.1,85.3 775.3,83.5 775.6,84.7 775.9,84.1 776.2,86.3 776.4,85.6 776.7,91.1 777.0,91.1 777.2,93.4 777.5,91.2 777.8,96.2 778.1,96.6 778.3,94.8 778.6,95.5 778.9,96.9 779.2,96.4 779.4,96.8 779.7,102.1 780.0,100.6 780.2,102.4 780.5,98.5 780.8,103.6 781.1,111.2 781.3,112.8 781.6,113.1 781.9,112.1 782.2,113.5 782.4,116.5 782.7,108.7 783.0,111.8 783.2,109.7 783.5,113.3 783.8,110.4 784.1,113.0 784.3,113.4 784.6,103.7 784.9,104.1 785.2,102.1 785.4,101.8 785.7,106.3 786.0,108.9 786.2,109.9 786.5,110.6 786.8,109.9 787.1,112.1 787.3,111.6 787.6,112.0 787.9,113.2 788.2,115.5 788.4,124.4 788.7,124.7 789.0,127.6 789.2,132.0 789.5,135.6 789.8,133.4 790.1,129.2 790.3,128.7 790.6,125.9 790.9,130.1 791.2,134.8 791.4,135.2 791.7,133.3 792.0,142.8 792.2,144.3 792.5,140.5 792.8,142.5 793.1,148.6 793.3,151.2 793.6,153.9 793.9,152.7 794.2,159.6 794.4,151.7 794.7,152.7 795.0,154.1 795.2,157.5 795.5,159.0 795.8,157.2 796.1,160.7 796.3,172.7 796.6,179.7 796.9,178.1 797.2,177.5 797.4,175.9 797.7,174.6 798.0,173.7 798.2,176.2 798.5,173.9 798.8,175.9 799.1,170.3 799.3,168.0 799.6,167.7 799.9,171.8 800.2,173.4 800.4,171.1 800.7,173.8 801.0,166.8 801.3,175.7 801.5,178.4 801.8,179.6 802.1,183.1 802.3,183.9 802.6,188.8 802.9,182.3 803.2,187.3 803.4,190.4 803.7,184.3 804.0,184.0 804.3,183.4 804.5,183.9 804.8,181.0 805.1,182.5 805.3,183.8 805.6,183.4 805.9,185.7 806.2,190.5 806.4,192.0 806.7,191.9 807.0,195.1 807.3,198.5 807.5,196.8 807.8,197.4 808.1,193.8 808.3,192.8 808.6,193.1 808.9,196.3 809.2,181.9 809.4,179.5 809.7,181.3 810.0,183.3 810.3,184.6 810.5,186.6 810.8,190.5 811.1,184.4 811.3,184.7 811.6,173.6 811.9,173.5 812.2,174.3 812.4,178.4 812.7,180.4 813.0,181.8 813.3,188.5 813.5,186.4 813.8,186.8 814.1,186.7 814.3,188.0 814.6,187.1 814.9,185.3 815.2,188.1 815.4,190.3 815.7,182.4 816.0,184.5 816.3,184.5 816.5,185.5 816.8,186.7 817.1,188.8 817.3,187.0 817.6,188.0 817.9,188.4 818.2,187.8 818.4,189.2 818.7,191.9 819.0,192.1 819.3,193.8 819.5,191.3 819.8,191.2 820.1,190.8 820.3,190.2 820.6,185.3 820.9,185.5 821.2,181.8 821.4,182.1 821.7,182.4 822.0,183.6 822.3,184.1 822.5,182.2 822.8,184.8 823.1,185.8 823.3,183.6 823.6,186.2 823.9,186.0 824.2,187.6 824.4,186.9 824.7,183.5 825.0,183.7 825.3,185.3 825.5,185.3 825.8,183.0 826.1,178.8 826.3,181.8 826.6,175.4 826.9,174.8 827.2,175.7 827.4,177.1 827.7,177.9 828.0,182.6 828.3,183.2 828.5,182.1 828.8,181.2 829.1,173.6 829.4,173.0 829.6,174.7 829.9,182.2 830.2,179.7 830.4,183.8 830.7,187.0 831.0,179.1 831.3,175.2 831.5,175.0 831.8,170.6 832.1,165.1 832.4,171.6 832.6,174.1 832.9,171.9 833.2,172.6 833.4,169.3 833.7,170.6 834.0,174.9 834.3,175.6 834.5,181.2 834.8,181.4 835.1,183.9 835.4,181.4 835.6,183.9 835.9,183.3 836.2,186.5 836.4,191.2 836.7,196.7 837.0,198.9 837.3,198.9 837.5,198.0 837.8,203.2 838.1,215.6 838.4,209.2 838.6,204.4 838.9,194.9 839.2,198.4 839.4,195.5 839.7,195.1 840.0,193.7 840.3,196.1 840.5,195.3 840.8,197.8 841.1,191.9 841.4,192.9 841.6,190.9 841.9,188.7 842.2,192.8 842.4,189.8 842.7,196.2 843.0,192.8 843.3,195.4 843.5,193.9 843.8,193.5 844.1,198.6 844.4,200.8 844.6,202.8 844.9,201.6 845.2,200.7 845.4,207.0 845.7,211.9 846.0,210.6 846.3,211.6 846.5,208.1 846.8,206.3 847.1,210.0 847.4,208.9 847.6,208.4 847.9,207.4 848.2,210.3 848.4,210.4 848.7,212.8 849.0,211.0 849.3,211.7 849.5,213.1 849.8,209.1 850.1,210.7 850.4,213.6 850.6,213.3 850.9,213.6 851.2,212.1 851.4,209.7 851.7,209.5 852.0,209.6 852.3,210.3 852.5,209.3 852.8,209.7 853.1,208.0 853.4,207.9 853.6,206.6 853.9,209.7 854.2,205.5 854.4,196.0 854.7,200.5 855.0,198.5 855.3,199.2 855.5,196.1 855.8,199.0 856.1,195.6 856.4,193.5 856.6,193.4 856.9,193.0 857.2,193.4 857.5,193.8 857.7,195.4 858.0,194.8 858.3,194.1 858.5,197.2 858.8,198.2 859.1,197.3 859.4,199.1 859.6,198.6 859.9,200.3 860.2,206.3 860.5,209.9 860.7,206.9 861.0,207.1 861.3,207.1 861.5,209.7 861.8,208.5 862.1,209.0 862.4,207.9 862.6,209.5 862.9,209.8 863.2,212.2 863.5,213.4 863.7,216.1 864.0,217.4 864.3,216.4 864.5,214.6 864.8,216.0 865.1,216.9 865.4,219.2 865.6,214.9 865.9,214.3 866.2,216.2 866.5,216.8 866.7,215.6 867.0,217.5 867.3,216.9 867.5,216.2 867.8,217.9 868.1,214.3 868.4,208.3 868.6,208.2 868.9,208.4 869.2,209.1 869.5,205.3 869.7,206.1 870.0,205.9"/>
</svg>
