<svg xmlns="http://www.w3.org/2000/svg" width="900" height="360">
<rect width="100%" height="100%" fill="white"/>
<text x="45" y="20" font-size="16">中国平安 价格</text>
<line class="axis-x" x1="45" y1="315" x2="855" y2="315" stroke="black" stroke-width="1"/>
<line class="axis-y" x1="45" y1="45" x2="45" y2="315" stroke="black" stroke-width="1"/>
<text x="450.0" y="355" font-size="12" text-anchor="middle">样本点</text>
<text x="14" y="180.0" font-size="12" text-anchor="middle" transform="rotate(-90 14 180.0)">价格</text>
<line x1="45.0" y1="315" x2="45.0" y2="320" stroke="black" stroke-width="1"/>
<text x="45.0" y="333" font-size="10" text-anchor="middle">1</text>
<line x1="449.9" y1="315" x2="449.9" y2="320" stroke="black" stroke-width="1"/>
<text x="449.9" y="333" font-size="10" text-anchor="middle">1540</text>
<line x1="855.0" y1="315" x2="855.0" y2="320" stroke="black" stroke-width="1"/>
<text x="855.0" y="333" font-size="10" text-anchor="middle">3080</text>
<line x1="40" y1="315.0" x2="45" y2="315.0" stroke="black" stroke-width="1"/>
<text x="37" y="318.0" font-size="10" text-anchor="end">12.90</text>
<line x1="40" y1="180.0" x2="45" y2="180.0" stroke="black" stroke-width="1"/>
<text x="37" y="183.0" font-size="10" text-anchor="end">50.12</text>
<line x1="40" y1="45.0" x2="45" y2="45.0" stroke="black" stroke-width="1"/>
<text x="37" y="48.0" font-size="10" text-anchor="end">87.34</text>
<polyline fill="none" stroke="#1f77b4" stroke-width="2" points="45.0,286.1 45.3,285.2 45.5,286.8 45.8,288.2 46.1,288.6 46.3,288.3 46.6,287.6 46.8,291.2 47.1,290.2 47.4,290.1 47.6,291.1 47.9,290.8 48.2,293.1 48.4,291.7 48.7,291.6 48.9,292.0 49.2,293.5 49.5,295.0 49.7,296.1 50.0,296.6 50.3,294.6 50.5,295.2 50.8,291.8 51.1,292.6 51.3,294.3 51.6,294.3 51.8,293.4 52.1,291.6 52.4,291.7 52.6,291.5 52.9,292.9 53.2,299.0 53.4,299.2 53.7,298.3 53.9,298.6 54.2,296.2 54.5,296.4 54.7,296.6 55.0,298.5 55.3,297.9 55.5,297.0 55.8,295.7 56.0,295.5 56.3,295.8 56.6,296.3 56.8,297.8 57.1,297.7 57.4,294.0 57.6,294.4 57.9,293.8 58.2,293.9 58.4,294.9 58.7,294.6 58.9,295.5 59.2,294.1 59.5,291.3 59.7,290.4 60.0,291.0 60.3,289.8 60.5,289.5 60.8,290.3 61.0,290.4 61.3,292.0 61.6,290.6 61.8,291.7 62.1,288.9 62.4,288.5 62.6,288.0 62.9,290.1 63.2,292.7 63.4,290.7 63.7,288.8 63.9,289.1 64.2,289.1 64.5,290.6 64.7,292.1 65.0,293.0 65.3,293.8 65.5,292.4 65.8,292.6 66.0,293.3 66.3,296.9 66.6,296.8 66.8,294.1 67.1,296.1 67.4,293.6 67.6,292.5 67.9,294.0 68.2,297.9 68.4,296.2 68.7,296.8 68.9,298.7 69.2,298.4 69.5,296.0 69.7,298.3 70.0,298.0 70.3,297.1 70.5,297.3 70.8,298.1 71.0,297.3 71.3,297.9 71.6,297.7 71.8,297.8 72.1,299.3 72.4,299.6 72.6,297.7 72.9,298.9 73.1,298.2 73.4,298.6 73.7,298.7 73.9,295.8 74.2,295.7 74.5,296.1 74.7,295.5 75.0,295.1 75.3,296.1 75.5,296.1 75.8,296.1 76.0,296.1 76.3,296.1 76.6,296.1 76.8,296.1 77.1,296.1 77.4,296.1 77.6,296.1 77.9,296.1 78.1,296.1 78.4,296.1 78.7,296.1 78.9,296.1 79.2,296.1 79.5,296.1 79.7,296.1 80.0,296.1 80.3,296.1 80.5,296.1 80.8,296.1 81.0,296.1 81.3,296.1 81.6,296.1 81.8,296.1 82.1,296.1 82.4,296.1 82.6,296.1 82.9,296.1 83.1,296.1 83.4,296.1 83.7,296.1 83.9,296.1 84.2,296.1 84.5,296.1 84.7,296.1 85.0,296.1 85.3,296.1 85.5,296.1 85.8,296.1 86.0,296.1 86.3,296.1 86.6,296.1 86.8,296.1 87.1,296.1 87.4,296.1 87.6,296.1 87.9,293.1 88.1,292.7 88.4,289.6 88.7,290.0 88.9,291.3 89.2,293.1 89.5,292.3 89.7,291.5 90.0,290.8 90.2,291.9 90.5,292.5 90.8,292.7 91.0,291.0 91.3,290.6 91.6,288.8 91.8,289.5 92.1,289.4 92.4,286.8 92.6,283.6 92.9,279.3 93.1,278.9 93.4,277.8 93.7,275.6 93.9,272.9 94.2,276.1 94.5,273.0 94.7,266.9 95.0,268.7 95.2,269.7 95.5,267.1 95.8,271.1 96.0,274.9 96.3,275.6 96.6,276.9 96.8,276.9 97.1,276.1 97.4,276.1 97.6,274.7 97.9,273.2 98.1,274.4 98.4,276.5 98.7,275.3 98.9,273.2 99.2,275.7 99.5,277.6 99.7,281.5 100.0,281.1 100.2,280.1 100.5,280.0 100.8,279.1 101.0,282.1 101.3,279.2 101.6,278.9 101.8,280.8 102.1,279.9 102.3,281.5 102.6,282.4 102.9,281.1 103.1,278.7 103.4,277.1 103.7,276.2 103.9,277.9 104.2,277.9 104.5,275.5 104.7,274.7 105.0,275.4 105.2,277.5 105.5,279.9 105.8,280.3 106.0,282.1 106.3,278.8 106.6,280.6 106.8,281.1 107.1,281.0 107.3,282.8 107.6,283.7 107.9,283.1 108.1,283.5 108.4,282.2 108.7,281.1 108.9,284.0 109.2,287.3 109.5,286.7 109.7,288.1 110.0,287.9 110.2,286.7 110.5,286.7 110.8,288.1 111.0,291.1 111.3,290.9 111.6,290.0 111.8,292.7 112.1,291.8 112.3,293.3 112.6,293.1 112.9,292.5 113.1,291.0 113.4,291.8 113.7,291.4 113.9,291.0 114.2,291.1 114.5,290.1 114.7,291.0 115.0,287.7 115.2,288.6 115.5,288.8 115.8,289.1 116.0,289.3 116.3,288.7 116.6,292.0 116.8,292.5 117.1,292.5 117.3,292.0 117.6,291.3 117.9,290.6 118.1,290.8 118.4,289.9 118.7,287.9 118.9,286.0 119.2,286.4 119.4,286.1 119.7,288.6 120.0,289.7 120.2,289.7 120.5,291.7 120.8,290.7 121.0,292.7 121.3,292.3 121.6,292.1 121.8,290.8 122.1,290.3 122.3,290.9 122.6,290.2 122.9,290.8 123.1,291.1 123.4,290.9 123.7,291.7 123.9,289.2 124.2,286.4 124.4,286.7 124.7,286.8 125.0,288.3 125.2,288.1 125.5,286.0 125.8,286.4 126.0,285.0 126.3,284.0 126.6,287.0 126.8,287.2 127.1,286.7 127.3,287.9 127.6,288.6 127.9,288.7 128.1,288.7 128.4,287.9 128.7,287.8 128.9,287.3 129.2,289.8 129.4,290.5 129.7,290.8 130.0,291.3 130.2,290.6 130.5,290.6 130.8,292.1 131.0,290.8 131.3,292.0 131.6,291.2 131.8,290.8 132.1,291.1 132.3,291.0 132.6,293.6 132.9,293.4 133.1,294.1 133.4,294.2 133.7,293.8 133.9,293.8 134.2,292.8 134.4,293.1 134.7,294.8 135.0,294.2 135.2,293.9 135.5,294.3 135.8,295.1 136.0,294.6 136.3,295.5 136.5,295.1 136.8,296.1 137.1,296.1 137.3,297.9 137.6,298.9 137.9,298.5 138.1,298.1 138.4,296.8 138.7,294.2 138.9,294.5 139.2,294.8 139.4,295.6 139.7,293.4 140.0,293.6 140.2,292.1 140.5,292.8 140.8,292.4 141.0,292.9 141.3,293.1 141.5,293.9 141.8,295.8 142.1,294.6 142.3,294.6 142.6,294.1 142.9,294.5 143.1,295.3 143.4,295.0 143.7,296.1 143.9,295.5 144.2,297.2 144.4,296.6 144.7,297.5 145.0,298.8 145.2,298.2 145.5,297.6 145.8,298.4 146.0,298.8 146.3,298.9 146.5,301.3 146.8,303.2 147.1,303.6 147.3,303.2 147.6,302.2 147.9,302.8 148.1,300.9 148.4,301.9 148.7,301.9 148.9,302.8 149.2,304.2 149.4,304.0 149.7,303.2 150.0,303.7 150.2,301.1 150.5,301.7 150.8,303.1 151.0,303.4 151.3,303.6 151.5,303.0 151.8,302.8 152.1,304.0 152.3,304.5 152.6,303.7 152.9,304.4 153.1,304.2 153.4,305.2 153.6,305.2 153.9,305.4 154.2,305.0 154.4,306.1 154.7,305.9 155.0,304.2 155.2,306.0 155.5,307.3 155.8,312.5 156.0,311.6 156.3,312.0 156.5,312.9 156.8,313.6 157.1,313.2 157.3,312.5 157.6,309.8 157.9,309.7 158.1,309.5 158.4,308.5 158.6,310.8 158.9,310.7 159.2,312.0 159.4,311.6 159.7,308.9 160.0,308.6 160.2,308.0 160.5,307.3 160.8,306.2 161.0,306.3 161.3,305.5 161.5,304.3 161.8,303.9 162.1,303.9 162.3,304.7 162.6,304.5 162.9,303.6 163.1,306.1 163.4,306.1 163.6,304.5 163.9,305.1 164.2,307.7 164.4,308.4 164.7,309.6 165.0,309.3 165.2,309.7 165.5,310.7 165.8,310.0 166.0,310.5 166.3,310.1 166.5,309.2 166.8,311.2 167.1,308.5 167.3,308.6 167.6,308.6 167.9,309.0 168.1,307.4 168.4,307.3 168.6,307.3 168.9,308.0 169.2,310.1 169.4,310.1 169.7,311.3 170.0,310.2 170.2,310.0 170.5,309.7 170.7,312.4 171.0,313.0 171.3,313.0 171.5,313.6 171.8,313.3 172.1,312.8 172.3,313.1 172.6,312.4 172.9,313.2 173.1,313.1 173.4,313.2 173.6,312.0 173.9,309.7 174.2,310.4 174.4,309.6 174.7,310.1 175.0,310.7 175.2,307.5 175.5,308.1 175.7,306.6 176.0,305.7 176.3,306.4 176.5,306.8 176.8,308.1 177.1,304.9 177.3,304.2 177.6,305.0 177.9,306.0 178.1,306.0 178.4,304.6 178.6,304.3 178.9,304.0 179.2,305.0 179.4,304.1 179.7,304.9 180.0,304.8 180.2,304.3 180.5,303.4 180.7,302.8 181.0,303.0 181.3,302.0 181.5,302.2 181.8,302.0 182.1,303.2 182.3,303.6 182.6,302.6 182.8,304.3 183.1,305.2 183.4,305.6 183.6,304.5 183.9,304.3 184.2,304.7 184.4,303.5 184.7,304.8 185.0,305.1 185.2,305.1 185.5,305.8 185.7,306.2 186.0,305.9 186.3,305.9 186.5,306.7 186.8,306.9 187.1,306.8 187.3,308.2 187.6,309.8 187.8,309.3 188.1,307.6 188.4,307.2 188.6,307.8 188.9,307.2 189.2,307.4 189.4,305.7 189.7,304.8 190.0,305.2 190.2,306.0 190.5,304.4 190.7,303.0 191.0,302.4 191.3,303.5 191.5,303.3 191.8,303.3 192.1,302.7 192.3,303.4 192.6,301.3 192.8,300.0 193.1,300.0 193.4,301.6 193.6,302.1 193.9,302.3 194.2,302.4 194.4,302.7 194.7,303.3 195.0,301.3 195.2,302.7 195.5,301.0 195.7,302.4 196.0,302.1 196.3,300.7 196.5,301.2 196.8,301.5 197.1,303.5 197.3,302.9 197.6,301.2 197.8,301.2 198.1,301.7 198.4,301.3 198.6,303.3 198.9,303.5 199.2,303.0 199.4,302.9 199.7,302.8 199.9,301.1 200.2,300.8 200.5,296.8 200.7,297.1 201.0,295.7 201.3,295.6 201.5,295.9 201.8,295.7 202.1,297.6 202.3,299.3 202.6,298.7 202.8,298.7 203.1,297.7 203.4,296.2 203.6,295.7 203.9,296.3 204.2,297.0 204.4,296.7 204.7,295.5 204.9,296.4 205.2,296.5 205.5,296.2 205.7,297.2 206.0,297.2 206.3,298.9 206.5,297.9 206.8,297.9 207.1,295.5 207.3,295.5 207.6,297.2 207.8,297.0 208.1,297.3 208.4,297.3 208.6,297.6 208.9,298.9 209.2,298.0 209.4,296.6 209.7,297.1 209.9,298.2 210.2,297.5 210.5,298.4 210.7,297.8 211.0,297.4 211.3,297.1 211.5,301.3 211.8,301.8 212.1,301.9 212.3,301.9 212.6,301.8 212.8,302.4 213.1,302.6 213.4,302.8 213.6,302.6 213.9,302.8 214.2,305.7 214.4,305.7 214.7,306.4 214.9,305.3 215.2,305.8 215.5,304.3 215.7,304.9 216.0,305.2 216.3,304.4 216.5,301.1 216.8,301.2 217.0,302.3 217.3,302.3 217.6,302.9 217.8,302.6 218.1,304.0 218.4,304.0 218.6,303.5 218.9,304.4 219.2,304.7 219.4,303.7 219.7,303.2 219.9,303.4 220.2,301.5 220.5,301.1 220.7,301.8 221.0,300.5 221.3,300.7 221.5,301.5 221.8,301.7 222.0,301.4 222.3,301.3 222.6,301.6 222.8,301.3 223.1,301.0 223.4,300.7 223.6,301.3 223.9,301.4 224.2,302.7 224.4,304.3 224.7,306.7 224.9,306.1 225.2,305.6 225.5,304.8 225.7,305.3 226.0,305.7 226.3,305.1 226.5,305.4 226.8,305.9 227.0,305.9 227.3,306.5 227.6,307.4 227.8,307.0 228.1,307.1 228.4,308.1 228.6,309.0 228.9,310.6 229.2,309.0 229.4,308.9 229.7,308.0 229.9,308.2 230.2,309.3 230.5,309.9 230.7,310.1 231.0,309.0 231.3,308.8 231.5,307.7 231.8,305.4 232.0,305.5 232.3,304.9 232.6,303.9 232.8,304.2 233.1,304.1 233.4,305.5 233.6,301.0 233.9,300.2 234.1,300.7 234.4,301.3 234.7,300.6 234.9,300.4 235.2,300.8 235.5,299.5 235.7,298.9 236.0,299.2 236.3,298.4 236.5,296.2 236.8,293.6 237.0,293.4 237.3,296.0 237.6,296.5 237.8,296.7 238.1,297.5 238.4,293.9 238.6,293.8 238.9,295.3 239.1,296.5 239.4,294.5 239.7,295.5 239.9,294.9 240.2,294.6 240.5,294.4 240.7,295.8 241.0,294.2 241.3,294.1 241.5,292.9 241.8,292.0 242.0,288.3 242.3,287.2 242.6,288.5 242.8,285.4 243.1,285.8 243.4,286.7 243.6,290.1 243.9,291.2 244.1,291.2 244.4,294.1 244.7,295.2 244.9,295.5 245.2,296.7 245.5,296.3 245.7,293.6 246.0,295.3 246.3,300.0 246.5,298.2 246.8,297.3 247.0,298.7 247.3,298.2 247.6,299.2 247.8,299.2 248.1,300.1 248.4,299.9 248.6,301.1 248.9,303.0 249.1,301.6 249.4,299.4 249.7,299.3 249.9,299.4 250.2,299.8 250.5,301.0 250.7,300.8 251.0,302.4 251.2,301.3 251.5,302.4 251.8,303.1 252.0,302.8 252.3,303.9 252.6,302.2 252.8,302.2 253.1,302.1 253.4,302.2 253.6,303.1 253.9,301.7 254.1,301.3 254.4,300.6 254.7,299.7 254.9,301.1 255.2,304.0 255.5,303.3 255.7,303.7 256.0,304.2 256.2,303.8 256.5,302.3 256.8,301.7 257.0,302.0 257.3,301.4 257.6,302.3 257.8,302.3 258.1,303.6 258.4,305.3 258.6,305.8 258.9,304.1 259.1,303.2 259.4,302.2 259.7,302.6 259.9,302.6 260.2,304.2 260.5,304.0 260.7,304.2 261.0,302.4 261.2,303.1 261.5,303.5 261.8,304.0 262.0,304.0 262.3,304.7 262.6,304.8 262.8,305.4 263.1,306.7 263.4,308.6 263.6,308.0 263.9,307.0 264.1,306.1 264.4,306.8 264.7,308.7 264.9,307.7 265.2,311.5 265.5,311.3 265.7,311.4 266.0,311.6 266.2,311.1 266.5,311.5 266.8,311.6 267.0,312.2 267.3,311.9 267.6,311.5 267.8,312.2 268.1,312.6 268.3,311.7 268.6,308.9 268.9,310.7 269.1,310.4 269.4,310.7 269.7,311.6 269.9,312.9 270.2,313.1 270.5,313.1 270.7,312.5 271.0,313.7 271.2,314.1 271.5,314.2 271.8,315.0 272.0,314.9 272.3,315.0 272.6,314.2 272.8,314.6 273.1,313.7 273.3,313.7 273.6,314.0 273.9,313.8 274.1,313.6 274.4,311.5 274.7,311.0 274.9,310.9 275.2,311.3 275.5,311.6 275.7,311.4 276.0,311.9 276.2,311.8 276.5,312.0 276.8,312.5 277.0,311.5 277.3,311.7 277.6,312.7 277.8,312.5 278.1,310.9 278.3,310.5 278.6,309.2 278.9,309.7 279.1,309.6 279.4,309.6 279.7,306.9 279.9,305.8 280.2,305.9 280.4,305.1 280.7,306.7 281.0,306.2 281.2,306.4 281.5,306.5 281.8,305.8 282.0,307.7 282.3,308.0 282.6,309.6 282.8,309.3 283.1,309.4 283.3,309.1 283.6,308.7 283.9,309.6 284.1,308.4 284.4,307.7 284.7,307.8 284.9,309.2 285.2,309.6 285.4,309.4 285.7,308.8 286.0,309.5 286.2,309.6 286.5,310.5 286.8,310.1 287.0,309.6 287.3,307.9 287.6,307.0 287.8,307.8 288.1,306.7 288.3,307.3 288.6,307.9 288.9,308.1 289.1,308.2 289.4,308.9 289.7,308.6 289.9,307.0 290.2,308.6 290.4,307.9 290.7,305.8 291.0,301.5 291.2,302.0 291.5,301.7 291.8,303.1 292.0,303.0 292.3,302.5 292.6,302.3 292.8,301.0 293.1,300.9 293.3,300.8 293.6,298.9 293.9,298.7 294.1,296.9 294.4,297.2 294.7,298.9 294.9,298.9 295.2,298.5 295.4,300.6 295.7,300.9 296.0,299.8 296.2,300.2 296.5,300.2 296.8,300.5 297.0,301.8 297.3,304.6 297.5,303.8 297.8,303.3 298.1,303.0 298.3,303.7 298.6,301.9 298.9,301.9 299.1,300.6 299.4,301.2 299.7,302.7 299.9,302.7 300.2,303.0 300.4,302.2 300.7,303.2 301.0,303.8 301.2,303.9 301.5,303.1 301.8,303.5 302.0,301.3 302.3,301.9 302.5,302.1 302.8,301.2 303.1,300.5 303.3,301.7 303.6,302.4 303.9,304.6 304.1,304.4 304.4,304.2 304.7,304.4 304.9,305.8 305.2,304.5 305.4,303.8 305.7,304.3 306.0,304.7 306.2,304.5 306.5,303.9 306.8,305.1 307.0,304.4 307.3,305.2 307.5,304.6 307.8,304.8 308.1,306.6 308.3,306.8 308.6,306.1 308.9,305.3 309.1,306.1 309.4,306.1 309.7,306.6 309.9,306.3 310.2,306.7 310.4,308.7 310.7,308.7 311.0,308.5 311.2,307.9 311.5,308.0 311.8,307.8 312.0,308.5 312.3,309.0 312.5,308.9 312.8,306.8 313.1,306.4 313.3,307.3 313.6,307.3 313.9,307.3 314.1,307.0 314.4,306.7 314.6,306.5 314.9,305.3 315.2,305.2 315.4,304.7 315.7,303.3 316.0,303.9 316.2,299.8 316.5,301.4 316.8,301.9 317.0,303.0 317.3,302.9 317.5,303.7 317.8,303.8 318.1,304.7 318.3,304.2 318.6,304.6 318.9,303.8 319.1,304.6 319.4,305.9 319.6,304.5 319.9,304.4 320.2,304.3 320.4,303.8 320.7,304.1 321.0,304.1 321.2,304.2 321.5,303.1 321.8,303.3 322.0,303.3 322.3,303.7 322.5,303.8 322.8,305.0 323.1,304.9 323.3,304.4 323.6,304.4 323.9,304.0 324.1,304.2 324.4,304.2 324.6,303.4 324.9,303.2 325.2,303.3 325.4,303.3 325.7,304.1 326.0,303.4 326.2,303.9 326.5,303.6 326.8,302.5 327.0,302.9 327.3,303.2 327.5,301.9 327.8,301.8 328.1,302.6 328.3,302.8 328.6,303.4 328.9,303.1 329.1,303.6 329.4,303.5 329.6,304.0 329.9,303.6 330.2,304.1 330.4,303.4 330.7,303.5 331.0,303.3 331.2,303.1 331.5,302.6 331.7,302.4 332.0,302.3 332.3,302.9 332.5,303.4 332.8,303.3 333.1,302.5 333.3,302.6 333.6,302.9 333.9,302.6 334.1,302.7 334.4,302.7 334.6,302.1 334.9,300.9 335.2,299.2 335.4,298.8 335.7,296.8 336.0,296.6 336.2,296.6 336.5,295.6 336.7,296.9 337.0,294.9 337.3,295.8 337.5,297.0 337.8,298.0 338.1,298.3 338.3,297.2 338.6,298.0 338.9,296.9 339.1,297.8 339.4,296.7 339.6,297.0 339.9,297.5 340.2,298.1 340.4,298.7 340.7,298.2 341.0,299.1 341.2,298.9 341.5,298.9 341.7,299.3 342.0,298.8 342.3,298.6 342.5,298.0 342.8,297.4 343.1,296.6 343.3,296.3 343.6,297.1 343.9,297.8 344.1,298.0 344.4,297.8 344.6,298.7 344.9,299.4 345.2,299.3 345.4,299.1 345.7,298.5 346.0,300.6 346.2,300.2 346.5,298.6 346.7,299.2 347.0,299.4 347.3,299.7 347.5,300.1 347.8,299.3 348.1,299.3 348.3,300.1 348.6,300.8 348.8,301.0 349.1,300.1 349.4,300.4 349.6,300.4 349.9,300.2 350.2,300.7 350.4,300.0 350.7,300.4 351.0,300.5 351.2,301.9 351.5,301.1 351.7,299.1 352.0,299.1 352.3,297.6 352.5,297.8 352.8,298.3 353.1,298.4 353.3,298.9 353.6,298.9 353.8,297.7 354.1,297.6 354.4,296.4 354.6,295.7 354.9,295.4 355.2,297.0 355.4,298.3 355.7,298.3 356.0,297.8 356.2,296.2 356.5,293.4 356.7,293.4 357.0,290.4 357.3,288.9 357.5,287.7 357.8,286.1 358.1,280.8 358.3,279.7 358.6,272.3 358.8,273.6 359.1,265.1 359.4,273.3 359.6,272.8 359.9,277.0 360.2,276.6 360.4,275.3 360.7,267.6 360.9,266.7 361.2,263.7 361.5,264.9 361.7,263.5 362.0,264.3 362.3,271.2 362.5,267.2 362.8,260.6 363.1,255.9 363.3,253.2 363.6,250.3 363.8,248.2 364.1,251.8 364.4,252.3 364.6,255.7 364.9,253.1 365.2,249.6 365.4,249.7 365.7,251.6 365.9,244.1 366.2,245.0 366.5,256.7 366.7,256.4 367.0,246.4 367.3,249.2 367.5,247.2 367.8,249.0 368.1,251.4 368.3,253.9 368.6,256.5 368.8,258.4 369.1,263.0 369.4,258.7 369.6,261.1 369.9,263.4 370.2,262.9 370.4,260.3 370.7,259.6 370.9,257.1 371.2,257.5 371.5,257.5 371.7,256.9 372.0,256.5 372.3,260.1 372.5,257.5 372.8,256.9 373.1,257.5 373.3,261.6 373.6,261.9 373.8,264.6 374.1,264.8 374.4,262.8 374.6,263.8 374.9,263.0 375.2,259.1 375.4,258.9 375.7,252.2 375.9,250.3 376.2,246.3 376.5,248.8 376.7,244.8 377.0,245.5 377.3,248.8 377.5,249.8 377.8,245.2 378.0,247.3 378.3,242.5 378.6,245.1 378.8,243.7 379.1,245.4 379.4,244.4 379.6,240.9 379.9,238.8 380.2,240.3 380.4,233.3 380.7,233.2 380.9,235.5 381.2,235.6 381.5,226.3 381.7,227.6 382.0,234.2 382.3,230.5 382.5,227.3 382.8,230.3 383.0,235.2 383.3,233.0 383.6,233.4 383.8,231.1 384.1,229.5 384.4,226.8 384.6,233.2 384.9,229.6 385.2,231.9 385.4,232.1 385.7,229.4 385.9,229.1 386.2,231.9 386.5,233.0 386.7,235.8 387.0,238.8 387.3,234.3 387.5,234.1 387.8,232.6 388.0,228.2 388.3,225.1 388.6,222.8 388.8,225.9 389.1,234.6 389.4,234.3 389.6,231.4 389.9,232.9 390.2,234.2 390.4,230.5 390.7,232.1 390.9,224.5 391.2,228.4 391.5,229.8 391.7,227.1 392.0,227.2 392.3,232.0 392.5,232.7 392.8,232.0 393.0,236.5 393.3,241.8 393.6,235.8 393.8,235.2 394.1,238.8 394.4,246.2 394.6,247.6 394.9,239.5 395.1,244.4 395.4,245.7 395.7,250.7 395.9,245.1 396.2,233.4 396.5,246.2 396.7,241.8 397.0,239.2 397.3,241.5 397.5,244.5 397.8,243.9 398.0,244.7 398.3,241.7 398.6,240.8 398.8,241.6 399.1,243.5 399.4,238.6 399.6,241.5 399.9,252.0 400.1,256.4 400.4,256.9 400.7,258.8 400.9,261.6 401.2,261.6 401.5,259.1 401.7,261.8 402.0,263.0 402.3,260.0 402.5,256.4 402.8,257.1 403.0,260.3 403.3,259.5 403.6,260.0 403.8,262.8 404.1,267.8 404.4,267.5 404.6,270.1 404.9,273.5 405.1,282.4 405.4,286.4 405.7,282.6 405.9,274.7 406.2,272.8 406.5,270.8 406.7,271.2 407.0,271.8 407.3,275.1 407.5,272.4 407.8,270.5 408.0,270.3 408.3,271.6 408.6,270.7 408.8,272.8 409.1,269.5 409.4,270.4 409.6,269.4 409.9,268.3 410.1,265.8 410.4,268.8 410.7,267.7 410.9,267.4 411.2,268.4 411.5,271.4 411.7,271.6 412.0,269.0 412.2,266.1 412.5,263.2 412.8,264.5 413.0,266.1 413.3,263.7 413.6,262.7 413.8,261.6 414.1,262.4 414.4,262.6 414.6,262.5 414.9,259.9 415.1,260.4 415.4,258.0 415.7,260.4 415.9,261.0 416.2,260.6 416.5,262.0 416.7,262.0 417.0,256.1 417.2,255.1 417.5,252.5 417.8,251.7 418.0,252.3 418.3,253.5 418.6,254.8 418.8,255.9 419.1,255.7 419.4,255.3 419.6,256.4 419.9,255.1 420.1,255.9 420.4,256.1 420.7,256.1 420.9,255.9 421.2,256.0 421.5,259.6 421.7,259.7 422.0,258.7 422.2,253.0 422.5,253.1 422.8,256.2 423.0,256.8 423.3,257.8 423.6,257.7 423.8,257.6 424.1,257.4 424.4,254.2 424.6,255.3 424.9,255.4 425.1,254.5 425.4,253.7 425.7,250.3 425.9,250.2 426.2,250.1 426.5,250.3 426.7,250.3 427.0,253.9 427.2,252.6 427.5,253.8 427.8,253.0 428.0,258.9 428.3,257.6 428.6,257.5 428.8,259.8 429.1,259.3 429.3,265.0 429.6,264.5 429.9,265.2 430.1,265.2 430.4,267.5 430.7,267.9 430.9,266.6 431.2,269.6 431.5,270.7 431.7,270.5 432.0,270.4 432.2,273.5 432.5,273.5 432.8,273.3 433.0,270.6 433.3,272.6 433.6,271.3 433.8,272.3 434.1,272.0 434.3,272.2 434.6,272.9 434.9,270.8 435.1,271.0 435.4,271.4 435.7,271.4 435.9,268.2 436.2,269.7 436.5,269.9 436.7,274.3 437.0,273.9 437.2,274.2 437.5,273.4 437.8,270.6 438.0,270.0 438.3,266.5 438.6,268.0 438.8,267.2 439.1,267.0 439.3,268.9 439.6,268.0 439.9,267.8 440.1,267.1 440.4,264.7 440.7,265.1 440.9,264.8 441.2,262.6 441.5,264.8 441.7,264.3 442.0,265.7 442.2,264.9 442.5,266.8 442.8,267.4 443.0,265.2 443.3,265.7 443.6,265.4 443.8,265.1 444.1,265.9 444.3,267.0 444.6,267.7 444.9,266.6 445.1,266.5 445.4,265.4 445.7,265.1 445.9,265.2 446.2,265.8 446.4,265.3 446.7,264.5 447.0,264.5 447.2,263.9 447.5,264.2 447.8,263.9 448.0,264.3 448.3,264.5 448.6,265.0 448.8,265.4 449.1,265.3 449.3,265.3 449.6,266.9 449.9,267.7 450.1,267.6 450.4,267.4 450.7,266.0 450.9,266.0 451.2,266.3 451.4,266.6 451.7,265.7 452.0,265.6 452.2,265.7 452.5,265.6 452.8,266.2 453.0,266.3 453.3,266.2 453.6,266.3 453.8,265.4 454.1,262.9 454.3,264.2 454.6,264.5 454.9,264.1 455.1,264.8 455.4,264.7 455.7,264.7 455.9,265.7 456.2,265.2 456.4,265.2 456.7,265.2 457.0,265.2 457.2,264.8 457.5,264.9 457.8,264.9 458.0,265.1 458.3,266.5 458.5,266.1 458.8,265.6 459.1,264.6 459.3,265.0 459.6,264.6 459.9,263.8 460.1,263.9 460.4,264.1 460.7,264.2 460.9,264.7 461.2,264.7 461.4,262.8 461.7,262.7 462.0,262.6 462.2,262.3 462.5,262.0 462.8,262.9 463.0,263.1 463.3,262.4 463.5,263.1 463.8,263.1 464.1,262.5 464.3,261.7 464.6,262.7 464.9,262.9 465.1,263.2 465.4,263.2 465.7,263.5 465.9,263.6 466.2,263.5 466.4,263.2 466.7,262.4 467.0,262.4 467.2,261.7 467.5,259.5 467.8,256.2 468.0,258.2 468.3,258.0 468.5,256.6 468.8,256.4 469.1,256.6 469.3,255.4 469.6,256.9 469.9,257.7 470.1,257.7 470.4,257.2 470.7,257.3 470.9,257.3 471.2,256.8 471.4,255.3 471.7,255.0 472.0,253.9 472.2,253.6 472.5,253.1 472.8,252.9 473.0,253.9 473.3,255.1 473.5,256.4 473.8,254.4 474.1,254.7 474.3,255.3 474.6,254.3 474.9,254.6 475.1,256.2 475.4,256.3 475.6,256.9 475.9,256.8 476.2,256.9 476.4,255.5 476.7,256.2 477.0,256.4 477.2,257.0 477.5,257.0 477.8,257.5 478.0,256.7 478.3,257.0 478.5,256.9 478.8,256.7 479.1,255.9 479.3,255.7 479.6,256.1 479.9,256.8 480.1,255.7 480.4,255.5 480.6,254.1 480.9,255.5 481.2,254.4 481.4,254.5 481.7,254.3 482.0,254.3 482.2,255.2 482.5,254.5 482.8,254.3 483.0,254.4 483.3,254.4 483.5,254.2 483.8,254.3 484.1,254.3 484.3,251.5 484.6,250.8 484.9,251.3 485.1,249.9 485.4,248.8 485.6,249.3 485.9,248.8 486.2,250.2 486.4,249.9 486.7,250.4 487.0,250.4 487.2,250.7 487.5,249.8 487.8,249.7 488.0,248.6 488.3,248.4 488.5,249.2 488.8,248.0 489.1,252.4 489.3,252.8 489.6,253.1 489.9,255.3 490.1,255.1 490.4,255.0 490.6,255.1 490.9,253.9 491.2,253.5 491.4,253.4 491.7,253.9 492.0,253.0 492.2,252.2 492.5,252.3 492.7,252.0 493.0,252.9 493.3,253.0 493.5,253.6 493.8,253.6 494.1,253.6 494.3,252.6 494.6,250.6 494.9,251.3 495.1,250.6 495.4,251.1 495.6,250.4 495.9,250.6 496.2,250.7 496.4,249.9 496.7,249.6 497.0,252.4 497.2,251.4 497.5,251.0 497.7,251.2 498.0,250.9 498.3,250.6 498.5,250.3 498.8,250.9 499.1,250.2 499.3,250.3 499.6,250.4 499.9,248.7 500.1,248.8 500.4,248.7 500.6,249.6 500.9,249.5 501.2,250.2 501.4,250.5 501.7,250.7 502.0,251.6 502.2,251.7 502.5,251.7 502.7,251.3 503.0,251.8 503.3,251.9 503.5,252.4 503.8,251.3 504.1,251.4 504.3,251.3 504.6,251.0 504.9,252.0 505.1,251.7 505.4,250.4 505.6,251.2 505.9,249.5 506.2,249.5 506.4,248.9 506.7,249.0 507.0,248.8 507.2,248.9 507.5,248.1 507.7,247.8 508.0,248.3 508.3,249.4 508.5,249.8 508.8,250.6 509.1,251.2 509.3,251.5 509.6,251.6 509.8,251.2 510.1,252.1 510.4,252.7 510.6,251.8 510.9,250.9 511.2,250.7 511.4,249.7 511.7,246.6 512.0,245.6 512.2,245.2 512.5,245.3 512.7,245.1 513.0,245.6 513.3,247.3 513.5,245.7 513.8,245.1 514.1,239.4 514.3,239.6 514.6,236.0 514.8,236.2 515.1,235.6 515.4,237.6 515.6,237.0 515.9,235.8 516.2,230.2 516.4,229.2 516.7,229.6 517.0,222.1 517.2,223.0 517.5,223.4 517.7,220.6 518.0,223.7 518.3,224.6 518.5,220.4 518.8,220.6 519.1,215.5 519.3,213.9 519.6,211.5 519.8,213.0 520.1,216.8 520.4,219.9 520.6,218.3 520.9,212.6 521.2,214.0 521.4,210.0 521.7,210.8 522.0,209.1 522.2,209.1 522.5,208.5 522.7,212.5 523.0,208.3 523.3,209.4 523.5,211.5 523.8,214.6 524.1,206.9 524.3,203.9 524.6,205.1 524.8,204.7 525.1,202.7 525.4,204.6 525.6,201.5 525.9,197.9 526.2,194.4 526.4,195.8 526.7,194.6 526.9,194.1 527.2,200.5 527.5,198.4 527.7,199.4 528.0,200.7 528.3,199.2 528.5,200.7 528.8,200.3 529.1,191.5 529.3,194.0 529.6,197.5 529.8,200.5 530.1,199.3 530.4,198.9 530.6,200.1 530.9,204.3 531.2,207.8 531.4,205.0 531.7,203.7 531.9,202.8 532.2,203.1 532.5,196.7 532.7,197.1 533.0,190.4 533.3,189.8 533.5,190.6 533.8,188.4 534.1,187.3 534.3,184.6 534.6,186.6 534.8,187.8 535.1,187.4 535.4,189.0 535.6,185.4 535.9,188.2 536.2,189.8 536.4,189.4 536.7,192.6 536.9,190.1 537.2,189.3 537.5,192.5 537.7,194.6 538.0,194.8 538.3,194.3 538.5,195.5 538.8,193.2 539.1,192.5 539.3,192.1 539.6,191.8 539.8,193.9 540.1,193.4 540.4,192.1 540.6,190.2 540.9,189.7 541.2,188.5 541.4,182.9 541.7,183.0 541.9,182.7 542.2,180.3 542.5,177.0 542.7,175.1 543.0,176.9 543.3,174.2 543.5,173.2 543.8,173.6 544.0,169.5 544.3,161.5 544.6,161.1 544.8,160.1 545.1,160.9 545.4,160.8 545.6,159.9 545.9,161.2 546.2,157.0 546.4,159.4 546.7,154.0 546.9,142.8 547.2,142.0 547.5,141.2 547.7,145.0 548.0,133.0 548.3,126.0 548.5,124.6 548.8,116.0 549.0,119.1 549.3,128.9 549.6,128.0 549.8,131.4 550.1,133.9 550.4,134.9 550.6,142.7 550.9,148.4 551.2,144.4 551.4,138.7 551.7,144.4 551.9,146.7 552.2,137.8 552.5,132.3 552.7,138.7 553.0,135.8 553.3,139.3 553.5,141.3 553.8,140.4 554.0,131.3 554.3,130.1 554.6,127.1 554.8,129.9 555.1,129.4 555.4,130.1 555.6,141.4 555.9,140.6 556.1,142.5 556.4,134.4 556.7,139.4 556.9,138.8 557.2,139.7 557.5,142.4 557.7,136.6 558.0,137.1 558.3,134.2 558.5,128.7 558.8,118.5 559.0,118.0 559.3,119.5 559.6,118.6 559.8,118.7 560.1,115.1 560.4,115.0 560.6,122.3 560.9,125.9 561.1,123.4 561.4,132.0 561.7,131.9 561.9,126.6 562.2,125.3 562.5,123.6 562.7,124.6 563.0,130.7 563.3,138.2 563.5,145.6 563.8,159.9 564.0,158.3 564.3,151.8 564.6,146.0 564.8,143.2 565.1,140.5 565.4,140.0 565.6,143.1 565.9,149.5 566.1,145.8 566.4,149.7 566.7,149.1 566.9,144.6 567.2,146.3 567.5,140.8 567.7,139.7 568.0,139.0 568.3,144.3 568.5,146.2 568.8,140.9 569.0,140.9 569.3,130.5 569.6,129.7 569.8,130.5 570.1,133.5 570.4,141.5 570.6,147.9 570.9,148.2 571.1,156.9 571.4,153.8 571.7,157.2 571.9,159.2 572.2,159.7 572.5,159.6 572.7,155.1 573.0,148.0 573.2,149.8 573.5,152.8 573.8,154.4 574.0,160.3 574.3,164.0 574.6,162.8 574.8,159.8 575.1,160.8 575.4,158.2 575.6,153.3 575.9,156.6 576.1,164.0 576.4,171.0 576.7,169.6 576.9,169.3 577.2,171.6 577.5,170.1 577.7,164.2 578.0,164.6 578.2,163.8 578.5,164.1 578.8,161.0 579.0,161.4 579.3,165.0 579.6,167.5 579.8,164.3 580.1,162.3 580.4,164.4 580.6,168.3 580.9,170.0 581.1,169.0 581.4,166.0 581.7,166.4 581.9,171.8 582.2,167.1 582.5,168.7 582.7,162.7 583.0,159.5 583.2,161.9 583.5,159.9 583.8,162.6 584.0,160.5 584.3,157.8 584.6,158.2 584.8,156.0 585.1,155.4 585.4,163.5 585.6,164.3 585.9,166.7 586.1,166.8 586.4,170.9 586.7,172.6 586.9,178.2 587.2,180.3 587.5,174.7 587.7,185.5 588.0,181.9 588.2,184.5 588.5,184.5 588.8,180.0 589.0,173.8 589.3,176.0 589.6,179.5 589.8,175.4 590.1,174.9 590.3,177.5 590.6,176.5 590.9,177.2 591.1,174.3 591.4,167.5 591.7,166.8 591.9,164.7 592.2,163.3 592.5,167.7 592.7,167.4 593.0,165.2 593.2,165.1 593.5,171.2 593.8,175.8 594.0,177.2 594.3,177.1 594.6,171.6 594.8,175.4 595.1,168.2 595.3,168.8 595.6,171.6 595.9,173.2 596.1,179.7 596.4,179.9 596.7,181.1 596.9,177.2 597.2,172.1 597.5,167.2 597.7,163.4 598.0,162.3 598.2,159.1 598.5,160.9 598.8,160.6 599.0,160.1 599.3,160.7 599.6,161.5 599.8,154.9 600.1,161.3 600.3,164.0 600.6,159.3 600.9,161.7 601.1,162.9 601.4,166.4 601.7,160.6 601.9,157.7 602.2,160.2 602.5,155.0 602.7,151.7 603.0,152.8 603.2,144.1 603.5,145.1 603.8,142.6 604.0,145.1 604.3,140.9 604.6,152.9 604.8,152.2 605.1,153.3 605.3,162.3 605.6,155.8 605.9,158.0 606.1,155.4 606.4,154.9 606.7,160.4 606.9,150.2 607.2,142.7 607.4,150.5 607.7,148.1 608.0,146.8 608.2,150.4 608.5,161.8 608.8,159.3 609.0,156.6 609.3,154.4 609.6,144.6 609.8,147.1 610.1,146.4 610.3,148.6 610.6,148.0 610.9,153.4 611.1,153.3 611.4,152.1 611.7,155.6 611.9,151.8 612.2,151.4 612.4,149.8 612.7,155.1 613.0,155.4 613.2,158.2 613.5,159.8 613.8,158.0 614.0,158.3 614.3,156.1 614.6,158.5 614.8,157.0 615.1,152.2 615.3,152.5 615.6,154.6 615.9,158.6 616.1,158.6 616.4,161.3 616.7,161.3 616.9,160.4 617.2,158.0 617.4,162.0 617.7,164.2 618.0,165.6 618.2,167.9 618.5,171.5 618.8,173.7 619.0,173.9 619.3,174.1 619.6,177.0 619.8,178.3 620.1,180.9 620.3,183.8 620.6,182.2 620.9,179.3 621.1,180.2 621.4,181.8 621.7,178.1 621.9,176.4 622.2,174.5 622.4,177.6 622.7,172.8 623.0,172.4 623.2,172.4 623.5,168.6 623.8,165.7 624.0,168.1 624.3,169.9 624.5,166.9 624.8,164.1 625.1,163.4 625.3,163.0 625.6,164.3 625.9,158.7 626.1,157.9 626.4,154.1 626.7,154.5 626.9,152.1 627.2,151.8 627.4,157.8 627.7,151.2 628.0,150.0 628.2,149.3 628.5,150.9 628.8,145.7 629.0,126.4 629.3,136.0 629.5,136.1 629.8,136.0 630.1,128.3 630.3,127.7 630.6,129.4 630.9,129.1 631.1,135.1 631.4,140.2 631.7,139.9 631.9,138.5 632.2,131.1 632.4,127.0 632.7,123.6 633.0,119.9 633.2,118.8 633.5,114.9 633.8,117.3 634.0,120.8 634.3,128.7 634.5,127.4 634.8,122.4 635.1,125.1 635.3,113.1 635.6,108.3 635.9,107.1 636.1,104.2 636.4,103.1 636.6,101.9 636.9,100.2 637.2,97.2 637.4,101.5 637.7,102.4 638.0,98.4 638.2,87.6 638.5,89.3 638.8,89.9 639.0,81.2 639.3,87.8 639.5,84.3 639.8,87.6 640.1,92.8 640.3,93.8 640.6,83.1 640.9,84.1 641.1,99.9 641.4,100.0 641.6,107.7 641.9,114.6 642.2,99.3 642.4,108.1 642.7,109.3 643.0,102.1 643.2,100.7 643.5,106.7 643.8,110.7 644.0,109.6 644.3,111.4 644.5,115.0 644.8,111.5 645.1,109.3 645.3,106.0 645.6,100.8 645.9,103.1 646.1,103.4 646.4,102.5 646.6,106.7 646.9,108.3 647.2,109.5 647.4,103.0 647.7,94.5 648.0,98.4 648.2,98.5 648.5,100.9 648.8,100.3 649.0,96.9 649.3,88.5 649.5,72.3 649.8,74.0 650.1,73.2 650.3,78.4 650.6,79.1 650.9,73.8 651.1,71.9 651.4,61.4 651.6,63.9 651.9,65.2 652.2,67.7 652.4,64.6 652.7,72.0 653.0,75.5 653.2,74.3 653.5,74.0 653.7,71.5 654.0,73.7 654.3,77.4 654.5,77.2 654.8,78.1 655.1,72.8 655.3,75.0 655.6,75.6 655.9,71.1 656.1,69.3 656.4,67.0 656.6,69.2 656.9,67.4 657.2,73.6 657.4,75.5 657.7,80.4 658.0,85.0 658.2,85.3 658.5,88.7 658.7,85.3 659.0,85.9 659.3,78.8 659.5,83.7 659.8,83.6 660.1,79.4 660.3,75.7 660.6,72.4 660.9,74.1 661.1,74.8 661.4,74.0 661.6,67.7 661.9,75.6 662.2,75.0 662.4,77.5 662.7,78.2 663.0,76.1 663.2,72.3 663.5,73.1 663.7,70.5 664.0,67.4 664.3,62.5 664.5,63.5 664.8,66.7 665.1,66.3 665.3,57.1 665.6,60.4 665.9,66.4 666.1,64.8 666.4,66.2 666.6,65.3 666.9,68.4 667.2,68.3 667.4,68.9 667.7,70.3 668.0,70.5 668.2,74.6 668.5,71.4 668.7,70.9 669.0,69.8 669.3,65.2 669.5,63.4 669.8,64.2 670.1,62.9 670.3,59.2 670.6,65.7 670.8,64.6 671.1,63.9 671.4,66.5 671.6,65.5 671.9,71.4 672.2,69.3 672.4,70.8 672.7,71.6 673.0,71.1 673.2,64.7 673.5,63.9 673.7,64.7 674.0,64.8 674.3,65.6 674.5,67.6 674.8,70.8 675.1,70.7 675.3,71.4 675.6,71.3 675.8,71.8 676.1,69.1 676.4,68.5 676.6,71.3 676.9,76.9 677.2,81.7 677.4,79.7 677.7,80.0 678.0,81.6 678.2,83.3 678.5,85.9 678.7,87.0 679.0,83.8 679.3,84.4 679.5,82.4 679.8,82.2 680.1,85.8 680.3,86.0 680.6,84.5 680.8,84.5 681.1,75.5 681.4,79.2 681.6,77.6 681.9,78.1 682.2,79.0 682.4,79.6 682.7,83.7 683.0,83.1 683.2,84.9 683.5,83.2 683.7,82.3 684.0,78.4 684.3,79.8 684.5,77.7 684.8,77.4 685.1,79.4 685.3,77.6 685.6,81.3 685.8,81.2 686.1,82.1 686.4,76.6 686.6,75.3 686.9,78.7 687.2,79.5 687.4,77.2 687.7,72.8 687.9,79.4 688.2,80.6 688.5,86.3 688.7,105.4 689.0,96.4 689.3,96.6 689.5,92.8 689.8,94.4 690.1,96.9 690.3,94.1 690.6,93.9 690.8,96.4 691.1,94.5 691.4,90.0 691.6,92.7 691.9,92.2 692.2,87.0 692.4,90.0 692.7,95.5 692.9,97.2 693.2,98.4 693.5,98.5 693.7,105.4 694.0,99.2 694.3,99.5 694.5,95.9 694.8,89.8 695.1,94.8 695.3,104.0 695.6,100.5 695.8,103.9 696.1,108.9 696.4,115.3 696.6,124.2 696.9,123.8 697.2,131.3 697.4,138.1 697.7,134.1 697.9,141.5 698.2,134.3 698.5,129.7 698.7,130.2 699.0,131.8 699.3,133.6 699.5,133.6 699.8,133.1 700.1,131.9 700.3,134.6 700.6,130.9 700.8,132.9 701.1,132.0 701.4,127.6 701.6,130.4 701.9,127.5 702.2,128.0 702.4,129.6 702.7,122.9 702.9,119.3 703.2,123.0 703.5,124.0 703.7,123.7 704.0,129.2 704.3,126.9 704.5,123.0 704.8,117.6 705.0,116.1 705.3,118.3 705.6,120.2 705.8,116.7 706.1,113.6 706.4,113.5 706.6,115.5 706.9,119.2 707.2,119.2 707.4,119.3 707.7,117.0 707.9,116.8 708.2,118.7 708.5,126.3 708.7,126.6 709.0,125.0 709.3,124.5 709.5,121.6 709.8,124.3 710.0,119.4 710.3,112.3 710.6,109.9 710.8,109.4 711.1,108.9 711.4,104.1 711.6,104.9 711.9,108.0 712.2,112.5 712.4,112.8 712.7,118.2 712.9,115.1 713.2,116.6 713.5,115.3 713.7,115.2 714.0,117.4 714.3,120.1 714.5,119.1 714.8,123.3 715.0,122.0 715.3,114.9 715.6,106.5 715.8,100.0 716.1,79.3 716.4,82.3 716.6,74.0 716.9,73.2 717.2,85.3 717.4,85.2 717.7,88.7 717.9,92.4 718.2,99.1 718.5,99.8 718.7,83.7 719.0,90.6 719.3,93.3 719.5,96.5 719.8,103.2 720.0,105.1 720.3,105.3 720.6,102.2 720.8,106.4 721.1,106.9 721.4,105.1 721.6,97.6 721.9,102.7 722.1,102.7 722.4,105.4 722.7,103.2 722.9,104.0 723.2,102.6 723.5,104.5 723.7,99.2 724.0,89.4 724.3,93.9 724.5,99.3 724.8,101.2 725.0,99.0 725.3,100.5 725.6,99.5 725.8,103.9 726.1,104.7 726.4,100.2 726.6,104.5 726.9,105.3 727.1,106.8 727.4,108.6 727.7,110.5 727.9,109.7 728.2,102.7 728.5,104.9 728.7,104.8 729.0,102.5 729.3,98.0 729.5,93.4 729.8,95.1 730.0,93.8 730.3,80.6 730.6,87.2 730.8,93.5 731.1,95.3 731.4,100.3 731.6,98.6 731.9,97.3 732.1,101.2 732.4,103.1 732.7,97.5 732.9,87.5 733.2,85.7 733.5,85.7 733.7,85.6 734.0,83.6 734.2,84.1 734.5,86.2 734.8,82.3 735.0,83.3 735.3,78.5 735.6,82.9 735.8,86.8 736.1,91.8 736.4,94.9 736.6,97.8 736.9,99.8 737.1,93.2 737.4,92.1 737.7,87.2 737.9,86.0 738.2,80.3 738.5,79.5 738.7,78.5 739.0,82.7 739.2,89.2 739.5,79.9 739.8,76.7 740.0,72.2 740.3,72.0 740.6,75.0 740.8,69.3 741.1,73.4 741.4,65.8 741.6,59.4 741.9,56.1 742.1,56.4 742.4,45.0 742.7,46.8 742.9,50.1 743.2,49.0 743.5,55.2 743.7,63.1 744.0,63.7 744.2,64.3 744.5,69.7 744.8,64.3 745.0,69.0 745.3,67.2 745.6,59.9 745.8,64.0 746.1,66.5 746.4,76.3 746.6,73.9 746.9,76.1 747.1,79.5 747.4,74.7 747.7,71.7 747.9,70.4 748.2,66.7 748.5,72.8 748.7,75.9 749.0,70.9 749.2,69.2 749.5,69.7 749.8,76.7 750.0,63.9 750.3,64.8 750.6,72.5 750.8,67.0 751.1,66.0 751.3,67.3 751.6,72.8 751.9,75.3 752.1,77.5 752.4,73.8 752.7,80.2 752.9,80.1 753.2,87.3 753.5,93.5 753.7,92.9 754.0,96.6 754.2,102.1 754.5,91.7 754.8,91.3 755.0,95.2 755.3,96.7 755.6,92.9 755.8,82.3 756.1,76.1 756.3,80.2 756.6,75.7 756.9,77.6 757.1,66.2 757.4,72.8 757.7,74.0 757.9,79.4 758.2,67.5 758.5,69.0 758.7,75.1 759.0,73.6 759.2,76.7 759.5,79.3 759.8,68.8 760.0,71.6 760.3,73.1 760.6,72.1 760.8,81.8 761.1,85.6 761.3,91.6 761.6,91.0 761.9,90.2 762.1,93.8 762.4,93.1 762.7,90.4 762.9,93.3 763.2,92.5 763.5,94.8 763.7,93.1 764.0,94.2 764.2,93.7 764.5,95.7 764.8,95.0 765.0,100.0 765.3,100.0 765.6,102.1 765.8,100.1 766.1,104.6 766.3,105.0 766.6,103.4 766.9,104.0 767.1,105.3 767.4,104.8 767.7,105.1 767.9,109.9 768.2,108.6 768.4,110.2 768.7,106.7 769.0,111.2 769.2,118.0 769.5,119.5 769.8,119.8 770.0,118.9 770.3,120.1 770.6,122.8 770.8,115.8 771.1,118.6 771.3,116.8 771.6,120.0 771.9,117.4 772.1,119.7 772.4,120.1 772.7,111.4 772.9,111.6 773.2,109.8 773.4,109.6 773.7,113.7 774.0,116.0 774.2,116.9 774.5,117.5 774.8,116.9 775.0,118.9 775.3,118.5 775.6,118.8 775.8,119.8 776.1,121.9 776.3,130.0 776.6,130.2 776.9,132.8 777.1,136.8 777.4,140.1 777.7,138.1 777.9,134.3 778.2,133.8 778.4,131.3 778.7,135.1 779.0,139.3 779.2,139.6 779.5,138.0 779.8,146.5 780.0,147.8 780.3,144.4 780.6,146.2 780.8,151.7 781.1,154.1 781.3,156.5 781.6,155.5 781.9,161.7 782.1,154.5 782.4,155.5 782.7,156.7 782.9,159.8 783.2,161.1 783.4,159.5 783.7,162.6 784.0,173.4 784.2,179.8 784.5,178.2 784.8,177.8 785.0,176.3 785.3,175.1 785.5,174.3 785.8,176.6 786.1,174.5 786.3,176.3 786.6,171.3 786.9,169.2 787.1,168.9 787.4,172.6 787.7,174.1 787.9,172.0 788.2,174.4 788.4,168.1 788.7,176.2 789.0,178.6 789.2,179.7 789.5,182.8 789.8,183.5 790.0,188.0 790.3,182.1 790.5,186.5 790.8,189.3 791.1,183.8 791.3,183.6 791.6,183.1 791.9,183.5 792.1,180.9 792.4,182.3 792.7,183.4 792.9,183.1 793.2,185.1 793.4,189.5 793.7,190.8 794.0,190.7 794.2,193.6 794.5,196.7 794.8,195.1 795.0,195.6 795.3,192.5 795.5,191.6 795.8,191.8 796.1,194.7 796.3,181.7 796.6,179.5 796.9,181.2 797.1,182.9 797.4,184.1 797.7,186.0 797.9,189.5 798.2,184.0 798.4,184.3 798.7,174.2 799.0,174.2 799.2,174.9 799.5,178.6 799.8,180.4 800.0,181.6 800.3,187.7 800.5,185.8 800.8,186.1 801.1,186.0 801.3,187.2 801.6,186.4 801.9,184.8 802.1,187.3 802.4,189.2 802.6,182.1 802.9,184.0 803.2,184.1 803.4,184.9 803.7,186.0 804.0,187.9 804.2,186.3 804.5,187.2 804.8,187.5 805.0,187.1 805.3,188.3 805.5,190.7 805.8,190.9 806.1,192.4 806.3,190.1 806.6,190.1 806.9,189.7 807.1,189.2 807.4,184.8 807.6,185.0 807.9,181.6 808.2,181.9 808.4,182.1 808.7,183.2 809.0,183.7 809.2,182.0 809.5,184.3 809.8,185.2 810.0,183.2 810.3,185.5 810.5,185.4 810.8,186.8 811.1,186.3 811.3,183.1 811.6,183.3 811.9,184.7 812.1,184.7 812.4,182.7 812.6,178.9 812.9,181.6 813.2,175.9 813.4,175.4 813.7,176.1 814.0,177.4 814.2,178.1 814.5,182.3 814.7,182.9 815.0,181.9 815.3,181.1 815.5,174.2 815.8,173.7 816.1,175.2 816.3,182.0 816.6,179.8 816.9,183.4 817.1,186.3 817.4,179.2 817.6,175.6 817.9,175.5 818.2,171.5 818.4,166.5 818.7,172.5 819.0,174.7 819.2,172.7 819.5,173.4 819.7,170.4 820.0,171.6 820.3,175.4 820.5,176.0 820.8,181.1 821.1,181.3 821.3,183.5 821.6,181.3 821.9,183.5 822.1,182.9 822.4,185.8 822.6,190.1 822.9,195.1 823.2,197.0 823.4,197.0 823.7,196.2 824.0,200.9 824.2,212.0 824.5,206.2 824.7,202.0 825.0,193.5 825.3,196.6 825.5,193.9 825.8,193.6 826.1,192.3 826.3,194.5 826.6,193.7 826.9,196.0 827.1,190.7 827.4,191.6 827.6,189.8 827.9,187.8 828.2,191.5 828.4,188.9 828.7,194.5 829.0,191.6 829.2,193.8 829.5,192.5 829.7,192.2 830.0,196.7 830.3,198.7 830.5,200.5 830.8,199.5 831.1,198.6 831.3,204.3 831.6,208.7 831.8,207.6 832.1,208.4 832.4,205.3 832.6,203.7 832.9,207.0 833.2,206.0 833.4,205.6 833.7,204.7 834.0,207.3 834.2,207.4 834.5,209.5 834.7,207.9 835.0,208.6 835.3,209.7 835.5,206.2 835.8,207.6 836.1,210.3 836.3,210.0 836.6,210.2 836.8,208.9 837.1,206.7 837.4,206.6 837.6,206.7 837.9,207.3 838.2,206.3 838.4,206.7 838.7,205.2 839.0,205.1 839.2,204.0 839.5,206.8 839.7,203.0 840.0,194.4 840.3,198.5 840.5,196.6 840.8,197.3 841.1,194.5 841.3,197.1 841.6,194.0 841.8,192.2 842.1,192.0 842.4,191.7 842.6,192.1 842.9,192.4 843.2,193.8 843.4,193.3 843.7,192.7 844.0,195.5 844.2,196.4 844.5,195.6 844.7,197.2 845.0,196.7 845.3,198.3 845.5,203.6 845.8,206.9 846.1,204.2 846.3,204.4 846.6,204.4 846.8,206.8 847.1,205.6 847.4,206.1 847.6,205.1 847.9,206.6 848.2,206.8 848.4,209.0 848.7,210.0 848.9,212.5 849.2,213.7 849.5,212.8 849.7,211.1 850.0,212.4 850.3,213.2 850.5,215.3 850.8,211.4 851.1,210.9 851.3,212.6 851.6,213.1 851.8,212.0 852.1,213.8 852.4,213.2 852.6,212.5 852.9,214.1 853.2,210.9 853.4,205.5 853.7,205.4 853.9,205.6 854.2,206.2 854.5,202.8 854.7,203.5 855.0,203.3"/>
</svg>
