<svg xmlns="http://www.w3.org/2000/svg" width="900" height="360">
<rect width="100%" height="100%" fill="white"/>
<text x="45" y="20" font-size="16">中国中免 收益率直方图</text>
<line class="axis-x" x1="45" y1="315" x2="855" y2="315" stroke="black" stroke-width="1"/>
<line class="axis-y" x1="45" y1="45" x2="45" y2="315" stroke="black" stroke-width="1"/>
<text x="450.0" y="355" font-size="12" text-anchor="middle">收益率</text>
<text x="14" y="180.0" font-size="12" text-anchor="middle" transform="rotate(-90 14 180.0)">频数</text>
<line x1="45.0" y1="315" x2="45.0" y2="320" stroke="black" stroke-width="1"/>
<text x="45.0" y="333" font-size="10" text-anchor="middle">-0.106</text>
<line x1="450.0" y1="315" x2="450.0" y2="320" stroke="black" stroke-width="1"/>
<text x="450.0" y="333" font-size="10" text-anchor="middle">-0.005</text>
<line x1="855.0" y1="315" x2="855.0" y2="320" stroke="black" stroke-width="1"/>
<text x="855.0" y="333" font-size="10" text-anchor="middle">0.095</text>
<line x1="40" y1="315.0" x2="45" y2="315.0" stroke="black" stroke-width="1"/>
<text x="37" y="318.0" font-size="10" text-anchor="end">0</text>
<line x1="40" y1="180.0" x2="45" y2="180.0" stroke="black" stroke-width="1"/>
<text x="37" y="183.0" font-size="10" text-anchor="end">244</text>
<line x1="40" y1="45.0" x2="45" y2="45.0" stroke="black" stroke-width="1"/>
<text x="37" y="48.0" font-size="10" text-anchor="end">489</text>
<rect x="45.0" y="306.2" width="26.0" height="8.8" fill="#9ecae1"/><rect x="72.0" y="313.3" width="26.0" height="1.7" fill="#9ecae1"/><rect x="99.0" y="311.7" width="26.0" height="3.3" fill="#9ecae1"/><rect x="126.0" y="312.8" width="26.0" height="2.2" fill="#9ecae1"/><rect x="153.0" y="309.5" width="26.0" height="5.5" fill="#9ecae1"/><rect x="180.0" y="309.5" width="26.0" height="5.5" fill="#9ecae1"/><rect x="207.0" y="306.2" width="26.0" height="8.8" fill="#9ecae1"/><rect x="234.0" y="301.2" width="26.0" height="13.8" fill="#9ecae1"/><rect x="261.0" y="297.3" width="26.0" height="17.7" fill="#9ecae1"/><rect x="288.0" y="291.8" width="26.0" height="23.2" fill="#9ecae1"/><rect x="315.0" y="268.6" width="26.0" height="46.4" fill="#9ecae1"/><rect x="342.0" y="255.4" width="26.0" height="59.6" fill="#9ecae1"/><rect x="369.0" y="194.1" width="26.0" height="120.9" fill="#9ecae1"/><rect x="396.0" y="179.2" width="26.0" height="135.8" fill="#9ecae1"/><rect x="423.0" y="132.2" width="26.0" height="182.8" fill="#9ecae1"/><rect x="450.0" y="45.0" width="26.0" height="270.0" fill="#9ecae1"/><rect x="477.0" y="99.7" width="26.0" height="215.3" fill="#9ecae1"/><rect x="504.0" y="149.4" width="26.0" height="165.6" fill="#9ecae1"/><rect x="531.0" y="186.9" width="26.0" height="128.1" fill="#9ecae1"/><rect x="558.0" y="231.6" width="26.0" height="83.4" fill="#9ecae1"/><rect x="585.0" y="248.7" width="26.0" height="66.3" fill="#9ecae1"/><rect x="612.0" y="264.8" width="26.0" height="50.2" fill="#9ecae1"/><rect x="639.0" y="296.2" width="26.0" height="18.8" fill="#9ecae1"/><rect x="666.0" y="294.6" width="26.0" height="20.4" fill="#9ecae1"/><rect x="693.0" y="304.5" width="26.0" height="10.5" fill="#9ecae1"/><rect x="720.0" y="307.3" width="26.0" height="7.7" fill="#9ecae1"/><rect x="747.0" y="310.6" width="26.0" height="4.4" fill="#9ecae1"/><rect x="774.0" y="309.5" width="26.0" height="5.5" fill="#9ecae1"/><rect x="801.0" y="311.7" width="26.0" height="3.3" fill="#9ecae1"/><rect x="828.0" y="300.6" width="26.0" height="14.4" fill="#9ecae1"/>
<polyline fill="none" stroke="#d62728" stroke-width="2" points="45.0,314.9 51.8,314.9 58.6,314.8 65.4,314.8 72.2,314.7 79.0,314.7 85.8,314.6 92.6,314.5 99.5,314.4 106.3,314.2 113.1,314.0 119.9,313.8 126.7,313.5 133.5,313.2 140.3,312.8 147.1,312.3 153.9,311.8 160.7,311.1 167.5,310.3 174.3,309.4 181.1,308.4 187.9,307.1 194.7,305.7 201.6,304.1 208.4,302.2 215.2,300.1 222.0,297.6 228.8,294.9 235.6,291.8 242.4,288.4 249.2,284.6 256.0,280.3 262.8,275.7 269.6,270.6 276.4,265.0 283.2,259.0 290.0,252.4 296.8,245.4 303.7,237.9 310.5,230.0 317.3,221.6 324.1,212.8 330.9,203.6 337.7,194.0 344.5,184.2 351.3,174.1 358.1,163.9 364.9,153.6 371.7,143.2 378.5,132.9 385.3,122.8 392.1,112.9 398.9,103.4 405.8,94.2 412.6,85.7 419.4,77.7 426.2,70.4 433.0,64.0 439.8,58.3 446.6,53.6 453.4,49.9 460.2,47.2 467.0,45.6 473.8,45.0 480.6,45.5 487.4,47.1 494.2,49.7 501.1,53.4 507.9,58.0 514.7,63.6 521.5,70.0 528.3,77.2 535.1,85.1 541.9,93.7 548.7,102.8 555.5,112.3 562.3,122.1 569.1,132.3 575.9,142.5 582.7,152.9 589.5,163.2 596.3,173.5 603.2,183.6 610.0,193.4 616.8,203.0 623.6,212.2 630.4,221.0 637.2,229.5 644.0,237.4 650.8,245.0 657.6,252.0 664.4,258.6 671.2,264.6 678.0,270.2 684.8,275.4 691.6,280.1 698.4,284.3 705.3,288.2 712.1,291.6 718.9,294.7 725.7,297.5 732.5,299.9 739.3,302.1 746.1,304.0 752.9,305.6 759.7,307.0 766.5,308.3 773.3,309.4 780.1,310.3 786.9,311.1 793.7,311.7 800.5,312.3 807.4,312.8 814.2,313.2 821.0,313.5 827.8,313.8 834.6,314.0 841.4,314.2 848.2,314.4 855.0,314.5"/>
</svg>
