<svg xmlns="http://www.w3.org/2000/svg" width="900" height="360">
<rect width="100%" height="100%" fill="white"/>
<text x="30" y="20" font-size="16">中国中免 收益率直方图</text>
<rect x="30.0" y="320.2" width="27.0" height="9.8" fill="#9ecae1"/><rect x="58.0" y="328.2" width="27.0" height="1.8" fill="#9ecae1"/><rect x="86.0" y="326.3" width="27.0" height="3.7" fill="#9ecae1"/><rect x="114.0" y="327.5" width="27.0" height="2.5" fill="#9ecae1"/><rect x="142.0" y="323.9" width="27.0" height="6.1" fill="#9ecae1"/><rect x="170.0" y="323.9" width="27.0" height="6.1" fill="#9ecae1"/><rect x="198.0" y="320.2" width="27.0" height="9.8" fill="#9ecae1"/><rect x="226.0" y="314.7" width="27.0" height="15.3" fill="#9ecae1"/><rect x="254.0" y="310.4" width="27.0" height="19.6" fill="#9ecae1"/><rect x="282.0" y="304.2" width="27.0" height="25.8" fill="#9ecae1"/><rect x="310.0" y="278.5" width="27.0" height="51.5" fill="#9ecae1"/><rect x="338.0" y="263.7" width="27.0" height="66.3" fill="#9ecae1"/><rect x="366.0" y="195.6" width="27.0" height="134.4" fill="#9ecae1"/><rect x="394.0" y="179.1" width="27.0" height="150.9" fill="#9ecae1"/><rect x="422.0" y="126.9" width="27.0" height="203.1" fill="#9ecae1"/><rect x="450.0" y="30.0" width="27.0" height="300.0" fill="#9ecae1"/><rect x="478.0" y="90.7" width="27.0" height="239.3" fill="#9ecae1"/><rect x="506.0" y="146.0" width="27.0" height="184.0" fill="#9ecae1"/><rect x="534.0" y="187.7" width="27.0" height="142.3" fill="#9ecae1"/><rect x="562.0" y="237.4" width="27.0" height="92.6" fill="#9ecae1"/><rect x="590.0" y="256.4" width="27.0" height="73.6" fill="#9ecae1"/><rect x="618.0" y="274.2" width="27.0" height="55.8" fill="#9ecae1"/><rect x="646.0" y="309.1" width="27.0" height="20.9" fill="#9ecae1"/><rect x="674.0" y="307.3" width="27.0" height="22.7" fill="#9ecae1"/><rect x="702.0" y="318.3" width="27.0" height="11.7" fill="#9ecae1"/><rect x="730.0" y="321.4" width="27.0" height="8.6" fill="#9ecae1"/><rect x="758.0" y="325.1" width="27.0" height="4.9" fill="#9ecae1"/><rect x="786.0" y="323.9" width="27.0" height="6.1" fill="#9ecae1"/><rect x="814.0" y="326.3" width="27.0" height="3.7" fill="#9ecae1"/><rect x="842.0" y="314.0" width="27.0" height="16.0" fill="#9ecae1"/>
<polyline fill="none" stroke="#d62728" stroke-width="2" points="30.0,329.9 37.1,329.9 44.1,329.8 51.2,329.8 58.2,329.7 65.3,329.6 72.4,329.6 79.4,329.4 86.5,329.3 93.5,329.1 100.6,328.9 107.6,328.7 114.7,328.4 121.8,328.0 128.8,327.6 135.9,327.0 142.9,326.4 150.0,325.7 157.1,324.8 164.1,323.8 171.2,322.6 178.2,321.3 185.3,319.7 192.4,317.9 199.4,315.8 206.5,313.4 213.5,310.7 220.6,307.7 227.6,304.3 234.7,300.4 241.8,296.2 248.8,291.5 255.9,286.3 262.9,280.6 270.0,274.4 277.1,267.7 284.1,260.5 291.2,252.7 298.2,244.4 305.3,235.5 312.4,226.2 319.4,216.4 326.5,206.2 333.5,195.6 340.6,184.7 347.6,173.5 354.7,162.1 361.8,150.6 368.8,139.1 375.9,127.7 382.9,116.4 390.0,105.4 397.1,94.8 404.1,84.7 411.2,75.2 418.2,66.3 425.3,58.3 432.4,51.1 439.4,44.8 446.5,39.6 453.5,35.5 460.6,32.5 467.6,30.6 474.7,30.0 481.8,30.6 488.8,32.3 495.9,35.2 502.9,39.3 510.0,44.5 517.1,50.6 524.1,57.8 531.2,65.8 538.2,74.6 545.3,84.1 552.4,94.2 559.4,104.8 566.5,115.7 573.5,127.0 580.6,138.4 587.6,149.9 594.7,161.4 601.8,172.8 608.8,184.0 615.9,194.9 622.9,205.5 630.0,215.8 637.1,225.6 644.1,235.0 651.2,243.8 658.2,252.2 665.3,260.0 672.4,267.3 679.4,274.0 686.5,280.3 693.5,286.0 700.6,291.2 707.6,295.9 714.7,300.2 721.8,304.0 728.8,307.5 735.9,310.5 742.9,313.2 750.0,315.6 757.1,317.7 764.1,319.6 771.2,321.2 778.2,322.5 785.3,323.7 792.4,324.8 799.4,325.6 806.5,326.4 813.5,327.0 820.6,327.5 827.6,328.0 834.7,328.3 841.8,328.7 848.8,328.9 855.9,329.1 862.9,329.3 870.0,329.4"/>
</svg>
