<svg xmlns="http://www.w3.org/2000/svg" width="900" height="360">
<rect width="100%" height="100%" fill="white"/>
<text x="30" y="20" font-size="16">中国中免 价格</text>
<polyline fill="none" stroke="#1f77b4" stroke-width="2" points="30.0,328.6 30.3,328.6 30.5,328.8 30.8,328.5 31.1,328.7 31.4,328.8 31.6,328.6 31.9,328.8 32.2,328.7 32.5,328.9 32.7,328.6 33.0,328.6 33.3,328.9 33.5,329.0 33.8,329.3 34.1,329.4 34.4,329.5 34.6,329.5 34.9,329.3 35.2,329.3 35.5,329.0 35.7,329.3 36.0,329.1 36.3,328.9 36.5,329.2 36.8,329.2 37.1,329.3 37.4,329.3 37.6,329.4 37.9,329.3 38.2,329.5 38.5,329.4 38.7,329.3 39.0,329.3 39.3,329.3 39.5,329.2 39.8,329.2 40.1,329.1 40.4,329.4 40.6,329.4 40.9,329.3 41.2,329.2 41.5,329.3 41.7,329.4 42.0,329.6 42.3,329.7 42.5,329.7 42.8,329.5 43.1,329.6 43.4,329.5 43.6,329.5 43.9,329.6 44.2,329.6 44.5,329.6 44.7,329.4 45.0,329.4 45.3,329.4 45.6,329.3 45.8,329.2 46.1,329.2 46.4,329.2 46.6,329.2 46.9,329.2 47.2,329.1 47.5,329.0 47.7,329.1 48.0,329.1 48.3,329.3 48.6,329.3 48.8,329.6 49.1,329.5 49.4,329.3 49.6,329.2 49.9,329.1 50.2,329.1 50.5,329.3 50.7,328.9 51.0,329.2 51.3,329.1 51.6,328.9 51.8,328.8 52.1,328.9 52.4,328.5 52.6,328.7 52.9,329.1 53.2,329.8 53.5,329.5 53.7,329.5 54.0,329.6 54.3,329.7 54.6,329.7 54.8,330.0 55.1,329.9 55.4,329.7 55.6,329.7 55.9,329.7 56.2,329.6 56.5,329.5 56.7,329.8 57.0,329.7 57.3,329.5 57.6,329.6 57.8,329.5 58.1,329.5 58.4,329.4 58.6,329.1 58.9,329.0 59.2,329.0 59.5,329.2 59.7,329.4 60.0,329.0 60.3,329.0 60.6,329.0 60.8,328.9 61.1,328.9 61.4,329.1 61.6,329.2 61.9,329.1 62.2,329.1 62.5,329.2 62.7,329.1 63.0,329.0 63.3,329.0 63.6,329.1 63.8,328.4 64.1,328.3 64.4,328.4 64.6,328.5 64.9,328.6 65.2,328.5 65.5,328.2 65.7,328.1 66.0,328.3 66.3,328.2 66.6,328.3 66.8,328.1 67.1,328.2 67.4,328.2 67.6,328.1 67.9,327.8 68.2,327.7 68.5,327.9 68.7,327.6 69.0,327.5 69.3,327.3 69.6,327.2 69.8,327.6 70.1,327.3 70.4,327.4 70.6,327.4 70.9,327.2 71.2,327.2 71.5,327.2 71.7,327.3 72.0,327.6 72.3,327.7 72.6,327.5 72.8,327.5 73.1,327.1 73.4,327.0 73.7,326.8 73.9,326.8 74.2,327.1 74.5,327.1 74.7,326.9 75.0,327.1 75.3,327.0 75.6,326.7 75.8,327.1 76.1,327.0 76.4,326.6 76.7,326.5 76.9,326.5 77.2,327.0 77.5,326.8 77.7,327.3 78.0,327.4 78.3,327.0 78.6,327.2 78.8,327.1 79.1,326.9 79.4,326.7 79.7,327.1 79.9,327.2 80.2,327.2 80.5,327.9 80.7,327.9 81.0,327.9 81.3,327.6 81.6,327.6 81.8,327.5 82.1,327.3 82.4,327.3 82.7,327.4 82.9,327.5 83.2,327.3 83.5,327.3 83.7,327.1 84.0,327.3 84.3,327.5 84.6,327.4 84.8,326.8 85.1,325.9 85.4,324.9 85.7,324.8 85.9,324.4 86.2,324.4 86.5,323.3 86.7,324.2 87.0,324.4 87.3,324.6 87.6,324.2 87.8,324.0 88.1,324.5 88.4,324.0 88.7,323.3 88.9,323.5 89.2,323.9 89.5,324.0 89.7,324.4 90.0,324.3 90.3,324.5 90.6,324.6 90.8,324.2 91.1,323.6 91.4,323.9 91.7,323.3 91.9,322.8 92.2,322.8 92.5,323.4 92.7,323.4 93.0,323.4 93.3,324.1 93.6,323.9 93.8,324.0 94.1,324.1 94.4,324.2 94.7,325.2 94.9,325.8 95.2,325.2 95.5,325.5 95.7,324.9 96.0,324.9 96.3,325.2 96.6,325.5 96.8,325.4 97.1,325.6 97.4,325.7 97.7,325.6 97.9,325.7 98.2,325.8 98.5,326.4 98.7,326.4 99.0,326.2 99.3,326.9 99.6,326.8 99.8,326.4 100.1,326.7 100.4,326.5 100.7,326.3 100.9,326.2 101.2,325.9 101.5,326.1 101.8,326.4 102.0,326.2 102.3,325.6 102.6,325.5 102.8,325.7 103.1,325.6 103.4,325.8 103.7,326.1 103.9,325.4 104.2,325.7 104.5,325.7 104.8,325.6 105.0,325.7 105.3,325.4 105.6,325.0 105.8,325.2 106.1,325.4 106.4,325.2 106.7,325.0 106.9,324.9 107.2,325.1 107.5,325.3 107.8,325.5 108.0,325.7 108.3,326.0 108.6,326.0 108.8,326.1 109.1,326.0 109.4,325.7 109.7,325.4 109.9,325.7 110.2,325.9 110.5,325.9 110.8,326.1 111.0,326.4 111.3,326.3 111.6,326.6 111.8,326.4 112.1,326.3 112.4,326.3 112.7,326.3 112.9,326.2 113.2,326.1 113.5,325.8 113.8,326.0 114.0,326.0 114.3,325.6 114.6,325.7 114.8,325.7 115.1,325.8 115.4,325.2 115.7,325.0 115.9,325.5 116.2,325.5 116.5,326.0 116.8,326.2 117.0,326.1 117.3,326.2 117.6,326.2 117.8,326.2 118.1,326.5 118.4,326.5 118.7,326.8 118.9,326.7 119.2,326.6 119.5,326.6 119.8,326.6 120.0,326.4 120.3,326.5 120.6,326.5 120.8,327.2 121.1,327.4 121.4,327.4 121.7,327.6 121.9,327.5 122.2,327.6 122.5,327.4 122.8,327.4 123.0,327.4 123.3,327.4 123.6,327.4 123.8,327.4 124.1,327.7 124.4,327.8 124.7,327.9 124.9,327.7 125.2,327.8 125.5,327.9 125.8,328.1 126.0,328.1 126.3,328.1 126.6,328.0 126.8,327.7 127.1,327.5 127.4,327.3 127.7,327.5 127.9,327.7 128.2,327.5 128.5,327.4 128.8,327.2 129.0,327.2 129.3,327.1 129.6,327.2 129.9,327.2 130.1,327.3 130.4,327.4 130.7,327.2 130.9,326.9 131.2,326.5 131.5,326.6 131.8,326.6 132.0,326.5 132.3,326.6 132.6,326.4 132.9,326.9 133.1,326.8 133.4,326.6 133.7,326.5 133.9,326.4 134.2,326.4 134.5,326.3 134.8,326.4 135.0,326.1 135.3,326.0 135.6,326.2 135.9,326.3 136.1,326.3 136.4,325.7 136.7,325.7 136.9,325.6 137.2,325.7 137.5,325.7 137.8,325.8 138.0,325.7 138.3,326.1 138.6,326.0 138.9,325.8 139.1,326.0 139.4,326.0 139.7,325.6 139.9,325.6 140.2,325.5 140.5,325.6 140.8,325.8 141.0,326.3 141.3,326.0 141.6,325.8 141.9,325.7 142.1,326.0 142.4,326.3 142.7,326.2 142.9,326.2 143.2,326.3 143.5,326.5 143.8,326.5 144.0,326.2 144.3,326.3 144.6,326.4 144.9,326.4 145.1,326.6 145.4,326.9 145.7,327.1 145.9,327.1 146.2,327.3 146.5,327.4 146.8,327.0 147.0,326.9 147.3,327.0 147.6,326.7 147.9,326.7 148.1,326.6 148.4,326.6 148.7,326.5 148.9,326.4 149.2,326.2 149.5,326.3 149.8,326.2 150.0,326.3 150.3,325.9 150.6,325.9 150.9,325.7 151.1,325.8 151.4,325.9 151.7,326.0 151.9,326.4 152.2,326.2 152.5,326.1 152.8,326.3 153.0,326.0 153.3,326.0 153.6,326.3 153.9,326.1 154.1,326.1 154.4,326.0 154.7,325.7 154.9,325.7 155.2,325.6 155.5,325.9 155.8,325.9 156.0,325.5 156.3,325.7 156.6,325.5 156.9,325.7 157.1,326.0 157.4,326.0 157.7,325.9 158.0,325.8 158.2,326.0 158.5,325.9 158.8,326.2 159.0,326.1 159.3,326.2 159.6,326.0 159.9,325.8 160.1,326.4 160.4,326.8 160.7,326.8 161.0,326.7 161.2,326.5 161.5,327.0 161.8,326.9 162.0,326.7 162.3,326.5 162.6,326.8 162.9,327.3 163.1,327.5 163.4,327.2 163.7,326.8 164.0,326.6 164.2,326.8 164.5,327.0 164.8,327.5 165.0,327.1 165.3,327.3 165.6,327.2 165.9,327.0 166.1,326.9 166.4,327.1 166.7,327.1 167.0,326.9 167.2,327.0 167.5,327.0 167.8,326.8 168.0,326.7 168.3,326.7 168.6,326.7 168.9,326.6 169.1,326.6 169.4,326.6 169.7,326.5 170.0,326.4 170.2,326.4 170.5,326.5 170.8,326.4 171.0,326.4 171.3,326.4 171.6,326.2 171.9,326.2 172.1,326.2 172.4,326.3 172.7,326.2 173.0,326.3 173.2,326.2 173.5,326.1 173.8,326.1 174.0,326.1 174.3,325.8 174.6,325.8 174.9,326.2 175.1,326.3 175.4,325.9 175.7,325.9 176.0,326.0 176.2,326.2 176.5,326.4 176.8,326.4 177.0,326.1 177.3,326.2 177.6,326.5 177.9,326.5 178.1,326.8 178.4,326.5 178.7,326.5 179.0,326.6 179.2,326.5 179.5,326.2 179.8,325.8 180.0,325.7 180.3,325.8 180.6,325.8 180.9,325.7 181.1,325.7 181.4,325.5 181.7,325.6 182.0,325.9 182.2,325.5 182.5,325.6 182.8,325.6 183.0,325.6 183.3,326.0 183.6,326.0 183.9,325.9 184.1,325.9 184.4,326.0 184.7,326.2 185.0,326.3 185.2,326.1 185.5,326.0 185.8,326.3 186.1,326.3 186.3,326.4 186.6,326.3 186.9,326.1 187.1,326.0 187.4,326.1 187.7,326.5 188.0,326.4 188.2,326.3 188.5,326.4 188.8,326.2 189.1,326.1 189.3,326.1 189.6,326.1 189.9,326.2 190.1,326.2 190.4,326.3 190.7,326.1 191.0,325.9 191.2,325.7 191.5,325.6 191.8,325.7 192.1,325.5 192.3,325.7 192.6,325.7 192.9,325.9 193.1,325.9 193.4,325.7 193.7,325.7 194.0,325.9 194.2,325.8 194.5,325.4 194.8,325.2 195.1,325.2 195.3,325.3 195.6,324.9 195.9,324.5 196.1,324.8 196.4,324.8 196.7,324.9 197.0,325.0 197.2,325.1 197.5,324.9 197.8,325.2 198.1,325.1 198.3,325.0 198.6,324.9 198.9,325.0 199.1,325.2 199.4,325.5 199.7,325.7 200.0,325.8 200.2,325.8 200.5,325.6 200.8,325.6 201.1,325.4 201.3,325.2 201.6,325.3 201.9,325.5 202.1,325.1 202.4,325.3 202.7,325.4 203.0,325.3 203.2,325.4 203.5,325.4 203.8,325.6 204.1,325.6 204.3,325.5 204.6,325.8 204.9,325.7 205.1,325.8 205.4,326.0 205.7,326.1 206.0,325.9 206.2,326.1 206.5,326.2 206.8,326.1 207.1,325.9 207.3,325.8 207.6,325.6 207.9,325.3 208.1,325.5 208.4,325.4 208.7,325.5 209.0,325.5 209.2,325.8 209.5,326.0 209.8,325.9 210.1,325.7 210.3,326.0 210.6,326.2 210.9,326.0 211.1,325.7 211.4,326.0 211.7,325.9 212.0,325.7 212.2,325.5 212.5,325.6 212.8,325.6 213.1,325.8 213.3,325.9 213.6,325.7 213.9,325.6 214.2,325.4 214.4,325.1 214.7,325.2 215.0,325.0 215.2,325.2 215.5,325.3 215.8,325.4 216.1,325.4 216.3,325.1 216.6,325.2 216.9,325.0 217.2,324.9 217.4,324.9 217.7,324.5 218.0,324.5 218.2,324.5 218.5,324.5 218.8,324.5 219.1,324.5 219.3,324.5 219.6,325.7 219.9,325.7 220.2,325.7 220.4,326.0 220.7,326.2 221.0,326.1 221.2,326.2 221.5,326.0 221.8,326.4 222.1,326.3 222.3,326.7 222.6,326.8 222.9,326.6 223.2,326.5 223.4,326.3 223.7,326.2 224.0,327.0 224.2,326.9 224.5,326.8 224.8,326.8 225.1,326.9 225.3,326.9 225.6,326.6 225.9,326.4 226.2,326.5 226.4,326.5 226.7,326.5 227.0,326.4 227.2,326.3 227.5,326.2 227.8,326.2 228.1,326.3 228.3,326.3 228.6,326.1 228.9,326.2 229.2,325.9 229.4,325.7 229.7,325.8 230.0,325.7 230.2,325.8 230.5,325.3 230.8,325.3 231.1,325.5 231.3,325.7 231.6,325.5 231.9,325.5 232.2,325.9 232.4,325.8 232.7,326.0 233.0,326.2 233.2,326.0 233.5,326.0 233.8,325.9 234.1,325.9 234.3,325.8 234.6,325.7 234.9,325.6 235.2,325.5 235.4,325.4 235.7,325.2 236.0,325.2 236.2,325.4 236.5,325.1 236.8,325.3 237.1,325.1 237.3,325.1 237.6,325.4 237.9,325.5 238.2,325.4 238.4,325.5 238.7,325.4 239.0,325.1 239.2,325.0 239.5,325.1 239.8,325.3 240.1,325.0 240.3,325.0 240.6,325.2 240.9,325.1 241.2,325.0 241.4,325.1 241.7,325.0 242.0,324.1 242.3,323.9 242.5,324.0 242.8,324.0 243.1,324.3 243.3,324.2 243.6,324.3 243.9,324.0 244.2,324.3 244.4,325.0 244.7,325.2 245.0,325.3 245.3,325.1 245.5,325.2 245.8,325.0 246.1,325.1 246.3,325.4 246.6,325.2 246.9,325.1 247.2,325.0 247.4,324.8 247.7,324.7 248.0,325.0 248.3,324.4 248.5,324.7 248.8,324.8 249.1,325.1 249.3,324.7 249.6,324.4 249.9,324.3 250.2,324.3 250.4,324.5 250.7,324.3 251.0,324.2 251.3,324.6 251.5,324.6 251.8,324.1 252.1,324.1 252.3,324.1 252.6,324.2 252.9,324.0 253.2,324.3 253.4,324.1 253.7,324.4 254.0,324.2 254.3,323.7 254.5,323.9 254.8,324.1 255.1,324.1 255.3,324.4 255.6,324.4 255.9,324.8 256.2,325.1 256.4,325.1 256.7,325.0 257.0,325.1 257.3,325.0 257.5,324.9 257.8,325.2 258.1,325.2 258.3,325.6 258.6,325.5 258.9,325.5 259.2,325.5 259.4,325.3 259.7,324.9 260.0,324.8 260.3,324.9 260.5,324.9 260.8,325.0 261.1,325.0 261.3,325.1 261.6,324.6 261.9,324.5 262.2,324.6 262.4,324.5 262.7,324.7 263.0,325.1 263.3,324.9 263.5,325.1 263.8,324.9 264.1,324.7 264.3,324.5 264.6,324.7 264.9,324.8 265.2,324.9 265.4,325.0 265.7,325.0 266.0,324.7 266.3,324.6 266.5,324.3 266.8,323.5 267.1,323.7 267.3,323.7 267.6,323.4 267.9,323.2 268.2,323.5 268.4,323.5 268.7,323.7 269.0,324.0 269.3,323.6 269.5,323.6 269.8,323.5 270.1,323.6 270.4,323.7 270.6,323.3 270.9,323.4 271.2,323.3 271.4,322.9 271.7,322.3 272.0,322.4 272.3,322.1 272.5,322.4 272.8,322.2 273.1,322.0 273.4,322.0 273.6,322.2 273.9,322.7 274.2,322.6 274.4,322.5 274.7,322.2 275.0,322.1 275.3,320.7 275.5,320.8 275.8,319.9 276.1,320.2 276.4,321.0 276.6,320.9 276.9,320.8 277.2,320.9 277.4,321.3 277.7,321.5 278.0,321.2 278.3,321.0 278.5,321.7 278.8,322.0 279.1,321.6 279.4,321.7 279.6,321.1 279.9,321.2 280.2,320.8 280.4,320.7 280.7,321.6 281.0,322.2 281.3,322.9 281.5,323.0 281.8,322.8 282.1,322.9 282.4,323.1 282.6,322.8 282.9,323.3 283.2,323.3 283.4,323.8 283.7,323.4 284.0,323.4 284.3,323.6 284.5,323.1 284.8,323.1 285.1,322.8 285.4,323.1 285.6,323.1 285.9,323.4 286.2,323.4 286.4,323.7 286.7,323.6 287.0,323.6 287.3,323.4 287.5,323.2 287.8,323.6 288.1,323.4 288.4,322.9 288.6,323.1 288.9,323.4 289.2,323.3 289.4,323.3 289.7,323.4 290.0,323.2 290.3,323.1 290.5,323.3 290.8,323.2 291.1,322.9 291.4,323.6 291.6,323.7 291.9,323.8 292.2,323.5 292.4,323.7 292.7,324.0 293.0,323.6 293.3,323.3 293.5,323.2 293.8,323.3 294.1,323.4 294.4,323.8 294.6,323.8 294.9,324.1 295.2,324.1 295.4,323.5 295.7,323.7 296.0,323.2 296.3,323.2 296.5,323.3 296.8,323.6 297.1,323.5 297.4,323.4 297.6,323.2 297.9,322.9 298.2,323.0 298.5,323.0 298.7,323.2 299.0,323.5 299.3,323.7 299.5,323.6 299.8,323.4 300.1,322.1 300.4,322.0 300.6,322.1 300.9,322.0 301.2,322.1 301.5,322.0 301.7,322.1 302.0,322.3 302.3,322.5 302.5,321.9 302.8,322.3 303.1,322.2 303.4,322.4 303.6,322.1 303.9,322.3 304.2,322.5 304.5,322.4 304.7,322.0 305.0,322.5 305.3,322.9 305.5,322.8 305.8,323.1 306.1,323.1 306.4,323.4 306.6,323.2 306.9,323.2 307.2,323.5 307.5,323.5 307.7,323.2 308.0,323.2 308.3,323.3 308.5,323.3 308.8,323.5 309.1,324.0 309.4,323.8 309.6,323.6 309.9,323.8 310.2,323.8 310.5,323.6 310.7,323.2 311.0,323.2 311.3,322.9 311.5,322.9 311.8,322.8 312.1,323.1 312.4,323.2 312.6,323.2 312.9,323.2 313.2,323.5 313.5,323.6 313.7,323.7 314.0,323.7 314.3,324.0 314.5,324.2 314.8,324.1 315.1,324.0 315.4,323.8 315.6,323.6 315.9,323.8 316.2,323.8 316.5,324.0 316.7,323.9 317.0,324.1 317.3,324.1 317.5,324.3 317.8,324.2 318.1,324.6 318.4,324.6 318.6,324.4 318.9,324.3 319.2,324.2 319.5,324.2 319.7,324.5 320.0,324.3 320.3,324.5 320.5,324.3 320.8,324.5 321.1,324.6 321.4,324.5 321.6,324.5 321.9,324.5 322.2,324.5 322.5,324.4 322.7,324.6 323.0,324.4 323.3,324.2 323.5,324.3 323.8,324.4 324.1,324.5 324.4,324.5 324.6,324.2 324.9,324.1 325.2,324.2 325.5,324.1 325.7,323.8 326.0,323.7 326.3,323.7 326.6,323.7 326.8,323.9 327.1,324.0 327.4,324.1 327.6,324.4 327.9,324.5 328.2,324.5 328.5,324.5 328.7,324.3 329.0,324.5 329.3,324.3 329.6,324.3 329.8,324.4 330.1,324.6 330.4,324.5 330.6,324.7 330.9,324.7 331.2,324.5 331.5,324.0 331.7,323.8 332.0,323.5 332.3,323.5 332.6,323.6 332.8,323.2 333.1,322.9 333.4,323.1 333.6,323.1 333.9,323.0 334.2,322.9 334.5,323.2 334.7,323.1 335.0,323.2 335.3,322.7 335.6,321.6 335.8,321.9 336.1,321.9 336.4,322.1 336.6,322.1 336.9,322.3 337.2,322.3 337.5,322.3 337.7,322.5 338.0,322.1 338.3,322.0 338.6,321.9 338.8,322.0 339.1,321.7 339.4,321.8 339.6,321.7 339.9,321.7 340.2,321.7 340.5,321.6 340.7,321.2 341.0,321.6 341.3,321.7 341.6,321.9 341.8,321.4 342.1,321.3 342.4,321.2 342.6,321.2 342.9,321.2 343.2,321.7 343.5,322.0 343.7,321.9 344.0,321.7 344.3,321.9 344.6,322.2 344.8,322.6 345.1,322.4 345.4,322.3 345.6,322.2 345.9,321.9 346.2,322.0 346.5,322.5 346.7,322.5 347.0,322.5 347.3,322.4 347.6,322.6 347.8,322.4 348.1,322.2 348.4,322.0 348.6,322.0 348.9,322.3 349.2,322.4 349.5,322.7 349.7,322.6 350.0,322.5 350.3,322.5 350.6,322.1 350.8,321.9 351.1,321.6 351.4,321.9 351.6,321.6 351.9,321.4 352.2,321.3 352.5,321.4 352.7,321.0 353.0,321.1 353.3,320.3 353.6,320.2 353.8,319.8 354.1,320.4 354.4,320.9 354.7,320.5 354.9,320.4 355.2,320.5 355.5,320.8 355.7,320.7 356.0,320.8 356.3,319.8 356.6,320.4 356.8,320.5 357.1,320.3 357.4,320.7 357.7,320.5 357.9,320.1 358.2,319.9 358.5,319.7 358.7,319.1 359.0,320.2 359.3,319.9 359.6,319.6 359.8,320.0 360.1,320.0 360.4,319.5 360.7,318.8 360.9,317.6 361.2,318.2 361.5,319.0 361.7,319.1 362.0,318.7 362.3,318.6 362.6,318.9 362.8,318.9 363.1,318.9 363.4,319.7 363.7,319.2 363.9,318.5 364.2,318.7 364.5,318.2 364.7,318.3 365.0,318.6 365.3,318.9 365.6,318.9 365.8,318.9 366.1,318.8 366.4,318.6 366.7,317.8 366.9,318.3 367.2,318.5 367.5,318.7 367.7,318.5 368.0,318.2 368.3,318.1 368.6,318.0 368.8,317.5 369.1,317.4 369.4,317.3 369.7,317.3 369.9,317.2 370.2,317.3 370.5,317.6 370.7,317.0 371.0,317.3 371.3,317.3 371.6,317.4 371.8,317.5 372.1,317.3 372.4,317.0 372.7,316.9 372.9,316.9 373.2,316.9 373.5,316.9 373.7,316.9 374.0,316.9 374.3,316.9 374.6,316.9 374.8,316.9 375.1,316.9 375.4,316.9 375.7,316.9 375.9,316.9 376.2,316.9 376.5,316.9 376.7,316.9 377.0,316.9 377.3,316.9 377.6,316.9 377.8,316.9 378.1,316.9 378.4,316.9 378.7,316.9 378.9,316.9 379.2,316.9 379.5,316.9 379.7,316.9 380.0,316.9 380.3,316.9 380.6,316.9 380.8,316.9 381.1,316.9 381.4,316.9 381.7,316.9 381.9,316.9 382.2,316.9 382.5,316.9 382.8,316.9 383.0,316.9 383.3,316.9 383.6,316.9 383.8,316.9 384.1,316.9 384.4,316.9 384.7,316.9 384.9,316.9 385.2,316.9 385.5,316.9 385.8,316.9 386.0,316.9 386.3,316.9 386.6,316.9 386.8,316.9 387.1,316.9 387.4,316.9 387.7,316.9 387.9,316.9 388.2,315.0 388.5,312.8 388.8,310.5 389.0,310.8 389.3,308.3 389.6,308.3 389.8,308.6 390.1,309.7 390.4,309.5 390.7,308.8 390.9,309.9 391.2,312.1 391.5,311.0 391.8,310.3 392.0,311.4 392.3,313.9 392.6,313.6 392.8,311.3 393.1,310.7 393.4,312.2 393.7,313.2 393.9,314.6 394.2,315.9 394.5,317.9 394.8,316.1 395.0,314.1 395.3,311.9 395.6,312.7 395.8,315.0 396.1,314.5 396.4,312.9 396.7,312.5 396.9,310.2 397.2,309.2 397.5,309.3 397.8,309.8 398.0,312.4 398.3,312.4 398.6,311.6 398.8,312.2 399.1,312.7 399.4,314.5 399.7,313.4 399.9,313.9 400.2,313.9 400.5,313.3 400.8,311.0 401.0,310.2 401.3,311.1 401.6,310.5 401.8,310.5 402.1,310.8 402.4,313.3 402.7,313.3 402.9,313.8 403.2,315.4 403.5,317.5 403.8,318.8 404.0,318.2 404.3,316.6 404.6,315.7 404.8,316.1 405.1,316.2 405.4,315.6 405.7,317.0 405.9,316.2 406.2,315.3 406.5,315.6 406.8,315.8 407.0,317.0 407.3,317.2 407.6,315.8 407.8,316.8 408.1,316.1 408.4,315.0 408.7,315.5 408.9,316.0 409.2,315.8 409.5,315.8 409.8,315.2 410.0,316.0 410.3,316.4 410.6,316.4 410.9,316.7 411.1,315.8 411.4,315.8 411.7,316.2 411.9,315.8 412.2,315.5 412.5,315.2 412.8,315.4 413.0,316.2 413.3,316.0 413.6,315.6 413.9,315.8 414.1,315.2 414.4,315.7 414.7,316.4 414.9,316.6 415.2,316.6 415.5,316.8 415.8,316.2 416.0,314.9 416.3,314.3 416.6,314.1 416.9,314.5 417.1,314.7 417.4,314.6 417.7,315.4 417.9,315.6 418.2,315.7 418.5,315.8 418.8,315.5 419.0,315.4 419.3,315.8 419.6,316.1 419.9,316.0 420.1,316.2 420.4,316.8 420.7,317.3 420.9,316.9 421.2,316.4 421.5,316.4 421.8,316.1 422.0,316.1 422.3,315.7 422.6,314.8 422.9,314.6 423.1,315.5 423.4,314.8 423.7,314.7 423.9,315.3 424.2,314.6 424.5,314.1 424.8,313.0 425.0,313.4 425.3,313.7 425.6,313.6 425.9,313.9 426.1,314.6 426.4,314.2 426.7,313.3 426.9,313.8 427.2,315.1 427.5,315.2 427.8,314.8 428.0,316.5 428.3,315.9 428.6,316.4 428.9,316.1 429.1,316.8 429.4,316.3 429.7,317.0 429.9,317.1 430.2,316.6 430.5,317.1 430.8,317.4 431.0,317.3 431.3,317.1 431.6,318.5 431.9,319.4 432.1,319.6 432.4,318.8 432.7,318.8 432.9,318.6 433.2,318.2 433.5,318.1 433.8,318.6 434.0,319.0 434.3,318.5 434.6,318.9 434.9,319.2 435.1,319.4 435.4,318.8 435.7,319.0 435.9,318.1 436.2,319.6 436.5,319.3 436.8,320.4 437.0,320.2 437.3,319.7 437.6,319.9 437.9,320.3 438.1,319.9 438.4,319.9 438.7,320.1 439.0,320.3 439.2,320.4 439.5,320.1 439.8,319.5 440.0,319.8 440.3,319.6 440.6,319.3 440.9,319.1 441.1,319.3 441.4,319.4 441.7,319.1 442.0,319.2 442.2,318.8 442.5,319.2 442.8,318.8 443.0,318.9 443.3,319.1 443.6,318.9 443.9,318.7 444.1,318.9 444.4,319.0 444.7,318.7 445.0,318.3 445.2,318.0 445.5,318.2 445.8,318.2 446.0,318.5 446.3,318.4 446.6,318.8 446.9,319.0 447.1,318.9 447.4,319.4 447.7,319.4 448.0,319.4 448.2,319.6 448.5,319.5 448.8,319.2 449.0,319.3 449.3,319.3 449.6,319.8 449.9,320.2 450.1,320.0 450.4,319.7 450.7,319.9 451.0,319.9 451.2,319.9 451.5,319.9 451.8,320.0 452.0,320.0 452.3,320.0 452.6,319.9 452.9,320.1 453.1,320.1 453.4,320.1 453.7,320.1 454.0,320.1 454.2,319.4 454.5,319.5 454.8,319.5 455.0,319.4 455.3,319.4 455.6,319.0 455.9,319.0 456.1,319.4 456.4,319.6 456.7,319.0 457.0,319.3 457.2,319.2 457.5,319.1 457.8,319.2 458.0,319.0 458.3,319.0 458.6,319.3 458.9,319.4 459.1,319.3 459.4,319.3 459.7,319.3 460.0,319.3 460.2,319.1 460.5,319.0 460.8,319.1 461.0,318.9 461.3,318.6 461.6,318.8 461.9,318.6 462.1,318.7 462.4,318.8 462.7,318.3 463.0,318.6 463.2,318.8 463.5,318.7 463.8,318.6 464.1,318.6 464.3,318.7 464.6,318.6 464.9,318.8 465.1,318.8 465.4,318.9 465.7,319.0 466.0,319.1 466.2,319.1 466.5,319.0 466.8,319.1 467.1,319.1 467.3,318.9 467.6,319.0 467.9,319.0 468.1,318.8 468.4,318.5 468.7,318.4 469.0,318.6 469.2,318.6 469.5,318.6 469.8,318.9 470.1,318.9 470.3,318.8 470.6,318.7 470.9,318.6 471.1,318.5 471.4,318.4 471.7,318.3 472.0,318.5 472.2,318.4 472.5,318.6 472.8,318.3 473.1,318.2 473.3,318.2 473.6,318.3 473.9,318.3 474.1,317.8 474.4,317.9 474.7,317.7 475.0,317.9 475.2,317.9 475.5,317.9 475.8,318.0 476.1,318.6 476.3,318.6 476.6,318.8 476.9,318.8 477.1,318.9 477.4,318.9 477.7,318.9 478.0,318.9 478.2,319.0 478.5,319.0 478.8,319.1 479.1,319.0 479.3,318.9 479.6,318.9 479.9,319.0 480.1,318.8 480.4,318.8 480.7,318.9 481.0,318.9 481.2,319.0 481.5,318.9 481.8,318.9 482.1,319.1 482.3,319.0 482.6,319.1 482.9,319.4 483.1,319.4 483.4,319.6 483.7,319.4 484.0,319.4 484.2,319.4 484.5,319.3 484.8,319.3 485.1,319.3 485.3,319.4 485.6,319.3 485.9,318.9 486.1,319.1 486.4,319.1 486.7,319.0 487.0,319.1 487.2,319.0 487.5,319.1 487.8,319.0 488.1,319.3 488.3,319.3 488.6,319.4 488.9,319.5 489.1,319.5 489.4,319.6 489.7,319.7 490.0,320.0 490.2,320.1 490.5,320.1 490.8,320.0 491.1,320.0 491.3,319.9 491.6,319.8 491.9,319.8 492.2,319.9 492.4,319.8 492.7,319.9 493.0,319.9 493.2,319.9 493.5,319.6 493.8,319.5 494.1,319.5 494.3,319.4 494.6,319.5 494.9,319.5 495.2,319.5 495.4,319.7 495.7,319.6 496.0,319.4 496.2,319.2 496.5,319.2 496.8,319.1 497.1,319.1 497.3,319.1 497.6,319.2 497.9,318.9 498.2,318.8 498.4,318.7 498.7,318.8 499.0,318.9 499.2,319.0 499.5,318.9 499.8,318.9 500.1,319.0 500.3,318.8 500.6,318.9 500.9,319.0 501.2,318.9 501.4,318.9 501.7,318.6 502.0,318.5 502.2,318.4 502.5,318.2 502.8,318.2 503.1,317.3 503.3,317.4 503.6,317.5 503.9,317.3 504.2,317.0 504.4,317.2 504.7,316.8 505.0,316.6 505.2,316.5 505.5,316.5 505.8,317.1 506.1,317.1 506.3,317.2 506.6,317.2 506.9,317.1 507.2,316.6 507.4,316.7 507.7,314.7 508.0,313.9 508.2,314.2 508.5,314.3 508.8,314.3 509.1,314.7 509.3,314.6 509.6,314.5 509.9,314.2 510.2,314.5 510.4,314.1 510.7,313.8 511.0,314.3 511.2,316.5 511.5,316.5 511.8,316.8 512.1,316.2 512.3,315.9 512.6,315.8 512.9,315.7 513.2,315.8 513.4,315.8 513.7,315.7 514.0,315.5 514.2,315.4 514.5,315.8 514.8,315.8 515.1,316.4 515.3,316.4 515.6,316.3 515.9,316.1 516.2,316.6 516.4,316.4 516.7,316.3 517.0,316.0 517.2,315.6 517.5,315.3 517.8,315.6 518.1,315.5 518.3,315.4 518.6,315.4 518.9,315.5 519.2,315.4 519.4,314.9 519.7,315.0 520.0,315.4 520.3,314.6 520.5,314.3 520.8,314.3 521.1,314.2 521.3,313.7 521.6,313.6 521.9,313.5 522.2,313.7 522.4,313.5 522.7,313.9 523.0,314.3 523.3,314.3 523.5,314.1 523.8,314.6 524.1,313.9 524.3,314.2 524.6,314.2 524.9,313.8 525.2,313.3 525.4,313.4 525.7,313.0 526.0,312.7 526.3,313.0 526.5,313.5 526.8,313.2 527.1,313.6 527.3,314.2 527.6,313.5 527.9,313.7 528.2,313.2 528.4,313.4 528.7,313.2 529.0,314.0 529.3,313.6 529.5,313.4 529.8,313.5 530.1,313.6 530.3,313.7 530.6,313.9 530.9,313.8 531.2,313.3 531.4,313.4 531.7,313.7 532.0,313.5 532.3,313.4 532.5,313.8 532.8,314.1 533.1,314.2 533.3,314.2 533.6,314.0 533.9,314.2 534.2,314.5 534.4,314.4 534.7,314.4 535.0,314.1 535.3,313.7 535.5,313.3 535.8,313.0 536.1,313.1 536.3,313.2 536.6,313.4 536.9,313.4 537.2,313.2 537.4,313.6 537.7,313.0 538.0,312.9 538.3,312.8 538.5,310.8 538.8,311.1 539.1,311.2 539.3,311.9 539.6,311.1 539.9,311.1 540.2,311.2 540.4,310.8 540.7,309.7 541.0,309.5 541.3,309.7 541.5,310.3 541.8,309.6 542.1,309.9 542.3,310.3 542.6,310.3 542.9,309.3 543.2,309.6 543.4,309.7 543.7,309.3 544.0,309.1 544.3,308.7 544.5,307.8 544.8,307.9 545.1,307.8 545.3,308.1 545.6,308.1 545.9,307.8 546.2,307.2 546.4,307.6 546.7,307.5 547.0,307.3 547.3,306.8 547.5,306.2 547.8,305.4 548.1,305.1 548.4,304.0 548.6,304.8 548.9,304.8 549.2,305.1 549.4,303.5 549.7,304.0 550.0,303.3 550.3,303.0 550.5,302.1 550.8,300.3 551.1,302.2 551.4,303.4 551.6,302.7 551.9,303.2 552.2,303.2 552.4,300.8 552.7,302.8 553.0,303.8 553.3,304.3 553.5,306.2 553.8,305.8 554.1,304.6 554.4,303.8 554.6,303.8 554.9,304.4 555.2,304.4 555.4,304.2 555.7,305.1 556.0,303.0 556.3,301.7 556.5,301.6 556.8,301.7 557.1,302.6 557.4,303.4 557.6,303.3 557.9,302.4 558.2,302.3 558.4,301.9 558.7,302.3 559.0,302.3 559.3,303.0 559.5,304.1 559.8,302.9 560.1,302.5 560.4,302.7 560.6,300.7 560.9,300.8 561.2,301.1 561.4,300.1 561.7,299.9 562.0,300.1 562.3,300.5 562.5,300.5 562.8,299.1 563.1,297.8 563.4,298.7 563.6,298.6 563.9,298.8 564.2,298.0 564.4,298.1 564.7,297.8 565.0,298.3 565.3,298.1 565.5,298.3 565.8,298.1 566.1,296.3 566.4,296.8 566.6,294.4 566.9,295.9 567.2,298.8 567.4,299.6 567.7,298.6 568.0,299.8 568.3,298.5 568.5,297.2 568.8,295.9 569.1,294.6 569.4,294.2 569.6,294.9 569.9,295.2 570.2,295.5 570.4,294.2 570.7,294.8 571.0,294.6 571.3,293.4 571.5,293.1 571.8,291.7 572.1,291.7 572.4,292.4 572.6,292.4 572.9,291.7 573.2,292.0 573.4,293.1 573.7,292.4 574.0,293.0 574.3,291.7 574.5,291.9 574.8,291.9 575.1,293.7 575.4,293.0 575.6,292.1 575.9,294.5 576.2,295.1 576.5,293.6 576.7,294.1 577.0,295.0 577.3,294.9 577.5,294.4 577.8,294.8 578.1,293.7 578.4,292.6 578.6,292.4 578.9,296.4 579.2,296.4 579.5,294.5 579.7,294.6 580.0,294.8 580.3,294.5 580.5,294.3 580.8,295.2 581.1,295.7 581.4,292.4 581.6,290.9 581.9,291.1 582.2,290.7 582.5,290.4 582.7,289.6 583.0,288.3 583.3,288.8 583.5,287.7 583.8,287.3 584.1,288.0 584.4,288.8 584.6,288.3 584.9,287.8 585.2,287.6 585.5,288.1 585.7,287.7 586.0,287.8 586.3,288.2 586.5,286.4 586.8,286.7 587.1,283.6 587.4,283.8 587.6,283.9 587.9,283.5 588.2,284.3 588.5,284.5 588.7,284.8 589.0,286.7 589.3,285.0 589.5,284.3 589.8,284.3 590.1,284.6 590.4,285.4 590.6,285.4 590.9,283.6 591.2,283.8 591.5,281.9 591.7,283.8 592.0,286.9 592.3,286.4 592.5,285.8 592.8,285.8 593.1,288.2 593.4,287.4 593.6,286.6 593.9,287.6 594.2,286.2 594.5,284.6 594.7,284.4 595.0,283.2 595.3,280.6 595.5,279.6 595.8,280.4 596.1,279.2 596.4,279.4 596.6,278.7 596.9,281.3 597.2,281.2 597.5,278.1 597.7,279.0 598.0,279.8 598.3,280.3 598.5,281.2 598.8,280.5 599.1,282.6 599.4,285.5 599.6,287.8 599.9,287.8 600.2,288.8 600.5,287.3 600.7,286.7 601.0,286.3 601.3,286.8 601.5,288.6 601.8,289.8 602.1,291.5 602.4,291.2 602.6,288.1 602.9,289.1 603.2,288.9 603.5,289.5 603.7,285.3 604.0,285.7 604.3,286.0 604.6,285.5 604.8,286.6 605.1,287.4 605.4,287.7 605.6,289.3 605.9,290.1 606.2,287.7 606.5,289.2 606.7,288.1 607.0,289.3 607.3,288.6 607.6,287.8 607.8,287.5 608.1,286.8 608.4,285.9 608.6,286.2 608.9,283.4 609.2,283.5 609.5,283.0 609.7,284.0 610.0,283.0 610.3,286.3 610.6,286.4 610.8,286.9 611.1,288.8 611.4,286.7 611.6,286.5 611.9,287.7 612.2,292.6 612.5,295.5 612.7,294.5 613.0,290.9 613.3,291.6 613.6,292.8 613.8,292.0 614.1,294.5 614.4,298.5 614.6,297.2 614.9,294.2 615.2,294.7 615.5,290.6 615.7,291.2 616.0,292.3 616.3,292.0 616.6,291.7 616.8,291.8 617.1,292.7 617.4,293.1 617.6,293.9 617.9,293.4 618.2,293.0 618.5,292.8 618.7,293.7 619.0,292.8 619.3,293.4 619.6,293.5 619.8,293.9 620.1,294.3 620.4,292.4 620.6,293.3 620.9,293.0 621.2,291.8 621.5,290.2 621.7,289.8 622.0,290.6 622.3,290.4 622.6,290.1 622.8,289.5 623.1,288.2 623.4,287.3 623.6,288.7 623.9,288.6 624.2,289.2 624.5,289.9 624.7,290.1 625.0,290.6 625.3,289.8 625.6,289.8 625.8,290.5 626.1,290.1 626.4,289.1 626.6,289.4 626.9,291.6 627.2,291.5 627.5,290.7 627.7,289.5 628.0,288.5 628.3,289.1 628.6,288.7 628.8,290.3 629.1,288.6 629.4,288.3 629.6,288.6 629.9,289.7 630.2,289.3 630.5,290.1 630.7,289.9 631.0,292.3 631.3,292.0 631.6,293.1 631.8,292.4 632.1,293.6 632.4,293.5 632.7,293.5 632.9,290.7 633.2,290.6 633.5,289.2 633.7,287.8 634.0,289.5 634.3,288.2 634.6,288.0 634.8,287.3 635.1,287.2 635.4,286.9 635.7,285.5 635.9,287.4 636.2,286.8 636.5,286.2 636.7,285.7 637.0,286.3 637.3,287.3 637.6,287.9 637.8,288.0 638.1,289.6 638.4,288.4 638.7,289.1 638.9,289.3 639.2,289.1 639.5,288.5 639.7,287.0 640.0,287.0 640.3,286.3 640.6,286.2 640.8,285.9 641.1,287.2 641.4,286.4 641.7,284.9 641.9,283.1 642.2,281.3 642.5,281.4 642.7,281.1 643.0,280.1 643.3,279.6 643.6,279.8 643.8,278.9 644.1,279.5 644.4,279.6 644.7,280.3 644.9,279.1 645.2,277.8 645.5,276.6 645.7,275.0 646.0,274.7 646.3,275.2 646.6,275.6 646.8,274.5 647.1,274.1 647.4,275.7 647.7,273.6 647.9,275.6 648.2,276.7 648.5,276.4 648.7,278.7 649.0,278.6 649.3,275.8 649.6,275.9 649.8,277.4 650.1,275.3 650.4,274.4 650.7,275.8 650.9,276.7 651.2,276.5 651.5,276.0 651.7,277.2 652.0,277.3 652.3,276.9 652.6,275.2 652.8,276.2 653.1,276.9 653.4,275.6 653.7,276.2 653.9,277.0 654.2,277.9 654.5,278.3 654.7,276.8 655.0,274.6 655.3,274.3 655.6,274.8 655.8,274.0 656.1,272.6 656.4,273.6 656.7,271.5 656.9,269.2 657.2,269.7 657.5,268.9 657.7,269.6 658.0,269.3 658.3,268.0 658.6,266.4 658.8,265.2 659.1,264.4 659.4,266.8 659.7,270.6 659.9,268.1 660.2,269.3 660.5,269.2 660.8,266.9 661.0,268.4 661.3,267.1 661.6,267.0 661.8,268.3 662.1,269.5 662.4,269.1 662.7,268.6 662.9,266.9 663.2,268.4 663.5,268.5 663.8,266.8 664.0,265.6 664.3,264.9 664.6,265.4 664.8,264.9 665.1,265.7 665.4,265.0 665.7,268.6 665.9,268.6 666.2,268.3 666.5,267.3 666.8,267.4 667.0,267.2 667.3,267.8 667.6,266.4 667.8,267.3 668.1,264.8 668.4,264.6 668.7,264.4 668.9,264.7 669.2,261.9 669.5,261.2 669.8,261.5 670.0,260.9 670.3,261.5 670.6,261.5 670.8,261.0 671.1,261.9 671.4,261.7 671.7,263.6 671.9,262.9 672.2,262.0 672.5,262.3 672.8,263.0 673.0,264.5 673.3,263.4 673.6,263.2 673.8,263.7 674.1,262.3 674.4,260.9 674.7,262.7 674.9,263.1 675.2,262.3 675.5,262.0 675.8,262.6 676.0,263.0 676.3,262.9 676.6,259.7 676.8,262.8 677.1,261.2 677.4,261.5 677.7,261.7 677.9,261.2 678.2,260.8 678.5,260.4 678.8,261.2 679.0,261.6 679.3,261.9 679.6,263.7 679.8,266.4 680.1,265.0 680.4,264.1 680.7,263.8 680.9,265.2 681.2,265.1 681.5,264.7 681.8,263.0 682.0,263.1 682.3,263.4 682.6,264.8 682.8,264.9 683.1,267.1 683.4,267.7 683.7,269.0 683.9,269.5 684.2,269.7 684.5,268.0 684.8,267.7 685.0,268.1 685.3,268.3 685.6,269.5 685.8,270.8 686.1,269.7 686.4,270.0 686.7,270.8 686.9,270.2 687.2,270.5 687.5,270.1 687.8,269.4 688.0,268.3 688.3,267.5 688.6,269.0 688.9,266.5 689.1,266.4 689.4,266.3 689.7,265.2 689.9,268.4 690.2,268.8 690.5,269.2 690.8,268.9 691.0,267.1 691.3,267.8 691.6,267.5 691.9,267.6 692.1,266.8 692.4,266.8 692.7,266.1 692.9,266.2 693.2,265.3 693.5,264.6 693.8,265.3 694.0,264.6 694.3,264.3 694.6,262.2 694.9,261.9 695.1,264.5 695.4,266.2 695.7,265.8 695.9,265.0 696.2,265.4 696.5,267.8 696.8,270.2 697.0,269.6 697.3,271.6 697.6,278.1 697.9,277.1 698.1,274.9 698.4,272.6 698.7,273.0 698.9,274.0 699.2,273.1 699.5,272.9 699.8,273.8 700.0,272.4 700.3,272.2 700.6,273.0 700.9,270.6 701.1,268.6 701.4,269.2 701.7,270.9 701.9,271.7 702.2,273.0 702.5,272.8 702.8,274.4 703.0,274.5 703.3,273.8 703.6,273.9 703.9,270.0 704.1,270.6 704.4,273.9 704.7,272.0 704.9,271.1 705.2,273.9 705.5,270.4 705.8,274.9 706.0,275.4 706.3,276.8 706.6,279.5 706.9,276.6 707.1,279.4 707.4,278.5 707.7,277.3 707.9,278.8 708.2,279.1 708.5,282.7 708.8,283.3 709.0,282.2 709.3,279.6 709.6,279.0 709.9,276.7 710.1,276.6 710.4,275.2 710.7,275.3 710.9,274.4 711.2,273.7 711.5,275.9 711.8,275.5 712.0,272.2 712.3,271.0 712.6,271.4 712.9,268.5 713.1,268.0 713.4,267.1 713.7,268.2 713.9,265.6 714.2,265.1 714.5,264.3 714.8,265.1 715.0,264.4 715.3,263.2 715.6,266.2 715.9,265.0 716.1,265.3 716.4,266.2 716.7,267.2 717.0,267.3 717.2,265.8 717.5,267.2 717.8,267.1 718.0,268.3 718.3,266.3 718.6,260.6 718.9,260.1 719.1,261.4 719.4,256.5 719.7,255.8 720.0,257.6 720.2,255.8 720.5,257.5 720.8,252.4 721.0,252.6 721.3,249.6 721.6,252.5 721.9,250.4 722.1,241.9 722.4,241.7 722.7,236.6 723.0,237.9 723.2,234.6 723.5,233.2 723.8,236.8 724.0,236.6 724.3,236.0 724.6,226.0 724.9,215.0 725.1,204.6 725.4,205.5 725.7,192.4 726.0,178.0 726.2,184.8 726.5,182.1 726.8,183.7 727.0,176.1 727.3,183.0 727.6,186.7 727.9,186.3 728.1,201.1 728.4,187.6 728.7,181.4 729.0,180.8 729.2,173.0 729.5,156.7 729.8,174.7 730.0,178.5 730.3,173.0 730.6,167.2 730.9,159.9 731.1,144.3 731.4,147.9 731.7,159.7 732.0,159.4 732.2,163.8 732.5,161.8 732.8,167.4 733.0,167.0 733.3,173.0 733.6,174.7 733.9,172.5 734.1,172.6 734.4,169.6 734.7,178.3 735.0,183.0 735.2,178.7 735.5,175.5 735.8,170.1 736.0,175.5 736.3,175.1 736.6,162.2 736.9,171.9 737.1,165.0 737.4,160.1 737.7,159.1 738.0,162.6 738.2,170.9 738.5,174.9 738.8,180.5 739.0,173.8 739.3,172.6 739.6,167.0 739.9,160.4 740.1,164.6 740.4,168.7 740.7,165.6 741.0,171.1 741.2,173.0 741.5,164.4 741.8,167.9 742.0,163.1 742.3,158.6 742.6,159.1 742.9,160.1 743.1,175.0 743.4,168.8 743.7,167.1 744.0,171.0 744.2,176.0 744.5,175.5 744.8,178.2 745.1,178.2 745.3,181.7 745.6,181.4 745.9,183.7 746.1,189.6 746.4,190.2 746.7,179.5 747.0,177.9 747.2,178.7 747.5,182.7 747.8,180.0 748.1,176.3 748.3,178.2 748.6,181.2 748.9,178.6 749.1,189.9 749.4,190.4 749.7,181.3 750.0,184.2 750.2,188.9 750.5,193.2 750.8,197.8 751.1,191.4 751.3,190.1 751.6,187.8 751.9,183.5 752.1,186.9 752.4,185.2 752.7,183.6 753.0,183.6 753.2,181.4 753.5,181.8 753.8,182.3 754.1,181.1 754.3,172.1 754.6,171.9 754.9,176.4 755.1,172.1 755.4,173.5 755.7,167.5 756.0,163.7 756.2,162.2 756.5,158.1 756.8,164.6 757.1,155.3 757.3,149.1 757.6,141.3 757.9,137.1 758.1,131.7 758.4,132.8 758.7,134.7 759.0,128.4 759.2,113.2 759.5,105.5 759.8,104.8 760.1,108.8 760.3,90.7 760.6,106.4 760.9,100.6 761.1,84.3 761.4,99.3 761.7,114.7 762.0,115.1 762.2,119.7 762.5,124.5 762.8,120.7 763.1,121.4 763.3,112.8 763.6,93.0 763.9,100.9 764.1,101.7 764.4,109.6 764.7,104.1 765.0,94.6 765.2,74.9 765.5,67.0 765.8,76.5 766.1,62.3 766.3,53.6 766.6,52.2 766.9,30.0 767.1,36.3 767.4,42.6 767.7,68.6 768.0,73.5 768.2,87.8 768.5,84.3 768.8,93.1 769.1,80.0 769.3,86.6 769.6,80.0 769.9,91.7 770.1,94.7 770.4,115.9 770.7,113.3 771.0,99.6 771.2,97.9 771.5,91.9 771.8,101.1 772.1,102.0 772.3,93.0 772.6,89.3 772.9,94.2 773.2,90.1 773.4,99.3 773.7,103.2 774.0,100.1 774.2,88.7 774.5,86.8 774.8,85.2 775.1,94.5 775.3,82.0 775.6,72.9 775.9,85.8 776.2,89.9 776.4,89.6 776.7,98.1 777.0,103.0 777.2,126.3 777.5,108.6 777.8,112.7 778.1,110.5 778.3,103.7 778.6,104.9 778.9,100.4 779.2,102.5 779.4,99.9 779.7,100.6 780.0,93.8 780.2,91.4 780.5,91.2 780.8,89.9 781.1,102.7 781.3,108.8 781.6,100.2 781.9,100.1 782.2,97.0 782.4,103.3 782.7,91.8 783.0,84.0 783.2,85.1 783.5,78.4 783.8,79.6 784.1,85.1 784.3,83.3 784.6,68.3 784.9,67.8 785.2,64.2 785.4,64.4 785.7,72.1 786.0,72.4 786.2,79.4 786.5,78.9 786.8,83.9 787.1,85.9 787.3,85.6 787.6,89.2 787.9,88.7 788.2,90.7 788.4,101.2 788.7,107.5 789.0,110.4 789.2,109.2 789.5,113.6 789.8,109.2 790.1,100.9 790.3,103.1 790.6,101.1 790.9,92.3 791.2,97.1 791.4,98.4 791.7,98.5 792.0,113.5 792.2,114.4 792.5,113.1 792.8,118.3 793.1,122.7 793.3,126.1 793.6,109.8 793.9,107.4 794.2,112.5 794.4,110.4 794.7,118.3 795.0,106.2 795.2,103.7 795.5,110.6 795.8,112.8 796.1,116.2 796.3,127.8 796.6,134.9 796.9,137.4 797.2,131.7 797.4,145.2 797.7,146.5 798.0,135.0 798.2,134.1 798.5,134.1 798.8,136.5 799.1,129.9 799.3,124.4 799.6,131.0 799.9,135.7 800.2,132.0 800.4,127.9 800.7,142.1 801.0,149.4 801.3,149.1 801.5,155.3 801.8,152.3 802.1,145.9 802.3,140.5 802.6,141.9 802.9,145.8 803.2,146.4 803.4,155.3 803.7,148.9 804.0,155.5 804.3,148.9 804.5,143.6 804.8,138.4 805.1,138.6 805.3,142.0 805.6,134.1 805.9,137.1 806.2,140.6 806.4,150.0 806.7,144.9 807.0,138.5 807.3,147.5 807.5,150.3 807.8,140.5 808.1,132.8 808.3,134.9 808.6,137.1 808.9,130.2 809.2,122.0 809.4,127.4 809.7,124.5 810.0,115.8 810.3,119.8 810.5,122.6 810.8,130.3 811.1,130.9 811.3,130.6 811.6,132.5 811.9,123.0 812.2,126.6 812.4,126.2 812.7,131.8 813.0,126.6 813.3,123.5 813.5,144.7 813.8,159.6 814.1,155.3 814.3,151.0 814.6,153.3 814.9,154.4 815.2,155.8 815.4,156.2 815.7,154.9 816.0,159.0 816.3,154.0 816.5,150.8 816.8,153.6 817.1,158.6 817.3,157.7 817.6,159.0 817.9,161.5 818.2,161.1 818.4,168.3 818.7,168.7 819.0,175.1 819.3,173.4 819.5,175.4 819.8,176.2 820.1,174.5 820.3,168.2 820.6,167.4 820.9,165.4 821.2,155.2 821.4,154.2 821.7,154.6 822.0,155.5 822.3,159.2 822.5,157.9 822.8,164.0 823.1,167.8 823.3,165.8 823.6,168.2 823.9,169.5 824.2,163.5 824.4,161.8 824.7,159.7 825.0,165.0 825.3,163.8 825.5,162.3 825.8,166.6 826.1,166.4 826.3,169.7 826.6,171.5 826.9,172.1 827.2,176.7 827.4,168.2 827.7,172.1 828.0,177.3 828.3,185.3 828.5,185.0 828.8,186.7 829.1,182.5 829.4,177.2 829.6,171.9 829.9,172.4 830.2,171.9 830.4,174.8 830.7,172.5 831.0,169.1 831.3,169.5 831.5,167.7 831.8,158.7 832.1,157.5 832.4,155.9 832.6,159.6 832.9,158.5 833.2,161.4 833.4,160.8 833.7,165.4 834.0,169.1 834.3,169.1 834.5,174.5 834.8,169.7 835.1,175.7 835.4,171.2 835.6,175.7 835.9,179.1 836.2,176.5 836.4,187.0 836.7,186.0 837.0,187.3 837.3,188.2 837.5,188.3 837.8,200.7 838.1,209.4 838.4,201.4 838.6,197.1 838.9,196.3 839.2,199.1 839.4,201.3 839.7,202.2 840.0,204.1 840.3,207.1 840.5,209.8 840.8,212.5 841.1,203.7 841.4,205.9 841.6,198.1 841.9,206.1 842.2,205.4 842.4,205.8 842.7,212.4 843.0,200.1 843.3,199.9 843.5,192.3 843.8,191.8 844.1,192.8 844.4,194.6 844.6,191.7 844.9,197.4 845.2,195.9 845.4,198.7 845.7,193.5 846.0,190.4 846.3,192.3 846.5,192.0 846.8,193.7 847.1,206.4 847.4,209.4 847.6,204.7 847.9,196.2 848.2,199.9 848.4,199.1 848.7,198.0 849.0,197.6 849.3,201.2 849.5,203.2 849.8,196.9 850.1,204.0 850.4,205.9 850.6,204.9 850.9,207.0 851.2,205.4 851.4,199.9 851.7,196.1 852.0,196.8 852.3,197.2 852.5,192.8 852.8,189.7 853.1,184.4 853.4,188.1 853.6,187.4 853.9,194.9 854.2,192.7 854.4,192.0 854.7,191.9 855.0,185.3 855.3,180.1 855.5,179.7 855.8,183.8 856.1,178.1 856.4,176.8 856.6,166.3 856.9,159.6 857.2,162.6 857.5,151.6 857.7,157.8 858.0,157.0 858.3,161.1 858.5,170.2 858.8,170.2 859.1,168.2 859.4,171.9 859.6,174.9 859.9,173.3 860.2,170.2 860.5,173.1 860.7,171.3 861.0,169.4 861.3,164.6 861.5,169.4 861.8,164.9 862.1,160.9 862.4,161.4 862.6,164.7 862.9,160.6 863.2,168.7 863.5,167.2 863.7,171.6 864.0,176.5 864.3,176.2 864.5,177.4 864.8,184.9 865.1,178.6 865.4,179.7 865.6,175.6 865.9,180.0 866.2,180.7 866.5,184.4 866.7,182.0 867.0,185.6 867.3,186.1 867.5,182.0 867.8,182.1 868.1,184.7 868.4,182.3 868.6,182.6 868.9,182.7 869.2,184.2 869.5,180.1 869.7,187.1 870.0,192.3"/>
</svg>
