<svg xmlns="http://www.w3.org/2000/svg" width="900" height="360">
<rect width="100%" height="100%" fill="white"/>
<text x="45" y="20" font-size="16">中国平安 收益率直方图</text>
<line class="axis-x" x1="45" y1="315" x2="855" y2="315" stroke="black" stroke-width="1"/>
<line class="axis-y" x1="45" y1="45" x2="45" y2="315" stroke="black" stroke-width="1"/>
<text x="450.0" y="355" font-size="12" text-anchor="middle">收益率</text>
<text x="14" y="180.0" font-size="12" text-anchor="middle" transform="rotate(-90 14 180.0)">频数</text>
<line x1="45.0" y1="315" x2="45.0" y2="320" stroke="black" stroke-width="1"/>
<text x="45.0" y="333" font-size="10" text-anchor="middle">-0.105</text>
<line x1="450.0" y1="315" x2="450.0" y2="320" stroke="black" stroke-width="1"/>
<text x="450.0" y="333" font-size="10" text-anchor="middle">-0.005</text>
<line x1="855.0" y1="315" x2="855.0" y2="320" stroke="black" stroke-width="1"/>
<text x="855.0" y="333" font-size="10" text-anchor="middle">0.095</text>
<line x1="40" y1="315.0" x2="45" y2="315.0" stroke="black" stroke-width="1"/>
<text x="37" y="318.0" font-size="10" text-anchor="end">0</text>
<line x1="40" y1="180.0" x2="45" y2="180.0" stroke="black" stroke-width="1"/>
<text x="37" y="183.0" font-size="10" text-anchor="end">319</text>
<line x1="40" y1="45.0" x2="45" y2="45.0" stroke="black" stroke-width="1"/>
<text x="37" y="48.0" font-size="10" text-anchor="end">638</text>
<rect x="45.0" y="313.3" width="26.0" height="1.7" fill="#9ecae1"/><rect x="72.0" y="314.6" width="26.0" height="0.4" fill="#9ecae1"/><rect x="99.0" y="314.2" width="26.0" height="0.8" fill="#9ecae1"/><rect x="126.0" y="315.0" width="26.0" height="0.0" fill="#9ecae1"/><rect x="153.0" y="313.7" width="26.0" height="1.3" fill="#9ecae1"/><rect x="180.0" y="312.9" width="26.0" height="2.1" fill="#9ecae1"/><rect x="207.0" y="313.3" width="26.0" height="1.7" fill="#9ecae1"/><rect x="234.0" y="311.2" width="26.0" height="3.8" fill="#9ecae1"/><rect x="261.0" y="308.7" width="26.0" height="6.3" fill="#9ecae1"/><rect x="288.0" y="303.2" width="26.0" height="11.8" fill="#9ecae1"/><rect x="315.0" y="290.5" width="26.0" height="24.5" fill="#9ecae1"/><rect x="342.0" y="276.1" width="26.0" height="38.9" fill="#9ecae1"/><rect x="369.0" y="242.6" width="26.0" height="72.4" fill="#9ecae1"/><rect x="396.0" y="197.4" width="26.0" height="117.6" fill="#9ecae1"/><rect x="423.0" y="128.4" width="26.0" height="186.6" fill="#9ecae1"/><rect x="450.0" y="45.0" width="26.0" height="270.0" fill="#9ecae1"/><rect x="477.0" y="103.0" width="26.0" height="212.0" fill="#9ecae1"/><rect x="504.0" y="183.8" width="26.0" height="131.2" fill="#9ecae1"/><rect x="531.0" y="235.9" width="26.0" height="79.1" fill="#9ecae1"/><rect x="558.0" y="267.6" width="26.0" height="47.4" fill="#9ecae1"/><rect x="585.0" y="276.5" width="26.0" height="38.5" fill="#9ecae1"/><rect x="612.0" y="290.9" width="26.0" height="24.1" fill="#9ecae1"/><rect x="639.0" y="306.1" width="26.0" height="8.9" fill="#9ecae1"/><rect x="666.0" y="306.1" width="26.0" height="8.9" fill="#9ecae1"/><rect x="693.0" y="310.8" width="26.0" height="4.2" fill="#9ecae1"/><rect x="720.0" y="312.0" width="26.0" height="3.0" fill="#9ecae1"/><rect x="747.0" y="313.3" width="26.0" height="1.7" fill="#9ecae1"/><rect x="774.0" y="314.2" width="26.0" height="0.8" fill="#9ecae1"/><rect x="801.0" y="313.7" width="26.0" height="1.3" fill="#9ecae1"/><rect x="828.0" y="313.3" width="26.0" height="1.7" fill="#9ecae1"/>
<polyline fill="none" stroke="#d62728" stroke-width="2" points="45.0,315.0 51.8,315.0 58.6,315.0 65.4,315.0 72.2,315.0 79.0,315.0 85.8,315.0 92.6,315.0 99.5,315.0 106.3,315.0 113.1,315.0 119.9,315.0 126.7,315.0 133.5,315.0 140.3,315.0 147.1,314.9 153.9,314.9 160.7,314.9 167.5,314.8 174.3,314.8 181.1,314.7 187.9,314.6 194.7,314.5 201.6,314.3 208.4,314.0 215.2,313.7 222.0,313.2 228.8,312.7 235.6,312.0 242.4,311.1 249.2,310.0 256.0,308.7 262.8,307.0 269.6,305.0 276.4,302.5 283.2,299.6 290.0,296.1 296.8,292.0 303.7,287.2 310.5,281.7 317.3,275.4 324.1,268.2 330.9,260.2 337.7,251.2 344.5,241.4 351.3,230.6 358.1,219.1 364.9,206.7 371.7,193.7 378.5,180.1 385.3,166.2 392.1,152.0 398.9,137.8 405.8,123.8 412.6,110.3 419.4,97.5 426.2,85.6 433.0,74.8 439.8,65.4 446.6,57.6 453.4,51.6 460.2,47.4 467.0,45.2 473.8,45.0 480.6,46.8 487.4,50.7 494.2,56.4 501.1,63.9 507.9,73.0 514.7,83.5 521.5,95.3 528.3,107.9 535.1,121.4 541.9,135.3 548.7,149.4 555.5,163.6 562.3,177.7 569.1,191.3 575.9,204.4 582.7,216.9 589.5,228.6 596.3,239.5 603.2,249.5 610.0,258.6 616.8,266.8 623.6,274.2 630.4,280.6 637.2,286.3 644.0,291.2 650.8,295.4 657.6,299.0 664.4,302.0 671.2,304.6 678.0,306.7 684.8,308.4 691.6,309.8 698.4,310.9 705.3,311.9 712.1,312.6 718.9,313.2 725.7,313.6 732.5,314.0 739.3,314.2 746.1,314.4 752.9,314.6 759.7,314.7 766.5,314.8 773.3,314.8 780.1,314.9 786.9,314.9 793.7,314.9 800.5,315.0 807.4,315.0 814.2,315.0 821.0,315.0 827.8,315.0 834.6,315.0 841.4,315.0 848.2,315.0 855.0,315.0"/>
</svg>
