<svg xmlns="http://www.w3.org/2000/svg" width="900" height="360">
<rect width="100%" height="100%" fill="white"/>
<text x="30" y="20" font-size="16">中国平安 收益率直方图</text>
<rect x="30.0" y="328.1" width="27.0" height="1.9" fill="#9ecae1"/><rect x="58.0" y="329.5" width="27.0" height="0.5" fill="#9ecae1"/><rect x="86.0" y="329.1" width="27.0" height="0.9" fill="#9ecae1"/><rect x="114.0" y="330.0" width="27.0" height="0.0" fill="#9ecae1"/><rect x="142.0" y="328.6" width="27.0" height="1.4" fill="#9ecae1"/><rect x="170.0" y="327.6" width="27.0" height="2.4" fill="#9ecae1"/><rect x="198.0" y="328.1" width="27.0" height="1.9" fill="#9ecae1"/><rect x="226.0" y="325.8" width="27.0" height="4.2" fill="#9ecae1"/><rect x="254.0" y="322.9" width="27.0" height="7.1" fill="#9ecae1"/><rect x="282.0" y="316.8" width="27.0" height="13.2" fill="#9ecae1"/><rect x="310.0" y="302.7" width="27.0" height="27.3" fill="#9ecae1"/><rect x="338.0" y="286.7" width="27.0" height="43.3" fill="#9ecae1"/><rect x="366.0" y="249.6" width="27.0" height="80.4" fill="#9ecae1"/><rect x="394.0" y="199.3" width="27.0" height="130.7" fill="#9ecae1"/><rect x="422.0" y="122.6" width="27.0" height="207.4" fill="#9ecae1"/><rect x="450.0" y="30.0" width="27.0" height="300.0" fill="#9ecae1"/><rect x="478.0" y="94.4" width="27.0" height="235.6" fill="#9ecae1"/><rect x="506.0" y="184.2" width="27.0" height="145.8" fill="#9ecae1"/><rect x="534.0" y="242.1" width="27.0" height="87.9" fill="#9ecae1"/><rect x="562.0" y="277.3" width="27.0" height="52.7" fill="#9ecae1"/><rect x="590.0" y="287.2" width="27.0" height="42.8" fill="#9ecae1"/><rect x="618.0" y="303.2" width="27.0" height="26.8" fill="#9ecae1"/><rect x="646.0" y="320.1" width="27.0" height="9.9" fill="#9ecae1"/><rect x="674.0" y="320.1" width="27.0" height="9.9" fill="#9ecae1"/><rect x="702.0" y="325.3" width="27.0" height="4.7" fill="#9ecae1"/><rect x="730.0" y="326.7" width="27.0" height="3.3" fill="#9ecae1"/><rect x="758.0" y="328.1" width="27.0" height="1.9" fill="#9ecae1"/><rect x="786.0" y="329.1" width="27.0" height="0.9" fill="#9ecae1"/><rect x="814.0" y="328.6" width="27.0" height="1.4" fill="#9ecae1"/><rect x="842.0" y="328.1" width="27.0" height="1.9" fill="#9ecae1"/>
<polyline fill="none" stroke="#d62728" stroke-width="2" points="30.0,330.0 37.1,330.0 44.1,330.0 51.2,330.0 58.2,330.0 65.3,330.0 72.4,330.0 79.4,330.0 86.5,330.0 93.5,330.0 100.6,330.0 107.6,330.0 114.7,330.0 121.8,330.0 128.8,330.0 135.9,329.9 142.9,329.9 150.0,329.9 157.1,329.8 164.1,329.8 171.2,329.7 178.2,329.6 185.3,329.4 192.4,329.2 199.4,328.9 206.5,328.5 213.5,328.1 220.6,327.4 227.6,326.7 234.7,325.7 241.8,324.5 248.8,323.0 255.9,321.1 262.9,318.9 270.0,316.1 277.1,312.9 284.1,309.0 291.2,304.4 298.2,299.1 305.3,293.0 312.4,286.0 319.4,278.0 326.5,269.1 333.5,259.1 340.6,248.2 347.6,236.3 354.7,223.4 361.8,209.7 368.8,195.2 375.9,180.2 382.9,164.6 390.0,148.9 397.1,133.1 404.1,117.6 411.2,102.6 418.2,88.3 425.3,75.1 432.4,63.1 439.4,52.7 446.5,44.0 453.5,37.3 460.6,32.7 467.6,30.2 474.7,30.0 481.8,32.0 488.8,36.3 495.9,42.7 502.9,51.0 510.0,61.1 517.1,72.8 524.1,85.8 531.2,99.9 538.2,114.9 545.3,130.3 552.4,146.1 559.4,161.8 566.5,177.4 573.5,192.6 580.6,207.1 587.6,221.0 594.7,234.0 601.8,246.1 608.8,257.2 615.9,267.4 622.9,276.5 630.0,284.6 637.1,291.8 644.1,298.1 651.2,303.5 658.2,308.2 665.3,312.2 672.4,315.6 679.4,318.4 686.5,320.7 693.5,322.7 700.6,324.2 707.6,325.5 714.7,326.5 721.8,327.3 728.8,328.0 735.9,328.4 742.9,328.8 750.0,329.1 757.1,329.4 764.1,329.5 771.2,329.7 778.2,329.7 785.3,329.8 792.4,329.9 799.4,329.9 806.5,329.9 813.5,330.0 820.6,330.0 827.6,330.0 834.7,330.0 841.8,330.0 848.8,330.0 855.9,330.0 862.9,330.0 870.0,330.0"/>
</svg>
