<svg xmlns="http://www.w3.org/2000/svg" width="900" height="360">
<rect width="100%" height="100%" fill="white"/>
<text x="45" y="20" font-size="16">中国中免 价格</text>
<line class="axis-x" x1="45" y1="315" x2="855" y2="315" stroke="black" stroke-width="1"/>
<line class="axis-y" x1="45" y1="45" x2="45" y2="315" stroke="black" stroke-width="1"/>
<text x="450.0" y="355" font-size="12" text-anchor="middle">样本点</text>
<text x="14" y="180.0" font-size="12" text-anchor="middle" transform="rotate(-90 14 180.0)">价格</text>
<line x1="45.0" y1="315" x2="45.0" y2="320" stroke="black" stroke-width="1"/>
<text x="45.0" y="333" font-size="10" text-anchor="middle">1</text>
<line x1="449.9" y1="315" x2="449.9" y2="320" stroke="black" stroke-width="1"/>
<text x="449.9" y="333" font-size="10" text-anchor="middle">1540</text>
<line x1="855.0" y1="315" x2="855.0" y2="320" stroke="black" stroke-width="1"/>
<text x="855.0" y="333" font-size="10" text-anchor="middle">3080</text>
<line x1="40" y1="315.0" x2="45" y2="315.0" stroke="black" stroke-width="1"/>
<text x="37" y="318.0" font-size="10" text-anchor="end">7.63</text>
<line x1="40" y1="180.0" x2="45" y2="180.0" stroke="black" stroke-width="1"/>
<text x="37" y="183.0" font-size="10" text-anchor="end">195.67</text>
<line x1="40" y1="45.0" x2="45" y2="45.0" stroke="black" stroke-width="1"/>
<text x="37" y="48.0" font-size="10" text-anchor="end">383.72</text>
<polyline fill="none" stroke="#1f77b4" stroke-width="2" points="45.0,313.7 45.3,313.7 45.5,313.9 45.8,313.7 46.1,313.8 46.3,313.9 46.6,313.8 46.8,313.9 47.1,313.8 47.4,314.0 47.6,313.8 47.9,313.7 48.2,314.0 48.4,314.1 48.7,314.4 48.9,314.4 49.2,314.6 49.5,314.5 49.7,314.4 50.0,314.4 50.3,314.1 50.5,314.4 50.8,314.1 51.1,314.0 51.3,314.3 51.6,314.3 51.8,314.4 52.1,314.3 52.4,314.4 52.6,314.4 52.9,314.5 53.2,314.5 53.4,314.4 53.7,314.3 53.9,314.4 54.2,314.3 54.5,314.3 54.7,314.2 55.0,314.5 55.3,314.4 55.5,314.4 55.8,314.3 56.0,314.4 56.3,314.5 56.6,314.6 56.8,314.7 57.1,314.7 57.4,314.6 57.6,314.6 57.9,314.6 58.2,314.5 58.4,314.6 58.7,314.7 58.9,314.7 59.2,314.5 59.5,314.5 59.7,314.4 60.0,314.4 60.3,314.3 60.5,314.3 60.8,314.3 61.0,314.3 61.3,314.3 61.6,314.2 61.8,314.1 62.1,314.2 62.4,314.2 62.6,314.4 62.9,314.3 63.2,314.6 63.4,314.5 63.7,314.4 63.9,314.2 64.2,314.2 64.5,314.2 64.7,314.3 65.0,314.0 65.3,314.3 65.5,314.2 65.8,314.0 66.0,313.9 66.3,314.0 66.6,313.6 66.8,313.9 67.1,314.1 67.4,314.8 67.6,314.5 67.9,314.5 68.2,314.6 68.4,314.7 68.7,314.8 68.9,315.0 69.2,314.9 69.5,314.7 69.7,314.7 70.0,314.7 70.3,314.6 70.5,314.5 70.8,314.8 71.0,314.7 71.3,314.6 71.6,314.6 71.8,314.5 72.1,314.6 72.4,314.5 72.6,314.2 72.9,314.1 73.1,314.1 73.4,314.2 73.7,314.5 73.9,314.1 74.2,314.1 74.5,314.1 74.7,314.0 75.0,314.0 75.3,314.2 75.5,314.3 75.8,314.2 76.0,314.2 76.3,314.3 76.6,314.2 76.8,314.1 77.1,314.1 77.4,314.1 77.6,313.5 77.9,313.5 78.1,313.5 78.4,313.6 78.7,313.7 78.9,313.6 79.2,313.4 79.5,313.3 79.7,313.4 80.0,313.4 80.3,313.5 80.5,313.3 80.8,313.4 81.0,313.4 81.3,313.2 81.6,313.0 81.8,313.0 82.1,313.1 82.4,312.8 82.6,312.7 82.9,312.6 83.1,312.5 83.4,312.9 83.7,312.5 83.9,312.7 84.2,312.6 84.5,312.5 84.7,312.5 85.0,312.4 85.3,312.6 85.5,312.9 85.8,312.9 86.0,312.7 86.3,312.7 86.6,312.4 86.8,312.3 87.1,312.1 87.4,312.1 87.6,312.4 87.9,312.4 88.1,312.2 88.4,312.4 88.7,312.3 88.9,312.0 89.2,312.4 89.5,312.3 89.7,311.9 90.0,311.9 90.2,311.9 90.5,312.3 90.8,312.1 91.0,312.6 91.3,312.7 91.6,312.3 91.8,312.5 92.1,312.4 92.4,312.2 92.6,312.1 92.9,312.4 93.1,312.5 93.4,312.5 93.7,313.1 93.9,313.1 94.2,313.1 94.5,312.9 94.7,312.9 95.0,312.8 95.2,312.6 95.5,312.6 95.8,312.7 96.0,312.8 96.3,312.6 96.6,312.6 96.8,312.4 97.1,312.6 97.4,312.7 97.6,312.7 97.9,312.1 98.1,311.3 98.4,310.4 98.7,310.3 98.9,310.0 99.2,310.0 99.5,308.9 99.7,309.7 100.0,309.9 100.2,310.1 100.5,309.8 100.8,309.6 101.0,310.1 101.3,309.6 101.6,308.9 101.8,309.1 102.1,309.5 102.3,309.6 102.6,310.0 102.9,309.8 103.1,310.0 103.4,310.2 103.7,309.8 103.9,309.3 104.2,309.5 104.5,309.0 104.7,308.6 105.0,308.5 105.2,309.1 105.5,309.0 105.8,309.0 106.0,309.7 106.3,309.5 106.6,309.6 106.8,309.7 107.1,309.8 107.3,310.7 107.6,311.2 107.9,310.7 108.1,310.9 108.4,310.4 108.7,310.4 108.9,310.7 109.2,310.9 109.5,310.9 109.7,311.1 110.0,311.1 110.2,311.1 110.5,311.1 110.8,311.2 111.0,311.8 111.3,311.8 111.6,311.6 111.8,312.3 112.1,312.1 112.3,311.8 112.6,312.0 112.9,311.9 113.1,311.6 113.4,311.5 113.7,311.3 113.9,311.5 114.2,311.7 114.5,311.6 114.7,311.0 115.0,311.0 115.2,311.2 115.5,311.1 115.8,311.2 116.0,311.5 116.3,310.8 116.6,311.1 116.8,311.1 117.1,311.0 117.3,311.2 117.6,310.9 117.9,310.5 118.1,310.7 118.4,310.9 118.7,310.6 118.9,310.5 119.2,310.4 119.4,310.6 119.7,310.8 120.0,311.0 120.2,311.1 120.5,311.4 120.8,311.4 121.0,311.5 121.3,311.4 121.6,311.1 121.8,310.9 122.1,311.2 122.3,311.3 122.6,311.3 122.9,311.5 123.1,311.7 123.4,311.7 123.7,311.9 123.9,311.8 124.2,311.7 124.4,311.7 124.7,311.7 125.0,311.6 125.2,311.5 125.5,311.2 125.8,311.4 126.0,311.4 126.3,311.0 126.6,311.1 126.8,311.1 127.1,311.2 127.3,310.7 127.6,310.5 127.9,310.9 128.1,311.0 128.4,311.4 128.7,311.6 128.9,311.5 129.2,311.6 129.4,311.6 129.7,311.6 130.0,311.8 130.2,311.9 130.5,312.1 130.8,312.0 131.0,311.9 131.3,311.9 131.6,311.9 131.8,311.8 132.1,311.9 132.3,311.9 132.6,312.5 132.9,312.7 133.1,312.6 133.4,312.8 133.7,312.8 133.9,312.8 134.2,312.6 134.4,312.6 134.7,312.7 135.0,312.7 135.2,312.6 135.5,312.6 135.8,312.9 136.0,313.0 136.3,313.1 136.5,313.0 136.8,313.0 137.1,313.1 137.3,313.3 137.6,313.3 137.9,313.3 138.1,313.2 138.4,312.9 138.7,312.8 138.9,312.6 139.2,312.7 139.4,312.9 139.7,312.7 140.0,312.7 140.2,312.5 140.5,312.5 140.8,312.4 141.0,312.4 141.3,312.5 141.5,312.5 141.8,312.6 142.1,312.5 142.3,312.2 142.6,311.8 142.9,311.9 143.1,312.0 143.4,311.9 143.7,312.0 143.9,311.8 144.2,312.2 144.4,312.1 144.7,312.0 145.0,311.9 145.2,311.8 145.5,311.8 145.8,311.6 146.0,311.7 146.3,311.5 146.5,311.4 146.8,311.6 147.1,311.6 147.3,311.6 147.6,311.1 147.9,311.1 148.1,311.0 148.4,311.1 148.7,311.1 148.9,311.2 149.2,311.2 149.4,311.5 149.7,311.4 150.0,311.3 150.2,311.4 150.5,311.4 150.8,311.0 151.0,311.1 151.3,310.9 151.5,311.0 151.8,311.3 152.1,311.6 152.3,311.4 152.6,311.2 152.9,311.2 153.1,311.4 153.4,311.6 153.6,311.6 153.9,311.6 154.2,311.6 154.4,311.9 154.7,311.9 155.0,311.6 155.2,311.7 155.5,311.8 155.8,311.8 156.0,311.9 156.3,312.2 156.5,312.4 156.8,312.4 157.1,312.6 157.3,312.7 157.6,312.3 157.9,312.2 158.1,312.3 158.4,312.0 158.6,312.0 158.9,311.9 159.2,312.0 159.4,311.9 159.7,311.7 160.0,311.6 160.2,311.7 160.5,311.6 160.8,311.6 161.0,311.3 161.3,311.3 161.5,311.1 161.8,311.2 162.1,311.3 162.3,311.4 162.6,311.8 162.9,311.6 163.1,311.5 163.4,311.7 163.6,311.4 163.9,311.4 164.2,311.7 164.4,311.4 164.7,311.5 165.0,311.4 165.2,311.1 165.5,311.2 165.8,311.1 166.0,311.3 166.3,311.3 166.5,310.9 166.8,311.1 167.1,311.0 167.3,311.1 167.6,311.4 167.9,311.4 168.1,311.4 168.4,311.3 168.6,311.4 168.9,311.3 169.2,311.6 169.4,311.5 169.7,311.6 170.0,311.4 170.2,311.2 170.5,311.8 170.7,312.1 171.0,312.1 171.3,312.0 171.5,311.8 171.8,312.3 172.1,312.2 172.3,312.0 172.6,311.9 172.9,312.1 173.1,312.6 173.4,312.7 173.6,312.5 173.9,312.1 174.2,312.0 174.4,312.1 174.7,312.3 175.0,312.7 175.2,312.4 175.5,312.6 175.7,312.5 176.0,312.3 176.3,312.3 176.5,312.4 176.8,312.4 177.1,312.3 177.3,312.3 177.6,312.3 177.9,312.1 178.1,312.0 178.4,312.0 178.6,312.0 178.9,311.9 179.2,311.9 179.4,311.9 179.7,311.9 180.0,311.7 180.2,311.8 180.5,311.8 180.7,311.7 181.0,311.8 181.3,311.7 181.5,311.6 181.8,311.5 182.1,311.6 182.3,311.6 182.6,311.6 182.8,311.7 183.1,311.6 183.4,311.5 183.6,311.5 183.9,311.5 184.2,311.2 184.4,311.3 184.7,311.5 185.0,311.7 185.2,311.3 185.5,311.3 185.7,311.4 186.0,311.6 186.3,311.7 186.5,311.8 186.8,311.5 187.1,311.6 187.3,311.8 187.6,311.8 187.8,312.1 188.1,311.9 188.4,311.8 188.6,311.9 188.9,311.8 189.2,311.5 189.4,311.2 189.7,311.2 190.0,311.2 190.2,311.3 190.5,311.1 190.7,311.1 191.0,311.0 191.3,311.0 191.5,311.3 191.8,311.0 192.1,311.1 192.3,311.0 192.6,311.1 192.8,311.4 193.1,311.4 193.4,311.3 193.6,311.3 193.9,311.4 194.2,311.6 194.4,311.6 194.7,311.5 195.0,311.4 195.2,311.6 195.5,311.6 195.7,311.8 196.0,311.7 196.3,311.5 196.5,311.4 196.8,311.5 197.1,311.8 197.3,311.8 197.6,311.6 197.8,311.8 198.1,311.6 198.4,311.5 198.6,311.5 198.9,311.5 199.2,311.6 199.4,311.6 199.7,311.6 199.9,311.5 200.2,311.3 200.5,311.2 200.7,311.0 201.0,311.1 201.3,310.9 201.5,311.1 201.8,311.1 202.1,311.3 202.3,311.3 202.6,311.1 202.8,311.1 203.1,311.4 203.4,311.2 203.6,310.8 203.9,310.7 204.2,310.7 204.4,310.8 204.7,310.4 204.9,310.0 205.2,310.3 205.5,310.3 205.7,310.4 206.0,310.5 206.3,310.6 206.5,310.4 206.8,310.7 207.1,310.6 207.3,310.5 207.6,310.5 207.8,310.5 208.1,310.7 208.4,310.9 208.6,311.1 208.9,311.2 209.2,311.2 209.4,311.0 209.7,311.1 209.9,310.9 210.2,310.7 210.5,310.8 210.7,310.9 211.0,310.6 211.3,310.8 211.5,310.9 211.8,310.7 212.1,310.8 212.3,310.9 212.6,311.0 212.8,311.1 213.1,311.0 213.4,311.2 213.6,311.2 213.9,311.3 214.2,311.4 214.4,311.5 214.7,311.3 214.9,311.5 215.2,311.5 215.5,311.5 215.7,311.3 216.0,311.2 216.3,311.1 216.5,310.8 216.8,310.9 217.0,310.9 217.3,311.0 217.6,310.9 217.8,311.2 218.1,311.4 218.4,311.3 218.6,311.2 218.9,311.4 219.2,311.6 219.4,311.4 219.7,311.2 219.9,311.4 220.2,311.3 220.5,311.2 220.7,311.0 221.0,311.0 221.3,311.0 221.5,311.2 221.8,311.3 222.0,311.2 222.3,311.1 222.6,310.9 222.8,310.6 223.1,310.7 223.4,310.5 223.6,310.6 223.9,310.8 224.2,310.8 224.4,310.9 224.7,310.6 224.9,310.7 225.2,310.5 225.5,310.5 225.7,310.4 226.0,310.1 226.3,310.1 226.5,310.1 226.8,310.1 227.0,310.1 227.3,310.1 227.6,310.1 227.8,311.1 228.1,311.2 228.4,311.1 228.6,311.4 228.9,311.6 229.2,311.5 229.4,311.6 229.7,311.4 229.9,311.7 230.2,311.7 230.5,312.0 230.7,312.1 231.0,312.0 231.3,311.9 231.5,311.7 231.8,311.6 232.0,312.3 232.3,312.2 232.6,312.2 232.8,312.2 233.1,312.2 233.4,312.2 233.6,311.9 233.9,311.7 234.1,311.8 234.4,311.9 234.7,311.8 234.9,311.8 235.2,311.7 235.5,311.6 235.7,311.6 236.0,311.7 236.3,311.6 236.5,311.5 236.8,311.6 237.0,311.3 237.3,311.1 237.6,311.2 237.8,311.2 238.1,311.2 238.4,310.8 238.6,310.8 238.9,311.0 239.1,311.1 239.4,311.0 239.7,311.0 239.9,311.3 240.2,311.2 240.5,311.4 240.7,311.5 241.0,311.4 241.3,311.4 241.5,311.3 241.8,311.3 242.0,311.3 242.3,311.1 242.6,311.0 242.8,311.0 243.1,310.8 243.4,310.7 243.6,310.7 243.9,310.8 244.1,310.6 244.4,310.7 244.7,310.6 244.9,310.6 245.2,310.9 245.5,310.9 245.7,310.9 246.0,311.0 246.3,310.9 246.5,310.6 246.8,310.5 247.0,310.6 247.3,310.8 247.6,310.5 247.8,310.5 248.1,310.6 248.4,310.6 248.6,310.5 248.9,310.6 249.1,310.5 249.4,309.7 249.7,309.5 249.9,309.6 250.2,309.6 250.5,309.9 250.7,309.8 251.0,309.9 251.2,309.6 251.5,309.9 251.8,310.5 252.0,310.7 252.3,310.8 252.6,310.6 252.8,310.7 253.1,310.5 253.4,310.6 253.6,310.8 253.9,310.7 254.1,310.6 254.4,310.5 254.7,310.3 254.9,310.3 255.2,310.5 255.5,310.0 255.7,310.2 256.0,310.3 256.2,310.6 256.5,310.2 256.8,310.0 257.0,309.9 257.3,309.9 257.6,310.0 257.8,309.9 258.1,309.8 258.4,310.1 258.6,310.1 258.9,309.7 259.1,309.7 259.4,309.7 259.7,309.8 259.9,309.6 260.2,309.9 260.5,309.7 260.7,309.9 261.0,309.8 261.2,309.3 261.5,309.5 261.8,309.7 262.0,309.7 262.3,310.0 262.6,310.0 262.8,310.3 263.1,310.6 263.4,310.6 263.6,310.5 263.9,310.6 264.1,310.5 264.4,310.4 264.7,310.7 264.9,310.7 265.2,311.1 265.5,311.0 265.7,311.0 266.0,311.0 266.2,310.8 266.5,310.4 266.8,310.3 267.0,310.4 267.3,310.5 267.6,310.5 267.8,310.5 268.1,310.6 268.3,310.2 268.6,310.1 268.9,310.2 269.1,310.1 269.4,310.2 269.7,310.6 269.9,310.4 270.2,310.5 270.5,310.4 270.7,310.2 271.0,310.1 271.2,310.2 271.5,310.3 271.8,310.4 272.0,310.5 272.3,310.5 272.6,310.2 272.8,310.1 273.1,309.8 273.3,309.2 273.6,309.3 273.9,309.3 274.1,309.0 274.4,308.9 274.7,309.2 274.9,309.2 275.2,309.3 275.5,309.6 275.7,309.3 276.0,309.2 276.2,309.1 276.5,309.2 276.8,309.3 277.0,309.0 277.3,309.0 277.6,309.0 277.8,308.6 278.1,308.1 278.3,308.1 278.6,307.9 278.9,308.1 279.1,308.0 279.4,307.8 279.7,307.8 279.9,308.0 280.2,308.4 280.4,308.3 280.7,308.2 281.0,308.0 281.2,307.9 281.5,306.6 281.8,306.7 282.0,305.9 282.3,306.2 282.6,306.9 282.8,306.8 283.1,306.7 283.3,306.8 283.6,307.2 283.9,307.3 284.1,307.1 284.4,306.9 284.7,307.5 284.9,307.8 285.2,307.4 285.4,307.5 285.7,307.0 286.0,307.1 286.2,306.7 286.5,306.7 286.8,307.4 287.0,308.0 287.3,308.6 287.6,308.7 287.8,308.5 288.1,308.6 288.3,308.8 288.6,308.5 288.9,309.0 289.1,309.0 289.4,309.4 289.7,309.1 289.9,309.0 290.2,309.2 290.4,308.8 290.7,308.8 291.0,308.5 291.2,308.8 291.5,308.8 291.8,309.1 292.0,309.0 292.3,309.3 292.6,309.3 292.8,309.3 293.1,309.1 293.3,308.9 293.6,309.3 293.9,309.1 294.1,308.6 294.4,308.8 294.7,309.0 294.9,309.0 295.2,309.0 295.4,309.1 295.7,308.9 296.0,308.8 296.2,308.9 296.5,308.9 296.8,308.6 297.0,309.2 297.3,309.3 297.5,309.4 297.8,309.2 298.1,309.3 298.3,309.6 298.6,309.2 298.9,309.0 299.1,308.9 299.4,309.0 299.7,309.1 299.9,309.5 300.2,309.4 300.4,309.7 300.7,309.7 301.0,309.1 301.2,309.3 301.5,308.9 301.8,308.9 302.0,308.9 302.3,309.2 302.5,309.1 302.8,309.0 303.1,308.9 303.3,308.6 303.6,308.7 303.9,308.7 304.1,308.9 304.4,309.2 304.7,309.3 304.9,309.2 305.2,309.0 305.4,307.9 305.7,307.8 306.0,307.9 306.2,307.8 306.5,307.9 306.8,307.8 307.0,307.9 307.3,308.1 307.5,308.2 307.8,307.7 308.1,308.1 308.3,308.0 308.6,308.1 308.9,307.9 309.1,308.1 309.4,308.3 309.7,308.1 309.9,307.8 310.2,308.2 310.4,308.6 310.7,308.5 311.0,308.8 311.2,308.8 311.5,309.1 311.8,308.9 312.0,308.9 312.3,309.1 312.5,309.1 312.8,308.9 313.1,308.9 313.3,309.0 313.6,309.0 313.9,309.1 314.1,309.6 314.4,309.4 314.6,309.3 314.9,309.4 315.2,309.4 315.4,309.2 315.7,308.9 316.0,308.9 316.2,308.6 316.5,308.6 316.8,308.5 317.0,308.8 317.3,308.9 317.5,308.9 317.8,308.9 318.1,309.1 318.3,309.2 318.6,309.3 318.9,309.4 319.1,309.6 319.4,309.8 319.6,309.7 319.9,309.6 320.2,309.4 320.4,309.3 320.7,309.4 321.0,309.5 321.2,309.6 321.5,309.5 321.8,309.7 322.0,309.7 322.3,309.9 322.5,309.8 322.8,310.2 323.1,310.1 323.3,309.9 323.6,309.9 323.9,309.8 324.1,309.8 324.4,310.0 324.6,309.9 324.9,310.0 325.2,309.9 325.4,310.1 325.7,310.1 326.0,310.1 326.2,310.1 326.5,310.1 326.8,310.0 327.0,309.9 327.3,310.1 327.5,310.0 327.8,309.8 328.1,309.8 328.3,310.0 328.6,310.1 328.9,310.0 329.1,309.8 329.4,309.7 329.6,309.8 329.9,309.6 330.2,309.4 330.4,309.4 330.7,309.3 331.0,309.3 331.2,309.5 331.5,309.6 331.7,309.7 332.0,310.0 332.3,310.1 332.5,310.0 332.8,310.0 333.1,309.9 333.3,310.0 333.6,309.9 333.9,309.9 334.1,310.0 334.4,310.1 334.6,310.0 334.9,310.2 335.2,310.3 335.4,310.0 335.7,309.6 336.0,309.4 336.2,309.2 336.5,309.1 336.7,309.2 337.0,308.9 337.3,308.6 337.5,308.8 337.8,308.8 338.1,308.7 338.3,308.6 338.6,308.9 338.9,308.8 339.1,308.9 339.4,308.4 339.6,307.4 339.9,307.7 340.2,307.7 340.4,307.9 340.7,307.9 341.0,308.0 341.2,308.0 341.5,308.1 341.7,308.3 342.0,307.9 342.3,307.8 342.5,307.7 342.8,307.8 343.1,307.5 343.3,307.6 343.6,307.6 343.9,307.6 344.1,307.5 344.4,307.4 344.6,307.0 344.9,307.4 345.2,307.6 345.4,307.7 345.7,307.3 346.0,307.2 346.2,307.1 346.5,307.1 346.7,307.1 347.0,307.6 347.3,307.8 347.5,307.7 347.8,307.5 348.1,307.7 348.3,308.0 348.6,308.3 348.8,308.1 349.1,308.1 349.4,308.0 349.6,307.7 349.9,307.8 350.2,308.2 350.4,308.3 350.7,308.3 351.0,308.2 351.2,308.3 351.5,308.1 351.7,307.9 352.0,307.8 352.3,307.8 352.5,308.1 352.8,308.1 353.1,308.4 353.3,308.4 353.6,308.2 353.8,308.2 354.1,307.9 354.4,307.7 354.6,307.4 354.9,307.7 355.2,307.4 355.4,307.3 355.7,307.2 356.0,307.3 356.2,306.9 356.5,307.0 356.7,306.2 357.0,306.2 357.3,305.8 357.5,306.3 357.8,306.8 358.1,306.4 358.3,306.4 358.6,306.5 358.8,306.7 359.1,306.6 359.4,306.7 359.6,305.8 359.9,306.3 360.2,306.5 360.4,306.3 360.7,306.6 360.9,306.5 361.2,306.1 361.5,305.9 361.7,305.7 362.0,305.2 362.3,306.1 362.5,305.9 362.8,305.7 363.1,306.0 363.3,306.0 363.6,305.5 363.8,304.9 364.1,303.8 364.4,304.4 364.6,305.1 364.9,305.2 365.2,304.9 365.4,304.8 365.7,305.0 365.9,305.0 366.2,305.0 366.5,305.7 366.7,305.3 367.0,304.7 367.3,304.8 367.5,304.4 367.8,304.5 368.1,304.7 368.3,305.1 368.6,305.0 368.8,305.0 369.1,304.9 369.4,304.8 369.6,304.0 369.9,304.5 370.2,304.7 370.4,304.8 370.7,304.7 370.9,304.4 371.2,304.3 371.5,304.2 371.7,303.7 372.0,303.7 372.3,303.6 372.5,303.6 372.8,303.5 373.1,303.6 373.3,303.8 373.6,303.3 373.8,303.5 374.1,303.6 374.4,303.6 374.6,303.7 374.9,303.6 375.2,303.3 375.4,303.2 375.7,303.2 375.9,303.2 376.2,303.2 376.5,303.2 376.7,303.2 377.0,303.2 377.3,303.2 377.5,303.2 377.8,303.2 378.0,303.2 378.3,303.2 378.6,303.2 378.8,303.2 379.1,303.2 379.4,303.2 379.6,303.2 379.9,303.2 380.2,303.2 380.4,303.2 380.7,303.2 380.9,303.2 381.2,303.2 381.5,303.2 381.7,303.2 382.0,303.2 382.3,303.2 382.5,303.2 382.8,303.2 383.0,303.2 383.3,303.2 383.6,303.2 383.8,303.2 384.1,303.2 384.4,303.2 384.6,303.2 384.9,303.2 385.2,303.2 385.4,303.2 385.7,303.2 385.9,303.2 386.2,303.2 386.5,303.2 386.7,303.2 387.0,303.2 387.3,303.2 387.5,303.2 387.8,303.2 388.0,303.2 388.3,303.2 388.6,303.2 388.8,303.2 389.1,303.2 389.4,303.2 389.6,303.2 389.9,303.2 390.2,303.2 390.4,301.5 390.7,299.6 390.9,297.5 391.2,297.7 391.5,295.5 391.7,295.5 392.0,295.7 392.3,296.8 392.5,296.6 392.8,295.9 393.0,296.9 393.3,298.9 393.6,297.9 393.8,297.2 394.1,298.3 394.4,300.5 394.6,300.2 394.9,298.2 395.1,297.6 395.4,299.0 395.7,299.9 395.9,301.1 396.2,302.3 396.5,304.1 396.7,302.4 397.0,300.6 397.3,298.7 397.5,299.4 397.8,301.5 398.0,301.1 398.3,299.6 398.6,299.3 398.8,297.1 399.1,296.3 399.4,296.3 399.6,296.8 399.9,299.2 400.1,299.2 400.4,298.5 400.7,299.0 400.9,299.5 401.2,301.0 401.5,300.0 401.7,300.5 402.0,300.5 402.3,300.0 402.5,297.9 402.8,297.2 403.0,298.0 403.3,297.5 403.6,297.5 403.8,297.7 404.1,300.0 404.4,300.0 404.6,300.4 404.9,301.8 405.1,303.7 405.4,304.9 405.7,304.4 405.9,302.9 406.2,302.2 406.5,302.5 406.7,302.6 407.0,302.0 407.3,303.3 407.5,302.6 407.8,301.8 408.0,302.0 408.3,302.2 408.6,303.3 408.8,303.5 409.1,302.2 409.4,303.1 409.6,302.5 409.9,301.5 410.1,302.0 410.4,302.4 410.7,302.2 410.9,302.2 411.2,301.7 411.5,302.4 411.7,302.8 412.0,302.8 412.2,303.1 412.5,302.2 412.8,302.2 413.0,302.6 413.3,302.2 413.6,301.9 413.8,301.7 414.1,301.8 414.4,302.6 414.6,302.4 414.9,302.1 415.1,302.2 415.4,301.7 415.7,302.1 415.9,302.7 416.2,303.0 416.5,303.0 416.7,303.1 417.0,302.6 417.2,301.4 417.5,300.8 417.8,300.7 418.0,301.0 418.3,301.3 418.6,301.1 418.8,301.8 419.1,302.0 419.4,302.2 419.6,302.3 419.9,302.0 420.1,301.9 420.4,302.2 420.7,302.5 420.9,302.4 421.2,302.6 421.5,303.1 421.7,303.5 422.0,303.2 422.2,302.7 422.5,302.7 422.8,302.5 423.0,302.5 423.3,302.1 423.6,301.3 423.8,301.1 424.1,301.9 424.4,301.3 424.6,301.2 424.9,301.7 425.1,301.1 425.4,300.7 425.7,299.7 425.9,300.1 426.2,300.3 426.5,300.3 426.7,300.5 427.0,301.1 427.2,300.8 427.5,300.0 427.8,300.4 428.0,301.6 428.3,301.7 428.6,301.3 428.8,302.9 429.1,302.3 429.3,302.8 429.6,302.5 429.9,303.1 430.1,302.7 430.4,303.3 430.7,303.4 430.9,302.9 431.2,303.4 431.5,303.7 431.7,303.6 432.0,303.4 432.2,304.6 432.5,305.5 432.8,305.7 433.0,304.9 433.3,305.0 433.6,304.7 433.8,304.3 434.1,304.3 434.3,304.7 434.6,305.1 434.9,304.7 435.1,305.0 435.4,305.3 435.7,305.4 435.9,304.9 436.2,305.1 436.5,304.3 436.7,305.6 437.0,305.4 437.2,306.4 437.5,306.2 437.8,305.7 438.0,305.9 438.3,306.3 438.6,305.9 438.8,305.9 439.1,306.1 439.3,306.3 439.6,306.4 439.9,306.1 440.1,305.5 440.4,305.9 440.7,305.6 440.9,305.4 441.2,305.2 441.5,305.3 441.7,305.4 442.0,305.2 442.2,305.3 442.5,304.9 442.8,305.3 443.0,304.9 443.3,305.0 443.6,305.2 443.8,305.0 444.1,304.8 444.3,305.0 444.6,305.1 444.9,304.8 445.1,304.5 445.4,304.2 445.7,304.4 445.9,304.4 446.2,304.6 446.4,304.6 446.7,304.9 447.0,305.1 447.2,305.0 447.5,305.4 447.8,305.5 448.0,305.5 448.3,305.6 448.6,305.6 448.8,305.3 449.1,305.4 449.3,305.4 449.6,305.8 449.9,306.2 450.1,306.0 450.4,305.8 450.7,305.9 450.9,305.9 451.2,305.9 451.4,305.9 451.7,306.0 452.0,306.0 452.2,306.0 452.5,305.9 452.8,306.1 453.0,306.1 453.3,306.1 453.6,306.1 453.8,306.1 454.1,305.5 454.3,305.6 454.6,305.5 454.9,305.5 455.1,305.4 455.4,305.1 455.7,305.1 455.9,305.5 456.2,305.6 456.4,305.1 456.7,305.3 457.0,305.3 457.2,305.2 457.5,305.3 457.8,305.1 458.0,305.1 458.3,305.4 458.5,305.4 458.8,305.4 459.1,305.3 459.3,305.4 459.6,305.4 459.9,305.2 460.1,305.1 460.4,305.2 460.7,305.0 460.9,304.8 461.2,304.9 461.4,304.7 461.7,304.8 462.0,304.9 462.2,304.5 462.5,304.7 462.8,304.9 463.0,304.8 463.3,304.7 463.5,304.8 463.8,304.8 464.1,304.7 464.3,304.9 464.6,304.9 464.9,305.1 465.1,305.1 465.4,305.1 465.7,305.2 465.9,305.1 466.2,305.2 466.4,305.2 466.7,305.0 467.0,305.1 467.2,305.1 467.5,304.9 467.8,304.6 468.0,304.6 468.3,304.7 468.5,304.8 468.8,304.8 469.1,305.0 469.3,305.0 469.6,304.9 469.9,304.8 470.1,304.7 470.4,304.7 470.7,304.6 470.9,304.5 471.2,304.6 471.4,304.6 471.7,304.7 472.0,304.5 472.2,304.4 472.5,304.4 472.8,304.4 473.0,304.4 473.3,304.0 473.5,304.1 473.8,304.0 474.1,304.1 474.3,304.1 474.6,304.1 474.9,304.2 475.1,304.7 475.4,304.7 475.6,304.9 475.9,304.9 476.2,305.0 476.4,305.0 476.7,305.0 477.0,305.0 477.2,305.1 477.5,305.1 477.8,305.2 478.0,305.1 478.3,305.0 478.5,305.0 478.8,305.1 479.1,304.9 479.3,304.9 479.6,305.0 479.9,305.0 480.1,305.1 480.4,305.0 480.6,305.0 480.9,305.2 481.2,305.1 481.4,305.2 481.7,305.4 482.0,305.5 482.2,305.6 482.5,305.4 482.8,305.5 483.0,305.4 483.3,305.4 483.5,305.4 483.8,305.3 484.1,305.4 484.3,305.4 484.6,305.0 484.9,305.2 485.1,305.2 485.4,305.1 485.6,305.2 485.9,305.1 486.2,305.2 486.4,305.1 486.7,305.4 487.0,305.3 487.2,305.5 487.5,305.5 487.8,305.6 488.0,305.6 488.3,305.8 488.5,306.0 488.8,306.1 489.1,306.1 489.3,306.0 489.6,306.0 489.9,306.0 490.1,305.9 490.4,305.8 490.6,305.9 490.9,305.8 491.2,305.9 491.4,305.9 491.7,305.9 492.0,305.6 492.2,305.6 492.5,305.6 492.7,305.5 493.0,305.5 493.3,305.5 493.5,305.6 493.8,305.7 494.1,305.7 494.3,305.4 494.6,305.2 494.9,305.3 495.1,305.2 495.4,305.2 495.6,305.2 495.9,305.3 496.2,305.0 496.4,304.9 496.7,304.8 497.0,304.9 497.2,305.0 497.5,305.1 497.7,305.0 498.0,305.0 498.3,305.1 498.5,304.9 498.8,305.0 499.1,305.1 499.3,305.1 499.6,305.0 499.9,304.8 500.1,304.6 500.4,304.6 500.6,304.4 500.9,304.4 501.2,303.6 501.4,303.6 501.7,303.7 502.0,303.5 502.2,303.3 502.5,303.5 502.7,303.1 503.0,302.9 503.3,302.8 503.5,302.8 503.8,303.4 504.1,303.3 504.3,303.5 504.6,303.5 504.9,303.4 505.1,302.9 505.4,303.0 505.6,301.2 505.9,300.5 506.2,300.8 506.4,300.8 506.7,300.9 507.0,301.2 507.2,301.2 507.5,301.0 507.7,300.7 508.0,301.1 508.3,300.7 508.5,300.4 508.8,300.9 509.1,302.8 509.3,302.8 509.6,303.1 509.8,302.6 510.1,302.3 510.4,302.3 510.6,302.2 510.9,302.2 511.2,302.2 511.4,302.2 511.7,301.9 512.0,301.8 512.2,302.3 512.5,302.2 512.7,302.7 513.0,302.7 513.3,302.6 513.5,302.5 513.8,302.9 514.1,302.8 514.3,302.6 514.6,302.4 514.8,302.0 515.1,301.8 515.4,302.0 515.6,301.9 515.9,301.9 516.2,301.8 516.4,301.9 516.7,301.9 517.0,301.4 517.2,301.5 517.5,301.9 517.7,301.2 518.0,300.9 518.3,300.8 518.5,300.8 518.8,300.4 519.1,300.2 519.3,300.1 519.6,300.3 519.8,300.1 520.1,300.5 520.4,300.8 520.6,300.9 520.9,300.7 521.2,301.1 521.4,300.5 521.7,300.7 522.0,300.8 522.2,300.5 522.5,300.0 522.7,300.1 523.0,299.7 523.3,299.4 523.5,299.7 523.8,300.1 524.1,299.9 524.3,300.2 524.6,300.8 524.8,300.2 525.1,300.3 525.4,299.9 525.6,300.0 525.9,299.9 526.2,300.6 526.4,300.2 526.7,300.1 526.9,300.1 527.2,300.3 527.5,300.3 527.7,300.5 528.0,300.4 528.3,300.0 528.5,300.1 528.8,300.3 529.1,300.1 529.3,300.1 529.6,300.4 529.8,300.7 530.1,300.8 530.4,300.8 530.6,300.6 530.9,300.8 531.2,301.0 531.4,300.9 531.7,301.0 531.9,300.7 532.2,300.4 532.5,300.0 532.7,299.7 533.0,299.8 533.3,299.9 533.5,300.0 533.8,300.1 534.1,299.9 534.3,300.2 534.6,299.7 534.8,299.6 535.1,299.6 535.4,297.7 535.6,298.0 535.9,298.0 536.2,298.7 536.4,298.0 536.7,298.0 536.9,298.1 537.2,297.7 537.5,296.8 537.7,296.5 538.0,296.8 538.3,297.3 538.5,296.7 538.8,296.9 539.1,297.3 539.3,297.3 539.6,296.4 539.8,296.6 540.1,296.7 540.4,296.4 540.6,296.2 540.9,295.8 541.2,295.0 541.4,295.1 541.7,295.0 541.9,295.3 542.2,295.2 542.5,295.0 542.7,294.5 543.0,294.8 543.3,294.8 543.5,294.6 543.8,294.1 544.0,293.6 544.3,292.9 544.6,292.6 544.8,291.6 545.1,292.3 545.4,292.4 545.6,292.6 545.9,291.2 546.2,291.6 546.4,291.0 546.7,290.7 546.9,289.9 547.2,288.2 547.5,290.0 547.7,291.0 548.0,290.4 548.3,290.9 548.5,290.8 548.8,288.7 549.0,290.5 549.3,291.4 549.6,291.8 549.8,293.6 550.1,293.2 550.4,292.1 550.6,291.4 550.9,291.4 551.2,291.9 551.4,291.9 551.7,291.7 551.9,292.6 552.2,290.7 552.5,289.6 552.7,289.4 553.0,289.5 553.3,290.4 553.5,291.1 553.8,291.0 554.0,290.1 554.3,290.1 554.6,289.8 554.8,290.1 555.1,290.1 555.4,290.7 555.6,291.7 555.9,290.6 556.1,290.2 556.4,290.4 556.7,288.6 556.9,288.8 557.2,289.0 557.5,288.1 557.7,287.9 558.0,288.1 558.3,288.5 558.5,288.4 558.8,287.2 559.0,286.0 559.3,286.8 559.6,286.8 559.8,286.9 560.1,286.2 560.4,286.3 560.6,286.0 560.9,286.5 561.1,286.3 561.4,286.5 561.7,286.3 561.9,284.7 562.2,285.1 562.5,282.9 562.7,284.3 563.0,286.9 563.3,287.6 563.5,286.8 563.8,287.8 564.0,286.7 564.3,285.5 564.6,284.3 564.8,283.2 565.1,282.7 565.4,283.4 565.6,283.6 565.9,283.9 566.1,282.8 566.4,283.3 566.7,283.1 566.9,282.0 567.2,281.8 567.5,280.5 567.7,280.5 568.0,281.2 568.3,281.1 568.5,280.6 568.8,280.8 569.0,281.8 569.3,281.1 569.6,281.7 569.8,280.5 570.1,280.7 570.4,280.7 570.6,282.3 570.9,281.7 571.1,280.9 571.4,283.0 571.7,283.6 571.9,282.2 572.2,282.7 572.5,283.5 572.7,283.4 573.0,283.0 573.2,283.4 573.5,282.4 573.8,281.3 574.0,281.2 574.3,284.8 574.6,284.7 574.8,283.0 575.1,283.1 575.4,283.3 575.6,283.1 575.9,282.9 576.1,283.7 576.4,284.2 576.7,281.2 576.9,279.8 577.2,280.0 577.5,279.6 577.7,279.3 578.0,278.7 578.2,277.4 578.5,277.9 578.8,276.9 579.0,276.6 579.3,277.2 579.6,277.9 579.8,277.5 580.1,277.0 580.4,276.8 580.6,277.3 580.9,276.9 581.1,277.0 581.4,277.3 581.7,275.8 581.9,276.1 582.2,273.3 582.5,273.4 582.7,273.5 583.0,273.2 583.2,273.9 583.5,274.1 583.8,274.3 584.0,276.1 584.3,274.5 584.6,273.9 584.8,273.8 585.1,274.2 585.4,274.9 585.6,274.8 585.9,273.2 586.1,273.4 586.4,271.7 586.7,273.4 586.9,276.2 587.2,275.8 587.5,275.2 587.7,275.2 588.0,277.4 588.2,276.6 588.5,275.9 588.8,276.8 589.0,275.5 589.3,274.1 589.6,274.0 589.8,272.9 590.1,270.6 590.3,269.6 590.6,270.3 590.9,269.3 591.1,269.4 591.4,268.8 591.7,271.2 591.9,271.0 592.2,268.3 592.5,269.1 592.7,269.8 593.0,270.3 593.2,271.1 593.5,270.4 593.8,272.3 594.0,274.9 594.3,277.0 594.6,277.0 594.8,278.0 595.1,276.6 595.3,276.0 595.6,275.7 595.9,276.1 596.1,277.7 596.4,278.8 596.7,280.3 596.9,280.1 597.2,277.3 597.5,278.2 597.7,278.0 598.0,278.5 598.2,274.8 598.5,275.1 598.8,275.4 599.0,274.9 599.3,275.9 599.6,276.7 599.8,276.9 600.1,278.4 600.3,279.1 600.6,276.9 600.9,278.3 601.1,277.3 601.4,278.4 601.7,277.7 601.9,277.0 602.2,276.7 602.5,276.1 602.7,275.3 603.0,275.6 603.2,273.0 603.5,273.2 603.8,272.7 604.0,273.6 604.3,272.7 604.6,275.7 604.8,275.8 605.1,276.2 605.3,277.9 605.6,276.0 605.9,275.8 606.1,277.0 606.4,281.3 606.7,284.0 606.9,283.0 607.2,279.8 607.4,280.4 607.7,281.5 608.0,280.8 608.2,283.1 608.5,286.6 608.8,285.5 609.0,282.7 609.3,283.3 609.6,279.5 609.8,280.1 610.1,281.1 610.3,280.8 610.6,280.6 610.9,280.6 611.1,281.4 611.4,281.8 611.7,282.5 611.9,282.0 612.2,281.7 612.4,281.5 612.7,282.3 613.0,281.5 613.2,282.0 613.5,282.2 613.8,282.5 614.0,282.9 614.3,281.2 614.6,282.0 614.8,281.7 615.1,280.6 615.3,279.2 615.6,278.8 615.9,279.5 616.1,279.4 616.4,279.1 616.7,278.5 616.9,277.4 617.2,276.6 617.4,277.8 617.7,277.7 618.0,278.3 618.2,278.9 618.5,279.1 618.8,279.5 619.0,278.8 619.3,278.8 619.6,279.4 619.8,279.1 620.1,278.2 620.3,278.4 620.6,280.4 620.9,280.3 621.1,279.6 621.4,278.6 621.7,277.7 621.9,278.2 622.2,277.8 622.4,279.3 622.7,277.7 623.0,277.5 623.2,277.7 623.5,278.7 623.8,278.4 624.0,279.1 624.3,278.9 624.5,281.1 624.8,280.8 625.1,281.8 625.3,281.2 625.6,282.2 625.9,282.2 626.1,282.2 626.4,279.6 626.7,279.6 626.9,278.3 627.2,277.0 627.4,278.6 627.7,277.4 628.0,277.2 628.2,276.6 628.5,276.5 628.8,276.2 629.0,274.9 629.3,276.6 629.5,276.1 629.8,275.6 630.1,275.2 630.3,275.7 630.6,276.6 630.9,277.1 631.1,277.2 631.4,278.6 631.7,277.6 631.9,278.2 632.2,278.3 632.4,278.2 632.7,277.6 633.0,276.3 633.2,276.3 633.5,275.7 633.8,275.6 634.0,275.3 634.3,276.5 634.5,275.7 634.8,274.4 635.1,272.8 635.3,271.2 635.6,271.3 635.9,271.0 636.1,270.1 636.4,269.6 636.6,269.8 636.9,269.0 637.2,269.6 637.4,269.7 637.7,270.3 638.0,269.2 638.2,268.0 638.5,266.9 638.8,265.5 639.0,265.2 639.3,265.6 639.5,266.1 639.8,265.1 640.1,264.7 640.3,266.1 640.6,264.2 640.9,266.0 641.1,267.0 641.4,266.8 641.6,268.9 641.9,268.7 642.2,266.2 642.4,266.3 642.7,267.6 643.0,265.8 643.2,264.9 643.5,266.2 643.8,267.0 644.0,266.8 644.3,266.4 644.5,267.5 644.8,267.5 645.1,267.2 645.3,265.6 645.6,266.6 645.9,267.2 646.1,266.1 646.4,266.6 646.6,267.3 646.9,268.1 647.2,268.5 647.4,267.1 647.7,265.1 648.0,264.9 648.2,265.3 648.5,264.6 648.8,263.3 649.0,264.2 649.3,262.4 649.5,260.2 649.8,260.7 650.1,260.0 650.3,260.7 650.6,260.3 650.9,259.2 651.1,257.7 651.4,256.7 651.6,256.0 651.9,258.1 652.2,261.5 652.4,259.3 652.7,260.3 653.0,260.3 653.2,258.3 653.5,259.5 653.7,258.4 654.0,258.3 654.3,259.5 654.5,260.5 654.8,260.2 655.1,259.7 655.3,258.2 655.6,259.5 655.9,259.6 656.1,258.1 656.4,257.1 656.6,256.4 656.9,256.8 657.2,256.4 657.4,257.1 657.7,256.5 658.0,259.8 658.2,259.7 658.5,259.5 658.7,258.5 659.0,258.6 659.3,258.5 659.5,259.1 659.8,257.7 660.1,258.6 660.3,256.3 660.6,256.2 660.9,255.9 661.1,256.2 661.4,253.7 661.6,253.1 661.9,253.4 662.2,252.9 662.4,253.3 662.7,253.3 663.0,252.9 663.2,253.7 663.5,253.6 663.7,255.2 664.0,254.6 664.3,253.8 664.5,254.1 664.8,254.7 665.1,256.0 665.3,255.1 665.6,254.8 665.9,255.4 666.1,254.1 666.4,252.8 666.6,254.4 666.9,254.8 667.2,254.1 667.4,253.8 667.7,254.3 668.0,254.7 668.2,254.6 668.5,251.8 668.7,254.5 669.0,253.1 669.3,253.4 669.5,253.5 669.8,253.0 670.1,252.8 670.3,252.4 670.6,253.1 670.8,253.4 671.1,253.7 671.4,255.3 671.6,257.7 671.9,256.5 672.2,255.7 672.4,255.4 672.7,256.7 673.0,256.5 673.2,256.2 673.5,254.7 673.7,254.8 674.0,255.1 674.3,256.3 674.5,256.4 674.8,258.4 675.1,259.0 675.3,260.1 675.6,260.5 675.8,260.7 676.1,259.2 676.4,259.0 676.6,259.3 676.9,259.4 677.2,260.5 677.4,261.7 677.7,260.8 678.0,261.0 678.2,261.7 678.5,261.2 678.7,261.4 679.0,261.1 679.3,260.5 679.5,259.4 679.8,258.8 680.1,260.1 680.3,257.9 680.6,257.8 680.8,257.6 681.1,256.7 681.4,259.5 681.6,259.9 681.9,260.3 682.2,260.0 682.4,258.4 682.7,259.0 683.0,258.8 683.2,258.8 683.5,258.1 683.7,258.1 684.0,257.5 684.3,257.5 684.5,256.8 684.8,256.1 685.1,256.8 685.3,256.2 685.6,255.9 685.8,254.0 686.1,253.7 686.4,256.1 686.6,257.6 686.9,257.2 687.2,256.5 687.4,256.9 687.7,259.0 687.9,261.2 688.2,260.6 688.5,262.5 688.7,268.3 689.0,267.4 689.3,265.4 689.5,263.3 689.8,263.7 690.1,264.6 690.3,263.8 690.6,263.6 690.8,264.5 691.1,263.2 691.4,263.0 691.6,263.7 691.9,261.5 692.2,259.8 692.4,260.3 692.7,261.8 692.9,262.6 693.2,263.7 693.5,263.6 693.7,264.9 694.0,265.0 694.3,264.5 694.5,264.5 694.8,261.0 695.1,261.6 695.3,264.5 695.6,262.8 695.8,262.0 696.1,264.5 696.4,261.3 696.6,265.4 696.9,265.8 697.2,267.1 697.4,269.6 697.7,267.0 697.9,269.4 698.2,268.6 698.5,267.5 698.7,268.9 699.0,269.2 699.3,272.4 699.5,272.9 699.8,272.0 700.1,269.7 700.3,269.1 700.6,267.0 700.8,267.0 701.1,265.6 701.4,265.8 701.6,265.0 701.9,264.3 702.2,266.3 702.4,266.0 702.7,262.9 702.9,261.9 703.2,262.3 703.5,259.7 703.7,259.2 704.0,258.4 704.3,259.3 704.5,257.1 704.8,256.6 705.0,255.9 705.3,256.6 705.6,255.9 705.8,254.9 706.1,257.6 706.4,256.5 706.6,256.8 706.9,257.6 707.2,258.5 707.4,258.6 707.7,257.2 707.9,258.4 708.2,258.4 708.5,259.5 708.7,257.7 709.0,252.5 709.3,252.1 709.5,253.3 709.8,248.8 710.0,248.2 710.3,249.8 710.6,248.2 710.8,249.8 711.1,245.2 711.4,245.3 711.6,242.6 711.9,245.2 712.2,243.4 712.4,235.7 712.7,235.6 712.9,231.0 713.2,232.1 713.5,229.1 713.7,227.9 714.0,231.1 714.3,231.0 714.5,230.4 714.8,221.4 715.0,211.5 715.3,202.1 715.6,202.9 715.8,191.2 716.1,178.2 716.4,184.3 716.6,181.9 716.9,183.4 717.2,176.5 717.4,182.7 717.7,186.0 717.9,185.7 718.2,199.0 718.5,186.9 718.7,181.3 719.0,180.7 719.3,173.7 719.5,159.1 719.8,175.2 720.0,178.6 720.3,173.7 720.6,168.5 720.8,161.9 721.1,147.9 721.4,151.1 721.6,161.7 721.9,161.5 722.1,165.5 722.4,163.6 722.7,168.7 722.9,168.3 723.2,173.7 723.5,175.2 723.7,173.3 724.0,173.3 724.3,170.6 724.5,178.4 724.8,182.7 725.0,178.9 725.3,175.9 725.6,171.1 725.8,175.9 726.1,175.6 726.4,164.0 726.6,172.7 726.9,166.5 727.1,162.1 727.4,161.2 727.7,164.4 727.9,171.8 728.2,175.4 728.5,180.4 728.7,174.4 729.0,173.3 729.3,168.3 729.5,162.4 729.8,166.2 730.0,169.8 730.3,167.1 730.6,172.0 730.8,173.7 731.1,166.0 731.4,169.1 731.6,164.8 731.9,160.7 732.1,161.2 732.4,162.1 732.7,175.5 732.9,169.9 733.2,168.4 733.5,171.9 733.7,176.4 734.0,176.0 734.2,178.4 734.5,178.4 734.8,181.6 735.0,181.3 735.3,183.4 735.6,188.6 735.8,189.2 736.1,179.6 736.4,178.1 736.6,178.9 736.9,182.4 737.1,180.0 737.4,176.7 737.7,178.4 737.9,181.0 738.2,178.8 738.5,188.9 738.7,189.4 739.0,181.2 739.2,183.8 739.5,188.0 739.8,191.9 740.0,196.0 740.3,190.3 740.6,189.1 740.8,187.0 741.1,183.1 741.4,186.2 741.6,184.6 741.9,183.3 742.1,183.3 742.4,181.3 742.7,181.6 742.9,182.0 743.2,181.0 743.5,172.9 743.7,172.7 744.0,176.8 744.2,172.9 744.5,174.2 744.8,168.8 745.0,165.4 745.3,164.0 745.6,160.3 745.8,166.2 746.1,157.7 746.4,152.2 746.6,145.1 746.9,141.4 747.1,136.5 747.4,137.5 747.7,139.3 747.9,133.6 748.2,119.9 748.5,112.9 748.7,112.4 749.0,115.9 749.2,99.6 749.5,113.8 749.8,108.5 750.0,93.8 750.3,107.4 750.6,121.2 750.8,121.6 751.1,125.7 751.3,130.0 751.6,126.6 751.9,127.3 752.1,119.5 752.4,101.7 752.7,108.8 752.9,109.5 753.2,116.6 753.5,111.7 753.7,103.1 754.0,85.4 754.2,78.3 754.5,86.8 754.8,74.1 755.0,66.2 755.3,65.0 755.6,45.0 755.8,50.7 756.1,56.3 756.3,79.7 756.6,84.1 756.9,97.0 757.1,93.8 757.4,101.8 757.7,90.0 757.9,96.0 758.2,90.0 758.5,100.6 758.7,103.2 759.0,122.3 759.2,120.0 759.5,107.7 759.8,106.1 760.0,100.7 760.3,109.0 760.6,109.8 760.8,101.7 761.1,98.4 761.3,102.7 761.6,99.1 761.9,107.4 762.1,110.9 762.4,108.1 762.7,97.9 762.9,96.1 763.2,94.7 763.5,103.1 763.7,91.8 764.0,83.6 764.2,95.2 764.5,98.9 764.8,98.7 765.0,106.3 765.3,110.7 765.6,131.7 765.8,115.8 766.1,119.4 766.3,117.5 766.6,111.3 766.9,112.4 767.1,108.4 767.4,110.2 767.7,107.9 767.9,108.5 768.2,102.4 768.4,100.3 768.7,100.1 769.0,98.9 769.2,110.5 769.5,115.9 769.8,108.2 770.0,108.1 770.3,105.3 770.6,111.0 770.8,100.6 771.1,93.6 771.3,94.6 771.6,88.6 771.9,89.6 772.1,94.6 772.4,93.0 772.7,79.5 772.9,79.0 773.2,75.8 773.4,75.9 773.7,82.9 774.0,83.2 774.2,89.4 774.5,89.0 774.8,93.5 775.0,95.3 775.3,95.1 775.6,98.3 775.8,97.8 776.1,99.6 776.3,109.0 776.6,114.7 776.9,117.3 777.1,116.3 777.4,120.2 777.7,116.3 777.9,108.9 778.2,110.8 778.4,109.0 778.7,101.1 779.0,105.4 779.2,106.6 779.5,106.6 779.8,120.1 780.0,121.0 780.3,119.8 780.6,124.5 780.8,128.5 781.1,131.5 781.3,116.8 781.6,114.6 781.9,119.3 782.1,117.4 782.4,124.5 782.7,113.6 782.9,111.3 783.2,117.6 783.4,119.5 783.7,122.6 784.0,133.0 784.2,139.4 784.5,141.7 784.8,136.6 785.0,148.7 785.3,149.9 785.5,139.5 785.8,138.7 786.1,138.7 786.3,140.9 786.6,134.9 786.9,129.9 787.1,135.9 787.4,140.1 787.7,136.8 787.9,133.1 788.2,145.9 788.4,152.5 788.7,152.2 789.0,157.8 789.2,155.0 789.5,149.3 789.8,144.5 790.0,145.7 790.3,149.2 790.5,149.8 790.8,157.8 791.1,152.1 791.3,157.9 791.6,152.0 791.9,147.3 792.1,142.6 792.4,142.8 792.7,145.8 792.9,138.7 793.2,141.4 793.4,144.5 793.7,153.0 794.0,148.4 794.2,142.6 794.5,150.7 794.8,153.3 795.0,144.4 795.3,137.5 795.5,139.4 795.8,141.4 796.1,135.2 796.3,127.8 796.6,132.7 796.9,130.0 797.1,122.2 797.4,125.8 797.7,128.3 797.9,135.3 798.2,135.8 798.4,135.5 798.7,137.3 799.0,128.7 799.2,132.0 799.5,131.6 799.8,136.6 800.0,132.0 800.3,129.1 800.5,148.3 800.8,161.6 801.1,157.7 801.3,153.9 801.6,156.0 801.9,157.0 802.1,158.2 802.4,158.6 802.6,157.4 802.9,161.1 803.2,156.6 803.4,153.7 803.7,156.2 804.0,160.7 804.2,159.9 804.5,161.1 804.8,163.3 805.0,163.0 805.3,169.5 805.5,169.9 805.8,175.6 806.1,174.0 806.3,175.9 806.6,176.6 806.9,175.0 807.1,169.4 807.4,168.7 807.6,166.9 807.9,157.7 808.2,156.8 808.4,157.1 808.7,158.0 809.0,161.3 809.2,160.1 809.5,165.6 809.8,169.0 810.0,167.2 810.3,169.4 810.5,170.5 810.8,165.2 811.1,163.7 811.3,161.7 811.6,166.5 811.9,165.4 812.1,164.1 812.4,167.9 812.6,167.8 812.9,170.7 813.2,172.4 813.4,172.9 813.7,177.1 814.0,169.4 814.2,172.9 814.5,177.6 814.7,184.7 815.0,184.5 815.3,186.0 815.5,182.3 815.8,177.4 816.1,172.7 816.3,173.2 816.6,172.7 816.9,175.3 817.1,173.2 817.4,170.2 817.6,170.5 817.9,168.9 818.2,160.8 818.4,159.8 818.7,158.3 819.0,161.6 819.2,160.7 819.5,163.3 819.7,162.7 820.0,166.8 820.3,170.2 820.5,170.2 820.8,175.1 821.1,170.7 821.3,176.1 821.6,172.0 821.9,176.1 822.1,179.2 822.4,176.9 822.6,186.3 822.9,185.4 823.2,186.6 823.4,187.4 823.7,187.5 824.0,198.6 824.2,206.4 824.5,199.3 824.7,195.4 825.0,194.7 825.3,197.2 825.5,199.2 825.8,199.9 826.1,201.7 826.3,204.4 826.6,206.8 826.9,209.2 827.1,201.3 827.4,203.3 827.6,196.3 827.9,203.5 828.2,202.9 828.4,203.2 828.7,209.2 829.0,198.1 829.2,197.9 829.5,191.0 829.7,190.6 830.0,191.5 830.3,193.2 830.5,190.6 830.8,195.6 831.1,194.3 831.3,196.8 831.6,192.2 831.8,189.3 832.1,191.0 832.4,190.8 832.6,192.4 832.9,203.8 833.2,206.4 833.4,202.2 833.7,194.6 834.0,197.9 834.2,197.2 834.5,196.2 834.7,195.8 835.0,199.1 835.3,200.9 835.5,195.2 835.8,201.6 836.1,203.3 836.3,202.4 836.6,204.3 836.8,202.9 837.1,197.9 837.4,194.5 837.6,195.1 837.9,195.5 838.2,191.5 838.4,188.8 838.7,183.9 839.0,187.3 839.2,186.7 839.5,193.4 839.7,191.5 840.0,190.8 840.3,190.8 840.5,184.8 840.8,180.1 841.1,179.8 841.3,183.4 841.6,178.3 841.8,177.1 842.1,167.7 842.4,161.6 842.6,164.3 842.9,154.4 843.2,160.0 843.4,159.3 843.7,163.0 844.0,171.2 844.2,171.2 844.5,169.4 844.7,172.7 845.0,175.4 845.3,173.9 845.5,171.1 845.8,173.8 846.1,172.2 846.3,170.4 846.6,166.2 846.8,170.5 847.1,166.4 847.4,162.8 847.6,163.3 847.9,166.2 848.2,162.5 848.4,169.8 848.7,168.5 848.9,172.4 849.2,176.9 849.5,176.6 849.7,177.7 850.0,184.4 850.3,178.7 850.5,179.8 850.8,176.0 851.1,180.0 851.3,180.7 851.6,183.9 851.8,181.8 852.1,185.1 852.4,185.5 852.6,181.8 852.9,181.9 853.2,184.2 853.4,182.0 853.7,182.3 853.9,182.5 854.2,183.8 854.5,180.1 854.7,186.4 855.0,191.0"/>
</svg>
