<svg xmlns="http://www.w3.org/2000/svg" width="900" height="360">
<rect width="100%" height="100%" fill="white"/>
<text x="30" y="20" font-size="16">中证500指数 价格</text>
<polyline fill="none" stroke="#1f77b4" stroke-width="2" points="30.0,321.6 30.2,322.0 30.4,321.5 30.6,321.8 30.8,321.7 31.0,321.4 31.2,321.4 31.4,321.4 31.6,321.3 31.8,321.6 32.0,322.2 32.2,321.9 32.3,322.0 32.5,322.4 32.7,321.9 32.9,321.4 33.1,321.6 33.3,322.0 33.5,322.4 33.7,322.9 33.9,323.8 34.1,324.0 34.3,322.6 34.5,323.1 34.7,322.7 34.9,322.4 35.1,322.2 35.3,322.6 35.5,322.1 35.7,321.4 35.9,321.1 36.1,320.9 36.3,321.0 36.5,321.0 36.6,321.0 36.8,321.4 37.0,321.3 37.2,321.5 37.4,321.4 37.6,320.8 37.8,320.7 38.0,321.5 38.2,321.4 38.4,321.4 38.6,321.8 38.8,322.1 39.0,322.4 39.2,323.0 39.4,323.0 39.6,323.8 39.8,323.7 40.0,323.5 40.2,323.5 40.4,323.7 40.6,323.9 40.8,324.7 41.0,324.5 41.1,323.6 41.3,324.1 41.5,324.3 41.7,323.9 41.9,323.5 42.1,323.0 42.3,323.0 42.5,323.6 42.7,323.0 42.9,323.4 43.1,324.0 43.3,324.4 43.5,324.3 43.7,324.8 43.9,325.3 44.1,325.6 44.3,326.0 44.5,325.6 44.7,326.0 44.9,325.5 45.1,325.8 45.3,326.6 45.5,326.6 45.6,326.8 45.8,326.9 46.0,326.7 46.2,326.9 46.4,326.6 46.6,326.5 46.8,326.5 47.0,326.6 47.2,327.3 47.4,326.9 47.6,326.9 47.8,327.2 48.0,327.4 48.2,327.2 48.4,327.2 48.6,327.7 48.8,328.0 49.0,328.1 49.2,327.8 49.4,327.7 49.6,326.0 49.8,325.8 49.9,326.3 50.1,326.2 50.3,326.6 50.5,327.3 50.7,327.0 50.9,327.1 51.1,326.5 51.3,326.7 51.5,326.6 51.7,326.9 51.9,326.8 52.1,326.2 52.3,326.6 52.5,326.8 52.7,327.4 52.9,328.2 53.1,328.5 53.3,328.7 53.5,328.7 53.7,328.6 53.9,329.3 54.1,329.5 54.3,328.8 54.4,329.0 54.6,329.0 54.8,329.5 55.0,330.0 55.2,329.8 55.4,329.7 55.6,329.8 55.8,329.3 56.0,329.4 56.2,328.9 56.4,328.5 56.6,328.6 56.8,328.7 57.0,328.5 57.2,328.2 57.4,328.0 57.6,328.1 57.8,327.5 58.0,327.1 58.2,326.8 58.4,326.5 58.6,326.2 58.7,326.7 58.9,326.1 59.1,326.1 59.3,325.6 59.5,326.6 59.7,326.6 59.9,326.3 60.1,326.7 60.3,326.4 60.5,326.1 60.7,326.0 60.9,326.3 61.1,326.4 61.3,325.9 61.5,325.3 61.7,325.1 61.9,324.8 62.1,325.4 62.3,324.7 62.5,324.7 62.7,324.9 62.9,324.8 63.1,324.3 63.2,324.0 63.4,323.9 63.6,323.9 63.8,323.5 64.0,323.7 64.2,324.1 64.4,324.9 64.6,325.3 64.8,325.1 65.0,325.6 65.2,325.7 65.4,325.2 65.6,325.2 65.8,325.5 66.0,325.0 66.2,324.7 66.4,324.8 66.6,325.0 66.8,325.0 67.0,324.6 67.2,324.8 67.4,324.8 67.6,324.5 67.7,324.4 67.9,325.0 68.1,325.7 68.3,325.8 68.5,326.5 68.7,326.4 68.9,326.5 69.1,326.0 69.3,326.3 69.5,326.2 69.7,326.0 69.9,325.8 70.1,325.9 70.3,326.6 70.5,326.5 70.7,326.4 70.9,326.6 71.1,326.4 71.3,326.4 71.5,325.9 71.7,325.8 71.9,326.3 72.0,326.1 72.2,326.0 72.4,326.0 72.6,326.1 72.8,326.4 73.0,326.3 73.2,326.4 73.4,326.7 73.6,327.2 73.8,327.2 74.0,327.0 74.2,327.0 74.4,326.6 74.6,326.5 74.8,326.5 75.0,326.2 75.2,326.4 75.4,326.2 75.6,326.2 75.8,326.1 76.0,326.3 76.2,326.2 76.4,325.9 76.5,325.7 76.7,325.6 76.9,325.6 77.1,325.3 77.3,325.5 77.5,325.2 77.7,324.9 77.9,324.6 78.1,324.2 78.3,324.1 78.5,324.2 78.7,323.6 78.9,323.5 79.1,323.8 79.3,323.8 79.5,323.3 79.7,323.0 79.9,322.9 80.1,322.7 80.3,322.7 80.5,322.8 80.7,322.1 80.8,322.1 81.0,322.1 81.2,322.5 81.4,322.1 81.6,322.2 81.8,322.0 82.0,322.0 82.2,322.8 82.4,323.0 82.6,323.2 82.8,322.7 83.0,322.7 83.2,322.8 83.4,322.5 83.6,322.6 83.8,322.6 84.0,322.4 84.2,322.9 84.4,322.9 84.6,322.9 84.8,323.6 85.0,323.7 85.2,323.8 85.3,323.8 85.5,323.6 85.7,323.5 85.9,323.2 86.1,323.1 86.3,323.2 86.5,322.8 86.7,322.7 86.9,322.4 87.1,322.1 87.3,322.3 87.5,322.1 87.7,321.8 87.9,321.7 88.1,322.0 88.3,321.6 88.5,320.9 88.7,320.6 88.9,320.3 89.1,320.1 89.3,319.7 89.5,319.1 89.7,319.0 89.8,319.0 90.0,319.9 90.2,319.2 90.4,319.0 90.6,318.9 90.8,318.8 91.0,319.1 91.2,318.8 91.4,319.0 91.6,318.8 91.8,318.4 92.0,318.2 92.2,317.7 92.4,316.6 92.6,315.6 92.8,314.9 93.0,315.0 93.2,313.8 93.4,312.1 93.6,313.4 93.8,312.8 94.0,312.5 94.1,311.5 94.3,310.9 94.5,312.6 94.7,313.1 94.9,312.6 95.1,311.8 95.3,310.9 95.5,310.3 95.7,310.5 95.9,309.0 96.1,309.0 96.3,308.2 96.5,308.6 96.7,311.4 96.9,311.2 97.1,312.0 97.3,311.9 97.5,311.6 97.7,312.0 97.9,311.9 98.1,311.0 98.3,310.6 98.5,310.1 98.6,310.3 98.8,310.2 99.0,309.7 99.2,309.0 99.4,308.8 99.6,308.8 99.8,308.1 100.0,308.2 100.2,307.4 100.4,307.5 100.6,307.9 100.8,306.7 101.0,306.7 101.2,306.4 101.4,306.1 101.6,306.1 101.8,308.9 102.0,308.6 102.2,307.9 102.4,307.6 102.6,308.6 102.8,308.2 102.9,308.0 103.1,307.9 103.3,307.3 103.5,307.1 103.7,307.6 103.9,308.0 104.1,309.9 104.3,310.3 104.5,310.5 104.7,310.5 104.9,311.8 105.1,312.7 105.3,311.5 105.5,311.5 105.7,310.8 105.9,310.6 106.1,311.7 106.3,311.0 106.5,310.4 106.7,310.7 106.9,311.0 107.1,310.8 107.3,310.3 107.4,310.5 107.6,310.1 107.8,310.0 108.0,309.0 108.2,309.0 108.4,308.7 108.6,308.3 108.8,309.1 109.0,308.2 109.2,308.1 109.4,307.9 109.6,308.6 109.8,308.5 110.0,308.3 110.2,308.1 110.4,308.7 110.6,308.7 110.8,308.2 111.0,307.6 111.2,307.4 111.4,307.3 111.6,307.2 111.8,307.5 111.9,307.4 112.1,307.6 112.3,307.2 112.5,306.8 112.7,306.4 112.9,305.6 113.1,305.3 113.3,305.3 113.5,305.9 113.7,305.7 113.9,305.9 114.1,305.9 114.3,305.3 114.5,305.1 114.7,305.4 114.9,306.8 115.1,305.7 115.3,306.0 115.5,306.2 115.7,307.0 115.9,307.0 116.1,306.6 116.2,306.4 116.4,306.5 116.6,306.4 116.8,306.7 117.0,307.1 117.2,307.2 117.4,306.7 117.6,307.8 117.8,309.3 118.0,308.8 118.2,308.2 118.4,308.8 118.6,308.4 118.8,308.7 119.0,308.4 119.2,307.8 119.4,307.5 119.6,306.9 119.8,305.9 120.0,305.7 120.2,305.1 120.4,304.4 120.6,304.2 120.7,303.3 120.9,302.9 121.1,303.7 121.3,304.1 121.5,305.8 121.7,304.4 121.9,304.3 122.1,304.1 122.3,303.3 122.5,302.5 122.7,301.8 122.9,301.6 123.1,300.7 123.3,301.2 123.5,301.5 123.7,301.0 123.9,301.5 124.1,301.2 124.3,302.1 124.5,301.5 124.7,301.6 124.9,300.3 125.1,298.1 125.2,297.0 125.4,295.6 125.6,295.3 125.8,297.2 126.0,294.3 126.2,292.4 126.4,293.0 126.6,291.6 126.8,289.6 127.0,286.8 127.2,286.7 127.4,286.1 127.6,289.1 127.8,288.8 128.0,286.8 128.2,286.9 128.4,290.0 128.6,289.4 128.8,290.5 129.0,289.8 129.2,288.5 129.4,287.4 129.5,286.3 129.7,286.0 129.9,284.5 130.1,283.3 130.3,281.9 130.5,279.8 130.7,279.0 130.9,276.2 131.1,282.8 131.3,279.8 131.5,281.3 131.7,280.0 131.9,279.8 132.1,279.7 132.3,277.9 132.5,276.4 132.7,276.3 132.9,274.7 133.1,273.8 133.3,274.4 133.5,272.9 133.7,274.3 133.9,273.2 134.0,271.5 134.2,270.2 134.4,270.2 134.6,269.1 134.8,266.6 135.0,265.2 135.2,266.2 135.4,269.2 135.6,268.4 135.8,266.5 136.0,265.1 136.2,264.1 136.4,262.6 136.6,261.3 136.8,259.7 137.0,259.1 137.2,257.7 137.4,255.6 137.6,256.4 137.8,253.6 138.0,250.9 138.2,248.3 138.3,254.3 138.5,249.3 138.7,244.7 138.9,243.6 139.1,244.1 139.3,242.7 139.5,242.9 139.7,241.3 139.9,236.1 140.1,235.9 140.3,235.1 140.5,235.6 140.7,235.0 140.9,238.7 141.1,235.4 141.3,232.5 141.5,232.2 141.7,228.6 141.9,225.9 142.1,222.6 142.3,222.9 142.5,220.7 142.7,217.6 142.8,215.1 143.0,226.0 143.2,231.3 143.4,239.8 143.6,249.2 143.8,248.1 144.0,245.9 144.2,240.4 144.4,238.6 144.6,235.8 144.8,232.6 145.0,228.4 145.2,230.0 145.4,229.9 145.6,226.5 145.8,224.0 146.0,227.7 146.2,228.3 146.4,235.3 146.6,242.8 146.8,240.6 147.0,238.0 147.2,245.4 147.3,250.1 147.5,248.5 147.7,246.8 147.9,249.1 148.1,255.8 148.3,250.0 148.5,246.6 148.7,249.6 148.9,248.2 149.1,247.8 149.3,248.2 149.5,251.6 149.7,249.4 149.9,249.0 150.1,248.6 150.3,244.5 150.5,239.1 150.7,238.9 150.9,235.7 151.1,233.4 151.3,231.2 151.5,228.9 151.6,227.5 151.8,234.2 152.0,229.3 152.2,227.4 152.4,224.7 152.6,225.7 152.8,227.7 153.0,226.4 153.2,229.0 153.4,229.5 153.6,226.6 153.8,227.2 154.0,226.5 154.2,227.9 154.4,222.9 154.6,221.4 154.8,219.7 155.0,218.4 155.2,218.1 155.4,218.6 155.6,218.5 155.8,219.3 156.0,215.3 156.1,213.8 156.3,210.8 156.5,211.5 156.7,210.7 156.9,209.2 157.1,212.7 157.3,209.9 157.5,218.8 157.7,217.3 157.9,214.5 158.1,212.8 158.3,209.7 158.5,208.3 158.7,210.2 158.9,208.8 159.1,210.2 159.3,209.5 159.5,210.6 159.7,212.9 159.9,211.8 160.1,208.7 160.3,208.6 160.4,207.1 160.6,208.0 160.8,210.9 161.0,214.0 161.2,214.0 161.4,212.6 161.6,213.0 161.8,216.1 162.0,216.2 162.2,219.6 162.4,219.6 162.6,222.2 162.8,231.7 163.0,232.3 163.2,230.7 163.4,227.9 163.6,223.4 163.8,226.7 164.0,229.5 164.2,228.7 164.4,227.7 164.6,228.0 164.8,233.0 164.9,234.4 165.1,235.9 165.3,235.5 165.5,231.4 165.7,232.8 165.9,232.7 166.1,230.0 166.3,228.4 166.5,230.1 166.7,235.5 166.9,233.3 167.1,234.5 167.3,235.6 167.5,236.5 167.7,233.5 167.9,235.3 168.1,234.0 168.3,233.3 168.5,231.1 168.7,230.6 168.9,228.6 169.1,225.3 169.3,223.9 169.4,223.6 169.6,227.5 169.8,224.8 170.0,224.7 170.2,225.7 170.4,223.0 170.6,221.5 170.8,219.5 171.0,217.3 171.2,216.1 171.4,213.4 171.6,212.0 171.8,212.5 172.0,207.6 172.2,204.6 172.4,204.3 172.6,201.4 172.8,205.5 173.0,201.2 173.2,200.4 173.4,200.6 173.6,198.7 173.7,197.5 173.9,199.6 174.1,203.5 174.3,202.2 174.5,208.3 174.7,220.4 174.9,213.4 175.1,208.8 175.3,208.3 175.5,218.2 175.7,215.4 175.9,215.1 176.1,220.3 176.3,226.0 176.5,216.0 176.7,215.5 176.9,216.2 177.1,213.5 177.3,214.2 177.5,209.8 177.7,207.3 177.9,208.5 178.1,206.8 178.2,210.2 178.4,214.6 178.6,214.6 178.8,211.6 179.0,211.3 179.2,209.4 179.4,204.7 179.6,205.7 179.8,205.1 180.0,204.8 180.2,207.8 180.4,212.4 180.6,210.6 180.8,214.3 181.0,219.6 181.2,220.3 181.4,230.3 181.6,239.0 181.8,233.8 182.0,229.0 182.2,227.4 182.4,230.0 182.5,228.5 182.7,228.9 182.9,235.3 183.1,232.0 183.3,237.4 183.5,246.8 183.7,252.5 183.9,250.0 184.1,243.6 184.3,241.2 184.5,247.1 184.7,244.1 184.9,242.5 185.1,249.5 185.3,246.3 185.5,248.8 185.7,252.2 185.9,257.0 186.1,257.6 186.3,258.9 186.5,255.0 186.7,246.3 186.9,245.4 187.0,246.1 187.2,245.3 187.4,241.3 187.6,237.6 187.8,238.0 188.0,242.8 188.2,239.1 188.4,239.0 188.6,236.7 188.8,236.5 189.0,234.0 189.2,235.0 189.4,236.7 189.6,236.7 189.8,243.8 190.0,241.2 190.2,242.2 190.4,243.4 190.6,246.2 190.8,245.8 191.0,242.9 191.2,245.6 191.4,245.4 191.5,244.5 191.7,245.0 191.9,246.8 192.1,248.1 192.3,248.9 192.5,257.7 192.7,260.0 192.9,260.9 193.1,265.1 193.3,266.9 193.5,272.1 193.7,267.6 193.9,274.5 194.1,272.8 194.3,274.1 194.5,271.7 194.7,267.2 194.9,266.2 195.1,272.0 195.3,271.5 195.5,272.8 195.7,271.5 195.8,267.9 196.0,267.9 196.2,263.7 196.4,262.4 196.6,260.1 196.8,262.1 197.0,262.6 197.2,260.8 197.4,263.4 197.6,267.7 197.8,268.6 198.0,265.9 198.2,262.5 198.4,262.2 198.6,262.9 198.8,260.8 199.0,261.6 199.2,260.3 199.4,262.2 199.6,262.6 199.8,265.8 200.0,264.5 200.2,266.6 200.3,269.1 200.5,269.0 200.7,268.4 200.9,274.3 201.1,279.9 201.3,280.9 201.5,280.9 201.7,280.6 201.9,280.9 202.1,286.0 202.3,284.9 202.5,279.6 202.7,282.0 202.9,283.4 203.1,283.6 203.3,287.2 203.5,287.4 203.7,287.4 203.9,285.5 204.1,287.4 204.3,286.9 204.5,287.4 204.6,286.9 204.8,289.9 205.0,292.9 205.2,292.4 205.4,292.0 205.6,293.0 205.8,292.9 206.0,294.1 206.2,295.2 206.4,296.7 206.6,291.6 206.8,288.9 207.0,292.8 207.2,291.5 207.4,290.1 207.6,290.2 207.8,292.5 208.0,292.7 208.2,294.1 208.4,294.8 208.6,298.5 208.8,297.5 209.0,299.0 209.1,299.3 209.3,302.1 209.5,301.5 209.7,299.9 209.9,300.0 210.1,300.9 210.3,300.4 210.5,301.1 210.7,304.9 210.9,303.9 211.1,305.7 211.3,305.3 211.5,306.1 211.7,306.7 211.9,307.4 212.1,306.0 212.3,306.8 212.5,306.1 212.7,302.9 212.9,303.3 213.1,302.1 213.3,299.9 213.5,297.6 213.6,295.1 213.8,299.0 214.0,295.5 214.2,295.4 214.4,296.1 214.6,298.3 214.8,298.7 215.0,298.5 215.2,297.8 215.4,298.3 215.6,296.2 215.8,295.1 216.0,292.9 216.2,292.9 216.4,291.2 216.6,288.7 216.8,290.2 217.0,288.6 217.2,290.4 217.4,293.1 217.6,291.9 217.8,290.9 217.9,290.2 218.1,289.1 218.3,288.6 218.5,288.6 218.7,292.5 218.9,293.7 219.1,293.9 219.3,294.4 219.5,294.4 219.7,294.8 219.9,295.6 220.1,293.4 220.3,291.4 220.5,291.1 220.7,292.5 220.9,291.0 221.1,290.2 221.3,291.7 221.5,289.5 221.7,289.0 221.9,288.6 222.1,288.6 222.3,288.0 222.4,287.9 222.6,286.9 222.8,287.4 223.0,285.5 223.2,283.7 223.4,282.2 223.6,283.3 223.8,280.3 224.0,277.9 224.2,275.9 224.4,275.8 224.6,274.4 224.8,271.7 225.0,270.3 225.2,273.5 225.4,276.5 225.6,275.0 225.8,272.5 226.0,269.9 226.2,273.1 226.4,272.6 226.6,278.2 226.7,282.4 226.9,280.7 227.1,280.1 227.3,276.0 227.5,275.4 227.7,275.9 227.9,279.1 228.1,277.3 228.3,277.7 228.5,277.5 228.7,278.2 228.9,277.3 229.1,274.6 229.3,273.7 229.5,271.9 229.7,272.3 229.9,270.6 230.1,270.0 230.3,272.2 230.5,270.4 230.7,269.7 230.9,269.5 231.1,268.7 231.2,267.3 231.4,267.3 231.6,268.1 231.8,267.2 232.0,270.0 232.2,268.7 232.4,266.1 232.6,264.9 232.8,263.6 233.0,262.3 233.2,261.9 233.4,263.0 233.6,260.6 233.8,260.6 234.0,265.1 234.2,264.7 234.4,265.3 234.6,268.6 234.8,267.4 235.0,265.2 235.2,263.9 235.4,261.1 235.6,260.2 235.7,259.0 235.9,259.6 236.1,259.2 236.3,262.6 236.5,260.4 236.7,259.8 236.9,259.5 237.1,258.8 237.3,258.1 237.5,257.3 237.7,257.8 237.9,259.5 238.1,259.3 238.3,258.8 238.5,258.7 238.7,258.7 238.9,257.1 239.1,256.5 239.3,255.8 239.5,255.9 239.7,256.5 239.9,256.6 240.0,256.2 240.2,255.2 240.4,255.7 240.6,257.8 240.8,256.4 241.0,256.7 241.2,255.1 241.4,254.4 241.6,254.3 241.8,255.1 242.0,255.5 242.2,254.4 242.4,254.5 242.6,253.9 242.8,253.1 243.0,253.8 243.2,252.4 243.4,251.4 243.6,250.1 243.8,249.9 244.0,250.0 244.2,248.8 244.4,246.9 244.5,246.4 244.7,245.5 244.9,243.8 245.1,242.8 245.3,243.4 245.5,242.7 245.7,240.9 245.9,243.5 246.1,241.6 246.3,240.5 246.5,241.2 246.7,239.4 246.9,238.0 247.1,245.2 247.3,244.1 247.5,240.6 247.7,238.1 247.9,236.7 248.1,236.7 248.3,238.2 248.5,241.6 248.7,240.5 248.8,240.0 249.0,245.0 249.2,244.8 249.4,249.5 249.6,256.4 249.8,254.6 250.0,259.5 250.2,256.0 250.4,253.4 250.6,251.3 250.8,252.9 251.0,249.9 251.2,248.9 251.4,251.6 251.6,258.6 251.8,259.5 252.0,259.0 252.2,254.5 252.4,252.8 252.6,251.7 252.8,249.9 253.0,249.4 253.2,250.2 253.3,248.6 253.5,245.9 253.7,244.9 253.9,244.7 254.1,242.3 254.3,245.9 254.5,244.1 254.7,246.7 254.9,249.8 255.1,250.6 255.3,251.5 255.5,254.3 255.7,256.0 255.9,255.2 256.1,250.4 256.3,249.8 256.5,248.1 256.7,247.2 256.9,246.8 257.1,246.5 257.3,244.0 257.5,242.4 257.7,243.1 257.8,242.6 258.0,241.2 258.2,241.1 258.4,244.0 258.6,242.9 258.8,244.8 259.0,243.4 259.2,239.9 259.4,237.2 259.6,236.4 259.8,235.2 260.0,234.6 260.2,233.8 260.4,233.6 260.6,233.1 260.8,232.8 261.0,231.3 261.2,228.6 261.4,227.9 261.6,227.4 261.8,225.5 262.0,224.6 262.1,222.3 262.3,229.0 262.5,224.5 262.7,229.6 262.9,232.7 263.1,227.5 263.3,224.1 263.5,222.3 263.7,221.5 263.9,224.7 264.1,222.6 264.3,222.9 264.5,224.9 264.7,223.8 264.9,223.9 265.1,224.5 265.3,224.2 265.5,224.7 265.7,228.6 265.9,233.0 266.1,231.6 266.3,234.9 266.5,232.8 266.6,229.1 266.8,228.3 267.0,226.3 267.2,225.8 267.4,226.3 267.6,225.2 267.8,224.5 268.0,223.2 268.2,223.4 268.4,226.0 268.6,224.4 268.8,223.6 269.0,221.0 269.2,222.3 269.4,218.9 269.6,218.0 269.8,215.7 270.0,215.7 270.2,220.7 270.4,220.2 270.6,223.8 270.8,225.4 270.9,230.5 271.1,231.3 271.3,229.4 271.5,228.3 271.7,229.5 271.9,230.3 272.1,228.6 272.3,227.4 272.5,230.1 272.7,230.1 272.9,230.0 273.1,228.5 273.3,228.8 273.5,227.2 273.7,227.1 273.9,226.0 274.1,223.3 274.3,221.2 274.5,221.1 274.7,219.7 274.9,219.6 275.1,217.7 275.3,222.4 275.4,221.9 275.6,220.6 275.8,220.4 276.0,222.1 276.2,223.1 276.4,225.0 276.6,226.1 276.8,225.1 277.0,221.6 277.2,221.2 277.4,220.3 277.6,219.6 277.8,220.4 278.0,219.8 278.2,221.5 278.4,219.7 278.6,218.7 278.8,218.1 279.0,217.8 279.2,215.8 279.4,215.3 279.6,215.1 279.8,214.8 279.9,214.7 280.1,212.7 280.3,211.7 280.5,213.2 280.7,211.6 280.9,213.4 281.1,213.8 281.3,219.6 281.5,217.9 281.7,213.9 281.9,213.7 282.1,214.8 282.3,214.7 282.5,218.2 282.7,218.9 282.9,223.1 283.1,226.5 283.3,226.7 283.5,223.0 283.7,227.1 283.9,229.0 284.1,231.2 284.2,234.7 284.4,237.5 284.6,234.3 284.8,233.5 285.0,241.0 285.2,239.4 285.4,239.3 285.6,241.4 285.8,239.1 286.0,234.1 286.2,235.0 286.4,234.7 286.6,232.6 286.8,232.2 287.0,235.8 287.2,237.9 287.4,236.3 287.6,237.2 287.8,236.2 288.0,236.7 288.2,235.6 288.4,232.8 288.6,232.5 288.7,233.2 288.9,234.6 289.1,239.4 289.3,236.3 289.5,235.4 289.7,236.0 289.9,236.0 290.1,237.9 290.3,239.7 290.5,245.9 290.7,247.9 290.9,249.5 291.1,250.1 291.3,250.7 291.5,247.9 291.7,246.4 291.9,247.0 292.1,244.0 292.3,242.8 292.5,244.5 292.7,243.5 292.9,246.0 293.1,245.4 293.2,243.0 293.4,240.0 293.6,239.8 293.8,238.2 294.0,238.2 294.2,236.7 294.4,236.8 294.6,234.2 294.8,233.3 295.0,233.4 295.2,231.3 295.4,233.3 295.6,231.8 295.8,231.3 296.0,228.8 296.2,227.2 296.4,231.8 296.6,230.4 296.8,232.0 297.0,229.7 297.2,227.0 297.4,226.0 297.5,226.0 297.7,225.9 297.9,228.5 298.1,227.5 298.3,226.0 298.5,228.5 298.7,227.6 298.9,226.7 299.1,223.4 299.3,222.4 299.5,224.0 299.7,221.4 299.9,220.3 300.1,220.6 300.3,219.9 300.5,218.7 300.7,220.5 300.9,219.2 301.1,216.8 301.3,216.4 301.5,218.5 301.7,221.8 301.9,222.0 302.0,223.4 302.2,223.5 302.4,220.0 302.6,220.6 302.8,222.3 303.0,220.4 303.2,217.4 303.4,216.8 303.6,216.4 303.8,215.5 304.0,219.9 304.2,219.5 304.4,221.1 304.6,217.1 304.8,216.7 305.0,215.6 305.2,214.4 305.4,211.0 305.6,209.7 305.8,211.2 306.0,211.0 306.2,209.5 306.3,205.5 306.5,206.2 306.7,208.3 306.9,204.7 307.1,202.4 307.3,199.1 307.5,198.1 307.7,197.6 307.9,198.8 308.1,207.9 308.3,203.9 308.5,209.1 308.7,215.0 308.9,212.9 309.1,208.8 309.3,206.8 309.5,209.3 309.7,205.3 309.9,203.8 310.1,204.7 310.3,204.1 310.5,207.9 310.7,207.8 310.8,207.2 311.0,208.2 311.2,210.6 311.4,208.7 311.6,209.1 311.8,212.0 312.0,209.9 312.2,206.1 312.4,204.3 312.6,204.6 312.8,205.0 313.0,204.7 313.2,206.5 313.4,204.8 313.6,206.2 313.8,209.1 314.0,211.2 314.2,215.2 314.4,218.5 314.6,216.2 314.8,215.8 315.0,212.8 315.2,210.7 315.3,210.2 315.5,211.0 315.7,211.7 315.9,215.7 316.1,216.4 316.3,215.6 316.5,215.8 316.7,218.7 316.9,224.3 317.1,223.8 317.3,220.8 317.5,225.5 317.7,224.7 317.9,227.6 318.1,229.2 318.3,226.9 318.5,224.8 318.7,223.5 318.9,221.8 319.1,221.2 319.3,221.8 319.5,218.4 319.6,216.9 319.8,214.5 320.0,214.6 320.2,212.3 320.4,211.4 320.6,212.6 320.8,209.8 321.0,213.5 321.2,211.6 321.4,210.2 321.6,210.1 321.8,208.4 322.0,207.6 322.2,208.0 322.4,210.8 322.6,209.1 322.8,207.2 323.0,206.4 323.2,206.0 323.4,207.0 323.6,207.1 323.8,205.8 324.0,207.4 324.1,205.5 324.3,208.1 324.5,207.5 324.7,208.6 324.9,208.6 325.1,206.7 325.3,206.3 325.5,205.1 325.7,205.5 325.9,207.9 326.1,209.2 326.3,211.0 326.5,209.2 326.7,209.4 326.9,208.5 327.1,206.9 327.3,208.0 327.5,207.8 327.7,206.4 327.9,206.8 328.1,206.5 328.3,206.1 328.4,207.8 328.6,206.8 328.8,205.8 329.0,206.4 329.2,209.5 329.4,211.8 329.6,213.4 329.8,217.8 330.0,215.5 330.2,213.2 330.4,216.1 330.6,215.8 330.8,215.2 331.0,214.1 331.2,213.3 331.4,213.0 331.6,214.8 331.8,213.7 332.0,213.8 332.2,214.5 332.4,213.6 332.6,214.3 332.8,214.8 332.9,219.9 333.1,220.1 333.3,221.6 333.5,222.8 333.7,226.8 333.9,229.1 334.1,226.4 334.3,225.1 334.5,226.8 334.7,224.7 334.9,223.5 335.1,223.1 335.3,226.0 335.5,225.7 335.7,225.7 335.9,223.7 336.1,224.8 336.3,227.5 336.5,229.3 336.7,231.0 336.9,229.3 337.1,229.8 337.3,227.5 337.4,224.6 337.6,222.9 337.8,222.8 338.0,224.5 338.2,222.6 338.4,221.9 338.6,218.8 338.8,217.9 339.0,217.6 339.2,217.6 339.4,217.7 339.6,216.6 339.8,218.4 340.0,215.8 340.2,214.7 340.4,213.9 340.6,213.9 340.8,215.3 341.0,215.2 341.2,217.0 341.4,216.5 341.6,221.7 341.7,221.1 341.9,219.0 342.1,219.8 342.3,221.3 342.5,220.8 342.7,221.8 342.9,221.4 343.1,220.7 343.3,223.2 343.5,229.5 343.7,229.9 343.9,228.2 344.1,226.1 344.3,224.7 344.5,222.9 344.7,223.9 344.9,224.5 345.1,226.6 345.3,227.7 345.5,228.6 345.7,226.6 345.9,226.8 346.1,224.3 346.2,224.0 346.4,225.1 346.6,226.2 346.8,226.8 347.0,227.7 347.2,229.1 347.4,232.1 347.6,233.0 347.8,230.2 348.0,231.5 348.2,232.2 348.4,234.1 348.6,232.8 348.8,232.7 349.0,232.7 349.2,235.0 349.4,234.5 349.6,231.1 349.8,234.5 350.0,235.4 350.2,237.2 350.4,236.8 350.5,238.7 350.7,242.2 350.9,242.6 351.1,243.3 351.3,243.7 351.5,240.0 351.7,238.6 351.9,239.1 352.1,238.7 352.3,242.1 352.5,242.7 352.7,245.8 352.9,247.7 353.1,245.9 353.3,243.0 353.5,241.9 353.7,241.7 353.9,239.2 354.1,238.7 354.3,238.7 354.5,236.6 354.7,236.0 354.9,235.0 355.0,235.5 355.2,237.1 355.4,235.2 355.6,236.9 355.8,236.9 356.0,234.2 356.2,233.3 356.4,236.2 356.6,236.5 356.8,239.7 357.0,239.6 357.2,239.8 357.4,240.2 357.6,240.5 357.8,241.1 358.0,241.0 358.2,239.2 358.4,243.6 358.6,241.5 358.8,243.7 359.0,247.2 359.2,247.2 359.4,246.9 359.5,247.0 359.7,248.0 359.9,249.3 360.1,252.8 360.3,254.6 360.5,257.2 360.7,254.5 360.9,254.3 361.1,254.6 361.3,256.8 361.5,258.1 361.7,257.3 361.9,257.8 362.1,260.1 362.3,260.6 362.5,260.6 362.7,258.9 362.9,261.0 363.1,264.3 363.3,263.9 363.5,260.4 363.7,256.8 363.8,256.7 364.0,256.8 364.2,259.9 364.4,262.7 364.6,257.9 364.8,259.7 365.0,258.8 365.2,257.6 365.4,258.2 365.6,258.2 365.8,259.0 366.0,257.2 366.2,255.7 366.4,254.9 366.6,256.4 366.8,254.0 367.0,253.3 367.2,252.8 367.4,251.9 367.6,251.8 367.8,250.3 368.0,250.4 368.2,250.7 368.3,250.4 368.5,249.2 368.7,247.3 368.9,246.9 369.1,245.4 369.3,245.2 369.5,245.7 369.7,247.1 369.9,246.5 370.1,244.3 370.3,244.2 370.5,245.3 370.7,246.1 370.9,244.4 371.1,242.9 371.3,242.2 371.5,241.1 371.7,246.0 371.9,247.3 372.1,244.6 372.3,243.4 372.5,245.7 372.6,245.3 372.8,245.8 373.0,247.8 373.2,247.9 373.4,248.3 373.6,252.8 373.8,254.5 374.0,254.8 374.2,251.6 374.4,251.0 374.6,252.1 374.8,251.0 375.0,250.6 375.2,248.6 375.4,247.6 375.6,247.4 375.8,248.8 376.0,246.6 376.2,246.8 376.4,246.0 376.6,247.2 376.8,247.9 377.0,246.4 377.1,247.0 377.3,247.9 377.5,246.5 377.7,246.0 377.9,245.4 378.1,244.6 378.3,244.6 378.5,246.5 378.7,246.1 378.9,246.5 379.1,246.7 379.3,246.8 379.5,248.1 379.7,246.6 379.9,248.2 380.1,248.2 380.3,246.7 380.5,246.7 380.7,247.6 380.9,248.7 381.1,247.3 381.3,245.7 381.5,245.5 381.6,245.5 381.8,245.7 382.0,249.1 382.2,249.2 382.4,249.7 382.6,250.2 382.8,250.7 383.0,248.9 383.2,249.5 383.4,247.7 383.6,248.3 383.8,248.4 384.0,247.4 384.2,248.1 384.4,248.7 384.6,250.0 384.8,252.7 385.0,252.8 385.2,253.1 385.4,254.5 385.6,253.3 385.8,252.2 385.9,252.1 386.1,252.5 386.3,254.7 386.5,252.9 386.7,255.3 386.9,256.2 387.1,255.1 387.3,253.9 387.5,254.3 387.7,257.7 387.9,257.1 388.1,256.6 388.3,255.5 388.5,256.1 388.7,257.0 388.9,256.3 389.1,257.1 389.3,258.0 389.5,258.5 389.7,260.3 389.9,261.9 390.1,260.3 390.3,260.9 390.4,259.1 390.6,257.0 390.8,256.1 391.0,256.5 391.2,255.1 391.4,255.4 391.6,257.5 391.8,256.6 392.0,257.7 392.2,258.4 392.4,258.4 392.6,258.3 392.8,257.0 393.0,257.8 393.2,257.2 393.4,259.0 393.6,261.2 393.8,260.8 394.0,261.3 394.2,262.7 394.4,262.5 394.6,260.8 394.7,261.8 394.9,261.3 395.1,260.3 395.3,257.1 395.5,256.3 395.7,256.6 395.9,255.9 396.1,257.2 396.3,257.0 396.5,259.7 396.7,260.1 396.9,259.2 397.1,261.8 397.3,262.3 397.5,261.7 397.7,262.3 397.9,264.3 398.1,262.4 398.3,260.8 398.5,261.2 398.7,259.0 398.9,258.1 399.1,259.5 399.2,259.7 399.4,260.1 399.6,259.9 399.8,259.7 400.0,258.2 400.2,258.4 400.4,258.1 400.6,259.1 400.8,259.2 401.0,260.1 401.2,261.8 401.4,261.9 401.6,261.9 401.8,261.7 402.0,260.0 402.2,259.4 402.4,259.8 402.6,260.4 402.8,260.5 403.0,262.7 403.2,263.1 403.4,262.5 403.6,264.3 403.7,264.1 403.9,265.6 404.1,266.1 404.3,265.9 404.5,266.2 404.7,265.3 404.9,266.4 405.1,266.2 405.3,267.1 405.5,270.1 405.7,271.8 405.9,272.6 406.1,271.4 406.3,273.2 406.5,272.3 406.7,269.5 406.9,269.5 407.1,267.7 407.3,266.3 407.5,266.8 407.7,266.8 407.9,267.9 408.0,264.5 408.2,263.8 408.4,263.9 408.6,263.6 408.8,263.3 409.0,263.5 409.2,263.1 409.4,261.1 409.6,260.0 409.8,260.8 410.0,259.8 410.2,258.7 410.4,259.2 410.6,258.3 410.8,257.3 411.0,257.0 411.2,256.5 411.4,258.8 411.6,255.7 411.8,253.9 412.0,253.9 412.2,255.0 412.4,253.5 412.5,252.7 412.7,254.3 412.9,254.1 413.1,256.1 413.3,256.2 413.5,253.9 413.7,253.0 413.9,252.5 414.1,253.0 414.3,252.3 414.5,252.9 414.7,251.9 414.9,251.3 415.1,250.9 415.3,249.5 415.5,249.0 415.7,250.8 415.9,248.7 416.1,250.8 416.3,251.1 416.5,250.1 416.7,251.6 416.8,251.5 417.0,249.5 417.2,248.4 417.4,252.0 417.6,249.8 417.8,248.2 418.0,249.5 418.2,250.5 418.4,250.5 418.6,253.0 418.8,253.9 419.0,253.5 419.2,253.3 419.4,254.5 419.6,254.2 419.8,251.7 420.0,250.7 420.2,250.3 420.4,250.6 420.6,251.3 420.8,251.0 421.0,253.9 421.2,253.9 421.3,253.3 421.5,254.5 421.7,255.3 421.9,254.9 422.1,254.0 422.3,254.2 422.5,254.6 422.7,255.4 422.9,256.7 423.1,255.7 423.3,254.9 423.5,254.6 423.7,252.6 423.9,252.2 424.1,254.8 424.3,252.9 424.5,254.4 424.7,256.1 424.9,255.7 425.1,253.9 425.3,252.1 425.5,251.9 425.7,251.0 425.8,250.9 426.0,250.3 426.2,250.0 426.4,251.1 426.6,249.8 426.8,248.7 427.0,247.2 427.2,245.9 427.4,244.5 427.6,245.4 427.8,246.3 428.0,244.7 428.2,243.6 428.4,243.4 428.6,242.6 428.8,242.4 429.0,243.1 429.2,243.8 429.4,245.9 429.6,245.4 429.8,247.3 430.0,249.3 430.1,252.1 430.3,250.1 430.5,249.9 430.7,249.6 430.9,250.2 431.1,253.5 431.3,254.0 431.5,259.9 431.7,260.3 431.9,258.4 432.1,259.9 432.3,259.8 432.5,257.9 432.7,256.4 432.9,256.2 433.1,255.5 433.3,256.0 433.5,259.7 433.7,259.1 433.9,256.3 434.1,253.7 434.3,254.6 434.5,252.7 434.6,251.5 434.8,252.9 435.0,253.0 435.2,255.4 435.4,253.6 435.6,251.2 435.8,250.7 436.0,252.5 436.2,252.6 436.4,254.5 436.6,254.9 436.8,254.4 437.0,251.9 437.2,251.6 437.4,249.9 437.6,248.9 437.8,249.8 438.0,249.6 438.2,249.2 438.4,247.6 438.6,247.1 438.8,247.5 438.9,248.9 439.1,251.0 439.3,249.5 439.5,249.7 439.7,249.0 439.9,248.7 440.1,248.9 440.3,246.9 440.5,246.1 440.7,246.8 440.9,246.9 441.1,247.9 441.3,247.2 441.5,245.7 441.7,245.4 441.9,245.2 442.1,244.4 442.3,243.3 442.5,242.2 442.7,243.2 442.9,242.9 443.1,242.8 443.3,242.7 443.4,244.6 443.6,243.6 443.8,241.4 444.0,241.3 444.2,241.7 444.4,244.0 444.6,243.6 444.8,242.2 445.0,240.4 445.2,239.2 445.4,239.8 445.6,237.9 445.8,236.8 446.0,236.6 446.2,239.7 446.4,239.9 446.6,239.5 446.8,236.8 447.0,237.9 447.2,240.8 447.4,241.5 447.6,243.6 447.8,244.0 447.9,246.8 448.1,245.2 448.3,246.6 448.5,246.9 448.7,246.2 448.9,244.8 449.1,245.9 449.3,247.4 449.5,248.9 449.7,248.5 449.9,247.5 450.1,249.4 450.3,248.1 450.5,245.9 450.7,243.4 450.9,243.1 451.1,242.0 451.3,242.4 451.5,243.0 451.7,243.1 451.9,242.9 452.1,241.7 452.2,240.8 452.4,240.1 452.6,245.0 452.8,242.5 453.0,240.5 453.2,240.6 453.4,240.9 453.6,240.1 453.8,240.0 454.0,241.2 454.2,241.0 454.4,240.7 454.6,242.6 454.8,243.3 455.0,243.2 455.2,244.3 455.4,245.7 455.6,245.8 455.8,245.1 456.0,244.0 456.2,245.8 456.4,244.2 456.6,243.8 456.7,243.4 456.9,242.9 457.1,243.7 457.3,246.7 457.5,246.0 457.7,245.9 457.9,247.1 458.1,248.9 458.3,249.4 458.5,247.4 458.7,246.7 458.9,246.6 459.1,247.7 459.3,248.5 459.5,247.0 459.7,244.2 459.9,243.5 460.1,241.9 460.3,241.9 460.5,242.2 460.7,241.2 460.9,241.8 461.1,239.8 461.2,236.6 461.4,236.4 461.6,235.2 461.8,236.9 462.0,235.0 462.2,232.8 462.4,232.9 462.6,232.9 462.8,234.5 463.0,235.3 463.2,235.7 463.4,239.7 463.6,239.0 463.8,240.5 464.0,239.3 464.2,237.0 464.4,237.0 464.6,237.6 464.8,237.8 465.0,238.3 465.2,242.5 465.4,242.4 465.5,242.4 465.7,241.2 465.9,241.7 466.1,239.6 466.3,239.0 466.5,239.2 466.7,242.1 466.9,240.0 467.1,239.1 467.3,238.9 467.5,238.6 467.7,240.2 467.9,242.4 468.1,243.1 468.3,241.4 468.5,241.4 468.7,241.5 468.9,240.3 469.1,239.2 469.3,238.1 469.5,237.6 469.7,238.1 469.9,237.2 470.0,238.1 470.2,238.1 470.4,238.2 470.6,237.9 470.8,239.6 471.0,240.1 471.2,240.6 471.4,241.8 471.6,244.2 471.8,247.4 472.0,245.9 472.2,245.1 472.4,244.2 472.6,243.7 472.8,245.6 473.0,245.5 473.2,246.5 473.4,243.8 473.6,244.0 473.8,244.1 474.0,246.1 474.2,246.2 474.3,246.8 474.5,246.5 474.7,245.6 474.9,245.7 475.1,244.6 475.3,243.4 475.5,243.7 475.7,242.5 475.9,243.6 476.1,243.4 476.3,243.6 476.5,244.5 476.7,243.3 476.9,243.7 477.1,244.3 477.3,243.1 477.5,242.6 477.7,242.8 477.9,241.7 478.1,241.0 478.3,242.0 478.5,242.6 478.7,245.4 478.8,244.5 479.0,243.8 479.2,243.1 479.4,243.8 479.6,242.5 479.8,241.7 480.0,240.7 480.2,240.0 480.4,239.2 480.6,238.1 480.8,238.5 481.0,238.3 481.2,237.6 481.4,239.1 481.6,239.2 481.8,237.8 482.0,236.1 482.2,236.1 482.4,236.9 482.6,237.8 482.8,237.5 483.0,237.8 483.2,236.4 483.3,237.1 483.5,237.2 483.7,236.2 483.9,234.0 484.1,232.9 484.3,232.7 484.5,231.6 484.7,232.8 484.9,230.9 485.1,230.4 485.3,229.6 485.5,230.7 485.7,230.0 485.9,228.2 486.1,227.6 486.3,227.5 486.5,228.3 486.7,226.9 486.9,225.3 487.1,224.9 487.3,224.9 487.5,225.0 487.6,224.2 487.8,225.2 488.0,227.4 488.2,227.0 488.4,228.1 488.6,226.8 488.8,224.6 489.0,222.7 489.2,221.8 489.4,220.7 489.6,220.2 489.8,219.3 490.0,219.0 490.2,219.2 490.4,217.7 490.6,216.3 490.8,220.8 491.0,219.7 491.2,218.8 491.4,217.7 491.6,219.5 491.8,217.8 492.0,216.1 492.1,216.1 492.3,215.7 492.5,214.4 492.7,213.3 492.9,211.2 493.1,210.9 493.3,211.5 493.5,211.5 493.7,211.9 493.9,211.3 494.1,213.6 494.3,214.9 494.5,213.0 494.7,214.2 494.9,215.8 495.1,217.8 495.3,217.2 495.5,216.3 495.7,213.1 495.9,211.2 496.1,211.2 496.3,211.4 496.4,210.2 496.6,210.9 496.8,211.1 497.0,210.3 497.2,211.6 497.4,210.2 497.6,214.3 497.8,212.0 498.0,213.2 498.2,213.5 498.4,212.2 498.6,211.9 498.8,211.4 499.0,211.7 499.2,210.2 499.4,207.9 499.6,205.8 499.8,205.1 500.0,204.1 500.2,204.2 500.4,205.3 500.6,203.3 500.8,201.6 500.9,198.5 501.1,201.8 501.3,199.6 501.5,205.6 501.7,200.7 501.9,198.4 502.1,197.4 502.3,194.9 502.5,194.2 502.7,195.6 502.9,195.6 503.1,196.5 503.3,202.6 503.5,205.7 503.7,203.8 503.9,200.9 504.1,199.3 504.3,200.8 504.5,203.4 504.7,202.1 504.9,199.5 505.1,197.7 505.3,197.5 505.4,198.7 505.6,199.7 505.8,201.8 506.0,199.8 506.2,200.5 506.4,198.6 506.6,196.6 506.8,203.2 507.0,197.9 507.2,194.1 507.4,191.9 507.6,193.5 507.8,190.0 508.0,189.6 508.2,190.5 508.4,191.6 508.6,193.5 508.8,194.2 509.0,191.4 509.2,192.1 509.4,192.9 509.6,196.2 509.7,197.0 509.9,195.0 510.1,193.3 510.3,192.2 510.5,189.7 510.7,187.0 510.9,185.8 511.1,185.9 511.3,184.2 511.5,182.8 511.7,179.5 511.9,180.1 512.1,177.5 512.3,177.6 512.5,179.7 512.7,177.5 512.9,175.7 513.1,176.1 513.3,176.2 513.5,174.2 513.7,169.1 513.9,166.3 514.1,163.2 514.2,161.7 514.4,159.8 514.6,155.2 514.8,154.4 515.0,152.3 515.2,153.6 515.4,151.4 515.6,148.9 515.8,148.7 516.0,143.9 516.2,140.2 516.4,136.9 516.6,131.8 516.8,133.4 517.0,135.1 517.2,129.4 517.4,124.7 517.6,124.7 517.8,133.5 518.0,130.5 518.2,128.6 518.4,132.5 518.5,124.9 518.7,119.1 518.9,116.7 519.1,116.5 519.3,113.9 519.5,120.7 519.7,116.2 519.9,115.1 520.1,113.9 520.3,122.5 520.5,125.8 520.7,130.7 520.9,122.5 521.1,112.6 521.3,107.4 521.5,105.2 521.7,105.6 521.9,107.5 522.1,103.1 522.3,96.9 522.5,92.7 522.7,83.3 522.9,78.9 523.0,71.6 523.2,62.4 523.4,59.0 523.6,76.4 523.8,73.7 524.0,59.2 524.2,48.2 524.4,45.6 524.6,46.1 524.8,41.1 525.0,44.2 525.2,44.7 525.4,39.3 525.6,35.0 525.8,30.0 526.0,35.9 526.2,48.4 526.4,42.3 526.6,52.5 526.8,73.1 527.0,71.5 527.2,65.3 527.4,75.3 527.5,98.2 527.7,114.7 527.9,103.0 528.1,116.7 528.3,132.6 528.5,145.9 528.7,149.2 528.9,162.2 529.1,166.7 529.3,158.6 529.5,148.9 529.7,136.5 529.9,131.9 530.1,144.5 530.3,139.7 530.5,128.2 530.7,124.8 530.9,122.0 531.1,119.2 531.3,112.8 531.5,116.3 531.7,133.7 531.8,137.7 532.0,127.4 532.2,133.6 532.4,135.6 532.6,140.8 532.8,129.7 533.0,132.5 533.2,133.8 533.4,127.7 533.6,117.2 533.8,116.0 534.0,118.8 534.2,113.3 534.4,110.8 534.6,105.4 534.8,123.6 535.0,118.6 535.2,126.7 535.4,138.8 535.6,155.5 535.8,170.0 536.0,176.8 536.2,170.7 536.3,160.0 536.5,167.3 536.7,178.7 536.9,180.0 537.1,179.4 537.3,173.0 537.5,168.1 537.7,171.2 537.9,169.7 538.1,182.0 538.3,191.4 538.5,181.0 538.7,184.3 538.9,182.3 539.1,176.4 539.3,175.2 539.5,177.1 539.7,174.6 539.9,180.4 540.1,177.3 540.3,180.5 540.5,179.9 540.6,173.1 540.8,170.4 541.0,163.5 541.2,161.2 541.4,163.3 541.6,157.7 541.8,154.4 542.0,154.4 542.2,151.2 542.4,163.6 542.6,156.7 542.8,151.9 543.0,150.5 543.2,149.3 543.4,154.4 543.6,152.7 543.8,153.4 544.0,157.5 544.2,157.9 544.4,148.3 544.6,148.1 544.8,143.3 545.0,140.7 545.1,139.8 545.3,136.8 545.5,136.8 545.7,140.0 545.9,135.8 546.1,137.7 546.3,141.1 546.5,135.8 546.7,133.4 546.9,135.1 547.1,133.6 547.3,130.2 547.5,131.5 547.7,145.3 547.9,144.4 548.1,143.4 548.3,144.5 548.5,139.9 548.7,141.6 548.9,139.1 549.1,144.5 549.3,145.4 549.5,146.0 549.6,147.7 549.8,143.5 550.0,141.9 550.2,141.1 550.4,135.9 550.6,136.4 550.8,133.9 551.0,132.0 551.2,134.3 551.4,134.9 551.6,133.8 551.8,139.0 552.0,137.1 552.2,135.2 552.4,138.6 552.6,156.2 552.8,158.8 553.0,153.9 553.2,170.6 553.4,167.6 553.6,179.8 553.8,179.6 553.9,185.5 554.1,179.9 554.3,186.3 554.5,183.9 554.7,177.9 554.9,179.5 555.1,186.5 555.3,183.9 555.5,182.2 555.7,194.7 555.9,196.8 556.1,203.5 556.3,198.0 556.5,200.0 556.7,194.8 556.9,194.1 557.1,191.1 557.3,192.6 557.5,192.5 557.7,186.1 557.9,184.1 558.1,184.5 558.3,183.9 558.4,180.5 558.6,181.4 558.8,180.3 559.0,193.7 559.2,193.1 559.4,201.3 559.6,197.9 559.8,190.2 560.0,189.5 560.2,193.8 560.4,190.2 560.6,189.9 560.8,193.9 561.0,196.6 561.2,196.9 561.4,191.9 561.6,193.3 561.8,195.4 562.0,190.4 562.2,184.8 562.4,180.6 562.6,181.3 562.7,180.1 562.9,182.8 563.1,181.2 563.3,182.3 563.5,185.5 563.7,179.6 563.9,179.0 564.1,179.9 564.3,175.4 564.5,174.4 564.7,177.0 564.9,178.7 565.1,174.9 565.3,176.4 565.5,173.8 565.7,172.2 565.9,172.7 566.1,175.6 566.3,174.8 566.5,182.7 566.7,184.2 566.9,183.0 567.1,184.0 567.2,182.1 567.4,182.9 567.6,183.6 567.8,183.8 568.0,178.7 568.2,178.7 568.4,177.7 568.6,184.4 568.8,190.4 569.0,190.6 569.2,191.0 569.4,190.9 569.6,191.3 569.8,188.5 570.0,189.2 570.2,193.6 570.4,192.6 570.6,190.7 570.8,188.6 571.0,190.5 571.2,191.2 571.4,190.4 571.6,190.6 571.7,191.3 571.9,184.8 572.1,184.1 572.3,183.0 572.5,182.5 572.7,181.9 572.9,182.1 573.1,182.7 573.3,190.4 573.5,189.9 573.7,184.7 573.9,185.3 574.1,184.3 574.3,183.8 574.5,185.7 574.7,183.1 574.9,184.0 575.1,186.0 575.3,182.1 575.5,180.4 575.7,180.0 575.9,179.9 576.0,180.3 576.2,176.9 576.4,175.9 576.6,175.1 576.8,174.5 577.0,175.1 577.2,174.7 577.4,172.4 577.6,171.0 577.8,170.8 578.0,171.2 578.2,172.0 578.4,171.4 578.6,171.8 578.8,171.1 579.0,172.5 579.2,172.1 579.4,169.7 579.6,177.0 579.8,176.6 580.0,177.7 580.2,180.3 580.4,178.7 580.5,177.9 580.7,176.8 580.9,177.7 581.1,175.3 581.3,173.9 581.5,174.6 581.7,177.1 581.9,175.1 582.1,171.1 582.3,170.4 582.5,169.9 582.7,169.8 582.9,169.5 583.1,171.7 583.3,171.5 583.5,171.3 583.7,172.8 583.9,172.0 584.1,171.5 584.3,171.6 584.5,171.3 584.7,172.8 584.8,173.5 585.0,172.5 585.2,169.7 585.4,169.7 585.6,169.0 585.8,170.3 586.0,175.3 586.2,174.5 586.4,175.7 586.6,173.8 586.8,173.9 587.0,173.9 587.2,172.7 587.4,173.1 587.6,176.7 587.8,175.4 588.0,175.6 588.2,175.1 588.4,174.3 588.6,171.0 588.8,169.9 589.0,170.0 589.2,169.9 589.3,170.4 589.5,171.9 589.7,169.3 589.9,169.7 590.1,169.6 590.3,170.2 590.5,168.4 590.7,167.8 590.9,168.7 591.1,169.0 591.3,170.8 591.5,170.9 591.7,169.3 591.9,170.8 592.1,170.0 592.3,170.6 592.5,170.4 592.7,169.4 592.9,170.8 593.1,168.5 593.3,167.2 593.5,166.3 593.7,165.6 593.8,165.5 594.0,165.8 594.2,166.7 594.4,166.4 594.6,165.1 594.8,165.9 595.0,166.1 595.2,165.3 595.4,164.8 595.6,166.2 595.8,167.2 596.0,166.1 596.2,169.0 596.4,169.9 596.6,169.8 596.8,167.9 597.0,168.8 597.2,169.1 597.4,176.5 597.6,175.7 597.8,176.7 598.0,175.6 598.1,174.5 598.3,174.5 598.5,175.0 598.7,173.7 598.9,173.9 599.1,175.6 599.3,175.2 599.5,175.4 599.7,175.9 599.9,176.4 600.1,176.1 600.3,174.5 600.5,172.4 600.7,172.3 600.9,173.1 601.1,171.9 601.3,172.5 601.5,174.2 601.7,175.8 601.9,178.0 602.1,182.5 602.3,181.1 602.5,181.5 602.6,182.1 602.8,180.0 603.0,178.6 603.2,178.8 603.4,178.4 603.6,177.2 603.8,177.6 604.0,176.2 604.2,176.3 604.4,175.3 604.6,174.2 604.8,174.0 605.0,173.1 605.2,173.0 605.4,174.7 605.6,173.4 605.8,174.9 606.0,172.7 606.2,171.3 606.4,170.2 606.6,170.2 606.8,170.2 606.9,171.6 607.1,170.9 607.3,170.4 607.5,171.3 607.7,170.8 607.9,169.1 608.1,168.9 608.3,169.6 608.5,171.2 608.7,171.0 608.9,169.3 609.1,169.7 609.3,169.9 609.5,168.3 609.7,170.0 609.9,169.6 610.1,169.1 610.3,169.5 610.5,169.2 610.7,168.2 610.9,169.1 611.1,169.6 611.3,170.1 611.4,173.0 611.6,172.2 611.8,168.4 612.0,167.9 612.2,167.4 612.4,167.7 612.6,166.0 612.8,167.4 613.0,166.3 613.2,168.8 613.4,170.7 613.6,171.8 613.8,173.7 614.0,173.7 614.2,175.0 614.4,179.5 614.6,178.9 614.8,178.5 615.0,178.0 615.2,177.5 615.4,177.4 615.6,177.9 615.8,178.5 615.9,180.9 616.1,184.0 616.3,183.0 616.5,186.5 616.7,186.9 616.9,187.1 617.1,186.3 617.3,182.9 617.5,182.6 617.7,184.0 617.9,184.0 618.1,186.4 618.3,189.9 618.5,188.9 618.7,187.5 618.9,187.9 619.1,188.2 619.3,191.4 619.5,189.6 619.7,188.4 619.9,187.7 620.1,184.6 620.2,184.5 620.4,184.2 620.6,186.0 620.8,183.9 621.0,184.3 621.2,182.8 621.4,183.0 621.6,181.8 621.8,181.5 622.0,181.2 622.2,183.6 622.4,183.1 622.6,180.3 622.8,180.2 623.0,181.0 623.2,180.1 623.4,179.5 623.6,178.5 623.8,179.3 624.0,178.0 624.2,177.8 624.4,177.1 624.6,177.6 624.7,179.8 624.9,179.7 625.1,179.2 625.3,179.8 625.5,186.8 625.7,185.1 625.9,181.7 626.1,180.6 626.3,179.9 626.5,178.7 626.7,179.1 626.9,179.3 627.1,178.3 627.3,177.4 627.5,175.1 627.7,175.4 627.9,176.4 628.1,176.1 628.3,177.1 628.5,175.0 628.7,175.0 628.9,174.0 629.1,175.4 629.2,178.9 629.4,175.3 629.6,174.7 629.8,174.5 630.0,173.2 630.2,173.7 630.4,172.2 630.6,173.0 630.8,174.4 631.0,175.7 631.2,173.8 631.4,171.6 631.6,172.1 631.8,170.8 632.0,170.3 632.2,168.8 632.4,167.7 632.6,167.5 632.8,166.6 633.0,167.9 633.2,167.5 633.4,165.4 633.5,165.5 633.7,164.4 633.9,164.8 634.1,166.2 634.3,164.8 634.5,165.8 634.7,164.2 634.9,166.4 635.1,167.5 635.3,169.8 635.5,169.0 635.7,167.2 635.9,167.7 636.1,166.7 636.3,164.6 636.5,163.8 636.7,164.9 636.9,165.1 637.1,163.7 637.3,166.2 637.5,166.4 637.7,167.8 637.9,169.5 638.0,167.6 638.2,166.4 638.4,166.7 638.6,165.4 638.8,164.8 639.0,165.9 639.2,169.2 639.4,167.9 639.6,168.1 639.8,169.9 640.0,171.5 640.2,169.2 640.4,168.1 640.6,167.8 640.8,166.5 641.0,165.6 641.2,164.8 641.4,166.4 641.6,168.5 641.8,167.9 642.0,173.3 642.2,171.4 642.3,170.7 642.5,171.2 642.7,175.8 642.9,175.7 643.1,178.0 643.3,175.1 643.5,174.6 643.7,176.1 643.9,174.6 644.1,175.6 644.3,179.7 644.5,178.6 644.7,179.6 644.9,177.7 645.1,175.4 645.3,176.9 645.5,175.7 645.7,175.5 645.9,176.8 646.1,177.8 646.3,176.4 646.5,177.8 646.7,176.8 646.8,176.6 647.0,178.2 647.2,177.3 647.4,178.6 647.6,177.7 647.8,176.4 648.0,174.2 648.2,172.6 648.4,171.8 648.6,171.8 648.8,171.0 649.0,171.0 649.2,172.1 649.4,171.6 649.6,172.3 649.8,176.3 650.0,175.0 650.2,176.0 650.4,175.4 650.6,175.8 650.8,173.7 651.0,173.5 651.2,172.5 651.3,172.8 651.5,172.7 651.7,174.8 651.9,174.7 652.1,178.1 652.3,183.8 652.5,183.2 652.7,183.4 652.9,191.5 653.1,191.3 653.3,189.8 653.5,195.7 653.7,191.7 653.9,190.6 654.1,190.1 654.3,186.8 654.5,186.2 654.7,182.5 654.9,183.1 655.1,182.7 655.3,180.9 655.5,181.8 655.6,181.6 655.8,179.3 656.0,181.0 656.2,179.7 656.4,177.6 656.6,175.2 656.8,176.3 657.0,178.1 657.2,178.4 657.4,179.3 657.6,179.1 657.8,178.6 658.0,179.8 658.2,180.6 658.4,189.2 658.6,186.0 658.8,182.4 659.0,184.1 659.2,182.4 659.4,180.2 659.6,180.0 659.8,181.7 660.0,182.9 660.1,182.6 660.3,181.6 660.5,181.0 660.7,181.9 660.9,182.6 661.1,183.0 661.3,186.4 661.5,184.2 661.7,183.2 661.9,186.7 662.1,188.2 662.3,184.5 662.5,184.5 662.7,187.6 662.9,187.2 663.1,187.4 663.3,185.8 663.5,185.9 663.7,182.8 663.9,182.2 664.1,182.5 664.3,182.2 664.4,183.6 664.6,184.3 664.8,182.8 665.0,183.2 665.2,184.1 665.4,183.5 665.6,181.4 665.8,180.8 666.0,183.0 666.2,183.6 666.4,185.6 666.6,186.4 666.8,187.9 667.0,192.1 667.2,190.1 667.4,192.1 667.6,192.1 667.8,189.5 668.0,189.6 668.2,190.6 668.4,192.5 668.6,193.5 668.8,191.8 668.9,194.2 669.1,194.8 669.3,197.6 669.5,207.1 669.7,205.5 669.9,208.5 670.1,206.6 670.3,207.6 670.5,206.6 670.7,208.0 670.9,209.5 671.1,205.0 671.3,207.2 671.5,205.6 671.7,207.7 671.9,211.5 672.1,211.1 672.3,208.0 672.5,207.2 672.7,210.0 672.9,206.2 673.1,205.4 673.3,205.6 673.4,205.6 673.6,206.7 673.8,207.9 674.0,206.2 674.2,205.1 674.4,202.6 674.6,202.5 674.8,203.4 675.0,204.1 675.2,205.9 675.4,205.8 675.6,208.1 675.8,211.1 676.0,213.0 676.2,215.8 676.4,212.2 676.6,214.3 676.8,210.9 677.0,210.2 677.2,209.5 677.4,210.0 677.6,212.9 677.7,214.1 677.9,216.5 678.1,215.6 678.3,214.0 678.5,215.5 678.7,214.8 678.9,215.1 679.1,212.1 679.3,211.7 679.5,212.6 679.7,214.7 679.9,216.1 680.1,215.5 680.3,214.0 680.5,216.1 680.7,216.7 680.9,216.8 681.1,219.2 681.3,219.2 681.5,219.5 681.7,218.7 681.9,220.1 682.1,222.0 682.2,219.8 682.4,218.3 682.6,218.4 682.8,216.4 683.0,216.7 683.2,216.1 683.4,217.8 683.6,216.5 683.8,220.8 684.0,221.1 684.2,221.2 684.4,230.2 684.6,231.0 684.8,233.2 685.0,235.9 685.2,235.0 685.4,238.2 685.6,235.1 685.8,229.4 686.0,231.6 686.2,231.9 686.4,232.2 686.5,232.2 686.7,234.2 686.9,233.0 687.1,231.1 687.3,230.4 687.5,226.6 687.7,226.5 687.9,226.5 688.1,227.2 688.3,228.1 688.5,228.5 688.7,225.3 688.9,223.1 689.1,223.6 689.3,221.5 689.5,220.4 689.7,220.1 689.9,223.8 690.1,223.3 690.3,223.4 690.5,228.3 690.7,228.5 690.9,227.9 691.0,226.4 691.2,229.1 691.4,228.2 691.6,224.4 691.8,223.8 692.0,224.8 692.2,227.3 692.4,227.3 692.6,228.7 692.8,227.7 693.0,227.8 693.2,226.4 693.4,229.3 693.6,229.5 693.8,230.2 694.0,231.8 694.2,231.5 694.4,232.3 694.6,231.1 694.8,232.4 695.0,232.9 695.2,234.2 695.4,234.0 695.5,235.0 695.7,235.5 695.9,232.8 696.1,230.7 696.3,231.0 696.5,230.7 696.7,230.9 696.9,230.0 697.1,230.7 697.3,229.1 697.5,229.3 697.7,230.3 697.9,229.0 698.1,228.3 698.3,230.1 698.5,229.9 698.7,229.3 698.9,229.9 699.1,230.2 699.3,231.6 699.5,232.8 699.7,233.8 699.8,230.5 700.0,227.5 700.2,226.5 700.4,224.5 700.6,223.9 700.8,224.8 701.0,220.4 701.2,220.2 701.4,220.2 701.6,220.4 701.8,217.2 702.0,209.8 702.2,209.9 702.4,210.5 702.6,210.3 702.8,209.1 703.0,206.6 703.2,202.8 703.4,200.2 703.6,198.3 703.8,204.2 704.0,198.4 704.2,195.8 704.3,199.3 704.5,202.8 704.7,201.1 704.9,197.1 705.1,196.6 705.3,196.7 705.5,194.7 705.7,193.8 705.9,195.8 706.1,200.1 706.3,198.6 706.5,200.8 706.7,195.9 706.9,190.1 707.1,189.6 707.3,187.9 707.5,186.9 707.7,187.6 707.9,187.3 708.1,187.5 708.3,190.9 708.5,191.3 708.6,192.9 708.8,189.5 709.0,188.7 709.2,189.6 709.4,188.6 709.6,191.0 709.8,193.6 710.0,192.2 710.2,198.3 710.4,199.7 710.6,203.7 710.8,202.5 711.0,213.5 711.2,211.7 711.4,212.5 711.6,214.1 711.8,209.2 712.0,210.8 712.2,212.0 712.4,208.9 712.6,208.0 712.8,212.6 713.0,213.1 713.1,210.7 713.3,211.7 713.5,214.5 713.7,215.4 713.9,212.0 714.1,212.2 714.3,212.2 714.5,213.0 714.7,213.4 714.9,215.1 715.1,216.7 715.3,217.0 715.5,219.9 715.7,218.6 715.9,213.7 716.1,214.8 716.3,214.4 716.5,216.7 716.7,216.5 716.9,216.6 717.1,214.9 717.3,212.3 717.5,210.4 717.6,210.3 717.8,211.7 718.0,212.0 718.2,210.8 718.4,212.4 718.6,208.2 718.8,208.7 719.0,209.9 719.2,210.3 719.4,209.8 719.6,214.6 719.8,214.3 720.0,215.3 720.2,215.3 720.4,214.8 720.6,213.1 720.8,212.9 721.0,213.0 721.2,215.3 721.4,214.4 721.6,217.2 721.8,215.9 721.9,214.5 722.1,214.0 722.3,213.8 722.5,213.9 722.7,213.1 722.9,213.7 723.1,214.6 723.3,216.3 723.5,217.9 723.7,220.7 723.9,221.3 724.1,220.5 724.3,222.1 724.5,219.7 724.7,220.5 724.9,219.8 725.1,219.1 725.3,218.7 725.5,214.5 725.7,214.5 725.9,214.3 726.1,214.1 726.3,214.1 726.4,215.0 726.6,212.8 726.8,213.0 727.0,212.8 727.2,214.1 727.4,210.8 727.6,209.8 727.8,208.4 728.0,207.2 728.2,206.7 728.4,203.7 728.6,204.2 728.8,205.0 729.0,204.3 729.2,204.1 729.4,207.1 729.6,207.1 729.8,205.7 730.0,205.4 730.2,206.3 730.4,206.0 730.6,208.6 730.7,211.8 730.9,210.9 731.1,212.6 731.3,212.6 731.5,211.5 731.7,209.7 731.9,209.5 732.1,207.4 732.3,209.3 732.5,209.9 732.7,210.2 732.9,212.1 733.1,212.4 733.3,210.9 733.5,211.9 733.7,212.2 733.9,211.2 734.1,208.7 734.3,210.8 734.5,212.4 734.7,213.3 734.9,212.0 735.1,211.3 735.2,210.3 735.4,211.7 735.6,210.8 735.8,211.3 736.0,214.4 736.2,214.3 736.4,214.4 736.6,213.4 736.8,214.6 737.0,214.0 737.2,211.7 737.4,212.5 737.6,212.5 737.8,213.7 738.0,213.7 738.2,214.3 738.4,213.7 738.6,214.1 738.8,213.9 739.0,213.6 739.2,213.0 739.4,213.2 739.6,211.9 739.7,210.7 739.9,210.3 740.1,209.7 740.3,210.3 740.5,210.7 740.7,209.0 740.9,206.4 741.1,204.5 741.3,204.5 741.5,204.3 741.7,205.9 741.9,208.7 742.1,206.5 742.3,205.9 742.5,204.9 742.7,206.1 742.9,204.3 743.1,203.6 743.3,200.9 743.5,200.5 743.7,199.0 743.9,197.2 744.0,199.3 744.2,197.3 744.4,197.7 744.6,195.5 744.8,196.0 745.0,196.4 745.2,196.4 745.4,196.9 745.6,194.8 745.8,196.5 746.0,195.1 746.2,200.6 746.4,213.5 746.6,211.1 746.8,207.6 747.0,203.2 747.2,202.0 747.4,200.3 747.6,201.0 747.8,198.3 748.0,199.6 748.2,199.4 748.4,194.6 748.5,192.7 748.7,194.3 748.9,191.5 749.1,189.3 749.3,187.1 749.5,186.2 749.7,190.5 749.9,190.2 750.1,198.5 750.3,192.9 750.5,191.4 750.7,191.2 750.9,188.9 751.1,189.9 751.3,196.5 751.5,192.3 751.7,194.7 751.9,197.4 752.1,198.4 752.3,205.5 752.5,205.1 752.7,207.7 752.8,206.6 753.0,204.9 753.2,211.0 753.4,208.4 753.6,205.0 753.8,206.4 754.0,207.2 754.2,210.2 754.4,209.9 754.6,210.5 754.8,206.9 755.0,208.0 755.2,203.6 755.4,203.5 755.6,202.1 755.8,205.2 756.0,206.3 756.2,203.0 756.4,203.6 756.6,202.2 756.8,202.2 757.0,200.5 757.2,201.5 757.3,200.3 757.5,201.1 757.7,203.4 757.9,203.7 758.1,204.7 758.3,204.7 758.5,201.2 758.7,198.5 758.9,198.7 759.1,197.0 759.3,197.3 759.5,196.8 759.7,196.2 759.9,197.5 760.1,197.0 760.3,197.8 760.5,195.9 760.7,197.5 760.9,199.2 761.1,201.9 761.3,202.3 761.5,199.4 761.7,200.8 761.8,201.0 762.0,199.8 762.2,195.3 762.4,195.3 762.6,195.2 762.8,195.1 763.0,194.8 763.2,195.1 763.4,194.1 763.6,194.0 763.8,194.7 764.0,194.7 764.2,194.7 764.4,191.8 764.6,190.7 764.8,190.7 765.0,189.2 765.2,189.3 765.4,188.8 765.6,189.2 765.8,189.9 766.0,187.1 766.1,186.6 766.3,184.0 766.5,181.9 766.7,175.1 766.9,172.8 767.1,168.6 767.3,164.2 767.5,164.7 767.7,158.5 767.9,161.0 768.1,165.7 768.3,174.5 768.5,173.8 768.7,168.8 768.9,167.8 769.1,166.2 769.3,166.2 769.5,175.5 769.7,175.1 769.9,173.4 770.1,168.7 770.3,169.2 770.5,167.3 770.6,162.9 770.8,164.1 771.0,162.0 771.2,162.1 771.4,164.3 771.6,163.3 771.8,166.7 772.0,168.7 772.2,168.1 772.4,166.1 772.6,162.8 772.8,161.5 773.0,164.9 773.2,166.9 773.4,165.5 773.6,164.3 773.8,165.3 774.0,168.8 774.2,167.4 774.4,164.2 774.6,164.9 774.8,163.7 774.9,163.5 775.1,165.0 775.3,166.3 775.5,170.1 775.7,168.8 775.9,173.7 776.1,176.8 776.3,174.7 776.5,173.6 776.7,172.6 776.9,173.6 777.1,173.2 777.3,170.4 777.5,171.0 777.7,173.4 777.9,172.5 778.1,176.6 778.3,176.8 778.5,178.4 778.7,177.0 778.9,178.0 779.1,173.5 779.3,168.4 779.4,168.1 779.6,169.3 779.8,170.6 780.0,171.5 780.2,173.4 780.4,171.7 780.6,173.7 780.8,174.6 781.0,177.5 781.2,177.4 781.4,177.2 781.6,176.6 781.8,176.3 782.0,180.3 782.2,179.4 782.4,176.7 782.6,176.9 782.8,173.6 783.0,175.0 783.2,171.7 783.4,173.0 783.6,175.2 783.8,174.6 783.9,174.9 784.1,172.6 784.3,174.0 784.5,173.9 784.7,173.4 784.9,171.7 785.1,170.3 785.3,170.2 785.5,173.7 785.7,174.1 785.9,173.6 786.1,174.5 786.3,171.6 786.5,171.3 786.7,171.2 786.9,170.5 787.1,171.6 787.3,171.6 787.5,174.9 787.7,174.5 787.9,177.6 788.1,176.2 788.2,176.0 788.4,176.8 788.6,174.8 788.8,175.3 789.0,172.3 789.2,176.4 789.4,174.9 789.6,177.7 789.8,175.7 790.0,176.6 790.2,177.8 790.4,175.9 790.6,173.2 790.8,170.0 791.0,168.4 791.2,168.8 791.4,168.5 791.6,167.9 791.8,170.8 792.0,168.3 792.2,169.6 792.4,171.2 792.6,171.8 792.7,169.1 792.9,170.2 793.1,168.6 793.3,166.1 793.5,165.7 793.7,165.5 793.9,168.6 794.1,167.9 794.3,171.9 794.5,173.8 794.7,172.5 794.9,170.8 795.1,172.3 795.3,174.3 795.5,176.7 795.7,174.4 795.9,170.7 796.1,168.8 796.3,166.4 796.5,163.9 796.7,165.2 796.9,165.9 797.1,168.5 797.2,169.6 797.4,173.3 797.6,169.8 797.8,171.4 798.0,168.8 798.2,172.2 798.4,172.2 798.6,176.3 798.8,180.4 799.0,181.6 799.2,177.4 799.4,177.2 799.6,178.5 799.8,178.0 800.0,177.1 800.2,175.8 800.4,177.6 800.6,174.9 800.8,177.3 801.0,179.4 801.2,179.0 801.4,176.4 801.5,176.3 801.7,175.6 801.9,176.3 802.1,174.7 802.3,174.3 802.5,173.9 802.7,173.7 802.9,173.5 803.1,174.1 803.3,177.1 803.5,177.6 803.7,175.7 803.9,175.7 804.1,174.0 804.3,171.6 804.5,171.5 804.7,171.7 804.9,171.0 805.1,170.6 805.3,171.1 805.5,171.0 805.7,169.8 805.9,169.8 806.0,169.9 806.2,169.8 806.4,171.1 806.6,170.2 806.8,170.7 807.0,169.2 807.2,171.2 807.4,168.8 807.6,167.4 807.8,166.8 808.0,167.2 808.2,168.2 808.4,168.8 808.6,168.3 808.8,166.2 809.0,166.0 809.2,164.4 809.4,164.9 809.6,163.2 809.8,162.9 810.0,164.5 810.2,164.9 810.3,164.2 810.5,163.4 810.7,164.4 810.9,164.2 811.1,162.2 811.3,163.3 811.5,165.0 811.7,167.7 811.9,166.3 812.1,165.2 812.3,163.8 812.5,162.9 812.7,161.5 812.9,162.5 813.1,160.9 813.3,160.4 813.5,162.2 813.7,161.0 813.9,163.5 814.1,165.2 814.3,163.7 814.5,163.7 814.7,162.2 814.8,162.7 815.0,161.1 815.2,158.3 815.4,156.8 815.6,158.5 815.8,157.6 816.0,157.8 816.2,158.8 816.4,158.4 816.6,156.1 816.8,155.0 817.0,156.1 817.2,159.3 817.4,163.5 817.6,166.2 817.8,162.4 818.0,162.1 818.2,159.2 818.4,160.8 818.6,157.6 818.8,158.1 819.0,157.4 819.2,156.3 819.3,155.2 819.5,153.7 819.7,153.1 819.9,153.2 820.1,154.3 820.3,158.6 820.5,157.3 820.7,157.2 820.9,157.9 821.1,155.0 821.3,153.2 821.5,151.5 821.7,152.4 821.9,150.7 822.1,149.4 822.3,148.6 822.5,150.4 822.7,147.2 822.9,148.0 823.1,145.9 823.3,141.9 823.5,140.7 823.6,138.6 823.8,138.9 824.0,137.8 824.2,140.3 824.4,139.3 824.6,143.3 824.8,144.8 825.0,143.2 825.2,141.8 825.4,145.2 825.6,151.0 825.8,150.2 826.0,155.4 826.2,152.8 826.4,153.2 826.6,153.2 826.8,157.0 827.0,156.2 827.2,155.5 827.4,155.0 827.6,153.8 827.8,152.4 828.0,152.4 828.1,153.0 828.3,155.0 828.5,152.8 828.7,152.9 828.9,154.4 829.1,157.1 829.3,155.1 829.5,154.0 829.7,156.1 829.9,155.2 830.1,153.7 830.3,155.9 830.5,155.0 830.7,153.4 830.9,154.0 831.1,152.4 831.3,151.4 831.5,153.0 831.7,154.4 831.9,152.8 832.1,153.4 832.3,151.0 832.4,148.7 832.6,148.5 832.8,148.6 833.0,149.2 833.2,149.6 833.4,149.6 833.6,148.7 833.8,148.2 834.0,149.3 834.2,147.4 834.4,149.1 834.6,150.0 834.8,147.3 835.0,146.8 835.2,147.2 835.4,145.9 835.6,146.7 835.8,147.0 836.0,145.2 836.2,147.0 836.4,150.3 836.6,148.1 836.8,147.3 836.9,146.4 837.1,148.0 837.3,148.2 837.5,147.8 837.7,148.9 837.9,147.1 838.1,145.8 838.3,145.9 838.5,149.5 838.7,149.3 838.9,150.8 839.1,150.4 839.3,152.0 839.5,150.3 839.7,153.0 839.9,153.5 840.1,151.3 840.3,151.2 840.5,152.4 840.7,154.1 840.9,156.4 841.1,156.3 841.3,162.8 841.4,161.7 841.6,166.6 841.8,167.3 842.0,164.6 842.2,162.8 842.4,160.0 842.6,160.1 842.8,162.8 843.0,164.1 843.2,162.3 843.4,162.0 843.6,162.1 843.8,160.3 844.0,159.4 844.2,161.7 844.4,158.8 844.6,162.2 844.8,160.7 845.0,159.8 845.2,159.2 845.4,159.2 845.6,159.6 845.7,161.1 845.9,165.1 846.1,171.5 846.3,174.9 846.5,171.9 846.7,170.2 846.9,174.4 847.1,184.3 847.3,179.0 847.5,176.0 847.7,174.2 847.9,173.4 848.1,173.5 848.3,172.3 848.5,173.8 848.7,175.9 848.9,175.5 849.1,176.4 849.3,172.9 849.5,174.4 849.7,173.3 849.9,173.5 850.1,177.2 850.2,177.2 850.4,182.5 850.6,179.8 850.8,182.1 851.0,179.9 851.2,181.4 851.4,181.3 851.6,180.8 851.8,184.5 852.0,190.0 852.2,190.5 852.4,200.8 852.6,204.5 852.8,198.9 853.0,199.4 853.2,193.6 853.4,192.0 853.6,195.4 853.8,194.2 854.0,191.9 854.2,190.6 854.4,190.5 854.5,189.0 854.7,189.1 854.9,188.4 855.1,189.0 855.3,187.8 855.5,185.3 855.7,184.3 855.9,190.4 856.1,187.7 856.3,185.8 856.5,186.1 856.7,184.9 856.9,182.6 857.1,182.7 857.3,181.2 857.5,178.2 857.7,178.2 857.9,177.3 858.1,179.7 858.3,176.7 858.5,176.9 858.7,175.7 858.9,176.1 859.0,176.0 859.2,174.6 859.4,174.2 859.6,175.7 859.8,178.4 860.0,175.0 860.2,173.2 860.4,172.1 860.6,169.5 860.8,173.0 861.0,170.8 861.2,171.2 861.4,168.9 861.6,169.2 861.8,171.8 862.0,170.8 862.2,172.2 862.4,174.5 862.6,176.7 862.8,175.9 863.0,175.0 863.2,177.9 863.4,174.7 863.5,174.1 863.7,172.0 863.9,173.7 864.1,175.4 864.3,177.0 864.5,174.8 864.7,174.2 864.9,173.7 865.1,175.2 865.3,173.8 865.5,178.7 865.7,179.9 865.9,179.0 866.1,175.9 866.3,174.4 866.5,173.9 866.7,174.5 866.9,171.2 867.1,171.7 867.3,171.1 867.5,170.5 867.7,169.7 867.8,170.4 868.0,172.5 868.2,170.3 868.4,170.5 868.6,175.5 868.8,174.4 869.0,175.1 869.2,174.8 869.4,175.4 869.6,179.0 869.8,179.9 870.0,179.2"/>
</svg>
