<svg xmlns="http://www.w3.org/2000/svg" width="900" height="360">
<rect width="100%" height="100%" fill="white"/>
<text x="45" y="20" font-size="16">中证500指数 收益率直方图</text>
<line class="axis-x" x1="45" y1="315" x2="855" y2="315" stroke="black" stroke-width="1"/>
<line class="axis-y" x1="45" y1="45" x2="45" y2="315" stroke="black" stroke-width="1"/>
<text x="450.0" y="355" font-size="12" text-anchor="middle">收益率</text>
<text x="14" y="180.0" font-size="12" text-anchor="middle" transform="rotate(-90 14 180.0)">频数</text>
<line x1="45.0" y1="315" x2="45.0" y2="320" stroke="black" stroke-width="1"/>
<text x="45.0" y="333" font-size="10" text-anchor="middle">-0.094</text>
<line x1="450.0" y1="315" x2="450.0" y2="320" stroke="black" stroke-width="1"/>
<text x="450.0" y="333" font-size="10" text-anchor="middle">0.000</text>
<line x1="855.0" y1="315" x2="855.0" y2="320" stroke="black" stroke-width="1"/>
<text x="855.0" y="333" font-size="10" text-anchor="middle">0.094</text>
<line x1="40" y1="315.0" x2="45" y2="315.0" stroke="black" stroke-width="1"/>
<text x="37" y="318.0" font-size="10" text-anchor="end">0</text>
<line x1="40" y1="180.0" x2="45" y2="180.0" stroke="black" stroke-width="1"/>
<text x="37" y="183.0" font-size="10" text-anchor="end">409</text>
<line x1="40" y1="45.0" x2="45" y2="45.0" stroke="black" stroke-width="1"/>
<text x="37" y="48.0" font-size="10" text-anchor="end">818</text>
<rect x="45.0" y="312.4" width="26.0" height="2.6" fill="#9ecae1"/><rect x="72.0" y="313.0" width="26.0" height="2.0" fill="#9ecae1"/><rect x="99.0" y="311.0" width="26.0" height="4.0" fill="#9ecae1"/><rect x="126.0" y="310.4" width="26.0" height="4.6" fill="#9ecae1"/><rect x="153.0" y="308.4" width="26.0" height="6.6" fill="#9ecae1"/><rect x="180.0" y="310.7" width="26.0" height="4.3" fill="#9ecae1"/><rect x="207.0" y="309.4" width="26.0" height="5.6" fill="#9ecae1"/><rect x="234.0" y="306.7" width="26.0" height="8.3" fill="#9ecae1"/><rect x="261.0" y="299.2" width="26.0" height="15.8" fill="#9ecae1"/><rect x="288.0" y="294.9" width="26.0" height="20.1" fill="#9ecae1"/><rect x="315.0" y="278.7" width="26.0" height="36.3" fill="#9ecae1"/><rect x="342.0" y="258.9" width="26.0" height="56.1" fill="#9ecae1"/><rect x="369.0" y="228.2" width="26.0" height="86.8" fill="#9ecae1"/><rect x="396.0" y="163.5" width="26.0" height="151.5" fill="#9ecae1"/><rect x="423.0" y="87.9" width="26.0" height="227.1" fill="#9ecae1"/><rect x="450.0" y="45.0" width="26.0" height="270.0" fill="#9ecae1"/><rect x="477.0" y="97.2" width="26.0" height="217.8" fill="#9ecae1"/><rect x="504.0" y="180.0" width="26.0" height="135.0" fill="#9ecae1"/><rect x="531.0" y="237.1" width="26.0" height="77.9" fill="#9ecae1"/><rect x="558.0" y="279.4" width="26.0" height="35.6" fill="#9ecae1"/><rect x="585.0" y="290.2" width="26.0" height="24.8" fill="#9ecae1"/><rect x="612.0" y="306.7" width="26.0" height="8.3" fill="#9ecae1"/><rect x="639.0" y="307.7" width="26.0" height="7.3" fill="#9ecae1"/><rect x="666.0" y="310.0" width="26.0" height="5.0" fill="#9ecae1"/><rect x="693.0" y="313.7" width="26.0" height="1.3" fill="#9ecae1"/><rect x="720.0" y="314.0" width="26.0" height="1.0" fill="#9ecae1"/><rect x="747.0" y="314.7" width="26.0" height="0.3" fill="#9ecae1"/><rect x="774.0" y="314.0" width="26.0" height="1.0" fill="#9ecae1"/><rect x="801.0" y="315.0" width="26.0" height="0.0" fill="#9ecae1"/><rect x="828.0" y="314.3" width="26.0" height="0.7" fill="#9ecae1"/>
<polyline fill="none" stroke="#d62728" stroke-width="2" points="45.0,315.0 51.8,315.0 58.6,315.0 65.4,315.0 72.2,315.0 79.0,315.0 85.8,315.0 92.6,315.0 99.5,315.0 106.3,315.0 113.1,314.9 119.9,314.9 126.7,314.9 133.5,314.8 140.3,314.8 147.1,314.7 153.9,314.6 160.7,314.5 167.5,314.3 174.3,314.1 181.1,313.8 187.9,313.4 194.7,312.9 201.6,312.3 208.4,311.6 215.2,310.6 222.0,309.5 228.8,308.0 235.6,306.3 242.4,304.3 249.2,301.8 256.0,298.9 262.8,295.4 269.6,291.4 276.4,286.8 283.2,281.5 290.0,275.4 296.8,268.6 303.7,261.0 310.5,252.5 317.3,243.3 324.1,233.2 330.9,222.3 337.7,210.7 344.5,198.5 351.3,185.7 358.1,172.5 364.9,159.1 371.7,145.5 378.5,132.0 385.3,118.8 392.1,106.1 398.9,94.1 405.8,83.0 412.6,73.0 419.4,64.2 426.2,57.0 433.0,51.3 439.8,47.4 446.6,45.3 453.4,45.0 460.2,46.6 467.0,49.9 473.8,55.1 480.6,61.8 487.4,70.1 494.2,79.8 501.1,90.6 507.9,102.3 514.7,114.8 521.5,127.9 528.3,141.3 535.1,154.9 541.9,168.4 548.7,181.7 555.5,194.6 562.3,207.0 569.1,218.8 575.9,229.9 582.7,240.2 589.5,249.8 596.3,258.5 603.2,266.3 610.0,273.4 616.8,279.7 623.6,285.2 630.4,290.1 637.2,294.3 644.0,297.9 650.8,300.9 657.6,303.5 664.4,305.7 671.2,307.6 678.0,309.1 684.8,310.3 691.6,311.3 698.4,312.1 705.3,312.7 712.1,313.3 718.9,313.7 725.7,314.0 732.5,314.2 739.3,314.4 746.1,314.6 752.9,314.7 759.7,314.8 766.5,314.8 773.3,314.9 780.1,314.9 786.9,314.9 793.7,315.0 800.5,315.0 807.4,315.0 814.2,315.0 821.0,315.0 827.8,315.0 834.6,315.0 841.4,315.0 848.2,315.0 855.0,315.0"/>
</svg>
