<svg xmlns="http://www.w3.org/2000/svg" width="900" height="360">
<rect width="100%" height="100%" fill="white"/>
<text x="30" y="20" font-size="16">中证500指数 收益率直方图</text>
<rect x="30.0" y="327.1" width="27.0" height="2.9" fill="#9ecae1"/><rect x="58.0" y="327.8" width="27.0" height="2.2" fill="#9ecae1"/><rect x="86.0" y="325.6" width="27.0" height="4.4" fill="#9ecae1"/><rect x="114.0" y="324.9" width="27.0" height="5.1" fill="#9ecae1"/><rect x="142.0" y="322.7" width="27.0" height="7.3" fill="#9ecae1"/><rect x="170.0" y="325.2" width="27.0" height="4.8" fill="#9ecae1"/><rect x="198.0" y="323.8" width="27.0" height="6.2" fill="#9ecae1"/><rect x="226.0" y="320.8" width="27.0" height="9.2" fill="#9ecae1"/><rect x="254.0" y="312.4" width="27.0" height="17.6" fill="#9ecae1"/><rect x="282.0" y="307.6" width="27.0" height="22.4" fill="#9ecae1"/><rect x="310.0" y="289.7" width="27.0" height="40.3" fill="#9ecae1"/><rect x="338.0" y="267.7" width="27.0" height="62.3" fill="#9ecae1"/><rect x="366.0" y="233.5" width="27.0" height="96.5" fill="#9ecae1"/><rect x="394.0" y="161.7" width="27.0" height="168.3" fill="#9ecae1"/><rect x="422.0" y="77.7" width="27.0" height="252.3" fill="#9ecae1"/><rect x="450.0" y="30.0" width="27.0" height="300.0" fill="#9ecae1"/><rect x="478.0" y="87.9" width="27.0" height="242.1" fill="#9ecae1"/><rect x="506.0" y="180.0" width="27.0" height="150.0" fill="#9ecae1"/><rect x="534.0" y="243.4" width="27.0" height="86.6" fill="#9ecae1"/><rect x="562.0" y="290.4" width="27.0" height="39.6" fill="#9ecae1"/><rect x="590.0" y="302.5" width="27.0" height="27.5" fill="#9ecae1"/><rect x="618.0" y="320.8" width="27.0" height="9.2" fill="#9ecae1"/><rect x="646.0" y="321.9" width="27.0" height="8.1" fill="#9ecae1"/><rect x="674.0" y="324.5" width="27.0" height="5.5" fill="#9ecae1"/><rect x="702.0" y="328.5" width="27.0" height="1.5" fill="#9ecae1"/><rect x="730.0" y="328.9" width="27.0" height="1.1" fill="#9ecae1"/><rect x="758.0" y="329.6" width="27.0" height="0.4" fill="#9ecae1"/><rect x="786.0" y="328.9" width="27.0" height="1.1" fill="#9ecae1"/><rect x="814.0" y="330.0" width="27.0" height="0.0" fill="#9ecae1"/><rect x="842.0" y="329.3" width="27.0" height="0.7" fill="#9ecae1"/>
<polyline fill="none" stroke="#d62728" stroke-width="2" points="30.0,330.0 37.1,330.0 44.1,330.0 51.2,330.0 58.2,330.0 65.3,330.0 72.4,330.0 79.4,330.0 86.5,330.0 93.5,330.0 100.6,329.9 107.6,329.9 114.7,329.9 121.8,329.8 128.8,329.8 135.9,329.7 142.9,329.6 150.0,329.4 157.1,329.2 164.1,329.0 171.2,328.6 178.2,328.2 185.3,327.7 192.4,327.0 199.4,326.2 206.5,325.1 213.5,323.8 220.6,322.3 227.6,320.4 234.7,318.1 241.8,315.3 248.8,312.1 255.9,308.2 262.9,303.8 270.0,298.6 277.1,292.7 284.1,286.0 291.2,278.4 298.2,270.0 305.3,260.6 312.4,250.3 319.4,239.1 326.5,227.0 333.5,214.1 340.6,200.6 347.6,186.4 354.7,171.7 361.8,156.8 368.8,141.7 375.9,126.7 382.9,112.0 390.0,97.9 397.1,84.5 404.1,72.2 411.2,61.1 418.2,51.4 425.3,43.3 432.4,37.0 439.4,32.7 446.5,30.3 453.5,30.0 460.6,31.7 467.6,35.5 474.7,41.2 481.8,48.7 488.8,57.9 495.9,68.6 502.9,80.6 510.0,93.7 517.1,107.6 524.1,122.1 531.2,137.1 538.2,152.1 545.3,167.1 552.4,181.9 559.4,196.2 566.5,210.0 573.5,223.1 580.6,235.5 587.6,246.9 594.7,257.5 601.8,267.2 608.8,275.9 615.9,283.8 622.9,290.7 630.0,296.9 637.1,302.3 644.1,306.9 651.2,311.0 658.2,314.4 665.3,317.3 672.4,319.7 679.4,321.7 686.5,323.4 693.5,324.8 700.6,325.9 707.6,326.8 714.7,327.5 721.8,328.1 728.8,328.5 735.9,328.9 742.9,329.2 750.0,329.4 757.1,329.5 764.1,329.6 771.2,329.7 778.2,329.8 785.3,329.9 792.4,329.9 799.4,329.9 806.5,329.9 813.5,330.0 820.6,330.0 827.6,330.0 834.7,330.0 841.8,330.0 848.8,330.0 855.9,330.0 862.9,330.0 870.0,330.0"/>
</svg>
