<svg xmlns="http://www.w3.org/2000/svg" width="900" height="360">
<rect width="100%" height="100%" fill="white"/>
<text x="45" y="20" font-size="16">中证500指数 价格</text>
<line class="axis-x" x1="45" y1="315" x2="855" y2="315" stroke="black" stroke-width="1"/>
<line class="axis-y" x1="45" y1="45" x2="45" y2="315" stroke="black" stroke-width="1"/>
<text x="450.0" y="355" font-size="12" text-anchor="middle">样本点</text>
<text x="14" y="180.0" font-size="12" text-anchor="middle" transform="rotate(-90 14 180.0)">价格</text>
<line x1="45.0" y1="315" x2="45.0" y2="320" stroke="black" stroke-width="1"/>
<text x="45.0" y="333" font-size="10" text-anchor="middle">1</text>
<line x1="449.9" y1="315" x2="449.9" y2="320" stroke="black" stroke-width="1"/>
<text x="449.9" y="333" font-size="10" text-anchor="middle">2148</text>
<line x1="855.0" y1="315" x2="855.0" y2="320" stroke="black" stroke-width="1"/>
<text x="855.0" y="333" font-size="10" text-anchor="middle">4296</text>
<line x1="40" y1="315.0" x2="45" y2="315.0" stroke="black" stroke-width="1"/>
<text x="37" y="318.0" font-size="10" text-anchor="end">696.85</text>
<line x1="40" y1="180.0" x2="45" y2="180.0" stroke="black" stroke-width="1"/>
<text x="37" y="183.0" font-size="10" text-anchor="end">6121.37</text>
<line x1="40" y1="45.0" x2="45" y2="45.0" stroke="black" stroke-width="1"/>
<text x="37" y="48.0" font-size="10" text-anchor="end">11545.89</text>
<polyline fill="none" stroke="#1f77b4" stroke-width="2" points="45.0,307.5 45.2,307.8 45.4,307.4 45.6,307.6 45.8,307.5 45.9,307.3 46.1,307.2 46.3,307.2 46.5,307.1 46.7,307.5 46.9,308.0 47.1,307.7 47.3,307.8 47.5,308.1 47.6,307.7 47.8,307.3 48.0,307.5 48.2,307.8 48.4,308.2 48.6,308.6 48.8,309.4 49.0,309.6 49.1,308.3 49.3,308.8 49.5,308.4 49.7,308.1 49.9,308.0 50.1,308.3 50.3,307.9 50.5,307.3 50.7,307.0 50.8,306.8 51.0,306.9 51.2,306.9 51.4,306.9 51.6,307.3 51.8,307.2 52.0,307.4 52.2,307.3 52.4,306.7 52.5,306.6 52.7,307.3 52.9,307.2 53.1,307.3 53.3,307.6 53.5,307.9 53.7,308.2 53.9,308.7 54.1,308.7 54.2,309.4 54.4,309.4 54.6,309.1 54.8,309.2 55.0,309.4 55.2,309.5 55.4,310.2 55.6,310.0 55.7,309.3 55.9,309.7 56.1,309.9 56.3,309.5 56.5,309.1 56.7,308.7 56.9,308.7 57.1,309.3 57.3,308.7 57.4,309.1 57.6,309.6 57.8,309.9 58.0,309.9 58.2,310.3 58.4,310.8 58.6,311.0 58.8,311.4 59.0,311.1 59.1,311.4 59.3,310.9 59.5,311.2 59.7,312.0 59.9,312.0 60.1,312.1 60.3,312.2 60.5,312.1 60.7,312.2 60.8,312.0 61.0,311.8 61.2,311.8 61.4,312.0 61.6,312.6 61.8,312.2 62.0,312.2 62.2,312.5 62.4,312.7 62.5,312.5 62.7,312.5 62.9,313.0 63.1,313.2 63.3,313.3 63.5,313.0 63.7,312.9 63.9,311.4 64.0,311.2 64.2,311.6 64.4,311.6 64.6,312.0 64.8,312.5 65.0,312.3 65.2,312.4 65.4,311.8 65.6,312.0 65.7,312.0 65.9,312.2 66.1,312.1 66.3,311.6 66.5,312.0 66.7,312.1 66.9,312.6 67.1,313.4 67.3,313.7 67.4,313.8 67.6,313.8 67.8,313.7 68.0,314.4 68.2,314.6 68.4,313.9 68.6,314.1 68.8,314.1 69.0,314.6 69.1,315.0 69.3,314.8 69.5,314.7 69.7,314.8 69.9,314.4 70.1,314.5 70.3,314.0 70.5,313.7 70.6,313.7 70.8,313.8 71.0,313.7 71.2,313.3 71.4,313.2 71.6,313.3 71.8,312.7 72.0,312.4 72.2,312.1 72.3,311.8 72.5,311.6 72.7,312.0 72.9,311.4 73.1,311.5 73.3,311.1 73.5,311.9 73.7,311.9 73.9,311.6 74.0,312.0 74.2,311.8 74.4,311.5 74.6,311.4 74.8,311.6 75.0,311.7 75.2,311.3 75.4,310.8 75.6,310.6 75.7,310.3 75.9,310.9 76.1,310.2 76.3,310.2 76.5,310.5 76.7,310.4 76.9,309.8 77.1,309.6 77.2,309.5 77.4,309.5 77.6,309.2 77.8,309.3 78.0,309.7 78.2,310.4 78.4,310.7 78.6,310.6 78.8,311.0 78.9,311.1 79.1,310.7 79.3,310.7 79.5,311.0 79.7,310.5 79.9,310.3 80.1,310.4 80.3,310.5 80.5,310.5 80.6,310.1 80.8,310.3 81.0,310.3 81.2,310.1 81.4,310.0 81.6,310.5 81.8,311.1 82.0,311.2 82.2,311.8 82.3,311.7 82.5,311.9 82.7,311.4 82.9,311.7 83.1,311.6 83.3,311.4 83.5,311.2 83.7,311.3 83.8,311.9 84.0,311.8 84.2,311.7 84.4,311.9 84.6,311.8 84.8,311.8 85.0,311.3 85.2,311.3 85.4,311.6 85.5,311.5 85.7,311.4 85.9,311.4 86.1,311.5 86.3,311.8 86.5,311.7 86.7,311.7 86.9,312.0 87.1,312.5 87.2,312.5 87.4,312.3 87.6,312.3 87.8,312.0 88.0,311.8 88.2,311.8 88.4,311.6 88.6,311.7 88.8,311.6 88.9,311.6 89.1,311.5 89.3,311.7 89.5,311.5 89.7,311.3 89.9,311.1 90.1,311.1 90.3,311.0 90.5,310.8 90.6,310.9 90.8,310.6 91.0,310.4 91.2,310.1 91.4,309.8 91.6,309.7 91.8,309.8 92.0,309.3 92.1,309.1 92.3,309.4 92.5,309.5 92.7,309.0 92.9,308.7 93.1,308.6 93.3,308.4 93.5,308.4 93.7,308.5 93.8,307.9 94.0,307.9 94.2,307.9 94.4,308.2 94.6,307.9 94.8,308.0 95.0,307.8 95.2,307.8 95.4,308.5 95.5,308.7 95.7,308.9 95.9,308.5 96.1,308.5 96.3,308.5 96.5,308.3 96.7,308.4 96.9,308.3 97.1,308.2 97.2,308.6 97.4,308.6 97.6,308.6 97.8,309.2 98.0,309.3 98.2,309.4 98.4,309.4 98.6,309.2 98.7,309.2 98.9,308.9 99.1,308.8 99.3,308.9 99.5,308.5 99.7,308.5 99.9,308.1 100.1,307.9 100.3,308.1 100.4,307.8 100.6,307.6 100.8,307.5 101.0,307.8 101.2,307.4 101.4,306.8 101.6,306.5 101.8,306.2 102.0,306.1 102.1,305.8 102.3,305.2 102.5,305.1 102.7,305.1 102.9,305.9 103.1,305.3 103.3,305.1 103.5,305.0 103.7,305.0 103.8,305.2 104.0,304.9 104.2,305.1 104.4,304.9 104.6,304.5 104.8,304.3 105.0,303.9 105.2,303.0 105.3,302.0 105.5,301.4 105.7,301.5 105.9,300.4 106.1,298.9 106.3,300.0 106.5,299.5 106.7,299.3 106.9,298.4 107.0,297.8 107.2,299.3 107.4,299.8 107.6,299.4 107.8,298.6 108.0,297.8 108.2,297.2 108.4,297.4 108.6,296.1 108.7,296.1 108.9,295.4 109.1,295.7 109.3,298.2 109.5,298.1 109.7,298.8 109.9,298.7 110.1,298.5 110.3,298.8 110.4,298.7 110.6,297.9 110.8,297.6 111.0,297.1 111.2,297.2 111.4,297.2 111.6,296.7 111.8,296.1 111.9,295.9 112.1,296.0 112.3,295.3 112.5,295.4 112.7,294.7 112.9,294.8 113.1,295.1 113.3,294.0 113.5,294.0 113.6,293.8 113.8,293.5 114.0,293.5 114.2,296.0 114.4,295.7 114.6,295.1 114.8,294.8 115.0,295.7 115.2,295.4 115.3,295.2 115.5,295.1 115.7,294.6 115.9,294.4 116.1,294.8 116.3,295.2 116.5,296.9 116.7,297.3 116.9,297.5 117.0,297.5 117.2,298.6 117.4,299.4 117.6,298.4 117.8,298.3 118.0,297.7 118.2,297.6 118.4,298.6 118.6,297.9 118.7,297.3 118.9,297.6 119.1,297.9 119.3,297.7 119.5,297.3 119.7,297.4 119.9,297.1 120.1,297.0 120.2,296.1 120.4,296.1 120.6,295.8 120.8,295.5 121.0,296.2 121.2,295.4 121.4,295.3 121.6,295.1 121.8,295.7 121.9,295.7 122.1,295.5 122.3,295.3 122.5,295.9 122.7,295.8 122.9,295.4 123.1,294.8 123.3,294.7 123.5,294.6 123.6,294.5 123.8,294.8 124.0,294.7 124.2,294.8 124.4,294.5 124.6,294.1 124.8,293.7 125.0,293.0 125.2,292.8 125.3,292.7 125.5,293.3 125.7,293.1 125.9,293.3 126.1,293.3 126.3,292.8 126.5,292.6 126.7,292.8 126.8,294.1 127.0,293.1 127.2,293.4 127.4,293.6 127.6,294.3 127.8,294.3 128.0,294.0 128.2,293.8 128.4,293.9 128.5,293.8 128.7,294.0 128.9,294.4 129.1,294.5 129.3,294.1 129.5,295.0 129.7,296.4 129.9,296.0 130.1,295.4 130.2,295.9 130.4,295.6 130.6,295.8 130.8,295.6 131.0,295.0 131.2,294.8 131.4,294.2 131.6,293.3 131.8,293.1 131.9,292.6 132.1,291.9 132.3,291.8 132.5,291.0 132.7,290.6 132.9,291.3 133.1,291.7 133.3,293.2 133.4,292.0 133.6,291.9 133.8,291.7 134.0,291.0 134.2,290.3 134.4,289.6 134.6,289.4 134.8,288.6 135.0,289.1 135.1,289.3 135.3,288.9 135.5,289.4 135.7,289.1 135.9,289.9 136.1,289.4 136.3,289.4 136.5,288.3 136.7,286.3 136.8,285.3 137.0,284.0 137.2,283.8 137.4,285.5 137.6,282.9 137.8,281.2 138.0,281.7 138.2,280.4 138.4,278.6 138.5,276.1 138.7,276.1 138.9,275.5 139.1,278.2 139.3,277.9 139.5,276.1 139.7,276.2 139.9,279.0 140.1,278.5 140.2,279.4 140.4,278.8 140.6,277.6 140.8,276.6 141.0,275.6 141.2,275.4 141.4,274.1 141.6,273.0 141.7,271.7 141.9,269.8 142.1,269.1 142.3,266.6 142.5,272.5 142.7,269.8 142.9,271.1 143.1,270.0 143.3,269.8 143.4,269.7 143.6,268.1 143.8,266.8 144.0,266.7 144.2,265.2 144.4,264.5 144.6,264.9 144.8,263.6 145.0,264.9 145.1,263.9 145.3,262.4 145.5,261.2 145.7,261.1 145.9,260.2 146.1,258.0 146.3,256.7 146.5,257.6 146.7,260.3 146.8,259.5 147.0,257.8 147.2,256.6 147.4,255.7 147.6,254.4 147.8,253.1 148.0,251.7 148.2,251.2 148.3,250.0 148.5,248.0 148.7,248.8 148.9,246.3 149.1,243.8 149.3,241.5 149.5,246.8 149.7,242.4 149.9,238.2 150.0,237.2 150.2,237.6 150.4,236.4 150.6,236.6 150.8,235.2 151.0,230.5 151.2,230.3 151.4,229.6 151.6,230.1 151.7,229.5 151.9,232.8 152.1,229.9 152.3,227.3 152.5,226.9 152.7,223.7 152.9,221.4 153.1,218.3 153.3,218.6 153.4,216.6 153.6,213.8 153.8,211.5 154.0,221.4 154.2,226.1 154.4,233.8 154.6,242.3 154.8,241.3 154.9,239.3 155.1,234.4 155.3,232.7 155.5,230.2 155.7,227.4 155.9,223.5 156.1,225.0 156.3,224.9 156.5,221.9 156.6,219.6 156.8,222.9 157.0,223.5 157.2,229.7 157.4,236.5 157.6,234.6 157.8,232.2 158.0,238.8 158.2,243.1 158.3,241.6 158.5,240.1 158.7,242.2 158.9,248.2 159.1,243.0 159.3,240.0 159.5,242.6 159.7,241.4 159.9,241.0 160.0,241.4 160.2,244.4 160.4,242.5 160.6,242.1 160.8,241.7 161.0,238.1 161.2,233.2 161.4,233.0 161.5,230.1 161.7,228.0 161.9,226.1 162.1,224.0 162.3,222.8 162.5,228.8 162.7,224.4 162.9,222.6 163.1,220.2 163.2,221.1 163.4,223.0 163.6,221.8 163.8,224.1 164.0,224.6 164.2,221.9 164.4,222.5 164.6,221.9 164.8,223.1 164.9,218.6 165.1,217.2 165.3,215.7 165.5,214.5 165.7,214.3 165.9,214.8 166.1,214.6 166.3,215.3 166.5,211.8 166.6,210.5 166.8,207.7 167.0,208.4 167.2,207.6 167.4,206.3 167.6,209.4 167.8,206.9 168.0,214.9 168.2,213.6 168.3,211.1 168.5,209.5 168.7,206.7 168.9,205.5 169.1,207.2 169.3,205.9 169.5,207.2 169.7,206.5 169.8,207.6 170.0,209.6 170.2,208.6 170.4,205.8 170.6,205.7 170.8,204.4 171.0,205.2 171.2,207.8 171.4,210.6 171.5,210.6 171.7,209.3 171.9,209.7 172.1,212.5 172.3,212.5 172.5,215.7 172.7,215.7 172.9,217.9 173.1,226.5 173.2,227.1 173.4,225.6 173.6,223.1 173.8,219.1 174.0,222.1 174.2,224.6 174.4,223.8 174.6,223.0 174.8,223.2 174.9,227.7 175.1,229.0 175.3,230.3 175.5,229.9 175.7,226.2 175.9,227.6 176.1,227.4 176.3,225.0 176.4,223.5 176.6,225.1 176.8,230.0 177.0,228.0 177.2,229.0 177.4,230.1 177.6,230.9 177.8,228.2 178.0,229.7 178.1,228.6 178.3,228.0 178.5,226.0 178.7,225.6 178.9,223.8 179.1,220.8 179.3,219.5 179.5,219.2 179.7,222.8 179.8,220.4 180.0,220.2 180.2,221.2 180.4,218.7 180.6,217.3 180.8,215.6 181.0,213.6 181.2,212.5 181.4,210.1 181.5,208.8 181.7,209.2 181.9,204.8 182.1,202.2 182.3,201.9 182.5,199.3 182.7,202.9 182.9,199.0 183.0,198.4 183.2,198.5 183.4,196.8 183.6,195.8 183.8,197.6 184.0,201.2 184.2,200.0 184.4,205.5 184.6,216.3 184.7,210.1 184.9,205.9 185.1,205.5 185.3,214.4 185.5,211.9 185.7,211.6 185.9,216.3 186.1,221.4 186.3,212.4 186.4,211.9 186.6,212.5 186.8,210.1 187.0,210.7 187.2,206.8 187.4,204.6 187.6,205.7 187.8,204.1 188.0,207.2 188.1,211.2 188.3,211.2 188.5,208.5 188.7,208.2 188.9,206.5 189.1,202.2 189.3,203.1 189.5,202.6 189.6,202.3 189.8,205.0 190.0,209.2 190.2,207.5 190.4,210.9 190.6,215.7 190.8,216.3 191.0,225.3 191.2,233.1 191.3,228.4 191.5,224.1 191.7,222.7 191.9,225.0 192.1,223.7 192.3,224.0 192.5,229.8 192.7,226.8 192.9,231.7 193.0,240.2 193.2,245.2 193.4,243.0 193.6,237.2 193.8,235.1 194.0,240.4 194.2,237.7 194.4,236.2 194.6,242.6 194.7,239.7 194.9,241.9 195.1,244.9 195.3,249.3 195.5,249.9 195.7,251.1 195.9,247.5 196.1,239.7 196.3,238.9 196.4,239.5 196.6,238.8 196.8,235.2 197.0,231.8 197.2,232.2 197.4,236.5 197.6,233.2 197.8,233.1 197.9,231.1 198.1,230.8 198.3,228.6 198.5,229.5 198.7,231.0 198.9,231.1 199.1,237.4 199.3,235.1 199.5,236.0 199.6,237.0 199.8,239.5 200.0,239.2 200.2,236.6 200.4,239.0 200.6,238.9 200.8,238.1 201.0,238.5 201.2,240.2 201.3,241.3 201.5,242.0 201.7,249.9 201.9,252.0 202.1,252.8 202.3,256.6 202.5,258.2 202.7,262.9 202.9,258.9 203.0,265.1 203.2,263.5 203.4,264.7 203.6,262.5 203.8,258.5 204.0,257.6 204.2,262.8 204.4,262.3 204.5,263.5 204.7,262.4 204.9,259.1 205.1,259.1 205.3,255.3 205.5,254.1 205.7,252.1 205.9,253.9 206.1,254.4 206.2,252.7 206.4,255.0 206.6,259.0 206.8,259.7 207.0,257.3 207.2,254.2 207.4,253.9 207.6,254.6 207.8,252.7 207.9,253.4 208.1,252.3 208.3,253.9 208.5,254.4 208.7,257.3 208.9,256.1 209.1,257.9 209.3,260.2 209.5,260.1 209.6,259.6 209.8,264.8 210.0,269.9 210.2,270.8 210.4,270.8 210.6,270.5 210.8,270.8 211.0,275.4 211.1,274.4 211.3,269.6 211.5,271.8 211.7,273.0 211.9,273.3 212.1,276.5 212.3,276.6 212.5,276.7 212.7,274.9 212.8,276.6 213.0,276.3 213.2,276.7 213.4,276.2 213.6,278.9 213.8,281.6 214.0,281.1 214.2,280.8 214.4,281.7 214.5,281.6 214.7,282.7 214.9,283.7 215.1,285.1 215.3,280.4 215.5,278.0 215.7,281.5 215.9,280.4 216.1,279.1 216.2,279.2 216.4,281.2 216.6,281.4 216.8,282.7 217.0,283.3 217.2,286.6 217.4,285.7 217.6,287.1 217.7,287.4 217.9,289.9 218.1,289.4 218.3,287.9 218.5,288.0 218.7,288.8 218.9,288.4 219.1,289.0 219.3,292.4 219.4,291.5 219.6,293.1 219.8,292.8 220.0,293.5 220.2,294.0 220.4,294.7 220.6,293.4 220.8,294.1 221.0,293.5 221.1,290.6 221.3,291.0 221.5,289.9 221.7,287.9 221.9,285.9 222.1,283.6 222.3,287.1 222.5,284.0 222.7,283.8 222.8,284.5 223.0,286.5 223.2,286.9 223.4,286.7 223.6,286.0 223.8,286.5 224.0,284.6 224.2,283.6 224.4,281.6 224.5,281.6 224.7,280.1 224.9,277.8 225.1,279.2 225.3,277.7 225.5,279.4 225.7,281.8 225.9,280.8 226.0,279.8 226.2,279.2 226.4,278.2 226.6,277.7 226.8,277.8 227.0,281.2 227.2,282.3 227.4,282.5 227.6,283.0 227.7,282.9 227.9,283.3 228.1,284.1 228.3,282.1 228.5,280.3 228.7,280.0 228.9,281.3 229.1,279.9 229.3,279.1 229.4,280.5 229.6,278.6 229.8,278.1 230.0,277.7 230.2,277.8 230.4,277.2 230.6,277.2 230.8,276.2 231.0,276.6 231.1,274.9 231.3,273.4 231.5,272.0 231.7,273.0 231.9,270.3 232.1,268.2 232.3,266.3 232.5,266.2 232.6,265.0 232.8,262.5 233.0,261.3 233.2,264.2 233.4,266.8 233.6,265.5 233.8,263.2 234.0,260.9 234.2,263.8 234.3,263.4 234.5,268.4 234.7,272.2 234.9,270.7 235.1,270.1 235.3,266.4 235.5,265.9 235.7,266.3 235.9,269.2 236.0,267.6 236.2,268.0 236.4,267.7 236.6,268.4 236.8,267.6 237.0,265.2 237.2,264.3 237.4,262.7 237.6,263.1 237.7,261.6 237.9,261.0 238.1,263.0 238.3,261.3 238.5,260.7 238.7,260.6 238.9,259.8 239.1,258.6 239.2,258.5 239.4,259.3 239.6,258.5 239.8,261.0 240.0,259.8 240.2,257.4 240.4,256.4 240.6,255.2 240.8,254.1 240.9,253.7 241.1,254.7 241.3,252.6 241.5,252.6 241.7,256.6 241.9,256.2 242.1,256.8 242.3,259.8 242.5,258.7 242.6,256.7 242.8,255.5 243.0,252.9 243.2,252.2 243.4,251.1 243.6,251.6 243.8,251.3 244.0,254.3 244.2,252.4 244.3,251.9 244.5,251.5 244.7,250.9 244.9,250.3 245.1,249.6 245.3,250.1 245.5,251.5 245.7,251.3 245.8,250.9 246.0,250.8 246.2,250.8 246.4,249.4 246.6,248.9 246.8,248.2 247.0,248.3 247.2,248.8 247.4,249.0 247.5,248.6 247.7,247.6 247.9,248.1 248.1,250.0 248.3,248.8 248.5,249.0 248.7,247.6 248.9,246.9 249.1,246.9 249.2,247.6 249.4,247.9 249.6,246.9 249.8,247.0 250.0,246.5 250.2,245.8 250.4,246.4 250.6,245.1 250.8,244.2 250.9,243.1 251.1,242.9 251.3,243.0 251.5,241.9 251.7,240.2 251.9,239.8 252.1,238.9 252.3,237.4 252.5,236.6 252.6,237.0 252.8,236.5 253.0,234.8 253.2,237.2 253.4,235.4 253.6,234.5 253.8,235.1 254.0,233.5 254.1,232.2 254.3,238.7 254.5,237.7 254.7,234.6 254.9,232.3 255.1,231.1 255.3,231.1 255.5,232.4 255.7,235.5 255.8,234.5 256.0,234.0 256.2,238.5 256.4,238.3 256.6,242.5 256.8,248.8 257.0,247.1 257.2,251.5 257.4,248.4 257.5,246.0 257.7,244.2 257.9,245.6 258.1,242.9 258.3,242.0 258.5,244.5 258.7,250.8 258.9,251.6 259.1,251.1 259.2,247.0 259.4,245.5 259.6,244.6 259.8,242.9 260.0,242.4 260.2,243.2 260.4,241.7 260.6,239.4 260.7,238.4 260.9,238.2 261.1,236.1 261.3,239.3 261.5,237.7 261.7,240.1 261.9,242.9 262.1,243.5 262.3,244.3 262.4,246.9 262.6,248.4 262.8,247.7 263.0,243.3 263.2,242.8 263.4,241.3 263.6,240.4 263.8,240.2 264.0,239.8 264.1,237.6 264.3,236.1 264.5,236.8 264.7,236.4 264.9,235.1 265.1,235.0 265.3,237.6 265.5,236.6 265.7,238.3 265.8,237.1 266.0,233.9 266.2,231.5 266.4,230.7 266.6,229.7 266.8,229.2 267.0,228.4 267.2,228.2 267.3,227.8 267.5,227.5 267.7,226.1 267.9,223.7 268.1,223.1 268.3,222.7 268.5,220.9 268.7,220.1 268.9,218.1 269.0,224.1 269.2,220.1 269.4,224.6 269.6,227.4 269.8,222.7 270.0,219.7 270.2,218.1 270.4,217.3 270.6,220.2 270.7,218.3 270.9,218.6 271.1,220.4 271.3,219.4 271.5,219.5 271.7,220.0 271.9,219.8 272.1,220.2 272.3,223.7 272.4,227.7 272.6,226.4 272.8,229.4 273.0,227.6 273.2,224.2 273.4,223.4 273.6,221.7 273.8,221.3 273.9,221.7 274.1,220.7 274.3,220.1 274.5,218.9 274.7,219.1 274.9,221.4 275.1,220.0 275.3,219.3 275.5,216.9 275.6,218.1 275.8,215.0 276.0,214.2 276.2,212.2 276.4,212.1 276.6,216.6 276.8,216.2 277.0,219.4 277.2,220.8 277.3,225.5 277.5,226.1 277.7,224.4 277.9,223.5 278.1,224.5 278.3,225.3 278.5,223.8 278.7,222.6 278.9,225.0 279.0,225.1 279.2,225.0 279.4,223.7 279.6,223.9 279.8,222.4 280.0,222.4 280.2,221.4 280.4,219.0 280.6,217.1 280.7,217.0 280.9,215.7 281.1,215.6 281.3,213.9 281.5,218.2 281.7,217.7 281.9,216.5 282.1,216.4 282.2,217.9 282.4,218.8 282.6,220.5 282.8,221.5 283.0,220.6 283.2,217.5 283.4,217.1 283.6,216.3 283.8,215.6 283.9,216.4 284.1,215.8 284.3,217.3 284.5,215.7 284.7,214.8 284.9,214.3 285.1,214.0 285.3,212.2 285.5,211.8 285.6,211.6 285.8,211.3 286.0,211.3 286.2,209.4 286.4,208.5 286.6,209.9 286.8,208.5 287.0,210.0 287.2,210.4 287.3,215.7 287.5,214.1 287.7,210.5 287.9,210.3 288.1,211.3 288.3,211.2 288.5,214.4 288.7,215.0 288.8,218.8 289.0,221.9 289.2,222.0 289.4,218.7 289.6,222.3 289.8,224.1 290.0,226.1 290.2,229.2 290.4,231.7 290.5,228.9 290.7,228.2 290.9,234.9 291.1,233.5 291.3,233.4 291.5,235.3 291.7,233.2 291.9,228.7 292.1,229.5 292.2,229.2 292.4,227.4 292.6,226.9 292.8,230.2 293.0,232.2 293.2,230.7 293.4,231.5 293.6,230.6 293.8,231.0 293.9,230.1 294.1,227.5 294.3,227.2 294.5,227.9 294.7,229.2 294.9,233.5 295.1,230.6 295.3,229.8 295.4,230.4 295.6,230.4 295.8,232.1 296.0,233.8 296.2,239.3 296.4,241.1 296.6,242.6 296.8,243.1 297.0,243.6 297.1,241.1 297.3,239.8 297.5,240.3 297.7,237.6 297.9,236.5 298.1,238.1 298.3,237.2 298.5,239.4 298.7,238.8 298.8,236.7 299.0,234.0 299.2,233.8 299.4,232.4 299.6,232.4 299.8,231.0 300.0,231.1 300.2,228.8 300.4,228.0 300.5,228.0 300.7,226.1 300.9,228.0 301.1,226.6 301.3,226.1 301.5,223.9 301.7,222.5 301.9,226.7 302.1,225.4 302.2,226.8 302.4,224.8 302.6,222.3 302.8,221.4 303.0,221.4 303.2,221.3 303.4,223.7 303.6,222.7 303.7,221.4 303.9,223.6 304.1,222.9 304.3,222.1 304.5,219.0 304.7,218.1 304.9,219.6 305.1,217.2 305.3,216.3 305.4,216.6 305.6,215.9 305.8,214.9 306.0,216.4 306.2,215.2 306.4,213.1 306.6,212.8 306.8,214.6 307.0,217.6 307.1,217.8 307.3,219.0 307.5,219.2 307.7,216.0 307.9,216.5 308.1,218.1 308.3,216.4 308.5,213.7 308.7,213.2 308.8,212.7 309.0,212.0 309.2,215.9 309.4,215.6 309.6,217.0 309.8,213.4 310.0,213.0 310.2,212.0 310.3,210.9 310.5,207.9 310.7,206.8 310.9,208.0 311.1,207.9 311.3,206.5 311.5,202.9 311.7,203.6 311.9,205.5 312.0,202.2 312.2,200.1 312.4,197.2 312.6,196.3 312.8,195.8 313.0,197.0 313.2,205.1 313.4,201.6 313.6,206.2 313.7,211.5 313.9,209.6 314.1,205.9 314.3,204.2 314.5,206.3 314.7,202.8 314.9,201.4 315.1,202.2 315.3,201.7 315.4,205.1 315.6,205.0 315.8,204.5 316.0,205.4 316.2,207.5 316.4,205.8 316.6,206.2 316.8,208.8 316.9,206.9 317.1,203.5 317.3,201.8 317.5,202.2 317.7,202.5 317.9,202.2 318.1,203.8 318.3,202.4 318.5,203.6 318.6,206.2 318.8,208.1 319.0,211.6 319.2,214.6 319.4,212.6 319.6,212.2 319.8,209.5 320.0,207.6 320.2,207.2 320.3,207.9 320.5,208.5 320.7,212.1 320.9,212.8 321.1,212.0 321.3,212.2 321.5,214.8 321.7,219.9 321.9,219.4 322.0,216.7 322.2,220.9 322.4,220.2 322.6,222.9 322.8,224.3 323.0,222.2 323.2,220.3 323.4,219.2 323.5,217.6 323.7,217.1 323.9,217.6 324.1,214.5 324.3,213.2 324.5,211.1 324.7,211.2 324.9,209.1 325.1,208.2 325.2,209.4 325.4,206.8 325.6,210.2 325.8,208.4 326.0,207.2 326.2,207.1 326.4,205.5 326.6,204.9 326.8,205.2 326.9,207.7 327.1,206.2 327.3,204.5 327.5,203.8 327.7,203.4 327.9,204.3 328.1,204.4 328.3,203.2 328.5,204.6 328.6,202.9 328.8,205.3 329.0,204.7 329.2,205.8 329.4,205.8 329.6,204.0 329.8,203.7 330.0,202.6 330.2,202.9 330.3,205.1 330.5,206.3 330.7,207.9 330.9,206.3 331.1,206.5 331.3,205.7 331.5,204.2 331.7,205.2 331.8,205.1 332.0,203.8 332.2,204.2 332.4,203.9 332.6,203.5 332.8,205.0 333.0,204.1 333.2,203.2 333.4,203.8 333.5,206.5 333.7,208.6 333.9,210.1 334.1,214.0 334.3,212.0 334.5,209.9 334.7,212.5 334.9,212.2 335.1,211.6 335.2,210.6 335.4,209.9 335.6,209.7 335.8,211.3 336.0,210.3 336.2,210.4 336.4,211.0 336.6,210.2 336.8,210.9 336.9,211.3 337.1,215.9 337.3,216.1 337.5,217.4 337.7,218.5 337.9,222.1 338.1,224.2 338.3,221.7 338.4,220.6 338.6,222.1 338.8,220.2 339.0,219.2 339.2,218.8 339.4,221.4 339.6,221.1 339.8,221.1 340.0,219.3 340.1,220.4 340.3,222.8 340.5,224.4 340.7,225.9 340.9,224.4 341.1,224.8 341.3,222.8 341.5,220.1 341.7,218.7 341.8,218.5 342.0,220.1 342.2,218.4 342.4,217.7 342.6,214.9 342.8,214.1 343.0,213.9 343.2,213.8 343.4,214.0 343.5,212.9 343.7,214.6 343.9,212.3 344.1,211.2 344.3,210.5 344.5,210.5 344.7,211.8 344.9,211.7 345.0,213.3 345.2,212.9 345.4,217.5 345.6,217.0 345.8,215.1 346.0,215.8 346.2,217.2 346.4,216.8 346.6,217.6 346.7,217.2 346.9,216.6 347.1,218.9 347.3,224.6 347.5,224.9 347.7,223.4 347.9,221.5 348.1,220.2 348.3,218.6 348.4,219.5 348.6,220.0 348.8,221.9 349.0,223.0 349.2,223.7 349.4,222.0 349.6,222.1 349.8,219.8 350.0,219.6 350.1,220.6 350.3,221.6 350.5,222.1 350.7,223.0 350.9,224.2 351.1,226.9 351.3,227.7 351.5,225.2 351.6,226.3 351.8,227.0 352.0,228.7 352.2,227.5 352.4,227.4 352.6,227.4 352.8,229.5 353.0,229.0 353.2,225.9 353.3,229.0 353.5,229.9 353.7,231.5 353.9,231.1 354.1,232.8 354.3,236.0 354.5,236.4 354.7,237.0 354.9,237.3 355.0,234.0 355.2,232.7 355.4,233.2 355.6,232.9 355.8,235.9 356.0,236.4 356.2,239.3 356.4,241.0 356.6,239.3 356.7,236.7 356.9,235.7 357.1,235.6 357.3,233.3 357.5,232.8 357.7,232.8 357.9,231.0 358.1,230.4 358.3,229.5 358.4,229.9 358.6,231.4 358.8,229.7 359.0,231.2 359.2,231.2 359.4,228.8 359.6,228.0 359.8,230.6 359.9,230.8 360.1,233.7 360.3,233.6 360.5,233.8 360.7,234.2 360.9,234.4 361.1,235.0 361.3,234.9 361.5,233.3 361.6,237.3 361.8,235.4 362.0,237.3 362.2,240.5 362.4,240.5 362.6,240.2 362.8,240.3 363.0,241.2 363.2,242.3 363.3,245.5 363.5,247.1 363.7,249.5 363.9,247.0 364.1,246.9 364.3,247.1 364.5,249.2 364.7,250.2 364.9,249.5 365.0,250.0 365.2,252.1 365.4,252.5 365.6,252.5 365.8,251.0 366.0,252.9 366.2,255.8 366.4,255.5 366.5,252.4 366.7,249.1 366.9,249.1 367.1,249.1 367.3,251.9 367.5,254.4 367.7,250.1 367.9,251.8 368.1,250.9 368.2,249.8 368.4,250.4 368.6,250.4 368.8,251.1 369.0,249.5 369.2,248.1 369.4,247.4 369.6,248.8 369.8,246.6 369.9,246.0 370.1,245.5 370.3,244.7 370.5,244.6 370.7,243.3 370.9,243.3 371.1,243.6 371.3,243.4 371.5,242.3 371.6,240.5 371.8,240.2 372.0,238.8 372.2,238.7 372.4,239.1 372.6,240.4 372.8,239.9 373.0,237.9 373.1,237.8 373.3,238.8 373.5,239.4 373.7,238.0 373.9,236.6 374.1,236.0 374.3,235.0 374.5,239.4 374.7,240.5 374.8,238.1 375.0,237.0 375.2,239.1 375.4,238.8 375.6,239.2 375.8,241.0 376.0,241.1 376.2,241.4 376.4,245.5 376.5,247.1 376.7,247.3 376.9,244.5 377.1,243.9 377.3,244.9 377.5,243.9 377.7,243.6 377.9,241.7 378.1,240.9 378.2,240.6 378.4,242.0 378.6,239.9 378.8,240.1 379.0,239.4 379.2,240.5 379.4,241.1 379.6,239.8 379.7,240.3 379.9,241.1 380.1,239.8 380.3,239.4 380.5,238.8 380.7,238.2 380.9,238.2 381.1,239.8 381.3,239.5 381.4,239.9 381.6,240.0 381.8,240.1 382.0,241.2 382.2,239.9 382.4,241.4 382.6,241.4 382.8,240.0 383.0,240.0 383.1,240.8 383.3,241.9 383.5,240.6 383.7,239.1 383.9,239.0 384.1,238.9 384.3,239.2 384.5,242.2 384.7,242.3 384.8,242.7 385.0,243.2 385.2,243.6 385.4,242.0 385.6,242.5 385.8,240.9 386.0,241.4 386.2,241.5 386.4,240.6 386.5,241.3 386.7,241.9 386.9,243.0 387.1,245.4 387.3,245.5 387.5,245.8 387.7,247.0 387.9,246.0 388.0,245.0 388.2,244.8 388.4,245.3 388.6,247.3 388.8,245.6 389.0,247.8 389.2,248.6 389.4,247.6 389.6,246.5 389.7,246.9 389.9,249.9 390.1,249.4 390.3,248.9 390.5,247.9 390.7,248.5 390.9,249.3 391.1,248.7 391.3,249.4 391.4,250.2 391.6,250.6 391.8,252.3 392.0,253.7 392.2,252.3 392.4,252.8 392.6,251.2 392.8,249.3 393.0,248.5 393.1,248.8 393.3,247.6 393.5,247.8 393.7,249.8 393.9,249.0 394.1,249.9 394.3,250.5 394.5,250.5 394.6,250.5 394.8,249.3 395.0,250.1 395.2,249.5 395.4,251.1 395.6,253.1 395.8,252.7 396.0,253.2 396.2,254.5 396.3,254.2 396.5,252.7 396.7,253.6 396.9,253.2 397.1,252.3 397.3,249.4 397.5,248.6 397.7,249.0 397.9,248.3 398.0,249.5 398.2,249.3 398.4,251.8 398.6,252.1 398.8,251.3 399.0,253.7 399.2,254.1 399.4,253.5 399.6,254.1 399.7,255.9 399.9,254.2 400.1,252.7 400.3,253.1 400.5,251.1 400.7,250.3 400.9,251.5 401.1,251.7 401.2,252.1 401.4,251.9 401.6,251.7 401.8,250.3 402.0,250.6 402.2,250.3 402.4,251.2 402.6,251.3 402.8,252.1 402.9,253.6 403.1,253.7 403.3,253.7 403.5,253.5 403.7,252.0 403.9,251.5 404.1,251.8 404.3,252.4 404.5,252.5 404.6,254.5 404.8,254.8 405.0,254.3 405.2,255.9 405.4,255.7 405.6,257.0 405.8,257.5 406.0,257.3 406.2,257.6 406.3,256.8 406.5,257.8 406.7,257.5 406.9,258.4 407.1,261.1 407.3,262.6 407.5,263.3 407.7,262.2 407.8,263.9 408.0,263.1 408.2,260.5 408.4,260.6 408.6,258.9 408.8,257.6 409.0,258.1 409.2,258.1 409.4,259.1 409.5,256.0 409.7,255.4 409.9,255.5 410.1,255.2 410.3,255.0 410.5,255.2 410.7,254.8 410.9,253.0 411.1,252.0 411.2,252.7 411.4,251.8 411.6,250.8 411.8,251.3 412.0,250.5 412.2,249.5 412.4,249.3 412.6,248.8 412.8,250.9 412.9,248.1 413.1,246.5 413.3,246.5 413.5,247.5 413.7,246.1 413.9,245.5 414.1,246.8 414.3,246.7 414.5,248.5 414.6,248.6 414.8,246.5 415.0,245.7 415.2,245.2 415.4,245.7 415.6,245.0 415.8,245.6 416.0,244.7 416.1,244.1 416.3,243.8 416.5,242.5 416.7,242.1 416.9,243.7 417.1,241.9 417.3,243.7 417.5,244.0 417.7,243.1 417.8,244.4 418.0,244.3 418.2,242.5 418.4,241.5 418.6,244.8 418.8,242.8 419.0,241.4 419.2,242.5 419.4,243.5 419.5,243.5 419.7,245.7 419.9,246.5 420.1,246.1 420.3,246.0 420.5,247.1 420.7,246.8 420.9,244.5 421.1,243.6 421.2,243.2 421.4,243.5 421.6,244.1 421.8,243.9 422.0,246.5 422.2,246.5 422.4,246.0 422.6,247.0 422.7,247.8 422.9,247.4 423.1,246.6 423.3,246.8 423.5,247.1 423.7,247.9 423.9,249.0 424.1,248.1 424.3,247.4 424.4,247.2 424.6,245.4 424.8,244.9 425.0,247.3 425.2,245.6 425.4,246.9 425.6,248.5 425.8,248.1 426.0,246.5 426.1,244.9 426.3,244.7 426.5,243.9 426.7,243.9 426.9,243.3 427.1,243.0 427.3,244.0 427.5,242.8 427.7,241.9 427.8,240.5 428.0,239.3 428.2,238.1 428.4,238.9 428.6,239.7 428.8,238.2 429.0,237.3 429.2,237.1 429.3,236.4 429.5,236.2 429.7,236.7 429.9,237.4 430.1,239.3 430.3,238.9 430.5,240.5 430.7,242.3 430.9,244.9 431.0,243.1 431.2,242.9 431.4,242.6 431.6,243.2 431.8,246.1 432.0,246.6 432.2,251.9 432.4,252.2 432.6,250.6 432.7,251.9 432.9,251.8 433.1,250.1 433.3,248.7 433.5,248.6 433.7,248.0 433.9,248.4 434.1,251.7 434.3,251.2 434.4,248.7 434.6,246.3 434.8,247.1 435.0,245.4 435.2,244.3 435.4,245.6 435.6,245.7 435.8,247.9 435.9,246.2 436.1,244.1 436.3,243.6 436.5,245.3 436.7,245.4 436.9,247.1 437.1,247.4 437.3,247.0 437.5,244.7 437.6,244.4 437.8,242.9 438.0,242.0 438.2,242.8 438.4,242.6 438.6,242.3 438.8,240.9 439.0,240.4 439.2,240.7 439.3,242.0 439.5,243.9 439.7,242.5 439.9,242.8 440.1,242.1 440.3,241.8 440.5,242.1 440.7,240.2 440.9,239.5 441.0,240.2 441.2,240.2 441.4,241.2 441.6,240.5 441.8,239.1 442.0,238.9 442.2,238.7 442.4,238.0 442.6,237.0 442.7,236.0 442.9,236.9 443.1,236.7 443.3,236.5 443.5,236.4 443.7,238.1 443.9,237.2 444.1,235.3 444.2,235.2 444.4,235.6 444.6,237.6 444.8,237.2 445.0,236.0 445.2,234.3 445.4,233.3 445.6,233.8 445.8,232.1 445.9,231.1 446.1,231.0 446.3,233.7 446.5,233.9 446.7,233.5 446.9,231.1 447.1,232.1 447.3,234.7 447.5,235.3 447.6,237.2 447.8,237.6 448.0,240.2 448.2,238.7 448.4,239.9 448.6,240.2 448.8,239.6 449.0,238.3 449.2,239.3 449.3,240.6 449.5,242.0 449.7,241.6 449.9,240.7 450.1,242.5 450.3,241.3 450.5,239.4 450.7,237.1 450.8,236.8 451.0,235.8 451.2,236.1 451.4,236.7 451.6,236.8 451.8,236.6 452.0,235.5 452.2,234.7 452.4,234.1 452.5,238.5 452.7,236.3 452.9,234.5 453.1,234.6 453.3,234.8 453.5,234.1 453.7,234.0 453.9,235.1 454.1,234.9 454.2,234.7 454.4,236.3 454.6,236.9 454.8,236.9 455.0,237.9 455.2,239.1 455.4,239.2 455.6,238.6 455.8,237.6 455.9,239.2 456.1,237.8 456.3,237.4 456.5,237.0 456.7,236.6 456.9,237.4 457.1,240.0 457.3,239.4 457.4,239.3 457.6,240.4 457.8,242.0 458.0,242.5 458.2,240.7 458.4,240.1 458.6,239.9 458.8,241.0 459.0,241.7 459.1,240.3 459.3,237.8 459.5,237.1 459.7,235.7 459.9,235.7 460.1,235.9 460.3,235.1 460.5,235.6 460.7,233.8 460.8,230.9 461.0,230.8 461.2,229.7 461.4,231.2 461.6,229.5 461.8,227.5 462.0,227.6 462.2,227.6 462.4,229.1 462.5,229.8 462.7,230.2 462.9,233.8 463.1,233.1 463.3,234.4 463.5,233.4 463.7,231.3 463.9,231.3 464.1,231.9 464.2,232.0 464.4,232.5 464.6,236.3 464.8,236.2 465.0,236.1 465.2,235.1 465.4,235.6 465.6,233.6 465.7,233.1 465.9,233.3 466.1,235.9 466.3,234.0 466.5,233.1 466.7,233.0 466.9,232.8 467.1,234.2 467.3,236.1 467.4,236.8 467.6,235.3 467.8,235.2 468.0,235.4 468.2,234.3 468.4,233.3 468.6,232.3 468.8,231.8 469.0,232.3 469.1,231.5 469.3,232.2 469.5,232.3 469.7,232.4 469.9,232.1 470.1,233.7 470.3,234.1 470.5,234.6 470.7,235.7 470.8,237.8 471.0,240.6 471.2,239.3 471.4,238.6 471.6,237.8 471.8,237.3 472.0,239.0 472.2,238.9 472.3,239.9 472.5,237.5 472.7,237.6 472.9,237.7 473.1,239.5 473.3,239.6 473.5,240.1 473.7,239.9 473.9,239.1 474.0,239.1 474.2,238.1 474.4,237.1 474.6,237.3 474.8,236.2 475.0,237.2 475.2,237.0 475.4,237.2 475.6,238.0 475.7,237.0 475.9,237.3 476.1,237.8 476.3,236.8 476.5,236.3 476.7,236.5 476.9,235.5 477.1,234.9 477.3,235.8 477.4,236.3 477.6,238.9 477.8,238.0 478.0,237.4 478.2,236.8 478.4,237.4 478.6,236.2 478.8,235.5 478.9,234.7 479.1,234.0 479.3,233.3 479.5,232.3 479.7,232.7 479.9,232.4 480.1,231.8 480.3,233.2 480.5,233.2 480.6,232.1 480.8,230.5 481.0,230.5 481.2,231.2 481.4,232.0 481.6,231.7 481.8,232.0 482.0,230.7 482.2,231.4 482.3,231.4 482.5,230.6 482.7,228.6 482.9,227.6 483.1,227.4 483.3,226.4 483.5,227.6 483.7,225.9 483.9,225.3 484.0,224.6 484.2,225.7 484.4,225.0 484.6,223.4 484.8,222.8 485.0,222.8 485.2,223.5 485.4,222.3 485.5,220.8 485.7,220.4 485.9,220.4 486.1,220.5 486.3,219.8 486.5,220.7 486.7,222.7 486.9,222.3 487.1,223.3 487.2,222.1 487.4,220.2 487.6,218.5 487.8,217.6 488.0,216.7 488.2,216.2 488.4,215.3 488.6,215.1 488.8,215.3 488.9,214.0 489.1,212.7 489.3,216.7 489.5,215.7 489.7,214.9 489.9,213.9 490.1,215.5 490.3,214.0 490.5,212.5 490.6,212.5 490.8,212.1 491.0,211.0 491.2,210.0 491.4,208.1 491.6,207.8 491.8,208.4 492.0,208.3 492.2,208.8 492.3,208.2 492.5,210.2 492.7,211.4 492.9,209.7 493.1,210.8 493.3,212.2 493.5,214.0 493.7,213.5 493.8,212.6 494.0,209.8 494.2,208.1 494.4,208.1 494.6,208.2 494.8,207.2 495.0,207.8 495.2,208.0 495.4,207.3 495.5,208.5 495.7,207.1 495.9,210.9 496.1,208.8 496.3,209.9 496.5,210.2 496.7,208.9 496.9,208.7 497.1,208.3 497.2,208.5 497.4,207.2 497.6,205.1 497.8,203.2 498.0,202.6 498.2,201.7 498.4,201.8 498.6,202.7 498.8,201.0 498.9,199.5 499.1,196.7 499.3,199.6 499.5,197.6 499.7,203.0 499.9,198.6 500.1,196.6 500.3,195.6 500.4,193.4 500.6,192.8 500.8,194.0 501.0,194.0 501.2,194.9 501.4,200.3 501.6,203.1 501.8,201.4 502.0,198.8 502.1,197.4 502.3,198.8 502.5,201.1 502.7,199.9 502.9,197.5 503.1,196.0 503.3,195.8 503.5,196.9 503.7,197.7 503.8,199.6 504.0,197.8 504.2,198.5 504.4,196.7 504.6,195.0 504.8,200.9 505.0,196.1 505.2,192.7 505.4,190.7 505.5,192.1 505.7,189.0 505.9,188.6 506.1,189.5 506.3,190.5 506.5,192.2 506.7,192.7 506.9,190.3 507.0,190.9 507.2,191.6 507.4,194.6 507.6,195.3 507.8,193.5 508.0,191.9 508.2,191.0 508.4,188.8 508.6,186.3 508.7,185.2 508.9,185.3 509.1,183.8 509.3,182.6 509.5,179.5 509.7,180.1 509.9,177.8 510.1,177.8 510.3,179.7 510.4,177.7 510.6,176.1 510.8,176.5 511.0,176.5 511.2,174.8 511.4,170.2 511.6,167.6 511.8,164.9 512.0,163.5 512.1,161.8 512.3,157.7 512.5,157.0 512.7,155.0 512.9,156.3 513.1,154.3 513.3,152.0 513.5,151.8 513.6,147.5 513.8,144.2 514.0,141.2 514.2,136.6 514.4,138.0 514.6,139.6 514.8,134.4 515.0,130.2 515.2,130.3 515.3,138.2 515.5,135.4 515.7,133.7 515.9,137.2 516.1,130.4 516.3,125.2 516.5,123.0 516.7,122.8 516.9,120.5 517.0,126.6 517.2,122.6 517.4,121.6 517.6,120.5 517.8,128.3 518.0,131.2 518.2,135.6 518.4,128.2 518.6,119.4 518.7,114.7 518.9,112.7 519.1,113.0 519.3,114.8 519.5,110.8 519.7,105.3 519.9,101.5 520.1,92.9 520.3,89.0 520.4,82.5 520.6,74.2 520.8,71.1 521.0,86.7 521.2,84.3 521.4,71.3 521.6,61.4 521.8,59.1 521.9,59.4 522.1,55.0 522.3,57.8 522.5,58.2 522.7,53.4 522.9,49.5 523.1,45.0 523.3,50.3 523.5,61.6 523.6,56.1 523.8,65.3 524.0,83.8 524.2,82.3 524.4,76.8 524.6,85.8 524.8,106.4 525.0,121.2 525.2,110.7 525.3,123.0 525.5,137.4 525.7,149.3 525.9,152.3 526.1,164.0 526.3,168.0 526.5,160.7 526.7,152.0 526.9,140.8 527.0,136.8 527.2,148.0 527.4,143.7 527.6,133.4 527.8,130.3 528.0,127.8 528.2,125.3 528.4,119.5 528.5,122.7 528.7,138.4 528.9,142.0 529.1,132.7 529.3,138.2 529.5,140.0 529.7,144.7 529.9,134.7 530.1,137.2 530.2,138.4 530.4,132.9 530.6,123.4 530.8,122.4 531.0,124.9 531.2,119.9 531.4,117.7 531.6,112.8 531.8,129.2 531.9,124.8 532.1,132.0 532.3,142.9 532.5,158.0 532.7,171.0 532.9,177.1 533.1,171.7 533.3,162.0 533.5,168.6 533.6,178.8 533.8,180.0 534.0,179.4 534.2,173.7 534.4,169.3 534.6,172.1 534.8,170.7 535.0,181.8 535.1,190.3 535.3,180.9 535.5,183.9 535.7,182.1 535.9,176.8 536.1,175.7 536.3,177.4 536.5,175.2 536.7,180.3 536.8,177.6 537.0,180.4 537.2,179.9 537.4,173.8 537.6,171.3 537.8,165.1 538.0,163.1 538.2,165.0 538.4,159.9 538.5,156.9 538.7,157.0 538.9,154.1 539.1,165.3 539.3,159.0 539.5,154.7 539.7,153.5 539.9,152.4 540.1,156.9 540.2,155.4 540.4,156.0 540.6,159.7 540.8,160.1 541.0,151.5 541.2,151.3 541.4,147.0 541.6,144.6 541.7,143.8 541.9,141.1 542.1,141.1 542.3,144.0 542.5,140.2 542.7,141.9 542.9,145.0 543.1,140.2 543.3,138.1 543.4,139.6 543.6,138.3 543.8,135.2 544.0,136.4 544.2,148.8 544.4,148.0 544.6,147.1 544.8,148.0 545.0,143.9 545.1,145.4 545.3,143.1 545.5,148.1 545.7,148.8 545.9,149.4 546.1,150.9 546.3,147.2 546.5,145.7 546.7,145.0 546.8,140.3 547.0,140.7 547.2,138.5 547.4,136.8 547.6,138.9 547.8,139.4 548.0,138.4 548.2,143.1 548.4,141.3 548.5,139.7 548.7,142.8 548.9,158.5 549.1,160.9 549.3,156.5 549.5,171.5 549.7,168.8 549.9,179.8 550.0,179.6 550.2,184.9 550.4,179.9 550.6,185.7 550.8,183.5 551.0,178.1 551.2,179.6 551.4,185.8 551.6,183.5 551.7,182.0 551.9,193.2 552.1,195.1 552.3,201.2 552.5,196.2 552.7,198.0 552.9,193.3 553.1,192.7 553.3,190.0 553.4,191.4 553.6,191.3 553.8,185.4 554.0,183.7 554.2,184.1 554.4,183.5 554.6,180.4 554.8,181.3 555.0,180.3 555.1,192.3 555.3,191.8 555.5,199.2 555.7,196.1 555.9,189.2 556.1,188.6 556.3,192.4 556.5,189.2 556.6,188.9 556.8,192.6 557.0,194.9 557.2,195.2 557.4,190.7 557.6,192.0 557.8,193.9 558.0,189.3 558.2,184.3 558.3,180.5 558.5,181.1 558.7,180.1 558.9,182.6 559.1,181.1 559.3,182.1 559.5,185.0 559.7,179.6 559.9,179.1 560.0,179.9 560.2,175.9 560.4,175.0 560.6,177.3 560.8,178.8 561.0,175.4 561.2,176.7 561.4,174.5 561.6,173.0 561.7,173.5 561.9,176.0 562.1,175.3 562.3,182.5 562.5,183.8 562.7,182.7 562.9,183.6 563.1,181.9 563.2,182.6 563.4,183.3 563.6,183.4 563.8,178.9 564.0,178.8 564.2,177.9 564.4,184.0 564.6,189.4 564.8,189.5 564.9,189.9 565.1,189.8 565.3,190.1 565.5,187.7 565.7,188.2 565.9,192.2 566.1,191.3 566.3,189.7 566.5,187.8 566.6,189.4 566.8,190.1 567.0,189.4 567.2,189.5 567.4,190.2 567.6,184.3 567.8,183.7 568.0,182.7 568.2,182.2 568.3,181.7 568.5,181.9 568.7,182.4 568.9,189.3 569.1,188.9 569.3,184.2 569.5,184.7 569.7,183.9 569.8,183.4 570.0,185.1 570.2,182.8 570.4,183.6 570.6,185.4 570.8,181.9 571.0,180.3 571.2,180.0 571.4,179.9 571.5,180.2 571.7,177.2 571.9,176.3 572.1,175.6 572.3,175.1 572.5,175.6 572.7,175.2 572.9,173.2 573.1,171.9 573.2,171.7 573.4,172.0 573.6,172.8 573.8,172.3 574.0,172.6 574.2,172.0 574.4,173.3 574.6,172.8 574.8,170.7 574.9,177.3 575.1,177.0 575.3,178.0 575.5,180.3 575.7,178.8 575.9,178.1 576.1,177.1 576.3,178.0 576.5,175.8 576.6,174.5 576.8,175.1 577.0,177.4 577.2,175.6 577.4,172.0 577.6,171.4 577.8,170.9 578.0,170.8 578.1,170.6 578.3,172.6 578.5,172.4 578.7,172.2 578.9,173.5 579.1,172.8 579.3,172.4 579.5,172.4 579.7,172.2 579.8,173.5 580.0,174.1 580.2,173.3 580.4,170.8 580.6,170.7 580.8,170.1 581.0,171.3 581.2,175.8 581.4,175.1 581.5,176.1 581.7,174.5 581.9,174.5 582.1,174.5 582.3,173.4 582.5,173.8 582.7,177.0 582.9,175.9 583.1,176.0 583.2,175.6 583.4,174.9 583.6,171.9 583.8,170.9 584.0,171.0 584.2,171.0 584.4,171.3 584.6,172.7 584.7,170.3 584.9,170.7 585.1,170.6 585.3,171.2 585.5,169.6 585.7,169.0 585.9,169.8 586.1,170.1 586.3,171.7 586.4,171.8 586.6,170.4 586.8,171.7 587.0,171.0 587.2,171.5 587.4,171.4 587.6,170.5 587.8,171.7 588.0,169.7 588.1,168.5 588.3,167.7 588.5,167.1 588.7,167.0 588.9,167.2 589.1,168.0 589.3,167.8 589.5,166.6 589.7,167.3 589.8,167.5 590.0,166.8 590.2,166.3 590.4,167.6 590.6,168.4 590.8,167.5 591.0,170.1 591.2,170.9 591.3,170.8 591.5,169.1 591.7,169.9 591.9,170.2 592.1,176.8 592.3,176.1 592.5,177.1 592.7,176.0 592.9,175.1 593.0,175.0 593.2,175.5 593.4,174.4 593.6,174.5 593.8,176.0 594.0,175.7 594.2,175.8 594.4,176.3 594.6,176.7 594.7,176.5 594.9,175.0 595.1,173.2 595.3,173.1 595.5,173.8 595.7,172.7 595.9,173.2 596.1,174.8 596.3,176.2 596.4,178.2 596.6,182.2 596.8,181.0 597.0,181.3 597.2,181.9 597.4,180.0 597.6,178.7 597.8,178.9 597.9,178.6 598.1,177.5 598.3,177.9 598.5,176.6 598.7,176.7 598.9,175.8 599.1,174.8 599.3,174.6 599.5,173.8 599.6,173.7 599.8,175.3 600.0,174.1 600.2,175.4 600.4,173.4 600.6,172.2 600.8,171.2 601.0,171.2 601.2,171.2 601.3,172.5 601.5,171.8 601.7,171.4 601.9,172.2 602.1,171.8 602.3,170.1 602.5,170.0 602.7,170.6 602.9,172.1 603.0,171.9 603.2,170.4 603.4,170.7 603.6,170.9 603.8,169.5 604.0,171.0 604.2,170.6 604.4,170.2 604.6,170.6 604.7,170.3 604.9,169.4 605.1,170.2 605.3,170.6 605.5,171.1 605.7,173.7 605.9,173.0 606.1,169.6 606.2,169.1 606.4,168.6 606.6,168.9 606.8,167.4 607.0,168.7 607.2,167.7 607.4,169.9 607.6,171.7 607.8,172.6 607.9,174.3 608.1,174.4 608.3,175.5 608.5,179.6 608.7,179.0 608.9,178.6 609.1,178.2 609.3,177.7 609.5,177.6 609.6,178.1 609.8,178.6 610.0,180.8 610.2,183.6 610.4,182.7 610.6,185.9 610.8,186.2 611.0,186.4 611.2,185.7 611.3,182.7 611.5,182.3 611.7,183.6 611.9,183.6 612.1,185.8 612.3,188.9 612.5,188.0 612.7,186.7 612.8,187.1 613.0,187.4 613.2,190.2 613.4,188.7 613.6,187.6 613.8,187.0 614.0,184.1 614.2,184.0 614.4,183.8 614.5,185.4 614.7,183.5 614.9,183.9 615.1,182.5 615.3,182.7 615.5,181.6 615.7,181.4 615.9,181.1 616.1,183.2 616.2,182.8 616.4,180.2 616.6,180.2 616.8,180.9 617.0,180.1 617.2,179.6 617.4,178.6 617.6,179.4 617.8,178.2 617.9,178.0 618.1,177.4 618.3,177.9 618.5,179.8 618.7,179.7 618.9,179.3 619.1,179.8 619.3,186.1 619.4,184.6 619.6,181.5 619.8,180.5 620.0,179.9 620.2,178.9 620.4,179.2 620.6,179.4 620.8,178.4 621.0,177.7 621.1,175.6 621.3,175.9 621.5,176.8 621.7,176.5 621.9,177.4 622.1,175.5 622.3,175.5 622.5,174.6 622.7,175.8 622.8,179.0 623.0,175.7 623.2,175.2 623.4,175.1 623.6,173.9 623.8,174.4 624.0,173.0 624.2,173.7 624.4,175.0 624.5,176.1 624.7,174.4 624.9,172.5 625.1,172.9 625.3,171.7 625.5,171.3 625.7,169.9 625.9,169.0 626.1,168.8 626.2,167.9 626.4,169.1 626.6,168.7 626.8,166.9 627.0,167.0 627.2,166.0 627.4,166.3 627.6,167.5 627.7,166.4 627.9,167.2 628.1,165.8 628.3,167.8 628.5,168.8 628.7,170.8 628.9,170.1 629.1,168.5 629.3,168.9 629.4,168.0 629.6,166.1 629.8,165.5 630.0,166.4 630.2,166.6 630.4,165.4 630.6,167.6 630.8,167.8 631.0,169.0 631.1,170.5 631.3,168.8 631.5,167.8 631.7,168.0 631.9,166.9 632.1,166.3 632.3,167.3 632.5,170.3 632.7,169.1 632.8,169.3 633.0,171.0 633.2,172.4 633.4,170.3 633.6,169.3 633.8,169.0 634.0,167.8 634.2,167.1 634.3,166.3 634.5,167.7 634.7,169.6 634.9,169.1 635.1,174.0 635.3,172.2 635.5,171.7 635.7,172.1 635.9,176.2 636.0,176.1 636.2,178.2 636.4,175.6 636.6,175.1 636.8,176.5 637.0,175.1 637.2,176.1 637.4,179.7 637.6,178.7 637.7,179.6 637.9,178.0 638.1,175.9 638.3,177.2 638.5,176.1 638.7,176.0 638.9,177.2 639.1,178.0 639.3,176.8 639.4,178.1 639.6,177.1 639.8,177.0 640.0,178.4 640.2,177.5 640.4,178.7 640.6,177.9 640.8,176.8 640.9,174.8 641.1,173.4 641.3,172.6 641.5,172.6 641.7,171.9 641.9,171.9 642.1,172.9 642.3,172.4 642.5,173.1 642.6,176.7 642.8,175.5 643.0,176.4 643.2,175.9 643.4,176.2 643.6,174.4 643.8,174.2 644.0,173.2 644.2,173.5 644.3,173.5 644.5,175.3 644.7,175.2 644.9,178.3 645.1,183.4 645.3,182.9 645.5,183.1 645.7,190.4 645.9,190.2 646.0,188.8 646.2,194.1 646.4,190.5 646.6,189.6 646.8,189.1 647.0,186.1 647.2,185.6 647.4,182.3 647.5,182.8 647.7,182.4 647.9,180.8 648.1,181.6 648.3,181.4 648.5,179.4 648.7,180.9 648.9,179.7 649.1,177.9 649.2,175.7 649.4,176.7 649.6,178.3 649.8,178.5 650.0,179.4 650.2,179.2 650.4,178.7 650.6,179.8 650.8,180.5 650.9,188.3 651.1,185.4 651.3,182.2 651.5,183.7 651.7,182.2 651.9,180.2 652.1,180.0 652.3,181.5 652.5,182.6 652.6,182.4 652.8,181.4 653.0,180.9 653.2,181.7 653.4,182.3 653.6,182.7 653.8,185.7 654.0,183.8 654.2,182.9 654.3,186.0 654.5,187.4 654.7,184.1 654.9,184.0 655.1,186.8 655.3,186.5 655.5,186.6 655.7,185.2 655.8,185.3 656.0,182.5 656.2,182.0 656.4,182.3 656.6,182.0 656.8,183.2 657.0,183.8 657.2,182.5 657.4,182.9 657.5,183.7 657.7,183.1 657.9,181.2 658.1,180.7 658.3,182.7 658.5,183.2 658.7,185.1 658.9,185.7 659.1,187.1 659.2,190.9 659.4,189.1 659.6,190.9 659.8,190.9 660.0,188.5 660.2,188.6 660.4,189.5 660.6,191.3 660.8,192.2 660.9,190.7 661.1,192.8 661.3,193.3 661.5,195.9 661.7,204.4 661.9,203.0 662.1,205.7 662.3,203.9 662.4,204.8 662.6,203.9 662.8,205.2 663.0,206.5 663.2,202.5 663.4,204.5 663.6,203.0 663.8,204.9 664.0,208.3 664.1,208.0 664.3,205.2 664.5,204.5 664.7,207.0 664.9,203.6 665.1,202.8 665.3,203.0 665.5,203.0 665.7,204.0 665.8,205.1 666.0,203.5 666.2,202.6 666.4,200.3 666.6,200.2 666.8,201.1 667.0,201.7 667.2,203.3 667.4,203.2 667.5,205.3 667.7,208.0 667.9,209.7 668.1,212.3 668.3,209.0 668.5,210.9 668.7,207.8 668.9,207.1 669.0,206.5 669.2,207.0 669.4,209.6 669.6,210.7 669.8,212.8 670.0,212.1 670.2,210.6 670.4,212.0 670.6,211.3 670.7,211.6 670.9,208.9 671.1,208.5 671.3,209.4 671.5,211.2 671.7,212.5 671.9,211.9 672.1,210.6 672.3,212.5 672.4,213.1 672.6,213.1 672.8,215.3 673.0,215.3 673.2,215.5 673.4,214.8 673.6,216.1 673.8,217.8 674.0,215.8 674.1,214.5 674.3,214.5 674.5,212.8 674.7,213.1 674.9,212.5 675.1,214.0 675.3,212.9 675.5,216.7 675.6,217.0 675.8,217.1 676.0,225.1 676.2,225.9 676.4,227.8 676.6,230.3 676.8,229.5 677.0,232.3 677.2,229.6 677.3,224.5 677.5,226.5 677.7,226.7 677.9,227.0 678.1,227.0 678.3,228.7 678.5,227.7 678.7,226.0 678.9,225.4 679.0,221.9 679.2,221.8 679.4,221.9 679.6,222.5 679.8,223.3 680.0,223.6 680.2,220.8 680.4,218.8 680.6,219.2 680.7,217.4 680.9,216.4 681.1,216.1 681.3,219.4 681.5,219.0 681.7,219.1 681.9,223.5 682.1,223.6 682.3,223.1 682.4,221.8 682.6,224.2 682.8,223.4 683.0,220.0 683.2,219.4 683.4,220.3 683.6,222.6 683.8,222.6 683.9,223.9 684.1,222.9 684.3,223.0 684.5,221.8 684.7,224.4 684.9,224.6 685.1,225.1 685.3,226.6 685.5,226.3 685.6,227.0 685.8,226.0 686.0,227.2 686.2,227.6 686.4,228.8 686.6,228.6 686.8,229.5 687.0,230.0 687.2,227.5 687.3,225.6 687.5,225.9 687.7,225.6 687.9,225.8 688.1,225.0 688.3,225.7 688.5,224.1 688.7,224.4 688.9,225.2 689.0,224.1 689.2,223.5 689.4,225.1 689.6,224.9 689.8,224.4 690.0,224.9 690.2,225.1 690.4,226.5 690.5,227.5 690.7,228.4 690.9,225.5 691.1,222.8 691.3,221.9 691.5,220.0 691.7,219.6 691.9,220.3 692.1,216.3 692.2,216.2 692.4,216.2 692.6,216.4 692.8,213.4 693.0,206.8 693.2,206.9 693.4,207.5 693.6,207.3 693.8,206.2 693.9,204.0 694.1,200.6 694.3,198.2 694.5,196.5 694.7,201.8 694.9,196.5 695.1,194.2 695.3,197.3 695.5,200.5 695.6,199.0 695.8,195.4 696.0,194.9 696.2,195.1 696.4,193.2 696.6,192.4 696.8,194.2 697.0,198.1 697.1,196.8 697.3,198.7 697.5,194.3 697.7,189.0 697.9,188.6 698.1,187.1 698.3,186.2 698.5,186.8 698.7,186.6 698.8,186.7 699.0,189.8 699.2,190.1 699.4,191.6 699.6,188.6 699.8,187.8 700.0,188.6 700.2,187.7 700.4,189.9 700.5,192.3 700.7,191.0 700.9,196.5 701.1,197.8 701.3,201.3 701.5,200.3 701.7,210.2 701.9,208.6 702.1,209.2 702.2,210.7 702.4,206.3 702.6,207.8 702.8,208.8 703.0,206.0 703.2,205.2 703.4,209.3 703.6,209.8 703.7,207.7 703.9,208.5 704.1,211.1 704.3,211.8 704.5,208.8 704.7,209.0 704.9,209.0 705.1,209.7 705.3,210.1 705.4,211.5 705.6,213.0 705.8,213.3 706.0,215.9 706.2,214.7 706.4,210.4 706.6,211.3 706.8,211.0 707.0,213.0 707.1,212.8 707.3,213.0 707.5,211.4 707.7,209.0 707.9,207.4 708.1,207.3 708.3,208.5 708.5,208.8 708.7,207.7 708.8,209.1 709.0,205.4 709.2,205.8 709.4,206.9 709.6,207.3 709.8,206.8 710.0,211.1 710.2,210.9 710.4,211.8 710.5,211.8 710.7,211.4 710.9,209.8 711.1,209.6 711.3,209.7 711.5,211.8 711.7,210.9 711.9,213.5 712.0,212.3 712.2,211.1 712.4,210.6 712.6,210.4 712.8,210.5 713.0,209.8 713.2,210.3 713.4,211.1 713.6,212.6 713.7,214.1 713.9,216.6 714.1,217.2 714.3,216.5 714.5,217.9 714.7,215.7 714.9,216.4 715.1,215.8 715.3,215.2 715.4,214.8 715.6,211.0 715.8,211.1 716.0,210.8 716.2,210.7 716.4,210.7 716.6,211.5 716.8,209.5 717.0,209.7 717.1,209.5 717.3,210.7 717.5,207.7 717.7,206.8 717.9,205.6 718.1,204.5 718.3,204.1 718.5,201.4 718.6,201.8 718.8,202.5 719.0,201.9 719.2,201.7 719.4,204.4 719.6,204.4 719.8,203.1 720.0,202.8 720.2,203.6 720.3,203.4 720.5,205.7 720.7,208.6 720.9,207.8 721.1,209.4 721.3,209.4 721.5,208.3 721.7,206.8 721.9,206.5 722.0,204.6 722.2,206.4 722.4,207.0 722.6,207.2 722.8,208.9 723.0,209.1 723.2,207.8 723.4,208.7 723.6,208.9 723.7,208.0 723.9,205.8 724.1,207.7 724.3,209.2 724.5,210.0 724.7,208.8 724.9,208.2 725.1,207.3 725.2,208.5 725.4,207.7 725.6,208.2 725.8,211.0 726.0,210.9 726.2,211.0 726.4,210.1 726.6,211.2 726.8,210.6 726.9,208.5 727.1,209.2 727.3,209.3 727.5,210.3 727.7,210.4 727.9,210.8 728.1,210.3 728.3,210.7 728.5,210.5 728.6,210.3 728.8,209.7 729.0,209.9 729.2,208.7 729.4,207.6 729.6,207.3 729.8,206.7 730.0,207.2 730.2,207.6 730.3,206.1 730.5,203.8 730.7,202.0 730.9,202.1 731.1,201.9 731.3,203.3 731.5,205.8 731.7,203.9 731.8,203.4 732.0,202.5 732.2,203.4 732.4,201.9 732.6,201.2 732.8,198.8 733.0,198.4 733.2,197.1 733.4,195.5 733.5,197.4 733.7,195.5 733.9,196.0 734.1,194.0 734.3,194.4 734.5,194.7 734.7,194.8 734.9,195.2 735.1,193.3 735.2,194.9 735.4,193.6 735.6,198.5 735.8,210.1 736.0,208.0 736.2,204.8 736.4,200.9 736.6,199.8 736.8,198.2 736.9,198.9 737.1,196.5 737.3,197.6 737.5,197.4 737.7,193.1 737.9,191.5 738.1,192.9 738.3,190.3 738.5,188.4 738.6,186.4 738.8,185.6 739.0,189.4 739.2,189.1 739.4,196.7 739.6,191.6 739.8,190.2 740.0,190.1 740.1,188.0 740.3,188.9 740.5,194.8 740.7,191.1 740.9,193.2 741.1,195.6 741.3,196.5 741.5,202.9 741.7,202.6 741.8,204.9 742.0,204.0 742.2,202.5 742.4,207.9 742.6,205.5 742.8,202.5 743.0,203.8 743.2,204.5 743.4,207.2 743.5,206.9 743.7,207.4 743.9,204.2 744.1,205.2 744.3,201.3 744.5,201.1 744.7,199.9 744.9,202.7 745.1,203.7 745.2,200.7 745.4,201.2 745.6,200.0 745.8,200.0 746.0,198.4 746.2,199.3 746.4,198.3 746.6,199.0 746.7,201.1 746.9,201.3 747.1,202.2 747.3,202.3 747.5,199.1 747.7,196.7 747.9,196.8 748.1,195.3 748.3,195.6 748.4,195.2 748.6,194.6 748.8,195.8 749.0,195.3 749.2,196.0 749.4,194.3 749.6,195.7 749.8,197.3 750.0,199.7 750.1,200.0 750.3,197.4 750.5,198.7 750.7,198.9 750.9,197.8 751.1,193.7 751.3,193.8 751.5,193.7 751.7,193.6 751.8,193.3 752.0,193.6 752.2,192.7 752.4,192.6 752.6,193.2 752.8,193.2 753.0,193.2 753.2,190.6 753.3,189.6 753.5,189.6 753.7,188.3 753.9,188.4 754.1,187.9 754.3,188.3 754.5,188.9 754.7,186.4 754.9,186.0 755.0,183.6 755.2,181.7 755.4,175.6 755.6,173.6 755.8,169.7 756.0,165.8 756.2,166.2 756.4,160.6 756.6,162.9 756.7,167.1 756.9,175.1 757.1,174.4 757.3,169.9 757.5,169.0 757.7,167.6 757.9,167.6 758.1,176.0 758.3,175.6 758.4,174.1 758.6,169.8 758.8,170.3 759.0,168.6 759.2,164.6 759.4,165.7 759.6,163.8 759.8,163.9 759.9,165.9 760.1,165.0 760.3,168.1 760.5,169.9 760.7,169.3 760.9,167.5 761.1,164.5 761.3,163.4 761.5,166.4 761.6,168.2 761.8,167.0 762.0,165.9 762.2,166.8 762.4,169.9 762.6,168.6 762.8,165.8 763.0,166.4 763.2,165.3 763.3,165.2 763.5,166.5 763.7,167.6 763.9,171.1 764.1,170.0 764.3,174.3 764.5,177.2 764.7,175.3 764.9,174.3 765.0,173.4 765.2,174.2 765.4,173.9 765.6,171.3 765.8,171.9 766.0,174.1 766.2,173.3 766.4,176.9 766.6,177.1 766.7,178.6 766.9,177.3 767.1,178.2 767.3,174.1 767.5,169.6 767.7,169.3 767.9,170.4 768.1,171.6 768.2,172.4 768.4,174.1 768.6,172.5 768.8,174.3 769.0,175.1 769.2,177.7 769.4,177.7 769.6,177.5 769.8,176.9 769.9,176.7 770.1,180.2 770.3,179.5 770.5,177.0 770.7,177.2 770.9,174.3 771.1,175.5 771.3,172.5 771.5,173.7 771.6,175.7 771.8,175.2 772.0,175.4 772.2,173.4 772.4,174.6 772.6,174.5 772.8,174.0 773.0,172.5 773.2,171.3 773.3,171.2 773.5,174.3 773.7,174.7 773.9,174.3 774.1,175.0 774.3,172.4 774.5,172.2 774.7,172.0 774.8,171.5 775.0,172.5 775.2,172.5 775.4,175.4 775.6,175.1 775.8,177.8 776.0,176.6 776.2,176.4 776.4,177.2 776.5,175.3 776.7,175.8 776.9,173.1 777.1,176.8 777.3,175.4 777.5,177.9 777.7,176.1 777.9,176.9 778.1,178.0 778.2,176.3 778.4,173.9 778.6,171.0 778.8,169.6 779.0,169.9 779.2,169.6 779.4,169.1 779.6,171.7 779.8,169.5 779.9,170.7 780.1,172.1 780.3,172.6 780.5,170.2 780.7,171.2 780.9,169.7 781.1,167.5 781.3,167.1 781.4,167.0 781.6,169.8 781.8,169.2 782.0,172.7 782.2,174.4 782.4,173.2 782.6,171.7 782.8,173.1 783.0,174.8 783.1,177.1 783.3,175.0 783.5,171.6 783.7,170.0 783.9,167.7 784.1,165.5 784.3,166.7 784.5,167.3 784.7,169.7 784.8,170.6 785.0,174.0 785.2,170.9 785.4,172.2 785.6,170.0 785.8,173.0 786.0,173.0 786.2,176.6 786.4,180.3 786.5,181.5 786.7,177.7 786.9,177.5 787.1,178.7 787.3,178.2 787.5,177.4 787.7,176.2 787.9,177.9 788.1,175.4 788.2,177.6 788.4,179.5 788.6,179.1 788.8,176.8 789.0,176.7 789.2,176.0 789.4,176.7 789.6,175.3 789.7,174.9 789.9,174.5 790.1,174.4 790.3,174.1 790.5,174.7 790.7,177.4 790.9,177.8 791.1,176.1 791.3,176.1 791.4,174.6 791.6,172.4 791.8,172.4 792.0,172.6 792.2,171.9 792.4,171.5 792.6,172.0 792.8,171.9 793.0,170.8 793.1,170.8 793.3,170.9 793.5,170.8 793.7,172.0 793.9,171.2 794.1,171.7 794.3,170.3 794.5,172.1 794.7,169.9 794.8,168.6 795.0,168.1 795.2,168.5 795.4,169.4 795.6,169.9 795.8,169.5 796.0,167.6 796.2,167.4 796.3,166.0 796.5,166.4 796.7,164.9 796.9,164.6 797.1,166.1 797.3,166.4 797.5,165.8 797.7,165.1 797.9,166.0 798.0,165.8 798.2,164.0 798.4,165.0 798.6,166.5 798.8,168.9 799.0,167.7 799.2,166.7 799.4,165.4 799.6,164.6 799.7,163.4 799.9,164.2 800.1,162.8 800.3,162.4 800.5,164.0 800.7,162.9 800.9,165.2 801.1,166.6 801.3,165.3 801.4,165.4 801.6,164.0 801.8,164.4 802.0,163.0 802.2,160.5 802.4,159.1 802.6,160.7 802.8,159.8 802.9,160.0 803.1,160.9 803.3,160.6 803.5,158.5 803.7,157.5 803.9,158.5 804.1,161.4 804.3,165.1 804.5,167.5 804.6,164.1 804.8,163.9 805.0,161.3 805.2,162.7 805.4,159.8 805.6,160.3 805.8,159.7 806.0,158.6 806.2,157.7 806.3,156.3 806.5,155.8 806.7,155.9 806.9,156.8 807.1,160.8 807.3,159.6 807.5,159.5 807.7,160.1 807.9,157.5 808.0,155.9 808.2,154.3 808.4,155.2 808.6,153.7 808.8,152.5 809.0,151.8 809.2,153.3 809.4,150.5 809.5,151.2 809.7,149.3 809.9,145.7 810.1,144.6 810.3,142.8 810.5,143.0 810.7,142.0 810.9,144.3 811.1,143.4 811.2,147.0 811.4,148.3 811.6,146.8 811.8,145.6 812.0,148.7 812.2,153.9 812.4,153.2 812.6,157.9 812.8,155.6 812.9,155.9 813.1,155.9 813.3,159.3 813.5,158.6 813.7,157.9 813.9,157.5 814.1,156.4 814.3,155.1 814.5,155.2 814.6,155.7 814.8,157.5 815.0,155.5 815.2,155.6 815.4,156.9 815.6,159.4 815.8,157.6 816.0,156.6 816.2,158.5 816.3,157.7 816.5,156.3 816.7,158.3 816.9,157.5 817.1,156.1 817.3,156.6 817.5,155.2 817.7,154.2 817.8,155.7 818.0,157.0 818.2,155.5 818.4,156.0 818.6,153.9 818.8,151.8 819.0,151.6 819.2,151.8 819.4,152.3 819.5,152.7 819.7,152.6 819.9,151.8 820.1,151.3 820.3,152.4 820.5,150.6 820.7,152.1 820.9,153.0 821.1,150.6 821.2,150.2 821.4,150.5 821.6,149.3 821.8,150.1 822.0,150.3 822.2,148.7 822.4,150.3 822.6,153.3 822.8,151.3 822.9,150.6 823.1,149.7 823.3,151.2 823.5,151.3 823.7,151.0 823.9,152.0 824.1,150.4 824.3,149.2 824.4,149.3 824.6,152.6 824.8,152.4 825.0,153.8 825.2,153.4 825.4,154.8 825.6,153.2 825.8,155.7 826.0,156.1 826.1,154.2 826.3,154.1 826.5,155.2 826.7,156.7 826.9,158.7 827.1,158.6 827.3,164.5 827.5,163.5 827.7,167.9 827.8,168.6 828.0,166.2 828.2,164.5 828.4,162.0 828.6,162.1 828.8,164.5 829.0,165.7 829.2,164.1 829.4,163.8 829.5,163.9 829.7,162.2 829.9,161.4 830.1,163.5 830.3,160.9 830.5,164.0 830.7,162.6 830.9,161.8 831.0,161.3 831.2,161.2 831.4,161.6 831.6,163.0 831.8,166.6 832.0,172.3 832.2,175.4 832.4,172.7 832.6,171.2 832.7,175.0 832.9,183.9 833.1,179.1 833.3,176.4 833.5,174.8 833.7,174.1 833.9,174.1 834.1,173.1 834.3,174.5 834.4,176.3 834.6,176.0 834.8,176.7 835.0,173.6 835.2,174.9 835.4,173.9 835.6,174.1 835.8,177.5 836.0,177.4 836.1,182.3 836.3,179.9 836.5,181.9 836.7,179.9 836.9,181.3 837.1,181.2 837.3,180.7 837.5,184.1 837.6,189.0 837.8,189.5 838.0,198.7 838.2,202.1 838.4,197.0 838.6,197.5 838.8,192.3 839.0,190.8 839.2,193.9 839.3,192.8 839.5,190.7 839.7,189.5 839.9,189.4 840.1,188.1 840.3,188.2 840.5,187.6 840.7,188.1 840.9,187.0 841.0,184.8 841.2,183.9 841.4,189.3 841.6,186.9 841.8,185.2 842.0,185.5 842.2,184.4 842.4,182.4 842.6,182.4 842.7,181.1 842.9,178.4 843.1,178.4 843.3,177.6 843.5,179.8 843.7,177.0 843.9,177.2 844.1,176.2 844.3,176.5 844.4,176.4 844.6,175.1 844.8,174.8 845.0,176.1 845.2,178.6 845.4,175.5 845.6,173.9 845.8,172.9 845.9,170.5 846.1,173.7 846.3,171.7 846.5,172.1 846.7,170.0 846.9,170.3 847.1,172.6 847.3,171.7 847.5,173.0 847.6,175.1 847.8,177.0 848.0,176.3 848.2,175.5 848.4,178.1 848.6,175.2 848.8,174.7 849.0,172.8 849.2,174.4 849.3,175.8 849.5,177.3 849.7,175.4 849.9,174.8 850.1,174.4 850.3,175.7 850.5,174.4 850.7,178.8 850.9,179.9 851.0,179.1 851.2,176.3 851.4,175.0 851.6,174.5 851.8,175.0 852.0,172.1 852.2,172.5 852.4,172.0 852.5,171.4 852.7,170.7 852.9,171.4 853.1,173.3 853.3,171.3 853.5,171.4 853.7,175.9 853.9,175.0 854.1,175.6 854.2,175.3 854.4,175.9 854.6,179.1 854.8,179.9 855.0,179.3"/>
</svg>
