<svg xmlns="http://www.w3.org/2000/svg" width="900" height="360">
<rect width="100%" height="100%" fill="white"/>
<text x="30" y="20" font-size="16">恒瑞医药 收益率直方图</text>
<rect x="30.0" y="327.7" width="27.0" height="2.3" fill="#9ecae1"/><rect x="58.0" y="328.8" width="27.0" height="1.2" fill="#9ecae1"/><rect x="86.0" y="329.4" width="27.0" height="0.6" fill="#9ecae1"/><rect x="114.0" y="327.7" width="27.0" height="2.3" fill="#9ecae1"/><rect x="142.0" y="328.3" width="27.0" height="1.7" fill="#9ecae1"/><rect x="170.0" y="327.7" width="27.0" height="2.3" fill="#9ecae1"/><rect x="198.0" y="325.4" width="27.0" height="4.6" fill="#9ecae1"/><rect x="226.0" y="322.5" width="27.0" height="7.5" fill="#9ecae1"/><rect x="254.0" y="317.3" width="27.0" height="12.7" fill="#9ecae1"/><rect x="282.0" y="304.6" width="27.0" height="25.4" fill="#9ecae1"/><rect x="310.0" y="294.8" width="27.0" height="35.2" fill="#9ecae1"/><rect x="338.0" y="267.7" width="27.0" height="62.3" fill="#9ecae1"/><rect x="366.0" y="227.3" width="27.0" height="102.7" fill="#9ecae1"/><rect x="394.0" y="168.5" width="27.0" height="161.5" fill="#9ecae1"/><rect x="422.0" y="101.0" width="27.0" height="229.0" fill="#9ecae1"/><rect x="450.0" y="30.0" width="27.0" height="300.0" fill="#9ecae1"/><rect x="478.0" y="54.2" width="27.0" height="275.8" fill="#9ecae1"/><rect x="506.0" y="142.5" width="27.0" height="187.5" fill="#9ecae1"/><rect x="534.0" y="191.0" width="27.0" height="139.0" fill="#9ecae1"/><rect x="562.0" y="249.2" width="27.0" height="80.8" fill="#9ecae1"/><rect x="590.0" y="274.6" width="27.0" height="55.4" fill="#9ecae1"/><rect x="618.0" y="297.7" width="27.0" height="32.3" fill="#9ecae1"/><rect x="646.0" y="308.1" width="27.0" height="21.9" fill="#9ecae1"/><rect x="674.0" y="319.0" width="27.0" height="11.0" fill="#9ecae1"/><rect x="702.0" y="321.3" width="27.0" height="8.7" fill="#9ecae1"/><rect x="730.0" y="324.8" width="27.0" height="5.2" fill="#9ecae1"/><rect x="758.0" y="329.4" width="27.0" height="0.6" fill="#9ecae1"/><rect x="786.0" y="326.0" width="27.0" height="4.0" fill="#9ecae1"/><rect x="814.0" y="329.4" width="27.0" height="0.6" fill="#9ecae1"/><rect x="842.0" y="327.7" width="27.0" height="2.3" fill="#9ecae1"/>
<polyline fill="none" stroke="#d62728" stroke-width="2" points="30.0,330.0 37.1,330.0 44.1,330.0 51.2,330.0 58.2,330.0 65.3,330.0 72.4,330.0 79.4,330.0 86.5,330.0 93.5,330.0 100.6,330.0 107.6,329.9 114.7,329.9 121.8,329.9 128.8,329.8 135.9,329.8 142.9,329.7 150.0,329.6 157.1,329.5 164.1,329.3 171.2,329.1 178.2,328.8 185.3,328.5 192.4,328.1 199.4,327.5 206.5,326.8 213.5,326.0 220.6,324.9 227.6,323.6 234.7,322.1 241.8,320.2 248.8,318.0 255.9,315.4 262.9,312.2 270.0,308.6 277.1,304.4 284.1,299.5 291.2,294.0 298.2,287.7 305.3,280.6 312.4,272.7 319.4,263.9 326.5,254.3 333.5,243.9 340.6,232.6 347.6,220.6 354.7,207.8 361.8,194.5 368.8,180.6 375.9,166.4 382.9,151.9 390.0,137.4 397.1,123.1 404.1,109.0 411.2,95.6 418.2,82.8 425.3,71.1 432.4,60.5 439.4,51.2 446.5,43.5 453.5,37.4 460.6,33.1 467.6,30.6 474.7,30.0 481.8,31.3 488.8,34.5 495.9,39.6 502.9,46.3 510.0,54.7 517.1,64.5 524.1,75.5 531.2,87.7 538.2,100.8 545.3,114.5 552.4,128.7 559.4,143.1 566.5,157.6 573.5,172.0 580.6,186.1 587.6,199.8 594.7,212.9 601.8,225.4 608.8,237.1 615.9,248.1 622.9,258.2 630.0,267.4 637.1,275.9 644.1,283.4 651.2,290.2 658.2,296.2 665.3,301.5 672.4,306.1 679.4,310.1 686.5,313.5 693.5,316.4 700.6,318.9 707.6,321.0 714.7,322.7 721.8,324.2 728.8,325.4 735.9,326.3 742.9,327.1 750.0,327.7 757.1,328.2 764.1,328.6 771.2,329.0 778.2,329.2 785.3,329.4 792.4,329.5 799.4,329.7 806.5,329.7 813.5,329.8 820.6,329.9 827.6,329.9 834.7,329.9 841.8,329.9 848.8,330.0 855.9,330.0 862.9,330.0 870.0,330.0"/>
</svg>
