<svg xmlns="http://www.w3.org/2000/svg" width="900" height="360">
<rect width="100%" height="100%" fill="white"/>
<text x="45" y="20" font-size="16">恒瑞医药 收益率直方图</text>
<line class="axis-x" x1="45" y1="315" x2="855" y2="315" stroke="black" stroke-width="1"/>
<line class="axis-y" x1="45" y1="45" x2="45" y2="315" stroke="black" stroke-width="1"/>
<text x="450.0" y="355" font-size="12" text-anchor="middle">收益率</text>
<text x="14" y="180.0" font-size="12" text-anchor="middle" transform="rotate(-90 14 180.0)">频数</text>
<line x1="45.0" y1="315" x2="45.0" y2="320" stroke="black" stroke-width="1"/>
<text x="45.0" y="333" font-size="10" text-anchor="middle">-0.105</text>
<line x1="450.0" y1="315" x2="450.0" y2="320" stroke="black" stroke-width="1"/>
<text x="450.0" y="333" font-size="10" text-anchor="middle">-0.005</text>
<line x1="855.0" y1="315" x2="855.0" y2="320" stroke="black" stroke-width="1"/>
<text x="855.0" y="333" font-size="10" text-anchor="middle">0.095</text>
<line x1="40" y1="315.0" x2="45" y2="315.0" stroke="black" stroke-width="1"/>
<text x="37" y="318.0" font-size="10" text-anchor="end">0</text>
<line x1="40" y1="180.0" x2="45" y2="180.0" stroke="black" stroke-width="1"/>
<text x="37" y="183.0" font-size="10" text-anchor="end">260</text>
<line x1="40" y1="45.0" x2="45" y2="45.0" stroke="black" stroke-width="1"/>
<text x="37" y="48.0" font-size="10" text-anchor="end">520</text>
<rect x="45.0" y="312.9" width="26.0" height="2.1" fill="#9ecae1"/><rect x="72.0" y="314.0" width="26.0" height="1.0" fill="#9ecae1"/><rect x="99.0" y="314.5" width="26.0" height="0.5" fill="#9ecae1"/><rect x="126.0" y="312.9" width="26.0" height="2.1" fill="#9ecae1"/><rect x="153.0" y="313.4" width="26.0" height="1.6" fill="#9ecae1"/><rect x="180.0" y="312.9" width="26.0" height="2.1" fill="#9ecae1"/><rect x="207.0" y="310.8" width="26.0" height="4.2" fill="#9ecae1"/><rect x="234.0" y="308.2" width="26.0" height="6.8" fill="#9ecae1"/><rect x="261.0" y="303.6" width="26.0" height="11.4" fill="#9ecae1"/><rect x="288.0" y="292.2" width="26.0" height="22.8" fill="#9ecae1"/><rect x="315.0" y="283.3" width="26.0" height="31.7" fill="#9ecae1"/><rect x="342.0" y="258.9" width="26.0" height="56.1" fill="#9ecae1"/><rect x="369.0" y="222.6" width="26.0" height="92.4" fill="#9ecae1"/><rect x="396.0" y="169.6" width="26.0" height="145.4" fill="#9ecae1"/><rect x="423.0" y="108.9" width="26.0" height="206.1" fill="#9ecae1"/><rect x="450.0" y="45.0" width="26.0" height="270.0" fill="#9ecae1"/><rect x="477.0" y="66.8" width="26.0" height="248.2" fill="#9ecae1"/><rect x="504.0" y="146.2" width="26.0" height="168.8" fill="#9ecae1"/><rect x="531.0" y="189.9" width="26.0" height="125.1" fill="#9ecae1"/><rect x="558.0" y="242.3" width="26.0" height="72.7" fill="#9ecae1"/><rect x="585.0" y="265.2" width="26.0" height="49.8" fill="#9ecae1"/><rect x="612.0" y="285.9" width="26.0" height="29.1" fill="#9ecae1"/><rect x="639.0" y="295.3" width="26.0" height="19.7" fill="#9ecae1"/><rect x="666.0" y="305.1" width="26.0" height="9.9" fill="#9ecae1"/><rect x="693.0" y="307.2" width="26.0" height="7.8" fill="#9ecae1"/><rect x="720.0" y="310.3" width="26.0" height="4.7" fill="#9ecae1"/><rect x="747.0" y="314.5" width="26.0" height="0.5" fill="#9ecae1"/><rect x="774.0" y="311.4" width="26.0" height="3.6" fill="#9ecae1"/><rect x="801.0" y="314.5" width="26.0" height="0.5" fill="#9ecae1"/><rect x="828.0" y="312.9" width="26.0" height="2.1" fill="#9ecae1"/>
<polyline fill="none" stroke="#d62728" stroke-width="2" points="45.0,315.0 51.8,315.0 58.6,315.0 65.4,315.0 72.2,315.0 79.0,315.0 85.8,315.0 92.6,315.0 99.5,315.0 106.3,315.0 113.1,315.0 119.9,314.9 126.7,314.9 133.5,314.9 140.3,314.9 147.1,314.8 153.9,314.7 160.7,314.7 167.5,314.5 174.3,314.4 181.1,314.2 187.9,314.0 194.7,313.7 201.6,313.3 208.4,312.8 215.2,312.1 222.0,311.4 228.8,310.4 235.6,309.3 242.4,307.9 249.2,306.2 256.0,304.2 262.8,301.8 269.6,299.0 276.4,295.7 283.2,291.9 290.0,287.6 296.8,282.6 303.7,276.9 310.5,270.5 317.3,263.4 324.1,255.5 330.9,246.9 337.7,237.5 344.5,227.4 351.3,216.5 358.1,205.1 364.9,193.0 371.7,180.6 378.5,167.8 385.3,154.7 392.1,141.7 398.9,128.8 405.8,116.1 412.6,104.0 419.4,92.5 426.2,82.0 433.0,72.4 439.8,64.1 446.6,57.1 453.4,51.6 460.2,47.7 467.0,45.5 473.8,45.0 480.6,46.2 487.4,49.1 494.2,53.6 501.1,59.7 507.9,67.2 514.7,76.0 521.5,86.0 528.3,96.9 535.1,108.7 541.9,121.0 548.7,133.8 555.5,146.8 562.3,159.9 569.1,172.8 575.9,185.5 582.7,197.8 589.5,209.6 596.3,220.9 603.2,231.4 610.0,241.3 616.8,250.4 623.6,258.7 630.4,266.3 637.2,273.1 644.0,279.2 650.8,284.6 657.6,289.3 664.4,293.5 671.2,297.1 678.0,300.2 684.8,302.8 691.6,305.0 698.4,306.9 705.3,308.5 712.1,309.8 718.9,310.8 725.7,311.7 732.5,312.4 739.3,313.0 746.1,313.4 752.9,313.8 759.7,314.1 766.5,314.3 773.3,314.5 780.1,314.6 786.9,314.7 793.7,314.8 800.5,314.8 807.4,314.9 814.2,314.9 821.0,314.9 827.8,315.0 834.6,315.0 841.4,315.0 848.2,315.0 855.0,315.0"/>
</svg>
