<svg xmlns="http://www.w3.org/2000/svg" width="900" height="360">
<rect width="100%" height="100%" fill="white"/>
<text x="45" y="20" font-size="16">恒瑞医药 价格</text>
<line class="axis-x" x1="45" y1="315" x2="855" y2="315" stroke="black" stroke-width="1"/>
<line class="axis-y" x1="45" y1="45" x2="45" y2="315" stroke="black" stroke-width="1"/>
<text x="450.0" y="355" font-size="12" text-anchor="middle">样本点</text>
<text x="14" y="180.0" font-size="12" text-anchor="middle" transform="rotate(-90 14 180.0)">价格</text>
<line x1="45.0" y1="315" x2="45.0" y2="320" stroke="black" stroke-width="1"/>
<text x="45.0" y="333" font-size="10" text-anchor="middle">1</text>
<line x1="449.9" y1="315" x2="449.9" y2="320" stroke="black" stroke-width="1"/>
<text x="449.9" y="333" font-size="10" text-anchor="middle">1540</text>
<line x1="855.0" y1="315" x2="855.0" y2="320" stroke="black" stroke-width="1"/>
<text x="855.0" y="333" font-size="10" text-anchor="middle">3080</text>
<line x1="40" y1="315.0" x2="45" y2="315.0" stroke="black" stroke-width="1"/>
<text x="37" y="318.0" font-size="10" text-anchor="end">4.28</text>
<line x1="40" y1="180.0" x2="45" y2="180.0" stroke="black" stroke-width="1"/>
<text x="37" y="183.0" font-size="10" text-anchor="end">49.76</text>
<line x1="40" y1="45.0" x2="45" y2="45.0" stroke="black" stroke-width="1"/>
<text x="37" y="48.0" font-size="10" text-anchor="end">95.24</text>
<polyline fill="none" stroke="#1f77b4" stroke-width="2" points="45.0,313.1 45.3,313.6 45.5,313.7 45.8,313.9 46.1,313.6 46.3,314.0 46.6,313.5 46.8,313.5 47.1,313.2 47.4,313.4 47.6,313.4 47.9,313.7 48.2,313.7 48.4,313.7 48.7,314.0 48.9,314.0 49.2,314.0 49.5,314.1 49.7,313.9 50.0,314.0 50.3,314.0 50.5,314.1 50.8,314.3 51.1,314.2 51.3,314.3 51.6,314.7 51.8,314.7 52.1,314.5 52.4,314.3 52.6,313.8 52.9,313.8 53.2,313.8 53.4,313.5 53.7,313.7 53.9,313.7 54.2,313.7 54.5,313.8 54.7,313.8 55.0,314.2 55.3,314.2 55.5,314.1 55.8,314.1 56.0,314.0 56.3,314.2 56.6,314.5 56.8,314.8 57.1,314.7 57.4,314.2 57.6,314.3 57.9,314.2 58.2,314.2 58.4,314.4 58.7,314.5 58.9,314.6 59.2,314.6 59.5,314.2 59.7,314.2 60.0,314.2 60.3,314.0 60.5,313.6 60.8,313.6 61.0,313.4 61.3,313.4 61.6,313.4 61.8,313.4 62.1,312.7 62.4,311.7 62.6,312.2 62.9,312.1 63.2,312.1 63.4,311.6 63.7,311.6 63.9,311.4 64.2,311.6 64.5,311.9 64.7,312.1 65.0,311.9 65.3,312.6 65.5,313.0 65.8,312.7 66.0,312.6 66.3,312.7 66.6,312.4 66.8,312.7 67.1,312.9 67.4,313.5 67.6,313.0 67.9,312.4 68.2,312.6 68.4,313.0 68.7,312.8 68.9,312.9 69.2,312.8 69.5,312.4 69.7,312.0 70.0,312.4 70.3,312.0 70.5,311.7 70.8,312.0 71.0,312.2 71.3,312.5 71.6,312.3 71.8,311.6 72.1,310.8 72.4,310.8 72.6,310.5 72.9,310.5 73.1,310.9 73.4,312.2 73.7,312.8 73.9,312.9 74.2,312.8 74.5,313.3 74.7,313.2 75.0,313.9 75.3,313.9 75.5,314.2 75.8,314.3 76.0,315.0 76.3,314.9 76.6,314.7 76.8,314.7 77.1,314.4 77.4,314.6 77.6,314.3 77.9,314.3 78.1,314.3 78.4,314.6 78.7,314.6 78.9,314.5 79.2,314.5 79.5,314.1 79.7,313.9 80.0,313.9 80.3,313.6 80.5,313.1 80.8,312.9 81.0,312.9 81.3,313.4 81.6,313.3 81.8,313.0 82.1,313.2 82.4,313.6 82.6,313.2 82.9,313.1 83.1,312.5 83.4,312.7 83.7,312.6 83.9,312.5 84.2,312.3 84.5,312.2 84.7,312.5 85.0,312.7 85.3,313.0 85.5,313.5 85.8,313.6 86.0,313.6 86.3,313.3 86.6,313.1 86.8,312.9 87.1,312.5 87.4,312.6 87.6,312.9 87.9,312.8 88.1,312.6 88.4,312.6 88.7,312.8 88.9,312.6 89.2,312.0 89.5,311.4 89.7,311.7 90.0,311.0 90.2,311.2 90.5,311.7 90.8,311.2 91.0,311.2 91.3,310.5 91.6,310.5 91.8,310.7 92.1,311.3 92.4,310.9 92.6,310.5 92.9,311.6 93.1,312.1 93.4,312.2 93.7,312.2 93.9,312.5 94.2,312.3 94.5,311.9 94.7,311.6 95.0,311.7 95.2,311.6 95.5,311.2 95.8,311.2 96.0,311.2 96.3,311.4 96.6,311.5 96.8,311.0 97.1,311.1 97.4,310.5 97.6,310.5 97.9,310.5 98.1,309.7 98.4,309.5 98.7,309.0 98.9,309.2 99.2,309.1 99.5,307.4 99.7,306.5 100.0,307.6 100.2,307.8 100.5,306.9 100.8,307.3 101.0,307.6 101.3,306.6 101.6,306.8 101.8,306.8 102.1,307.0 102.3,307.6 102.6,308.2 102.9,308.3 103.1,308.5 103.4,308.5 103.7,307.6 103.9,307.7 104.2,307.7 104.5,307.6 104.7,307.5 105.0,308.3 105.2,308.1 105.5,308.2 105.8,308.6 106.0,308.7 106.3,309.0 106.6,308.8 106.8,309.3 107.1,308.8 107.3,308.7 107.6,308.6 107.9,308.2 108.1,307.7 108.4,307.2 108.7,308.0 108.9,308.6 109.2,309.0 109.5,308.5 109.7,309.5 110.0,310.2 110.2,310.4 110.5,310.3 110.8,310.3 111.0,310.9 111.3,310.9 111.6,310.5 111.8,311.0 112.1,311.4 112.3,311.7 112.6,311.7 112.9,311.7 113.1,310.8 113.4,310.7 113.7,310.7 113.9,310.7 114.2,311.1 114.5,310.7 114.7,310.4 115.0,310.0 115.2,310.1 115.5,310.2 115.8,309.9 116.0,310.0 116.3,310.0 116.6,310.1 116.8,309.8 117.1,309.5 117.3,309.4 117.6,309.8 117.9,310.0 118.1,310.6 118.4,310.8 118.7,310.7 118.9,311.0 119.2,311.1 119.4,310.9 119.7,310.7 120.0,311.1 120.2,310.7 120.5,310.4 120.8,310.8 121.0,311.4 121.3,311.5 121.6,311.7 121.8,311.7 122.1,311.5 122.3,311.3 122.6,311.3 122.9,312.1 123.1,312.1 123.4,312.1 123.7,311.9 123.9,311.9 124.2,311.9 124.4,312.2 124.7,311.8 125.0,311.7 125.2,311.5 125.5,311.5 125.8,311.5 126.0,311.5 126.3,311.6 126.6,311.5 126.8,311.1 127.1,311.2 127.3,311.0 127.6,310.9 127.9,311.4 128.1,311.5 128.4,311.9 128.7,311.8 128.9,311.4 129.2,311.6 129.4,311.1 129.7,310.7 130.0,310.9 130.2,311.0 130.5,310.9 130.8,311.0 131.0,311.0 131.3,310.7 131.6,310.9 131.8,310.9 132.1,310.9 132.3,310.7 132.6,311.3 132.9,311.5 133.1,311.9 133.4,312.2 133.7,312.0 133.9,311.9 134.2,311.8 134.4,311.8 134.7,311.5 135.0,311.5 135.2,311.4 135.5,311.7 135.8,312.2 136.0,312.0 136.3,312.2 136.5,312.1 136.8,312.1 137.1,312.5 137.3,312.7 137.6,313.2 137.9,313.3 138.1,313.3 138.4,312.9 138.7,312.5 138.9,312.3 139.2,312.4 139.4,312.4 139.7,312.2 140.0,312.3 140.2,311.8 140.5,311.7 140.8,311.6 141.0,311.4 141.3,311.6 141.5,311.5 141.8,311.4 142.1,311.2 142.3,310.7 142.6,310.2 142.9,310.3 143.1,310.5 143.4,310.7 143.7,310.8 143.9,310.5 144.2,311.1 144.4,311.2 144.7,311.0 145.0,310.9 145.2,310.9 145.5,311.2 145.8,311.2 146.0,311.5 146.3,311.4 146.5,311.4 146.8,311.5 147.1,311.8 147.3,311.5 147.6,311.0 147.9,310.6 148.1,310.4 148.4,310.9 148.7,311.2 148.9,311.4 149.2,311.5 149.4,311.6 149.7,311.2 150.0,311.4 150.2,311.2 150.5,311.5 150.8,311.7 151.0,311.7 151.3,311.6 151.5,312.0 151.8,312.1 152.1,312.2 152.3,312.3 152.6,311.9 152.9,311.9 153.1,312.1 153.4,312.2 153.6,312.1 153.9,312.1 154.2,312.2 154.4,312.4 154.7,312.4 155.0,312.2 155.2,312.4 155.5,312.6 155.8,313.0 156.0,312.7 156.3,312.7 156.5,312.9 156.8,312.7 157.1,312.6 157.3,312.6 157.6,312.5 157.9,312.5 158.1,312.7 158.4,312.7 158.6,312.8 158.9,312.7 159.2,313.1 159.4,313.4 159.7,313.2 160.0,313.0 160.2,312.8 160.5,312.5 160.8,312.5 161.0,312.8 161.3,312.8 161.5,312.3 161.8,311.9 162.1,311.9 162.3,311.7 162.6,311.8 162.9,311.8 163.1,311.8 163.4,311.8 163.6,311.6 163.9,311.3 164.2,311.7 164.4,311.8 164.7,312.2 165.0,312.1 165.2,312.2 165.5,312.2 165.8,311.7 166.0,311.6 166.3,311.3 166.5,311.4 166.8,311.7 167.1,311.4 167.3,311.3 167.6,311.6 167.9,311.9 168.1,311.9 168.4,311.6 168.6,311.4 168.9,311.9 169.2,312.1 169.4,312.4 169.7,312.5 170.0,312.5 170.2,312.1 170.5,312.1 170.7,312.2 171.0,312.1 171.3,312.1 171.5,312.3 171.8,312.8 172.1,312.8 172.3,312.8 172.6,312.5 172.9,313.0 173.1,313.8 173.4,314.0 173.6,313.5 173.9,313.4 174.2,313.4 174.4,313.6 174.7,313.9 175.0,314.3 175.2,314.3 175.5,315.0 175.7,314.7 176.0,313.9 176.3,314.2 176.5,314.3 176.8,314.3 177.1,314.1 177.3,314.1 177.6,313.7 177.9,314.0 178.1,314.0 178.4,313.8 178.6,313.9 178.9,313.8 179.2,313.8 179.4,313.7 179.7,313.5 180.0,313.5 180.2,313.6 180.5,313.7 180.7,313.7 181.0,313.6 181.3,313.4 181.5,313.3 181.8,313.4 182.1,313.9 182.3,314.2 182.6,314.0 182.8,314.2 183.1,314.3 183.4,313.9 183.6,313.8 183.9,313.9 184.2,313.5 184.4,313.4 184.7,313.8 185.0,313.5 185.2,313.1 185.5,313.2 185.7,313.5 186.0,313.5 186.3,313.4 186.5,313.5 186.8,313.4 187.1,313.7 187.3,314.3 187.6,314.2 187.8,314.2 188.1,314.1 188.4,314.2 188.6,314.2 188.9,314.1 189.2,314.1 189.4,313.9 189.7,313.9 190.0,313.6 190.2,313.5 190.5,313.4 190.7,313.6 191.0,313.6 191.3,313.7 191.5,313.7 191.8,313.7 192.1,313.7 192.3,313.8 192.6,313.4 192.8,313.2 193.1,313.2 193.4,313.0 193.6,313.1 193.9,313.3 194.2,313.0 194.4,313.1 194.7,312.8 195.0,312.9 195.2,312.9 195.5,313.0 195.7,313.3 196.0,313.2 196.3,313.1 196.5,313.3 196.8,313.4 197.1,313.4 197.3,313.3 197.6,313.1 197.8,313.1 198.1,312.8 198.4,312.4 198.6,312.4 198.9,312.3 199.2,312.2 199.4,312.3 199.7,312.3 199.9,312.2 200.2,311.7 200.5,311.2 200.7,311.4 201.0,311.4 201.3,311.2 201.5,311.4 201.8,311.8 202.1,311.9 202.3,311.9 202.6,311.9 202.8,311.7 203.1,311.3 203.4,311.3 203.6,311.2 203.9,311.5 204.2,311.8 204.4,311.4 204.7,311.2 204.9,311.4 205.2,311.6 205.5,311.2 205.7,310.8 206.0,310.6 206.3,311.0 206.5,310.9 206.8,311.1 207.1,310.6 207.3,310.4 207.6,310.6 207.8,310.9 208.1,310.4 208.4,310.7 208.6,311.4 208.9,311.4 209.2,311.4 209.4,311.2 209.7,311.1 209.9,311.0 210.2,310.7 210.5,310.6 210.7,311.1 211.0,310.6 211.3,310.2 211.5,310.3 211.8,310.7 212.1,310.9 212.3,311.1 212.6,311.3 212.8,311.2 213.1,310.9 213.4,311.1 213.6,310.6 213.9,310.5 214.2,310.5 214.4,310.6 214.7,310.4 214.9,310.4 215.2,310.6 215.5,310.3 215.7,310.4 216.0,310.4 216.3,310.4 216.5,309.8 216.8,309.8 217.0,309.6 217.3,309.8 217.6,310.0 217.8,309.9 218.1,310.2 218.4,310.6 218.6,310.4 218.9,310.7 219.2,310.8 219.4,310.7 219.7,310.7 219.9,310.5 220.2,310.5 220.5,310.4 220.7,310.5 221.0,310.1 221.3,309.9 221.5,310.2 221.8,310.3 222.0,310.0 222.3,309.9 222.6,309.9 222.8,310.1 223.1,310.4 223.4,310.4 223.6,310.7 223.9,310.6 224.2,310.6 224.4,310.7 224.7,310.8 224.9,310.9 225.2,310.6 225.5,310.4 225.7,310.6 226.0,310.4 226.3,310.5 226.5,310.8 226.8,310.9 227.0,310.9 227.3,311.3 227.6,311.5 227.8,311.3 228.1,311.2 228.4,311.2 228.6,311.4 228.9,311.4 229.2,311.4 229.4,311.4 229.7,311.3 229.9,311.2 230.2,311.3 230.5,311.7 230.7,311.8 231.0,311.8 231.3,312.1 231.5,312.2 231.8,311.9 232.0,311.9 232.3,311.5 232.6,311.9 232.8,311.9 233.1,311.7 233.4,311.5 233.6,311.2 233.9,311.8 234.1,311.8 234.4,311.8 234.7,311.8 234.9,311.9 235.2,311.5 235.5,311.0 235.7,310.9 236.0,310.9 236.3,310.6 236.5,310.5 236.8,311.5 237.0,311.2 237.3,310.9 237.6,310.8 237.8,311.0 238.1,311.0 238.4,310.5 238.6,310.6 238.9,310.2 239.1,309.9 239.4,309.7 239.7,309.9 239.9,310.2 240.2,309.8 240.5,309.8 240.7,309.1 241.0,308.8 241.3,308.8 241.5,309.1 241.8,309.1 242.0,309.6 242.3,310.0 242.6,309.7 242.8,309.2 243.1,309.2 243.4,309.0 243.6,309.3 243.9,308.9 244.1,308.2 244.4,308.6 244.7,308.6 244.9,308.5 245.2,308.8 245.5,309.1 245.7,308.9 246.0,308.4 246.3,308.3 246.5,308.0 246.8,308.3 247.0,308.7 247.3,308.7 247.6,308.7 247.8,309.2 248.1,309.3 248.4,309.0 248.6,308.9 248.9,309.3 249.1,309.5 249.4,309.2 249.7,308.9 249.9,308.6 250.2,308.9 250.5,309.0 250.7,308.7 251.0,308.5 251.2,308.5 251.5,309.2 251.8,309.8 252.0,310.1 252.3,309.5 252.6,310.0 252.8,310.1 253.1,310.3 253.4,310.4 253.6,310.6 253.9,310.5 254.1,310.4 254.4,310.7 254.7,310.4 254.9,309.9 255.2,310.1 255.5,310.0 255.7,310.6 256.0,310.3 256.2,310.4 256.5,310.0 256.8,309.7 257.0,309.5 257.3,309.3 257.6,309.5 257.8,309.5 258.1,309.7 258.4,309.7 258.6,309.4 258.9,309.7 259.1,309.2 259.4,310.1 259.7,310.3 259.9,310.9 260.2,310.7 260.5,310.7 260.7,310.3 261.0,310.2 261.2,310.2 261.5,310.2 261.8,309.8 262.0,309.8 262.3,310.2 262.6,310.0 262.8,310.3 263.1,310.1 263.4,310.3 263.6,309.7 263.9,309.5 264.1,309.6 264.4,309.9 264.7,310.1 264.9,310.6 265.2,311.3 265.5,311.5 265.7,311.2 266.0,311.0 266.2,311.1 266.5,310.7 266.8,309.8 267.0,309.5 267.3,309.9 267.6,309.9 267.8,310.1 268.1,310.3 268.3,310.0 268.6,309.4 268.9,309.1 269.1,307.3 269.4,306.5 269.7,306.5 269.9,306.9 270.2,307.3 270.5,305.9 270.7,306.3 271.0,306.0 271.2,306.0 271.5,305.9 271.8,305.7 272.0,306.3 272.3,306.7 272.6,306.4 272.8,306.4 273.1,305.8 273.3,305.3 273.6,305.5 273.9,304.7 274.1,305.0 274.4,305.7 274.7,306.0 274.9,305.8 275.2,307.1 275.5,307.8 275.7,307.0 276.0,307.2 276.2,307.4 276.5,306.9 276.8,306.4 277.0,306.5 277.3,306.8 277.6,307.5 277.8,307.4 278.1,307.6 278.3,307.7 278.6,307.1 278.9,307.2 279.1,306.9 279.4,306.9 279.7,307.1 279.9,307.7 280.2,307.5 280.4,307.3 280.7,307.3 281.0,306.9 281.2,307.3 281.5,307.3 281.8,306.2 282.0,306.1 282.3,306.5 282.6,305.2 282.8,305.2 283.1,304.8 283.3,305.4 283.6,305.5 283.9,306.3 284.1,305.8 284.4,306.6 284.7,307.1 284.9,307.1 285.2,306.7 285.4,307.2 285.7,307.0 286.0,306.8 286.2,306.6 286.5,307.3 286.8,307.6 287.0,307.5 287.3,307.8 287.6,307.8 287.8,307.8 288.1,307.4 288.3,308.3 288.6,308.3 288.9,308.9 289.1,308.7 289.4,308.7 289.7,308.1 289.9,308.1 290.2,308.3 290.4,307.7 290.7,307.7 291.0,307.3 291.2,307.4 291.5,307.4 291.8,306.7 292.0,306.7 292.3,305.9 292.6,306.2 292.8,306.1 293.1,306.4 293.3,306.4 293.6,307.0 293.9,306.2 294.1,306.1 294.4,306.0 294.7,306.4 294.9,306.0 295.2,306.0 295.4,306.1 295.7,305.4 296.0,305.1 296.2,305.6 296.5,304.7 296.8,304.6 297.0,305.3 297.3,304.5 297.5,303.6 297.8,304.4 298.1,304.7 298.3,304.2 298.6,304.2 298.9,303.7 299.1,303.8 299.4,303.2 299.7,303.3 299.9,304.1 300.2,303.3 300.4,303.3 300.7,303.3 301.0,304.0 301.2,304.4 301.5,304.6 301.8,303.2 302.0,303.8 302.3,304.4 302.5,304.8 302.8,304.7 303.1,304.2 303.3,305.0 303.6,304.8 303.9,305.0 304.1,304.9 304.4,304.3 304.7,304.2 304.9,304.4 305.2,303.9 305.4,303.8 305.7,303.8 306.0,304.4 306.2,303.7 306.5,303.8 306.8,304.6 307.0,304.7 307.3,304.7 307.5,304.4 307.8,303.4 308.1,304.1 308.3,304.3 308.6,306.0 308.9,305.0 309.1,305.1 309.4,306.0 309.7,306.3 309.9,306.6 310.2,306.2 310.4,306.2 310.7,305.2 311.0,305.3 311.2,305.1 311.5,305.7 311.8,305.6 312.0,306.0 312.3,306.2 312.5,306.7 312.8,306.1 313.1,306.2 313.3,306.2 313.6,306.0 313.9,306.4 314.1,306.9 314.4,306.7 314.6,306.8 314.9,307.1 315.2,306.9 315.4,306.8 315.7,305.9 316.0,306.1 316.2,306.4 316.5,305.9 316.8,305.9 317.0,305.8 317.3,305.8 317.5,306.2 317.8,306.1 318.1,306.6 318.3,306.8 318.6,306.7 318.9,306.8 319.1,307.2 319.4,307.4 319.6,307.3 319.9,306.7 320.2,306.7 320.4,306.6 320.7,306.7 321.0,306.8 321.2,306.3 321.5,306.4 321.8,306.4 322.0,306.1 322.3,306.3 322.5,306.3 322.8,306.5 323.1,306.3 323.3,306.3 323.6,306.1 323.9,305.6 324.1,305.8 324.4,305.8 324.6,305.7 324.9,305.3 325.2,305.3 325.4,304.9 325.7,305.3 326.0,304.7 326.2,304.9 326.5,304.5 326.8,304.4 327.0,304.1 327.3,304.4 327.5,304.6 327.8,304.8 328.1,305.0 328.3,304.6 328.6,304.9 328.9,304.9 329.1,304.5 329.4,304.5 329.6,304.9 329.9,305.0 330.2,305.1 330.4,304.7 330.7,304.6 331.0,304.8 331.2,304.6 331.5,304.9 331.7,305.0 332.0,304.9 332.3,305.8 332.5,305.8 332.8,305.6 333.1,305.3 333.3,305.1 333.6,305.8 333.9,305.7 334.1,305.7 334.4,305.3 334.6,305.2 334.9,305.4 335.2,305.3 335.4,305.3 335.7,305.3 336.0,305.2 336.2,304.7 336.5,304.8 336.7,304.4 337.0,304.4 337.3,304.7 337.5,304.7 337.8,304.8 338.1,304.8 338.3,304.4 338.6,304.2 338.9,304.3 339.1,304.4 339.4,304.1 339.6,303.6 339.9,303.7 340.2,303.9 340.4,303.8 340.7,303.8 341.0,303.9 341.2,303.8 341.5,304.2 341.7,304.2 342.0,304.2 342.3,304.1 342.5,304.1 342.8,303.8 343.1,303.9 343.3,303.9 343.6,304.2 343.9,304.2 344.1,304.4 344.4,304.2 344.6,304.2 344.9,304.2 345.2,303.0 345.4,302.3 345.7,302.0 346.0,302.2 346.2,301.5 346.5,301.3 346.7,301.7 347.0,301.6 347.3,301.7 347.5,302.0 347.8,300.7 348.1,300.8 348.3,300.9 348.6,300.3 348.8,300.8 349.1,300.7 349.4,301.4 349.6,301.2 349.9,301.6 350.2,301.0 350.4,301.2 350.7,301.5 351.0,301.4 351.2,300.7 351.5,300.4 351.7,300.4 352.0,300.3 352.3,300.7 352.5,300.9 352.8,301.1 353.1,301.0 353.3,300.6 353.6,301.3 353.8,301.4 354.1,301.1 354.4,300.5 354.6,301.2 354.9,301.2 355.2,301.5 355.4,301.3 355.7,301.1 356.0,301.9 356.2,301.9 356.5,302.6 356.7,302.4 357.0,302.6 357.3,302.7 357.5,303.0 357.8,302.1 358.1,302.2 358.3,301.9 358.6,301.5 358.8,301.7 359.1,302.3 359.4,302.9 359.6,302.1 359.9,302.0 360.2,301.6 360.4,300.6 360.7,300.8 360.9,301.7 361.2,301.5 361.5,301.8 361.7,302.3 362.0,302.6 362.3,302.4 362.5,302.3 362.8,302.2 363.1,302.2 363.3,301.9 363.6,301.7 363.8,300.8 364.1,300.3 364.4,300.5 364.6,300.4 364.9,300.5 365.2,299.8 365.4,299.8 365.7,300.6 365.9,300.7 366.2,300.7 366.5,300.7 366.7,300.4 367.0,299.5 367.3,298.6 367.5,298.7 367.8,298.3 368.1,298.5 368.3,299.2 368.6,299.4 368.8,299.5 369.1,298.6 369.4,299.0 369.6,299.4 369.9,299.9 370.2,299.8 370.4,299.4 370.7,299.4 370.9,299.2 371.2,299.1 371.5,299.6 371.7,299.1 372.0,299.0 372.3,299.5 372.5,299.4 372.8,299.7 373.1,300.0 373.3,299.9 373.6,298.7 373.8,298.0 374.1,298.4 374.4,298.2 374.6,297.9 374.9,297.5 375.2,297.9 375.4,298.0 375.7,297.9 375.9,298.3 376.2,297.9 376.5,298.4 376.7,297.2 377.0,297.1 377.3,297.4 377.5,296.4 377.8,296.4 378.0,296.9 378.3,296.4 378.6,295.8 378.8,294.1 379.1,294.1 379.4,293.9 379.6,293.7 379.9,293.6 380.2,293.5 380.4,292.2 380.7,290.6 380.9,291.0 381.2,289.9 381.5,289.5 381.7,290.0 382.0,290.5 382.3,288.5 382.5,287.4 382.8,287.9 383.0,288.2 383.3,288.1 383.6,289.2 383.8,288.5 384.1,288.2 384.4,289.0 384.6,288.3 384.9,287.8 385.2,288.6 385.4,288.4 385.7,287.5 385.9,286.7 386.2,287.4 386.5,287.7 386.7,288.9 387.0,289.0 387.3,288.4 387.5,287.8 387.8,286.4 388.0,286.2 388.3,285.9 388.6,283.4 388.8,281.1 389.1,285.6 389.4,284.2 389.6,282.4 389.9,283.3 390.2,285.0 390.4,286.6 390.7,285.5 390.9,286.6 391.2,286.5 391.5,285.3 391.7,284.4 392.0,284.4 392.3,286.2 392.5,288.3 392.8,287.5 393.0,289.1 393.3,289.9 393.6,286.9 393.8,287.0 394.1,289.3 394.4,291.6 394.6,290.6 394.9,287.5 395.1,287.3 395.4,287.9 395.7,290.1 395.9,288.4 396.2,290.2 396.5,293.9 396.7,290.5 397.0,286.8 397.3,284.5 397.5,286.3 397.8,289.7 398.0,287.9 398.3,285.9 398.6,286.4 398.8,286.8 399.1,286.3 399.4,286.1 399.6,287.5 399.9,291.2 400.1,288.6 400.4,287.1 400.7,289.1 400.9,287.2 401.2,284.9 401.5,284.5 401.7,285.4 402.0,285.6 402.3,285.5 402.5,282.7 402.8,284.0 403.0,285.3 403.3,285.3 403.6,285.4 403.8,284.9 404.1,285.9 404.4,284.7 404.6,286.3 404.9,288.3 405.1,292.0 405.4,291.6 405.7,289.1 405.9,288.4 406.2,287.6 406.5,287.7 406.7,289.4 407.0,289.9 407.3,287.8 407.5,284.4 407.8,286.1 408.0,285.5 408.3,286.6 408.6,285.8 408.8,287.7 409.1,285.3 409.4,286.8 409.6,286.7 409.9,286.1 410.1,286.4 410.4,286.8 410.7,285.5 410.9,286.1 411.2,285.1 411.5,285.6 411.7,286.0 412.0,284.4 412.2,284.2 412.5,284.3 412.8,285.3 413.0,285.4 413.3,285.1 413.6,285.3 413.8,283.8 414.1,283.8 414.4,284.7 414.6,283.7 414.9,283.5 415.1,280.8 415.4,281.3 415.7,280.9 415.9,279.5 416.2,280.3 416.5,281.2 416.7,281.7 417.0,280.0 417.2,280.6 417.5,281.3 417.8,281.4 418.0,283.6 418.3,281.4 418.6,281.6 418.8,282.2 419.1,281.3 419.4,281.1 419.6,281.6 419.9,281.4 420.1,281.7 420.4,282.3 420.7,282.0 420.9,282.4 421.2,282.1 421.5,283.1 421.7,283.1 422.0,282.3 422.2,281.8 422.5,281.7 422.8,281.6 423.0,281.2 423.3,282.4 423.6,282.6 423.8,282.6 424.1,282.9 424.4,283.5 424.6,282.8 424.9,283.0 425.1,282.7 425.4,282.8 425.7,281.7 425.9,282.1 426.2,282.2 426.5,282.7 426.7,283.2 427.0,283.6 427.2,283.1 427.5,283.6 427.8,283.4 428.0,285.1 428.3,284.8 428.6,283.9 428.8,286.0 429.1,284.7 429.3,286.6 429.6,287.1 429.9,288.1 430.1,287.7 430.4,288.9 430.7,288.6 430.9,287.7 431.2,287.7 431.5,289.0 431.7,288.6 432.0,288.0 432.2,289.0 432.5,288.6 432.8,289.3 433.0,288.0 433.3,287.4 433.6,287.2 433.8,286.2 434.1,286.4 434.3,286.9 434.6,286.8 434.9,286.2 435.1,286.6 435.4,287.2 435.7,286.6 435.9,286.0 436.2,285.6 436.5,285.4 436.7,286.5 437.0,286.2 437.2,287.1 437.5,287.3 437.8,286.3 438.0,285.6 438.3,284.9 438.6,284.7 438.8,284.7 439.1,284.3 439.3,285.6 439.6,285.7 439.9,285.5 440.1,284.5 440.4,284.3 440.7,284.0 440.9,284.7 441.2,284.5 441.5,285.1 441.7,285.1 442.0,285.1 442.2,285.0 442.5,285.4 442.8,285.6 443.0,285.0 443.3,285.1 443.6,284.8 443.8,284.5 444.1,284.8 444.3,284.7 444.6,285.0 444.9,285.3 445.1,285.3 445.4,285.2 445.7,285.1 445.9,284.7 446.2,284.3 446.4,284.6 446.7,284.5 447.0,285.5 447.2,285.4 447.5,285.7 447.8,285.0 448.0,285.0 448.3,285.5 448.6,285.6 448.8,284.6 449.1,284.6 449.3,284.8 449.6,285.4 449.9,285.9 450.1,285.9 450.4,285.1 450.7,285.4 450.9,285.5 451.2,285.3 451.4,285.0 451.7,285.2 452.0,285.6 452.2,285.8 452.5,286.3 452.8,286.3 453.0,286.9 453.3,287.0 453.6,287.2 453.8,287.1 454.1,286.3 454.3,286.5 454.6,286.6 454.9,285.6 455.1,285.7 455.4,285.7 455.7,285.6 455.9,286.1 456.2,286.3 456.4,286.0 456.7,285.5 457.0,285.0 457.2,285.2 457.5,285.2 457.8,284.6 458.0,284.4 458.3,285.0 458.5,283.9 458.8,283.7 459.1,284.0 459.3,284.2 459.6,284.0 459.9,283.4 460.1,283.7 460.4,283.4 460.7,283.3 460.9,283.7 461.2,282.1 461.4,280.8 461.7,281.0 462.0,281.2 462.2,280.8 462.5,280.6 462.8,281.4 463.0,281.3 463.3,281.4 463.5,282.0 463.8,281.2 464.1,281.2 464.3,280.9 464.6,280.2 464.9,280.3 465.1,280.9 465.4,280.2 465.7,280.2 465.9,280.5 466.2,280.1 466.4,280.3 466.7,279.0 467.0,279.2 467.2,279.3 467.5,279.1 467.8,278.6 468.0,278.6 468.3,279.0 468.5,279.4 468.8,279.5 469.1,279.3 469.3,279.8 469.6,279.9 469.9,279.8 470.1,279.8 470.4,279.6 470.7,280.8 470.9,280.7 471.2,280.5 471.4,279.4 471.7,279.9 472.0,279.8 472.2,280.3 472.5,280.5 472.8,280.8 473.0,280.1 473.3,280.4 473.5,281.4 473.8,280.9 474.1,280.5 474.3,280.5 474.6,280.3 474.9,279.5 475.1,280.1 475.4,280.3 475.6,280.2 475.9,280.1 476.2,279.9 476.4,278.7 476.7,278.0 477.0,278.2 477.2,277.7 477.5,277.9 477.8,276.9 478.0,276.9 478.3,276.6 478.5,277.2 478.8,277.2 479.1,277.5 479.3,277.8 479.6,277.3 479.9,277.2 480.1,277.6 480.4,277.7 480.6,276.8 480.9,277.0 481.2,277.2 481.4,278.1 481.7,278.5 482.0,277.5 482.2,277.6 482.5,277.9 482.8,278.2 483.0,278.8 483.3,278.6 483.5,278.0 483.8,278.0 484.1,278.3 484.3,278.0 484.6,277.5 484.9,277.7 485.1,277.1 485.4,277.2 485.6,277.4 485.9,277.4 486.2,276.9 486.4,276.9 486.7,276.7 487.0,276.6 487.2,275.8 487.5,275.8 487.8,276.4 488.0,276.8 488.3,276.3 488.5,276.9 488.8,277.0 489.1,277.3 489.3,277.2 489.6,277.0 489.9,277.9 490.1,277.7 490.4,278.5 490.6,278.5 490.9,278.1 491.2,277.9 491.4,278.4 491.7,278.3 492.0,278.4 492.2,277.8 492.5,277.2 492.7,277.2 493.0,277.8 493.3,278.3 493.5,277.8 493.8,278.6 494.1,278.6 494.3,278.2 494.6,277.3 494.9,277.5 495.1,277.2 495.4,276.8 495.6,276.7 495.9,276.1 496.2,276.9 496.4,275.9 496.7,275.8 497.0,274.7 497.2,275.3 497.5,275.7 497.7,275.4 498.0,275.5 498.3,275.9 498.5,275.8 498.8,275.3 499.1,275.8 499.3,274.1 499.6,274.5 499.9,273.8 500.1,273.6 500.4,273.5 500.6,273.1 500.9,272.0 501.2,272.6 501.4,273.1 501.7,273.6 502.0,273.9 502.2,273.7 502.5,273.3 502.7,272.2 503.0,272.0 503.3,272.2 503.5,272.1 503.8,272.7 504.1,272.5 504.3,271.0 504.6,271.5 504.9,271.4 505.1,270.9 505.4,269.7 505.6,269.5 505.9,269.5 506.2,269.7 506.4,269.4 506.7,269.3 507.0,269.8 507.2,270.0 507.5,268.8 507.7,268.6 508.0,268.4 508.3,268.2 508.5,269.2 508.8,270.3 509.1,269.8 509.3,269.0 509.6,269.1 509.8,268.9 510.1,268.1 510.4,268.1 510.6,267.2 510.9,266.7 511.2,266.3 511.4,266.5 511.7,267.4 512.0,268.4 512.2,269.5 512.5,270.1 512.7,269.5 513.0,268.7 513.3,268.4 513.5,268.4 513.8,268.7 514.1,267.7 514.3,267.1 514.6,267.0 514.8,266.4 515.1,265.0 515.4,265.4 515.6,263.9 515.9,264.0 516.2,263.4 516.4,262.4 516.7,262.5 517.0,264.2 517.2,263.8 517.5,262.8 517.7,261.5 518.0,262.4 518.3,264.1 518.5,263.1 518.8,262.0 519.1,260.8 519.3,261.0 519.6,260.9 519.8,261.4 520.1,261.4 520.4,261.8 520.6,260.7 520.9,262.1 521.2,263.4 521.4,262.5 521.7,263.1 522.0,262.3 522.2,261.1 522.5,261.0 522.7,262.4 523.0,261.7 523.3,261.7 523.5,262.4 523.8,263.6 524.1,262.8 524.3,263.4 524.6,264.0 524.8,263.4 525.1,263.1 525.4,263.7 525.6,263.7 525.9,264.2 526.2,263.7 526.4,262.3 526.7,261.8 526.9,262.0 527.2,262.6 527.5,262.4 527.7,262.3 528.0,262.2 528.3,261.9 528.5,261.3 528.8,260.9 529.1,260.8 529.3,262.2 529.6,262.3 529.8,262.3 530.1,261.5 530.4,261.5 530.6,258.6 530.9,259.1 531.2,258.4 531.4,256.0 531.7,256.6 531.9,257.2 532.2,257.8 532.5,257.6 532.7,256.2 533.0,257.0 533.3,256.5 533.5,256.2 533.8,256.4 534.1,257.2 534.3,257.3 534.6,257.2 534.8,257.1 535.1,255.1 535.4,251.5 535.6,251.8 535.9,252.6 536.2,251.6 536.4,250.2 536.7,251.5 536.9,251.7 537.2,251.5 537.5,252.4 537.7,251.7 538.0,251.3 538.3,251.0 538.5,250.9 538.8,251.7 539.1,251.9 539.3,251.9 539.6,251.9 539.8,251.5 540.1,249.3 540.4,249.5 540.6,246.9 540.9,248.2 541.2,246.3 541.4,245.6 541.7,245.6 541.9,245.5 542.2,244.5 542.5,244.7 542.7,242.4 543.0,242.9 543.3,242.8 543.5,243.1 543.8,240.6 544.0,241.3 544.3,241.8 544.6,242.9 544.8,240.0 545.1,238.3 545.4,237.6 545.6,233.9 545.9,229.0 546.2,233.4 546.4,235.8 546.7,235.1 546.9,234.4 547.2,237.1 547.5,240.2 547.7,238.9 548.0,236.6 548.3,239.4 548.5,237.8 548.8,237.4 549.0,238.0 549.3,243.0 549.6,242.6 549.8,243.9 550.1,241.3 550.4,242.5 550.6,242.7 550.9,241.5 551.2,239.8 551.4,241.1 551.7,242.4 551.9,243.6 552.2,242.4 552.5,237.2 552.7,238.0 553.0,237.1 553.3,236.9 553.5,239.6 553.8,238.8 554.0,238.2 554.3,237.2 554.6,235.4 554.8,234.8 555.1,235.1 555.4,235.5 555.6,238.8 555.9,237.2 556.1,237.7 556.4,238.1 556.7,237.9 556.9,235.7 557.2,236.0 557.5,234.8 557.7,230.3 558.0,230.0 558.3,230.8 558.5,230.4 558.8,230.5 559.0,229.7 559.3,231.8 559.6,232.7 559.8,230.7 560.1,228.1 560.4,227.7 560.6,225.9 560.9,228.5 561.1,227.1 561.4,232.2 561.7,231.1 561.9,229.0 562.2,230.9 562.5,230.8 562.7,232.0 563.0,237.7 563.3,239.4 563.5,237.6 563.8,239.6 564.0,235.1 564.3,234.8 564.6,233.9 564.8,233.2 565.1,232.1 565.4,230.2 565.6,231.6 565.9,233.2 566.1,230.9 566.4,231.5 566.7,230.6 566.9,228.3 567.2,229.4 567.5,225.6 567.7,224.2 568.0,223.4 568.3,224.9 568.5,223.5 568.8,219.8 569.0,220.8 569.3,215.1 569.6,213.6 569.8,214.9 570.1,215.7 570.4,217.3 570.6,213.8 570.9,214.6 571.1,219.1 571.4,219.7 571.7,214.2 571.9,217.0 572.2,217.0 572.5,218.0 572.7,220.0 573.0,217.7 573.2,216.8 573.5,215.9 573.8,221.9 574.0,219.1 574.3,222.2 574.6,220.7 574.8,219.4 575.1,218.1 575.4,217.8 575.6,217.2 575.9,213.6 576.1,218.4 576.4,218.8 576.7,220.8 576.9,219.6 577.2,220.2 577.5,217.5 577.7,216.1 578.0,215.7 578.2,208.2 578.5,211.0 578.8,208.8 579.0,207.1 579.3,208.2 579.6,210.4 579.8,207.4 580.1,208.0 580.4,203.6 580.6,204.2 580.9,205.0 581.1,200.7 581.4,195.6 581.7,203.2 581.9,201.2 582.2,198.4 582.5,202.0 582.7,199.1 583.0,191.6 583.2,187.8 583.5,188.5 583.8,189.9 584.0,195.2 584.3,194.1 584.6,196.9 584.8,198.2 585.1,198.7 585.4,200.4 585.6,193.7 585.9,194.9 586.1,193.6 586.4,192.5 586.7,192.3 586.9,197.9 587.2,204.0 587.5,199.1 587.7,199.7 588.0,204.6 588.2,208.7 588.5,212.3 588.8,208.9 589.0,205.0 589.3,204.0 589.6,204.8 589.8,202.6 590.1,200.4 590.3,200.9 590.6,204.2 590.9,201.9 591.1,203.4 591.4,202.5 591.7,208.5 591.9,207.1 592.2,205.6 592.5,208.0 592.7,208.2 593.0,210.5 593.2,210.8 593.5,211.7 593.8,209.9 594.0,214.8 594.3,222.7 594.6,220.0 594.8,221.3 595.1,213.9 595.3,208.8 595.6,208.3 595.9,207.0 596.1,213.0 596.4,213.6 596.7,217.5 596.9,220.9 597.2,213.9 597.5,214.7 597.7,213.0 598.0,212.3 598.2,208.3 598.5,207.9 598.8,209.2 599.0,212.3 599.3,215.4 599.6,216.2 599.8,216.1 600.1,217.7 600.3,219.7 600.6,216.3 600.9,219.1 601.1,217.8 601.4,223.4 601.7,227.7 601.9,229.0 602.2,233.6 602.5,230.1 602.7,227.3 603.0,227.2 603.2,224.4 603.5,223.3 603.8,221.2 604.0,221.2 604.3,219.9 604.6,228.6 604.8,227.9 605.1,229.0 605.3,233.4 605.6,230.4 605.9,229.9 606.1,229.2 606.4,229.0 606.7,233.6 606.9,231.6 607.2,223.8 607.4,225.2 607.7,228.3 608.0,231.3 608.2,229.6 608.5,231.8 608.8,228.6 609.0,223.1 609.3,221.6 609.6,212.9 609.8,215.7 610.1,216.6 610.3,217.6 610.6,216.8 610.9,218.2 611.1,217.3 611.4,216.7 611.7,218.8 611.9,218.6 612.2,221.9 612.4,220.2 612.7,221.3 613.0,219.0 613.2,220.2 613.5,221.4 613.8,221.5 614.0,221.6 614.3,218.3 614.6,219.0 614.8,216.6 615.1,214.0 615.3,214.0 615.6,214.1 615.9,221.3 616.1,228.6 616.4,227.5 616.7,225.6 616.9,227.8 617.2,226.0 617.4,227.7 617.7,230.6 618.0,231.2 618.2,234.1 618.5,237.8 618.8,242.6 619.0,237.4 619.3,237.0 619.6,239.4 619.8,240.3 620.1,238.1 620.3,237.8 620.6,241.0 620.9,235.4 621.1,236.7 621.4,236.0 621.7,233.4 621.9,232.2 622.2,232.7 622.4,235.5 622.7,231.9 623.0,230.1 623.2,230.3 623.5,227.2 623.8,227.4 624.0,229.7 624.3,229.2 624.5,226.9 624.8,227.5 625.1,234.6 625.3,230.6 625.6,230.2 625.9,227.4 626.1,224.4 626.4,222.7 626.7,219.9 626.9,216.3 627.2,216.0 627.4,218.5 627.7,214.2 628.0,215.8 628.2,217.4 628.5,216.6 628.8,215.1 629.0,211.4 629.3,212.2 629.5,210.9 629.8,205.6 630.1,205.5 630.3,205.0 630.6,205.2 630.9,206.7 631.1,208.2 631.4,209.4 631.7,208.3 631.9,209.2 632.2,209.1 632.4,208.7 632.7,206.3 633.0,201.9 633.2,205.3 633.5,204.2 633.8,204.8 634.0,203.5 634.3,206.8 634.5,206.2 634.8,201.4 635.1,195.6 635.3,194.0 635.6,193.3 635.9,194.3 636.1,193.7 636.4,192.5 636.6,197.0 636.9,195.2 637.2,193.4 637.4,197.0 637.7,195.6 638.0,198.2 638.2,195.2 638.5,195.8 638.8,196.6 639.0,196.0 639.3,200.7 639.5,199.3 639.8,199.3 640.1,197.1 640.3,200.3 640.6,194.2 640.9,193.3 641.1,196.5 641.4,192.5 641.6,196.4 641.9,200.0 642.2,196.7 642.4,196.6 642.7,198.9 643.0,194.0 643.2,196.3 643.5,199.4 643.8,204.6 644.0,203.4 644.3,202.9 644.5,205.9 644.8,204.9 645.1,202.6 645.3,199.9 645.6,201.2 645.9,201.2 646.1,200.7 646.4,198.5 646.6,200.9 646.9,207.1 647.2,209.2 647.4,207.9 647.7,204.8 648.0,204.4 648.2,202.4 648.5,202.5 648.8,201.8 649.0,199.8 649.3,196.1 649.5,193.8 649.8,193.0 650.1,192.7 650.3,192.8 650.6,191.8 650.9,191.0 651.1,192.8 651.4,188.3 651.6,184.2 651.9,188.0 652.2,192.6 652.4,190.0 652.7,191.8 653.0,191.8 653.2,189.9 653.5,191.5 653.7,191.9 654.0,190.0 654.3,192.7 654.5,192.3 654.8,192.8 655.1,192.8 655.3,191.7 655.6,192.7 655.9,191.6 656.1,191.4 656.4,191.1 656.6,191.5 656.9,190.9 657.2,190.9 657.4,191.3 657.7,192.7 658.0,196.7 658.2,195.4 658.5,193.8 658.7,191.5 659.0,191.0 659.3,190.3 659.5,190.7 659.8,187.3 660.1,186.7 660.3,186.4 660.6,180.7 660.9,180.6 661.1,181.2 661.4,181.1 661.6,171.2 661.9,173.3 662.2,172.8 662.4,170.1 662.7,170.5 663.0,164.1 663.2,165.0 663.5,167.3 663.7,167.7 664.0,167.3 664.3,164.0 664.5,165.7 664.8,163.1 665.1,168.1 665.3,167.1 665.6,164.7 665.9,166.2 666.1,164.6 666.4,163.9 666.6,161.1 666.9,162.0 667.2,159.1 667.4,158.4 667.7,161.5 668.0,162.1 668.2,162.8 668.5,163.5 668.7,166.9 669.0,158.1 669.3,157.3 669.5,156.9 669.8,153.5 670.1,152.0 670.3,152.4 670.6,155.5 670.8,158.9 671.1,156.7 671.4,158.5 671.6,158.7 671.9,148.8 672.2,141.6 672.4,142.2 672.7,143.4 673.0,142.0 673.2,138.7 673.5,139.3 673.7,141.1 674.0,141.3 674.3,142.6 674.5,141.1 674.8,146.1 675.1,144.5 675.3,140.9 675.6,134.9 675.8,138.3 676.1,137.9 676.4,132.3 676.6,133.6 676.9,138.5 677.2,145.9 677.4,147.6 677.7,146.0 678.0,144.5 678.2,144.4 678.5,152.2 678.7,156.6 679.0,154.9 679.3,152.7 679.5,152.1 679.8,149.7 680.1,156.8 680.3,155.0 680.6,154.0 680.8,153.8 681.1,150.2 681.4,153.5 681.6,151.9 681.9,154.5 682.2,154.3 682.4,154.2 682.7,153.5 683.0,155.0 683.2,157.3 683.5,155.3 683.7,155.3 684.0,153.0 684.3,148.8 684.5,148.5 684.8,152.1 685.1,155.9 685.3,154.3 685.6,154.7 685.8,150.2 686.1,148.9 686.4,148.2 686.6,150.9 686.9,150.1 687.2,151.1 687.4,142.4 687.7,143.6 687.9,143.0 688.2,143.1 688.5,147.9 688.7,153.1 689.0,150.4 689.3,146.0 689.5,143.6 689.8,144.5 690.1,146.8 690.3,143.5 690.6,137.7 690.8,140.8 691.1,140.6 691.4,138.9 691.6,142.6 691.9,144.4 692.2,142.1 692.4,143.4 692.7,147.1 692.9,147.2 693.2,150.6 693.5,149.5 693.7,155.9 694.0,153.6 694.3,147.2 694.5,148.3 694.8,140.3 695.1,139.2 695.3,146.0 695.6,142.6 695.8,145.8 696.1,151.2 696.4,154.6 696.6,160.0 696.9,162.0 697.2,163.0 697.4,166.3 697.7,163.9 697.9,159.5 698.2,152.6 698.5,145.9 698.7,143.2 699.0,142.0 699.3,142.4 699.5,139.6 699.8,143.8 700.1,140.0 700.3,136.2 700.6,132.5 700.8,134.0 701.1,129.9 701.4,131.1 701.6,130.2 701.9,126.4 702.2,128.6 702.4,128.6 702.7,130.3 702.9,130.1 703.2,133.0 703.5,128.5 703.7,131.4 704.0,133.0 704.3,130.8 704.5,131.4 704.8,136.9 705.0,137.7 705.3,130.7 705.6,130.3 705.8,129.4 706.1,136.3 706.4,132.7 706.6,132.1 706.9,129.1 707.2,133.9 707.4,129.1 707.7,127.6 707.9,127.6 708.2,123.9 708.5,131.8 708.7,128.7 709.0,127.4 709.3,131.4 709.5,134.7 709.8,134.2 710.0,130.5 710.3,130.1 710.6,130.6 710.8,128.1 711.1,125.4 711.4,130.3 711.6,123.8 711.9,119.9 712.2,120.1 712.4,116.7 712.7,120.6 712.9,113.5 713.2,107.3 713.5,108.2 713.7,99.1 714.0,98.5 714.3,95.4 714.5,99.2 714.8,101.0 715.0,100.8 715.3,103.9 715.6,103.5 715.8,101.9 716.1,98.8 716.4,88.6 716.6,89.1 716.9,85.6 717.2,83.5 717.4,82.3 717.7,85.8 717.9,74.5 718.2,90.9 718.5,90.9 718.7,90.5 719.0,83.6 719.3,83.4 719.5,83.4 719.8,94.7 720.0,93.2 720.3,95.2 720.6,92.1 720.8,94.3 721.1,95.7 721.4,98.6 721.6,96.7 721.9,99.6 722.1,104.0 722.4,103.5 722.7,104.5 722.9,102.1 723.2,106.4 723.5,109.2 723.7,107.7 724.0,104.3 724.3,98.1 724.5,99.8 724.8,102.3 725.0,102.0 725.3,100.5 725.6,96.7 725.8,95.2 726.1,96.4 726.4,93.2 726.6,94.5 726.9,96.7 727.1,94.9 727.4,94.2 727.7,97.8 727.9,102.5 728.2,100.7 728.5,105.7 728.7,104.7 729.0,102.0 729.3,103.1 729.5,103.8 729.8,107.1 730.0,115.6 730.3,109.0 730.6,110.2 730.8,108.2 731.1,106.9 731.4,111.7 731.6,110.3 731.9,110.0 732.1,106.7 732.4,106.9 732.7,101.7 732.9,96.1 733.2,97.4 733.5,99.1 733.7,98.7 734.0,98.9 734.2,102.7 734.5,104.0 734.8,107.5 735.0,107.6 735.3,111.0 735.6,108.5 735.8,108.4 736.1,103.1 736.4,103.9 736.6,109.3 736.9,108.4 737.1,106.1 737.4,106.1 737.7,103.5 737.9,109.2 738.2,108.0 738.5,111.5 738.7,115.9 739.0,115.0 739.2,117.5 739.5,117.2 739.8,117.5 740.0,114.8 740.3,113.1 740.6,114.1 740.8,116.0 741.1,113.4 741.4,116.0 741.6,116.3 741.9,114.0 742.1,116.3 742.4,112.3 742.7,112.5 742.9,106.5 743.2,103.2 743.5,106.8 743.7,106.3 744.0,110.8 744.2,108.9 744.5,107.7 744.8,106.2 745.0,89.2 745.3,89.2 745.6,69.2 745.8,68.0 746.1,62.6 746.4,66.7 746.6,67.1 746.9,60.3 747.1,45.0 747.4,54.9 747.7,61.5 747.9,50.7 748.2,53.7 748.5,54.4 748.7,49.4 749.0,48.2 749.2,45.0 749.5,49.4 749.8,54.1 750.0,47.2 750.3,51.0 750.6,56.9 750.8,57.7 751.1,62.6 751.3,69.7 751.6,67.2 751.9,61.9 752.1,50.9 752.4,53.8 752.7,64.7 752.9,65.6 753.2,70.4 753.5,72.7 753.7,75.6 754.0,67.1 754.2,69.6 754.5,75.0 754.8,64.0 755.0,66.5 755.3,58.0 755.6,59.3 755.8,69.8 756.1,69.2 756.3,81.9 756.6,80.2 756.9,82.6 757.1,79.3 757.4,77.5 757.7,81.1 757.9,85.9 758.2,78.6 758.5,80.7 758.7,81.2 759.0,101.3 759.2,102.1 759.5,98.1 759.8,97.9 760.0,101.1 760.3,107.5 760.6,108.5 760.8,109.9 761.1,108.4 761.3,111.3 761.6,111.1 761.9,112.2 762.1,115.0 762.4,113.3 762.7,103.5 762.9,105.2 763.2,97.6 763.5,101.3 763.7,97.0 764.0,99.9 764.2,104.3 764.5,104.8 764.8,100.5 765.0,103.5 765.3,107.6 765.6,109.0 765.8,117.5 766.1,125.7 766.3,129.5 766.6,125.9 766.9,130.3 767.1,123.2 767.4,125.6 767.7,123.7 767.9,127.3 768.2,123.6 768.4,124.0 768.7,125.3 769.0,121.0 769.2,125.8 769.5,131.1 769.8,130.2 770.0,121.9 770.3,123.2 770.6,126.8 770.8,121.6 771.1,117.8 771.3,117.0 771.6,118.6 771.9,121.9 772.1,125.7 772.4,122.8 772.7,115.7 772.9,115.6 773.2,115.5 773.4,116.7 773.7,115.6 774.0,112.7 774.2,120.3 774.5,124.7 774.8,124.5 775.0,125.1 775.3,123.7 775.6,120.9 775.8,111.9 776.1,112.0 776.3,115.2 776.6,118.3 776.9,117.3 777.1,116.5 777.4,122.2 777.7,119.3 777.9,117.3 778.2,126.6 778.4,126.5 778.7,124.9 779.0,126.1 779.2,126.7 779.5,121.7 779.8,129.9 780.0,141.6 780.3,144.2 780.6,143.1 780.8,146.2 781.1,144.1 781.3,141.1 781.6,144.6 781.9,150.0 782.1,149.5 782.4,150.0 782.7,147.5 782.9,140.9 783.2,141.5 783.4,146.5 783.7,145.9 784.0,152.6 784.2,166.6 784.5,162.4 784.8,164.8 785.0,166.9 785.3,164.3 785.5,158.0 785.8,161.1 786.1,162.7 786.3,165.7 786.6,159.4 786.9,157.0 787.1,159.5 787.4,162.7 787.7,160.6 787.9,160.7 788.2,165.8 788.4,165.1 788.7,168.5 789.0,184.4 789.2,188.2 789.5,188.1 789.8,187.5 790.0,193.7 790.3,191.5 790.5,192.9 790.8,194.1 791.1,189.9 791.3,192.1 791.6,191.4 791.9,185.5 792.1,185.5 792.4,186.5 792.7,187.4 792.9,187.4 793.2,189.5 793.4,189.3 793.7,192.5 794.0,191.2 794.2,188.9 794.5,186.1 794.8,186.4 795.0,180.5 795.3,177.6 795.5,178.7 795.8,180.1 796.1,179.2 796.3,167.5 796.6,169.2 796.9,168.6 797.1,171.1 797.4,176.7 797.7,179.7 797.9,182.5 798.2,181.0 798.4,175.2 798.7,178.4 799.0,176.0 799.2,176.3 799.5,181.6 799.8,182.6 800.0,183.5 800.3,182.1 800.5,180.5 800.8,184.3 801.1,182.5 801.3,176.3 801.6,174.5 801.9,181.0 802.1,180.4 802.4,168.8 802.6,171.0 802.9,172.3 803.2,169.9 803.4,167.0 803.7,168.3 804.0,174.6 804.2,174.0 804.5,173.9 804.8,173.7 805.0,174.3 805.3,171.0 805.5,172.9 805.8,176.6 806.1,179.4 806.3,178.4 806.6,182.6 806.9,182.2 807.1,182.0 807.4,179.3 807.6,178.8 807.9,175.8 808.2,176.1 808.4,176.9 808.7,176.9 809.0,179.9 809.2,179.2 809.5,180.5 809.8,180.2 810.0,179.7 810.3,180.9 810.5,181.6 810.8,179.5 811.1,178.7 811.3,179.4 811.6,180.7 811.9,179.8 812.1,177.8 812.4,178.7 812.6,177.1 812.9,179.5 813.2,177.3 813.4,176.6 813.7,179.3 814.0,181.1 814.2,187.3 814.5,189.8 814.7,190.5 815.0,191.1 815.3,192.5 815.5,192.6 815.8,194.8 816.1,199.7 816.3,201.1 816.6,203.2 816.9,206.2 817.1,206.6 817.4,206.1 817.6,204.3 817.9,203.5 818.2,204.8 818.4,205.7 818.7,210.2 819.0,205.9 819.2,207.7 819.5,207.6 819.7,206.6 820.0,206.7 820.3,209.1 820.5,206.8 820.8,210.4 821.1,209.1 821.3,209.2 821.6,206.3 821.9,207.6 822.1,209.0 822.4,210.1 822.6,216.7 822.9,219.2 823.2,221.1 823.4,220.8 823.7,216.5 824.0,217.1 824.2,220.9 824.5,219.1 824.7,217.1 825.0,216.8 825.3,217.4 825.5,218.5 825.8,217.2 826.1,216.4 826.3,220.2 826.6,221.6 826.9,221.5 827.1,217.1 827.4,218.8 827.6,218.9 827.9,220.5 828.2,223.3 828.4,227.4 828.7,230.7 829.0,228.1 829.2,228.2 829.5,227.7 829.7,226.9 830.0,227.3 830.3,229.8 830.5,226.2 830.8,229.6 831.1,230.1 831.3,239.9 831.6,245.7 831.8,244.7 832.1,243.6 832.4,240.5 832.6,239.9 832.9,240.9 833.2,241.1 833.4,240.8 833.7,239.1 834.0,238.9 834.2,239.1 834.5,240.7 834.7,240.6 835.0,240.8 835.3,241.2 835.5,238.3 835.8,238.7 836.1,243.1 836.3,242.2 836.6,241.8 836.8,239.6 837.1,239.9 837.4,238.0 837.6,239.1 837.9,239.5 838.2,237.4 838.4,235.5 838.7,232.8 839.0,236.2 839.2,234.4 839.5,235.2 839.7,234.2 840.0,231.3 840.3,231.3 840.5,229.0 840.8,228.8 841.1,230.1 841.3,231.2 841.6,230.3 841.8,228.6 842.1,222.6 842.4,222.3 842.6,222.7 842.9,218.0 843.2,212.6 843.4,206.0 843.7,207.5 844.0,210.7 844.2,213.0 844.5,213.6 844.7,214.7 845.0,218.3 845.3,217.9 845.5,213.3 845.8,217.2 846.1,215.1 846.3,216.0 846.6,214.8 846.8,212.8 847.1,211.9 847.4,213.5 847.6,220.3 847.9,220.2 848.2,220.5 848.4,222.9 848.7,223.3 848.9,226.2 849.2,224.7 849.5,218.7 849.7,214.8 850.0,214.6 850.3,216.9 850.5,218.3 850.8,216.6 851.1,216.6 851.3,218.2 851.6,219.5 851.8,219.0 852.1,220.7 852.4,221.1 852.6,223.7 852.9,224.9 853.2,225.4 853.4,223.8 853.7,224.5 853.9,226.1 854.2,227.8 854.5,224.8 854.7,225.8 855.0,227.1"/>
</svg>
