<svg xmlns="http://www.w3.org/2000/svg" width="900" height="360">
<rect width="100%" height="100%" fill="white"/>
<text x="30" y="20" font-size="16">恒瑞医药 价格</text>
<polyline fill="none" stroke="#1f77b4" stroke-width="2" points="30.0,327.9 30.3,328.5 30.5,328.6 30.8,328.7 31.1,328.5 31.4,328.9 31.6,328.3 31.9,328.3 32.2,328.0 32.5,328.3 32.7,328.2 33.0,328.5 33.3,328.6 33.5,328.6 33.8,328.9 34.1,328.9 34.4,328.9 34.6,329.0 34.9,328.7 35.2,328.9 35.5,328.9 35.7,329.0 36.0,329.2 36.3,329.2 36.5,329.3 36.8,329.6 37.1,329.7 37.4,329.4 37.6,329.2 37.9,328.7 38.2,328.7 38.5,328.7 38.7,328.3 39.0,328.5 39.3,328.5 39.5,328.5 39.8,328.7 40.1,328.7 40.4,329.1 40.6,329.1 40.9,329.0 41.2,329.0 41.5,328.9 41.7,329.1 42.0,329.5 42.3,329.8 42.5,329.6 42.8,329.1 43.1,329.2 43.4,329.1 43.6,329.1 43.9,329.3 44.2,329.4 44.5,329.5 44.7,329.5 45.0,329.1 45.3,329.1 45.6,329.1 45.8,328.9 46.1,328.5 46.4,328.5 46.6,328.2 46.9,328.2 47.2,328.2 47.5,328.2 47.7,327.4 48.0,326.4 48.3,326.9 48.6,326.8 48.8,326.8 49.1,326.2 49.4,326.2 49.6,326.0 49.9,326.2 50.2,326.5 50.5,326.8 50.7,326.6 51.0,327.3 51.3,327.8 51.6,327.4 51.8,327.3 52.1,327.4 52.4,327.1 52.6,327.5 52.9,327.7 53.2,328.3 53.5,327.8 53.7,327.1 54.0,327.4 54.3,327.8 54.6,327.5 54.8,327.7 55.1,327.5 55.4,327.1 55.6,326.7 55.9,327.1 56.2,326.7 56.5,326.3 56.7,326.7 57.0,326.9 57.3,327.2 57.6,327.0 57.8,326.2 58.1,325.4 58.4,325.3 58.6,325.0 58.9,325.0 59.2,325.4 59.5,326.9 59.7,327.5 60.0,327.7 60.3,327.6 60.6,328.1 60.8,328.0 61.1,328.7 61.4,328.7 61.6,329.1 61.9,329.2 62.2,330.0 62.5,329.8 62.7,329.6 63.0,329.6 63.3,329.3 63.6,329.6 63.8,329.2 64.1,329.2 64.4,329.2 64.6,329.6 64.9,329.5 65.2,329.5 65.5,329.4 65.7,329.0 66.0,328.8 66.3,328.7 66.6,328.4 66.8,327.9 67.1,327.7 67.4,327.7 67.6,328.2 67.9,328.2 68.2,327.8 68.5,328.0 68.7,328.4 69.0,328.0 69.3,327.9 69.6,327.2 69.8,327.4 70.1,327.3 70.4,327.3 70.6,327.0 70.9,326.9 71.2,327.2 71.5,327.5 71.7,327.7 72.0,328.3 72.3,328.5 72.6,328.4 72.8,328.1 73.1,327.9 73.4,327.7 73.7,327.2 73.9,327.4 74.2,327.7 74.5,327.6 74.7,327.3 75.0,327.4 75.3,327.5 75.6,327.3 75.8,326.7 76.1,326.0 76.4,326.3 76.7,325.6 76.9,325.8 77.2,326.3 77.5,325.7 77.7,325.7 78.0,325.0 78.3,325.0 78.6,325.2 78.8,325.9 79.1,325.5 79.4,325.0 79.7,326.2 79.9,326.8 80.2,326.9 80.5,326.9 80.7,327.2 81.0,327.0 81.3,326.6 81.6,326.2 81.8,326.4 82.1,326.3 82.4,325.8 82.7,325.8 82.9,325.8 83.2,326.0 83.5,326.1 83.7,325.6 84.0,325.6 84.3,325.0 84.6,325.0 84.8,325.0 85.1,324.1 85.4,323.9 85.7,323.3 85.9,323.5 86.2,323.5 86.5,321.5 86.7,320.5 87.0,321.8 87.3,322.0 87.6,321.0 87.8,321.4 88.1,321.8 88.4,320.7 88.7,320.9 88.9,320.8 89.2,321.1 89.5,321.7 89.7,322.4 90.0,322.6 90.3,322.7 90.6,322.7 90.8,321.8 91.1,321.9 91.4,321.9 91.7,321.8 91.9,321.6 92.2,322.5 92.5,322.4 92.7,322.5 93.0,322.9 93.3,323.0 93.6,323.3 93.8,323.1 94.1,323.6 94.4,323.1 94.7,323.0 94.9,322.9 95.2,322.5 95.5,321.9 95.7,321.4 96.0,322.2 96.3,322.9 96.6,323.3 96.8,322.7 97.1,323.9 97.4,324.7 97.7,324.9 97.9,324.8 98.2,324.7 98.5,325.5 98.7,325.5 99.0,325.0 99.3,325.5 99.6,326.0 99.8,326.4 100.1,326.4 100.4,326.3 100.7,325.3 100.9,325.3 101.2,325.2 101.5,325.2 101.8,325.6 102.0,325.2 102.3,324.9 102.6,324.4 102.8,324.5 103.1,324.6 103.4,324.3 103.7,324.4 103.9,324.5 104.2,324.5 104.5,324.3 104.8,323.9 105.0,323.8 105.3,324.3 105.6,324.5 105.8,325.1 106.1,325.4 106.4,325.3 106.7,325.5 106.9,325.6 107.2,325.5 107.5,325.3 107.8,325.6 108.0,325.2 108.3,324.9 108.6,325.4 108.8,326.0 109.1,326.1 109.4,326.4 109.7,326.3 109.9,326.1 110.2,325.9 110.5,325.9 110.8,326.7 111.0,326.8 111.3,326.8 111.6,326.6 111.8,326.5 112.1,326.6 112.4,326.8 112.7,326.5 112.9,326.3 113.2,326.1 113.5,326.1 113.8,326.1 114.0,326.1 114.3,326.2 114.6,326.1 114.8,325.6 115.1,325.8 115.4,325.6 115.7,325.5 115.9,326.0 116.2,326.1 116.5,326.6 116.8,326.4 117.0,326.0 117.3,326.2 117.6,325.6 117.8,325.2 118.1,325.5 118.4,325.6 118.7,325.4 118.9,325.5 119.2,325.5 119.5,325.3 119.8,325.4 120.0,325.4 120.3,325.4 120.6,325.3 120.8,325.9 121.1,326.1 121.4,326.6 121.7,326.9 121.9,326.7 122.2,326.6 122.5,326.5 122.8,326.4 123.0,326.1 123.3,326.1 123.6,326.1 123.8,326.3 124.1,326.9 124.4,326.7 124.7,326.9 124.9,326.8 125.2,326.8 125.5,327.2 125.8,327.4 126.0,328.1 126.3,328.1 126.6,328.1 126.8,327.7 127.1,327.2 127.4,326.9 127.7,327.1 127.9,327.1 128.2,326.9 128.5,326.9 128.8,326.5 129.0,326.3 129.3,326.3 129.6,326.0 129.9,326.2 130.1,326.1 130.4,326.0 130.7,325.7 130.9,325.2 131.2,324.7 131.5,324.7 131.8,325.1 132.0,325.2 132.3,325.3 132.6,325.1 132.9,325.7 133.1,325.8 133.4,325.6 133.7,325.4 133.9,325.5 134.2,325.8 134.5,325.8 134.8,326.1 135.0,326.0 135.3,326.0 135.6,326.1 135.9,326.4 136.1,326.2 136.4,325.5 136.7,325.1 136.9,324.9 137.2,325.4 137.5,325.8 137.8,326.0 138.0,326.1 138.3,326.2 138.6,325.7 138.9,326.0 139.1,325.8 139.4,326.1 139.7,326.4 139.9,326.3 140.2,326.3 140.5,326.7 140.8,326.8 141.0,326.9 141.3,327.0 141.6,326.6 141.9,326.6 142.1,326.8 142.4,326.9 142.7,326.8 142.9,326.8 143.2,326.9 143.5,327.1 143.8,327.1 144.0,326.9 144.3,327.2 144.6,327.4 144.9,327.7 145.1,327.5 145.4,327.4 145.7,327.6 145.9,327.4 146.2,327.3 146.5,327.3 146.8,327.3 147.0,327.2 147.3,327.4 147.6,327.4 147.9,327.6 148.1,327.5 148.4,327.8 148.7,328.2 148.9,328.0 149.2,327.8 149.5,327.6 149.8,327.2 150.0,327.2 150.3,327.5 150.6,327.5 150.9,327.0 151.1,326.6 151.4,326.6 151.7,326.4 151.9,326.4 152.2,326.4 152.5,326.4 152.8,326.4 153.0,326.2 153.3,325.9 153.6,326.4 153.9,326.4 154.1,326.8 154.4,326.8 154.7,326.9 154.9,326.9 155.2,326.3 155.5,326.2 155.8,325.9 156.0,326.0 156.3,326.3 156.6,326.0 156.9,325.9 157.1,326.2 157.4,326.6 157.7,326.6 158.0,326.2 158.2,326.0 158.5,326.5 158.8,326.8 159.0,327.1 159.3,327.3 159.6,327.2 159.9,326.8 160.1,326.7 160.4,326.9 160.7,326.8 161.0,326.8 161.2,327.0 161.5,327.5 161.8,327.5 162.0,327.5 162.3,327.2 162.6,327.8 162.9,328.6 163.1,328.9 163.4,328.4 163.7,328.2 164.0,328.2 164.2,328.4 164.5,328.7 164.8,329.2 165.0,329.2 165.3,330.0 165.6,329.6 165.9,328.8 166.1,329.1 166.4,329.2 166.7,329.3 167.0,329.1 167.2,329.0 167.5,328.6 167.8,328.9 168.0,328.9 168.3,328.7 168.6,328.8 168.9,328.6 169.1,328.7 169.4,328.5 169.7,328.3 170.0,328.4 170.2,328.4 170.5,328.5 170.8,328.5 171.0,328.5 171.3,328.3 171.6,328.2 171.9,328.3 172.1,328.7 172.4,329.2 172.7,328.8 173.0,329.1 173.2,329.2 173.5,328.8 173.8,328.7 174.0,328.7 174.3,328.3 174.6,328.3 174.9,328.6 175.1,328.3 175.4,327.8 175.7,328.0 176.0,328.3 176.2,328.3 176.5,328.2 176.8,328.4 177.0,328.3 177.3,328.6 177.6,329.2 177.9,329.1 178.1,329.1 178.4,329.0 178.7,329.1 179.0,329.1 179.2,329.1 179.5,329.1 179.8,328.8 180.0,328.7 180.3,328.5 180.6,328.4 180.9,328.2 181.1,328.5 181.4,328.5 181.7,328.6 182.0,328.6 182.2,328.6 182.5,328.5 182.8,328.6 183.0,328.2 183.3,328.0 183.6,328.0 183.9,327.8 184.1,327.9 184.4,328.2 184.7,327.8 185.0,327.9 185.2,327.6 185.5,327.7 185.8,327.6 186.1,327.7 186.3,328.1 186.6,328.0 186.9,327.9 187.1,328.1 187.4,328.2 187.7,328.3 188.0,328.1 188.2,327.9 188.5,327.9 188.8,327.6 189.1,327.1 189.3,327.1 189.6,327.0 189.9,326.9 190.1,327.0 190.4,327.0 190.7,326.9 191.0,326.3 191.2,325.8 191.5,326.0 191.8,326.0 192.1,325.8 192.3,326.0 192.6,326.4 192.9,326.6 193.1,326.5 193.4,326.5 193.7,326.3 194.0,325.9 194.2,325.9 194.5,325.8 194.8,326.1 195.1,326.4 195.3,326.1 195.6,325.8 195.9,326.0 196.1,326.2 196.4,325.7 196.7,325.3 197.0,325.1 197.2,325.6 197.5,325.4 197.8,325.7 198.1,325.1 198.3,324.9 198.6,325.1 198.9,325.4 199.1,324.9 199.4,325.2 199.7,326.0 200.0,326.0 200.2,326.0 200.5,325.7 200.8,325.7 201.1,325.5 201.3,325.3 201.6,325.1 201.9,325.7 202.1,325.1 202.4,324.7 202.7,324.8 203.0,325.3 203.2,325.4 203.5,325.6 203.8,325.9 204.1,325.8 204.3,325.5 204.6,325.6 204.9,325.1 205.1,325.0 205.4,325.0 205.7,325.1 206.0,324.9 206.2,324.9 206.5,325.1 206.8,324.8 207.1,324.9 207.3,324.9 207.6,324.8 207.9,324.2 208.1,324.2 208.4,324.0 208.7,324.2 209.0,324.4 209.2,324.3 209.5,324.7 209.8,325.1 210.1,324.9 210.3,325.2 210.6,325.3 210.9,325.2 211.1,325.3 211.4,325.0 211.7,325.0 212.0,324.9 212.2,325.0 212.5,324.5 212.8,324.4 213.1,324.6 213.3,324.8 213.6,324.5 213.9,324.3 214.2,324.3 214.4,324.6 214.7,324.8 215.0,324.9 215.2,325.2 215.5,325.2 215.8,325.1 216.1,325.2 216.3,325.4 216.6,325.4 216.9,325.1 217.2,324.9 217.4,325.1 217.7,324.9 218.0,325.0 218.2,325.3 218.5,325.5 218.8,325.5 219.1,325.9 219.3,326.1 219.6,325.9 219.9,325.7 220.2,325.8 220.4,326.0 220.7,326.0 221.0,326.0 221.2,326.0 221.5,325.9 221.8,325.7 222.1,325.9 222.3,326.4 222.6,326.5 222.9,326.5 223.2,326.7 223.4,326.9 223.7,326.6 224.0,326.5 224.2,326.1 224.5,326.5 224.8,326.5 225.1,326.3 225.3,326.2 225.6,325.8 225.9,326.4 226.2,326.4 226.4,326.4 226.7,326.5 227.0,326.5 227.2,326.1 227.5,325.5 227.8,325.4 228.1,325.4 228.3,325.1 228.6,325.1 228.9,326.1 229.2,325.7 229.4,325.4 229.7,325.4 230.0,325.5 230.2,325.5 230.5,325.0 230.8,325.1 231.1,324.6 231.3,324.3 231.6,324.1 231.9,324.4 232.2,324.7 232.4,324.3 232.7,324.3 233.0,323.4 233.2,323.1 233.5,323.1 233.8,323.4 234.1,323.4 234.3,324.0 234.6,324.4 234.9,324.1 235.2,323.5 235.4,323.5 235.7,323.4 236.0,323.7 236.2,323.2 236.5,322.5 236.8,322.9 237.1,322.9 237.3,322.8 237.6,323.1 237.9,323.4 238.2,323.2 238.4,322.7 238.7,322.6 239.0,322.3 239.2,322.6 239.5,323.0 239.8,323.0 240.1,323.0 240.3,323.6 240.6,323.7 240.9,323.3 241.2,323.2 241.4,323.7 241.7,323.9 242.0,323.5 242.3,323.2 242.5,322.9 242.8,323.2 243.1,323.3 243.3,323.0 243.6,322.8 243.9,322.8 244.2,323.6 244.4,324.2 244.7,324.6 245.0,323.9 245.3,324.4 245.5,324.6 245.8,324.8 246.1,324.8 246.3,325.1 246.6,325.0 246.9,324.8 247.2,325.2 247.4,324.8 247.7,324.3 248.0,324.5 248.3,324.5 248.5,325.1 248.8,324.8 249.1,324.8 249.3,324.5 249.6,324.1 249.9,323.9 250.2,323.7 250.4,323.9 250.7,323.9 251.0,324.1 251.3,324.2 251.5,323.8 251.8,324.1 252.1,323.6 252.3,324.5 252.6,324.8 252.9,325.4 253.2,325.2 253.4,325.2 253.7,324.8 254.0,324.7 254.3,324.7 254.5,324.7 254.8,324.3 255.1,324.2 255.3,324.7 255.6,324.4 255.9,324.7 256.2,324.6 256.4,324.7 256.7,324.1 257.0,323.8 257.3,324.0 257.5,324.3 257.8,324.6 258.1,325.1 258.3,325.9 258.6,326.1 258.9,325.8 259.2,325.5 259.4,325.7 259.7,325.2 260.0,324.2 260.3,323.9 260.5,324.4 260.8,324.3 261.1,324.6 261.3,324.8 261.6,324.4 261.9,323.8 262.2,323.5 262.4,321.4 262.7,320.6 263.0,320.5 263.3,321.0 263.5,321.4 263.8,319.9 264.1,320.4 264.3,320.0 264.6,320.0 264.9,319.9 265.2,319.7 265.4,320.3 265.7,320.8 266.0,320.4 266.3,320.5 266.5,319.8 266.8,319.3 267.1,319.4 267.3,318.6 267.6,318.9 267.9,319.7 268.2,320.0 268.4,319.8 268.7,321.2 269.0,322.0 269.3,321.1 269.5,321.4 269.8,321.5 270.1,321.0 270.4,320.4 270.6,320.5 270.9,320.9 271.2,321.7 271.4,321.6 271.7,321.8 272.0,321.9 272.3,321.2 272.5,321.3 272.8,321.0 273.1,321.0 273.4,321.3 273.6,321.9 273.9,321.6 274.2,321.5 274.4,321.4 274.7,321.0 275.0,321.4 275.3,321.4 275.5,320.2 275.8,320.1 276.1,320.5 276.4,319.1 276.6,319.1 276.9,318.7 277.2,319.3 277.4,319.4 277.7,320.3 278.0,319.8 278.3,320.7 278.5,321.2 278.8,321.2 279.1,320.8 279.4,321.3 279.6,321.2 279.9,320.9 280.2,320.7 280.4,321.4 280.7,321.8 281.0,321.7 281.3,321.9 281.5,322.0 281.8,322.0 282.1,321.6 282.4,322.5 282.6,322.5 282.9,323.2 283.2,323.0 283.4,323.0 283.7,322.4 284.0,322.4 284.3,322.6 284.5,321.9 284.8,321.8 285.1,321.5 285.4,321.6 285.6,321.6 285.9,320.8 286.2,320.8 286.4,319.9 286.7,320.3 287.0,320.2 287.3,320.5 287.5,320.5 287.8,321.1 288.1,320.3 288.4,320.1 288.6,320.0 288.9,320.5 289.2,320.0 289.4,320.0 289.7,320.1 290.0,319.3 290.3,319.0 290.5,319.6 290.8,318.6 291.1,318.4 291.4,319.2 291.6,318.4 291.9,317.3 292.2,318.2 292.4,318.6 292.7,318.0 293.0,318.0 293.3,317.4 293.5,317.6 293.8,316.8 294.1,317.0 294.4,317.9 294.6,317.1 294.9,317.0 295.2,317.0 295.4,317.8 295.7,318.2 296.0,318.4 296.3,316.9 296.5,317.5 296.8,318.2 297.1,318.7 297.4,318.6 297.6,318.0 297.9,318.9 298.2,318.6 298.5,318.9 298.7,318.8 299.0,318.2 299.3,318.0 299.5,318.2 299.8,317.6 300.1,317.5 300.4,317.6 300.6,318.2 300.9,317.5 301.2,317.5 301.5,318.5 301.7,318.5 302.0,318.6 302.3,318.2 302.5,317.2 302.8,317.9 303.1,318.1 303.4,320.0 303.6,318.9 303.9,319.0 304.2,320.0 304.5,320.4 304.7,320.6 305.0,320.2 305.3,320.2 305.5,319.1 305.8,319.2 306.1,319.1 306.4,319.6 306.6,319.5 306.9,320.0 307.2,320.2 307.5,320.8 307.7,320.1 308.0,320.2 308.3,320.3 308.5,320.0 308.8,320.4 309.1,321.0 309.4,320.7 309.6,320.9 309.9,321.3 310.2,321.0 310.5,320.9 310.7,319.9 311.0,320.2 311.3,320.4 311.5,319.9 311.8,319.9 312.1,319.8 312.4,319.8 312.6,320.2 312.9,320.2 313.2,320.7 313.5,320.8 313.7,320.7 314.0,320.9 314.3,321.3 314.5,321.6 314.8,321.5 315.1,320.8 315.4,320.8 315.6,320.7 315.9,320.8 316.2,320.9 316.5,320.3 316.7,320.5 317.0,320.5 317.3,320.2 317.5,320.3 317.8,320.3 318.1,320.5 318.4,320.4 318.6,320.3 318.9,320.1 319.2,319.5 319.5,319.8 319.7,319.7 320.0,319.7 320.3,319.2 320.5,319.2 320.8,318.8 321.1,319.2 321.4,318.6 321.6,318.8 321.9,318.3 322.2,318.2 322.5,317.9 322.7,318.2 323.0,318.4 323.3,318.7 323.5,318.9 323.8,318.4 324.1,318.7 324.4,318.8 324.6,318.3 324.9,318.3 325.2,318.8 325.5,318.9 325.7,319.0 326.0,318.6 326.3,318.4 326.6,318.7 326.8,318.4 327.1,318.8 327.4,318.9 327.6,318.8 327.9,319.7 328.2,319.8 328.5,319.5 328.7,319.2 329.0,319.0 329.3,319.8 329.6,319.7 329.8,319.7 330.1,319.3 330.4,319.1 330.6,319.4 330.9,319.3 331.2,319.3 331.5,319.2 331.7,319.1 332.0,318.5 332.3,318.7 332.6,318.2 332.8,318.2 333.1,318.6 333.4,318.5 333.6,318.7 333.9,318.6 334.2,318.3 334.5,318.0 334.7,318.1 335.0,318.3 335.3,317.8 335.6,317.4 335.8,317.4 336.1,317.7 336.4,317.6 336.6,317.6 336.9,317.7 337.2,317.6 337.5,318.0 337.7,318.0 338.0,318.1 338.3,317.9 338.6,317.9 338.8,317.6 339.1,317.7 339.4,317.6 339.6,318.0 339.9,318.0 340.2,318.3 340.5,318.0 340.7,318.0 341.0,318.0 341.3,316.7 341.6,315.9 341.8,315.6 342.1,315.8 342.4,315.0 342.6,314.8 342.9,315.2 343.2,315.1 343.5,315.2 343.7,315.6 344.0,314.1 344.3,314.2 344.6,314.3 344.8,313.7 345.1,314.2 345.4,314.1 345.6,314.9 345.9,314.7 346.2,315.1 346.5,314.4 346.7,314.7 347.0,315.0 347.3,314.8 347.6,314.1 347.8,313.8 348.1,313.7 348.4,313.7 348.6,314.1 348.9,314.3 349.2,314.6 349.5,314.4 349.7,314.0 350.0,314.8 350.3,314.9 350.6,314.6 350.8,313.8 351.1,314.6 351.4,314.7 351.6,315.0 351.9,314.8 352.2,314.6 352.5,315.4 352.7,315.4 353.0,316.2 353.3,316.0 353.6,316.2 353.8,316.4 354.1,316.7 354.4,315.7 354.7,315.8 354.9,315.5 355.2,315.0 355.5,315.3 355.7,315.9 356.0,316.5 356.3,315.6 356.6,315.6 356.8,315.1 357.1,314.0 357.4,314.3 357.7,315.3 357.9,315.0 358.2,315.3 358.5,315.9 358.7,316.2 359.0,316.0 359.3,315.9 359.6,315.8 359.8,315.8 360.1,315.4 360.4,315.3 360.7,314.3 360.9,313.6 361.2,313.9 361.5,313.7 361.7,313.9 362.0,313.2 362.3,313.1 362.6,314.0 362.8,314.1 363.1,314.2 363.4,314.1 363.7,313.8 363.9,312.7 364.2,311.8 364.5,311.9 364.7,311.4 365.0,311.7 365.3,312.4 365.6,312.7 365.8,312.8 366.1,311.8 366.4,312.2 366.7,312.7 366.9,313.2 367.2,313.2 367.5,312.7 367.7,312.7 368.0,312.4 368.3,312.3 368.6,312.9 368.8,312.4 369.1,312.3 369.4,312.8 369.7,312.7 369.9,313.0 370.2,313.3 370.5,313.2 370.7,311.9 371.0,311.2 371.3,311.5 371.6,311.4 371.8,311.0 372.1,310.5 372.4,311.0 372.7,311.1 372.9,311.0 373.2,311.5 373.5,311.0 373.7,311.6 374.0,310.2 374.3,310.1 374.6,310.5 374.8,309.3 375.1,309.3 375.4,309.9 375.7,309.4 375.9,308.6 376.2,306.8 376.5,306.8 376.7,306.6 377.0,306.3 377.3,306.2 377.6,306.1 377.8,304.7 378.1,302.9 378.4,303.3 378.7,302.1 378.9,301.7 379.2,302.2 379.5,302.7 379.7,300.6 380.0,299.3 380.3,299.8 380.6,300.3 380.8,300.1 381.1,301.4 381.4,300.5 381.7,300.2 381.9,301.1 382.2,300.3 382.5,299.8 382.8,300.7 383.0,300.5 383.3,299.4 383.6,298.6 383.8,299.3 384.1,299.7 384.4,301.0 384.7,301.1 384.9,300.5 385.2,299.8 385.5,298.2 385.8,298.0 386.0,297.7 386.3,294.9 386.6,292.4 386.8,297.3 387.1,295.8 387.4,293.8 387.7,294.8 387.9,296.7 388.2,298.5 388.5,297.2 388.8,298.4 389.0,298.4 389.3,297.0 389.6,296.0 389.8,296.0 390.1,298.1 390.4,300.3 390.7,299.5 390.9,301.2 391.2,302.1 391.5,298.7 391.8,298.9 392.0,301.5 392.3,304.0 392.6,302.9 392.8,299.5 393.1,299.3 393.4,299.9 393.7,302.4 393.9,300.5 394.2,302.4 394.5,306.6 394.8,302.8 395.0,298.7 395.3,296.1 395.6,298.1 395.8,301.9 396.1,299.8 396.4,297.7 396.7,298.2 396.9,298.7 397.2,298.1 397.5,297.9 397.8,299.4 398.0,303.5 398.3,300.7 398.6,299.0 398.8,301.2 399.1,299.1 399.4,296.6 399.7,296.1 399.9,297.1 400.2,297.4 400.5,297.2 400.8,294.1 401.0,295.6 401.3,297.1 401.6,297.0 401.8,297.2 402.1,296.6 402.4,297.6 402.7,296.4 402.9,298.2 403.2,300.3 403.5,304.4 403.8,304.0 404.0,301.2 404.3,300.4 404.6,299.6 404.8,299.6 405.1,301.5 405.4,302.1 405.7,299.8 405.9,296.0 406.2,297.9 406.5,297.2 406.8,298.4 407.0,297.6 407.3,299.7 407.6,297.0 407.8,298.6 408.1,298.6 408.4,297.9 408.7,298.2 408.9,298.7 409.2,297.2 409.5,297.9 409.8,296.8 410.0,297.3 410.3,297.8 410.6,296.0 410.9,295.8 411.1,295.9 411.4,297.0 411.7,297.1 411.9,296.7 412.2,297.0 412.5,295.3 412.8,295.3 413.0,296.4 413.3,295.2 413.6,295.0 413.9,292.1 414.1,292.6 414.4,292.1 414.7,290.5 414.9,291.5 415.2,292.5 415.5,293.0 415.8,291.2 416.0,291.8 416.3,292.5 416.6,292.7 416.9,295.1 417.1,292.7 417.4,292.8 417.7,293.6 417.9,292.5 418.2,292.3 418.5,292.9 418.8,292.7 419.0,293.1 419.3,293.6 419.6,293.3 419.9,293.8 420.1,293.5 420.4,294.6 420.7,294.5 420.9,293.6 421.2,293.1 421.5,293.0 421.8,292.8 422.0,292.5 422.3,293.8 422.6,294.0 422.9,294.0 423.1,294.4 423.4,295.0 423.7,294.2 423.9,294.4 424.2,294.1 424.5,294.3 424.8,293.0 425.0,293.4 425.3,293.5 425.6,294.2 425.9,294.6 426.1,295.1 426.4,294.6 426.7,295.1 426.9,294.9 427.2,296.8 427.5,296.5 427.8,295.5 428.0,297.8 428.3,296.4 428.6,298.5 428.9,299.0 429.1,300.1 429.4,299.7 429.7,301.0 429.9,300.6 430.2,299.7 430.5,299.7 430.8,301.1 431.0,300.7 431.3,300.0 431.6,301.1 431.9,300.7 432.1,301.4 432.4,300.0 432.7,299.3 432.9,299.1 433.2,298.0 433.5,298.2 433.8,298.8 434.0,298.7 434.3,298.0 434.6,298.5 434.9,299.1 435.1,298.5 435.4,297.8 435.7,297.3 435.9,297.1 436.2,298.4 436.5,298.0 436.8,299.0 437.0,299.3 437.3,298.1 437.6,297.3 437.9,296.5 438.1,296.3 438.4,296.4 438.7,295.8 439.0,297.4 439.2,297.4 439.5,297.2 439.8,296.1 440.0,295.9 440.3,295.6 440.6,296.4 440.9,296.2 441.1,296.8 441.4,296.8 441.7,296.7 442.0,296.6 442.2,297.1 442.5,297.3 442.8,296.7 443.0,296.8 443.3,296.5 443.6,296.1 443.9,296.4 444.1,296.3 444.4,296.7 444.7,297.0 445.0,297.0 445.2,296.9 445.5,296.8 445.8,296.4 446.0,295.9 446.3,296.2 446.6,296.2 446.9,297.3 447.1,297.2 447.4,297.5 447.7,296.7 448.0,296.7 448.2,297.3 448.5,297.3 448.8,296.2 449.0,296.2 449.3,296.5 449.6,297.1 449.9,297.6 450.1,297.7 450.4,296.8 450.7,297.1 451.0,297.2 451.2,297.0 451.5,296.7 451.8,296.9 452.0,297.4 452.3,297.5 452.6,298.1 452.9,298.1 453.1,298.8 453.4,298.9 453.7,299.2 454.0,299.0 454.2,298.1 454.5,298.3 454.8,298.5 455.0,297.3 455.3,297.4 455.6,297.5 455.9,297.3 456.1,297.9 456.4,298.1 456.7,297.8 457.0,297.2 457.2,296.7 457.5,296.9 457.8,296.9 458.0,296.2 458.3,296.1 458.6,296.7 458.9,295.5 459.1,295.2 459.4,295.5 459.7,295.8 460.0,295.5 460.2,294.9 460.5,295.2 460.8,294.9 461.0,294.7 461.3,295.2 461.6,293.4 461.9,292.0 462.1,292.2 462.4,292.4 462.7,292.1 463.0,291.7 463.2,292.7 463.5,292.5 463.8,292.7 464.1,293.4 464.3,292.5 464.6,292.4 464.9,292.1 465.1,291.3 465.4,291.5 465.7,292.1 466.0,291.3 466.2,291.3 466.5,291.7 466.8,291.3 467.1,291.5 467.3,290.0 467.6,290.2 467.9,290.4 468.1,290.2 468.4,289.5 468.7,289.5 469.0,290.0 469.2,290.5 469.5,290.5 469.8,290.3 470.1,290.9 470.3,291.0 470.6,290.9 470.9,290.9 471.1,290.6 471.4,292.0 471.7,291.9 472.0,291.6 472.2,290.5 472.5,290.9 472.8,290.9 473.1,291.5 473.3,291.7 473.6,292.1 473.9,291.2 474.1,291.6 474.4,292.7 474.7,292.1 475.0,291.7 475.2,291.6 475.5,291.4 475.8,290.5 476.1,291.3 476.3,291.5 476.6,291.4 476.9,291.2 477.1,291.0 477.4,289.6 477.7,288.9 478.0,289.1 478.2,288.5 478.5,288.8 478.8,287.7 479.1,287.7 479.3,287.4 479.6,288.0 479.9,288.0 480.1,288.3 480.4,288.7 480.7,288.1 481.0,288.0 481.2,288.4 481.5,288.5 481.8,287.6 482.1,287.8 482.3,288.0 482.6,289.0 482.9,289.4 483.1,288.4 483.4,288.4 483.7,288.8 484.0,289.1 484.2,289.7 484.5,289.5 484.8,288.9 485.1,288.8 485.3,289.2 485.6,288.8 485.9,288.3 486.1,288.6 486.4,287.9 486.7,287.9 487.0,288.2 487.2,288.2 487.5,287.6 487.8,287.6 488.1,287.4 488.3,287.4 488.6,286.4 488.9,286.5 489.1,287.2 489.4,287.6 489.7,287.1 490.0,287.7 490.2,287.8 490.5,288.1 490.8,288.0 491.1,287.8 491.3,288.8 491.6,288.6 491.9,289.5 492.2,289.5 492.4,289.0 492.7,288.8 493.0,289.3 493.2,289.3 493.5,289.3 493.8,288.7 494.1,288.0 494.3,288.0 494.6,288.7 494.9,289.2 495.2,288.6 495.4,289.6 495.7,289.6 496.0,289.1 496.2,288.1 496.5,288.3 496.8,288.1 497.1,287.5 497.3,287.5 497.6,286.7 497.9,287.7 498.2,286.5 498.4,286.5 498.7,285.2 499.0,285.9 499.2,286.3 499.5,286.0 499.8,286.1 500.1,286.5 500.3,286.4 500.6,285.9 500.9,286.4 501.2,284.6 501.4,285.0 501.7,284.2 502.0,284.0 502.2,283.9 502.5,283.5 502.8,282.2 503.1,282.9 503.3,283.4 503.6,284.1 503.9,284.3 504.2,284.1 504.4,283.6 504.7,282.5 505.0,282.2 505.2,282.5 505.5,282.3 505.8,282.9 506.1,282.8 506.3,281.2 506.6,281.7 506.9,281.5 507.2,281.0 507.4,279.7 507.7,279.5 508.0,279.5 508.2,279.7 508.5,279.3 508.8,279.2 509.1,279.8 509.3,280.0 509.6,278.6 509.9,278.5 510.2,278.2 510.4,278.0 510.7,279.2 511.0,280.4 511.2,279.8 511.5,278.9 511.8,279.0 512.1,278.8 512.3,277.9 512.6,277.9 512.9,276.9 513.2,276.3 513.4,275.9 513.7,276.2 514.0,277.1 514.2,278.2 514.5,279.5 514.8,280.1 515.1,279.4 515.3,278.6 515.6,278.3 515.9,278.2 516.2,278.6 516.4,277.4 516.7,276.7 517.0,276.7 517.2,276.0 517.5,274.4 517.8,274.9 518.1,273.2 518.3,273.3 518.6,272.6 518.9,271.6 519.2,271.7 519.4,273.5 519.7,273.2 520.0,271.9 520.3,270.5 520.5,271.5 520.8,273.4 521.1,272.4 521.3,271.2 521.6,269.8 521.9,270.0 522.2,269.9 522.4,270.5 522.7,270.5 523.0,270.9 523.3,269.7 523.5,271.3 523.8,272.7 524.1,271.7 524.3,272.4 524.6,271.5 524.9,270.1 525.2,270.1 525.4,271.5 525.7,270.7 526.0,270.8 526.3,271.5 526.5,272.8 526.8,272.0 527.1,272.7 527.3,273.4 527.6,272.6 527.9,272.3 528.2,273.0 528.4,272.9 528.7,273.5 529.0,273.0 529.3,271.5 529.5,270.9 529.8,271.1 530.1,271.8 530.3,271.6 530.6,271.5 530.9,271.3 531.2,271.0 531.4,270.4 531.7,269.9 532.0,269.8 532.3,271.3 532.5,271.5 532.8,271.5 533.1,270.6 533.3,270.6 533.6,267.4 533.9,267.9 534.2,267.1 534.4,264.5 534.7,265.1 535.0,265.7 535.3,266.4 535.5,266.3 535.8,264.7 536.1,265.5 536.3,265.0 536.6,264.7 536.9,264.8 537.2,265.8 537.4,265.8 537.7,265.7 538.0,265.6 538.3,263.4 538.5,259.5 538.8,259.7 539.1,260.7 539.3,259.5 539.6,258.0 539.9,259.4 540.2,259.6 540.4,259.4 540.7,260.4 541.0,259.7 541.3,259.2 541.5,258.9 541.8,258.8 542.1,259.7 542.3,259.8 542.6,259.9 542.9,259.9 543.2,259.4 543.4,257.0 543.7,257.3 544.0,254.3 544.3,255.8 544.5,253.7 544.8,252.9 545.1,252.9 545.3,252.8 545.6,251.6 545.9,251.9 546.2,249.3 546.4,249.9 546.7,249.7 547.0,250.1 547.3,247.3 547.5,248.1 547.8,248.6 548.1,249.9 548.4,246.7 548.6,244.8 548.9,244.0 549.2,239.8 549.4,234.4 549.7,239.3 550.0,242.0 550.3,241.2 550.5,240.5 550.8,243.5 551.1,246.9 551.4,245.4 551.6,242.9 551.9,246.0 552.2,244.2 552.4,243.8 552.7,244.4 553.0,250.0 553.3,249.6 553.5,251.0 553.8,248.1 554.1,249.5 554.4,249.6 554.6,248.3 554.9,246.4 555.2,247.9 555.4,249.4 555.7,250.7 556.0,249.3 556.3,243.5 556.5,244.4 556.8,243.4 557.1,243.2 557.4,246.2 557.6,245.4 557.9,244.6 558.2,243.6 558.4,241.5 558.7,240.9 559.0,241.2 559.3,241.6 559.5,245.3 559.8,243.5 560.1,244.1 560.4,244.6 560.6,244.4 560.9,241.8 561.2,242.2 561.4,240.8 561.7,235.9 562.0,235.6 562.3,236.5 562.5,236.0 562.8,236.2 563.1,235.3 563.4,237.5 563.6,238.6 563.9,236.3 564.2,233.4 564.4,233.0 564.7,231.0 565.0,233.9 565.3,232.3 565.5,238.0 565.8,236.7 566.1,234.4 566.4,236.5 566.6,236.5 566.9,237.8 567.2,244.1 567.4,246.0 567.7,244.0 568.0,246.2 568.3,241.3 568.5,240.9 568.8,239.9 569.1,239.1 569.4,237.9 569.6,235.8 569.9,237.3 570.2,239.1 570.4,236.6 570.7,237.2 571.0,236.2 571.3,233.7 571.5,234.8 571.8,230.7 572.1,229.1 572.4,228.2 572.6,229.9 572.9,228.3 573.2,224.3 573.4,225.3 573.7,219.0 574.0,217.3 574.3,218.7 574.5,219.6 574.8,221.5 575.1,217.5 575.4,218.4 575.6,223.5 575.9,224.1 576.2,218.0 576.5,221.1 576.7,221.1 577.0,222.2 577.3,224.4 577.5,221.9 577.8,220.8 578.1,219.9 578.4,226.6 578.6,223.4 578.9,226.9 579.2,225.2 579.5,223.8 579.7,222.3 580.0,222.0 580.3,221.3 580.5,217.4 580.8,222.7 581.1,223.1 581.4,225.4 581.6,224.0 581.9,224.6 582.2,221.6 582.5,220.1 582.7,219.7 583.0,211.4 583.3,214.4 583.5,212.0 583.8,210.2 584.1,211.3 584.4,213.8 584.6,210.4 584.9,211.1 585.2,206.2 585.5,206.9 585.7,207.8 586.0,203.0 586.3,197.4 586.5,205.8 586.8,203.5 587.1,200.5 587.4,204.5 587.6,201.2 587.9,192.9 588.2,188.6 588.5,189.4 588.7,191.0 589.0,196.9 589.3,195.7 589.5,198.8 589.8,200.2 590.1,200.8 590.4,202.6 590.6,195.2 590.9,196.6 591.2,195.1 591.5,193.9 591.7,193.7 592.0,199.9 592.3,206.7 592.5,201.2 592.8,201.9 593.1,207.3 593.4,211.9 593.6,215.8 593.9,212.1 594.2,207.7 594.5,206.7 594.7,207.6 595.0,205.1 595.3,202.6 595.5,203.2 595.8,206.9 596.1,204.3 596.4,206.0 596.6,205.0 596.9,211.7 597.2,210.1 597.5,208.5 597.7,211.1 598.0,211.3 598.3,213.8 598.5,214.2 598.8,215.2 599.1,213.2 599.4,218.7 599.6,227.4 599.9,224.4 600.2,225.9 600.5,217.6 600.7,212.0 601.0,211.4 601.3,210.0 601.5,216.7 601.8,217.3 602.1,221.7 602.4,225.4 602.6,217.7 602.9,218.5 603.2,216.7 603.5,215.9 603.7,211.4 604.0,211.1 604.3,212.5 604.6,215.8 604.8,219.3 605.1,220.2 605.4,220.1 605.6,221.9 605.9,224.1 606.2,220.3 606.5,223.4 606.7,222.0 607.0,228.3 607.3,233.0 607.6,234.4 607.8,239.6 608.1,235.7 608.4,232.5 608.6,232.4 608.9,229.4 609.2,228.1 609.5,225.8 609.7,225.7 610.0,224.3 610.3,234.0 610.6,233.2 610.8,234.4 611.1,239.3 611.4,236.0 611.6,235.5 611.9,234.7 612.2,234.4 612.5,239.5 612.7,237.3 613.0,228.6 613.3,230.3 613.6,233.6 613.8,237.0 614.1,235.1 614.4,237.5 614.6,234.0 614.9,227.9 615.2,226.2 615.5,216.6 615.7,219.6 616.0,220.7 616.3,221.7 616.6,220.9 616.8,222.5 617.1,221.4 617.4,220.7 617.6,223.1 617.9,222.9 618.2,226.6 618.5,224.7 618.7,225.9 619.0,223.3 619.3,224.7 619.6,226.0 619.8,226.1 620.1,226.2 620.4,222.5 620.6,223.3 620.9,220.6 621.2,217.8 621.5,217.8 621.7,217.9 622.0,225.9 622.3,234.0 622.6,232.8 622.8,230.7 623.1,233.1 623.4,231.1 623.6,233.0 623.9,236.2 624.2,236.9 624.5,240.1 624.7,244.2 625.0,249.6 625.3,243.8 625.6,243.3 625.8,246.0 626.1,247.0 626.4,244.6 626.6,244.2 626.9,247.8 627.2,241.6 627.5,243.0 627.7,242.3 628.0,239.3 628.3,238.0 628.6,238.6 628.8,241.6 629.1,237.6 629.4,235.7 629.6,235.9 629.9,232.5 630.2,232.7 630.5,235.3 630.7,234.7 631.0,232.1 631.3,232.8 631.6,240.7 631.8,236.2 632.1,235.8 632.4,232.7 632.7,229.4 632.9,227.4 633.2,224.3 633.5,220.4 633.7,220.0 634.0,222.8 634.3,218.0 634.6,219.7 634.8,221.6 635.1,220.7 635.4,219.0 635.7,214.9 635.9,215.8 636.2,214.3 636.5,208.5 636.7,208.3 637.0,207.8 637.3,208.1 637.6,209.7 637.8,211.3 638.1,212.7 638.4,211.5 638.7,212.4 638.9,212.3 639.2,211.9 639.5,209.2 639.7,204.3 640.0,208.1 640.3,206.9 640.6,207.5 640.8,206.1 641.1,209.8 641.4,209.1 641.7,203.8 641.9,197.3 642.2,195.6 642.5,194.8 642.7,195.9 643.0,195.2 643.3,193.9 643.6,198.8 643.8,196.9 644.1,194.9 644.4,198.8 644.7,197.4 644.9,200.3 645.2,196.8 645.5,197.6 645.7,198.5 646.0,197.8 646.3,203.0 646.6,201.4 646.8,201.4 647.1,199.0 647.4,202.6 647.7,195.8 647.9,194.8 648.2,198.3 648.5,193.9 648.7,198.3 649.0,202.2 649.3,198.5 649.6,198.4 649.8,201.0 650.1,195.6 650.4,198.2 650.7,201.6 650.9,207.3 651.2,206.0 651.5,205.5 651.7,208.8 652.0,207.7 652.3,205.1 652.6,202.1 652.8,203.5 653.1,203.5 653.4,203.0 653.7,200.6 653.9,203.3 654.2,210.1 654.5,212.5 654.7,211.0 655.0,207.6 655.3,207.1 655.6,204.9 655.8,205.0 656.1,204.2 656.4,202.0 656.7,197.9 656.9,195.4 657.2,194.5 657.5,194.1 657.7,194.2 658.0,193.1 658.3,192.2 658.6,194.2 658.8,189.2 659.1,184.7 659.4,188.9 659.7,194.0 659.9,191.1 660.2,193.1 660.5,193.2 660.8,191.0 661.0,192.7 661.3,193.2 661.6,191.1 661.8,194.1 662.1,193.7 662.4,194.2 662.7,194.2 662.9,193.0 663.2,194.1 663.5,192.9 663.8,192.6 664.0,192.4 664.3,192.8 664.6,192.1 664.8,192.1 665.1,192.6 665.4,194.2 665.7,198.6 665.9,197.1 666.2,195.4 666.5,192.7 666.8,192.2 667.0,191.4 667.3,191.8 667.6,188.1 667.8,187.4 668.1,187.2 668.4,180.8 668.7,180.7 668.9,181.3 669.2,181.2 669.5,170.2 669.8,172.6 670.0,172.0 670.3,169.0 670.6,169.4 670.8,162.3 671.1,163.3 671.4,165.9 671.7,166.4 671.9,165.9 672.2,162.2 672.5,164.2 672.8,161.2 673.0,166.8 673.3,165.6 673.6,163.0 673.8,164.7 674.1,162.9 674.4,162.1 674.7,159.1 674.9,160.0 675.2,156.8 675.5,156.0 675.8,159.5 676.0,160.1 676.3,160.9 676.6,161.7 676.8,165.4 677.1,155.6 677.4,154.8 677.7,154.4 677.9,150.5 678.2,148.9 678.5,149.3 678.8,152.8 679.0,156.5 679.3,154.1 679.6,156.1 679.8,156.3 680.1,145.3 680.4,137.3 680.7,138.0 680.9,139.3 681.2,137.8 681.5,134.1 681.8,134.8 682.0,136.8 682.3,137.1 682.6,138.4 682.8,136.8 683.1,142.3 683.4,140.5 683.7,136.6 683.9,129.9 684.2,133.6 684.5,133.2 684.8,127.0 685.0,128.4 685.3,133.9 685.6,142.1 685.8,144.0 686.1,142.3 686.4,140.6 686.7,140.5 686.9,149.1 687.2,154.0 687.5,152.1 687.8,149.6 688.0,149.0 688.3,146.3 688.6,154.2 688.9,152.2 689.1,151.1 689.4,150.9 689.7,146.9 689.9,150.5 690.2,148.7 690.5,151.7 690.8,151.4 691.0,151.3 691.3,150.6 691.6,152.2 691.9,154.8 692.1,152.5 692.4,152.5 692.7,150.0 692.9,145.4 693.2,145.0 693.5,149.0 693.8,153.2 694.0,151.4 694.3,151.8 694.6,146.8 694.9,145.4 695.1,144.7 695.4,147.7 695.7,146.7 695.9,147.8 696.2,138.3 696.5,139.5 696.8,138.9 697.0,139.0 697.3,144.3 697.6,150.1 697.9,147.1 698.1,142.2 698.4,139.6 698.7,140.6 698.9,143.2 699.2,139.4 699.5,133.0 699.8,136.5 700.0,136.2 700.3,134.4 700.6,138.4 700.9,140.5 701.1,137.9 701.4,139.3 701.7,143.4 701.9,143.6 702.2,147.3 702.5,146.1 702.8,153.2 703.0,150.7 703.3,143.5 703.6,144.8 703.9,135.9 704.1,134.6 704.4,142.3 704.7,138.4 704.9,142.0 705.2,148.0 705.5,151.8 705.8,157.8 706.0,160.0 706.3,161.1 706.6,164.7 706.9,162.1 707.1,157.2 707.4,149.6 707.7,142.1 707.9,139.1 708.2,137.7 708.5,138.2 708.8,135.1 709.0,139.8 709.3,135.6 709.6,131.3 709.9,127.3 710.1,128.9 710.4,124.3 710.7,125.7 710.9,124.6 711.2,120.5 711.5,122.9 711.8,122.9 712.0,124.8 712.3,124.5 712.6,127.7 712.9,122.7 713.1,126.0 713.4,127.8 713.7,125.3 713.9,126.0 714.2,132.1 714.5,132.9 714.8,125.2 715.0,124.8 715.3,123.7 715.6,131.4 715.9,127.4 716.1,126.8 716.4,123.4 716.7,128.8 717.0,123.4 717.2,121.7 717.5,121.8 717.8,117.6 718.0,126.4 718.3,123.0 718.6,121.5 718.9,126.0 719.1,129.7 719.4,129.2 719.7,125.0 720.0,124.5 720.2,125.1 720.5,122.3 720.8,119.3 721.0,124.8 721.3,117.5 721.6,113.2 721.9,113.4 722.1,109.7 722.4,114.0 722.7,106.1 723.0,99.3 723.2,100.2 723.5,90.2 723.8,89.5 724.0,86.0 724.3,90.2 724.6,92.2 724.9,92.0 725.1,95.4 725.4,95.0 725.7,93.2 726.0,89.8 726.2,78.4 726.5,79.0 726.8,75.1 727.0,72.8 727.3,71.5 727.6,75.3 727.9,62.8 728.1,81.0 728.4,81.0 728.7,80.6 729.0,72.9 729.2,72.7 729.5,72.7 729.8,85.2 730.0,83.6 730.3,85.7 730.6,82.3 730.9,84.7 731.1,86.3 731.4,89.6 731.7,87.4 732.0,90.7 732.2,95.6 732.5,95.0 732.8,96.1 733.0,93.4 733.3,98.3 733.6,101.4 733.9,99.7 734.1,95.8 734.4,89.0 734.7,90.8 735.0,93.7 735.2,93.4 735.5,91.7 735.8,87.4 736.0,85.8 736.3,87.1 736.6,83.6 736.9,85.0 737.1,87.4 737.4,85.5 737.7,84.6 738.0,88.7 738.2,93.9 738.5,91.9 738.8,97.5 739.0,96.3 739.3,93.4 739.6,94.6 739.9,95.3 740.1,99.0 740.4,108.4 740.7,101.1 741.0,102.4 741.2,100.2 741.5,98.7 741.8,104.1 742.0,102.5 742.3,102.2 742.6,98.6 742.9,98.8 743.1,93.0 743.4,86.8 743.7,88.2 744.0,90.1 744.2,89.7 744.5,89.8 744.8,94.2 745.1,95.5 745.3,99.5 745.6,99.5 745.9,103.4 746.1,100.5 746.4,100.4 746.7,94.6 747.0,95.5 747.2,101.5 747.5,100.4 747.8,97.9 748.1,97.8 748.3,95.0 748.6,101.3 748.9,100.0 749.1,103.9 749.4,108.8 749.7,107.7 750.0,110.6 750.2,110.2 750.5,110.5 750.8,107.6 751.1,105.7 751.3,106.7 751.6,108.9 751.9,106.0 752.1,108.9 752.4,109.2 752.7,106.6 753.0,109.3 753.2,104.8 753.5,105.0 753.8,98.3 754.1,94.7 754.3,98.6 754.6,98.1 754.9,103.1 755.1,101.0 755.4,99.7 755.7,98.0 756.0,79.1 756.2,79.2 756.5,56.8 756.8,55.5 757.1,49.5 757.3,54.1 757.6,54.6 757.9,47.0 758.1,30.0 758.4,41.0 758.7,48.4 759.0,36.3 759.2,39.7 759.5,40.4 759.8,34.9 760.1,33.5 760.3,30.0 760.6,34.9 760.9,40.1 761.1,32.5 761.4,36.7 761.7,43.2 762.0,44.1 762.2,49.6 762.5,57.5 762.8,54.7 763.1,48.7 763.3,36.6 763.6,39.7 763.9,51.9 764.1,52.9 764.4,58.3 764.7,60.7 765.0,64.0 765.2,54.6 765.5,57.3 765.8,63.3 766.1,51.1 766.3,53.8 766.6,44.4 766.9,45.9 767.1,57.6 767.4,56.9 767.7,71.0 768.0,69.1 768.2,71.8 768.5,68.1 768.8,66.1 769.1,70.1 769.3,75.5 769.6,67.3 769.9,69.6 770.1,70.2 770.4,92.5 770.7,93.4 771.0,89.0 771.2,88.8 771.5,92.3 771.8,99.4 772.1,100.5 772.3,102.1 772.6,100.5 772.9,103.6 773.2,103.5 773.4,104.7 773.7,107.8 774.0,105.9 774.2,95.0 774.5,96.9 774.8,88.5 775.1,92.6 775.3,87.8 775.6,91.0 775.9,95.8 776.2,96.4 776.4,91.6 776.7,95.0 777.0,99.6 777.2,101.1 777.5,110.5 777.8,119.7 778.1,123.9 778.3,119.9 778.6,124.8 778.9,116.9 779.2,119.6 779.4,117.4 779.7,121.5 780.0,117.3 780.2,117.8 780.5,119.2 780.8,114.4 781.1,119.8 781.3,125.6 781.6,124.7 781.9,115.5 782.2,116.9 782.4,120.9 782.7,115.2 783.0,110.9 783.2,110.0 783.5,111.8 783.8,115.5 784.1,119.7 784.3,116.4 784.6,108.5 784.9,108.4 785.2,108.4 785.4,109.6 785.7,108.4 786.0,105.2 786.2,113.7 786.5,118.6 786.8,118.4 787.1,119.0 787.3,117.5 787.6,114.3 787.9,104.3 788.2,104.4 788.4,108.0 788.7,111.5 789.0,110.4 789.2,109.4 789.5,115.8 789.8,112.6 790.1,110.4 790.3,120.7 790.6,120.5 790.9,118.7 791.2,120.1 791.4,120.8 791.7,115.2 792.0,124.3 792.2,137.3 792.5,140.2 792.8,139.0 793.1,142.5 793.3,140.1 793.6,136.7 793.9,140.6 794.2,146.6 794.4,146.1 794.7,146.7 795.0,143.8 795.2,136.6 795.5,137.2 795.8,142.8 796.1,142.1 796.3,149.6 796.6,165.1 796.9,160.4 797.2,163.1 797.4,165.5 797.7,162.6 798.0,155.5 798.2,159.1 798.5,160.8 798.8,164.1 799.1,157.1 799.3,154.4 799.6,157.2 799.9,160.8 800.2,158.4 800.4,158.6 800.7,164.2 801.0,163.5 801.3,167.2 801.5,184.9 801.8,189.1 802.1,189.0 802.3,188.4 802.6,195.3 802.9,192.8 803.2,194.3 803.4,195.6 803.7,191.1 804.0,193.4 804.3,192.7 804.5,186.1 804.8,186.2 805.1,187.2 805.3,188.3 805.6,188.2 805.9,190.5 806.2,190.4 806.4,193.9 806.7,192.5 807.0,189.9 807.3,186.7 807.5,187.1 807.8,180.5 808.1,177.4 808.3,178.6 808.6,180.1 808.9,179.1 809.2,166.1 809.4,168.0 809.7,167.4 810.0,170.2 810.3,176.4 810.5,179.7 810.8,182.8 811.1,181.1 811.3,174.7 811.6,178.2 811.9,175.6 812.2,175.9 812.4,181.8 812.7,182.9 813.0,183.9 813.3,182.3 813.5,180.5 813.8,184.8 814.1,182.7 814.3,175.9 814.6,173.9 814.9,181.1 815.2,180.5 815.4,167.6 815.7,170.0 816.0,171.5 816.3,168.8 816.5,165.6 816.8,167.0 817.1,174.0 817.3,173.3 817.6,173.2 817.9,173.0 818.2,173.7 818.4,170.0 818.7,172.1 819.0,176.3 819.3,179.3 819.5,178.2 819.8,182.9 820.1,182.5 820.3,182.2 820.6,179.3 820.9,178.7 821.2,175.3 821.4,175.7 821.7,176.6 822.0,176.6 822.3,179.8 822.5,179.1 822.8,180.6 823.1,180.2 823.3,179.7 823.6,181.0 823.9,181.8 824.2,179.5 824.4,178.5 824.7,179.3 825.0,180.8 825.3,179.8 825.5,177.5 825.8,178.6 826.1,176.8 826.3,179.5 826.6,177.0 826.9,176.2 827.2,179.3 827.4,181.2 827.7,188.1 828.0,190.9 828.3,191.6 828.5,192.3 828.8,193.9 829.1,194.0 829.4,196.5 829.6,201.9 829.9,203.4 830.2,205.8 830.4,209.1 830.7,209.6 831.0,209.0 831.3,207.0 831.5,206.1 831.8,207.5 832.1,208.6 832.4,213.5 832.6,208.8 832.9,210.8 833.2,210.7 833.4,209.5 833.7,209.6 834.0,212.3 834.3,209.7 834.5,213.7 834.8,212.3 835.1,212.4 835.4,209.2 835.6,210.7 835.9,212.2 836.2,213.4 836.4,220.7 836.7,223.6 837.0,225.7 837.3,225.3 837.5,220.5 837.8,221.2 838.1,225.4 838.4,223.4 838.6,221.2 838.9,220.9 839.2,221.6 839.4,222.8 839.7,221.4 840.0,220.5 840.3,224.6 840.5,226.2 840.8,226.1 841.1,221.2 841.4,223.1 841.6,223.3 841.9,225.0 842.2,228.1 842.4,232.6 842.7,236.4 843.0,233.5 843.3,233.6 843.5,233.0 843.8,232.1 844.1,232.5 844.4,235.3 844.6,231.4 844.9,235.1 845.2,235.7 845.4,246.5 845.7,253.0 846.0,251.9 846.3,250.6 846.5,247.3 846.8,246.6 847.1,247.7 847.4,247.8 847.6,247.6 847.9,245.7 848.2,245.5 848.4,245.6 848.7,247.4 849.0,247.3 849.3,247.6 849.5,248.0 849.8,244.8 850.1,245.2 850.4,250.1 850.6,249.1 850.9,248.7 851.2,246.3 851.4,246.5 851.7,244.5 852.0,245.6 852.3,246.1 852.5,243.8 852.8,241.6 853.1,238.7 853.4,242.4 853.6,240.4 853.9,241.3 854.2,240.2 854.4,237.0 854.7,237.0 855.0,234.5 855.3,234.2 855.5,235.7 855.8,236.9 856.1,235.9 856.4,234.0 856.6,227.3 856.9,227.0 857.2,227.4 857.5,222.3 857.7,216.2 858.0,208.9 858.3,210.5 858.5,214.1 858.8,216.6 859.1,217.3 859.4,218.6 859.6,222.5 859.9,222.1 860.2,217.0 860.5,221.3 860.7,219.0 861.0,220.0 861.3,218.7 861.5,216.5 861.8,215.5 862.1,217.2 862.4,224.8 862.6,224.6 862.9,225.0 863.2,227.7 863.5,228.1 863.7,231.3 864.0,229.7 864.3,223.0 864.5,218.7 864.8,218.5 865.1,221.0 865.4,222.6 865.6,220.7 865.9,220.6 866.2,222.4 866.5,223.9 866.7,223.3 867.0,225.2 867.3,225.7 867.5,228.5 867.8,229.9 868.1,230.4 868.4,228.7 868.6,229.4 868.9,231.2 869.2,233.1 869.5,229.8 869.7,230.9 870.0,232.3"/>
</svg>
