<svg xmlns="http://www.w3.org/2000/svg" width="900" height="360">
<rect width="100%" height="100%" fill="white"/>
<text x="30" y="20" font-size="16">沪深300指数 收益率直方图</text>
<rect x="30.0" y="329.5" width="27.0" height="0.5" fill="#9ecae1"/><rect x="58.0" y="329.5" width="27.0" height="0.5" fill="#9ecae1"/><rect x="86.0" y="328.7" width="27.0" height="1.3" fill="#9ecae1"/><rect x="114.0" y="328.5" width="27.0" height="1.5" fill="#9ecae1"/><rect x="142.0" y="327.9" width="27.0" height="2.1" fill="#9ecae1"/><rect x="170.0" y="327.9" width="27.0" height="2.1" fill="#9ecae1"/><rect x="198.0" y="327.2" width="27.0" height="2.8" fill="#9ecae1"/><rect x="226.0" y="324.3" width="27.0" height="5.7" fill="#9ecae1"/><rect x="254.0" y="322.8" width="27.0" height="7.2" fill="#9ecae1"/><rect x="282.0" y="319.4" width="27.0" height="10.6" fill="#9ecae1"/><rect x="310.0" y="312.7" width="27.0" height="17.3" fill="#9ecae1"/><rect x="338.0" y="301.2" width="27.0" height="28.8" fill="#9ecae1"/><rect x="366.0" y="267.9" width="27.0" height="62.1" fill="#9ecae1"/><rect x="394.0" y="213.3" width="27.0" height="116.7" fill="#9ecae1"/><rect x="422.0" y="135.1" width="27.0" height="194.9" fill="#9ecae1"/><rect x="450.0" y="30.0" width="27.0" height="300.0" fill="#9ecae1"/><rect x="478.0" y="94.6" width="27.0" height="235.4" fill="#9ecae1"/><rect x="506.0" y="200.5" width="27.0" height="129.5" fill="#9ecae1"/><rect x="534.0" y="256.9" width="27.0" height="73.1" fill="#9ecae1"/><rect x="562.0" y="284.9" width="27.0" height="45.1" fill="#9ecae1"/><rect x="590.0" y="302.4" width="27.0" height="27.6" fill="#9ecae1"/><rect x="618.0" y="319.2" width="27.0" height="10.8" fill="#9ecae1"/><rect x="646.0" y="322.8" width="27.0" height="7.2" fill="#9ecae1"/><rect x="674.0" y="326.4" width="27.0" height="3.6" fill="#9ecae1"/><rect x="702.0" y="328.5" width="27.0" height="1.5" fill="#9ecae1"/><rect x="730.0" y="328.5" width="27.0" height="1.5" fill="#9ecae1"/><rect x="758.0" y="329.7" width="27.0" height="0.3" fill="#9ecae1"/><rect x="786.0" y="329.5" width="27.0" height="0.5" fill="#9ecae1"/><rect x="814.0" y="329.5" width="27.0" height="0.5" fill="#9ecae1"/><rect x="842.0" y="329.2" width="27.0" height="0.8" fill="#9ecae1"/>
<polyline fill="none" stroke="#d62728" stroke-width="2" points="30.0,330.0 37.1,330.0 44.1,330.0 51.2,330.0 58.2,330.0 65.3,330.0 72.4,330.0 79.4,330.0 86.5,330.0 93.5,330.0 100.6,330.0 107.6,330.0 114.7,330.0 121.8,330.0 128.8,330.0 135.9,330.0 142.9,330.0 150.0,330.0 157.1,330.0 164.1,329.9 171.2,329.9 178.2,329.9 185.3,329.8 192.4,329.7 199.4,329.6 206.5,329.5 213.5,329.3 220.6,329.0 227.6,328.6 234.7,328.1 241.8,327.4 248.8,326.5 255.9,325.3 262.9,323.9 270.0,322.0 277.1,319.7 284.1,316.8 291.2,313.3 298.2,309.1 305.3,304.0 312.4,298.0 319.4,290.9 326.5,282.7 333.5,273.4 340.6,262.8 347.6,250.9 354.7,237.9 361.8,223.7 368.8,208.4 375.9,192.2 382.9,175.3 390.0,158.0 397.1,140.4 404.1,123.1 411.2,106.2 418.2,90.1 425.3,75.3 432.4,62.1 439.4,50.9 446.5,41.8 453.5,35.2 460.6,31.2 467.6,30.0 474.7,31.6 481.8,35.9 488.8,42.8 495.9,52.1 502.9,63.7 510.0,77.1 517.1,92.1 524.1,108.2 531.2,125.2 538.2,142.6 545.3,160.1 552.4,177.5 559.4,194.3 566.5,210.3 573.5,225.5 580.6,239.6 587.6,252.5 594.7,264.2 601.8,274.6 608.8,283.8 615.9,291.8 622.9,298.8 630.0,304.7 637.1,309.7 644.1,313.8 651.2,317.2 658.2,320.0 665.3,322.3 672.4,324.1 679.4,325.5 686.5,326.6 693.5,327.5 700.6,328.1 707.6,328.6 714.7,329.0 721.8,329.3 728.8,329.5 735.9,329.6 742.9,329.8 750.0,329.8 757.1,329.9 764.1,329.9 771.2,329.9 778.2,330.0 785.3,330.0 792.4,330.0 799.4,330.0 806.5,330.0 813.5,330.0 820.6,330.0 827.6,330.0 834.7,330.0 841.8,330.0 848.8,330.0 855.9,330.0 862.9,330.0 870.0,330.0"/>
</svg>
