<svg xmlns="http://www.w3.org/2000/svg" width="900" height="360">
<rect width="100%" height="100%" fill="white"/>
<text x="45" y="20" font-size="16">沪深300期货 价格</text>
<line class="axis-x" x1="45" y1="315" x2="855" y2="315" stroke="black" stroke-width="1"/>
<line class="axis-y" x1="45" y1="45" x2="45" y2="315" stroke="black" stroke-width="1"/>
<text x="450.0" y="355" font-size="12" text-anchor="middle">样本点</text>
<text x="14" y="180.0" font-size="12" text-anchor="middle" transform="rotate(-90 14 180.0)">价格</text>
<line x1="45.0" y1="315" x2="45.0" y2="320" stroke="black" stroke-width="1"/>
<text x="45.0" y="333" font-size="10" text-anchor="middle">1</text>
<line x1="449.9" y1="315" x2="449.9" y2="320" stroke="black" stroke-width="1"/>
<text x="449.9" y="333" font-size="10" text-anchor="middle">1506</text>
<line x1="855.0" y1="315" x2="855.0" y2="320" stroke="black" stroke-width="1"/>
<text x="855.0" y="333" font-size="10" text-anchor="middle">3012</text>
<line x1="40" y1="315.0" x2="45" y2="315.0" stroke="black" stroke-width="1"/>
<text x="37" y="318.0" font-size="10" text-anchor="end">2055.40</text>
<line x1="40" y1="180.0" x2="45" y2="180.0" stroke="black" stroke-width="1"/>
<text x="37" y="183.0" font-size="10" text-anchor="end">3928.20</text>
<line x1="40" y1="45.0" x2="45" y2="45.0" stroke="black" stroke-width="1"/>
<text x="37" y="48.0" font-size="10" text-anchor="end">5801.00</text>
<polyline fill="none" stroke="#1f77b4" stroke-width="2" points="45.0,217.0 45.3,232.7 45.5,231.4 45.8,227.6 46.1,229.9 46.3,231.0 46.6,231.1 46.9,236.9 47.2,237.6 47.4,240.9 47.7,239.2 48.0,241.4 48.2,241.4 48.5,249.3 48.8,254.3 49.0,252.8 49.3,261.2 49.6,258.7 49.8,254.5 50.1,256.8 50.4,267.2 50.6,260.6 50.9,262.4 51.2,264.0 51.5,261.3 51.7,254.0 52.0,260.4 52.3,258.5 52.5,254.0 52.8,256.6 53.1,261.9 53.3,264.1 53.6,263.0 53.9,265.1 54.1,264.1 54.4,268.1 54.7,266.8 55.0,262.1 55.2,263.5 55.5,263.8 55.8,265.3 56.0,267.2 56.3,261.0 56.6,261.5 56.8,263.8 57.1,263.4 57.4,264.7 57.6,265.5 57.9,275.7 58.2,277.3 58.5,279.7 58.7,279.6 59.0,280.7 59.3,278.3 59.5,278.0 59.8,278.0 60.1,272.1 60.3,271.4 60.6,273.9 60.9,272.4 61.1,275.0 61.4,274.3 61.7,268.7 61.9,265.2 62.2,265.3 62.5,262.5 62.8,262.5 63.0,261.6 63.3,262.9 63.6,255.0 63.8,255.8 64.1,256.2 64.4,252.2 64.6,257.2 64.9,256.0 65.2,258.0 65.4,252.7 65.7,253.2 66.0,258.7 66.3,258.5 66.5,259.4 66.8,257.4 67.1,252.1 67.3,250.7 67.6,249.6 67.9,248.2 68.1,252.5 68.4,253.7 68.7,253.1 68.9,257.3 69.2,256.6 69.5,256.1 69.7,251.9 70.0,253.4 70.3,254.8 70.6,252.0 70.8,251.7 71.1,247.5 71.4,247.2 71.6,247.3 71.9,250.7 72.2,251.2 72.4,249.3 72.7,249.3 73.0,252.7 73.2,255.7 73.5,255.6 73.8,256.1 74.1,256.2 74.3,253.8 74.6,254.7 74.9,254.5 75.1,250.3 75.4,243.0 75.7,237.0 75.9,235.8 76.2,232.0 76.5,228.9 76.7,218.7 77.0,223.2 77.3,216.4 77.6,213.9 77.8,214.6 78.1,213.4 78.4,203.2 78.6,206.7 78.9,211.7 79.2,209.9 79.4,216.6 79.7,206.9 80.0,210.8 80.2,212.9 80.5,209.1 80.8,205.2 81.0,205.1 81.3,207.6 81.6,209.0 81.9,205.6 82.1,222.2 82.4,221.5 82.7,231.7 82.9,235.7 83.2,233.2 83.5,229.3 83.7,233.3 84.0,238.2 84.3,232.7 84.5,230.5 84.8,231.6 85.1,231.6 85.4,235.9 85.6,236.4 85.9,234.8 86.2,234.3 86.4,234.6 86.7,230.9 87.0,235.4 87.2,236.8 87.5,234.5 87.8,227.0 88.0,226.9 88.3,226.5 88.6,227.9 88.8,226.7 89.1,231.8 89.4,225.0 89.7,229.3 89.9,231.2 90.2,232.8 90.5,238.4 90.7,241.6 91.0,240.3 91.3,240.1 91.5,235.6 91.8,233.1 92.1,233.4 92.3,234.4 92.6,234.6 92.9,238.1 93.2,236.8 93.4,235.8 93.7,236.3 94.0,239.9 94.2,248.9 94.5,248.8 94.8,243.7 95.0,250.0 95.3,247.6 95.6,249.1 95.8,249.8 96.1,247.8 96.4,244.7 96.7,243.6 96.9,241.2 97.2,240.8 97.5,244.1 97.7,239.4 98.0,238.5 98.3,230.4 98.5,229.5 98.8,227.3 99.1,228.0 99.3,230.2 99.6,226.4 99.9,234.0 100.1,234.3 100.4,233.0 100.7,231.4 101.0,228.5 101.2,228.6 101.5,229.2 101.8,230.8 102.0,226.1 102.3,222.2 102.6,220.7 102.8,222.0 103.1,226.0 103.4,228.9 103.6,228.3 103.9,232.5 104.2,229.4 104.5,230.7 104.7,230.2 105.0,230.3 105.3,230.2 105.5,227.5 105.8,227.7 106.1,225.4 106.3,225.5 106.6,227.2 106.9,227.9 107.1,229.3 107.4,227.0 107.7,224.7 107.9,223.6 108.2,220.5 108.5,222.1 108.8,223.4 109.0,219.9 109.3,220.7 109.6,220.0 109.8,221.3 110.1,224.5 110.4,224.1 110.6,223.8 110.9,224.7 111.2,228.1 111.4,228.7 111.7,230.3 112.0,232.8 112.3,233.0 112.5,231.7 112.8,237.6 113.1,238.2 113.3,237.3 113.6,237.0 113.9,236.1 114.1,236.8 114.4,240.4 114.7,237.8 114.9,239.4 115.2,238.6 115.5,236.2 115.8,237.6 116.0,237.8 116.3,245.3 116.6,245.2 116.8,245.8 117.1,247.4 117.4,248.3 117.6,248.9 117.9,247.2 118.2,246.7 118.4,249.6 118.7,247.9 119.0,247.3 119.2,246.4 119.5,249.9 119.8,250.7 120.1,250.1 120.3,248.1 120.6,249.7 120.9,252.1 121.1,255.0 121.4,255.3 121.7,254.0 121.9,254.3 122.2,249.7 122.5,244.0 122.7,244.1 123.0,244.0 123.3,245.6 123.6,244.4 123.8,243.3 124.1,238.1 124.4,238.3 124.6,238.7 124.9,238.7 125.2,238.2 125.4,239.4 125.7,243.0 126.0,239.1 126.2,238.7 126.5,236.9 126.8,238.1 127.0,238.5 127.3,240.0 127.6,241.5 127.9,241.5 128.1,248.6 128.4,248.1 128.7,247.3 128.9,247.6 129.2,249.0 129.5,247.8 129.7,249.5 130.0,249.8 130.3,249.6 130.5,254.4 130.8,261.6 131.1,259.9 131.4,260.8 131.6,255.6 131.9,257.0 132.2,254.4 132.4,255.6 132.7,254.8 133.0,258.0 133.2,260.9 133.5,262.3 133.8,259.0 134.0,261.3 134.3,253.2 134.6,254.5 134.9,257.3 135.1,259.0 135.4,258.0 135.7,259.3 135.9,260.7 136.2,265.0 136.5,265.9 136.7,263.1 137.0,264.0 137.3,264.9 137.5,266.9 137.8,266.3 138.1,266.3 138.3,266.0 138.6,270.8 138.9,268.2 139.2,263.8 139.4,269.7 139.7,270.8 140.0,275.4 140.2,272.3 140.5,274.4 140.8,275.3 141.0,277.8 141.3,278.0 141.6,279.1 141.8,273.2 142.1,271.8 142.4,271.7 142.7,271.2 142.9,276.2 143.2,276.8 143.5,281.2 143.7,281.4 144.0,277.4 144.3,274.2 144.5,271.2 144.8,270.3 145.1,268.3 145.3,269.0 145.6,269.5 145.9,263.0 146.1,265.1 146.4,263.3 146.7,264.5 147.0,265.6 147.2,265.1 147.5,268.5 147.8,268.9 148.0,264.8 148.3,265.6 148.6,269.8 148.8,270.2 149.1,274.5 149.4,274.8 149.6,274.9 149.9,276.7 150.2,275.9 150.5,277.7 150.7,276.8 151.0,275.6 151.3,280.9 151.5,277.0 151.8,278.3 152.1,280.4 152.3,281.6 152.6,280.3 152.9,280.7 153.1,282.2 153.4,283.7 153.7,287.4 154.0,288.8 154.2,294.2 154.5,290.8 154.8,289.9 155.0,291.6 155.3,293.1 155.6,293.2 155.8,293.0 156.1,294.2 156.4,295.8 156.6,295.8 156.9,295.8 157.2,293.3 157.4,297.0 157.7,298.0 158.0,297.5 158.3,291.8 158.5,285.6 158.8,286.9 159.1,286.9 159.3,289.4 159.6,293.6 159.9,283.9 160.1,287.2 160.4,283.8 160.7,281.8 160.9,285.2 161.2,284.7 161.5,287.3 161.8,283.9 162.0,282.3 162.3,282.6 162.6,285.5 162.8,280.3 163.1,280.6 163.4,280.6 163.6,280.7 163.9,281.5 164.2,278.7 164.4,279.8 164.7,279.4 165.0,279.2 165.2,278.0 165.5,276.0 165.8,275.3 166.1,271.5 166.3,270.8 166.6,270.8 166.9,272.1 167.1,272.9 167.4,269.6 167.7,270.8 167.9,273.4 168.2,274.8 168.5,273.0 168.7,271.1 169.0,272.3 169.3,270.2 169.6,274.7 169.8,275.7 170.1,273.8 170.4,273.6 170.6,276.0 170.9,275.6 171.2,276.0 171.4,277.8 171.7,278.0 172.0,278.3 172.2,283.5 172.5,285.5 172.8,286.3 173.1,282.1 173.3,281.5 173.6,282.9 173.9,281.7 174.1,281.4 174.4,277.7 174.7,276.7 174.9,277.6 175.2,279.4 175.5,275.2 175.7,275.0 176.0,273.1 176.3,274.3 176.5,275.4 176.8,273.7 177.1,272.9 177.4,273.0 177.6,269.5 177.9,268.9 178.2,267.3 178.4,267.5 178.7,268.4 179.0,271.2 179.2,271.2 179.5,273.5 179.8,275.5 180.0,275.4 180.3,278.0 180.6,275.2 180.9,278.0 181.1,277.0 181.4,275.2 181.7,276.6 181.9,277.0 182.2,278.2 182.5,275.8 182.7,272.5 183.0,273.4 183.3,273.2 183.5,273.6 183.8,279.7 184.1,279.2 184.3,279.4 184.6,280.5 184.9,282.0 185.2,279.2 185.4,280.0 185.7,278.6 186.0,279.5 186.2,278.6 186.5,277.7 186.8,278.8 187.0,279.4 187.3,282.2 187.6,285.3 187.8,285.8 188.1,286.2 188.4,287.3 188.7,285.2 188.9,285.5 189.2,285.2 189.5,285.1 189.7,286.9 190.0,284.4 190.3,287.9 190.5,288.5 190.8,288.1 191.1,286.8 191.3,286.1 191.6,288.9 191.9,288.5 192.2,288.8 192.4,287.7 192.7,288.8 193.0,291.7 193.2,291.4 193.5,292.0 193.8,292.7 194.0,292.2 194.3,292.8 194.6,292.8 194.8,292.4 195.1,293.7 195.4,292.5 195.6,291.3 195.9,290.7 196.2,290.8 196.5,288.8 196.7,289.3 197.0,292.5 197.3,293.2 197.5,294.5 197.8,294.1 198.1,294.9 198.3,296.2 198.6,295.7 198.9,296.7 199.1,295.7 199.4,297.7 199.7,301.0 200.0,301.1 200.2,302.3 200.5,303.0 200.8,303.4 201.0,302.1 201.3,303.8 201.6,303.9 201.8,301.6 202.1,294.4 202.4,294.6 202.6,295.7 202.9,295.2 203.2,297.3 203.4,295.3 203.7,299.6 204.0,301.2 204.3,300.1 204.5,303.8 204.8,303.4 205.1,303.0 205.3,303.2 205.6,304.6 205.9,300.5 206.1,296.2 206.4,299.1 206.7,295.7 206.9,295.8 207.2,295.9 207.5,296.8 207.8,297.2 208.0,297.5 208.3,296.7 208.6,293.7 208.8,294.0 209.1,293.7 209.4,295.6 209.6,295.8 209.9,296.8 210.2,300.8 210.4,301.4 210.7,301.3 211.0,300.6 211.3,296.9 211.5,296.8 211.8,296.9 212.1,298.0 212.3,297.9 212.6,301.3 212.9,301.4 213.1,301.0 213.4,303.5 213.7,303.3 213.9,304.6 214.2,305.7 214.5,306.3 214.7,305.9 215.0,305.1 215.3,305.5 215.6,305.0 215.8,306.0 216.1,307.6 216.4,308.8 216.6,309.9 216.9,309.0 217.2,310.5 217.4,309.5 217.7,303.4 218.0,304.3 218.2,300.6 218.5,299.6 218.8,300.2 219.1,299.6 219.3,300.8 219.6,292.0 219.9,292.1 220.1,291.6 220.4,291.3 220.7,289.6 220.9,290.7 221.2,290.8 221.5,286.3 221.7,285.7 222.0,285.4 222.3,283.0 222.5,280.2 222.8,280.6 223.1,280.6 223.4,280.7 223.6,281.1 223.9,280.2 224.2,283.1 224.4,276.7 224.7,276.0 225.0,277.9 225.2,277.4 225.5,275.0 225.8,275.2 226.0,275.6 226.3,274.6 226.6,276.4 226.9,276.3 227.1,271.8 227.4,270.6 227.7,268.6 227.9,268.5 228.2,265.2 228.5,265.0 228.7,262.2 229.0,261.2 229.3,261.3 229.5,262.5 229.8,264.8 230.1,267.9 230.4,267.8 230.6,274.6 230.9,276.2 231.2,275.4 231.4,278.3 231.7,276.6 232.0,270.1 232.2,270.9 232.5,279.5 232.8,274.6 233.0,272.3 233.3,274.6 233.6,274.9 233.8,276.3 234.1,279.1 234.4,280.9 234.7,280.9 234.9,280.5 235.2,282.2 235.5,280.8 235.7,275.0 236.0,274.5 236.3,273.9 236.5,274.1 236.8,277.7 237.1,277.6 237.3,282.5 237.6,284.1 237.9,284.2 238.2,282.5 238.4,284.5 238.7,285.6 239.0,284.3 239.2,284.3 239.5,284.9 239.8,285.7 240.0,287.2 240.3,286.6 240.6,286.3 240.8,286.1 241.1,280.4 241.4,280.7 241.6,286.7 241.9,283.5 242.2,285.8 242.5,287.3 242.7,287.3 243.0,283.9 243.3,282.3 243.5,281.1 243.8,279.9 244.1,281.5 244.3,280.4 244.6,282.4 244.9,285.0 245.1,285.0 245.4,281.1 245.7,277.7 246.0,276.2 246.2,275.8 246.5,275.6 246.8,277.8 247.0,276.6 247.3,277.6 247.6,273.3 247.8,273.8 248.1,273.9 248.4,275.7 248.6,276.0 248.9,278.4 249.2,279.1 249.5,280.4 249.7,284.7 250.0,291.3 250.3,290.5 250.5,290.4 250.8,289.8 251.1,291.8 251.3,296.2 251.6,297.6 251.9,309.4 252.1,310.9 252.4,310.2 252.7,310.4 252.9,306.8 253.2,307.2 253.5,307.4 253.8,308.5 254.0,306.7 254.3,306.5 254.6,309.7 254.8,309.8 255.1,304.3 255.4,295.9 255.6,299.0 255.9,298.0 256.2,297.0 256.4,298.6 256.7,302.4 257.0,307.8 257.3,306.9 257.5,301.5 257.8,302.2 258.1,303.9 258.3,305.2 258.6,307.2 258.9,306.9 259.1,307.1 259.4,301.4 259.7,301.7 259.9,299.8 260.2,298.9 260.5,300.4 260.7,299.9 261.0,298.2 261.3,293.9 261.6,293.4 261.8,293.5 262.1,295.2 262.4,298.4 262.6,295.2 262.9,296.7 263.2,296.4 263.4,296.7 263.7,298.9 264.0,294.5 264.2,294.6 264.5,295.7 264.8,296.3 265.1,297.2 265.3,295.3 265.6,293.8 265.9,294.3 266.1,294.4 266.4,293.4 266.7,287.7 266.9,284.9 267.2,284.3 267.5,282.7 267.7,283.2 268.0,284.4 268.3,287.2 268.6,287.5 268.8,285.2 269.1,286.7 269.4,287.7 269.6,290.8 269.9,290.3 270.2,289.5 270.4,287.3 270.7,286.1 271.0,288.1 271.2,285.4 271.5,285.2 271.8,285.7 272.0,288.3 272.3,289.4 272.6,289.1 272.9,285.4 273.1,286.8 273.4,288.8 273.7,289.8 273.9,293.0 274.2,292.8 274.5,292.5 274.7,290.8 275.0,291.5 275.3,290.8 275.5,291.3 275.8,291.5 276.1,293.7 276.4,293.8 276.6,296.6 276.9,296.0 277.2,295.0 277.4,297.8 277.7,297.6 278.0,294.2 278.2,289.0 278.5,289.1 278.8,288.0 279.0,289.1 279.3,289.6 279.6,290.9 279.8,290.8 280.1,288.5 280.4,286.7 280.7,286.1 280.9,287.8 281.2,286.4 281.5,284.2 281.7,284.1 282.0,285.3 282.3,285.7 282.5,285.7 282.8,288.6 283.1,289.3 283.3,289.1 283.6,292.6 283.9,293.2 284.2,292.5 284.4,293.8 284.7,297.3 285.0,296.9 285.2,297.0 285.5,296.0 285.8,297.8 286.0,295.4 286.3,295.6 286.6,294.1 286.8,295.1 287.1,297.2 287.4,301.6 287.7,301.8 287.9,301.6 288.2,302.9 288.5,303.3 288.7,304.3 289.0,303.3 289.3,303.7 289.5,303.8 289.8,304.6 290.1,305.7 290.3,304.1 290.6,300.6 290.9,301.4 291.1,300.8 291.4,302.6 291.7,302.4 292.0,301.7 292.2,304.6 292.5,303.5 292.8,300.2 293.0,299.0 293.3,298.5 293.6,299.3 293.8,298.2 294.1,297.0 294.4,298.4 294.6,296.7 294.9,298.6 295.2,299.8 295.5,304.1 295.7,308.5 296.0,308.3 296.3,308.3 296.5,306.5 296.8,307.2 297.1,306.8 297.3,308.2 297.6,306.9 297.9,308.8 298.1,314.5 298.4,312.6 298.7,312.8 298.9,311.4 299.2,311.8 299.5,309.1 299.8,310.7 300.0,310.1 300.3,315.0 300.6,307.9 300.8,308.1 301.1,308.0 301.4,308.0 301.6,309.3 301.9,308.5 302.2,308.7 302.4,307.6 302.7,306.4 303.0,307.5 303.3,305.4 303.5,301.2 303.8,302.0 304.1,298.4 304.3,299.4 304.6,299.4 304.9,301.9 305.1,302.2 305.4,302.5 305.7,302.7 305.9,306.0 306.2,305.4 306.5,305.7 306.8,305.8 307.0,306.6 307.3,308.6 307.6,307.4 307.8,308.4 308.1,307.7 308.4,308.6 308.6,309.2 308.9,309.1 309.2,309.0 309.4,306.1 309.7,307.0 310.0,307.8 310.2,309.1 310.5,309.6 310.8,311.8 311.1,311.8 311.3,310.4 311.6,310.8 311.9,308.7 312.1,308.3 312.4,308.7 312.7,306.5 312.9,307.9 313.2,308.3 313.5,309.0 313.7,310.0 314.0,308.2 314.3,309.9 314.6,309.8 314.8,307.6 315.1,308.1 315.4,308.2 315.6,306.2 315.9,305.5 316.2,306.5 316.4,307.5 316.7,309.6 317.0,309.4 317.2,310.1 317.5,309.5 317.8,309.9 318.0,309.2 318.3,308.7 318.6,307.9 318.9,307.7 319.1,307.2 319.4,306.9 319.7,307.0 319.9,307.2 320.2,307.0 320.5,309.5 320.7,309.4 321.0,309.0 321.3,307.3 321.5,307.2 321.8,307.2 322.1,307.8 322.4,307.5 322.6,307.6 322.9,305.6 323.2,305.3 323.4,301.7 323.7,299.2 324.0,294.7 324.2,294.8 324.5,295.3 324.8,292.3 325.0,294.3 325.3,291.1 325.6,292.5 325.9,292.9 326.1,294.9 326.4,294.6 326.7,293.0 326.9,292.6 327.2,292.4 327.5,294.1 327.7,291.7 328.0,291.9 328.3,292.0 328.5,292.7 328.8,293.4 329.1,292.2 329.3,293.9 329.6,294.7 329.9,294.8 330.2,295.2 330.4,293.6 330.7,293.8 331.0,290.9 331.2,289.3 331.5,286.9 331.8,285.1 332.0,286.0 332.3,287.2 332.6,288.9 332.8,287.3 333.1,287.8 333.4,290.6 333.7,290.0 333.9,289.2 334.2,287.2 334.5,290.9 334.7,289.9 335.0,285.2 335.3,286.2 335.5,286.5 335.8,286.2 336.1,286.3 336.3,284.1 336.6,284.8 336.9,285.1 337.1,286.2 337.4,287.4 337.7,286.2 338.0,286.8 338.2,287.0 338.5,286.3 338.8,287.3 339.0,288.1 339.3,289.8 339.6,290.4 339.8,291.5 340.1,288.3 340.4,286.0 340.6,285.1 340.9,281.3 341.2,282.1 341.5,282.2 341.7,281.9 342.0,281.7 342.3,283.2 342.5,278.3 342.8,279.4 343.1,276.9 343.3,277.8 343.6,277.3 343.9,278.1 344.1,279.3 344.4,280.0 344.7,279.1 345.0,275.5 345.2,270.4 345.5,266.8 345.8,265.2 346.0,264.6 346.3,259.5 346.6,260.7 346.8,251.5 347.1,247.2 347.4,232.8 347.6,233.7 347.9,223.3 348.2,236.6 348.4,230.4 348.7,231.9 349.0,231.4 349.3,229.3 349.5,223.6 349.8,212.3 350.1,211.5 350.3,210.7 350.6,218.1 350.9,224.3 351.1,228.2 351.4,219.4 351.7,212.1 351.9,212.7 352.2,212.1 352.5,204.1 352.8,198.5 353.0,199.6 353.3,199.1 353.6,206.4 353.8,208.8 354.1,208.2 354.4,208.7 354.6,210.6 354.9,197.6 355.2,198.8 355.4,224.1 355.7,218.5 356.0,207.6 356.2,206.5 356.5,203.9 356.8,201.7 357.1,205.5 357.3,209.2 357.6,211.3 357.9,216.0 358.1,218.3 358.4,214.1 358.7,218.7 358.9,221.3 359.2,222.1 359.5,219.8 359.7,215.4 360.0,214.7 360.3,211.6 360.6,210.9 360.8,207.6 361.1,206.7 361.4,211.7 361.6,202.7 361.9,204.6 362.2,203.2 362.4,208.0 362.7,208.5 363.0,210.4 363.2,211.6 363.5,206.2 363.8,208.9 364.1,207.8 364.3,204.2 364.6,202.0 364.9,195.5 365.1,191.8 365.4,188.3 365.7,185.3 365.9,180.7 366.2,175.2 366.5,177.4 366.7,178.3 367.0,179.6 367.3,175.9 367.5,164.7 367.8,172.2 368.1,166.0 368.4,167.2 368.6,160.0 368.9,157.5 369.2,157.0 369.4,158.5 369.7,147.6 370.0,144.5 370.2,144.8 370.5,147.3 370.8,137.3 371.0,131.3 371.3,137.6 371.6,130.2 371.9,120.0 372.1,123.2 372.4,122.8 372.7,116.9 372.9,122.9 373.2,119.2 373.5,119.5 373.7,120.2 374.0,130.3 374.3,132.9 374.5,138.6 374.8,135.8 375.1,127.4 375.3,124.1 375.6,127.7 375.9,127.0 376.2,134.2 376.4,136.1 376.7,119.0 377.0,119.0 377.2,110.5 377.5,101.1 377.8,91.5 378.0,83.0 378.3,81.8 378.6,106.8 378.8,110.2 379.1,84.8 379.4,83.7 379.7,89.6 379.9,84.7 380.2,86.1 380.5,78.6 380.7,84.7 381.0,84.5 381.3,81.1 381.5,76.7 381.8,88.3 382.1,97.8 382.3,94.5 382.6,107.1 382.9,131.7 383.2,122.1 383.4,113.0 383.7,132.5 384.0,159.5 384.2,173.8 384.5,147.3 384.8,170.6 385.0,165.5 385.3,179.7 385.6,171.9 385.8,196.7 386.1,213.5 386.4,188.5 386.6,162.8 386.9,168.7 387.2,174.7 387.5,185.0 387.7,174.2 388.0,168.3 388.3,178.4 388.5,177.1 388.8,178.8 389.1,161.6 389.3,173.9 389.6,200.2 389.9,199.8 390.1,187.7 390.4,199.8 390.7,196.9 391.0,200.9 391.2,186.5 391.5,191.9 391.8,191.6 392.0,185.3 392.3,172.5 392.6,174.7 392.8,177.2 393.1,173.7 393.4,174.2 393.6,174.6 393.9,192.5 394.2,197.7 394.4,203.6 394.7,213.1 395.0,237.4 395.3,259.8 395.5,265.0 395.8,244.7 396.1,233.3 396.3,241.8 396.6,247.0 396.9,249.4 397.1,240.0 397.4,222.5 397.7,223.3 397.9,225.5 398.2,224.5 398.5,237.5 398.8,236.7 399.0,224.9 399.3,229.6 399.6,236.9 399.8,230.2 400.1,230.1 400.4,235.3 400.6,233.4 400.9,238.4 401.2,236.1 401.4,240.9 401.7,238.2 402.0,231.4 402.3,224.6 402.5,216.6 402.8,217.0 403.1,219.7 403.3,211.3 403.6,215.4 403.9,219.4 404.1,213.3 404.4,222.2 404.7,217.7 404.9,212.5 405.2,213.0 405.5,212.4 405.7,217.1 406.0,215.2 406.3,215.2 406.6,217.9 406.8,219.8 407.1,204.3 407.4,200.9 407.6,192.6 407.9,191.0 408.2,191.0 408.4,188.8 408.7,192.4 409.0,194.8 409.2,200.1 409.5,203.3 409.8,203.9 410.1,197.3 410.3,200.4 410.6,202.3 410.9,199.7 411.1,196.8 411.4,199.2 411.7,211.8 411.9,211.9 412.2,209.1 412.5,197.0 412.7,196.5 413.0,200.9 413.3,202.2 413.5,205.2 413.8,204.1 414.1,206.0 414.4,204.2 414.6,195.6 414.9,198.6 415.2,198.3 415.4,192.5 415.7,196.1 416.0,189.2 416.2,187.9 416.5,188.9 416.8,191.0 417.0,188.8 417.3,200.2 417.6,196.8 417.9,196.7 418.1,199.5 418.4,216.3 418.7,217.4 418.9,213.4 419.2,229.2 419.5,224.6 419.7,236.0 420.0,232.7 420.3,235.9 420.5,232.2 420.8,244.9 421.1,243.9 421.4,237.2 421.6,241.6 421.9,246.1 422.2,243.9 422.4,243.7 422.7,254.2 423.0,256.5 423.2,260.1 423.5,253.8 423.8,255.3 424.0,250.6 424.3,251.3 424.6,248.4 424.8,251.4 425.1,252.0 425.4,245.7 425.7,247.8 425.9,248.2 426.2,248.3 426.5,243.9 426.7,245.3 427.0,244.0 427.3,257.9 427.5,255.6 427.8,262.1 428.1,256.7 428.3,246.3 428.6,246.3 428.9,243.1 429.2,240.9 429.4,241.5 429.7,245.7 430.0,248.1 430.2,247.9 430.5,243.9 430.8,243.5 431.0,242.4 431.3,238.0 431.6,237.9 431.8,231.8 432.1,232.9 432.4,232.8 432.6,236.5 432.9,235.2 433.2,237.6 433.5,239.4 433.7,233.2 434.0,233.1 434.3,232.0 434.5,229.9 434.8,229.7 435.1,232.3 435.3,233.9 435.6,231.5 435.9,231.4 436.1,228.8 436.4,227.5 436.7,229.8 437.0,233.1 437.2,233.0 437.5,238.6 437.8,238.6 438.0,236.7 438.3,237.7 438.6,236.6 438.8,237.8 439.1,238.2 439.4,237.7 439.6,232.5 439.9,233.3 440.2,233.0 440.5,240.5 440.7,245.3 441.0,244.4 441.3,243.1 441.5,242.1 441.8,242.0 442.1,241.0 442.3,241.0 442.6,245.5 442.9,245.9 443.1,244.4 443.4,243.8 443.7,244.8 443.9,245.4 444.2,245.0 444.5,244.5 444.8,244.3 445.0,235.5 445.3,237.4 445.6,237.1 445.8,234.1 446.1,235.6 446.4,235.4 446.6,236.2 446.9,244.8 447.2,243.3 447.4,239.7 447.7,244.8 448.0,244.3 448.3,243.4 448.5,244.2 448.8,241.4 449.1,242.5 449.3,246.0 449.6,241.3 449.9,240.1 450.1,238.9 450.4,238.9 450.7,239.6 450.9,234.7 451.2,234.5 451.5,233.6 451.7,233.5 452.0,234.6 452.3,234.2 452.6,228.0 452.8,227.3 453.1,229.5 453.4,229.4 453.6,230.7 453.9,232.1 454.2,232.8 454.4,231.0 454.7,232.9 455.0,232.6 455.2,229.1 455.5,235.2 455.8,233.1 456.1,233.8 456.3,236.0 456.6,235.0 456.9,234.9 457.1,234.1 457.4,233.0 457.7,230.8 457.9,229.3 458.2,230.0 458.5,230.6 458.7,226.1 459.0,219.5 459.3,220.0 459.5,222.3 459.8,222.7 460.1,222.9 460.4,224.1 460.6,224.0 460.9,225.1 461.2,226.4 461.4,226.8 461.7,226.8 462.0,225.8 462.2,224.5 462.5,227.3 462.8,226.1 463.0,225.3 463.3,223.2 463.6,223.1 463.9,223.3 464.1,224.6 464.4,230.0 464.7,229.2 464.9,233.4 465.2,231.5 465.5,231.5 465.7,229.9 466.0,228.0 466.3,229.0 466.5,232.1 466.8,230.7 467.1,230.9 467.4,229.5 467.6,229.2 467.9,226.1 468.2,225.4 468.4,226.0 468.7,226.2 469.0,225.2 469.2,227.4 469.5,224.1 469.8,224.4 470.0,226.0 470.3,225.5 470.6,222.1 470.8,222.5 471.1,223.1 471.4,223.5 471.7,223.6 471.9,224.0 472.2,222.3 472.5,223.9 472.7,221.5 473.0,222.5 473.3,222.2 473.5,220.6 473.8,221.8 474.1,219.6 474.3,216.9 474.6,216.2 474.9,216.4 475.2,218.2 475.4,217.7 475.7,218.5 476.0,217.0 476.2,214.4 476.5,213.9 476.8,213.4 477.0,209.6 477.3,208.5 477.6,206.4 477.8,208.4 478.1,205.9 478.4,209.0 478.6,214.3 478.9,214.6 479.2,213.8 479.5,213.9 479.7,212.4 480.0,218.8 480.3,218.7 480.5,220.1 480.8,225.3 481.1,224.3 481.3,225.4 481.6,227.2 481.9,224.6 482.1,225.3 482.4,226.9 482.7,226.0 483.0,226.0 483.2,226.6 483.5,226.5 483.8,226.4 484.0,223.4 484.3,221.1 484.6,221.6 484.8,222.7 485.1,221.5 485.4,222.1 485.6,223.6 485.9,225.3 486.2,224.6 486.5,225.2 486.7,224.2 487.0,222.0 487.3,223.7 487.5,221.5 487.8,221.5 488.1,221.4 488.3,220.3 488.6,219.7 488.9,221.2 489.1,221.4 489.4,221.8 489.7,220.3 489.9,219.5 490.2,217.9 490.5,216.7 490.8,217.9 491.0,218.8 491.3,217.2 491.6,218.6 491.8,213.6 492.1,213.8 492.4,213.2 492.6,214.2 492.9,214.3 493.2,216.2 493.4,216.0 493.7,215.5 494.0,216.8 494.3,217.7 494.5,216.5 494.8,215.7 495.1,215.9 495.3,217.8 495.6,217.6 495.9,214.3 496.1,214.8 496.4,214.4 496.7,214.0 496.9,217.6 497.2,216.8 497.5,215.6 497.7,216.5 498.0,215.6 498.3,212.1 498.6,213.7 498.8,213.9 499.1,214.0 499.4,215.8 499.6,214.4 499.9,210.3 500.2,210.6 500.4,210.1 500.7,210.8 501.0,210.5 501.2,211.2 501.5,210.2 501.8,212.5 502.1,212.9 502.3,213.6 502.6,215.2 502.9,215.1 503.1,215.1 503.4,217.5 503.7,216.4 503.9,216.1 504.2,216.1 504.5,216.6 504.7,217.5 505.0,218.3 505.3,219.3 505.6,220.9 505.8,222.4 506.1,222.2 506.4,223.6 506.6,222.3 506.9,220.4 507.2,219.0 507.4,215.8 507.7,218.7 508.0,219.9 508.2,219.4 508.5,219.4 508.8,217.9 509.0,217.9 509.3,211.9 509.6,212.3 509.9,212.2 510.1,211.7 510.4,212.3 510.7,214.0 510.9,212.0 511.2,208.5 511.5,206.6 511.7,205.2 512.0,206.0 512.3,205.4 512.5,208.6 512.8,210.5 513.1,211.7 513.4,208.7 513.6,209.4 513.9,206.7 514.2,206.5 514.4,203.8 514.7,200.3 515.0,200.0 515.2,201.7 515.5,200.1 515.8,200.6 516.0,201.8 516.3,204.6 516.6,200.7 516.8,201.3 517.1,201.7 517.4,201.2 517.7,199.2 517.9,200.9 518.2,197.9 518.5,196.5 518.7,200.1 519.0,200.1 519.3,194.3 519.5,193.0 519.8,195.3 520.1,194.1 520.3,196.1 520.6,197.6 520.9,197.1 521.2,195.8 521.4,194.8 521.7,192.9 522.0,192.6 522.2,195.3 522.5,197.0 522.8,195.4 523.0,195.2 523.3,195.4 523.6,196.4 523.8,201.7 524.1,197.8 524.4,197.8 524.7,198.3 524.9,196.2 525.2,196.1 525.5,194.9 525.7,194.1 526.0,193.5 526.3,194.7 526.5,189.6 526.8,186.1 527.1,186.5 527.3,186.8 527.6,187.1 527.9,186.5 528.1,186.2 528.4,185.3 528.7,185.9 529.0,187.2 529.2,187.7 529.5,187.0 529.8,186.1 530.0,186.1 530.3,187.0 530.6,187.6 530.8,185.3 531.1,187.5 531.4,186.0 531.6,186.6 531.9,187.1 532.2,189.1 532.5,188.2 532.7,187.8 533.0,187.0 533.3,185.7 533.5,182.8 533.8,182.5 534.1,181.9 534.3,180.9 534.6,179.7 534.9,180.7 535.1,181.2 535.4,179.8 535.7,180.4 535.9,181.2 536.2,180.4 536.5,178.7 536.8,177.2 537.0,175.3 537.3,173.3 537.6,176.2 537.8,175.3 538.1,176.2 538.4,175.7 538.6,177.5 538.9,174.2 539.2,171.3 539.4,171.5 539.7,169.0 540.0,166.5 540.3,165.6 540.5,167.7 540.8,169.7 541.1,167.1 541.3,166.3 541.6,164.3 541.9,158.1 542.1,157.8 542.4,167.7 542.7,167.7 542.9,173.2 543.2,171.9 543.5,172.2 543.8,176.1 544.0,176.4 544.3,174.9 544.6,173.6 544.8,175.7 545.1,178.5 545.4,175.0 545.6,170.0 545.9,174.1 546.2,171.5 546.4,172.9 546.7,176.5 547.0,175.9 547.2,171.7 547.5,172.7 547.8,168.9 548.1,169.8 548.3,171.3 548.6,169.9 548.9,175.4 549.1,172.7 549.4,172.0 549.7,167.3 549.9,166.1 550.2,165.0 550.5,164.1 550.7,163.0 551.0,160.6 551.3,159.5 551.6,159.8 551.8,158.3 552.1,158.7 552.4,155.4 552.6,156.8 552.9,154.6 553.2,152.9 553.4,149.2 553.7,146.0 554.0,145.7 554.2,147.9 554.5,146.1 554.8,152.1 555.0,155.5 555.3,154.6 555.6,157.6 555.9,155.3 556.1,155.8 556.4,166.2 556.7,173.2 556.9,174.8 557.2,191.1 557.5,185.3 557.7,181.7 558.0,178.3 558.3,173.0 558.5,171.2 558.8,167.0 559.1,171.8 559.4,174.7 559.6,172.3 559.9,174.1 560.2,175.4 560.4,170.2 560.7,174.1 561.0,170.1 561.2,167.4 561.5,166.2 561.8,169.4 562.0,170.1 562.3,167.8 562.6,172.9 562.9,171.3 563.1,171.2 563.4,173.0 563.7,176.0 563.9,188.1 564.2,185.3 564.5,182.2 564.7,188.6 565.0,183.0 565.3,183.2 565.5,185.2 565.8,185.4 566.1,186.2 566.3,185.9 566.6,180.2 566.9,179.7 567.2,182.6 567.4,184.9 567.7,189.5 568.0,193.7 568.2,192.6 568.5,188.4 568.8,194.1 569.0,193.0 569.3,186.7 569.6,187.9 569.8,193.9 570.1,193.1 570.4,192.2 570.7,190.3 570.9,191.9 571.2,187.3 571.5,183.5 571.7,184.3 572.0,182.2 572.3,183.7 572.5,181.2 572.8,180.3 573.1,184.0 573.3,186.3 573.6,181.8 573.9,181.5 574.1,182.4 574.4,186.7 574.7,188.9 575.0,190.0 575.2,187.7 575.5,191.0 575.8,196.5 576.0,190.4 576.3,192.6 576.6,190.3 576.8,187.6 577.1,187.5 577.4,188.0 577.6,192.1 577.9,191.2 578.2,187.9 578.5,190.8 578.7,191.5 579.0,194.9 579.3,205.8 579.5,203.9 579.8,207.5 580.1,205.6 580.3,210.2 580.6,211.4 580.9,218.9 581.1,219.5 581.4,212.5 581.7,221.5 582.0,220.6 582.2,223.1 582.5,225.0 582.8,223.3 583.0,215.2 583.3,214.8 583.6,219.6 583.8,212.7 584.1,212.6 584.4,213.8 584.6,215.0 584.9,216.3 585.2,215.8 585.4,212.1 585.7,210.2 586.0,205.5 586.3,206.0 586.5,209.1 586.8,209.4 587.1,210.6 587.3,210.0 587.6,216.4 587.9,222.0 588.1,226.5 588.4,228.2 588.7,221.0 588.9,224.9 589.2,219.1 589.5,218.3 589.8,219.4 590.0,222.0 590.3,228.5 590.6,229.0 590.8,232.3 591.1,228.8 591.4,225.2 591.6,225.3 591.9,225.1 592.2,224.6 592.4,218.2 592.7,219.0 593.0,219.5 593.2,222.2 593.5,223.8 593.8,224.5 594.1,221.2 594.3,226.9 594.6,229.0 594.9,227.2 595.1,230.5 595.4,231.1 595.7,232.8 595.9,229.7 596.2,229.6 596.5,232.0 596.7,227.2 597.0,224.5 597.3,224.4 597.6,216.0 597.8,218.9 598.1,216.5 598.4,216.9 598.6,214.6 598.9,226.1 599.2,226.2 599.4,226.1 599.7,239.2 600.0,234.7 600.2,238.1 600.5,239.0 600.8,238.2 601.1,243.4 601.3,237.6 601.6,226.1 601.9,233.9 602.1,233.5 602.4,232.2 602.7,235.0 602.9,241.4 603.2,238.8 603.5,236.0 603.7,234.3 604.0,224.8 604.3,228.0 604.5,229.2 604.8,231.5 605.1,231.4 605.4,234.7 605.6,232.2 605.9,229.6 606.2,232.2 606.4,229.1 606.7,228.2 607.0,225.5 607.2,230.8 607.5,230.9 607.8,231.6 608.0,237.1 608.3,237.5 608.6,237.8 608.9,234.6 609.1,236.9 609.4,234.8 609.7,228.2 609.9,227.4 610.2,228.6 610.5,233.4 610.7,234.0 611.0,236.2 611.3,235.0 611.5,234.5 611.8,230.8 612.1,234.7 612.3,234.8 612.6,237.7 612.9,240.3 613.2,241.6 613.4,244.4 613.7,244.2 614.0,245.6 614.2,246.5 614.5,247.2 614.8,247.2 615.0,249.6 615.3,249.6 615.6,243.9 615.8,243.5 616.1,243.3 616.4,241.7 616.7,241.5 616.9,239.8 617.2,241.8 617.5,237.5 617.7,237.6 618.0,238.6 618.3,234.7 618.5,233.5 618.8,236.3 619.1,236.9 619.3,235.1 619.6,233.3 619.9,233.6 620.2,232.5 620.4,234.0 620.7,232.0 621.0,228.1 621.2,224.6 621.5,223.1 621.8,217.7 622.0,217.2 622.3,221.5 622.6,214.7 622.8,215.3 623.1,214.5 623.4,214.6 623.6,208.0 623.9,189.2 624.2,196.3 624.5,197.5 624.7,198.1 625.0,192.8 625.3,190.2 625.5,187.6 625.8,185.9 626.1,188.6 626.3,198.4 626.6,194.9 626.9,193.0 627.1,195.0 627.4,196.5 627.7,192.7 628.0,184.3 628.2,186.6 628.5,186.5 628.8,187.1 629.0,186.1 629.3,193.5 629.6,195.8 629.8,194.3 630.1,194.9 630.4,183.7 630.6,176.1 630.9,176.9 631.2,172.6 631.4,168.7 631.7,171.1 632.0,168.9 632.3,168.4 632.5,173.9 632.8,175.1 633.1,177.1 633.3,168.1 633.6,169.0 633.9,169.7 634.1,165.4 634.4,173.4 634.7,173.5 634.9,173.0 635.2,178.5 635.5,182.7 635.8,181.0 636.0,181.0 636.3,198.8 636.6,195.4 636.8,199.0 637.1,203.8 637.4,195.7 637.6,199.5 637.9,200.9 638.2,195.4 638.4,196.2 638.7,202.4 639.0,204.5 639.3,201.8 639.5,202.1 639.8,206.7 640.1,205.9 640.3,203.1 640.6,201.8 640.9,201.7 641.1,202.3 641.4,204.0 641.7,202.7 641.9,204.7 642.2,205.5 642.5,207.7 642.7,204.2 643.0,196.0 643.3,198.2 643.6,198.7 643.8,200.4 644.1,199.9 644.4,199.2 644.6,195.1 644.9,187.7 645.2,188.6 645.4,188.2 645.7,191.2 646.0,191.5 646.2,188.2 646.5,188.0 646.8,181.2 647.1,181.1 647.3,183.5 647.6,185.2 647.9,183.9 648.1,190.7 648.4,191.3 648.7,191.2 648.9,191.5 649.2,189.3 649.5,188.0 649.7,189.0 650.0,189.6 650.3,191.4 650.5,189.3 650.8,191.5 651.1,190.7 651.4,188.5 651.6,185.7 651.9,185.5 652.2,186.1 652.4,184.8 652.7,186.5 653.0,189.4 653.2,193.6 653.5,198.8 653.8,201.8 654.0,203.8 654.3,200.9 654.6,202.1 654.9,198.4 655.1,199.9 655.4,198.4 655.7,198.3 655.9,197.5 656.2,190.4 656.5,191.3 656.7,191.0 657.0,190.9 657.3,188.9 657.5,192.0 657.8,189.0 658.1,189.6 658.4,190.5 658.6,189.8 658.9,186.9 659.2,186.7 659.4,182.9 659.7,180.3 660.0,177.9 660.2,177.1 660.5,177.7 660.8,179.6 661.0,176.5 661.3,177.7 661.6,182.9 661.8,181.7 662.1,180.2 662.4,180.2 662.7,182.4 662.9,182.4 663.2,184.2 663.5,186.0 663.7,185.2 664.0,189.7 664.3,187.2 664.5,186.9 664.8,184.6 665.1,181.1 665.3,178.8 665.6,179.5 665.9,180.7 666.2,180.1 666.4,185.3 666.7,184.4 667.0,183.6 667.2,184.7 667.5,184.2 667.8,182.1 668.0,180.7 668.3,181.7 668.6,183.7 668.8,183.5 669.1,177.8 669.4,176.7 669.6,175.1 669.9,176.0 670.2,175.5 670.5,177.1 670.7,181.6 671.0,182.2 671.3,182.0 671.5,182.4 671.8,183.5 672.1,181.4 672.3,178.2 672.6,181.5 672.9,182.9 673.1,186.4 673.4,184.0 673.7,183.8 674.0,183.6 674.2,184.3 674.5,187.3 674.8,186.5 675.0,185.2 675.3,185.5 675.6,183.5 675.8,181.3 676.1,182.0 676.4,181.8 676.6,181.4 676.9,182.4 677.2,176.3 677.5,175.7 677.7,171.3 678.0,172.1 678.3,172.7 678.5,172.3 678.8,176.3 679.1,174.9 679.3,174.6 679.6,172.3 679.9,172.8 680.1,168.3 680.4,166.9 680.7,163.3 680.9,163.9 681.2,165.3 681.5,163.1 681.8,165.8 682.0,162.8 682.3,162.9 682.6,159.6 682.8,160.5 683.1,163.1 683.4,163.5 683.6,162.4 683.9,160.2 684.2,165.9 684.4,165.0 684.7,175.2 685.0,204.3 685.3,191.6 685.5,189.2 685.8,182.6 686.1,182.6 686.3,182.7 686.6,179.5 686.9,177.2 687.1,178.2 687.4,176.0 687.7,168.8 687.9,171.5 688.2,171.0 688.5,164.8 688.7,163.4 689.0,166.2 689.3,166.4 689.6,169.3 689.8,169.2 690.1,180.2 690.4,170.8 690.6,169.6 690.9,167.2 691.2,161.0 691.4,166.1 691.7,176.4 692.0,169.6 692.2,174.7 692.5,178.5 692.8,182.5 693.1,197.0 693.3,197.7 693.6,202.9 693.9,204.8 694.1,201.9 694.4,210.2 694.7,203.8 694.9,197.4 695.2,199.1 695.5,197.9 695.7,199.1 696.0,199.9 696.3,200.2 696.6,194.5 696.8,196.8 697.1,191.0 697.4,191.8 697.6,190.7 697.9,191.9 698.2,193.2 698.4,188.4 698.7,190.0 699.0,189.5 699.2,189.5 699.5,188.7 699.8,192.0 700.0,189.1 700.3,190.0 700.6,191.0 700.9,189.6 701.1,188.0 701.4,186.5 701.7,181.7 701.9,180.9 702.2,181.4 702.5,178.5 702.7,178.6 703.0,178.6 703.3,177.8 703.5,180.0 703.8,184.8 704.1,183.4 704.4,181.2 704.6,182.1 704.9,184.2 705.2,190.5 705.4,189.8 705.7,187.2 706.0,188.4 706.2,188.1 706.5,187.8 706.8,179.2 707.0,178.1 707.3,178.4 707.6,178.3 707.8,176.3 708.1,175.4 708.4,173.8 708.7,173.8 708.9,177.3 709.2,175.8 709.5,179.9 709.7,174.8 710.0,174.3 710.3,171.8 710.5,171.5 710.8,171.1 711.1,169.5 711.3,166.9 711.6,169.2 711.9,166.1 712.2,159.1 712.4,151.5 712.7,145.5 713.0,121.9 713.2,123.5 713.5,120.1 713.8,114.6 714.0,121.1 714.3,114.4 714.6,117.7 714.8,121.8 715.1,139.1 715.4,136.9 715.7,128.3 715.9,127.4 716.2,125.7 716.5,125.2 716.7,141.3 717.0,139.0 717.3,136.7 717.5,126.4 717.8,129.1 718.1,127.3 718.3,121.4 718.6,120.3 718.9,121.3 719.1,122.2 719.4,125.5 719.7,124.4 720.0,127.8 720.2,129.6 720.5,131.1 720.8,123.1 721.0,116.3 721.3,116.9 721.6,122.2 721.8,125.6 722.1,124.9 722.4,123.6 722.6,122.0 722.9,126.2 723.2,123.6 723.5,114.0 723.7,118.2 724.0,115.3 724.3,116.6 724.5,117.3 724.8,120.6 725.1,128.3 725.3,125.7 725.6,133.2 725.9,133.4 726.1,130.7 726.4,128.3 726.7,126.0 726.9,128.1 727.2,129.7 727.5,121.9 727.8,126.3 728.0,130.3 728.3,130.0 728.6,135.3 728.8,134.2 729.1,133.2 729.4,132.6 729.6,134.8 729.9,127.2 730.2,115.7 730.4,114.8 730.7,116.2 731.0,117.0 731.3,119.5 731.5,122.1 731.8,119.9 732.1,119.3 732.3,120.7 732.6,123.6 732.9,126.5 733.1,125.8 733.4,122.6 733.7,119.3 733.9,125.5 734.2,123.6 734.5,120.3 734.8,117.2 735.0,111.8 735.3,111.4 735.6,104.6 735.8,106.3 736.1,109.4 736.4,109.8 736.6,113.5 736.9,109.6 737.2,110.6 737.4,111.0 737.7,107.5 738.0,107.3 738.2,103.1 738.5,104.8 738.8,109.2 739.1,108.9 739.3,103.6 739.6,105.5 739.9,97.3 740.1,98.1 740.4,98.3 740.7,97.5 740.9,100.7 741.2,101.7 741.5,106.1 741.7,106.8 742.0,110.9 742.3,107.7 742.6,106.8 742.8,106.0 743.1,100.6 743.4,103.2 743.6,99.8 743.9,105.3 744.2,102.6 744.4,102.6 744.7,99.6 745.0,98.1 745.2,99.0 745.5,94.4 745.8,86.4 746.0,84.0 746.3,76.8 746.6,73.3 746.9,64.5 747.1,66.3 747.4,71.3 747.7,59.7 747.9,61.0 748.2,68.3 748.5,70.4 748.7,66.1 749.0,71.3 749.3,69.4 749.5,63.1 749.8,63.5 750.1,60.3 750.4,66.9 750.6,67.1 750.9,75.6 751.2,78.1 751.4,73.5 751.7,68.9 752.0,68.6 752.2,68.7 752.5,68.6 752.8,64.1 753.0,54.3 753.3,45.0 753.6,48.9 753.9,49.0 754.1,61.1 754.4,62.1 754.7,72.5 754.9,69.1 755.2,80.0 755.5,74.5 755.7,80.4 756.0,73.1 756.3,83.4 756.5,84.3 756.8,99.2 757.1,105.2 757.3,104.1 757.6,94.7 757.9,94.1 758.2,100.7 758.4,98.9 758.7,97.4 759.0,93.0 759.2,107.0 759.5,102.7 759.8,104.4 760.0,108.7 760.3,108.8 760.6,101.6 760.8,101.9 761.1,99.0 761.4,101.5 761.7,96.0 761.9,92.6 762.2,95.5 762.5,97.8 762.7,96.4 763.0,101.2 763.3,106.2 763.5,106.3 763.8,104.4 764.1,106.1 764.3,107.2 764.6,97.5 764.9,98.1 765.1,97.8 765.4,98.6 765.7,94.1 766.0,99.7 766.2,98.5 766.5,95.3 766.8,91.4 767.0,95.0 767.3,99.4 767.6,104.1 767.8,103.6 768.1,101.5 768.4,99.5 768.6,103.3 768.9,94.0 769.2,89.3 769.5,89.3 769.7,90.3 770.0,89.5 770.3,95.1 770.5,93.0 770.8,80.0 771.1,80.0 771.3,78.7 771.6,80.1 771.9,79.7 772.1,79.5 772.4,82.5 772.7,85.9 773.0,83.3 773.2,83.7 773.5,86.9 773.8,86.1 774.0,83.4 774.3,87.2 774.6,91.4 774.8,96.9 775.1,96.0 775.4,98.2 775.6,98.3 775.9,97.0 776.2,94.3 776.4,93.1 776.7,86.9 777.0,86.7 777.3,90.9 777.5,88.9 777.8,91.5 778.1,99.5 778.3,98.3 778.6,97.9 778.9,93.8 779.1,97.2 779.4,99.1 779.7,94.7 779.9,93.1 780.2,97.3 780.5,92.2 780.8,97.4 781.0,95.7 781.3,96.5 781.6,94.0 781.8,93.6 782.1,97.5 782.4,110.5 782.6,122.9 782.9,121.7 783.2,116.8 783.4,119.1 783.7,110.6 784.0,109.7 784.2,108.3 784.5,110.4 784.8,110.6 785.1,106.8 785.3,101.8 785.6,104.7 785.9,106.4 786.1,107.5 786.4,107.5 786.7,115.3 786.9,111.5 787.2,113.3 787.5,123.1 787.7,117.9 788.0,113.4 788.3,113.5 788.6,118.9 788.8,117.5 789.1,118.8 789.4,118.7 789.6,113.1 789.9,113.2 790.2,114.6 790.4,108.9 790.7,103.9 791.0,105.6 791.2,105.7 791.5,101.5 791.8,103.8 792.1,108.7 792.3,112.1 792.6,116.2 792.9,113.7 793.1,116.1 793.4,114.4 793.7,113.0 793.9,110.6 794.2,111.6 794.5,113.3 794.7,113.2 795.0,107.7 795.3,107.8 795.5,111.6 795.8,107.4 796.1,109.4 796.4,107.6 796.6,112.8 796.9,109.5 797.2,110.0 797.4,108.0 797.7,105.7 798.0,104.6 798.2,106.0 798.5,111.2 798.8,111.7 799.0,109.2 799.3,110.8 799.6,114.4 799.9,116.0 800.1,112.6 800.4,113.6 800.7,114.0 800.9,114.1 801.2,116.4 801.5,110.0 801.7,110.4 802.0,110.5 802.3,110.8 802.5,111.4 802.8,114.6 803.1,110.3 803.3,109.6 803.6,109.4 803.9,108.8 804.2,110.2 804.4,113.1 804.7,113.3 805.0,114.8 805.2,113.8 805.5,112.9 805.8,109.5 806.0,110.3 806.3,108.1 806.6,102.3 806.8,96.3 807.1,97.5 807.4,96.9 807.7,98.5 807.9,102.1 808.2,100.2 808.5,104.5 808.7,109.7 809.0,108.3 809.3,108.4 809.5,105.5 809.8,107.2 810.1,106.7 810.3,104.6 810.6,109.7 810.9,107.1 811.2,106.8 811.4,108.1 811.7,111.6 812.0,115.8 812.2,115.0 812.5,113.9 812.8,117.1 813.0,113.4 813.3,119.5 813.6,122.7 813.8,119.8 814.1,116.3 814.4,118.0 814.6,115.4 814.9,116.8 815.2,116.9 815.5,125.0 815.7,123.0 816.0,128.8 816.3,135.9 816.5,129.6 816.8,131.1 817.1,128.1 817.3,129.0 817.6,131.9 817.9,135.0 818.1,132.2 818.4,130.7 818.7,129.9 819.0,128.1 819.2,129.6 819.5,133.8 819.8,130.3 820.0,136.3 820.3,133.6 820.6,133.4 820.8,131.0 821.1,133.4 821.4,135.4 821.6,138.8 821.9,150.4 822.2,157.7 822.4,160.3 822.7,155.6 823.0,152.4 823.3,163.1 823.5,179.0 823.8,163.9 824.1,158.0 824.3,158.1 824.6,159.3 824.9,159.5 825.1,157.4 825.4,159.1 825.7,164.9 825.9,165.6 826.2,166.7 826.5,156.5 826.8,159.1 827.0,155.5 827.3,157.4 827.6,160.8 827.8,158.0 828.1,167.6 828.4,162.1 828.6,164.2 828.9,161.4 829.2,161.7 829.4,163.4 829.7,165.1 830.0,170.9 830.3,174.9 830.5,174.0 830.8,188.5 831.1,190.5 831.3,183.1 831.6,180.9 831.9,173.4 832.1,175.2 832.4,183.5 832.7,185.4 832.9,181.0 833.2,178.0 833.5,178.9 833.7,176.6 834.0,179.7 834.3,175.2 834.6,176.1 834.8,175.0 835.1,170.3 835.4,173.7 835.6,179.3 835.9,177.9 836.2,177.0 836.4,176.0 836.7,174.7 837.0,169.8 837.2,170.6 837.5,169.7 837.8,164.4 838.1,163.8 838.3,160.2 838.6,162.7 838.9,158.0 839.1,161.6 839.4,158.3 839.7,154.8 839.9,156.9 840.2,154.8 840.5,154.5 840.7,154.2 841.0,158.2 841.3,152.1 841.5,148.4 841.8,145.2 842.1,141.3 842.4,145.0 842.6,141.5 842.9,142.7 843.2,140.8 843.4,141.7 843.7,146.0 844.0,144.8 844.2,145.3 844.5,150.5 844.8,153.1 845.0,152.7 845.3,152.5 845.6,159.7 845.9,155.1 846.1,156.5 846.4,155.9 846.7,159.2 846.9,158.7 847.2,159.9 847.5,157.8 847.7,159.5 848.0,159.3 848.3,163.8 848.5,162.3 848.8,166.9 849.1,170.5 849.4,168.3 849.6,163.5 849.9,164.5 850.2,164.1 850.4,167.5 850.7,160.7 851.0,160.7 851.2,161.6 851.5,162.4 851.8,159.4 852.0,161.9 852.3,164.6 852.6,162.7 852.8,163.7 853.1,169.0 853.4,166.5 853.7,167.1 853.9,168.8 854.2,169.3 854.5,169.0 854.7,171.7 855.0,173.4"/>
</svg>
