<svg xmlns="http://www.w3.org/2000/svg" width="900" height="360">
<rect width="100%" height="100%" fill="white"/>
<text x="45" y="20" font-size="16">沪深300指数 收益率直方图</text>
<line class="axis-x" x1="45" y1="315" x2="855" y2="315" stroke="black" stroke-width="1"/>
<line class="axis-y" x1="45" y1="45" x2="45" y2="315" stroke="black" stroke-width="1"/>
<text x="450.0" y="355" font-size="12" text-anchor="middle">收益率</text>
<text x="14" y="180.0" font-size="12" text-anchor="middle" transform="rotate(-90 14 180.0)">频数</text>
<line x1="45.0" y1="315" x2="45.0" y2="320" stroke="black" stroke-width="1"/>
<text x="45.0" y="333" font-size="10" text-anchor="middle">-0.097</text>
<line x1="450.0" y1="315" x2="450.0" y2="320" stroke="black" stroke-width="1"/>
<text x="450.0" y="333" font-size="10" text-anchor="middle">-0.004</text>
<line x1="855.0" y1="315" x2="855.0" y2="320" stroke="black" stroke-width="1"/>
<text x="855.0" y="333" font-size="10" text-anchor="middle">0.090</text>
<line x1="40" y1="315.0" x2="45" y2="315.0" stroke="black" stroke-width="1"/>
<text x="37" y="318.0" font-size="10" text-anchor="end">0</text>
<line x1="40" y1="180.0" x2="45" y2="180.0" stroke="black" stroke-width="1"/>
<text x="37" y="183.0" font-size="10" text-anchor="end">582</text>
<line x1="40" y1="45.0" x2="45" y2="45.0" stroke="black" stroke-width="1"/>
<text x="37" y="48.0" font-size="10" text-anchor="end">1165</text>
<rect x="45.0" y="314.5" width="26.0" height="0.5" fill="#9ecae1"/><rect x="72.0" y="314.5" width="26.0" height="0.5" fill="#9ecae1"/><rect x="99.0" y="313.8" width="26.0" height="1.2" fill="#9ecae1"/><rect x="126.0" y="313.6" width="26.0" height="1.4" fill="#9ecae1"/><rect x="153.0" y="313.1" width="26.0" height="1.9" fill="#9ecae1"/><rect x="180.0" y="313.1" width="26.0" height="1.9" fill="#9ecae1"/><rect x="207.0" y="312.5" width="26.0" height="2.5" fill="#9ecae1"/><rect x="234.0" y="309.9" width="26.0" height="5.1" fill="#9ecae1"/><rect x="261.0" y="308.5" width="26.0" height="6.5" fill="#9ecae1"/><rect x="288.0" y="305.5" width="26.0" height="9.5" fill="#9ecae1"/><rect x="315.0" y="299.5" width="26.0" height="15.5" fill="#9ecae1"/><rect x="342.0" y="289.0" width="26.0" height="26.0" fill="#9ecae1"/><rect x="369.0" y="259.1" width="26.0" height="55.9" fill="#9ecae1"/><rect x="396.0" y="210.0" width="26.0" height="105.0" fill="#9ecae1"/><rect x="423.0" y="139.6" width="26.0" height="175.4" fill="#9ecae1"/><rect x="450.0" y="45.0" width="26.0" height="270.0" fill="#9ecae1"/><rect x="477.0" y="103.2" width="26.0" height="211.8" fill="#9ecae1"/><rect x="504.0" y="198.4" width="26.0" height="116.6" fill="#9ecae1"/><rect x="531.0" y="249.2" width="26.0" height="65.8" fill="#9ecae1"/><rect x="558.0" y="274.4" width="26.0" height="40.6" fill="#9ecae1"/><rect x="585.0" y="290.2" width="26.0" height="24.8" fill="#9ecae1"/><rect x="612.0" y="305.3" width="26.0" height="9.7" fill="#9ecae1"/><rect x="639.0" y="308.5" width="26.0" height="6.5" fill="#9ecae1"/><rect x="666.0" y="311.8" width="26.0" height="3.2" fill="#9ecae1"/><rect x="693.0" y="313.6" width="26.0" height="1.4" fill="#9ecae1"/><rect x="720.0" y="313.6" width="26.0" height="1.4" fill="#9ecae1"/><rect x="747.0" y="314.8" width="26.0" height="0.2" fill="#9ecae1"/><rect x="774.0" y="314.5" width="26.0" height="0.5" fill="#9ecae1"/><rect x="801.0" y="314.5" width="26.0" height="0.5" fill="#9ecae1"/><rect x="828.0" y="314.3" width="26.0" height="0.7" fill="#9ecae1"/>
<polyline fill="none" stroke="#d62728" stroke-width="2" points="45.0,315.0 51.8,315.0 58.6,315.0 65.4,315.0 72.2,315.0 79.0,315.0 85.8,315.0 92.6,315.0 99.5,315.0 106.3,315.0 113.1,315.0 119.9,315.0 126.7,315.0 133.5,315.0 140.3,315.0 147.1,315.0 153.9,315.0 160.7,315.0 167.5,315.0 174.3,314.9 181.1,314.9 187.9,314.9 194.7,314.8 201.6,314.8 208.4,314.7 215.2,314.5 222.0,314.3 228.8,314.1 235.6,313.7 242.4,313.3 249.2,312.6 256.0,311.8 262.8,310.8 269.6,309.5 276.4,307.8 283.2,305.7 290.0,303.2 296.8,300.0 303.7,296.2 310.5,291.6 317.3,286.2 324.1,279.8 330.9,272.5 337.7,264.0 344.5,254.5 351.3,243.8 358.1,232.1 364.9,219.3 371.7,205.6 378.5,191.0 385.3,175.8 392.1,160.2 398.9,144.4 405.8,128.7 412.6,113.5 419.4,99.1 426.2,85.8 433.0,73.9 439.8,63.8 446.6,55.6 453.4,49.7 460.2,46.1 467.0,45.0 473.8,46.4 480.6,50.3 487.4,56.5 494.2,64.9 501.1,75.3 507.9,87.4 514.7,100.9 521.5,115.4 528.3,130.7 535.1,146.4 541.9,162.1 548.7,177.7 555.5,192.8 562.3,207.3 569.1,220.9 575.9,233.6 582.7,245.2 589.5,255.7 596.3,265.1 603.2,273.4 610.0,280.7 616.8,286.9 623.6,292.2 630.4,296.7 637.2,300.4 644.0,303.5 650.8,306.0 657.6,308.1 664.4,309.7 671.2,311.0 678.0,312.0 684.8,312.7 691.6,313.3 698.4,313.8 705.3,314.1 712.1,314.4 718.9,314.5 725.7,314.7 732.5,314.8 739.3,314.8 746.1,314.9 752.9,314.9 759.7,315.0 766.5,315.0 773.3,315.0 780.1,315.0 786.9,315.0 793.7,315.0 800.5,315.0 807.4,315.0 814.2,315.0 821.0,315.0 827.8,315.0 834.6,315.0 841.4,315.0 848.2,315.0 855.0,315.0"/>
</svg>
