<svg xmlns="http://www.w3.org/2000/svg" width="900" height="360">
<rect width="100%" height="100%" fill="white"/>
<text x="30" y="20" font-size="16">沪深300期货 收益率直方图</text>
<rect x="30.0" y="328.5" width="27.0" height="1.5" fill="#9ecae1"/><rect x="58.0" y="329.6" width="27.0" height="0.4" fill="#9ecae1"/><rect x="86.0" y="329.6" width="27.0" height="0.4" fill="#9ecae1"/><rect x="114.0" y="329.6" width="27.0" height="0.4" fill="#9ecae1"/><rect x="142.0" y="329.3" width="27.0" height="0.7" fill="#9ecae1"/><rect x="170.0" y="328.2" width="27.0" height="1.8" fill="#9ecae1"/><rect x="198.0" y="328.2" width="27.0" height="1.8" fill="#9ecae1"/><rect x="226.0" y="326.4" width="27.0" height="3.6" fill="#9ecae1"/><rect x="254.0" y="326.4" width="27.0" height="3.6" fill="#9ecae1"/><rect x="282.0" y="326.0" width="27.0" height="4.0" fill="#9ecae1"/><rect x="310.0" y="316.9" width="27.0" height="13.1" fill="#9ecae1"/><rect x="338.0" y="315.5" width="27.0" height="14.5" fill="#9ecae1"/><rect x="366.0" y="287.1" width="27.0" height="42.9" fill="#9ecae1"/><rect x="394.0" y="250.5" width="27.0" height="79.5" fill="#9ecae1"/><rect x="422.0" y="142.6" width="27.0" height="187.4" fill="#9ecae1"/><rect x="450.0" y="30.0" width="27.0" height="300.0" fill="#9ecae1"/><rect x="478.0" y="120.1" width="27.0" height="209.9" fill="#9ecae1"/><rect x="506.0" y="221.0" width="27.0" height="109.0" fill="#9ecae1"/><rect x="534.0" y="277.0" width="27.0" height="53.0" fill="#9ecae1"/><rect x="562.0" y="296.9" width="27.0" height="33.1" fill="#9ecae1"/><rect x="590.0" y="313.3" width="27.0" height="16.7" fill="#9ecae1"/><rect x="618.0" y="325.3" width="27.0" height="4.7" fill="#9ecae1"/><rect x="646.0" y="325.6" width="27.0" height="4.4" fill="#9ecae1"/><rect x="674.0" y="326.7" width="27.0" height="3.3" fill="#9ecae1"/><rect x="702.0" y="329.3" width="27.0" height="0.7" fill="#9ecae1"/><rect x="730.0" y="329.3" width="27.0" height="0.7" fill="#9ecae1"/><rect x="758.0" y="328.9" width="27.0" height="1.1" fill="#9ecae1"/><rect x="786.0" y="330.0" width="27.0" height="0.0" fill="#9ecae1"/><rect x="814.0" y="329.3" width="27.0" height="0.7" fill="#9ecae1"/><rect x="842.0" y="329.3" width="27.0" height="0.7" fill="#9ecae1"/>
<polyline fill="none" stroke="#d62728" stroke-width="2" points="30.0,330.0 37.1,330.0 44.1,330.0 51.2,330.0 58.2,330.0 65.3,330.0 72.4,330.0 79.4,330.0 86.5,330.0 93.5,330.0 100.6,330.0 107.6,330.0 114.7,330.0 121.8,330.0 128.8,330.0 135.9,330.0 142.9,330.0 150.0,330.0 157.1,330.0 164.1,330.0 171.2,330.0 178.2,330.0 185.3,330.0 192.4,330.0 199.4,329.9 206.5,329.9 213.5,329.8 220.6,329.8 227.6,329.6 234.7,329.5 241.8,329.2 248.8,328.9 255.9,328.4 262.9,327.8 270.0,326.9 277.1,325.8 284.1,324.2 291.2,322.2 298.2,319.7 305.3,316.4 312.4,312.4 319.4,307.4 326.5,301.3 333.5,294.0 340.6,285.3 347.6,275.2 354.7,263.6 361.8,250.4 368.8,235.7 375.9,219.6 382.9,202.2 390.0,183.8 397.1,164.6 404.1,145.1 411.2,125.7 418.2,106.8 425.3,88.9 432.4,72.7 439.4,58.4 446.5,46.7 453.5,37.9 460.6,32.3 467.6,30.0 474.7,31.2 481.8,35.8 488.8,43.7 495.9,54.5 502.9,68.0 510.0,83.7 517.1,101.1 524.1,119.7 531.2,139.0 538.2,158.6 545.3,177.9 552.4,196.6 559.4,214.3 566.5,230.8 573.5,246.0 580.6,259.6 587.6,271.7 594.7,282.3 601.8,291.4 608.8,299.1 615.9,305.6 622.9,310.9 630.0,315.3 637.1,318.8 644.1,321.5 651.2,323.7 658.2,325.3 665.3,326.6 672.4,327.5 679.4,328.2 686.5,328.8 693.5,329.1 700.6,329.4 707.6,329.6 714.7,329.7 721.8,329.8 728.8,329.9 735.9,329.9 742.9,330.0 750.0,330.0 757.1,330.0 764.1,330.0 771.2,330.0 778.2,330.0 785.3,330.0 792.4,330.0 799.4,330.0 806.5,330.0 813.5,330.0 820.6,330.0 827.6,330.0 834.7,330.0 841.8,330.0 848.8,330.0 855.9,330.0 862.9,330.0 870.0,330.0"/>
</svg>
