<svg xmlns="http://www.w3.org/2000/svg" width="900" height="360">
<rect width="100%" height="100%" fill="white"/>
<text x="45" y="20" font-size="16">沪深300指数 价格</text>
<line class="axis-x" x1="45" y1="315" x2="855" y2="315" stroke="black" stroke-width="1"/>
<line class="axis-y" x1="45" y1="45" x2="45" y2="315" stroke="black" stroke-width="1"/>
<text x="450.0" y="355" font-size="12" text-anchor="middle">样本点</text>
<text x="14" y="180.0" font-size="12" text-anchor="middle" transform="rotate(-90 14 180.0)">价格</text>
<line x1="45.0" y1="315" x2="45.0" y2="320" stroke="black" stroke-width="1"/>
<text x="45.0" y="333" font-size="10" text-anchor="middle">1</text>
<line x1="449.9" y1="315" x2="449.9" y2="320" stroke="black" stroke-width="1"/>
<text x="449.9" y="333" font-size="10" text-anchor="middle">2508</text>
<line x1="855.0" y1="315" x2="855.0" y2="320" stroke="black" stroke-width="1"/>
<text x="855.0" y="333" font-size="10" text-anchor="middle">5016</text>
<line x1="40" y1="315.0" x2="45" y2="315.0" stroke="black" stroke-width="1"/>
<text x="37" y="318.0" font-size="10" text-anchor="end">818.03</text>
<line x1="40" y1="180.0" x2="45" y2="180.0" stroke="black" stroke-width="1"/>
<text x="37" y="183.0" font-size="10" text-anchor="end">3347.61</text>
<line x1="40" y1="45.0" x2="45" y2="45.0" stroke="black" stroke-width="1"/>
<text x="37" y="48.0" font-size="10" text-anchor="end">5877.20</text>
<polyline fill="none" stroke="#1f77b4" stroke-width="2" points="45.0,288.4 45.2,289.2 45.3,289.7 45.5,290.7 45.6,290.3 45.8,292.0 46.0,294.3 46.1,295.3 46.3,294.5 46.5,297.2 46.6,297.3 46.8,299.5 46.9,299.4 47.1,295.5 47.3,295.2 47.4,295.2 47.6,299.3 47.7,297.8 47.9,297.5 48.1,293.5 48.2,293.8 48.4,292.6 48.6,292.1 48.7,293.7 48.9,292.4 49.0,292.7 49.2,291.7 49.4,291.8 49.5,291.6 49.7,292.2 49.8,293.2 50.0,292.2 50.2,290.6 50.3,289.9 50.5,287.8 50.7,286.5 50.8,285.2 51.0,285.9 51.1,287.0 51.3,285.2 51.5,287.2 51.6,287.0 51.8,285.6 51.9,284.9 52.1,284.7 52.3,285.5 52.4,285.4 52.6,286.6 52.8,286.4 52.9,286.5 53.1,288.6 53.2,288.3 53.4,289.5 53.6,289.2 53.7,287.3 53.9,287.6 54.0,287.5 54.2,286.2 54.4,285.7 54.5,286.9 54.7,286.6 54.9,286.9 55.0,287.1 55.2,287.0 55.3,287.9 55.5,287.6 55.7,288.0 55.8,288.3 56.0,288.8 56.1,288.6 56.3,287.6 56.5,286.6 56.6,286.4 56.8,287.0 57.0,286.9 57.1,287.4 57.3,288.2 57.4,288.7 57.6,289.3 57.8,291.3 57.9,290.5 58.1,291.5 58.2,289.3 58.4,290.3 58.6,290.1 58.7,291.1 58.9,290.9 59.1,290.9 59.2,292.2 59.4,292.2 59.5,292.6 59.7,293.9 59.9,293.6 60.0,294.8 60.2,292.2 60.3,291.8 60.5,292.3 60.7,291.8 60.8,292.1 61.0,292.7 61.2,293.4 61.3,293.3 61.5,292.0 61.6,292.7 61.8,292.2 62.0,289.9 62.1,283.4 62.3,283.4 62.4,283.0 62.6,282.7 62.8,282.3 62.9,283.1 63.1,282.6 63.3,282.5 63.4,283.3 63.6,283.1 63.7,282.7 63.9,282.9 64.1,284.3 64.2,284.4 64.4,284.5 64.5,285.0 64.7,284.9 64.9,284.3 65.0,284.1 65.2,283.8 65.4,285.0 65.5,285.2 65.7,285.4 65.8,285.8 66.0,286.0 66.2,285.6 66.3,285.4 66.5,286.2 66.6,286.3 66.8,286.1 67.0,286.4 67.1,285.6 67.3,285.7 67.5,286.1 67.6,286.6 67.8,287.1 67.9,287.0 68.1,286.5 68.3,287.1 68.4,286.6 68.6,286.8 68.7,285.5 68.9,285.5 69.1,284.9 69.2,285.0 69.4,285.7 69.6,285.6 69.7,285.6 69.9,285.9 70.0,286.0 70.2,286.0 70.4,285.7 70.5,286.1 70.7,287.1 70.8,287.4 71.0,288.0 71.2,288.0 71.3,288.3 71.5,288.1 71.7,288.1 71.8,289.1 72.0,289.0 72.1,289.5 72.3,288.2 72.5,289.0 72.6,289.0 72.8,289.3 72.9,289.3 73.1,289.7 73.3,290.0 73.4,290.7 73.6,292.1 73.7,292.4 73.9,292.6 74.1,292.3 74.2,292.5 74.4,292.1 74.6,293.1 74.7,292.8 74.9,292.6 75.0,291.7 75.2,291.6 75.4,292.2 75.5,292.8 75.7,293.6 75.8,293.2 76.0,293.2 76.2,293.3 76.3,293.1 76.5,292.1 76.7,291.1 76.8,291.4 77.0,291.4 77.1,292.9 77.3,293.6 77.5,294.6 77.6,294.3 77.8,295.5 77.9,295.3 78.1,296.0 78.3,295.5 78.4,297.0 78.6,298.6 78.8,298.5 78.9,298.2 79.1,299.4 79.2,298.9 79.4,297.3 79.6,296.5 79.7,298.2 79.9,297.6 80.0,297.4 80.2,297.8 80.4,297.8 80.5,298.0 80.7,298.7 80.9,299.0 81.0,298.8 81.2,298.2 81.3,297.7 81.5,297.4 81.7,297.6 81.8,297.5 82.0,296.9 82.1,296.8 82.3,296.8 82.5,297.2 82.6,298.9 82.8,298.9 83.0,299.5 83.1,299.8 83.3,301.3 83.4,301.4 83.6,300.8 83.8,300.9 83.9,299.3 84.1,298.2 84.2,298.8 84.4,298.7 84.6,295.4 84.7,295.8 84.9,294.8 85.1,295.1 85.2,294.9 85.4,296.1 85.5,296.0 85.7,296.3 85.9,295.3 86.0,294.4 86.2,294.2 86.3,294.2 86.5,295.1 86.7,294.5 86.8,293.8 87.0,294.1 87.2,293.9 87.3,294.4 87.5,294.4 87.6,293.7 87.8,293.8 88.0,295.1 88.1,295.0 88.3,293.8 88.4,293.8 88.6,293.8 88.8,293.9 88.9,293.4 89.1,293.4 89.3,293.7 89.4,294.5 89.6,294.7 89.7,295.8 89.9,295.8 90.1,295.6 90.2,295.9 90.4,295.8 90.5,295.7 90.7,296.0 90.9,295.7 91.0,295.9 91.2,295.4 91.4,295.3 91.5,295.9 91.7,296.2 91.8,294.5 92.0,294.7 92.2,293.8 92.3,293.4 92.5,293.4 92.6,293.8 92.8,293.4 93.0,293.7 93.1,293.5 93.3,292.3 93.5,291.7 93.6,290.6 93.8,288.9 93.9,288.4 94.1,289.1 94.3,288.9 94.4,289.3 94.6,290.6 94.7,290.6 94.9,291.7 95.1,293.6 95.2,294.3 95.4,291.9 95.6,292.9 95.7,292.5 95.9,291.9 96.0,293.7 96.2,292.3 96.4,290.7 96.5,290.7 96.7,290.6 96.8,291.3 97.0,291.5 97.2,290.9 97.3,290.1 97.5,289.7 97.7,289.6 97.8,290.5 98.0,289.6 98.1,289.2 98.3,289.3 98.5,290.0 98.6,289.5 98.8,290.4 98.9,291.3 99.1,292.0 99.3,291.6 99.4,290.4 99.6,290.7 99.8,290.5 99.9,290.7 100.1,290.9 100.2,291.1 100.4,291.8 100.6,292.2 100.7,292.9 100.9,292.7 101.0,293.2 101.2,292.6 101.4,293.5 101.5,293.8 101.7,293.8 101.9,293.1 102.0,293.0 102.2,293.0 102.3,292.9 102.5,292.5 102.7,292.9 102.8,291.5 103.0,291.6 103.1,291.9 103.3,291.7 103.5,291.4 103.6,290.9 103.8,292.4 104.0,292.9 104.1,292.7 104.3,292.5 104.4,293.0 104.6,293.6 104.8,293.9 104.9,293.6 105.1,293.5 105.2,293.4 105.4,293.2 105.6,292.5 105.7,292.5 105.9,292.9 106.1,292.9 106.2,293.6 106.4,293.4 106.5,293.2 106.7,294.1 106.9,294.4 107.0,294.5 107.2,294.7 107.3,294.5 107.5,294.8 107.7,294.9 107.8,295.1 108.0,295.8 108.2,295.7 108.3,295.8 108.5,296.2 108.6,295.8 108.8,294.6 109.0,294.8 109.1,294.7 109.3,294.8 109.4,295.5 109.6,295.8 109.8,296.1 109.9,295.9 110.1,295.8 110.3,296.5 110.4,297.2 110.6,296.8 110.7,297.4 110.9,297.4 111.1,297.3 111.2,297.8 111.4,297.4 111.5,297.3 111.7,298.0 111.9,298.3 112.0,299.1 112.2,298.5 112.4,298.3 112.5,298.4 112.7,297.0 112.8,297.2 113.0,297.7 113.2,297.9 113.3,298.7 113.5,298.5 113.6,298.9 113.8,298.6 114.0,297.1 114.1,297.6 114.3,297.8 114.5,298.3 114.6,298.3 114.8,298.7 114.9,299.4 115.1,299.3 115.3,298.7 115.4,297.5 115.6,297.9 115.7,298.9 115.9,299.7 116.1,299.5 116.2,299.5 116.4,300.5 116.6,300.4 116.7,300.0 116.9,300.2 117.0,301.0 117.2,300.1 117.4,298.4 117.5,299.1 117.7,297.4 117.8,297.2 118.0,297.0 118.2,298.0 118.3,297.7 118.5,296.3 118.7,296.3 118.8,296.1 119.0,295.8 119.1,295.9 119.3,296.5 119.5,296.3 119.6,295.4 119.8,295.4 119.9,295.5 120.1,295.4 120.3,295.8 120.4,296.2 120.6,296.0 120.8,296.6 120.9,294.9 121.1,294.6 121.2,294.0 121.4,294.1 121.6,294.2 121.7,294.7 121.9,294.2 122.0,294.9 122.2,294.4 122.4,292.5 122.5,291.9 122.7,291.1 122.9,290.1 123.0,291.1 123.2,289.6 123.3,289.6 123.5,290.5 123.7,290.7 123.8,290.1 124.0,288.6 124.1,290.3 124.3,288.9 124.5,288.2 124.6,286.7 124.8,286.4 125.0,286.8 125.1,285.6 125.3,285.9 125.4,286.4 125.6,286.8 125.8,287.0 125.9,285.4 126.1,285.0 126.2,284.4 126.4,284.7 126.6,284.4 126.7,286.1 126.9,286.3 127.0,287.7 127.2,287.4 127.4,286.5 127.5,285.7 127.7,285.9 127.9,287.1 128.0,286.6 128.2,287.0 128.3,288.4 128.5,288.5 128.7,286.9 128.8,286.2 129.0,286.2 129.1,284.5 129.3,284.2 129.5,284.0 129.6,285.4 129.8,284.3 130.0,284.0 130.1,284.5 130.3,284.7 130.4,284.7 130.6,284.7 130.8,285.5 130.9,285.4 131.1,284.7 131.2,284.1 131.4,283.6 131.6,283.8 131.7,283.4 131.9,283.5 132.1,283.8 132.2,285.5 132.4,285.8 132.5,286.4 132.7,287.6 132.9,288.3 133.0,287.6 133.2,288.6 133.3,289.2 133.5,289.8 133.7,289.5 133.8,290.5 134.0,290.5 134.2,291.2 134.3,291.5 134.5,292.8 134.6,292.5 134.8,294.3 135.0,293.9 135.1,292.5 135.3,292.8 135.4,294.2 135.6,294.9 135.8,294.1 135.9,294.1 136.1,294.5 136.3,294.1 136.4,294.6 136.6,295.8 136.7,295.5 136.9,294.2 137.1,294.5 137.2,294.2 137.4,293.3 137.5,294.0 137.7,295.0 137.9,295.0 138.0,295.9 138.2,296.7 138.4,297.9 138.5,297.8 138.7,297.8 138.8,299.1 139.0,298.1 139.2,297.8 139.3,299.1 139.5,299.8 139.6,299.5 139.8,298.9 140.0,299.4 140.1,300.0 140.3,300.9 140.5,301.6 140.6,300.8 140.8,301.1 140.9,299.3 141.1,299.2 141.3,299.1 141.4,298.8 141.6,299.4 141.7,299.3 141.9,299.6 142.1,300.8 142.2,300.7 142.4,300.6 142.6,299.7 142.7,298.2 142.9,298.1 143.0,298.6 143.2,298.6 143.4,300.1 143.5,299.9 143.7,300.6 143.8,300.8 144.0,300.5 144.2,299.7 144.3,300.6 144.5,301.0 144.7,301.4 144.8,299.8 145.0,300.5 145.1,300.6 145.3,300.3 145.5,300.0 145.6,300.7 145.8,301.3 145.9,301.2 146.1,301.7 146.3,301.4 146.4,301.5 146.6,302.1 146.8,302.1 146.9,302.8 147.1,302.1 147.2,302.3 147.4,302.6 147.6,303.2 147.7,303.2 147.9,302.3 148.0,303.2 148.2,302.9 148.4,303.0 148.5,303.2 148.7,303.1 148.9,303.6 149.0,304.6 149.2,304.5 149.3,305.6 149.5,304.0 149.7,301.8 149.8,301.1 150.0,299.3 150.1,297.2 150.3,297.6 150.5,298.9 150.6,296.9 150.8,298.0 151.0,298.5 151.1,298.0 151.3,298.7 151.4,299.5 151.6,298.2 151.8,298.5 151.9,299.8 152.1,299.7 152.2,302.1 152.4,302.0 152.6,301.9 152.7,301.7 152.9,301.9 153.1,302.6 153.2,301.9 153.4,302.7 153.5,302.1 153.7,301.6 153.9,301.6 154.0,302.6 154.2,303.2 154.3,303.4 154.5,302.4 154.7,303.5 154.8,303.5 155.0,303.4 155.2,303.3 155.3,301.2 155.5,301.5 155.6,301.4 155.8,300.8 156.0,300.8 156.1,301.3 156.3,300.8 156.4,300.4 156.6,300.3 156.8,300.8 156.9,301.1 157.1,301.2 157.3,301.3 157.4,302.0 157.6,301.9 157.7,302.2 157.9,302.3 158.1,302.2 158.2,302.1 158.4,302.7 158.5,302.7 158.7,302.1 158.9,303.0 159.0,303.3 159.2,303.5 159.4,303.3 159.5,303.5 159.7,304.1 159.8,304.8 160.0,304.9 160.2,303.5 160.3,304.5 160.5,304.4 160.6,304.6 160.8,304.7 161.0,305.0 161.1,305.1 161.3,305.3 161.5,306.2 161.6,305.7 161.8,306.2 161.9,306.1 162.1,305.6 162.3,305.4 162.4,305.5 162.6,305.5 162.7,305.9 162.9,307.0 163.1,306.6 163.2,307.0 163.4,307.6 163.6,306.2 163.7,305.4 163.9,305.4 164.0,305.8 164.2,306.6 164.4,306.9 164.5,307.7 164.7,307.6 164.8,304.9 165.0,305.7 165.2,304.4 165.3,304.0 165.5,304.2 165.7,305.0 165.8,303.9 166.0,302.8 166.1,302.9 166.3,302.9 166.5,302.8 166.6,303.2 166.8,303.4 166.9,304.2 167.1,303.8 167.3,304.0 167.4,303.7 167.6,302.7 167.8,302.8 167.9,304.1 168.1,303.8 168.2,303.6 168.4,304.6 168.6,305.1 168.7,305.7 168.9,306.4 169.0,306.3 169.2,307.2 169.4,307.5 169.5,307.2 169.7,307.3 169.9,307.4 170.0,307.7 170.2,308.6 170.3,308.4 170.5,306.5 170.7,307.3 170.8,307.7 171.0,306.7 171.1,306.1 171.3,305.1 171.5,305.5 171.6,306.4 171.8,305.2 172.0,306.0 172.1,306.7 172.3,307.2 172.4,307.1 172.6,307.9 172.8,308.3 172.9,308.5 173.1,309.0 173.2,308.6 173.4,309.2 173.6,308.4 173.7,308.9 173.9,310.1 174.1,309.9 174.2,310.5 174.4,311.4 174.5,311.3 174.7,311.9 174.9,311.6 175.0,311.5 175.2,311.5 175.3,311.5 175.5,312.6 175.7,312.3 175.8,312.3 176.0,312.9 176.2,313.3 176.3,313.0 176.5,313.0 176.6,314.0 176.8,315.0 177.0,315.0 177.1,313.9 177.3,314.0 177.4,310.3 177.6,310.0 177.8,310.9 177.9,311.0 178.1,311.5 178.3,312.4 178.4,311.7 178.6,311.7 178.7,310.3 178.9,310.8 179.1,310.6 179.2,311.0 179.4,310.7 179.5,309.8 179.7,310.4 179.9,310.7 180.0,311.8 180.2,312.8 180.3,313.0 180.5,313.3 180.7,313.7 180.8,313.6 181.0,314.4 181.2,314.7 181.3,313.2 181.5,313.5 181.6,313.3 181.8,313.8 182.0,314.2 182.1,314.1 182.3,313.7 182.4,313.6 182.6,312.8 182.8,312.9 182.9,311.9 183.1,310.9 183.3,311.1 183.4,311.3 183.6,311.1 183.7,310.4 183.9,310.1 184.1,310.4 184.2,309.4 184.4,309.2 184.5,308.9 184.7,308.5 184.9,307.7 185.0,308.6 185.2,307.7 185.4,308.2 185.5,307.8 185.7,309.5 185.8,309.4 186.0,308.9 186.2,309.4 186.3,309.0 186.5,309.0 186.6,309.1 186.8,309.7 187.0,309.8 187.1,309.1 187.3,308.2 187.5,308.1 187.6,307.8 187.8,308.7 187.9,307.8 188.1,307.7 188.3,308.0 188.4,308.0 188.6,307.2 188.7,306.9 188.9,306.9 189.1,307.0 189.2,306.8 189.4,307.3 189.6,308.3 189.7,309.4 189.9,309.8 190.0,309.6 190.2,310.4 190.4,310.4 190.5,309.8 190.7,309.7 190.8,310.2 191.0,309.6 191.2,309.4 191.3,309.7 191.5,310.4 191.7,310.8 191.8,310.5 192.0,310.7 192.1,310.6 192.3,310.4 192.5,310.3 192.6,310.9 192.8,311.9 192.9,311.9 193.1,312.3 193.3,311.9 193.4,312.1 193.6,311.6 193.8,312.0 193.9,311.8 194.1,311.8 194.2,311.6 194.4,311.7 194.6,312.6 194.7,312.5 194.9,312.6 195.0,312.9 195.2,312.6 195.4,312.6 195.5,311.6 195.7,311.5 195.9,312.2 196.0,311.9 196.2,311.6 196.3,311.5 196.5,311.7 196.7,312.2 196.8,312.0 197.0,312.1 197.1,312.2 197.3,312.8 197.5,312.4 197.6,312.0 197.8,312.0 198.0,311.3 198.1,311.2 198.3,311.2 198.4,310.7 198.6,310.8 198.8,310.5 198.9,310.5 199.1,310.2 199.2,310.5 199.4,310.2 199.6,309.8 199.7,309.4 199.9,309.6 200.1,309.5 200.2,308.9 200.4,309.4 200.5,308.4 200.7,307.5 200.9,306.9 201.0,306.6 201.2,306.5 201.3,306.7 201.5,306.2 201.7,306.4 201.8,307.3 202.0,307.2 202.2,306.2 202.3,305.8 202.5,305.6 202.6,305.5 202.8,305.3 203.0,304.8 203.1,303.5 203.3,303.7 203.4,303.5 203.6,304.2 203.8,303.6 203.9,303.6 204.1,303.2 204.3,303.1 204.4,304.2 204.6,304.2 204.7,304.1 204.9,303.2 205.1,303.3 205.2,303.1 205.4,302.7 205.5,302.7 205.7,302.5 205.9,302.3 206.0,303.2 206.2,303.1 206.4,303.2 206.5,304.5 206.7,304.8 206.8,305.1 207.0,304.8 207.2,304.2 207.3,304.3 207.5,303.7 207.6,303.8 207.8,304.0 208.0,303.3 208.1,303.1 208.3,302.7 208.5,302.7 208.6,303.0 208.8,302.6 208.9,302.3 209.1,301.8 209.3,302.3 209.4,302.0 209.6,301.1 209.7,300.5 209.9,300.0 210.1,299.8 210.2,299.8 210.4,299.0 210.6,298.7 210.7,299.0 210.9,300.3 211.0,299.0 211.2,298.6 211.4,298.3 211.5,297.9 211.7,298.1 211.8,297.3 212.0,297.7 212.2,297.7 212.3,297.0 212.5,297.0 212.7,296.1 212.8,293.6 213.0,291.9 213.1,291.1 213.3,291.7 213.5,289.5 213.6,286.5 213.8,287.6 213.9,287.4 214.1,287.6 214.3,285.8 214.4,285.3 214.6,288.3 214.8,288.8 214.9,288.9 215.1,287.6 215.2,285.7 215.4,285.1 215.6,285.8 215.7,283.8 215.9,284.5 216.0,283.8 216.2,284.0 216.4,288.2 216.5,287.9 216.7,289.6 216.9,289.4 217.0,289.4 217.2,290.1 217.3,290.1 217.5,288.3 217.7,287.4 217.8,287.2 218.0,287.5 218.1,287.6 218.3,287.2 218.5,285.9 218.6,285.9 218.8,285.9 219.0,284.2 219.1,284.3 219.3,282.9 219.4,283.4 219.6,284.3 219.8,282.9 219.9,283.4 220.1,283.3 220.2,282.9 220.4,282.9 220.6,286.8 220.7,286.2 220.9,285.4 221.1,285.4 221.2,287.3 221.4,286.9 221.5,286.3 221.7,286.2 221.9,285.3 222.0,285.5 222.2,286.3 222.3,287.1 222.5,289.6 222.7,290.2 222.8,290.6 223.0,290.8 223.2,292.4 223.3,293.3 223.5,291.8 223.6,291.9 223.8,290.8 224.0,290.6 224.1,292.2 224.3,291.1 224.4,290.2 224.6,290.8 224.8,291.0 224.9,290.8 225.1,290.1 225.3,290.0 225.4,289.7 225.6,289.5 225.7,287.9 225.9,287.7 226.1,287.4 226.2,287.2 226.4,288.3 226.5,287.3 226.7,287.1 226.9,286.8 227.0,287.8 227.2,287.6 227.4,287.2 227.5,286.7 227.7,287.2 227.8,287.2 228.0,286.0 228.2,285.2 228.3,285.1 228.5,285.1 228.6,284.6 228.8,285.3 229.0,285.4 229.1,286.2 229.3,285.5 229.5,284.6 229.6,283.8 229.8,282.0 229.9,282.0 230.1,282.0 230.3,282.5 230.4,282.3 230.6,283.0 230.7,283.2 230.9,281.9 231.1,281.8 231.2,281.8 231.4,283.5 231.6,281.8 231.7,281.4 231.9,280.9 232.0,281.9 232.2,281.5 232.4,280.5 232.5,279.7 232.7,279.7 232.8,279.2 233.0,278.2 233.2,277.7 233.3,278.7 233.5,277.3 233.7,278.4 233.8,279.9 234.0,278.9 234.1,276.7 234.3,276.8 234.5,275.3 234.6,273.6 234.8,272.6 234.9,272.0 235.1,271.4 235.3,271.3 235.4,270.5 235.6,270.9 235.7,269.7 235.9,267.2 236.1,266.4 236.2,263.6 236.4,262.9 236.6,263.7 236.7,263.9 236.9,267.3 237.0,263.1 237.2,262.4 237.4,262.4 237.5,260.7 237.7,259.0 237.8,256.4 238.0,256.1 238.2,255.3 238.3,256.8 238.5,257.5 238.7,255.2 238.8,255.2 239.0,252.8 239.1,253.0 239.3,249.7 239.5,248.3 239.6,248.0 239.8,244.9 239.9,241.2 240.1,238.3 240.3,239.6 240.4,242.6 240.6,236.6 240.8,233.0 240.9,235.4 241.1,235.0 241.2,230.8 241.4,225.7 241.6,224.8 241.7,223.3 241.9,227.8 242.0,224.5 242.2,221.1 242.4,222.5 242.5,231.4 242.7,230.8 242.9,236.0 243.0,237.4 243.2,235.1 243.3,232.2 243.5,230.0 243.7,230.7 243.8,226.0 244.0,224.0 244.1,220.5 244.3,216.2 244.5,215.8 244.6,214.2 244.8,227.5 245.0,222.9 245.1,226.6 245.3,224.8 245.4,226.5 245.6,224.2 245.8,220.5 245.9,218.4 246.1,219.3 246.2,219.0 246.4,217.8 246.6,220.0 246.7,217.5 246.9,219.7 247.1,216.7 247.2,216.0 247.4,214.4 247.5,214.0 247.7,213.7 247.9,211.1 248.0,210.1 248.2,209.4 248.3,210.1 248.5,210.2 248.7,206.6 248.8,204.5 249.0,203.3 249.2,201.5 249.3,200.0 249.5,196.5 249.6,194.2 249.8,192.1 250.0,189.1 250.1,189.5 250.3,184.9 250.4,183.4 250.6,182.3 250.8,190.5 250.9,183.1 251.1,175.5 251.3,174.8 251.4,174.6 251.6,172.2 251.7,173.4 251.9,168.7 252.1,161.9 252.2,161.1 252.4,159.9 252.5,161.1 252.7,159.4 252.9,166.3 253.0,161.2 253.2,157.0 253.4,157.1 253.5,154.2 253.7,152.1 253.8,148.4 254.0,149.5 254.2,146.0 254.3,141.3 254.5,136.2 254.6,151.2 254.8,149.0 255.0,155.6 255.1,171.3 255.3,164.7 255.5,162.4 255.6,155.7 255.8,153.8 255.9,148.8 256.1,143.3 256.3,138.9 256.4,141.1 256.6,139.9 256.7,133.0 256.9,131.7 257.1,136.8 257.2,134.7 257.4,142.4 257.6,151.7 257.7,149.0 257.9,143.0 258.0,152.7 258.2,157.8 258.4,158.1 258.5,154.1 258.7,158.9 258.8,169.9 259.0,160.6 259.2,154.7 259.3,157.2 259.5,156.4 259.7,155.0 259.8,154.8 260.0,161.3 260.1,156.4 260.3,155.5 260.5,155.5 260.6,146.7 260.8,136.8 260.9,136.6 261.1,131.5 261.3,129.0 261.4,128.8 261.6,123.3 261.8,120.6 261.9,129.7 262.1,121.9 262.2,113.2 262.4,107.6 262.6,106.5 262.7,109.5 262.9,103.7 263.0,106.4 263.2,106.7 263.4,102.7 263.5,102.6 263.7,106.7 263.9,111.7 264.0,97.9 264.2,93.3 264.3,89.1 264.5,84.6 264.7,80.2 264.8,78.8 265.0,78.4 265.1,82.6 265.3,78.9 265.5,76.0 265.6,69.4 265.8,72.6 266.0,72.4 266.1,69.8 266.3,76.1 266.4,71.7 266.6,85.2 266.8,81.0 266.9,73.1 267.1,70.6 267.2,65.2 267.4,66.4 267.6,69.4 267.7,65.4 267.9,66.8 268.1,64.4 268.2,67.6 268.4,72.5 268.5,69.0 268.7,60.8 268.9,57.0 269.0,55.7 269.2,55.2 269.3,51.3 269.5,52.5 269.7,48.0 269.8,45.0 270.0,47.8 270.2,59.0 270.3,59.0 270.5,66.6 270.6,63.0 270.8,60.4 271.0,74.0 271.1,70.7 271.3,64.7 271.4,60.0 271.6,55.1 271.8,59.5 271.9,66.6 272.1,72.6 272.3,74.9 272.4,73.1 272.6,86.8 272.7,89.7 272.9,93.0 273.1,95.1 273.2,84.0 273.4,87.5 273.5,91.4 273.7,92.1 273.9,88.1 274.0,91.9 274.2,103.9 274.4,99.5 274.5,102.5 274.7,107.2 274.8,110.6 275.0,100.2 275.2,105.8 275.3,103.9 275.5,100.9 275.6,93.6 275.8,93.4 276.0,89.6 276.1,84.7 276.3,84.3 276.5,87.7 276.6,98.0 276.8,93.0 276.9,99.4 277.1,100.9 277.3,94.7 277.4,89.8 277.6,86.4 277.7,80.8 277.9,80.2 278.1,77.7 278.2,72.2 278.4,73.8 278.6,71.3 278.7,69.3 278.9,66.0 279.0,62.1 279.2,63.6 279.4,59.1 279.5,55.9 279.7,54.5 279.8,52.8 280.0,54.6 280.2,64.8 280.3,72.3 280.5,69.7 280.7,84.0 280.8,105.0 281.0,93.1 281.1,90.4 281.3,87.7 281.5,106.1 281.6,104.5 281.8,107.3 281.9,112.1 282.1,114.7 282.3,94.5 282.4,96.0 282.6,101.6 282.8,98.2 282.9,101.8 283.1,96.6 283.2,90.7 283.4,96.7 283.6,98.4 283.7,107.7 283.9,117.4 284.0,117.7 284.2,111.0 284.4,112.0 284.5,109.2 284.7,103.0 284.9,109.4 285.0,111.6 285.2,108.6 285.3,112.0 285.5,122.1 285.7,121.6 285.8,128.7 286.0,134.6 286.1,136.8 286.3,147.0 286.5,157.8 286.6,151.1 286.8,145.1 287.0,143.2 287.1,152.8 287.3,150.2 287.4,149.8 287.6,158.6 287.8,149.6 287.9,156.4 288.1,167.4 288.2,169.3 288.4,163.8 288.6,153.4 288.7,151.0 288.9,161.8 289.0,158.3 289.2,156.7 289.4,169.9 289.5,167.4 289.7,172.2 289.9,177.9 290.0,184.0 290.2,184.3 290.3,182.7 290.5,174.3 290.7,157.2 290.8,155.7 291.0,159.6 291.1,157.1 291.3,147.4 291.5,142.2 291.6,144.6 291.8,154.7 292.0,149.2 292.1,151.6 292.3,150.3 292.4,153.1 292.6,146.5 292.8,148.0 292.9,148.6 293.1,149.8 293.2,160.6 293.4,156.8 293.6,160.6 293.7,162.5 293.9,168.7 294.1,167.8 294.2,162.5 294.4,167.6 294.5,165.9 294.7,165.2 294.9,165.8 295.0,169.4 295.2,171.2 295.3,172.4 295.5,187.5 295.7,191.1 295.8,194.0 296.0,199.7 296.2,201.1 296.3,206.9 296.5,199.0 296.6,210.7 296.8,206.6 297.0,209.8 297.1,206.5 297.3,200.2 297.4,199.6 297.6,208.4 297.8,209.7 297.9,214.7 298.1,214.6 298.3,211.3 298.4,212.3 298.6,204.8 298.7,203.8 298.9,197.7 299.1,200.0 299.2,201.0 299.4,199.8 299.5,206.4 299.7,212.1 299.9,213.6 300.0,208.4 300.2,203.3 300.4,203.6 300.5,204.8 300.7,199.8 300.8,201.8 301.0,200.6 301.2,203.6 301.3,204.7 301.5,208.9 301.6,207.0 301.8,210.7 302.0,214.4 302.1,213.4 302.3,213.5 302.5,220.4 302.6,227.5 302.8,228.2 302.9,228.2 303.1,228.3 303.3,228.0 303.4,235.2 303.6,233.3 303.7,223.5 303.9,228.2 304.1,230.3 304.2,230.5 304.4,234.2 304.6,234.6 304.7,234.0 304.9,231.0 305.0,235.4 305.2,236.7 305.4,238.8 305.5,238.5 305.7,242.1 305.8,245.2 306.0,244.5 306.2,244.3 306.3,248.1 306.5,247.8 306.7,251.9 306.8,255.7 307.0,257.5 307.1,248.0 307.3,240.8 307.5,245.3 307.6,244.5 307.8,240.0 307.9,238.9 308.1,245.1 308.3,246.5 308.4,250.7 308.6,252.2 308.8,256.9 308.9,252.7 309.1,255.4 309.2,256.5 309.4,261.5 309.6,260.8 309.7,257.4 309.9,258.2 310.0,260.8 310.2,260.7 310.4,263.6 310.5,270.3 310.7,267.6 310.9,270.2 311.0,268.1 311.2,269.9 311.3,270.4 311.5,271.8 311.7,268.4 311.8,270.6 312.0,269.1 312.1,262.5 312.3,263.6 312.5,262.5 312.6,258.6 312.8,254.9 313.0,252.6 313.1,260.5 313.3,254.4 313.4,255.5 313.6,256.2 313.8,260.6 313.9,260.8 314.1,260.3 314.2,258.8 314.4,261.0 314.6,259.2 314.7,258.9 314.9,254.4 315.1,252.8 315.2,251.2 315.4,246.8 315.5,249.7 315.7,246.8 315.9,249.4 316.0,254.0 316.2,253.3 316.3,252.2 316.5,251.8 316.7,249.5 316.8,249.1 317.0,251.0 317.2,256.2 317.3,257.9 317.5,258.8 317.6,259.3 317.8,259.7 318.0,260.8 318.1,261.6 318.3,258.2 318.4,255.0 318.6,255.6 318.8,257.9 318.9,256.3 319.1,256.2 319.3,258.5 319.4,254.3 319.6,254.3 319.7,252.4 319.9,251.3 320.1,250.6 320.2,250.8 320.4,249.5 320.5,250.2 320.7,248.9 320.9,246.1 321.0,243.0 321.2,243.9 321.4,239.3 321.5,236.1 321.7,234.5 321.8,234.2 322.0,234.9 322.2,230.6 322.3,227.3 322.5,231.4 322.6,237.2 322.8,236.0 323.0,233.5 323.1,230.0 323.3,235.8 323.5,235.7 323.6,241.8 323.8,244.4 323.9,243.1 324.1,244.3 324.3,236.7 324.4,235.6 324.6,236.6 324.7,241.1 324.9,239.1 325.1,240.2 325.2,240.4 325.4,241.0 325.6,239.0 325.7,234.7 325.9,234.2 326.0,231.5 326.2,231.6 326.4,228.5 326.5,227.8 326.7,230.5 326.8,226.3 327.0,225.3 327.2,226.1 327.3,224.8 327.5,222.7 327.7,221.2 327.8,221.5 328.0,221.1 328.1,226.3 328.3,224.3 328.5,220.1 328.6,216.9 328.8,215.8 328.9,215.3 329.1,215.3 329.3,217.2 329.4,214.2 329.6,215.9 329.8,221.2 329.9,220.2 330.1,221.3 330.2,224.5 330.4,224.2 330.6,219.6 330.7,218.7 330.9,213.8 331.0,213.1 331.2,211.1 331.4,211.0 331.5,209.8 331.7,213.2 331.9,209.8 332.0,208.5 332.2,209.6 332.3,209.4 332.5,208.7 332.7,207.1 332.8,208.5 333.0,211.9 333.1,212.4 333.3,211.7 333.5,213.5 333.6,211.4 333.8,206.1 334.0,205.8 334.1,201.8 334.3,201.0 334.4,201.8 334.6,201.3 334.8,200.7 334.9,199.1 335.1,200.6 335.2,203.6 335.4,200.4 335.6,200.6 335.7,198.0 335.9,195.5 336.1,194.3 336.2,194.1 336.4,194.1 336.5,192.1 336.7,192.3 336.9,191.7 337.0,188.9 337.2,189.7 337.3,185.9 337.5,183.5 337.7,181.1 337.8,178.6 338.0,180.4 338.2,179.8 338.3,177.4 338.5,177.3 338.6,179.3 338.8,174.3 339.0,172.2 339.1,171.8 339.3,170.8 339.4,167.0 339.6,169.7 339.8,166.2 339.9,163.8 340.1,162.9 340.3,158.9 340.4,158.2 340.6,168.7 340.7,164.7 340.9,159.3 341.1,156.5 341.2,156.6 341.4,159.0 341.5,163.2 341.7,168.9 341.9,169.5 342.0,168.9 342.2,177.3 342.3,175.0 342.5,180.2 342.7,191.1 342.8,189.4 343.0,197.8 343.2,190.8 343.3,187.7 343.5,186.3 343.6,192.7 343.8,189.4 344.0,190.2 344.1,196.1 344.3,207.6 344.4,206.9 344.6,204.4 344.8,195.8 344.9,194.4 345.1,193.0 345.3,189.4 345.4,188.1 345.6,189.9 345.7,185.8 345.9,182.9 346.1,182.4 346.2,184.8 346.4,181.5 346.5,187.9 346.7,187.4 346.9,191.6 347.0,195.3 347.2,194.2 347.4,195.4 347.5,200.0 347.7,200.0 347.8,198.3 348.0,189.8 348.2,190.5 348.3,188.0 348.5,186.4 348.6,185.8 348.8,185.7 349.0,181.0 349.1,178.4 349.3,178.8 349.5,180.0 349.6,176.5 349.8,176.4 349.9,181.8 350.1,181.0 350.3,185.4 350.4,183.6 350.6,177.6 350.7,175.3 350.9,174.3 351.1,173.8 351.2,172.8 351.4,172.1 351.6,171.7 351.7,172.1 351.9,171.9 352.0,170.9 352.2,165.2 352.4,165.0 352.5,164.9 352.7,164.3 352.8,164.9 353.0,163.0 353.2,169.3 353.3,164.9 353.5,172.6 353.7,178.1 353.8,171.2 354.0,168.6 354.1,166.7 354.3,167.0 354.5,164.2 354.6,162.9 354.8,165.2 354.9,169.0 355.1,167.7 355.3,167.9 355.4,165.9 355.6,167.4 355.8,168.6 355.9,172.9 356.1,177.6 356.2,177.4 356.4,182.2 356.6,180.6 356.7,175.1 356.9,175.9 357.0,173.0 357.2,171.8 357.4,168.7 357.5,167.8 357.7,170.0 357.9,168.4 358.0,169.6 358.2,173.4 358.3,172.9 358.5,172.8 358.7,170.0 358.8,176.1 359.0,173.5 359.1,172.8 359.3,171.8 359.5,171.5 359.6,177.5 359.8,176.7 360.0,179.0 360.1,181.0 360.3,185.6 360.4,188.0 360.6,187.5 360.8,187.7 360.9,190.4 361.1,190.7 361.2,186.2 361.4,186.9 361.6,190.4 361.7,190.5 361.9,189.5 362.1,187.1 362.2,186.8 362.4,185.1 362.5,186.1 362.7,188.0 362.9,185.5 363.0,183.0 363.2,183.5 363.3,181.2 363.5,181.9 363.7,180.7 363.8,185.2 364.0,184.7 364.2,183.3 364.3,182.2 364.5,183.6 364.6,183.8 364.8,186.1 365.0,188.8 365.1,187.7 365.3,183.9 365.4,184.3 365.6,182.9 365.8,182.4 365.9,183.8 366.1,183.8 366.3,186.3 366.4,183.9 366.6,179.4 366.7,179.0 366.9,180.1 367.1,177.6 367.2,176.8 367.4,176.9 367.5,177.9 367.7,180.0 367.9,178.3 368.0,179.8 368.2,177.6 368.4,177.0 368.5,177.5 368.7,179.5 368.8,189.1 369.0,189.3 369.2,185.9 369.3,187.8 369.5,188.4 369.6,189.4 369.8,192.8 370.0,193.4 370.1,195.3 370.3,195.0 370.5,197.5 370.6,196.6 370.8,204.1 370.9,207.3 371.1,206.1 371.3,209.2 371.4,208.3 371.6,204.6 371.7,205.6 371.9,213.8 372.1,210.8 372.2,211.2 372.4,213.2 372.6,210.9 372.7,205.3 372.9,208.5 373.0,208.5 373.2,206.0 373.4,206.5 373.5,210.7 373.7,212.2 373.8,211.5 374.0,212.6 374.2,212.2 374.3,214.8 374.5,214.6 374.7,210.2 374.8,211.9 375.0,211.4 375.1,212.3 375.3,214.8 375.5,210.3 375.6,210.1 375.8,211.4 375.9,211.5 376.1,212.6 376.3,213.7 376.4,220.3 376.6,221.9 376.8,223.8 376.9,223.4 377.1,224.6 377.2,221.9 377.4,220.9 377.6,221.2 377.7,217.4 377.9,215.8 378.0,218.1 378.2,217.0 378.4,219.4 378.5,219.0 378.7,215.5 378.9,212.3 379.0,212.0 379.2,210.2 379.3,209.6 379.5,208.6 379.7,209.5 379.8,205.8 380.0,205.1 380.1,205.6 380.3,203.0 380.5,205.7 380.6,205.1 380.8,206.5 381.0,204.0 381.1,202.9 381.3,207.5 381.4,206.5 381.6,208.4 381.8,206.3 381.9,202.7 382.1,201.6 382.2,201.9 382.4,200.9 382.6,204.0 382.7,204.1 382.9,203.3 383.1,206.9 383.2,206.6 383.4,206.1 383.5,203.1 383.7,203.7 383.9,204.7 384.0,202.7 384.2,202.8 384.3,199.9 384.5,199.5 384.7,199.6 384.8,202.5 385.0,202.2 385.2,200.6 385.3,200.4 385.5,203.2 385.6,206.1 385.8,206.0 386.0,206.6 386.1,206.2 386.3,203.6 386.4,204.9 386.6,205.2 386.8,202.0 386.9,196.2 387.1,191.5 387.3,189.3 387.4,186.9 387.6,186.6 387.7,181.1 387.9,182.2 388.1,178.5 388.2,177.4 388.4,178.6 388.5,178.3 388.7,172.9 388.9,173.7 389.0,177.0 389.2,177.3 389.4,178.3 389.5,173.3 389.7,173.8 389.8,176.1 390.0,172.9 390.2,170.8 390.3,169.3 390.5,170.6 390.6,171.9 390.8,171.3 391.0,183.0 391.1,181.7 391.3,189.5 391.5,193.0 391.6,190.7 391.8,189.0 391.9,189.4 392.1,192.8 392.3,189.1 392.4,186.6 392.6,188.2 392.7,188.4 392.9,191.2 393.1,191.3 393.2,190.3 393.4,190.1 393.6,189.7 393.7,187.9 393.9,189.4 394.0,192.0 394.2,189.9 394.4,184.6 394.5,184.2 394.7,185.3 394.8,186.2 395.0,186.5 395.2,189.0 395.3,185.2 395.5,187.1 395.7,188.5 395.8,189.9 396.0,193.2 396.1,196.2 396.3,195.3 396.5,195.1 396.6,191.7 396.8,188.4 396.9,189.2 397.1,190.0 397.3,189.7 397.4,192.8 397.6,191.9 397.7,191.0 397.9,191.0 398.1,193.6 398.2,199.9 398.4,199.7 398.6,196.2 398.7,201.5 398.9,199.4 399.0,201.0 399.2,201.8 399.4,199.7 399.5,197.1 399.7,196.6 399.8,194.5 400.0,194.4 400.2,196.4 400.3,193.0 400.5,192.1 400.7,186.9 400.8,186.9 401.0,185.3 401.1,185.4 401.3,187.2 401.5,184.8 401.6,189.8 401.8,189.2 401.9,188.4 402.1,188.0 402.3,185.8 402.4,184.9 402.6,185.6 402.8,186.7 402.9,184.1 403.1,180.7 403.2,180.5 403.4,180.5 403.6,183.6 403.7,185.3 403.9,184.5 404.0,187.7 404.2,185.3 404.4,188.0 404.5,187.0 404.7,187.5 404.9,186.7 405.0,184.4 405.2,185.1 405.3,182.8 405.5,183.0 405.7,184.8 405.8,184.9 406.0,186.6 406.1,184.0 406.3,182.0 406.5,181.2 406.6,179.7 406.8,180.8 407.0,181.1 407.1,178.7 407.3,179.7 407.4,179.4 407.6,179.4 407.8,182.8 407.9,182.8 408.1,181.6 408.2,182.5 408.4,185.2 408.6,186.2 408.7,187.4 408.9,189.9 409.1,188.3 409.2,187.3 409.4,191.7 409.5,191.8 409.7,192.1 409.9,191.6 410.0,190.4 410.2,190.8 410.3,193.1 410.5,191.7 410.7,193.2 410.8,192.4 411.0,191.1 411.2,192.1 411.3,192.1 411.5,197.3 411.6,197.2 411.8,199.1 412.0,199.7 412.1,200.5 412.3,201.0 412.4,198.5 412.6,198.3 412.8,200.9 412.9,199.3 413.1,198.3 413.3,198.1 413.4,201.1 413.6,200.6 413.7,201.2 413.9,198.9 414.1,200.5 414.2,203.0 414.4,204.3 414.5,205.2 414.7,203.4 414.9,203.4 415.0,200.8 415.2,197.1 415.4,196.6 415.5,196.3 415.7,198.5 415.8,196.2 416.0,195.9 416.2,192.0 416.3,192.0 416.5,192.5 416.6,193.1 416.8,192.7 417.0,192.5 417.1,195.5 417.3,192.9 417.5,192.4 417.6,191.7 417.8,192.0 417.9,193.5 418.1,193.7 418.3,195.4 418.4,194.9 418.6,200.2 418.7,199.7 418.9,198.5 419.1,199.6 419.2,200.0 419.4,199.7 419.6,200.9 419.7,201.0 419.9,200.7 420.0,204.0 420.2,209.6 420.4,209.3 420.5,207.9 420.7,205.7 420.8,205.2 421.0,202.9 421.2,204.0 421.3,204.6 421.5,207.4 421.7,208.8 421.8,210.4 422.0,208.1 422.1,208.7 422.3,203.7 422.5,203.8 422.6,206.4 422.8,207.0 422.9,206.7 423.1,207.4 423.3,209.0 423.4,212.2 423.6,213.3 423.8,210.3 423.9,211.6 424.1,211.8 424.2,213.5 424.4,212.8 424.6,213.0 424.7,212.7 424.9,215.7 425.0,215.1 425.2,210.8 425.4,215.3 425.5,216.2 425.7,219.3 425.9,217.9 426.0,219.3 426.2,220.5 426.3,220.9 426.5,222.2 426.7,222.5 426.8,217.5 427.0,216.6 427.1,217.0 427.3,216.3 427.5,220.3 427.6,220.8 427.8,224.1 428.0,224.8 428.1,221.1 428.3,218.5 428.4,217.1 428.6,216.8 428.8,214.1 428.9,214.8 429.1,214.7 429.2,212.3 429.4,212.2 429.6,211.2 429.7,212.6 429.9,213.1 430.1,211.8 430.2,214.6 430.4,214.8 430.5,211.9 430.7,212.2 430.9,216.2 431.0,216.6 431.2,219.6 431.3,219.4 431.5,219.4 431.7,220.8 431.8,220.5 432.0,221.5 432.2,221.3 432.3,219.4 432.5,224.1 432.6,220.8 432.8,222.2 433.0,224.1 433.1,224.4 433.3,223.7 433.4,223.9 433.6,225.1 433.8,226.4 433.9,229.4 434.1,230.7 434.3,233.7 434.4,231.1 434.6,231.4 434.7,231.8 434.9,233.8 435.1,233.7 435.2,232.8 435.4,234.0 435.5,235.6 435.7,235.5 435.9,235.3 436.0,233.5 436.2,236.0 436.4,237.2 436.5,236.4 436.7,232.3 436.8,228.0 437.0,228.7 437.2,228.7 437.3,230.9 437.5,233.5 437.6,227.3 437.8,229.4 438.0,226.9 438.1,225.0 438.3,227.3 438.5,227.1 438.6,229.0 438.8,226.0 438.9,224.9 439.1,225.0 439.3,227.5 439.4,223.7 439.6,223.7 439.7,223.4 439.9,223.5 440.1,224.1 440.2,222.6 440.4,223.3 440.6,223.3 440.7,223.1 440.9,221.9 441.0,220.0 441.2,219.6 441.4,217.3 441.5,216.9 441.7,216.6 441.8,218.1 442.0,218.1 442.2,215.6 442.3,216.6 442.5,218.8 442.7,219.7 442.8,218.0 443.0,216.5 443.1,217.0 443.3,215.6 443.5,219.6 443.6,220.7 443.8,218.6 443.9,218.3 444.1,220.7 444.3,220.6 444.4,220.8 444.6,222.4 444.8,222.3 444.9,222.7 445.1,226.6 445.2,228.3 445.4,227.6 445.6,224.6 445.7,224.2 445.9,225.5 446.0,224.2 446.2,224.2 446.4,221.5 446.5,220.9 446.7,221.3 446.9,223.0 447.0,219.9 447.2,220.1 447.3,218.5 447.5,219.6 447.7,219.6 447.8,218.5 448.0,218.2 448.1,218.5 448.3,215.4 448.5,215.0 448.6,213.7 448.8,213.6 449.0,214.1 449.1,216.8 449.3,216.8 449.4,217.9 449.6,219.1 449.8,219.0 449.9,221.3 450.1,219.2 450.2,221.3 450.4,220.6 450.6,218.4 450.7,219.0 450.9,220.2 451.0,221.3 451.2,219.1 451.4,217.2 451.5,217.6 451.7,218.2 451.9,218.1 452.0,222.1 452.2,222.1 452.3,222.2 452.5,223.0 452.7,223.9 452.8,222.1 453.0,223.1 453.1,220.9 453.3,222.0 453.5,221.6 453.6,220.9 453.8,222.1 454.0,222.4 454.1,224.6 454.3,227.6 454.4,227.6 454.6,228.1 454.8,229.2 454.9,227.3 455.1,227.1 455.2,226.9 455.4,227.1 455.6,229.0 455.7,226.7 455.9,229.7 456.1,230.2 456.2,229.2 456.4,227.9 456.5,227.9 456.7,230.6 456.9,229.8 457.0,229.8 457.2,229.3 457.3,230.7 457.5,232.4 457.7,231.9 457.8,232.7 458.0,233.4 458.2,233.3 458.3,234.0 458.5,234.2 458.6,232.8 458.8,234.0 459.0,233.0 459.1,231.3 459.3,231.2 459.4,231.1 459.6,229.9 459.8,230.6 459.9,233.1 460.1,232.9 460.3,234.2 460.4,234.9 460.6,235.2 460.7,235.8 460.9,235.2 461.1,236.1 461.2,235.8 461.4,237.2 461.5,239.7 461.7,239.2 461.9,240.5 462.0,240.6 462.2,241.0 462.4,239.7 462.5,241.0 462.7,241.3 462.8,240.3 463.0,235.0 463.2,234.5 463.3,235.3 463.5,234.8 463.6,236.0 463.8,235.1 464.0,238.1 464.1,239.4 464.3,238.8 464.5,241.5 464.6,241.3 464.8,240.4 464.9,240.7 465.1,242.1 465.3,238.5 465.4,236.3 465.6,237.5 465.7,234.8 465.9,234.6 466.1,235.8 466.2,235.7 466.4,236.2 466.6,236.0 466.7,235.9 466.9,234.0 467.0,234.2 467.2,233.7 467.4,235.3 467.5,235.5 467.7,236.4 467.8,238.7 468.0,239.3 468.2,239.1 468.3,238.3 468.5,236.0 468.7,235.5 468.8,235.8 469.0,236.3 469.1,236.6 469.3,238.8 469.5,239.1 469.6,238.5 469.8,240.6 469.9,240.0 470.1,241.6 470.3,242.5 470.4,242.6 470.6,243.1 470.8,241.5 470.9,242.4 471.1,241.6 471.2,242.5 471.4,243.9 471.6,245.0 471.7,245.7 471.9,244.5 472.0,246.1 472.2,244.9 472.4,240.8 472.5,241.1 472.7,238.8 472.9,237.5 473.0,238.1 473.2,237.6 473.3,239.0 473.5,232.9 473.7,232.3 473.8,232.3 474.0,232.1 474.1,231.4 474.3,232.1 474.5,231.6 474.6,228.0 474.8,227.5 475.0,228.2 475.1,226.3 475.3,224.0 475.4,223.9 475.6,223.3 475.8,223.9 475.9,223.8 476.1,223.6 476.2,226.1 476.4,221.1 476.6,220.1 476.7,221.1 476.9,222.4 477.1,220.1 477.2,219.3 477.4,220.1 477.5,219.5 477.7,220.8 477.9,221.4 478.0,217.1 478.2,215.8 478.3,215.2 478.5,215.3 478.7,212.3 478.8,212.0 479.0,210.7 479.2,210.5 479.3,211.4 479.5,210.7 479.6,212.6 479.8,215.3 480.0,214.4 480.1,219.3 480.3,220.1 480.4,219.6 480.6,221.6 480.8,220.2 480.9,216.0 481.1,216.2 481.3,222.8 481.4,218.7 481.6,217.2 481.7,218.9 481.9,219.5 482.1,220.3 482.2,222.3 482.4,223.8 482.5,223.4 482.7,223.1 482.9,225.1 483.0,223.9 483.2,219.4 483.4,219.1 483.5,218.9 483.7,219.2 483.8,221.2 484.0,220.8 484.2,225.3 484.3,225.5 484.5,225.6 484.6,226.0 484.8,226.1 485.0,226.7 485.1,225.8 485.3,226.0 485.5,226.4 485.6,227.3 485.8,228.6 485.9,227.4 486.1,227.5 486.3,227.1 486.4,223.4 486.6,223.6 486.7,227.9 486.9,225.5 487.1,227.0 487.2,228.0 487.4,227.9 487.6,225.6 487.7,223.8 487.9,223.6 488.0,223.0 488.2,223.8 488.4,223.1 488.5,223.6 488.7,225.6 488.8,224.9 489.0,222.4 489.2,220.3 489.3,219.4 489.5,219.1 489.7,218.9 489.8,220.8 490.0,220.0 490.1,219.9 490.3,217.5 490.5,217.6 490.6,218.1 490.8,219.6 490.9,219.8 491.1,221.7 491.3,222.0 491.4,223.8 491.6,226.1 491.8,230.6 491.9,229.7 492.1,230.4 492.2,229.6 492.4,230.5 492.6,234.8 492.7,235.0 492.9,242.8 493.0,243.1 493.2,242.9 493.4,243.3 493.5,241.2 493.7,240.5 493.9,240.1 494.0,241.0 494.2,240.1 494.3,239.8 494.5,243.2 494.7,243.2 494.8,240.0 495.0,234.5 495.1,237.2 495.3,235.5 495.5,235.0 495.6,236.8 495.8,238.8 496.0,241.8 496.1,241.1 496.3,237.7 496.4,238.6 496.6,239.2 496.8,240.0 496.9,242.5 497.1,241.8 497.2,241.6 497.4,238.8 497.6,238.7 497.7,237.1 497.9,236.2 498.1,236.9 498.2,237.1 498.4,236.7 498.5,233.1 498.7,232.8 498.9,233.3 499.0,234.8 499.2,235.7 499.3,234.2 499.5,235.2 499.7,235.5 499.8,235.7 500.0,236.6 500.2,234.0 500.3,233.7 500.5,234.4 500.6,234.9 500.8,235.2 501.0,234.8 501.1,233.0 501.3,233.2 501.4,233.7 501.6,232.8 501.8,228.4 501.9,226.6 502.1,226.1 502.3,224.8 502.4,225.8 502.6,226.4 502.7,229.1 502.9,228.8 503.1,226.7 503.2,228.2 503.4,229.0 503.5,231.4 503.7,230.8 503.9,230.1 504.0,228.3 504.2,227.7 504.3,229.0 504.5,226.9 504.7,226.7 504.8,227.0 505.0,229.4 505.2,229.9 505.3,229.2 505.5,226.8 505.6,228.1 505.8,229.6 506.0,230.5 506.1,232.3 506.3,232.4 506.4,232.1 506.6,230.2 506.8,232.0 506.9,231.4 507.1,231.6 507.3,231.4 507.4,233.1 507.6,233.7 507.7,235.5 507.9,235.1 508.1,233.8 508.2,236.5 508.4,235.7 508.5,233.2 508.7,229.0 508.9,229.9 509.0,229.2 509.2,230.0 509.4,230.7 509.5,231.2 509.7,231.2 509.8,229.8 510.0,228.5 510.2,228.5 510.3,229.6 510.5,228.3 510.6,226.6 510.8,226.9 511.0,227.8 511.1,227.9 511.3,227.7 511.5,229.9 511.6,230.0 511.8,230.2 511.9,232.3 512.1,232.9 512.3,232.9 512.4,234.2 512.6,237.1 512.7,236.7 512.9,236.5 513.1,235.6 513.2,237.8 513.4,235.7 513.6,235.9 513.7,234.3 513.9,234.7 514.0,236.4 514.2,239.2 514.4,239.2 514.5,239.0 514.7,240.1 514.8,241.0 515.0,241.6 515.2,240.6 515.3,240.8 515.5,240.6 515.7,242.4 515.8,243.1 516.0,241.9 516.1,238.9 516.3,239.5 516.5,238.8 516.6,240.4 516.8,240.2 516.9,239.8 517.1,241.1 517.3,240.6 517.4,237.6 517.6,236.7 517.8,236.4 517.9,237.0 518.1,236.1 518.2,235.3 518.4,236.8 518.6,235.4 518.7,236.6 518.9,237.8 519.0,240.5 519.2,243.5 519.4,243.2 519.5,243.7 519.7,242.4 519.9,241.8 520.0,242.1 520.2,243.2 520.3,242.7 520.5,242.9 520.7,246.7 520.8,246.1 521.0,245.8 521.1,244.4 521.3,245.4 521.5,244.3 521.6,244.5 521.8,245.5 522.0,247.3 522.1,243.4 522.3,242.5 522.4,242.6 522.6,242.8 522.8,243.6 522.9,243.8 523.1,244.1 523.2,243.2 523.4,242.3 523.6,243.1 523.7,242.0 523.9,239.3 524.1,239.2 524.2,237.3 524.4,237.5 524.5,237.6 524.7,239.7 524.9,239.5 525.0,239.9 525.2,239.9 525.3,241.9 525.5,241.4 525.7,241.5 525.8,241.8 526.0,243.0 526.2,244.7 526.3,243.5 526.5,243.5 526.6,243.6 526.8,243.5 527.0,244.6 527.1,244.7 527.3,244.8 527.4,242.3 527.6,242.6 527.8,242.7 527.9,244.2 528.1,244.1 528.3,245.8 528.4,245.7 528.6,244.7 528.7,244.9 528.9,244.0 529.1,243.6 529.2,244.1 529.4,242.9 529.5,243.6 529.7,243.6 529.9,243.9 530.0,245.1 530.2,243.9 530.4,244.7 530.5,244.8 530.7,243.3 530.8,243.3 531.0,243.7 531.2,242.5 531.3,241.7 531.5,242.9 531.6,243.4 531.8,245.1 532.0,244.6 532.1,244.8 532.3,244.2 532.5,244.8 532.6,244.0 532.8,243.9 532.9,243.1 533.1,243.1 533.3,242.8 533.4,242.3 533.6,242.4 533.7,242.5 533.9,242.3 534.1,244.0 534.2,244.3 534.4,244.0 534.6,242.8 534.7,242.6 534.9,242.8 535.0,243.5 535.2,243.2 535.4,243.0 535.5,241.6 535.7,241.4 535.8,239.3 536.0,238.0 536.2,234.6 536.3,234.2 536.5,234.7 536.7,233.2 536.8,234.3 537.0,231.9 537.1,232.2 537.3,232.5 537.5,234.4 537.6,234.2 537.8,232.4 537.9,232.9 538.1,232.8 538.3,234.0 538.4,232.7 538.6,231.9 538.8,231.9 538.9,232.4 539.1,233.0 539.2,232.4 539.4,233.6 539.6,234.6 539.7,234.4 539.9,235.3 540.0,233.9 540.2,233.0 540.4,231.3 540.5,230.1 540.7,229.2 540.9,227.9 541.0,228.2 541.2,228.8 541.3,229.3 541.5,228.5 541.7,228.6 541.8,231.2 542.0,230.5 542.1,230.1 542.3,229.2 542.5,231.7 542.6,230.6 542.8,228.3 543.0,228.6 543.1,228.6 543.3,228.0 543.4,227.9 543.6,226.4 543.8,226.2 543.9,227.0 544.1,227.6 544.2,228.1 544.4,227.2 544.6,228.2 544.7,228.3 544.9,227.7 545.1,228.8 545.2,229.6 545.4,230.8 545.5,231.1 545.7,232.2 545.9,229.7 546.0,227.8 546.2,226.9 546.3,224.8 546.5,224.6 546.7,224.5 546.8,225.1 547.0,224.9 547.2,225.1 547.3,221.7 547.5,222.1 547.6,220.2 547.8,221.0 548.0,220.9 548.1,221.7 548.3,223.0 548.4,223.2 548.6,223.3 548.8,220.8 548.9,217.3 549.1,215.3 549.3,213.3 549.4,211.7 549.6,208.8 549.7,208.2 549.9,202.6 550.1,200.3 550.2,193.0 550.4,191.9 550.5,185.1 550.7,192.8 550.9,186.7 551.0,188.8 551.2,188.2 551.4,187.0 551.5,182.4 551.7,179.3 551.8,180.1 552.0,178.1 552.2,177.5 552.3,181.2 552.5,186.3 552.6,180.7 552.8,174.8 553.0,174.2 553.1,174.1 553.3,170.1 553.5,164.3 553.6,164.3 553.8,164.2 553.9,168.7 554.1,169.4 554.3,171.1 554.4,171.1 554.6,171.7 554.7,166.3 554.9,164.7 555.1,179.6 555.2,177.4 555.4,169.3 555.6,168.3 555.7,168.0 555.9,166.1 556.0,167.9 556.2,170.5 556.4,172.8 556.5,175.4 556.7,179.7 556.8,175.2 557.0,177.1 557.2,179.0 557.3,181.9 557.5,180.1 557.7,176.8 557.8,175.4 558.0,174.9 558.1,173.5 558.3,171.9 558.5,170.7 558.6,173.0 558.8,168.3 558.9,168.0 559.1,166.5 559.3,171.4 559.4,170.2 559.6,172.1 559.7,173.0 559.9,169.9 560.1,170.8 560.2,170.6 560.4,166.9 560.6,165.6 560.7,160.9 560.9,158.1 561.0,153.4 561.2,153.7 561.4,150.9 561.5,146.7 561.7,146.6 561.8,148.4 562.0,147.9 562.2,146.7 562.3,140.5 562.5,142.5 562.7,138.6 562.8,138.5 563.0,136.1 563.1,131.3 563.3,129.4 563.5,131.2 563.6,126.8 563.8,122.7 563.9,121.8 564.1,124.9 564.3,117.8 564.4,113.4 564.6,117.3 564.8,112.1 564.9,105.7 565.1,105.6 565.2,107.7 565.4,102.1 565.6,105.6 565.7,103.9 565.9,105.2 566.0,103.1 566.2,113.3 566.4,115.7 566.5,120.1 566.7,115.4 566.9,108.3 567.0,105.3 567.2,106.8 567.3,107.8 567.5,112.2 567.7,114.5 567.8,106.2 568.0,104.9 568.1,100.3 568.3,94.4 568.5,86.5 568.6,81.2 568.8,82.1 569.0,100.7 569.1,100.3 569.3,87.7 569.4,83.2 569.6,84.2 569.8,82.1 569.9,79.5 570.1,72.9 570.2,74.9 570.4,75.3 570.6,75.5 570.7,73.9 570.9,80.0 571.1,88.4 571.2,84.4 571.4,95.5 571.5,111.2 571.7,103.2 571.9,98.2 572.0,107.5 572.2,127.2 572.3,135.0 572.5,119.9 572.7,131.7 572.8,139.4 573.0,151.3 573.2,145.3 573.3,149.0 573.5,163.2 573.6,150.6 573.8,139.5 574.0,133.9 574.1,139.2 574.3,147.0 574.4,145.3 574.6,137.1 574.8,136.6 574.9,136.3 575.1,136.8 575.3,131.8 575.4,135.8 575.6,154.9 575.7,155.3 575.9,148.9 576.1,155.0 576.2,155.0 576.4,154.3 576.5,147.9 576.7,152.3 576.9,154.2 577.0,150.1 577.2,140.7 577.4,141.6 577.5,144.3 577.7,141.2 577.8,141.3 578.0,141.0 578.2,154.5 578.3,151.3 578.5,157.9 578.6,167.1 578.8,183.8 579.0,196.3 579.1,197.2 579.3,187.6 579.5,180.3 579.6,179.0 579.8,179.2 579.9,179.0 580.1,185.2 580.3,180.7 580.4,177.2 580.6,179.5 580.7,180.0 580.9,183.5 581.1,190.4 581.2,182.0 581.4,185.9 581.6,185.1 581.7,182.1 581.9,180.5 582.0,184.5 582.2,183.3 582.4,186.2 582.5,185.6 582.7,189.0 582.8,187.7 583.0,182.7 583.2,180.4 583.3,174.7 583.5,174.8 583.7,176.9 583.8,172.6 584.0,170.0 584.1,170.0 584.3,167.7 584.5,173.3 584.6,170.6 584.8,168.1 584.9,167.1 585.1,166.9 585.3,170.5 585.4,170.1 585.6,170.0 585.8,173.2 585.9,173.7 586.1,165.0 586.2,160.9 586.4,156.2 586.6,153.7 586.7,154.1 586.9,154.1 587.0,156.1 587.2,158.7 587.4,157.8 587.5,158.1 587.7,160.4 587.9,157.2 588.0,157.2 588.2,158.3 588.3,158.3 588.5,156.8 588.7,158.0 588.8,168.8 589.0,168.3 589.1,167.0 589.3,160.0 589.5,158.6 589.6,162.4 589.8,161.9 590.0,165.3 590.1,164.6 590.3,165.3 590.4,166.1 590.6,160.6 590.8,161.5 590.9,162.0 591.1,158.2 591.2,157.6 591.4,152.3 591.6,151.8 591.7,152.3 591.9,154.3 592.1,153.8 592.2,159.7 592.4,157.9 592.5,157.7 592.7,159.5 592.9,173.5 593.0,173.0 593.2,169.7 593.3,182.8 593.5,179.3 593.7,188.3 593.8,187.0 594.0,190.2 594.2,186.7 594.3,192.2 594.5,191.6 594.6,186.6 594.8,189.2 595.0,194.2 595.1,192.5 595.3,191.7 595.4,201.7 595.6,202.3 595.8,206.4 595.9,201.4 596.1,203.8 596.3,200.6 596.4,201.3 596.6,199.4 596.7,200.5 596.9,201.4 597.1,196.6 597.2,195.2 597.4,195.7 597.5,195.8 597.7,192.2 597.9,193.8 598.0,192.7 598.2,202.9 598.4,201.3 598.5,205.1 598.7,202.3 598.8,195.8 599.0,195.4 599.2,193.5 599.3,193.0 599.5,192.8 599.6,194.7 599.8,197.8 600.0,197.6 600.1,195.0 600.3,194.6 600.5,193.7 600.6,191.9 600.8,189.4 600.9,185.2 601.1,186.5 601.3,186.0 601.4,188.8 601.6,188.0 601.7,189.5 601.9,191.3 602.1,187.0 602.2,186.9 602.4,186.7 602.6,184.4 602.7,184.8 602.9,187.4 603.0,188.6 603.2,186.3 603.4,186.9 603.5,184.6 603.7,183.8 603.8,184.0 604.0,186.4 604.2,185.8 604.3,188.9 604.5,190.0 604.7,189.2 604.8,189.9 605.0,189.0 605.1,189.7 605.3,190.0 605.5,190.2 605.6,187.2 605.8,187.4 605.9,187.1 606.1,191.6 606.3,195.0 606.4,194.9 606.6,194.1 606.8,193.7 606.9,194.6 607.1,193.5 607.2,194.0 607.4,194.9 607.6,195.2 607.7,194.4 607.9,193.9 608.0,195.2 608.2,195.4 608.4,195.1 608.5,195.2 608.7,195.0 608.9,189.5 609.0,190.0 609.2,189.6 609.3,188.4 609.5,189.0 609.7,189.1 609.8,189.8 610.0,195.0 610.1,194.5 610.3,192.3 610.5,193.5 610.6,192.7 610.8,192.5 611.0,192.9 611.1,191.4 611.3,192.3 611.4,194.4 611.6,192.1 611.8,191.3 611.9,190.5 612.1,190.3 612.2,190.3 612.4,187.6 612.6,187.5 612.7,187.0 612.9,187.3 613.0,188.3 613.2,187.7 613.4,184.0 613.5,183.5 613.7,183.8 613.9,183.8 614.0,184.6 614.2,185.3 614.3,185.9 614.5,185.1 614.7,186.5 614.8,186.2 615.0,184.2 615.1,186.9 615.3,186.7 615.5,187.7 615.6,189.1 615.8,188.5 616.0,188.2 616.1,187.8 616.3,187.6 616.4,186.1 616.6,184.8 616.8,185.6 616.9,186.1 617.1,182.8 617.2,177.6 617.4,178.4 617.6,178.6 617.7,179.1 617.9,179.1 618.1,180.6 618.2,180.3 618.4,180.9 618.5,182.1 618.7,182.2 618.9,182.1 619.0,181.9 619.2,181.1 619.3,182.5 619.5,181.8 619.7,181.5 619.8,180.3 620.0,180.4 620.2,180.4 620.3,181.6 620.5,184.5 620.6,184.7 620.8,185.8 621.0,184.5 621.1,184.8 621.3,184.3 621.4,183.0 621.6,183.8 621.8,186.8 621.9,185.7 622.1,186.2 622.3,185.5 622.4,185.0 622.6,182.9 622.7,182.2 622.9,182.5 623.1,182.4 623.2,182.2 623.4,183.7 623.5,181.4 623.7,181.7 623.9,181.5 624.0,181.1 624.2,178.9 624.4,178.9 624.5,179.6 624.7,180.1 624.8,180.4 625.0,180.6 625.2,179.4 625.3,180.8 625.5,179.1 625.6,179.7 625.8,179.5 626.0,178.7 626.1,179.7 626.3,177.7 626.5,176.3 626.6,175.6 626.8,175.6 626.9,175.6 627.1,175.3 627.3,176.3 627.4,175.0 627.6,173.6 627.7,173.2 627.9,172.5 628.1,170.7 628.2,170.0 628.4,168.4 628.6,169.8 628.7,168.4 628.9,170.3 629.0,173.5 629.2,174.0 629.4,173.2 629.5,173.5 629.7,172.2 629.8,176.7 630.0,176.9 630.2,178.3 630.3,180.4 630.5,180.1 630.7,181.0 630.8,182.1 631.0,180.5 631.1,180.6 631.3,182.1 631.5,181.3 631.6,181.7 631.8,182.4 631.9,182.7 632.1,182.0 632.3,180.3 632.4,178.9 632.6,178.9 632.8,180.0 632.9,179.1 633.1,179.4 633.2,180.7 633.4,181.6 633.6,181.5 633.7,181.5 633.9,181.1 634.0,180.4 634.2,181.0 634.4,179.6 634.5,179.1 634.7,179.1 634.9,178.5 635.0,177.8 635.2,179.1 635.3,178.6 635.5,179.0 635.7,178.1 635.8,177.4 636.0,176.5 636.1,175.3 636.3,175.3 636.5,176.0 636.6,175.0 636.8,176.1 637.0,173.4 637.1,172.8 637.3,172.4 637.4,173.3 637.6,173.3 637.8,174.7 637.9,174.4 638.1,174.1 638.2,175.3 638.4,175.7 638.6,174.7 638.7,174.3 638.9,174.6 639.1,175.8 639.2,175.7 639.4,174.1 639.5,174.2 639.7,173.8 639.9,172.9 640.0,174.8 640.2,174.6 640.3,173.7 640.5,174.5 640.7,173.9 640.8,172.4 641.0,173.0 641.2,173.5 641.3,173.7 641.5,175.2 641.6,174.2 641.8,171.7 642.0,171.1 642.1,170.9 642.3,171.6 642.4,170.9 642.6,171.4 642.8,171.1 642.9,172.6 643.1,172.9 643.3,173.9 643.4,174.8 643.6,173.9 643.7,173.6 643.9,175.5 644.1,175.0 644.2,174.8 644.4,174.7 644.5,175.1 644.7,175.8 644.9,176.5 645.0,177.0 645.2,178.1 645.4,179.4 645.5,179.7 645.7,180.5 645.8,179.5 646.0,178.0 646.2,177.2 646.3,175.7 646.5,176.7 646.6,177.3 646.8,177.0 647.0,176.6 647.1,175.9 647.3,175.9 647.5,172.6 647.6,172.9 647.8,172.2 647.9,172.0 648.1,172.6 648.3,173.5 648.4,172.2 648.6,170.1 648.7,168.6 648.9,167.8 649.1,167.9 649.2,167.5 649.4,170.0 649.6,170.3 649.7,170.9 649.9,169.0 650.0,169.4 650.2,167.2 650.4,167.0 650.5,165.3 650.7,162.9 650.8,162.5 651.0,164.1 651.2,162.9 651.3,163.0 651.5,163.8 651.7,165.5 651.8,163.3 652.0,163.3 652.1,163.5 652.3,163.7 652.5,162.8 652.6,163.4 652.8,161.9 652.9,161.0 653.1,163.1 653.3,162.9 653.4,159.6 653.6,158.6 653.8,159.7 653.9,158.9 654.1,160.1 654.2,160.9 654.4,160.5 654.6,160.0 654.7,159.2 654.9,157.4 655.0,157.9 655.2,159.7 655.4,160.8 655.5,159.8 655.7,159.5 655.9,159.5 656.0,160.3 656.2,164.0 656.3,161.5 656.5,160.9 656.7,161.1 656.8,160.1 657.0,159.9 657.1,159.0 657.3,158.4 657.5,158.2 657.6,159.3 657.8,156.1 658.0,153.6 658.1,154.0 658.3,154.0 658.4,154.7 658.6,154.2 658.8,153.4 658.9,152.8 659.1,153.2 659.2,154.3 659.4,154.5 659.6,154.5 659.7,153.8 659.9,153.6 660.1,154.3 660.2,154.2 660.4,153.6 660.5,154.1 660.7,153.6 660.9,153.8 661.0,153.8 661.2,154.9 661.3,154.7 661.5,154.7 661.7,154.7 661.8,153.9 662.0,151.5 662.2,151.1 662.3,150.4 662.5,149.8 662.6,149.4 662.8,149.8 663.0,149.8 663.1,148.2 663.3,148.9 663.4,149.1 663.6,148.9 663.8,147.3 663.9,146.4 664.1,145.5 664.3,144.0 664.4,144.7 664.6,144.8 664.7,145.4 664.9,145.3 665.1,145.6 665.2,144.1 665.4,142.3 665.5,142.6 665.7,141.1 665.9,139.2 666.0,138.3 666.2,139.9 666.3,141.3 666.5,139.6 666.7,138.7 666.8,137.5 667.0,133.6 667.2,133.0 667.3,139.7 667.5,139.6 667.6,142.5 667.8,142.2 668.0,142.3 668.1,144.9 668.3,145.3 668.4,144.2 668.6,143.0 668.8,144.3 668.9,146.7 669.1,145.0 669.3,141.5 669.4,144.3 669.6,142.5 669.7,143.8 669.9,146.2 670.1,146.0 670.2,143.3 670.4,143.6 670.5,141.6 670.7,142.3 670.9,143.0 671.0,142.3 671.2,145.7 671.4,144.2 671.5,143.5 671.7,140.5 671.8,139.2 672.0,138.3 672.2,137.8 672.3,136.6 672.5,135.1 672.6,134.1 672.8,134.2 673.0,133.2 673.1,133.2 673.3,131.4 673.5,131.9 673.6,130.7 673.8,130.0 673.9,127.2 674.1,124.8 674.3,124.4 674.4,125.7 674.6,124.8 674.7,129.1 674.9,131.5 675.1,130.5 675.2,132.1 675.4,130.7 675.6,130.6 675.7,137.2 675.9,142.5 676.0,144.5 676.2,153.7 676.4,151.0 676.5,148.6 676.7,146.9 676.8,142.4 677.0,141.4 677.2,138.9 677.3,142.0 677.5,143.9 677.7,142.6 677.8,144.3 678.0,144.2 678.1,141.6 678.3,143.2 678.5,141.0 678.6,139.4 678.8,138.4 678.9,140.3 679.1,141.3 679.3,140.1 679.4,142.2 679.6,141.2 679.8,141.0 679.9,141.9 680.1,144.1 680.2,150.3 680.4,151.6 680.6,149.8 680.7,153.6 680.9,150.8 681.0,150.6 681.2,151.2 681.4,152.5 681.5,152.9 681.7,153.0 681.9,149.1 682.0,148.5 682.2,150.6 682.3,152.1 682.5,155.4 682.7,158.6 682.8,157.7 683.0,155.2 683.1,157.9 683.3,157.7 683.5,153.5 683.6,154.3 683.8,158.2 684.0,158.2 684.1,157.8 684.3,156.2 684.4,157.2 684.6,154.0 684.8,151.7 684.9,152.0 685.1,150.9 685.2,152.0 685.4,150.0 685.6,149.2 685.7,150.9 685.9,152.4 686.1,150.4 686.2,149.4 686.4,150.2 686.5,152.9 686.7,154.4 686.9,155.0 687.0,154.1 687.2,155.6 687.3,159.9 687.5,155.7 687.7,157.4 687.8,155.5 688.0,153.4 688.2,153.9 688.3,154.2 688.5,156.9 688.6,156.9 688.8,154.5 689.0,156.5 689.1,157.3 689.3,158.3 689.4,165.4 689.6,164.6 689.8,166.9 689.9,166.1 690.1,168.6 690.3,170.2 690.4,174.0 690.6,175.9 690.7,171.3 690.9,176.8 691.1,176.7 691.2,179.1 691.4,180.3 691.5,179.1 691.7,174.0 691.9,173.6 692.0,176.8 692.2,172.9 692.4,172.3 692.5,173.4 692.7,174.6 692.8,175.5 693.0,175.7 693.2,172.2 693.3,170.5 693.5,167.5 693.6,167.7 693.8,169.9 694.0,170.7 694.1,171.1 694.3,170.9 694.5,174.7 694.6,178.8 694.8,181.7 694.9,184.0 695.1,178.9 695.3,181.8 695.4,177.3 695.6,176.9 695.7,177.7 695.9,178.7 696.1,183.0 696.2,183.8 696.4,186.3 696.6,184.3 696.7,181.1 696.9,182.1 697.0,181.5 697.2,181.2 697.4,176.9 697.5,177.2 697.7,177.9 697.8,179.8 698.0,180.7 698.2,181.4 698.3,179.1 698.5,182.6 698.7,184.5 698.8,183.7 699.0,186.3 699.1,186.6 699.3,187.8 699.5,185.9 699.6,185.6 699.8,187.6 699.9,184.2 700.1,181.9 700.3,182.0 700.4,176.6 700.6,178.3 700.8,176.3 700.9,177.0 701.1,175.1 701.2,183.0 701.4,183.1 701.6,183.5 701.7,191.9 701.9,189.4 702.0,191.8 702.2,193.2 702.4,192.2 702.5,196.2 702.7,191.3 702.9,184.1 703.0,188.8 703.2,188.5 703.3,188.2 703.5,189.3 703.7,194.4 703.8,192.7 704.0,190.3 704.1,189.1 704.3,183.1 704.5,184.5 704.6,185.6 704.8,186.7 705.0,187.2 705.1,189.6 705.3,187.6 705.4,185.9 705.6,187.6 705.8,185.6 705.9,184.8 706.1,182.8 706.2,186.9 706.4,186.5 706.6,187.1 706.7,190.9 706.9,191.0 707.1,191.2 707.2,189.0 707.4,191.2 707.5,189.3 707.7,184.6 707.9,184.3 708.0,185.1 708.2,188.9 708.3,188.9 708.5,190.8 708.7,190.0 708.8,189.4 709.0,186.8 709.2,189.7 709.3,189.9 709.5,191.7 709.6,193.7 709.8,195.0 710.0,197.0 710.1,196.5 710.3,197.6 710.4,198.4 710.6,199.1 710.8,198.0 710.9,200.2 711.1,200.4 711.3,196.6 711.4,195.7 711.6,196.0 711.7,194.4 711.9,194.7 712.1,193.5 712.2,194.9 712.4,191.7 712.5,191.7 712.7,192.6 712.9,189.6 713.0,188.6 713.2,190.9 713.4,191.0 713.5,190.1 713.7,188.7 713.8,188.7 714.0,188.2 714.2,189.6 714.3,187.8 714.5,185.3 714.6,182.2 714.8,180.9 715.0,177.4 715.1,177.1 715.3,180.5 715.5,174.8 715.6,175.1 715.8,174.4 715.9,174.9 716.1,170.8 716.3,159.6 716.4,162.0 716.6,162.3 716.7,162.8 716.9,158.5 717.1,156.2 717.2,155.0 717.4,153.3 717.6,155.4 717.7,163.5 717.9,159.6 718.0,158.2 718.2,159.9 718.4,161.3 718.5,158.8 718.7,153.1 718.8,154.0 719.0,154.0 719.2,153.9 719.3,154.1 719.5,158.9 719.7,161.2 719.8,158.9 720.0,159.7 720.1,152.0 720.3,146.6 720.5,146.7 720.6,144.0 720.8,141.9 720.9,142.1 721.1,141.2 721.3,140.6 721.4,145.3 721.6,145.8 721.7,146.5 721.9,140.6 722.1,140.5 722.2,141.3 722.4,138.7 722.6,143.8 722.7,144.2 722.9,143.6 723.0,148.3 723.2,151.1 723.4,150.5 723.5,149.8 723.7,162.0 723.8,160.1 724.0,162.9 724.2,166.5 724.3,159.6 724.5,162.9 724.7,164.1 724.8,159.7 725.0,158.8 725.1,163.9 725.3,165.6 725.5,163.0 725.6,163.9 725.8,167.4 725.9,166.9 726.1,164.5 726.3,162.7 726.4,163.1 726.6,164.3 726.8,164.9 726.9,164.8 727.1,166.6 727.2,166.7 727.4,168.4 727.6,166.0 727.7,160.2 727.9,161.7 728.0,162.0 728.2,163.6 728.4,163.6 728.5,162.9 728.7,160.3 728.9,154.3 729.0,154.0 729.2,153.7 729.3,155.8 729.5,156.2 729.7,154.0 729.8,154.5 730.0,148.6 730.1,148.5 730.3,150.9 730.5,152.0 730.6,150.9 730.8,155.7 731.0,156.2 731.1,156.6 731.3,156.6 731.4,155.4 731.6,154.6 731.8,155.5 731.9,155.6 732.1,157.5 732.2,155.4 732.4,156.8 732.6,156.4 732.7,154.8 732.9,153.1 733.1,152.7 733.2,153.0 733.4,152.1 733.5,154.0 733.7,155.7 733.9,158.7 734.0,162.5 734.2,164.6 734.3,165.4 734.5,162.8 734.7,164.7 734.8,161.2 735.0,163.0 735.2,162.1 735.3,161.5 735.5,160.6 735.6,156.3 735.8,156.5 736.0,156.8 736.1,156.2 736.3,154.7 736.4,157.7 736.6,155.0 736.8,155.7 736.9,156.4 737.1,155.9 737.3,153.3 737.4,153.0 737.6,151.3 737.7,149.2 737.9,147.9 738.1,146.6 738.2,147.4 738.4,148.9 738.5,146.7 738.7,147.4 738.9,151.0 739.0,150.0 739.2,149.2 739.4,148.6 739.5,151.0 739.7,150.5 739.8,152.1 740.0,153.7 740.2,153.0 740.3,155.1 740.5,153.8 740.6,153.5 740.8,151.9 741.0,149.9 741.1,147.7 741.3,148.6 741.5,149.3 741.6,149.2 741.8,152.2 741.9,151.5 742.1,150.7 742.3,152.1 742.4,152.1 742.6,150.7 742.7,149.1 742.9,150.0 743.1,151.0 743.2,151.2 743.4,147.7 743.6,146.4 743.7,145.0 743.9,146.0 744.0,145.6 744.2,146.6 744.4,150.4 744.5,150.3 744.7,150.5 744.8,150.2 745.0,151.7 745.2,150.1 745.3,148.0 745.5,150.1 745.7,151.1 745.8,153.2 746.0,151.7 746.1,151.0 746.3,151.8 746.5,152.5 746.6,154.3 746.8,153.9 746.9,153.1 747.1,153.2 747.3,151.6 747.4,150.4 747.6,150.8 747.8,150.5 747.9,150.4 748.1,151.0 748.2,146.9 748.4,145.8 748.6,143.0 748.7,143.4 748.9,143.7 749.0,144.3 749.2,146.9 749.4,145.6 749.5,145.7 749.7,143.8 749.9,144.0 750.0,140.8 750.2,140.0 750.3,137.1 750.5,137.4 750.7,138.3 750.8,136.6 751.0,139.2 751.1,136.4 751.3,136.5 751.5,134.3 751.6,135.0 751.8,136.3 752.0,137.2 752.1,136.9 752.3,135.3 752.4,139.1 752.6,138.1 752.8,145.0 752.9,161.8 753.1,156.6 753.2,154.3 753.4,150.5 753.6,150.5 753.7,149.7 753.9,147.7 754.1,146.0 754.2,147.3 754.4,145.8 754.5,141.1 754.7,142.1 754.9,142.4 755.0,137.5 755.2,137.2 755.3,138.1 755.5,138.6 755.7,141.3 755.8,140.7 756.0,148.4 756.2,141.5 756.3,140.3 756.5,139.0 756.6,134.2 756.8,137.8 757.0,145.3 757.1,140.8 757.3,143.7 757.4,147.8 757.6,150.8 757.8,159.7 757.9,160.7 758.1,164.6 758.3,167.1 758.4,163.7 758.6,170.2 758.7,165.2 758.9,160.0 759.1,161.3 759.2,160.7 759.4,162.6 759.5,161.9 759.7,162.5 759.9,159.4 760.0,160.5 760.2,156.0 760.4,156.9 760.5,156.2 760.7,157.5 760.8,158.4 761.0,154.5 761.2,156.0 761.3,155.7 761.5,153.7 761.6,153.0 761.8,155.4 762.0,153.8 762.1,154.3 762.3,156.0 762.5,154.6 762.6,153.2 762.8,152.3 762.9,149.8 763.1,148.6 763.3,149.2 763.4,147.1 763.6,147.3 763.7,147.3 763.9,146.9 764.1,149.2 764.2,149.8 764.4,149.3 764.6,147.5 764.7,148.6 764.9,149.8 765.0,154.6 765.2,154.3 765.4,152.0 765.5,153.4 765.7,152.8 765.8,152.3 766.0,146.7 766.2,146.1 766.3,146.1 766.5,146.1 766.7,145.1 766.8,144.0 767.0,142.7 767.1,143.1 767.3,145.4 767.5,145.0 767.6,147.6 767.8,144.4 767.9,144.2 768.1,142.8 768.3,139.9 768.4,139.7 768.6,138.7 768.8,137.8 768.9,139.3 769.1,136.4 769.2,132.0 769.4,127.3 769.6,122.8 769.7,109.4 769.9,107.9 770.0,103.9 770.2,100.3 770.4,105.0 770.5,99.7 770.7,102.1 770.9,105.5 771.0,117.6 771.2,116.1 771.3,108.9 771.5,108.3 771.7,107.1 771.8,107.2 772.0,118.2 772.1,117.0 772.3,114.9 772.5,108.9 772.6,110.2 772.8,108.1 773.0,104.0 773.1,103.8 773.3,103.7 773.4,104.5 773.6,107.4 773.8,106.5 773.9,108.8 774.1,110.6 774.2,111.3 774.4,107.6 774.6,101.7 774.7,101.8 774.9,105.7 775.0,108.9 775.2,106.8 775.4,104.8 775.5,104.5 775.7,107.5 775.9,106.2 776.0,100.1 776.2,101.6 776.3,100.2 776.5,100.1 776.7,101.6 776.8,104.1 777.0,109.5 777.1,108.1 777.3,114.0 777.5,114.1 777.6,111.7 777.8,110.4 778.0,108.4 778.1,110.1 778.3,111.4 778.4,105.8 778.6,108.3 778.8,111.3 778.9,110.4 779.1,115.1 779.2,114.8 779.4,114.1 779.6,113.6 779.7,113.8 779.9,108.8 780.1,101.3 780.2,100.4 780.4,102.1 780.5,102.6 780.7,102.9 780.9,104.9 781.0,102.8 781.2,102.9 781.3,103.7 781.5,106.8 781.7,108.3 781.8,107.9 782.0,105.8 782.2,103.9 782.3,108.1 782.5,106.7 782.6,103.7 782.8,101.8 783.0,97.9 783.1,97.9 783.3,92.8 783.4,94.3 783.6,96.9 783.8,96.7 783.9,99.5 784.1,96.9 784.3,97.4 784.4,97.6 784.6,95.7 784.7,94.8 784.9,91.5 785.1,93.2 785.2,96.6 785.4,96.1 785.5,92.8 785.7,93.9 785.9,88.2 786.0,88.2 786.2,88.8 786.4,88.3 786.5,90.6 786.7,91.3 786.8,94.9 787.0,95.0 787.2,97.7 787.3,95.3 787.5,94.7 787.6,94.3 787.8,90.9 788.0,91.8 788.1,89.3 788.3,93.7 788.5,91.4 788.6,91.8 788.8,89.6 788.9,88.4 789.1,89.5 789.3,85.7 789.4,80.5 789.6,77.5 789.7,72.1 789.9,69.5 790.1,64.4 790.2,65.4 790.4,68.3 790.6,60.0 790.7,61.0 790.9,66.7 791.0,67.4 791.2,64.1 791.4,68.5 791.5,66.4 791.7,61.7 791.8,61.4 792.0,58.4 792.2,64.4 792.3,63.6 792.5,71.7 792.7,73.0 792.8,69.5 793.0,65.1 793.1,65.9 793.3,66.5 793.5,66.0 793.6,61.7 793.8,55.2 793.9,48.7 794.1,50.8 794.3,50.2 794.4,59.9 794.6,60.9 794.8,68.5 794.9,66.8 795.1,73.8 795.2,69.5 795.4,73.2 795.6,67.7 795.7,76.8 795.9,77.8 796.0,87.5 796.2,93.4 796.4,91.6 796.5,85.0 796.7,84.0 796.9,89.9 797.0,87.6 797.2,86.4 797.3,84.2 797.5,91.4 797.7,88.8 797.8,91.3 798.0,95.6 798.1,95.7 798.3,89.8 798.5,89.3 798.6,86.8 798.8,89.2 799.0,85.9 799.1,83.2 799.3,84.3 799.4,86.3 799.6,85.8 799.8,89.9 799.9,94.6 800.1,95.0 800.2,92.8 800.4,94.5 800.6,93.6 800.7,87.2 800.9,87.4 801.1,86.5 801.2,87.1 801.4,84.6 801.5,87.7 801.7,87.0 801.9,85.5 802.0,83.1 802.2,85.2 802.3,88.6 802.5,92.0 802.7,92.2 802.8,90.6 803.0,89.4 803.2,92.2 803.3,85.9 803.5,81.9 803.6,81.8 803.8,82.6 804.0,81.9 804.1,84.7 804.3,83.5 804.4,74.8 804.6,74.7 804.8,73.8 804.9,74.7 805.1,74.1 805.3,73.6 805.4,76.3 805.6,78.2 805.7,76.7 805.9,77.0 806.1,79.4 806.2,79.2 806.4,77.3 806.5,79.8 806.7,82.9 806.9,87.5 807.0,86.4 807.2,86.3 807.4,87.0 807.5,85.3 807.7,83.9 807.8,83.5 808.0,79.0 808.2,78.4 808.3,81.6 808.5,79.9 808.6,79.6 808.8,87.5 809.0,87.2 809.1,87.4 809.3,84.3 809.5,87.1 809.6,88.1 809.8,84.7 809.9,84.2 810.1,87.4 810.3,83.7 810.4,86.8 810.6,85.8 810.7,86.0 810.9,84.1 811.1,83.7 811.2,87.1 811.4,95.8 811.6,105.1 811.7,104.6 811.9,99.8 812.0,101.9 812.2,95.4 812.4,95.3 812.5,92.9 812.7,94.6 812.8,96.0 813.0,92.6 813.2,89.5 813.3,91.0 813.5,93.2 813.7,94.7 813.8,95.0 814.0,100.5 814.1,97.5 814.3,99.2 814.5,104.1 814.6,100.6 814.8,97.8 814.9,97.2 815.1,102.4 815.3,101.0 815.4,101.8 815.6,102.2 815.8,98.8 815.9,98.8 816.1,100.2 816.2,95.4 816.4,92.2 816.6,93.3 816.7,93.4 816.9,91.1 817.0,92.3 817.2,96.2 817.4,98.9 817.5,102.1 817.7,99.5 817.9,101.3 818.0,99.6 818.2,99.9 818.3,98.4 818.5,98.0 818.7,100.7 818.8,98.9 819.0,95.6 819.1,95.2 819.3,98.0 819.5,95.0 819.6,96.4 819.8,95.4 820.0,98.5 820.1,95.9 820.3,96.6 820.4,95.7 820.6,94.0 820.8,92.9 820.9,93.8 821.1,97.2 821.2,99.1 821.4,96.7 821.6,97.6 821.7,100.4 821.9,101.4 822.1,98.8 822.2,100.2 822.4,99.9 822.5,100.0 822.7,101.4 822.9,97.2 823.0,97.8 823.2,98.1 823.3,98.0 823.5,97.9 823.7,100.5 823.8,97.7 824.0,96.5 824.2,96.4 824.3,96.3 824.5,97.3 824.6,99.3 824.8,99.7 825.0,100.8 825.1,100.1 825.3,99.5 825.4,97.1 825.6,97.5 825.8,96.0 825.9,92.0 826.1,87.6 826.3,88.9 826.4,87.3 826.6,89.2 826.7,91.5 826.9,90.0 827.1,94.2 827.2,98.2 827.4,96.4 827.5,96.4 827.7,94.6 827.9,96.0 828.0,96.1 828.2,94.2 828.3,98.0 828.5,96.0 828.7,95.0 828.8,96.2 829.0,98.9 829.2,101.5 829.3,101.3 829.5,100.1 829.6,102.6 829.8,100.1 830.0,104.3 830.1,106.4 830.3,104.2 830.4,101.8 830.6,103.5 830.8,101.2 830.9,103.6 831.1,103.2 831.3,109.0 831.4,107.2 831.6,112.1 831.7,115.1 831.9,111.3 832.1,112.7 832.2,110.4 832.4,111.0 832.5,113.1 832.7,115.7 832.9,113.2 833.0,112.2 833.2,111.6 833.4,110.4 833.5,111.3 833.7,114.5 833.8,111.9 834.0,116.9 834.2,114.6 834.3,114.1 834.5,112.1 834.6,114.3 834.8,115.7 835.0,118.7 835.1,126.4 835.3,131.0 835.5,133.1 835.6,129.6 835.8,128.8 835.9,135.9 836.1,146.0 836.3,136.9 836.4,132.5 836.6,131.0 836.7,131.4 836.9,131.6 837.1,130.4 837.2,131.8 837.4,135.9 837.6,137.3 837.7,138.0 837.9,131.6 838.0,133.3 838.2,130.4 838.4,131.1 838.5,134.0 838.7,132.9 838.8,139.8 839.0,135.6 839.2,137.7 839.3,135.0 839.5,135.1 839.7,136.3 839.8,138.0 840.0,141.4 840.1,145.4 840.3,144.5 840.5,155.1 840.6,156.7 840.8,150.8 840.9,149.4 841.1,144.3 841.3,144.6 841.4,150.0 841.6,151.7 841.8,149.5 841.9,146.4 842.1,147.4 842.2,145.8 842.4,147.5 842.6,144.9 842.7,145.6 842.9,145.2 843.0,141.0 843.2,142.3 843.4,147.4 843.5,146.1 843.7,145.6 843.9,145.1 844.0,143.6 844.2,140.3 844.3,140.7 844.5,140.4 844.7,136.3 844.8,135.6 845.0,133.5 845.1,135.8 845.3,132.4 845.5,135.1 845.6,133.3 845.8,130.3 846.0,131.8 846.1,128.7 846.3,127.5 846.4,127.8 846.6,130.7 846.8,126.8 846.9,124.1 847.1,121.5 847.2,119.0 847.4,122.7 847.6,119.3 847.7,120.3 847.9,118.7 848.1,119.1 848.2,122.6 848.4,121.5 848.5,122.3 848.7,126.3 848.9,128.4 849.0,128.0 849.2,128.0 849.3,131.9 849.5,129.6 849.7,130.8 849.8,130.0 850.0,132.6 850.2,132.5 850.3,133.8 850.5,132.1 850.6,133.2 850.8,133.1 851.0,136.1 851.1,135.1 851.3,139.5 851.4,141.6 851.6,139.8 851.8,136.8 851.9,137.3 852.1,136.8 852.3,139.3 852.4,134.9 852.6,135.0 852.7,135.3 852.9,135.7 853.1,133.6 853.2,135.6 853.4,137.1 853.5,135.5 853.7,136.6 853.9,140.8 854.0,139.0 854.2,139.4 854.4,140.4 854.5,141.1 854.7,141.0 854.8,142.8 855.0,143.9"/>
</svg>
