<svg xmlns="http://www.w3.org/2000/svg" width="900" height="360">
<rect width="100%" height="100%" fill="white"/>
<text x="30" y="20" font-size="16">沪深300期货 价格</text>
<polyline fill="none" stroke="#1f77b4" stroke-width="2" points="30.0,221.1 30.3,238.5 30.6,237.2 30.8,232.9 31.1,235.4 31.4,236.6 31.7,236.8 32.0,243.2 32.2,244.0 32.5,247.6 32.8,245.8 33.1,248.2 33.3,248.2 33.6,257.0 33.9,262.5 34.2,260.9 34.5,270.2 34.7,267.5 35.0,262.8 35.3,265.3 35.6,276.8 35.9,269.5 36.1,271.6 36.4,273.3 36.7,270.3 37.0,262.2 37.3,269.3 37.5,267.2 37.8,262.2 38.1,265.1 38.4,271.0 38.6,273.4 38.9,272.3 39.2,274.5 39.5,273.5 39.8,277.9 40.0,276.4 40.3,271.3 40.6,272.8 40.9,273.1 41.2,274.8 41.4,276.9 41.7,270.0 42.0,270.6 42.3,273.1 42.6,272.7 42.8,274.1 43.1,275.0 43.4,286.3 43.7,288.1 43.9,290.8 44.2,290.7 44.5,291.9 44.8,289.2 45.1,288.9 45.3,288.9 45.6,282.4 45.9,281.5 46.2,284.3 46.5,282.6 46.7,285.5 47.0,284.7 47.3,278.6 47.6,274.7 47.9,274.8 48.1,271.6 48.4,271.7 48.7,270.6 49.0,272.1 49.2,263.4 49.5,264.2 49.8,264.6 50.1,260.2 50.4,265.8 50.6,264.5 50.9,266.6 51.2,260.8 51.5,261.3 51.8,267.4 52.0,267.2 52.3,268.2 52.6,266.0 52.9,260.1 53.2,258.6 53.4,257.4 53.7,255.8 54.0,260.6 54.3,261.9 54.5,261.2 54.8,265.8 55.1,265.1 55.4,264.5 55.7,259.9 55.9,261.5 56.2,263.1 56.5,260.0 56.8,259.7 57.1,255.0 57.3,254.6 57.6,254.7 57.9,258.5 58.2,259.1 58.5,257.0 58.7,257.0 59.0,260.8 59.3,264.1 59.6,264.1 59.9,264.5 60.1,264.6 60.4,262.0 60.7,263.0 61.0,262.8 61.2,258.1 61.5,250.0 61.8,243.3 62.1,242.0 62.4,237.8 62.6,234.3 62.9,222.9 63.2,228.0 63.5,220.4 63.8,217.6 64.0,218.4 64.3,217.1 64.6,205.8 64.9,209.6 65.2,215.3 65.4,213.2 65.7,220.7 66.0,209.9 66.3,214.3 66.5,216.5 66.8,212.3 67.1,208.0 67.4,207.9 67.7,210.7 67.9,212.2 68.2,208.4 68.5,226.9 68.8,226.1 69.1,237.4 69.3,241.8 69.6,239.1 69.9,234.8 70.2,239.2 70.5,244.6 70.7,238.5 71.0,236.1 71.3,237.3 71.6,237.4 71.8,242.1 72.1,242.7 72.4,240.9 72.7,240.3 73.0,240.6 73.2,236.6 73.5,241.6 73.8,243.1 74.1,240.6 74.4,232.3 74.6,232.1 74.9,231.7 75.2,233.2 75.5,231.8 75.8,237.6 76.0,230.0 76.3,234.8 76.6,236.9 76.9,238.6 77.1,244.8 77.4,248.4 77.7,247.0 78.0,246.8 78.3,241.8 78.5,239.0 78.8,239.4 79.1,240.5 79.4,240.6 79.7,244.6 79.9,243.1 80.2,242.0 80.5,242.6 80.8,246.5 81.1,256.6 81.3,256.4 81.6,250.8 81.9,257.8 82.2,255.1 82.4,256.7 82.7,257.5 83.0,255.4 83.3,251.9 83.6,250.7 83.8,248.0 84.1,247.5 84.4,251.3 84.7,246.0 85.0,245.0 85.2,236.0 85.5,235.0 85.8,232.5 86.1,233.4 86.4,235.8 86.6,231.6 86.9,240.0 87.2,240.3 87.5,238.9 87.7,237.2 88.0,233.9 88.3,234.0 88.6,234.7 88.9,236.4 89.1,231.2 89.4,226.9 89.7,225.2 90.0,226.7 90.3,231.1 90.5,234.3 90.8,233.6 91.1,238.4 91.4,234.9 91.7,236.3 91.9,235.7 92.2,235.9 92.5,235.8 92.8,232.8 93.0,233.0 93.3,230.4 93.6,230.6 93.9,232.4 94.2,233.2 94.4,234.8 94.7,232.2 95.0,229.7 95.3,228.4 95.6,225.0 95.8,226.7 96.1,228.2 96.4,224.3 96.7,225.2 97.0,224.5 97.2,225.9 97.5,229.4 97.8,229.0 98.1,228.7 98.3,229.7 98.6,233.4 98.9,234.1 99.2,235.9 99.5,238.7 99.7,238.9 100.0,237.5 100.3,244.0 100.6,244.7 100.9,243.7 101.1,243.4 101.4,242.4 101.7,243.1 102.0,247.1 102.3,244.2 102.5,246.0 102.8,245.1 103.1,242.5 103.4,244.0 103.6,244.2 103.9,252.5 104.2,252.4 104.5,253.1 104.8,254.9 105.0,255.9 105.3,256.6 105.6,254.7 105.9,254.2 106.2,257.3 106.4,255.4 106.7,254.7 107.0,253.8 107.3,257.7 107.6,258.5 107.8,257.9 108.1,255.6 108.4,257.5 108.7,260.1 109.0,263.3 109.2,263.7 109.5,262.2 109.8,262.5 110.1,257.4 110.3,251.2 110.6,251.3 110.9,251.1 111.2,252.9 111.5,251.5 111.7,250.4 112.0,244.6 112.3,244.8 112.6,245.2 112.9,245.2 113.1,244.7 113.4,246.0 113.7,250.0 114.0,245.7 114.3,245.2 114.5,243.2 114.8,244.5 115.1,245.0 115.4,246.7 115.6,248.4 115.9,248.3 116.2,256.2 116.5,255.7 116.8,254.8 117.0,255.1 117.3,256.6 117.6,255.3 117.9,257.2 118.2,257.5 118.4,257.3 118.7,262.7 119.0,270.7 119.3,268.7 119.6,269.7 119.8,264.0 120.1,265.5 120.4,262.7 120.7,264.0 120.9,263.1 121.2,266.6 121.5,269.9 121.8,271.5 122.1,267.8 122.3,270.3 122.6,261.3 122.9,262.8 123.2,265.9 123.5,267.8 123.7,266.6 124.0,268.1 124.3,269.7 124.6,274.5 124.9,275.4 125.1,272.3 125.4,273.4 125.7,274.4 126.0,276.5 126.2,275.9 126.5,275.9 126.8,275.6 127.1,280.9 127.4,278.0 127.6,273.1 127.9,279.6 128.2,280.9 128.5,285.9 128.8,282.5 129.0,284.9 129.3,285.8 129.6,288.6 129.9,288.9 130.2,290.1 130.4,283.6 130.7,282.0 131.0,281.8 131.3,281.3 131.5,286.8 131.8,287.5 132.1,292.4 132.4,292.7 132.7,288.3 132.9,284.6 133.2,281.4 133.5,280.3 133.8,278.1 134.1,278.9 134.3,279.4 134.6,272.2 134.9,274.6 135.2,272.5 135.5,273.9 135.7,275.1 136.0,274.5 136.3,278.3 136.6,278.8 136.8,274.2 137.1,275.1 137.4,279.7 137.7,280.3 138.0,285.0 138.2,285.3 138.5,285.5 138.8,287.5 139.1,286.5 139.4,288.5 139.6,287.6 139.9,286.2 140.2,292.1 140.5,287.7 140.8,289.2 141.0,291.5 141.3,292.8 141.6,291.4 141.9,291.9 142.1,293.5 142.4,295.2 142.7,299.3 143.0,300.9 143.3,306.9 143.5,303.1 143.8,302.2 144.1,304.0 144.4,305.7 144.7,305.8 144.9,305.6 145.2,306.9 145.5,308.7 145.8,308.7 146.1,308.6 146.3,305.8 146.6,310.0 146.9,311.1 147.2,310.6 147.4,304.3 147.7,297.4 148.0,298.7 148.3,298.7 148.6,301.6 148.8,306.2 149.1,295.4 149.4,299.1 149.7,295.3 150.0,293.1 150.2,296.9 150.5,296.3 150.8,299.2 151.1,295.4 151.4,293.7 151.6,294.0 151.9,297.3 152.2,291.5 152.5,291.8 152.7,291.8 153.0,291.9 153.3,292.8 153.6,289.7 153.9,290.9 154.1,290.4 154.4,290.2 154.7,288.9 155.0,286.7 155.3,285.9 155.5,281.7 155.8,280.9 156.1,280.9 156.4,282.3 156.7,283.3 156.9,279.6 157.2,280.9 157.5,283.7 157.8,285.3 158.1,283.4 158.3,281.2 158.6,282.6 158.9,280.2 159.2,285.3 159.4,286.3 159.7,284.2 160.0,284.0 160.3,286.7 160.6,286.3 160.8,286.7 161.1,288.7 161.4,288.9 161.7,289.2 162.0,295.0 162.2,297.3 162.5,298.1 162.8,293.5 163.1,292.7 163.4,294.3 163.6,293.0 163.9,292.7 164.2,288.6 164.5,287.5 164.7,288.4 165.0,290.4 165.3,285.7 165.6,285.5 165.9,283.5 166.1,284.8 166.4,285.9 166.7,284.1 167.0,283.3 167.3,283.3 167.5,279.4 167.8,278.8 168.1,277.0 168.4,277.2 168.7,278.2 168.9,281.3 169.2,281.3 169.5,283.9 169.8,286.1 170.0,286.0 170.3,288.9 170.6,285.8 170.9,288.9 171.2,287.7 171.4,285.8 171.7,287.4 172.0,287.8 172.3,289.2 172.6,286.5 172.8,282.8 173.1,283.8 173.4,283.5 173.7,284.0 174.0,290.8 174.2,290.2 174.5,290.5 174.8,291.7 175.1,293.3 175.3,290.2 175.6,291.1 175.9,289.6 176.2,290.6 176.5,289.5 176.7,288.6 177.0,289.7 177.3,290.5 177.6,293.5 177.9,297.0 178.1,297.5 178.4,298.0 178.7,299.2 179.0,296.9 179.3,297.3 179.5,296.9 179.8,296.8 180.1,298.8 180.4,296.0 180.6,299.9 180.9,300.6 181.2,300.1 181.5,298.7 181.8,297.8 182.0,301.0 182.3,300.6 182.6,300.9 182.9,299.7 183.2,300.9 183.4,304.1 183.7,303.8 184.0,304.5 184.3,305.2 184.6,304.6 184.8,305.3 185.1,305.3 185.4,304.8 185.7,306.3 185.9,305.0 186.2,303.6 186.5,303.0 186.8,303.1 187.1,300.9 187.3,301.5 187.6,305.0 187.9,305.8 188.2,307.2 188.5,306.8 188.7,307.7 189.0,309.1 189.3,308.6 189.6,309.6 189.9,308.5 190.1,310.8 190.4,314.5 190.7,314.6 191.0,315.8 191.2,316.7 191.5,317.1 191.8,315.7 192.1,317.6 192.4,317.6 192.6,315.1 192.9,307.1 193.2,307.4 193.5,308.5 193.8,308.0 194.0,310.3 194.3,308.1 194.6,312.9 194.9,314.7 195.2,313.4 195.4,317.5 195.7,317.1 196.0,316.7 196.3,316.9 196.5,318.4 196.8,313.8 197.1,309.2 197.4,312.3 197.7,308.5 197.9,308.7 198.2,308.8 198.5,309.8 198.8,310.2 199.1,310.5 199.3,309.7 199.6,306.4 199.9,306.7 200.2,306.3 200.5,308.5 200.7,308.6 201.0,309.8 201.3,314.3 201.6,314.9 201.8,314.8 202.1,314.0 202.4,309.9 202.7,309.8 203.0,309.8 203.2,311.1 203.5,311.0 203.8,314.8 204.1,314.8 204.4,314.5 204.6,317.3 204.9,317.0 205.2,318.4 205.5,319.7 205.8,320.3 206.0,319.9 206.3,319.0 206.6,319.4 206.9,318.9 207.2,320.0 207.4,321.8 207.7,323.1 208.0,324.4 208.3,323.4 208.5,325.0 208.8,323.9 209.1,317.2 209.4,318.1 209.7,314.0 209.9,312.9 210.2,313.5 210.5,312.9 210.8,314.2 211.1,304.5 211.3,304.6 211.6,304.0 211.9,303.7 212.2,301.7 212.5,303.0 212.7,303.1 213.0,298.2 213.3,297.4 213.6,297.1 213.8,294.5 214.1,291.3 214.4,291.7 214.7,291.7 215.0,291.9 215.2,292.4 215.5,291.4 215.8,294.5 216.1,287.5 216.4,286.7 216.6,288.8 216.9,288.2 217.2,285.5 217.5,285.7 217.8,286.2 218.0,285.1 218.3,287.1 218.6,287.0 218.9,282.0 219.1,280.7 219.4,278.5 219.7,278.4 220.0,274.7 220.3,274.4 220.5,271.3 220.8,270.2 221.1,270.3 221.4,271.6 221.7,274.2 221.9,277.6 222.2,277.5 222.5,285.2 222.8,286.9 223.1,286.0 223.3,289.2 223.6,287.4 223.9,280.1 224.2,281.0 224.4,290.5 224.7,285.1 225.0,282.5 225.3,285.1 225.6,285.5 225.8,287.0 226.1,290.2 226.4,292.1 226.7,292.1 227.0,291.7 227.2,293.5 227.5,292.0 227.8,285.6 228.1,285.0 228.4,284.3 228.6,284.6 228.9,288.6 229.2,288.5 229.5,293.8 229.7,295.7 230.0,295.7 230.3,293.9 230.6,296.1 230.9,297.3 231.1,295.9 231.4,295.9 231.7,296.6 232.0,297.4 232.3,299.1 232.5,298.4 232.8,298.1 233.1,297.9 233.4,291.6 233.7,291.8 233.9,298.5 234.2,295.0 234.5,297.5 234.8,299.2 235.0,299.2 235.3,295.5 235.6,293.7 235.9,292.4 236.2,291.0 236.4,292.7 236.7,291.6 237.0,293.8 237.3,296.6 237.6,296.7 237.8,292.4 238.1,288.6 238.4,286.9 238.7,286.4 239.0,286.2 239.2,288.7 239.5,287.3 239.8,288.5 240.1,283.7 240.3,284.2 240.6,284.4 240.9,286.4 241.2,286.6 241.5,289.4 241.7,290.1 242.0,291.6 242.3,296.3 242.6,303.7 242.9,302.8 243.1,302.7 243.4,302.0 243.7,304.2 244.0,309.1 244.3,310.7 244.5,323.8 244.8,325.4 245.1,324.6 245.4,324.9 245.6,320.9 245.9,321.3 246.2,321.5 246.5,322.7 246.8,320.7 247.0,320.5 247.3,324.1 247.6,324.2 247.9,318.1 248.2,308.7 248.4,312.3 248.7,311.1 249.0,310.0 249.3,311.8 249.6,316.0 249.8,322.0 250.1,321.0 250.4,315.0 250.7,315.8 250.9,317.6 251.2,319.1 251.5,321.3 251.8,321.0 252.1,321.2 252.3,314.9 252.6,315.2 252.9,313.1 253.2,312.1 253.5,313.7 253.7,313.2 254.0,311.4 254.3,306.5 254.6,306.0 254.9,306.1 255.1,308.0 255.4,311.5 255.7,308.1 256.0,309.7 256.3,309.3 256.5,309.7 256.8,312.1 257.1,307.2 257.4,307.3 257.6,308.6 257.9,309.2 258.2,310.2 258.5,308.1 258.8,306.5 259.0,307.0 259.3,307.1 259.6,306.0 259.9,299.6 260.2,296.6 260.4,295.9 260.7,294.1 261.0,294.6 261.3,296.0 261.6,299.2 261.8,299.4 262.1,296.9 262.4,298.5 262.7,299.6 262.9,303.1 263.2,302.5 263.5,301.6 263.8,299.2 264.1,297.8 264.3,300.1 264.6,297.1 264.9,296.9 265.2,297.5 265.5,300.3 265.7,301.5 266.0,301.2 266.3,297.1 266.6,298.7 266.9,300.9 267.1,302.0 267.4,305.6 267.7,305.3 268.0,304.9 268.2,303.1 268.5,303.9 268.8,303.1 269.1,303.7 269.4,303.9 269.6,306.3 269.9,306.5 270.2,309.5 270.5,308.9 270.8,307.8 271.0,310.9 271.3,310.7 271.6,306.9 271.9,301.2 272.2,301.2 272.4,300.0 272.7,301.2 273.0,301.8 273.3,303.2 273.5,303.1 273.8,300.6 274.1,298.5 274.4,297.8 274.7,299.7 274.9,298.3 275.2,295.8 275.5,295.7 275.8,297.0 276.1,297.5 276.3,297.4 276.6,300.7 276.9,301.4 277.2,301.3 277.5,305.2 277.7,305.8 278.0,304.9 278.3,306.5 278.6,310.4 278.8,309.9 279.1,310.0 279.4,308.9 279.7,310.9 280.0,308.3 280.2,308.5 280.5,306.8 280.8,307.9 281.1,310.2 281.4,315.2 281.6,315.3 281.9,315.1 282.2,316.5 282.5,317.0 282.8,318.1 283.0,317.0 283.3,317.5 283.6,317.5 283.9,318.5 284.1,319.7 284.4,317.9 284.7,314.0 285.0,314.9 285.3,314.3 285.5,316.3 285.8,316.0 286.1,315.2 286.4,318.5 286.7,317.2 286.9,313.6 287.2,312.2 287.5,311.7 287.8,312.5 288.1,311.3 288.3,310.0 288.6,311.6 288.9,309.7 289.2,311.8 289.4,313.1 289.7,317.9 290.0,322.8 290.3,322.5 290.6,322.6 290.8,320.5 291.1,321.3 291.4,320.8 291.7,322.5 292.0,321.0 292.2,323.1 292.5,329.4 292.8,327.3 293.1,327.6 293.4,326.0 293.6,326.4 293.9,323.4 294.2,325.3 294.5,324.6 294.7,330.0 295.0,322.1 295.3,322.4 295.6,322.2 295.9,322.2 296.1,323.6 296.4,322.8 296.7,323.0 297.0,321.8 297.3,320.4 297.5,321.7 297.8,319.4 298.1,314.6 298.4,315.5 298.7,311.6 298.9,312.7 299.2,312.6 299.5,315.5 299.8,315.8 300.0,316.1 300.3,316.4 300.6,320.0 300.9,319.3 301.2,319.6 301.4,319.8 301.7,320.6 302.0,322.9 302.3,321.6 302.6,322.7 302.8,321.9 303.1,322.8 303.4,323.5 303.7,323.4 304.0,323.4 304.2,320.1 304.5,321.1 304.8,322.0 305.1,323.5 305.4,324.0 305.6,326.5 305.9,326.5 306.2,324.9 306.5,325.3 306.7,323.0 307.0,322.6 307.3,323.0 307.6,320.5 307.9,322.2 308.1,322.6 308.4,323.3 308.7,324.4 309.0,322.5 309.3,324.4 309.5,324.2 309.8,321.8 310.1,322.3 310.4,322.4 310.7,320.2 310.9,319.5 311.2,320.6 311.5,321.7 311.8,324.0 312.0,323.8 312.3,324.6 312.6,323.8 312.9,324.3 313.2,323.6 313.4,323.0 313.7,322.1 314.0,321.9 314.3,321.4 314.6,321.0 314.8,321.1 315.1,321.4 315.4,321.1 315.7,323.8 316.0,323.8 316.2,323.4 316.5,321.4 316.8,321.4 317.1,321.3 317.3,322.0 317.6,321.7 317.9,321.8 318.2,319.5 318.5,319.2 318.7,315.2 319.0,312.4 319.3,307.5 319.6,307.6 319.9,308.1 320.1,304.7 320.4,307.0 320.7,303.5 321.0,305.0 321.3,305.4 321.5,307.7 321.8,307.3 322.1,305.6 322.4,305.1 322.6,304.9 322.9,306.8 323.2,304.2 323.5,304.3 323.8,304.5 324.0,305.3 324.3,306.0 324.6,304.6 324.9,306.6 325.2,307.4 325.4,307.5 325.7,308.0 326.0,306.3 326.3,306.4 326.6,303.2 326.8,301.5 327.1,298.7 327.4,296.8 327.7,297.8 327.9,299.1 328.2,301.0 328.5,299.3 328.8,299.8 329.1,302.9 329.3,302.2 329.6,301.3 329.9,299.1 330.2,303.3 330.5,302.1 330.7,296.9 331.0,298.0 331.3,298.3 331.6,298.0 331.9,298.1 332.1,295.7 332.4,296.4 332.7,296.8 333.0,298.0 333.2,299.3 333.5,298.0 333.8,298.7 334.1,298.8 334.4,298.1 334.6,299.2 334.9,300.1 335.2,302.0 335.5,302.7 335.8,303.9 336.0,300.3 336.3,297.8 336.6,296.8 336.9,292.5 337.2,293.5 337.4,293.5 337.7,293.2 338.0,293.0 338.3,294.7 338.5,289.2 338.8,290.4 339.1,287.6 339.4,288.7 339.7,288.1 339.9,289.0 340.2,290.4 340.5,291.1 340.8,290.1 341.1,286.2 341.3,280.4 341.6,276.4 341.9,274.7 342.2,274.0 342.5,268.3 342.7,269.6 343.0,259.5 343.3,254.6 343.6,238.7 343.8,239.7 344.1,228.1 344.4,242.9 344.7,236.0 345.0,237.7 345.2,237.1 345.5,234.8 345.8,228.5 346.1,215.9 346.4,215.0 346.6,214.1 346.9,222.4 347.2,229.3 347.5,233.6 347.8,223.8 348.0,215.7 348.3,216.3 348.6,215.7 348.9,206.8 349.1,200.6 349.4,201.7 349.7,201.2 350.0,209.3 350.3,212.1 350.5,211.3 350.8,211.9 351.1,214.0 351.4,199.6 351.7,200.9 351.9,229.0 352.2,222.8 352.5,210.6 352.8,209.4 353.1,206.5 353.3,204.1 353.6,208.3 353.9,212.4 354.2,214.8 354.5,220.0 354.7,222.5 355.0,217.9 355.3,222.9 355.6,225.9 355.8,226.7 356.1,224.2 356.4,219.3 356.7,218.5 357.0,215.1 357.2,214.3 357.5,210.7 357.8,209.7 358.1,215.3 358.4,205.3 358.6,207.3 358.9,205.8 359.2,211.1 359.5,211.6 359.8,213.8 360.0,215.1 360.3,209.1 360.6,212.1 360.9,210.9 361.1,206.9 361.4,204.5 361.7,197.2 362.0,193.1 362.3,189.2 362.5,185.9 362.8,180.7 363.1,174.7 363.4,177.2 363.7,178.1 363.9,179.5 364.2,175.4 364.5,163.0 364.8,171.4 365.1,164.4 365.3,165.7 365.6,157.7 365.9,155.0 366.2,154.4 366.4,156.1 366.7,144.1 367.0,140.5 367.3,140.9 367.6,143.6 367.8,132.5 368.1,125.8 368.4,132.9 368.7,124.7 369.0,113.3 369.2,116.9 369.5,116.4 369.8,109.9 370.1,116.5 370.4,112.5 370.6,112.8 370.9,113.6 371.2,124.8 371.5,127.6 371.7,133.9 372.0,130.9 372.3,121.5 372.6,117.9 372.9,121.9 373.1,121.1 373.4,129.2 373.7,131.3 374.0,112.3 374.3,112.2 374.5,102.8 374.8,92.3 375.1,81.6 375.4,72.2 375.7,70.9 375.9,98.7 376.2,102.4 376.5,74.2 376.8,73.0 377.0,79.5 377.3,74.1 377.6,75.7 377.9,67.3 378.2,74.1 378.4,73.9 378.7,70.2 379.0,65.2 379.3,78.2 379.6,88.6 379.8,85.0 380.1,99.0 380.4,126.4 380.7,115.7 381.0,105.5 381.2,127.2 381.5,157.2 381.8,173.1 382.1,143.7 382.3,169.5 382.6,163.8 382.9,179.7 383.2,171.0 383.5,198.5 383.7,217.2 384.0,189.5 384.3,160.9 384.6,167.4 384.9,174.1 385.1,185.6 385.4,173.6 385.7,167.0 386.0,178.3 386.3,176.7 386.5,178.6 386.8,159.5 387.1,173.3 387.4,202.5 387.6,202.0 387.9,188.6 388.2,202.0 388.5,198.8 388.8,203.2 389.0,187.3 389.3,193.3 389.6,192.9 389.9,185.9 390.2,171.6 390.4,174.2 390.7,176.9 391.0,173.0 391.3,173.6 391.6,173.9 391.8,193.9 392.1,199.6 392.4,206.2 392.7,216.8 392.9,243.8 393.2,268.6 393.5,274.4 393.8,251.9 394.1,239.3 394.3,248.7 394.6,254.4 394.9,257.1 395.2,246.6 395.5,227.3 395.7,228.1 396.0,230.6 396.3,229.4 396.6,243.9 396.9,243.0 397.1,229.9 397.4,235.1 397.7,243.2 398.0,235.7 398.2,235.7 398.5,241.4 398.8,239.4 399.1,244.9 399.4,242.3 399.6,247.7 399.9,244.6 400.2,237.1 400.5,229.5 400.8,220.6 401.0,221.1 401.3,224.1 401.6,214.8 401.9,219.4 402.2,223.8 402.4,217.0 402.7,226.9 403.0,221.9 403.3,216.2 403.6,216.7 403.8,216.0 404.1,221.3 404.4,219.1 404.7,219.2 404.9,222.1 405.2,224.2 405.5,207.0 405.8,203.2 406.1,194.0 406.3,192.2 406.6,192.2 406.9,189.8 407.2,193.7 407.5,196.5 407.7,202.3 408.0,205.8 408.3,206.6 408.6,199.2 408.9,202.7 409.1,204.7 409.4,201.8 409.7,198.7 410.0,201.3 410.2,215.3 410.5,215.4 410.8,212.3 411.1,198.9 411.4,198.3 411.6,203.2 411.9,204.7 412.2,208.0 412.5,206.8 412.8,208.9 413.0,206.8 413.3,197.3 413.6,200.6 413.9,200.3 414.2,193.9 414.4,197.9 414.7,190.3 415.0,188.7 415.3,189.9 415.5,192.3 415.8,189.7 416.1,202.5 416.4,198.6 416.7,198.5 416.9,201.6 417.2,220.3 417.5,221.6 417.8,217.1 418.1,234.7 418.3,229.6 418.6,242.2 418.9,238.6 419.2,242.1 419.5,238.0 419.7,252.1 420.0,251.0 420.3,243.6 420.6,248.4 420.8,253.5 421.1,251.0 421.4,250.8 421.7,262.4 422.0,264.9 422.2,269.0 422.5,262.0 422.8,263.7 423.1,258.4 423.4,259.2 423.6,256.0 423.9,259.4 424.2,260.0 424.5,253.0 424.8,255.3 425.0,255.8 425.3,255.9 425.6,251.0 425.9,252.5 426.1,251.2 426.4,266.6 426.7,264.0 427.0,271.2 427.3,265.2 427.5,253.6 427.8,253.7 428.1,250.1 428.4,247.6 428.7,248.3 428.9,253.0 429.2,255.7 429.5,255.4 429.8,251.0 430.1,250.6 430.3,249.4 430.6,244.5 430.9,244.3 431.2,237.5 431.4,238.8 431.7,238.6 432.0,242.7 432.3,241.3 432.6,243.9 432.8,246.0 433.1,239.1 433.4,239.0 433.7,237.8 434.0,235.4 434.2,235.2 434.5,238.1 434.8,239.9 435.1,237.2 435.4,237.1 435.6,234.2 435.9,232.8 436.2,235.3 436.5,239.0 436.7,238.9 437.0,245.1 437.3,245.1 437.6,243.0 437.9,244.1 438.1,242.9 438.4,244.3 438.7,244.6 439.0,244.1 439.3,238.3 439.5,239.3 439.8,238.9 440.1,247.3 440.4,252.6 440.7,251.5 440.9,250.1 441.2,249.0 441.5,248.9 441.8,247.7 442.0,247.8 442.3,252.8 442.6,253.2 442.9,251.6 443.2,250.9 443.4,252.1 443.7,252.6 444.0,252.3 444.3,251.7 444.6,251.4 444.8,241.6 445.1,243.8 445.4,243.5 445.7,240.1 446.0,241.7 446.2,241.5 446.5,242.5 446.8,252.0 447.1,250.3 447.3,246.3 447.6,252.0 447.9,251.4 448.2,250.4 448.5,251.3 448.7,248.3 449.0,249.4 449.3,253.3 449.6,248.1 449.9,246.8 450.1,245.5 450.4,245.4 450.7,246.3 451.0,240.7 451.3,240.5 451.5,239.6 451.8,239.5 452.1,240.6 452.4,240.2 452.7,233.3 452.9,232.5 453.2,235.0 453.5,234.9 453.8,236.4 454.0,237.8 454.3,238.6 454.6,236.7 454.9,238.8 455.2,238.5 455.4,234.6 455.7,241.3 456.0,239.0 456.3,239.8 456.6,242.2 456.8,241.1 457.1,241.0 457.4,240.2 457.7,238.9 458.0,236.5 458.2,234.8 458.5,235.6 458.8,236.2 459.1,231.3 459.3,223.9 459.6,224.4 459.9,227.0 460.2,227.4 460.5,227.7 460.7,229.0 461.0,228.9 461.3,230.1 461.6,231.6 461.9,232.0 462.1,232.0 462.4,230.9 462.7,229.5 463.0,232.6 463.3,231.2 463.5,230.4 463.8,228.0 464.1,227.9 464.4,228.1 464.6,229.6 464.9,235.6 465.2,234.7 465.5,239.3 465.8,237.2 466.0,237.2 466.3,235.4 466.6,233.3 466.9,234.4 467.2,237.9 467.4,236.3 467.7,236.6 468.0,235.0 468.3,234.6 468.6,231.2 468.8,230.5 469.1,231.1 469.4,231.3 469.7,230.2 469.9,232.6 470.2,229.0 470.5,229.3 470.8,231.1 471.1,230.5 471.3,226.8 471.6,227.2 471.9,227.9 472.2,228.3 472.5,228.4 472.7,228.9 473.0,227.0 473.3,228.8 473.6,226.2 473.9,227.2 474.1,226.8 474.4,225.1 474.7,226.5 475.0,224.0 475.2,221.0 475.5,220.3 475.8,220.4 476.1,222.4 476.4,221.8 476.6,222.7 476.9,221.1 477.2,218.2 477.5,217.6 477.8,217.1 478.0,212.9 478.3,211.7 478.6,209.4 478.9,211.5 479.2,208.8 479.4,212.2 479.7,218.1 480.0,218.4 480.3,217.5 480.5,217.6 480.8,216.0 481.1,223.1 481.4,223.0 481.7,224.6 481.9,230.3 482.2,229.2 482.5,230.4 482.8,232.4 483.1,229.5 483.3,230.3 483.6,232.2 483.9,231.1 484.2,231.1 484.5,231.8 484.7,231.7 485.0,231.5 485.3,228.2 485.6,225.6 485.8,226.2 486.1,227.4 486.4,226.2 486.7,226.8 487.0,228.5 487.2,230.3 487.5,229.6 487.8,230.2 488.1,229.1 488.4,226.7 488.6,228.5 488.9,226.1 489.2,226.2 489.5,226.0 489.8,224.8 490.0,224.1 490.3,225.7 490.6,226.0 490.9,226.4 491.1,224.8 491.4,223.9 491.7,222.1 492.0,220.8 492.3,222.1 492.5,223.1 492.8,221.4 493.1,222.9 493.4,217.3 493.7,217.6 493.9,216.9 494.2,218.0 494.5,218.1 494.8,220.2 495.1,220.0 495.3,219.5 495.6,220.9 495.9,221.9 496.2,220.5 496.4,219.7 496.7,219.9 497.0,222.0 497.3,221.8 497.6,218.1 497.8,218.6 498.1,218.2 498.4,217.8 498.7,221.7 499.0,220.9 499.2,219.5 499.5,220.6 499.8,219.6 500.1,215.6 500.4,217.4 500.6,217.7 500.9,217.8 501.2,219.8 501.5,218.3 501.8,213.7 502.0,214.0 502.3,213.4 502.6,214.2 502.9,213.9 503.1,214.6 503.4,213.6 503.7,216.1 504.0,216.5 504.3,217.3 504.5,219.1 504.8,219.0 505.1,219.0 505.4,221.6 505.7,220.5 505.9,220.1 506.2,220.2 506.5,220.7 506.8,221.7 507.1,222.6 507.3,223.6 507.6,225.5 507.9,227.2 508.2,226.9 508.4,228.4 508.7,227.0 509.0,224.9 509.3,223.4 509.6,219.8 509.8,223.0 510.1,224.3 510.4,223.8 510.7,223.7 511.0,222.1 511.2,222.1 511.5,215.4 511.8,215.9 512.1,215.7 512.4,215.2 512.6,215.8 512.9,217.8 513.2,215.5 513.5,211.7 513.7,209.5 514.0,208.0 514.3,208.8 514.6,208.2 514.9,211.7 515.1,213.9 515.4,215.3 515.7,211.9 516.0,212.6 516.3,209.6 516.5,209.4 516.8,206.5 517.1,202.5 517.4,202.3 517.7,204.1 517.9,202.4 518.2,202.9 518.5,204.2 518.8,207.3 519.0,203.0 519.3,203.6 519.6,204.1 519.9,203.6 520.2,201.3 520.4,203.2 520.7,199.9 521.0,198.4 521.3,202.3 521.6,202.3 521.8,195.9 522.1,194.5 522.4,197.0 522.7,195.6 523.0,197.9 523.2,199.6 523.5,199.0 523.8,197.6 524.1,196.5 524.3,194.4 524.6,194.0 524.9,197.0 525.2,198.9 525.5,197.1 525.7,196.9 526.0,197.1 526.3,198.2 526.6,204.1 526.9,199.8 527.1,199.8 527.4,200.4 527.7,198.0 528.0,197.9 528.3,196.6 528.5,195.7 528.8,194.9 529.1,196.4 529.4,190.7 529.6,186.8 529.9,187.2 530.2,187.5 530.5,187.9 530.8,187.2 531.0,186.9 531.3,185.9 531.6,186.5 531.9,188.0 532.2,188.6 532.4,187.8 532.7,186.7 533.0,186.7 533.3,187.8 533.6,188.4 533.8,185.9 534.1,188.4 534.4,186.6 534.7,187.3 534.9,187.9 535.2,190.2 535.5,189.2 535.8,188.7 536.1,187.8 536.3,186.3 536.6,183.2 536.9,182.8 537.2,182.1 537.5,181.0 537.7,179.6 538.0,180.8 538.3,181.4 538.6,179.8 538.9,180.4 539.1,181.3 539.4,180.5 539.7,178.6 540.0,176.9 540.2,174.7 540.5,172.5 540.8,175.7 541.1,174.7 541.4,175.7 541.6,175.3 541.9,177.2 542.2,173.6 542.5,170.3 542.8,170.5 543.0,167.8 543.3,165.0 543.6,164.0 543.9,166.3 544.2,168.6 544.4,165.7 544.7,164.8 545.0,162.6 545.3,155.6 545.5,155.4 545.8,166.3 546.1,166.3 546.4,172.5 546.7,170.9 546.9,171.4 547.2,175.7 547.5,175.9 547.8,174.3 548.1,172.9 548.3,175.2 548.6,178.4 548.9,174.4 549.2,168.9 549.5,173.4 549.7,170.5 550.0,172.1 550.3,176.1 550.6,175.5 550.9,170.7 551.1,171.9 551.4,167.7 551.7,168.7 552.0,170.3 552.2,168.7 552.5,174.9 552.8,171.8 553.1,171.1 553.4,165.9 553.6,164.5 553.9,163.4 554.2,162.4 554.5,161.1 554.8,158.4 555.0,157.3 555.3,157.6 555.6,155.9 555.9,156.4 556.2,152.7 556.4,154.2 556.7,151.8 557.0,149.9 557.3,145.8 557.5,142.2 557.8,141.8 558.1,144.4 558.4,142.4 558.7,149.0 558.9,152.8 559.2,151.8 559.5,155.1 559.8,152.6 560.1,153.1 560.3,164.7 560.6,172.4 560.9,174.2 561.2,192.3 561.5,185.9 561.7,181.9 562.0,178.1 562.3,172.2 562.6,170.3 562.8,165.6 563.1,170.9 563.4,174.1 563.7,171.4 564.0,173.4 564.2,174.9 564.5,169.1 564.8,173.5 565.1,169.0 565.4,166.0 565.6,164.7 565.9,168.2 566.2,169.0 566.5,166.4 566.8,172.1 567.0,170.3 567.3,170.3 567.6,172.2 567.9,175.6 568.1,189.0 568.4,185.9 568.7,182.4 569.0,189.5 569.3,183.3 569.5,183.5 569.8,185.8 570.1,186.0 570.4,186.9 570.7,186.6 570.9,180.2 571.2,179.6 571.5,182.9 571.8,185.4 572.1,190.5 572.3,195.2 572.6,194.0 572.9,189.4 573.2,195.7 573.4,194.4 573.7,187.4 574.0,188.8 574.3,195.4 574.6,194.6 574.8,193.6 575.1,191.4 575.4,193.2 575.7,188.1 576.0,183.9 576.2,184.7 576.5,182.4 576.8,184.2 577.1,181.3 577.4,180.3 577.6,184.4 577.9,187.0 578.2,182.0 578.5,181.7 578.7,182.7 579.0,187.4 579.3,189.9 579.6,191.1 579.9,188.6 580.1,192.3 580.4,198.3 580.7,191.5 581.0,194.0 581.3,191.4 581.5,188.4 581.8,188.4 582.1,188.9 582.4,193.4 582.7,192.4 582.9,188.8 583.2,192.0 583.5,192.8 583.8,196.5 584.0,208.7 584.3,206.6 584.6,210.6 584.9,208.5 585.2,213.6 585.4,214.9 585.7,223.3 586.0,223.9 586.3,216.1 586.6,226.1 586.8,225.1 587.1,227.9 587.4,230.0 587.7,228.1 588.0,219.1 588.2,218.6 588.5,224.0 588.8,216.3 589.1,216.2 589.3,217.6 589.6,218.9 589.9,220.4 590.2,219.8 590.5,215.7 590.7,213.6 591.0,208.4 591.3,208.8 591.6,212.3 591.9,212.7 592.1,214.0 592.4,213.3 592.7,220.4 593.0,226.7 593.3,231.6 593.5,233.5 593.8,225.6 594.1,229.9 594.4,223.4 594.6,222.5 594.9,223.7 595.2,226.7 595.5,233.9 595.8,234.4 596.0,238.1 596.3,234.2 596.6,230.2 596.9,230.3 597.2,230.1 597.4,229.5 597.7,222.5 598.0,223.3 598.3,223.9 598.6,226.9 598.8,228.6 599.1,229.5 599.4,225.7 599.7,232.1 600.0,234.4 600.2,232.5 600.5,236.2 600.8,236.8 601.1,238.6 601.3,235.2 601.6,235.1 601.9,237.7 602.2,232.4 602.5,229.4 602.7,229.4 603.0,220.0 603.3,223.2 603.6,220.5 603.9,221.0 604.1,218.4 604.4,231.2 604.7,231.4 605.0,231.2 605.3,245.8 605.5,240.8 605.8,244.5 606.1,245.5 606.4,244.7 606.6,250.5 606.9,244.0 607.2,231.2 607.5,239.9 607.8,239.4 608.0,238.0 608.3,241.1 608.6,248.2 608.9,245.3 609.2,242.2 609.4,240.4 609.7,229.8 610.0,233.3 610.3,234.7 610.6,237.2 610.8,237.1 611.1,240.7 611.4,238.0 611.7,235.1 611.9,238.0 612.2,234.5 612.5,233.5 612.8,230.6 613.1,236.5 613.3,236.6 613.6,237.4 613.9,243.4 614.2,243.9 614.5,244.2 614.7,240.6 615.0,243.2 615.3,240.9 615.6,233.6 615.9,232.7 616.1,234.0 616.4,239.3 616.7,240.0 617.0,242.4 617.2,241.2 617.5,240.5 617.8,236.5 618.1,240.8 618.4,240.9 618.6,244.1 618.9,247.0 619.2,248.5 619.5,251.6 619.8,251.4 620.0,252.9 620.3,253.9 620.6,254.7 620.9,254.7 621.2,257.4 621.4,257.3 621.7,251.0 622.0,250.6 622.3,250.3 622.5,248.6 622.8,248.3 623.1,246.4 623.4,248.7 623.7,243.9 623.9,244.0 624.2,245.2 624.5,240.7 624.8,239.4 625.1,242.6 625.3,243.3 625.6,241.2 625.9,239.2 626.2,239.5 626.5,238.3 626.7,240.0 627.0,237.7 627.3,233.4 627.6,229.6 627.8,227.9 628.1,221.9 628.4,221.4 628.7,226.1 629.0,218.5 629.2,219.3 629.5,218.3 629.8,218.5 630.1,211.1 630.4,190.3 630.6,198.1 630.9,199.5 631.2,200.1 631.5,194.3 631.8,191.3 632.0,188.4 632.3,186.5 632.6,189.6 632.9,200.4 633.1,196.6 633.4,194.5 633.7,196.6 634.0,198.4 634.3,194.1 634.5,184.8 634.8,187.4 635.1,187.3 635.4,187.9 635.7,186.8 635.9,195.0 636.2,197.6 636.5,195.9 636.8,196.5 637.1,184.2 637.3,175.7 637.6,176.6 637.9,171.8 638.2,167.4 638.4,170.1 638.7,167.7 639.0,167.1 639.3,173.2 639.6,174.5 639.8,176.8 640.1,166.8 640.4,167.8 640.7,168.6 641.0,163.8 641.2,172.6 641.5,172.7 641.8,172.2 642.1,178.4 642.4,182.9 642.6,181.1 642.9,181.2 643.2,200.8 643.5,197.1 643.7,201.1 644.0,206.5 644.3,197.4 644.6,201.7 644.9,203.2 645.1,197.1 645.4,198.0 645.7,204.9 646.0,207.3 646.3,204.3 646.5,204.5 646.8,209.7 647.1,208.7 647.4,205.7 647.7,204.2 647.9,204.1 648.2,204.7 648.5,206.7 648.8,205.2 649.1,207.4 649.3,208.3 649.6,210.7 649.9,206.9 650.2,197.8 650.4,200.2 650.7,200.8 651.0,202.7 651.3,202.1 651.6,201.4 651.8,196.8 652.1,188.5 652.4,189.5 652.7,189.1 653.0,192.4 653.2,192.8 653.5,189.2 653.8,188.9 654.1,181.4 654.4,181.2 654.6,183.9 654.9,185.8 655.2,184.3 655.5,191.9 655.7,192.6 656.0,192.5 656.3,192.7 656.6,190.3 656.9,188.8 657.1,190.0 657.4,190.7 657.7,192.6 658.0,190.3 658.3,192.7 658.5,191.9 658.8,189.5 659.1,186.4 659.4,186.1 659.7,186.8 659.9,185.4 660.2,187.2 660.5,190.4 660.8,195.1 661.0,200.9 661.3,204.2 661.6,206.4 661.9,203.2 662.2,204.6 662.4,200.5 662.7,202.1 663.0,200.4 663.3,200.3 663.6,199.5 663.8,191.6 664.1,192.5 664.4,192.3 664.7,192.1 665.0,189.9 665.2,193.3 665.5,190.0 665.8,190.7 666.1,191.7 666.3,190.9 666.6,187.7 666.9,187.5 667.2,183.2 667.5,180.4 667.7,177.6 668.0,176.8 668.3,177.4 668.6,179.6 668.9,176.1 669.1,177.5 669.4,183.2 669.7,181.9 670.0,180.3 670.3,180.2 670.5,182.7 670.8,182.7 671.1,184.7 671.4,186.7 671.6,185.8 671.9,190.7 672.2,188.0 672.5,187.6 672.8,185.2 673.0,181.2 673.3,178.6 673.6,179.5 673.9,180.8 674.2,180.1 674.4,185.9 674.7,184.9 675.0,184.0 675.3,185.2 675.6,184.6 675.8,182.3 676.1,180.7 676.4,181.9 676.7,184.1 676.9,183.9 677.2,177.5 677.5,176.3 677.8,174.5 678.1,175.6 678.3,175.0 678.6,176.7 678.9,181.7 679.2,182.5 679.5,182.3 679.7,182.6 680.0,183.9 680.3,181.6 680.6,178.0 680.9,181.6 681.1,183.2 681.4,187.1 681.7,184.4 682.0,184.2 682.2,184.0 682.5,184.8 682.8,188.1 683.1,187.2 683.4,185.7 683.6,186.1 683.9,183.9 684.2,181.5 684.5,182.2 684.8,182.0 685.0,181.5 685.3,182.6 685.6,175.9 685.9,175.2 686.2,170.4 686.4,171.2 686.7,171.9 687.0,171.4 687.3,175.9 687.5,174.4 687.8,174.0 688.1,171.5 688.4,172.0 688.7,167.0 688.9,165.5 689.2,161.4 689.5,162.1 689.8,163.6 690.1,161.2 690.3,164.2 690.6,160.9 690.9,161.0 691.2,157.4 691.5,158.3 691.7,161.2 692.0,161.6 692.3,160.4 692.6,158.1 692.8,164.4 693.1,163.3 693.4,174.7 693.7,207.0 694.0,192.9 694.2,190.2 694.5,182.9 694.8,182.8 695.1,182.9 695.4,179.4 695.6,176.9 695.9,178.0 696.2,175.5 696.5,167.5 696.8,170.5 697.0,170.0 697.3,163.2 697.6,161.5 697.9,164.6 698.2,164.9 698.4,168.2 698.7,168.0 699.0,180.2 699.3,169.7 699.5,168.5 699.8,165.7 700.1,158.9 700.4,164.6 700.7,176.0 700.9,168.5 701.2,174.1 701.5,178.3 701.8,182.7 702.1,198.9 702.3,199.7 702.6,205.5 702.9,207.6 703.2,204.4 703.5,213.6 703.7,206.4 704.0,199.3 704.3,201.2 704.6,199.9 704.8,201.3 705.1,202.1 705.4,202.4 705.7,196.1 706.0,198.7 706.2,192.2 706.5,193.1 706.8,191.9 707.1,193.2 707.4,194.7 707.6,189.3 707.9,191.1 708.2,190.5 708.5,190.5 708.8,189.7 709.0,193.3 709.3,190.1 709.6,191.2 709.9,192.3 710.1,190.7 710.4,188.9 710.7,187.2 711.0,181.9 711.3,180.9 711.5,181.6 711.8,178.3 712.1,178.5 712.4,178.4 712.7,177.5 712.9,180.0 713.2,185.4 713.5,183.7 713.8,181.3 714.1,182.4 714.3,184.6 714.6,191.6 714.9,190.9 715.2,188.0 715.4,189.4 715.7,189.0 716.0,188.7 716.3,179.2 716.6,177.9 716.8,178.2 717.1,178.1 717.4,175.9 717.7,174.9 718.0,173.1 718.2,173.1 718.5,177.1 718.8,175.4 719.1,179.9 719.4,174.2 719.6,173.7 719.9,170.9 720.2,170.5 720.5,170.1 720.7,168.3 721.0,165.5 721.3,168.0 721.6,164.6 721.9,156.7 722.1,148.4 722.4,141.7 722.7,115.5 723.0,117.2 723.3,113.4 723.5,107.3 723.8,114.6 724.1,107.1 724.4,110.7 724.7,115.3 724.9,134.5 725.2,132.1 725.5,122.6 725.8,121.6 726.0,119.7 726.3,119.1 726.6,137.0 726.9,134.4 727.2,131.9 727.4,120.4 727.7,123.4 728.0,121.4 728.3,114.9 728.6,113.7 728.8,114.8 729.1,115.8 729.4,119.5 729.7,118.2 730.0,122.0 730.2,124.0 730.5,125.7 730.8,116.8 731.1,109.2 731.3,109.9 731.6,115.8 731.9,119.6 732.2,118.7 732.5,117.3 732.7,115.5 733.0,120.3 733.3,117.4 733.6,106.7 733.9,111.3 734.1,108.1 734.4,109.5 734.7,110.3 735.0,114.0 735.3,122.5 735.5,119.7 735.8,128.0 736.1,128.2 736.4,125.2 736.6,122.6 736.9,120.0 737.2,122.3 737.5,124.1 737.8,115.4 738.0,120.3 738.3,124.8 738.6,124.5 738.9,130.3 739.2,129.1 739.4,128.0 739.7,127.3 740.0,129.8 740.3,121.4 740.6,108.6 740.8,107.6 741.1,109.1 741.4,110.0 741.7,112.8 741.9,115.7 742.2,113.2 742.5,112.6 742.8,114.1 743.1,117.3 743.3,120.6 743.6,119.7 743.9,116.2 744.2,112.5 744.5,119.5 744.7,117.3 745.0,113.6 745.3,110.2 745.6,104.2 745.9,103.8 746.1,96.2 746.4,98.2 746.7,101.6 747.0,102.0 747.3,106.1 747.5,101.8 747.8,102.8 748.1,103.3 748.4,99.5 748.6,99.2 748.9,94.6 749.2,96.4 749.5,101.4 749.8,101.0 750.0,95.1 750.3,97.3 750.6,88.1 750.9,89.0 751.2,89.2 751.4,88.4 751.7,91.9 752.0,93.0 752.3,97.8 752.6,98.7 752.8,103.2 753.1,99.6 753.4,98.7 753.7,97.8 753.9,91.8 754.2,94.7 754.5,90.9 754.8,97.0 755.1,94.0 755.3,93.9 755.6,90.7 755.9,89.0 756.2,90.0 756.5,84.9 756.7,76.0 757.0,73.3 757.3,65.3 757.6,61.4 757.9,51.7 758.1,53.7 758.4,59.2 758.7,46.4 759.0,47.8 759.2,55.8 759.5,58.3 759.8,53.5 760.1,59.2 760.4,57.1 760.6,50.1 760.9,50.5 761.2,47.0 761.5,54.3 761.8,54.5 762.0,64.0 762.3,66.7 762.6,61.6 762.9,56.5 763.2,56.2 763.4,56.3 763.7,56.2 764.0,51.2 764.3,40.4 764.5,30.0 764.8,34.3 765.1,34.4 765.4,47.9 765.7,49.0 765.9,60.5 766.2,56.8 766.5,68.9 766.8,62.8 767.1,69.3 767.3,61.2 767.6,72.6 767.9,73.7 768.2,90.2 768.5,96.9 768.7,95.7 769.0,85.2 769.3,84.5 769.6,91.8 769.8,89.9 770.1,88.2 770.4,83.4 770.7,98.9 771.0,94.1 771.2,96.0 771.5,100.8 771.8,100.8 772.1,92.8 772.4,93.2 772.6,90.0 772.9,92.8 773.2,86.7 773.5,82.9 773.8,86.1 774.0,88.7 774.3,87.1 774.6,92.4 774.9,98.0 775.1,98.1 775.4,96.0 775.7,97.8 776.0,99.1 776.3,88.3 776.5,89.0 776.8,88.7 777.1,89.6 777.4,84.6 777.7,90.8 777.9,89.4 778.2,85.9 778.5,81.5 778.8,85.6 779.1,90.5 779.3,95.6 779.6,95.1 779.9,92.7 780.2,90.5 780.4,94.7 780.7,84.4 781.0,79.2 781.3,79.2 781.6,80.3 781.8,79.4 782.1,85.6 782.4,83.3 782.7,68.9 783.0,68.9 783.2,67.5 783.5,69.0 783.8,68.5 784.1,68.3 784.4,71.7 784.6,75.5 784.9,72.6 785.2,73.0 785.5,76.6 785.7,75.7 786.0,72.6 786.3,76.8 786.6,81.6 786.9,87.7 787.1,86.7 787.4,89.1 787.7,89.2 788.0,87.7 788.3,84.8 788.5,83.5 788.8,76.5 789.1,76.3 789.4,81.0 789.7,78.7 789.9,81.7 790.2,90.5 790.5,89.2 790.8,88.8 791.0,84.2 791.3,88.0 791.6,90.1 791.9,85.2 792.2,83.4 792.4,88.1 792.7,82.5 793.0,88.2 793.3,86.3 793.6,87.2 793.8,84.5 794.1,84.0 794.4,88.3 794.7,102.8 795.0,116.5 795.2,115.2 795.5,109.8 795.8,112.3 796.1,102.9 796.4,101.9 796.6,100.3 796.9,102.7 797.2,102.8 797.5,98.7 797.7,93.1 798.0,96.3 798.3,98.2 798.6,99.5 798.9,99.4 799.1,108.1 799.4,103.8 799.7,105.9 800.0,116.7 800.3,111.0 800.5,106.0 800.8,106.1 801.1,112.1 801.4,110.6 801.7,112.0 801.9,111.9 802.2,105.7 802.5,105.8 802.8,107.4 803.0,101.0 803.3,95.4 803.6,97.3 803.9,97.5 804.2,92.8 804.4,95.3 804.7,100.8 805.0,104.6 805.3,109.2 805.6,106.3 805.8,109.0 806.1,107.1 806.4,105.6 806.7,102.9 807.0,104.0 807.2,105.8 807.5,105.8 807.8,99.7 808.1,99.7 808.3,104.0 808.6,99.3 808.9,101.6 809.2,99.5 809.5,105.4 809.7,101.7 810.0,102.2 810.3,100.0 810.6,97.5 810.9,96.3 811.1,97.7 811.4,103.5 811.7,104.1 812.0,101.4 812.3,103.1 812.5,107.1 812.8,108.9 813.1,105.1 813.4,106.2 813.6,106.7 813.9,106.8 814.2,109.3 814.5,102.2 814.8,102.7 815.0,102.7 815.3,103.1 815.6,103.7 815.9,107.3 816.2,102.6 816.4,101.8 816.7,101.6 817.0,100.8 817.3,102.4 817.6,105.7 817.8,105.9 818.1,107.5 818.4,106.4 818.7,105.5 818.9,101.7 819.2,102.5 819.5,100.2 819.8,93.7 820.1,87.0 820.3,88.3 820.6,87.7 820.9,89.4 821.2,93.4 821.5,91.3 821.7,96.1 822.0,101.8 822.3,100.3 822.6,100.5 822.9,97.2 823.1,99.2 823.4,98.6 823.7,96.2 824.0,101.9 824.2,99.0 824.5,98.7 824.8,100.1 825.1,104.0 825.4,108.7 825.6,107.8 825.9,106.5 826.2,110.1 826.5,106.0 826.8,112.8 827.0,116.3 827.3,113.1 827.6,109.2 827.9,111.1 828.2,108.2 828.4,109.8 828.7,109.9 829.0,118.9 829.3,116.7 829.5,123.2 829.8,131.0 830.1,124.0 830.4,125.6 830.7,122.3 830.9,123.3 831.2,126.6 831.5,130.0 831.8,126.9 832.1,125.2 832.3,124.3 832.6,122.3 832.9,124.0 833.2,128.6 833.5,124.8 833.7,131.5 834.0,128.4 834.3,128.2 834.6,125.5 834.8,128.2 835.1,130.5 835.4,134.3 835.7,147.1 836.0,155.3 836.2,158.1 836.5,152.9 836.8,149.3 837.1,161.2 837.4,178.9 837.6,162.1 837.9,155.5 838.2,155.6 838.5,157.0 838.8,157.2 839.0,154.9 839.3,156.7 839.6,163.3 839.9,164.0 840.1,165.2 840.4,153.9 840.7,156.7 841.0,152.8 841.3,154.9 841.5,158.6 841.8,155.5 842.1,166.2 842.4,160.2 842.7,162.4 842.9,159.3 843.2,159.6 843.5,161.6 843.8,163.5 844.1,169.9 844.3,174.3 844.6,173.3 844.9,189.5 845.2,191.7 845.5,183.4 845.7,181.0 846.0,172.7 846.3,174.6 846.6,183.8 846.8,186.0 847.1,181.1 847.4,177.8 847.7,178.8 848.0,176.2 848.2,179.7 848.5,174.7 848.8,175.7 849.1,174.5 849.4,169.2 849.6,173.0 849.9,179.2 850.2,177.6 850.5,176.7 850.8,175.6 851.0,174.1 851.3,168.7 851.6,169.5 851.9,168.6 852.1,162.7 852.4,162.0 852.7,158.0 853.0,160.8 853.3,155.5 853.5,159.6 853.8,155.9 854.1,152.0 854.4,154.3 854.7,152.0 854.9,151.6 855.2,151.3 855.5,155.7 855.8,149.0 856.1,144.9 856.3,141.4 856.6,137.0 856.9,141.1 857.2,137.3 857.4,138.6 857.7,136.4 858.0,137.5 858.3,142.2 858.6,140.9 858.8,141.4 859.1,147.3 859.4,150.2 859.7,149.7 860.0,149.4 860.2,157.4 860.5,152.4 860.8,153.9 861.1,153.2 861.4,156.9 861.6,156.3 861.9,157.7 862.2,155.4 862.5,157.2 862.7,157.0 863.0,162.0 863.3,160.3 863.6,165.5 863.9,169.5 864.1,167.0 864.4,161.7 864.7,162.8 865.0,162.3 865.3,166.1 865.5,158.6 865.8,158.6 866.1,159.6 866.4,160.4 866.7,157.1 866.9,159.9 867.2,162.9 867.5,160.8 867.8,161.9 868.0,167.8 868.3,165.0 868.6,165.6 868.9,167.5 869.2,168.1 869.4,167.7 869.7,170.8 870.0,172.6"/>
</svg>
