<svg xmlns="http://www.w3.org/2000/svg" width="900" height="360">
<rect width="100%" height="100%" fill="white"/>
<text x="30" y="20" font-size="16">沪深300指数 价格</text>
<polyline fill="none" stroke="#1f77b4" stroke-width="2" points="30.0,300.4 30.2,301.3 30.3,301.9 30.5,303.0 30.7,302.5 30.8,304.4 31.0,307.0 31.2,308.2 31.3,307.2 31.5,310.2 31.7,310.3 31.8,312.8 32.0,312.7 32.2,308.3 32.3,308.0 32.5,308.0 32.7,312.5 32.8,310.9 33.0,310.6 33.2,306.1 33.3,306.4 33.5,305.2 33.7,304.6 33.9,306.4 34.0,304.9 34.2,305.3 34.4,304.1 34.5,304.2 34.7,304.0 34.9,304.7 35.0,305.7 35.2,304.6 35.4,302.9 35.5,302.1 35.7,299.7 35.9,298.3 36.0,296.9 36.2,297.7 36.4,298.9 36.5,296.9 36.7,299.1 36.9,298.9 37.0,297.4 37.2,296.5 37.4,296.3 37.5,297.3 37.7,297.1 37.9,298.5 38.0,298.2 38.2,298.3 38.4,300.6 38.5,300.4 38.7,301.6 38.9,301.3 39.0,299.2 39.2,299.5 39.4,299.4 39.5,298.0 39.7,297.5 39.9,298.8 40.0,298.4 40.2,298.8 40.4,299.0 40.6,298.9 40.7,299.8 40.9,299.6 41.1,299.9 41.2,300.3 41.4,300.8 41.6,300.7 41.7,299.5 41.9,298.5 42.1,298.2 42.2,298.9 42.4,298.8 42.6,299.3 42.7,300.2 42.9,300.7 43.1,301.4 43.2,303.7 43.4,302.8 43.6,303.9 43.7,301.5 43.9,302.6 44.1,302.3 44.2,303.4 44.4,303.2 44.6,303.2 44.7,304.6 44.9,304.6 45.1,305.1 45.2,306.6 45.4,306.2 45.6,307.6 45.7,304.6 45.9,304.2 46.1,304.8 46.2,304.2 46.4,304.6 46.6,305.2 46.7,306.0 46.9,305.9 47.1,304.5 47.3,305.2 47.4,304.7 47.6,302.1 47.8,294.9 47.9,294.9 48.1,294.5 48.3,294.2 48.4,293.6 48.6,294.6 48.8,294.0 48.9,293.9 49.1,294.7 49.3,294.6 49.4,294.1 49.6,294.3 49.8,295.9 49.9,296.0 50.1,296.1 50.3,296.7 50.4,296.5 50.6,295.9 50.8,295.6 50.9,295.3 51.1,296.7 51.3,296.9 51.4,297.1 51.6,297.6 51.8,297.8 51.9,297.3 52.1,297.2 52.3,298.0 52.4,298.1 52.6,297.9 52.8,298.2 52.9,297.3 53.1,297.5 53.3,297.9 53.4,298.4 53.6,299.0 53.8,298.9 54.0,298.4 54.1,299.0 54.3,298.5 54.5,298.6 54.6,297.3 54.8,297.2 55.0,296.6 55.1,296.7 55.3,297.5 55.5,297.3 55.6,297.4 55.8,297.7 56.0,297.8 56.1,297.7 56.3,297.5 56.5,297.9 56.6,299.0 56.8,299.4 57.0,300.0 57.1,300.0 57.3,300.3 57.5,300.1 57.6,300.1 57.8,301.3 58.0,301.2 58.1,301.7 58.3,300.2 58.5,301.1 58.6,301.1 58.8,301.5 59.0,301.4 59.1,301.9 59.3,302.3 59.5,303.0 59.6,304.5 59.8,304.9 60.0,305.1 60.1,304.8 60.3,305.0 60.5,304.5 60.7,305.7 60.8,305.4 61.0,305.1 61.2,304.1 61.3,304.1 61.5,304.7 61.7,305.4 61.8,306.2 62.0,305.8 62.2,305.8 62.3,305.8 62.5,305.7 62.7,304.6 62.8,303.5 63.0,303.8 63.2,303.8 63.3,305.4 63.5,306.3 63.7,307.3 63.8,307.0 64.0,308.3 64.2,308.1 64.3,308.8 64.5,308.4 64.7,310.0 64.8,311.8 65.0,311.6 65.2,311.3 65.3,312.6 65.5,312.2 65.7,310.3 65.8,309.4 66.0,311.3 66.2,310.6 66.3,310.5 66.5,310.9 66.7,310.9 66.8,311.1 67.0,311.9 67.2,312.2 67.4,312.0 67.5,311.4 67.7,310.8 67.9,310.4 68.0,310.7 68.2,310.6 68.4,309.9 68.5,309.8 68.7,309.8 68.9,310.2 69.0,312.1 69.2,312.1 69.4,312.7 69.5,313.1 69.7,314.8 69.9,314.8 70.0,314.2 70.2,314.4 70.4,312.6 70.5,311.4 70.7,312.0 70.9,311.8 71.0,308.2 71.2,308.7 71.4,307.6 71.5,307.9 71.7,307.7 71.9,309.0 72.0,308.9 72.2,309.3 72.4,308.1 72.5,307.2 72.7,306.9 72.9,306.9 73.0,307.9 73.2,307.3 73.4,306.5 73.5,306.8 73.7,306.5 73.9,307.1 74.1,307.1 74.2,306.4 74.4,306.5 74.6,307.8 74.7,307.8 74.9,306.5 75.1,306.5 75.2,306.4 75.4,306.5 75.6,306.0 75.7,306.0 75.9,306.3 76.1,307.2 76.2,307.4 76.4,308.6 76.6,308.7 76.7,308.4 76.9,308.8 77.1,308.7 77.2,308.6 77.4,308.9 77.6,308.5 77.7,308.8 77.9,308.2 78.1,308.1 78.2,308.8 78.4,309.1 78.6,307.3 78.7,307.4 78.9,306.5 79.1,306.0 79.2,306.0 79.4,306.4 79.6,306.0 79.7,306.3 79.9,306.1 80.1,304.8 80.2,304.1 80.4,302.9 80.6,301.0 80.8,300.4 80.9,301.2 81.1,301.0 81.3,301.4 81.4,302.9 81.6,302.9 81.8,304.1 81.9,306.2 82.1,307.0 82.3,304.3 82.4,305.5 82.6,305.0 82.8,304.3 82.9,306.4 83.1,304.8 83.3,303.0 83.4,302.9 83.6,302.9 83.8,303.7 83.9,303.9 84.1,303.2 84.3,302.4 84.4,301.9 84.6,301.8 84.8,302.7 84.9,301.7 85.1,301.4 85.3,301.4 85.4,302.3 85.6,301.6 85.8,302.6 85.9,303.7 86.1,304.4 86.3,304.0 86.4,302.7 86.6,303.0 86.8,302.8 86.9,303.0 87.1,303.3 87.3,303.4 87.5,304.2 87.6,304.7 87.8,305.5 88.0,305.3 88.1,305.8 88.3,305.1 88.5,306.1 88.6,306.5 88.8,306.4 89.0,305.7 89.1,305.5 89.3,305.6 89.5,305.4 89.6,305.0 89.8,305.5 90.0,303.9 90.1,304.0 90.3,304.3 90.5,304.1 90.6,303.8 90.8,303.2 91.0,304.9 91.1,305.4 91.3,305.3 91.5,305.0 91.6,305.5 91.8,306.2 92.0,306.6 92.1,306.2 92.3,306.1 92.5,306.0 92.6,305.8 92.8,305.0 93.0,305.0 93.1,305.4 93.3,305.4 93.5,306.3 93.6,306.0 93.8,305.8 94.0,306.7 94.2,307.2 94.3,307.3 94.5,307.5 94.7,307.3 94.8,307.6 95.0,307.7 95.2,307.9 95.3,308.7 95.5,308.6 95.7,308.6 95.8,309.2 96.0,308.6 96.2,307.4 96.3,307.5 96.5,307.4 96.7,307.6 96.8,308.3 97.0,308.7 97.2,309.0 97.3,308.8 97.5,308.7 97.7,309.5 97.8,310.2 98.0,309.7 98.2,310.5 98.3,310.4 98.5,310.4 98.7,310.8 98.8,310.5 99.0,310.3 99.2,311.1 99.3,311.4 99.5,312.3 99.7,311.7 99.8,311.4 100.0,311.6 100.2,310.0 100.3,310.2 100.5,310.8 100.7,311.0 100.9,311.8 101.0,311.6 101.2,312.1 101.4,311.8 101.5,310.1 101.7,310.7 101.9,310.9 102.0,311.5 102.2,311.5 102.4,311.9 102.5,312.6 102.7,312.6 102.9,311.9 103.0,310.6 103.2,311.0 103.4,312.2 103.5,313.1 103.7,312.8 103.9,312.8 104.0,313.9 104.2,313.8 104.4,313.3 104.5,313.5 104.7,314.4 104.9,313.4 105.0,311.6 105.2,312.4 105.4,310.5 105.5,310.2 105.7,310.0 105.9,311.1 106.0,310.7 106.2,309.2 106.4,309.2 106.5,309.0 106.7,308.6 106.9,308.7 107.0,309.5 107.2,309.2 107.4,308.3 107.6,308.3 107.7,308.4 107.9,308.3 108.1,308.6 108.2,309.2 108.4,308.9 108.6,309.5 108.7,307.6 108.9,307.3 109.1,306.6 109.2,306.8 109.4,306.8 109.6,307.4 109.7,306.9 109.9,307.7 110.1,307.1 110.2,305.0 110.4,304.3 110.6,303.4 110.7,302.3 110.9,303.4 111.1,301.7 111.2,301.8 111.4,302.7 111.6,303.0 111.7,302.4 111.9,300.7 112.1,302.5 112.2,301.0 112.4,300.2 112.6,298.5 112.7,298.2 112.9,298.6 113.1,297.3 113.2,297.7 113.4,298.2 113.6,298.7 113.7,298.9 113.9,297.1 114.1,296.7 114.3,296.0 114.4,296.3 114.6,296.0 114.8,297.9 114.9,298.1 115.1,299.7 115.3,299.3 115.4,298.4 115.6,297.5 115.8,297.7 115.9,299.0 116.1,298.5 116.3,298.9 116.4,300.4 116.6,300.6 116.8,298.8 116.9,298.0 117.1,298.0 117.3,296.1 117.4,295.8 117.6,295.6 117.8,297.1 117.9,295.9 118.1,295.5 118.3,296.1 118.4,296.4 118.6,296.3 118.8,296.3 118.9,297.2 119.1,297.1 119.3,296.4 119.4,295.7 119.6,295.1 119.8,295.4 119.9,294.9 120.1,295.0 120.3,295.3 120.4,297.3 120.6,297.6 120.8,298.2 121.0,299.5 121.1,300.3 121.3,299.6 121.5,300.7 121.6,301.4 121.8,302.0 122.0,301.6 122.1,302.8 122.3,302.8 122.5,303.5 122.6,303.9 122.8,305.4 123.0,305.0 123.1,307.0 123.3,306.6 123.5,305.0 123.6,305.3 123.8,306.9 124.0,307.6 124.1,306.8 124.3,306.8 124.5,307.2 124.6,306.8 124.8,307.3 125.0,308.7 125.1,308.4 125.3,306.8 125.5,307.2 125.6,306.9 125.8,305.9 126.0,306.6 126.1,307.7 126.3,307.8 126.5,308.8 126.6,309.7 126.8,311.1 127.0,310.9 127.1,310.9 127.3,312.4 127.5,311.2 127.7,310.8 127.8,312.3 128.0,313.1 128.2,312.7 128.3,312.1 128.5,312.7 128.7,313.3 128.8,314.3 129.0,315.1 129.2,314.2 129.3,314.6 129.5,312.5 129.7,312.4 129.8,312.3 130.0,312.0 130.2,312.6 130.3,312.5 130.5,312.9 130.7,314.3 130.8,314.1 131.0,313.9 131.2,313.0 131.3,311.3 131.5,311.2 131.7,311.7 131.8,311.8 132.0,313.4 132.2,313.2 132.3,314.0 132.5,314.3 132.7,313.9 132.8,313.0 133.0,314.0 133.2,314.4 133.3,314.8 133.5,313.1 133.7,313.9 133.8,314.0 134.0,313.7 134.2,313.4 134.4,314.1 134.5,314.8 134.7,314.6 134.9,315.2 135.0,314.9 135.2,315.0 135.4,315.7 135.5,315.6 135.7,316.4 135.9,315.7 136.0,315.9 136.2,316.2 136.4,316.9 136.5,316.9 136.7,315.9 136.9,316.8 137.0,316.5 137.2,316.6 137.4,316.9 137.5,316.7 137.7,317.3 137.9,318.5 138.0,318.3 138.2,319.6 138.4,317.8 138.5,315.3 138.7,314.6 138.9,312.5 139.0,310.2 139.2,310.7 139.4,312.1 139.5,309.8 139.7,311.1 139.9,311.6 140.0,311.1 140.2,311.9 140.4,312.7 140.5,311.4 140.7,311.7 140.9,313.1 141.1,313.0 141.2,315.6 141.4,315.6 141.6,315.4 141.7,315.3 141.9,315.5 142.1,316.2 142.2,315.5 142.4,316.3 142.6,315.7 142.7,315.1 142.9,315.1 143.1,316.2 143.2,316.9 143.4,317.1 143.6,316.0 143.7,317.3 143.9,317.2 144.1,317.1 144.2,317.0 144.4,314.7 144.6,315.0 144.7,314.9 144.9,314.2 145.1,314.2 145.2,314.8 145.4,314.2 145.6,313.8 145.7,313.6 145.9,314.2 146.1,314.6 146.2,314.7 146.4,314.8 146.6,315.6 146.7,315.5 146.9,315.8 147.1,315.9 147.2,315.8 147.4,315.6 147.6,316.4 147.8,316.3 147.9,315.7 148.1,316.6 148.3,317.0 148.4,317.2 148.6,317.0 148.8,317.2 148.9,317.8 149.1,318.7 149.3,318.7 149.4,317.2 149.6,318.3 149.8,318.2 149.9,318.5 150.1,318.6 150.3,318.9 150.4,319.0 150.6,319.2 150.8,320.2 150.9,319.7 151.1,320.2 151.3,320.2 151.4,319.6 151.6,319.4 151.8,319.4 151.9,319.4 152.1,319.9 152.3,321.1 152.4,320.7 152.6,321.2 152.8,321.8 152.9,320.2 153.1,319.3 153.3,319.3 153.4,319.8 153.6,320.7 153.8,321.0 153.9,321.9 154.1,321.8 154.3,318.8 154.5,319.6 154.6,318.2 154.8,317.8 155.0,318.0 155.1,318.9 155.3,317.7 155.5,316.4 155.6,316.6 155.8,316.5 156.0,316.4 156.1,316.8 156.3,317.1 156.5,317.9 156.6,317.6 156.8,317.8 157.0,317.4 157.1,316.3 157.3,316.4 157.5,317.9 157.6,317.6 157.8,317.4 158.0,318.4 158.1,319.0 158.3,319.6 158.5,320.5 158.6,320.3 158.8,321.3 159.0,321.6 159.1,321.3 159.3,321.4 159.5,321.5 159.6,321.9 159.8,322.9 160.0,322.6 160.1,320.5 160.3,321.5 160.5,321.8 160.6,320.8 160.8,320.1 161.0,319.0 161.2,319.5 161.3,320.5 161.5,319.2 161.7,320.0 161.8,320.7 162.0,321.4 162.2,321.2 162.3,322.1 162.5,322.5 162.7,322.8 162.8,323.4 163.0,322.9 163.2,323.6 163.3,322.6 163.5,323.2 163.7,324.6 163.8,324.4 164.0,325.0 164.2,326.0 164.3,325.9 164.5,326.6 164.7,326.2 164.8,326.1 165.0,326.1 165.2,326.2 165.3,327.3 165.5,327.0 165.7,327.0 165.8,327.7 166.0,328.1 166.2,327.8 166.3,327.8 166.5,328.8 166.7,330.0 166.8,330.0 167.0,328.8 167.2,328.9 167.3,324.8 167.5,324.4 167.7,325.5 167.9,325.6 168.0,326.1 168.2,327.1 168.4,326.4 168.5,326.3 168.7,324.8 168.9,325.4 169.0,325.1 169.2,325.5 169.4,325.2 169.5,324.2 169.7,324.9 169.9,325.2 170.0,326.4 170.2,327.5 170.4,327.8 170.5,328.1 170.7,328.5 170.9,328.4 171.0,329.3 171.2,329.6 171.4,328.0 171.5,328.3 171.7,328.1 171.9,328.6 172.0,329.1 172.2,329.0 172.4,328.5 172.5,328.5 172.7,327.5 172.9,327.7 173.0,326.5 173.2,325.5 173.4,325.7 173.5,325.8 173.7,325.6 173.9,324.9 174.0,324.6 174.2,324.9 174.4,323.7 174.6,323.5 174.7,323.2 174.9,322.7 175.1,321.9 175.2,322.9 175.4,321.9 175.6,322.5 175.7,322.0 175.9,323.9 176.1,323.8 176.2,323.3 176.4,323.8 176.6,323.3 176.7,323.4 176.9,323.5 177.1,324.1 177.2,324.3 177.4,323.5 177.6,322.5 177.7,322.3 177.9,322.0 178.1,323.0 178.2,322.0 178.4,321.9 178.6,322.2 178.7,322.2 178.9,321.4 179.1,321.0 179.2,321.0 179.4,321.1 179.6,320.9 179.7,321.5 179.9,322.5 180.1,323.8 180.2,324.2 180.4,324.0 180.6,324.9 180.7,324.9 180.9,324.2 181.1,324.1 181.3,324.7 181.4,324.0 181.6,323.7 181.8,324.2 181.9,324.9 182.1,325.3 182.3,325.0 182.4,325.2 182.6,325.1 182.8,324.9 182.9,324.7 183.1,325.5 183.3,326.6 183.4,326.6 183.6,327.1 183.8,326.5 183.9,326.7 184.1,326.2 184.3,326.6 184.4,326.4 184.6,326.5 184.8,326.2 184.9,326.4 185.1,327.3 185.3,327.2 185.4,327.4 185.6,327.7 185.8,327.3 185.9,327.4 186.1,326.2 186.3,326.1 186.4,326.9 186.6,326.5 186.8,326.2 186.9,326.1 187.1,326.3 187.3,326.8 187.4,326.7 187.6,326.7 187.8,326.9 188.0,327.5 188.1,327.2 188.3,326.7 188.5,326.7 188.6,325.9 188.8,325.8 189.0,325.8 189.1,325.2 189.3,325.4 189.5,325.0 189.6,325.0 189.8,324.7 190.0,325.0 190.1,324.6 190.3,324.2 190.5,323.8 190.6,324.0 190.8,323.9 191.0,323.2 191.1,323.7 191.3,322.7 191.5,321.6 191.6,321.0 191.8,320.7 192.0,320.5 192.1,320.8 192.3,320.2 192.5,320.5 192.6,321.5 192.8,321.3 193.0,320.2 193.1,319.7 193.3,319.6 193.5,319.4 193.6,319.3 193.8,318.6 194.0,317.2 194.1,317.4 194.3,317.2 194.5,318.0 194.7,317.3 194.8,317.3 195.0,316.9 195.2,316.7 195.3,318.0 195.5,318.0 195.7,317.9 195.8,316.9 196.0,317.0 196.2,316.8 196.3,316.3 196.5,316.4 196.7,316.1 196.8,315.9 197.0,316.9 197.2,316.7 197.3,316.9 197.5,318.3 197.7,318.7 197.8,319.0 198.0,318.7 198.2,318.0 198.3,318.1 198.5,317.5 198.7,317.6 198.8,317.8 199.0,317.0 199.2,316.8 199.3,316.4 199.5,316.3 199.7,316.7 199.8,316.2 200.0,315.9 200.2,315.3 200.3,315.9 200.5,315.6 200.7,314.5 200.8,313.9 201.0,313.3 201.2,313.1 201.3,313.1 201.5,312.2 201.7,311.9 201.9,312.3 202.0,313.6 202.2,312.2 202.4,311.8 202.5,311.4 202.7,311.0 202.9,311.2 203.0,310.4 203.2,310.7 203.4,310.8 203.5,310.0 203.7,310.0 203.9,309.0 204.0,306.3 204.2,304.3 204.4,303.4 204.5,304.1 204.7,301.6 204.9,298.3 205.0,299.6 205.2,299.3 205.4,299.6 205.5,297.5 205.7,297.1 205.9,300.4 206.0,300.9 206.2,301.0 206.4,299.6 206.5,297.5 206.7,296.7 206.9,297.5 207.0,295.3 207.2,296.1 207.4,295.3 207.5,295.5 207.7,300.2 207.9,299.9 208.0,301.8 208.2,301.6 208.4,301.5 208.6,302.4 208.7,302.3 208.9,300.4 209.1,299.4 209.2,299.2 209.4,299.4 209.6,299.5 209.7,299.1 209.9,297.7 210.1,297.6 210.2,297.7 210.4,295.8 210.6,295.8 210.7,294.3 210.9,294.8 211.1,295.9 211.2,294.4 211.4,294.9 211.6,294.8 211.7,294.4 211.9,294.4 212.1,298.7 212.2,298.0 212.4,297.1 212.6,297.1 212.7,299.2 212.9,298.7 213.1,298.1 213.2,298.0 213.4,297.0 213.6,297.2 213.7,298.1 213.9,299.0 214.1,301.8 214.2,302.5 214.4,302.9 214.6,303.1 214.7,304.9 214.9,305.9 215.1,304.2 215.3,304.3 215.4,303.1 215.6,302.9 215.8,304.6 215.9,303.4 216.1,302.4 216.3,303.1 216.4,303.3 216.6,303.2 216.8,302.3 216.9,302.3 217.1,301.9 217.3,301.7 217.4,299.9 217.6,299.6 217.8,299.4 217.9,299.1 218.1,300.3 218.3,299.2 218.4,299.0 218.6,298.7 218.8,299.7 218.9,299.5 219.1,299.1 219.3,298.6 219.4,299.1 219.6,299.2 219.8,297.7 219.9,296.9 220.1,296.8 220.3,296.8 220.4,296.2 220.6,297.0 220.8,297.1 220.9,298.0 221.1,297.2 221.3,296.3 221.4,295.3 221.6,293.4 221.8,293.3 222.0,293.4 222.1,293.9 222.3,293.7 222.5,294.4 222.6,294.6 222.8,293.3 223.0,293.2 223.1,293.1 223.3,295.0 223.5,293.1 223.6,292.7 223.8,292.2 224.0,293.2 224.1,292.7 224.3,291.7 224.5,290.8 224.6,290.8 224.8,290.3 225.0,289.1 225.1,288.6 225.3,289.7 225.5,288.1 225.6,289.3 225.8,291.0 226.0,289.9 226.1,287.5 226.3,287.6 226.5,285.9 226.6,284.0 226.8,282.9 227.0,282.2 227.1,281.6 227.3,281.5 227.5,280.6 227.6,281.0 227.8,279.6 228.0,276.8 228.1,276.0 228.3,272.9 228.5,272.1 228.7,273.0 228.8,273.2 229.0,277.0 229.2,272.4 229.3,271.6 229.5,271.5 229.7,269.6 229.8,267.8 230.0,264.9 230.2,264.6 230.3,263.7 230.5,265.3 230.7,266.1 230.8,263.5 231.0,263.6 231.2,260.9 231.3,261.1 231.5,257.5 231.7,255.9 231.8,255.6 232.0,252.1 232.2,248.0 232.3,244.7 232.5,246.2 232.7,249.6 232.8,242.9 233.0,238.9 233.2,241.6 233.3,241.1 233.5,236.4 233.7,230.8 233.8,229.8 234.0,228.1 234.2,233.1 234.3,229.5 234.5,225.7 234.7,227.2 234.8,237.1 235.0,236.5 235.2,242.2 235.4,243.8 235.5,241.2 235.7,238.0 235.9,235.6 236.0,236.4 236.2,231.1 236.4,228.9 236.5,225.0 236.7,220.3 236.9,219.8 237.0,217.9 237.2,232.8 237.4,227.6 237.5,231.8 237.7,229.7 237.9,231.7 238.0,229.1 238.2,225.0 238.4,222.7 238.5,223.7 238.7,223.4 238.9,222.0 239.0,224.5 239.2,221.6 239.4,224.1 239.5,220.8 239.7,220.0 239.9,218.2 240.0,217.7 240.2,217.4 240.4,214.6 240.5,213.4 240.7,212.6 240.9,213.5 241.0,213.6 241.2,209.5 241.4,207.2 241.5,205.8 241.7,203.9 241.9,202.3 242.1,198.3 242.2,195.8 242.4,193.4 242.6,190.2 242.7,190.6 242.9,185.4 243.1,183.8 243.2,182.6 243.4,191.7 243.6,183.5 243.7,175.0 243.9,174.2 244.1,174.0 244.2,171.3 244.4,172.7 244.6,167.5 244.7,159.9 244.9,159.0 245.1,157.7 245.2,158.9 245.4,157.1 245.6,164.8 245.7,159.1 245.9,154.4 246.1,154.6 246.2,151.3 246.4,149.0 246.6,144.9 246.7,146.1 246.9,142.2 247.1,137.0 247.2,131.3 247.4,148.0 247.6,145.6 247.7,152.9 247.9,170.3 248.1,163.0 248.2,160.4 248.4,153.0 248.6,150.9 248.8,145.4 248.9,139.2 249.1,134.3 249.3,136.8 249.4,135.4 249.6,127.8 249.8,126.3 249.9,132.0 250.1,129.6 250.3,138.3 250.4,148.6 250.6,145.6 250.8,138.9 250.9,149.7 251.1,155.3 251.3,155.7 251.4,151.3 251.6,156.5 251.8,168.7 251.9,158.5 252.1,151.9 252.3,154.6 252.4,153.8 252.6,152.2 252.8,152.0 252.9,159.2 253.1,153.8 253.3,152.7 253.4,152.8 253.6,143.0 253.8,132.0 253.9,131.7 254.1,126.2 254.3,123.3 254.4,123.1 254.6,117.0 254.8,114.0 254.9,124.1 255.1,115.4 255.3,105.8 255.5,99.6 255.6,98.4 255.8,101.7 256.0,95.2 256.1,98.2 256.3,98.5 256.5,94.1 256.6,94.0 256.8,98.5 257.0,104.2 257.1,88.8 257.3,83.6 257.5,79.0 257.6,74.0 257.8,69.1 258.0,67.6 258.1,67.1 258.3,71.8 258.5,67.7 258.6,64.4 258.8,57.2 259.0,60.6 259.1,60.5 259.3,57.6 259.5,64.5 259.6,59.6 259.8,74.7 260.0,70.0 260.1,61.3 260.3,58.5 260.5,52.4 260.6,53.7 260.8,57.2 261.0,52.7 261.1,54.3 261.3,51.5 261.5,55.1 261.6,60.6 261.8,56.7 262.0,47.6 262.2,43.3 262.3,41.9 262.5,41.4 262.7,36.9 262.8,38.3 263.0,33.3 263.2,30.0 263.3,33.1 263.5,45.5 263.7,45.6 263.8,54.0 264.0,50.0 264.2,47.1 264.3,62.2 264.5,58.6 264.7,51.9 264.8,46.7 265.0,41.2 265.2,46.1 265.3,54.0 265.5,60.7 265.7,63.2 265.8,61.2 266.0,76.5 266.2,79.6 266.3,83.3 266.5,85.6 266.7,73.4 266.8,77.2 267.0,81.6 267.2,82.3 267.3,77.9 267.5,82.2 267.7,95.5 267.8,90.5 268.0,93.9 268.2,99.1 268.3,102.8 268.5,91.4 268.7,97.6 268.9,95.5 269.0,92.1 269.2,84.0 269.4,83.7 269.5,79.6 269.7,74.1 269.9,73.7 270.0,77.4 270.2,88.9 270.4,83.3 270.5,90.5 270.7,92.1 270.9,85.2 271.0,79.8 271.2,76.0 271.4,69.7 271.5,69.2 271.7,66.3 271.9,60.2 272.0,62.0 272.2,59.2 272.4,57.0 272.5,53.3 272.7,49.0 272.9,50.7 273.0,45.6 273.2,42.2 273.4,40.6 273.5,38.6 273.7,40.7 273.9,52.0 274.0,60.3 274.2,57.4 274.4,73.4 274.5,96.6 274.7,83.5 274.9,80.4 275.0,77.4 275.2,97.9 275.4,96.1 275.6,99.2 275.7,104.5 275.9,107.4 276.1,85.0 276.2,86.7 276.4,92.9 276.6,89.1 276.7,93.1 276.9,87.3 277.1,80.8 277.2,87.4 277.4,89.4 277.6,99.7 277.7,110.5 277.9,110.7 278.1,103.4 278.2,104.4 278.4,101.3 278.6,94.4 278.7,101.5 278.9,104.0 279.1,100.7 279.2,104.4 279.4,115.7 279.6,115.2 279.7,123.0 279.9,129.5 280.1,132.0 280.2,143.4 280.4,155.3 280.6,147.9 280.7,141.2 280.9,139.1 281.1,149.8 281.2,146.9 281.4,146.4 281.6,156.2 281.7,146.2 281.9,153.7 282.1,166.1 282.3,168.1 282.4,162.0 282.6,150.5 282.8,147.8 282.9,159.8 283.1,155.9 283.3,154.1 283.4,168.8 283.6,166.0 283.8,171.3 283.9,177.7 284.1,184.5 284.3,184.7 284.4,183.0 284.6,173.7 284.8,154.7 284.9,153.0 285.1,157.4 285.3,154.5 285.4,143.7 285.6,138.0 285.8,140.7 285.9,151.9 286.1,145.8 286.3,148.5 286.4,147.0 286.6,150.1 286.8,142.8 286.9,144.4 287.1,145.1 287.3,146.4 287.4,158.5 287.6,154.2 287.8,158.4 287.9,160.6 288.1,167.5 288.3,166.4 288.4,160.5 288.6,166.2 288.8,164.4 289.0,163.5 289.1,164.2 289.3,168.2 289.5,170.2 289.6,171.6 289.8,188.4 290.0,192.3 290.1,195.6 290.3,201.9 290.5,203.4 290.6,209.9 290.8,201.1 291.0,214.1 291.1,209.5 291.3,213.1 291.5,209.4 291.6,202.4 291.8,201.7 292.0,211.5 292.1,213.0 292.3,218.5 292.5,218.4 292.6,214.8 292.8,215.9 293.0,207.6 293.1,206.4 293.3,199.7 293.5,202.2 293.6,203.4 293.8,202.0 294.0,209.3 294.1,215.7 294.3,217.3 294.5,211.6 294.6,205.9 294.8,206.3 295.0,207.5 295.1,202.0 295.3,204.2 295.5,202.9 295.7,206.2 295.8,207.5 296.0,212.2 296.2,210.1 296.3,214.1 296.5,218.2 296.7,217.1 296.8,217.2 297.0,224.8 297.2,232.8 297.3,233.6 297.5,233.5 297.7,233.6 297.8,233.4 298.0,241.3 298.2,239.2 298.3,228.3 298.5,233.6 298.7,235.9 298.8,236.2 299.0,240.3 299.2,240.6 299.3,240.0 299.5,236.7 299.7,241.6 299.8,243.0 300.0,245.3 300.2,245.0 300.3,249.0 300.5,252.4 300.7,251.7 300.8,251.4 301.0,255.6 301.2,255.3 301.3,259.9 301.5,264.1 301.7,266.1 301.8,255.6 302.0,247.6 302.2,252.6 302.4,251.7 302.5,246.7 302.7,245.5 302.9,252.3 303.0,253.8 303.2,258.6 303.4,260.2 303.5,265.4 303.7,260.8 303.9,263.8 304.0,265.0 304.2,270.5 304.4,269.8 304.5,266.0 304.7,266.9 304.9,269.8 305.0,269.7 305.2,272.9 305.4,280.4 305.5,277.4 305.7,280.2 305.9,277.8 306.0,279.9 306.2,280.5 306.4,282.0 306.5,278.2 306.7,280.7 306.9,279.0 307.0,271.7 307.2,272.9 307.4,271.7 307.5,267.4 307.7,263.3 307.9,260.7 308.0,269.4 308.2,262.7 308.4,263.9 308.5,264.6 308.7,269.5 308.9,269.7 309.1,269.2 309.2,267.6 309.4,270.0 309.6,268.0 309.7,267.7 309.9,262.7 310.1,260.9 310.2,259.1 310.4,254.3 310.6,257.5 310.7,254.2 310.9,257.2 311.1,262.3 311.2,261.4 311.4,260.2 311.6,259.8 311.7,257.2 311.9,256.8 312.1,258.9 312.2,264.7 312.4,266.6 312.6,267.6 312.7,268.1 312.9,268.5 313.1,269.8 313.2,270.7 313.4,266.9 313.6,263.3 313.7,264.0 313.9,266.6 314.1,264.8 314.2,264.6 314.4,267.3 314.6,262.6 314.7,262.6 314.9,260.5 315.1,259.2 315.2,258.4 315.4,258.6 315.6,257.3 315.8,258.0 315.9,256.5 316.1,253.5 316.3,250.0 316.4,251.0 316.6,245.8 316.8,242.3 316.9,240.5 317.1,240.3 317.3,241.0 317.4,236.2 317.6,232.5 317.8,237.1 317.9,243.6 318.1,242.2 318.3,239.5 318.4,235.6 318.6,242.0 318.8,241.9 318.9,248.6 319.1,251.6 319.3,250.1 319.4,251.5 319.6,243.0 319.8,241.8 319.9,242.9 320.1,247.9 320.3,245.6 320.4,246.8 320.6,247.1 320.8,247.7 320.9,245.6 321.1,240.8 321.3,240.2 321.4,237.2 321.6,237.4 321.8,233.9 321.9,233.1 322.1,236.1 322.3,231.5 322.5,230.3 322.6,231.2 322.8,229.8 323.0,227.4 323.1,225.7 323.3,226.1 323.5,225.7 323.6,231.5 323.8,229.2 324.0,224.6 324.1,221.0 324.3,219.8 324.5,219.2 324.6,219.2 324.8,221.3 325.0,217.9 325.1,219.9 325.3,225.7 325.5,224.7 325.6,225.9 325.8,229.5 326.0,229.2 326.1,224.0 326.3,223.0 326.5,217.6 326.6,216.8 326.8,214.5 327.0,214.4 327.1,213.1 327.3,216.9 327.5,213.2 327.6,211.6 327.8,212.9 328.0,212.7 328.1,211.8 328.3,210.1 328.5,211.7 328.6,215.4 328.8,216.0 329.0,215.3 329.2,217.2 329.3,214.9 329.5,209.0 329.7,208.6 329.8,204.2 330.0,203.4 330.2,204.2 330.3,203.7 330.5,203.0 330.7,201.2 330.8,202.9 331.0,206.2 331.2,202.6 331.3,202.9 331.5,200.0 331.7,197.2 331.8,195.9 332.0,195.7 332.2,195.6 332.3,193.5 332.5,193.6 332.7,193.0 332.8,189.9 333.0,190.7 333.2,186.5 333.3,183.9 333.5,181.2 333.7,178.4 333.8,180.4 334.0,179.7 334.2,177.1 334.3,177.0 334.5,179.2 334.7,173.6 334.8,171.4 335.0,170.9 335.2,169.8 335.3,165.6 335.5,168.6 335.7,164.6 335.9,162.0 336.0,161.0 336.2,156.5 336.4,155.8 336.5,167.5 336.7,163.0 336.9,157.1 337.0,153.9 337.2,154.0 337.4,156.7 337.5,161.3 337.7,167.7 337.9,168.3 338.0,167.6 338.2,177.0 338.4,174.5 338.5,180.2 338.7,192.3 338.9,190.4 339.0,199.7 339.2,192.1 339.4,188.5 339.5,187.0 339.7,194.1 339.9,190.4 340.0,191.3 340.2,197.8 340.4,210.7 340.5,209.9 340.7,207.1 340.9,197.5 341.0,196.0 341.2,194.4 341.4,190.5 341.5,189.1 341.7,191.0 341.9,186.5 342.0,183.2 342.2,182.7 342.4,185.3 342.6,181.6 342.7,188.8 342.9,188.2 343.1,192.8 343.2,197.1 343.4,195.8 343.6,197.1 343.7,202.2 343.9,202.3 344.1,200.3 344.2,190.9 344.4,191.6 344.6,188.8 344.7,187.1 344.9,186.4 345.1,186.3 345.2,181.1 345.4,178.2 345.6,178.7 345.7,180.0 345.9,176.1 346.1,176.0 346.2,182.0 346.4,181.1 346.6,186.0 346.7,184.0 346.9,177.3 347.1,174.8 347.2,173.7 347.4,173.1 347.6,172.0 347.7,171.2 347.9,170.7 348.1,171.2 348.2,171.0 348.4,169.9 348.6,163.5 348.7,163.4 348.9,163.2 349.1,162.5 349.3,163.2 349.4,161.1 349.6,168.1 349.8,163.3 349.9,171.8 350.1,177.9 350.3,170.3 350.4,167.4 350.6,165.2 350.8,165.6 350.9,162.5 351.1,161.0 351.3,163.6 351.4,167.7 351.6,166.4 351.8,166.5 351.9,164.3 352.1,166.0 352.3,167.4 352.4,172.1 352.6,177.4 352.8,177.1 352.9,182.5 353.1,180.7 353.3,174.6 353.4,175.4 353.6,172.2 353.8,170.9 353.9,167.5 354.1,166.5 354.3,168.9 354.4,167.2 354.6,168.5 354.8,172.7 354.9,172.1 355.1,172.0 355.3,168.9 355.4,175.6 355.6,172.8 355.8,172.0 356.0,170.9 356.1,170.5 356.3,177.2 356.5,176.4 356.6,178.9 356.8,181.2 357.0,186.2 357.1,188.8 357.3,188.4 357.5,188.5 357.6,191.6 357.8,191.9 358.0,186.9 358.1,187.6 358.3,191.5 358.5,191.7 358.6,190.6 358.8,187.9 359.0,187.5 359.1,185.7 359.3,186.8 359.5,188.8 359.6,186.1 359.8,183.3 360.0,183.9 360.1,181.4 360.3,182.2 360.5,180.7 360.6,185.8 360.8,185.2 361.0,183.6 361.1,182.5 361.3,184.0 361.5,184.2 361.6,186.8 361.8,189.8 362.0,188.5 362.1,184.4 362.3,184.7 362.5,183.2 362.7,182.7 362.8,184.3 363.0,184.2 363.2,187.0 363.3,184.3 363.5,179.4 363.7,178.9 363.8,180.1 364.0,177.4 364.2,176.5 364.3,176.6 364.5,177.7 364.7,180.1 364.8,178.1 365.0,179.8 365.2,177.4 365.3,176.7 365.5,177.2 365.7,179.5 365.8,190.2 366.0,190.3 366.2,186.6 366.3,188.7 366.5,189.3 366.7,190.4 366.8,194.2 367.0,194.8 367.2,197.1 367.3,196.6 367.5,199.5 367.7,198.5 367.8,206.7 368.0,210.3 368.2,209.0 368.3,212.4 368.5,211.4 368.7,207.3 368.8,208.4 369.0,217.5 369.2,214.2 369.3,214.7 369.5,216.9 369.7,214.3 369.9,208.1 370.0,211.6 370.2,211.6 370.4,208.9 370.5,209.5 370.7,214.1 370.9,215.8 371.0,215.0 371.2,216.3 371.4,215.8 371.5,218.7 371.7,218.4 371.9,213.5 372.0,215.4 372.2,214.9 372.4,215.9 372.5,218.6 372.7,213.6 372.9,213.4 373.0,214.9 373.2,215.0 373.4,216.3 373.5,217.4 373.7,224.8 373.9,226.5 374.0,228.7 374.2,228.2 374.4,229.5 374.5,226.5 374.7,225.5 374.9,225.8 375.0,221.5 375.2,219.8 375.4,222.3 375.5,221.2 375.7,223.8 375.9,223.4 376.0,219.4 376.2,215.9 376.4,215.6 376.6,213.6 376.7,212.9 376.9,211.8 377.1,212.7 377.2,208.7 377.4,207.8 377.6,208.4 377.7,205.5 377.9,208.6 378.1,207.9 378.2,209.5 378.4,206.7 378.6,205.5 378.7,210.5 378.9,209.5 379.1,211.5 379.2,209.2 379.4,205.2 379.6,204.0 379.7,204.3 379.9,203.3 380.1,206.6 380.2,206.8 380.4,205.8 380.6,209.9 380.7,209.5 380.9,209.0 381.1,205.7 381.2,206.4 381.4,207.5 381.6,205.3 381.7,205.3 381.9,202.1 382.1,201.6 382.2,201.7 382.4,205.0 382.6,204.6 382.7,202.8 382.9,202.7 383.1,205.8 383.3,209.0 383.4,208.8 383.6,209.5 383.8,209.1 383.9,206.2 384.1,207.7 384.3,208.0 384.4,204.4 384.6,198.0 384.8,192.7 384.9,190.4 385.1,187.7 385.3,187.3 385.4,181.2 385.6,182.5 385.8,178.3 385.9,177.1 386.1,178.4 386.3,178.2 386.4,172.1 386.6,173.0 386.8,176.7 386.9,177.0 387.1,178.1 387.3,172.6 387.4,173.2 387.6,175.7 387.8,172.1 387.9,169.7 388.1,168.1 388.3,169.5 388.4,171.0 388.6,170.4 388.8,183.3 388.9,181.9 389.1,190.6 389.3,194.5 389.4,191.8 389.6,190.0 389.8,190.4 390.0,194.3 390.1,190.1 390.3,187.4 390.5,189.1 390.6,189.3 390.8,192.5 391.0,192.5 391.1,191.4 391.3,191.2 391.5,190.8 391.6,188.7 391.8,190.4 392.0,193.3 392.1,191.0 392.3,185.1 392.5,184.6 392.6,185.9 392.8,186.9 393.0,187.2 393.1,190.0 393.3,185.8 393.5,187.8 393.6,189.4 393.8,190.9 394.0,194.7 394.1,197.9 394.3,196.9 394.5,196.8 394.6,193.0 394.8,189.4 395.0,190.2 395.1,191.1 395.3,190.7 395.5,194.2 395.6,193.2 395.8,192.2 396.0,192.2 396.1,195.2 396.3,202.1 396.5,201.9 396.7,198.0 396.8,203.9 397.0,201.6 397.2,203.3 397.3,204.3 397.5,201.9 397.7,199.0 397.8,198.4 398.0,196.1 398.2,196.0 398.3,198.2 398.5,194.4 398.7,193.4 398.8,187.6 399.0,187.7 399.2,185.9 399.3,186.0 399.5,188.0 399.7,185.3 399.8,190.9 400.0,190.3 400.2,189.3 400.3,188.9 400.5,186.4 400.7,185.5 400.8,186.2 401.0,187.5 401.2,184.6 401.3,180.8 401.5,180.6 401.7,180.5 401.8,184.0 402.0,185.9 402.2,185.0 402.3,188.5 402.5,185.9 402.7,188.9 402.8,187.8 403.0,188.3 403.2,187.4 403.4,184.9 403.5,185.7 403.7,183.2 403.9,183.4 404.0,185.3 404.2,185.4 404.4,187.4 404.5,184.4 404.7,182.2 404.9,181.4 405.0,179.7 405.2,180.8 405.4,181.2 405.5,178.6 405.7,179.6 405.9,179.3 406.0,179.3 406.2,183.1 406.4,183.1 406.5,181.8 406.7,182.8 406.9,185.8 407.0,186.9 407.2,188.2 407.4,191.0 407.5,189.2 407.7,188.1 407.9,193.0 408.0,193.1 408.2,193.4 408.4,192.9 408.5,191.5 408.7,192.0 408.9,194.6 409.0,193.0 409.2,194.7 409.4,193.7 409.5,192.3 409.7,193.5 409.9,193.4 410.1,199.3 410.2,199.1 410.4,201.2 410.6,201.9 410.7,202.8 410.9,203.3 411.1,200.5 411.2,200.4 411.4,203.2 411.6,201.4 411.7,200.4 411.9,200.1 412.1,203.5 412.2,202.9 412.4,203.6 412.6,201.0 412.7,202.8 412.9,205.5 413.1,207.0 413.2,208.0 413.4,206.0 413.6,206.0 413.7,203.1 413.9,199.0 414.1,198.4 414.2,198.1 414.4,200.6 414.6,198.0 414.7,197.7 414.9,193.4 415.1,193.3 415.2,193.9 415.4,194.6 415.6,194.1 415.7,193.9 415.9,197.2 416.1,194.3 416.2,193.7 416.4,193.0 416.6,193.3 416.8,195.0 416.9,195.2 417.1,197.1 417.3,196.6 417.4,202.5 417.6,201.9 417.8,200.6 417.9,201.7 418.1,202.3 418.3,201.9 418.4,203.2 418.6,203.3 418.8,203.0 418.9,206.7 419.1,212.8 419.3,212.6 419.4,211.0 419.6,208.5 419.8,208.0 419.9,205.5 420.1,206.7 420.3,207.4 420.4,210.4 420.6,212.0 420.8,213.8 420.9,211.2 421.1,211.9 421.3,206.3 421.4,206.5 421.6,209.3 421.8,210.0 421.9,209.7 422.1,210.4 422.3,212.2 422.4,215.8 422.6,217.0 422.8,213.7 422.9,215.1 423.1,215.4 423.3,217.2 423.5,216.4 423.6,216.7 423.8,216.4 424.0,219.6 424.1,219.0 424.3,214.2 424.5,219.3 424.6,220.2 424.8,223.7 425.0,222.1 425.1,223.7 425.3,225.0 425.5,225.4 425.6,226.9 425.8,227.2 426.0,221.7 426.1,220.6 426.3,221.1 426.5,220.4 426.6,224.8 426.8,225.3 427.0,229.0 427.1,229.8 427.3,225.7 427.5,222.8 427.6,221.3 427.8,220.9 428.0,217.9 428.1,218.7 428.3,218.5 428.5,215.9 428.6,215.8 428.8,214.6 429.0,216.3 429.1,216.8 429.3,215.3 429.5,218.4 429.6,218.7 429.8,215.4 430.0,215.8 430.2,220.2 430.3,220.7 430.5,223.9 430.7,223.8 430.8,223.8 431.0,225.3 431.2,225.0 431.3,226.1 431.5,225.9 431.7,223.8 431.8,229.0 432.0,225.3 432.2,226.9 432.3,229.0 432.5,229.3 432.7,228.6 432.8,228.8 433.0,230.1 433.2,231.6 433.3,234.9 433.5,236.3 433.7,239.7 433.8,236.8 434.0,237.1 434.2,237.6 434.3,239.8 434.5,239.7 434.7,238.6 434.8,240.0 435.0,241.8 435.2,241.7 435.3,241.4 435.5,239.4 435.7,242.2 435.8,243.5 436.0,242.7 436.2,238.1 436.3,233.4 436.5,234.1 436.7,234.1 436.9,236.5 437.0,239.4 437.2,232.6 437.4,234.9 437.5,232.1 437.7,230.0 437.9,232.6 438.0,232.4 438.2,234.5 438.4,231.1 438.5,229.9 438.7,230.0 438.9,232.8 439.0,228.6 439.2,228.5 439.4,228.3 439.5,228.4 439.7,229.0 439.9,227.3 440.0,228.1 440.2,228.1 440.4,227.8 440.5,226.6 440.7,224.5 440.9,224.0 441.0,221.5 441.2,221.0 441.4,220.6 441.5,222.3 441.7,222.4 441.9,219.6 442.0,220.6 442.2,223.1 442.4,224.2 442.5,222.2 442.7,220.5 442.9,221.1 443.0,219.5 443.2,224.0 443.4,225.2 443.6,222.9 443.7,222.6 443.9,225.3 444.1,225.1 444.2,225.3 444.4,227.1 444.6,227.0 444.7,227.5 444.9,231.8 445.1,233.6 445.2,232.9 445.4,229.5 445.6,229.1 445.7,230.5 445.9,229.1 446.1,229.1 446.2,226.1 446.4,225.5 446.6,225.9 446.7,227.8 446.9,224.3 447.1,224.6 447.2,222.7 447.4,224.0 447.6,224.0 447.7,222.8 447.9,222.5 448.1,222.8 448.2,219.4 448.4,218.9 448.6,217.5 448.7,217.3 448.9,217.9 449.1,220.9 449.2,220.9 449.4,222.1 449.6,223.4 449.7,223.3 449.9,225.8 450.1,223.5 450.3,225.9 450.4,225.1 450.6,222.7 450.8,223.3 450.9,224.6 451.1,225.9 451.3,223.5 451.4,221.3 451.6,221.8 451.8,222.4 451.9,222.4 452.1,226.8 452.3,226.8 452.4,226.9 452.6,227.8 452.8,228.8 452.9,226.8 453.1,227.9 453.3,225.5 453.4,226.7 453.6,226.2 453.8,225.4 453.9,226.8 454.1,227.1 454.3,229.5 454.4,232.8 454.6,232.9 454.8,233.4 454.9,234.7 455.1,232.5 455.3,232.3 455.4,232.1 455.6,232.3 455.8,234.4 455.9,231.9 456.1,235.2 456.3,235.8 456.4,234.7 456.6,233.3 456.8,233.2 457.0,236.2 457.1,235.3 457.3,235.3 457.5,234.7 457.6,236.3 457.8,238.2 458.0,237.6 458.1,238.6 458.3,239.3 458.5,239.2 458.6,240.0 458.8,240.2 459.0,238.6 459.1,240.1 459.3,238.9 459.5,237.0 459.6,236.9 459.8,236.8 460.0,235.5 460.1,236.2 460.3,239.0 460.5,238.7 460.6,240.2 460.8,241.0 461.0,241.3 461.1,242.0 461.3,241.3 461.5,242.4 461.6,242.0 461.8,243.6 462.0,246.4 462.1,245.8 462.3,247.2 462.5,247.4 462.6,247.8 462.8,246.4 463.0,247.8 463.1,248.1 463.3,247.0 463.5,241.1 463.7,240.5 463.8,241.4 464.0,240.9 464.2,242.2 464.3,241.2 464.5,244.6 464.7,246.0 464.8,245.3 465.0,248.3 465.2,248.1 465.3,247.1 465.5,247.4 465.7,248.9 465.8,245.0 466.0,242.5 466.2,243.9 466.3,240.9 466.5,240.7 466.7,242.0 466.8,241.9 467.0,242.4 467.2,242.2 467.3,242.1 467.5,240.0 467.7,240.2 467.8,239.7 468.0,241.4 468.2,241.7 468.3,242.6 468.5,245.2 468.7,245.9 468.8,245.7 469.0,244.8 469.2,242.2 469.3,241.7 469.5,242.0 469.7,242.6 469.8,242.9 470.0,245.4 470.2,245.6 470.4,245.0 470.5,247.3 470.7,246.7 470.9,248.4 471.0,249.4 471.2,249.5 471.4,250.1 471.5,248.4 471.7,249.4 471.9,248.5 472.0,249.5 472.2,251.0 472.4,252.3 472.5,253.1 472.7,251.6 472.9,253.5 473.0,252.1 473.2,247.6 473.4,247.8 473.5,245.3 473.7,243.8 473.9,244.6 474.0,244.0 474.2,245.5 474.4,238.8 474.5,238.2 474.7,238.1 474.9,237.9 475.0,237.1 475.2,237.9 475.4,237.3 475.5,233.3 475.7,232.8 475.9,233.5 476.0,231.4 476.2,228.9 476.4,228.8 476.5,228.1 476.7,228.8 476.9,228.7 477.1,228.4 477.2,231.3 477.4,225.7 477.6,224.6 477.7,225.7 477.9,227.1 478.1,224.6 478.2,223.7 478.4,224.5 478.6,223.9 478.7,225.4 478.9,226.0 479.1,221.3 479.2,219.8 479.4,219.1 479.6,219.2 479.7,215.8 479.9,215.6 480.1,214.2 480.2,213.9 480.4,214.9 480.6,214.1 480.7,216.2 480.9,219.3 481.1,218.2 481.2,223.7 481.4,224.5 481.6,224.0 481.7,226.3 481.9,224.6 482.1,220.0 482.2,220.3 482.4,227.6 482.6,223.0 482.7,221.4 482.9,223.2 483.1,223.9 483.2,224.8 483.4,227.0 483.6,228.6 483.8,228.2 483.9,227.9 484.1,230.1 484.3,228.8 484.4,223.7 484.6,223.4 484.8,223.2 484.9,223.6 485.1,225.8 485.3,225.3 485.4,230.3 485.6,230.6 485.8,230.7 485.9,231.1 486.1,231.2 486.3,231.9 486.4,230.9 486.6,231.1 486.8,231.6 486.9,232.5 487.1,234.0 487.3,232.7 487.4,232.7 487.6,232.3 487.8,228.3 487.9,228.4 488.1,233.3 488.3,230.5 488.4,232.2 488.6,233.4 488.8,233.2 488.9,230.7 489.1,228.7 489.3,228.5 489.4,227.7 489.6,228.6 489.8,227.8 489.9,228.4 490.1,230.7 490.3,229.9 490.5,227.1 490.6,224.8 490.8,223.8 491.0,223.5 491.1,223.3 491.3,225.3 491.5,224.5 491.6,224.4 491.8,221.7 492.0,221.8 492.1,222.3 492.3,224.0 492.5,224.2 492.6,226.4 492.8,226.7 493.0,228.6 493.1,231.2 493.3,236.2 493.5,235.2 493.6,236.0 493.8,235.1 494.0,236.1 494.1,240.8 494.3,241.1 494.5,249.8 494.6,250.1 494.8,249.9 495.0,250.4 495.1,248.0 495.3,247.3 495.5,246.7 495.6,247.8 495.8,246.7 496.0,246.5 496.1,250.2 496.3,250.3 496.5,246.6 496.6,240.5 496.8,243.6 497.0,241.7 497.2,241.1 497.3,243.1 497.5,245.4 497.7,248.6 497.8,247.9 498.0,244.1 498.2,245.1 498.3,245.8 498.5,246.6 498.7,249.5 498.8,248.7 499.0,248.5 499.2,245.4 499.3,245.2 499.5,243.4 499.7,242.5 499.8,243.3 500.0,243.5 500.2,243.0 500.3,239.0 500.5,238.6 500.7,239.2 500.8,240.8 501.0,241.9 501.2,240.3 501.3,241.4 501.5,241.6 501.7,241.9 501.8,242.9 502.0,240.0 502.2,239.7 502.3,240.5 502.5,241.0 502.7,241.3 502.8,240.9 503.0,238.9 503.2,239.1 503.3,239.6 503.5,238.7 503.7,233.8 503.9,231.8 504.0,231.3 504.2,229.8 504.4,230.9 504.5,231.5 504.7,234.6 504.9,234.3 505.0,231.9 505.2,233.6 505.4,234.5 505.5,237.1 505.7,236.5 505.9,235.7 506.0,233.7 506.2,233.0 506.4,234.5 506.5,232.1 506.7,231.9 506.9,232.2 507.0,234.9 507.2,235.4 507.4,234.6 507.5,232.0 507.7,233.5 507.9,235.1 508.0,236.2 508.2,238.1 508.4,238.2 508.5,237.8 508.7,235.7 508.9,237.8 509.0,237.1 509.2,237.4 509.4,237.2 509.5,238.9 509.7,239.7 509.9,241.7 510.0,241.2 510.2,239.7 510.4,242.8 510.6,241.9 510.7,239.1 510.9,234.5 511.1,235.5 511.2,234.7 511.4,235.6 511.6,236.3 511.7,236.9 511.9,236.9 512.1,235.3 512.2,233.8 512.4,233.9 512.6,235.1 512.7,233.7 512.9,231.7 513.1,232.1 513.2,233.1 513.4,233.2 513.6,233.0 513.7,235.4 513.9,235.6 514.1,235.8 514.2,238.1 514.4,238.8 514.6,238.7 514.7,240.2 514.9,243.4 515.1,243.0 515.2,242.8 515.4,241.8 515.6,244.2 515.7,241.9 515.9,242.2 516.1,240.3 516.2,240.8 516.4,242.7 516.6,245.8 516.7,245.8 516.9,245.6 517.1,246.7 517.3,247.8 517.4,248.4 517.6,247.3 517.8,247.5 517.9,247.3 518.1,249.3 518.3,250.1 518.4,248.8 518.6,245.5 518.8,246.2 518.9,245.3 519.1,247.1 519.3,246.9 519.4,246.4 519.6,247.9 519.8,247.3 519.9,244.0 520.1,243.0 520.3,242.6 520.4,243.3 520.6,242.4 520.8,241.4 520.9,243.2 521.1,241.6 521.3,242.9 521.4,244.2 521.6,247.2 521.8,250.5 521.9,250.2 522.1,250.8 522.3,249.3 522.4,248.6 522.6,249.0 522.8,250.2 522.9,249.6 523.1,249.9 523.3,254.1 523.4,253.5 523.6,253.1 523.8,251.6 524.0,252.6 524.1,251.4 524.3,251.7 524.5,252.7 524.6,254.8 524.8,250.5 525.0,249.4 525.1,249.6 525.3,249.8 525.5,250.7 525.6,250.9 525.8,251.2 526.0,250.2 526.1,249.2 526.3,250.1 526.5,248.9 526.6,245.8 526.8,245.8 527.0,243.7 527.1,243.9 527.3,244.0 527.5,246.3 527.6,246.1 527.8,246.6 528.0,246.6 528.1,248.8 528.3,248.2 528.5,248.4 528.6,248.6 528.8,250.0 529.0,251.9 529.1,250.5 529.3,250.5 529.5,250.6 529.6,250.6 529.8,251.8 530.0,251.9 530.1,252.0 530.3,249.2 530.5,249.5 530.7,249.7 530.8,251.4 531.0,251.3 531.2,253.1 531.3,253.0 531.5,251.9 531.7,252.2 531.8,251.1 532.0,250.7 532.2,251.2 532.3,249.9 532.5,250.7 532.7,250.6 532.8,251.0 533.0,252.3 533.2,251.0 533.3,251.9 533.5,251.9 533.7,250.3 533.8,250.4 534.0,250.8 534.2,249.5 534.3,248.5 534.5,249.9 534.7,250.4 534.8,252.4 535.0,251.8 535.2,252.0 535.3,251.3 535.5,252.0 535.7,251.1 535.8,251.0 536.0,250.1 536.2,250.2 536.3,249.8 536.5,249.2 536.7,249.3 536.8,249.5 537.0,249.2 537.2,251.1 537.3,251.4 537.5,251.1 537.7,249.7 537.9,249.5 538.0,249.8 538.2,250.6 538.4,250.2 538.5,250.0 538.7,248.5 538.9,248.2 539.0,245.9 539.2,244.5 539.4,240.7 539.5,240.3 539.7,240.8 539.9,239.1 540.0,240.4 540.2,237.6 540.4,238.0 540.5,238.4 540.7,240.5 540.9,240.3 541.0,238.2 541.2,238.7 541.4,238.6 541.5,240.0 541.7,238.5 541.9,237.7 542.0,237.7 542.2,238.2 542.4,238.9 542.5,238.2 542.7,239.6 542.9,240.7 543.0,240.5 543.2,241.5 543.4,239.9 543.5,238.8 543.7,237.0 543.9,235.7 544.0,234.6 544.2,233.3 544.4,233.5 544.6,234.3 544.7,234.8 544.9,233.9 545.1,234.0 545.2,236.9 545.4,236.1 545.6,235.7 545.7,234.7 545.9,237.4 546.1,236.2 546.2,233.7 546.4,234.0 546.6,234.0 546.7,233.4 546.9,233.2 547.1,231.5 547.2,231.3 547.4,232.2 547.6,232.9 547.7,233.4 547.9,232.4 548.1,233.6 548.2,233.7 548.4,232.9 548.6,234.2 548.7,235.1 548.9,236.4 549.1,236.7 549.2,238.0 549.4,235.2 549.6,233.1 549.7,232.1 549.9,229.8 550.1,229.5 550.2,229.5 550.4,230.1 550.6,229.9 550.7,230.1 550.9,226.4 551.1,226.8 551.3,224.7 551.4,225.5 551.6,225.5 551.8,226.3 551.9,227.8 552.1,228.1 552.3,228.1 552.4,225.3 552.6,221.4 552.8,219.3 552.9,217.0 553.1,215.2 553.3,211.9 553.4,211.3 553.6,205.1 553.8,202.5 553.9,194.4 554.1,193.2 554.3,185.6 554.4,194.3 554.6,187.5 554.8,189.8 554.9,189.2 555.1,187.7 555.3,182.6 555.4,179.2 555.6,180.1 555.8,177.9 555.9,177.2 556.1,181.3 556.3,187.0 556.4,180.7 556.6,174.2 556.8,173.6 556.9,173.5 557.1,169.0 557.3,162.6 557.4,162.6 557.6,162.4 557.8,167.4 558.0,168.2 558.1,170.2 558.3,170.1 558.5,170.8 558.6,164.8 558.8,162.9 559.0,179.6 559.1,177.1 559.3,168.1 559.5,167.0 559.6,166.7 559.8,164.6 560.0,166.5 560.1,169.5 560.3,172.0 560.5,174.9 560.6,179.6 560.8,174.7 561.0,176.8 561.1,178.9 561.3,182.1 561.5,180.1 561.6,176.5 561.8,174.9 562.0,174.4 562.1,172.8 562.3,171.0 562.5,169.6 562.6,172.2 562.8,167.0 563.0,166.6 563.1,165.0 563.3,170.5 563.5,169.1 563.6,171.2 563.8,172.2 564.0,168.7 564.1,169.7 564.3,169.5 564.5,165.5 564.7,164.0 564.8,158.8 565.0,155.7 565.2,150.4 565.3,150.8 565.5,147.7 565.7,143.0 565.8,142.9 566.0,144.8 566.2,144.3 566.3,143.0 566.5,136.1 566.7,138.3 566.8,134.0 567.0,133.9 567.2,131.2 567.3,125.9 567.5,123.8 567.7,125.8 567.8,120.9 568.0,116.3 568.2,115.3 568.3,118.8 568.5,110.9 568.7,106.0 568.8,110.4 569.0,104.6 569.2,97.4 569.3,97.4 569.5,99.6 569.7,93.4 569.8,97.3 570.0,95.4 570.2,96.8 570.3,94.6 570.5,105.9 570.7,108.5 570.8,113.4 571.0,108.2 571.2,100.4 571.4,97.0 571.5,98.7 571.7,99.8 571.9,104.7 572.0,107.2 572.2,98.0 572.4,96.5 572.5,91.4 572.7,84.9 572.9,76.1 573.0,70.2 573.2,71.3 573.4,91.9 573.5,91.5 573.7,77.5 573.9,72.4 574.0,73.5 574.2,71.3 574.4,68.3 574.5,61.0 574.7,63.2 574.9,63.7 575.0,63.8 575.2,62.1 575.4,68.9 575.5,78.2 575.7,73.8 575.9,86.1 576.0,103.5 576.2,94.7 576.4,89.1 576.5,99.4 576.7,121.4 576.9,130.0 577.0,113.3 577.2,126.3 577.4,134.9 577.5,148.1 577.7,141.4 577.9,145.6 578.1,161.3 578.2,147.4 578.4,135.0 578.6,128.8 578.7,134.7 578.9,143.3 579.1,141.5 579.2,132.3 579.4,131.8 579.6,131.5 579.7,132.0 579.9,126.4 580.1,130.9 580.2,152.1 580.4,152.5 580.6,145.4 580.7,152.3 580.9,152.2 581.1,151.4 581.2,144.4 581.4,149.2 581.6,151.3 581.7,146.8 581.9,136.3 582.1,137.4 582.2,140.4 582.4,136.8 582.6,137.0 582.7,136.7 582.9,151.7 583.1,148.1 583.2,155.5 583.4,165.7 583.6,184.3 583.7,198.1 583.9,199.1 584.1,188.4 584.2,180.3 584.4,178.9 584.6,179.1 584.8,178.9 584.9,185.8 585.1,180.8 585.3,176.9 585.4,179.4 585.6,180.0 585.8,183.9 585.9,191.6 586.1,182.3 586.3,186.6 586.4,185.7 586.6,182.3 586.8,180.5 586.9,185.0 587.1,183.7 587.3,186.9 587.4,186.2 587.6,190.0 587.8,188.6 587.9,183.0 588.1,180.4 588.3,174.1 588.4,174.2 588.6,176.5 588.8,171.7 588.9,168.9 589.1,168.9 589.3,166.4 589.4,172.6 589.6,169.5 589.8,166.7 589.9,165.7 590.1,165.5 590.3,169.5 590.4,169.0 590.6,168.9 590.8,172.4 590.9,173.0 591.1,163.3 591.3,158.8 591.5,153.6 591.6,150.8 591.8,151.2 592.0,151.2 592.1,153.5 592.3,156.4 592.5,155.3 592.6,155.6 592.8,158.2 593.0,154.7 593.1,154.7 593.3,155.9 593.5,155.9 593.6,154.3 593.8,155.6 594.0,167.6 594.1,167.0 594.3,165.5 594.5,157.8 594.6,156.2 594.8,160.4 595.0,159.8 595.1,163.7 595.3,162.9 595.5,163.7 595.6,164.6 595.8,158.4 596.0,159.4 596.1,160.0 596.3,155.8 596.5,155.1 596.6,149.3 596.8,148.6 597.0,149.2 597.1,151.4 597.3,150.9 597.5,157.5 597.6,155.4 597.8,155.2 598.0,157.3 598.2,172.8 598.3,172.2 598.5,168.6 598.7,183.2 598.8,179.2 599.0,189.2 599.2,187.8 599.3,191.4 599.5,187.5 599.7,193.6 599.8,192.9 600.0,187.4 600.2,190.3 600.3,195.8 600.5,193.9 600.7,193.0 600.8,204.1 601.0,204.7 601.2,209.3 601.3,203.8 601.5,206.5 601.7,202.9 601.8,203.7 602.0,201.5 602.2,202.8 602.3,203.8 602.5,198.4 602.7,196.9 602.8,197.4 603.0,197.6 603.2,193.6 603.3,195.3 603.5,194.1 603.7,205.4 603.8,203.7 604.0,207.9 604.2,204.7 604.3,197.6 604.5,197.1 604.7,195.0 604.9,194.4 605.0,194.2 605.2,196.3 605.4,199.8 605.5,199.5 605.7,196.7 605.9,196.2 606.0,195.3 606.2,193.2 606.4,190.4 606.5,185.8 606.7,187.2 606.9,186.6 607.0,189.8 607.2,188.9 607.4,190.5 607.5,192.6 607.7,187.8 607.9,187.7 608.0,187.5 608.2,184.9 608.4,185.3 608.5,188.2 608.7,189.6 608.9,187.0 609.0,187.7 609.2,185.1 609.4,184.3 609.5,184.5 609.7,187.1 609.9,186.5 610.0,189.9 610.2,191.1 610.4,190.2 610.5,191.0 610.7,190.0 610.9,190.8 611.0,191.1 611.2,191.3 611.4,188.0 611.6,188.2 611.7,187.9 611.9,192.9 612.1,196.7 612.2,196.5 612.4,195.7 612.6,195.3 612.7,196.2 612.9,195.0 613.1,195.5 613.2,196.6 613.4,196.9 613.6,196.0 613.7,195.4 613.9,196.8 614.1,197.1 614.2,196.8 614.4,196.9 614.6,196.7 614.7,190.6 614.9,191.1 615.1,190.7 615.2,189.4 615.4,190.0 615.6,190.1 615.7,190.9 615.9,196.7 616.1,196.1 616.2,193.7 616.4,195.0 616.6,194.1 616.7,193.9 616.9,194.3 617.1,192.7 617.2,193.7 617.4,196.0 617.6,193.5 617.7,192.5 617.9,191.6 618.1,191.5 618.3,191.5 618.4,188.5 618.6,188.3 618.8,187.8 618.9,188.2 619.1,189.2 619.3,188.6 619.4,184.4 619.6,183.8 619.8,184.2 619.9,184.2 620.1,185.1 620.3,185.9 620.4,186.5 620.6,185.6 620.8,187.3 620.9,186.9 621.1,184.6 621.3,187.7 621.4,187.5 621.6,188.5 621.8,190.1 621.9,189.4 622.1,189.1 622.3,188.7 622.4,188.5 622.6,186.7 622.8,185.4 622.9,186.2 623.1,186.8 623.3,183.2 623.4,177.3 623.6,178.2 623.8,178.5 623.9,179.0 624.1,179.0 624.3,180.6 624.4,180.3 624.6,181.1 624.8,182.3 625.0,182.4 625.1,182.4 625.3,182.1 625.5,181.2 625.6,182.7 625.8,182.0 626.0,181.7 626.1,180.3 626.3,180.4 626.5,180.5 626.6,181.8 626.8,185.0 627.0,185.2 627.1,186.5 627.3,185.0 627.5,185.3 627.6,184.8 627.8,183.4 628.0,184.3 628.1,187.6 628.3,186.3 628.5,186.9 628.6,186.1 628.8,185.6 629.0,183.2 629.1,182.4 629.3,182.8 629.5,182.7 629.6,182.5 629.8,184.1 630.0,181.6 630.1,181.9 630.3,181.7 630.5,181.2 630.6,178.8 630.8,178.8 631.0,179.6 631.1,180.1 631.3,180.4 631.5,180.7 631.7,179.3 631.8,180.8 632.0,179.0 632.2,179.6 632.3,179.5 632.5,178.6 632.7,179.7 632.8,177.5 633.0,175.9 633.2,175.1 633.3,175.1 633.5,175.1 633.7,174.7 633.8,175.9 634.0,174.5 634.2,172.8 634.3,172.5 634.5,171.6 634.7,169.7 634.8,168.9 635.0,167.2 635.2,168.7 635.3,167.1 635.5,169.2 635.7,172.8 635.8,173.4 636.0,172.4 636.2,172.7 636.3,171.3 636.5,176.3 636.7,176.6 636.8,178.1 637.0,180.4 637.2,180.1 637.3,181.1 637.5,182.3 637.7,180.5 637.8,180.7 638.0,182.4 638.2,181.5 638.4,181.9 638.5,182.7 638.7,183.0 638.9,182.2 639.0,180.3 639.2,178.8 639.4,178.8 639.5,180.0 639.7,179.0 639.9,179.4 640.0,180.8 640.2,181.8 640.4,181.6 640.5,181.7 640.7,181.3 640.9,180.5 641.0,181.1 641.2,179.6 641.4,179.0 641.5,179.0 641.7,178.3 641.9,177.6 642.0,179.0 642.2,178.5 642.4,178.9 642.5,177.9 642.7,177.1 642.9,176.1 643.0,174.7 643.2,174.8 643.4,175.6 643.5,174.5 643.7,175.6 643.9,172.7 644.0,172.0 644.2,171.6 644.4,172.5 644.5,172.5 644.7,174.2 644.9,173.8 645.1,173.4 645.2,174.8 645.4,175.2 645.6,174.1 645.7,173.7 645.9,174.0 646.1,175.3 646.2,175.2 646.4,173.4 646.6,173.5 646.7,173.1 646.9,172.1 647.1,174.2 647.2,174.0 647.4,173.0 647.6,173.9 647.7,173.2 647.9,171.6 648.1,172.3 648.2,172.8 648.4,173.0 648.6,174.7 648.7,173.6 648.9,170.7 649.1,170.1 649.2,169.9 649.4,170.7 649.6,169.9 649.7,170.4 649.9,170.1 650.1,171.8 650.2,172.2 650.4,173.2 650.6,174.2 650.7,173.2 650.9,172.9 651.1,175.0 651.2,174.5 651.4,174.2 651.6,174.1 651.8,174.5 651.9,175.3 652.1,176.1 652.3,176.6 652.4,177.9 652.6,179.3 652.8,179.7 652.9,180.6 653.1,179.5 653.3,177.8 653.4,176.9 653.6,175.2 653.8,176.3 653.9,177.0 654.1,176.7 654.3,176.2 654.4,175.5 654.6,175.5 654.8,171.8 654.9,172.1 655.1,171.4 655.3,171.1 655.4,171.8 655.6,172.8 655.8,171.4 655.9,169.0 656.1,167.3 656.3,166.4 656.4,166.6 656.6,166.1 656.8,168.9 656.9,169.3 657.1,169.9 657.3,167.8 657.4,168.2 657.6,165.7 657.8,165.6 657.9,163.7 658.1,161.0 658.3,160.6 658.5,162.3 658.6,161.0 658.8,161.1 659.0,162.0 659.1,163.8 659.3,161.5 659.5,161.5 659.6,161.7 659.8,161.9 660.0,160.8 660.1,161.5 660.3,159.9 660.5,158.9 660.6,161.3 660.8,161.1 661.0,157.3 661.1,156.3 661.3,157.4 661.5,156.5 661.6,157.9 661.8,158.8 662.0,158.4 662.1,157.8 662.3,156.9 662.5,154.9 662.6,155.5 662.8,157.5 663.0,158.7 663.1,157.5 663.3,157.2 663.5,157.3 663.6,158.2 663.8,162.2 664.0,159.4 664.1,158.7 664.3,159.0 664.5,157.8 664.6,157.6 664.8,156.7 665.0,156.0 665.2,155.8 665.3,157.0 665.5,153.4 665.7,150.6 665.8,151.1 666.0,151.1 666.2,151.9 666.3,151.4 666.5,150.5 666.7,149.8 666.8,150.2 667.0,151.4 667.2,151.6 667.3,151.7 667.5,150.9 667.7,150.6 667.8,151.4 668.0,151.3 668.2,150.6 668.3,151.3 668.5,150.7 668.7,150.9 668.8,150.9 669.0,152.1 669.2,151.9 669.3,151.9 669.5,151.8 669.7,151.0 669.8,148.3 670.0,147.8 670.2,147.1 670.3,146.5 670.5,146.0 670.7,146.4 670.8,146.5 671.0,144.6 671.2,145.4 671.3,145.7 671.5,145.4 671.7,143.7 671.9,142.7 672.0,141.7 672.2,140.0 672.4,140.7 672.5,140.9 672.7,141.5 672.9,141.5 673.0,141.7 673.2,140.1 673.4,138.1 673.5,138.5 673.7,136.8 673.9,134.7 674.0,133.7 674.2,135.4 674.4,136.9 674.5,135.1 674.7,134.1 674.9,132.8 675.0,128.4 675.2,127.8 675.4,135.2 675.5,135.1 675.7,138.4 675.9,138.0 676.0,138.1 676.2,141.0 676.4,141.4 676.5,140.2 676.7,138.9 676.9,140.4 677.0,143.0 677.2,141.1 677.4,137.2 677.5,140.4 677.7,138.3 677.9,139.8 678.0,142.4 678.2,142.2 678.4,139.2 678.6,139.5 678.7,137.3 678.9,138.1 679.1,138.9 679.2,138.1 679.4,141.8 679.6,140.2 679.7,139.5 679.9,136.1 680.1,134.7 680.2,133.7 680.4,133.1 680.6,131.8 680.7,130.1 680.9,129.0 681.1,129.1 681.2,128.0 681.4,128.0 681.6,126.0 681.7,126.6 681.9,125.2 682.1,124.4 682.2,121.4 682.4,118.6 682.6,118.2 682.7,119.7 682.9,118.7 683.1,123.4 683.2,126.1 683.4,125.0 683.6,126.7 683.7,125.2 683.9,125.1 684.1,132.5 684.2,138.3 684.4,140.6 684.6,150.8 684.7,147.8 684.9,145.1 685.1,143.3 685.3,138.2 685.4,137.1 685.6,134.3 685.8,137.8 685.9,139.9 686.1,138.4 686.3,140.3 686.4,140.2 686.6,137.4 686.8,139.1 686.9,136.7 687.1,134.9 687.3,133.7 687.4,135.9 687.6,137.0 687.8,135.6 687.9,138.0 688.1,136.9 688.3,136.7 688.4,137.7 688.6,140.1 688.8,147.0 688.9,148.4 689.1,146.5 689.3,150.6 689.4,147.6 689.6,147.3 689.8,148.0 689.9,149.5 690.1,149.9 690.3,150.0 690.4,145.6 690.6,145.0 690.8,147.3 690.9,149.0 691.1,152.6 691.3,156.2 691.4,155.2 691.6,152.5 691.8,155.5 692.0,155.2 692.1,150.6 692.3,151.5 692.5,155.8 692.6,155.7 692.8,155.3 693.0,153.6 693.1,154.7 693.3,151.1 693.5,148.5 693.6,148.9 693.8,147.7 694.0,148.9 694.1,146.7 694.3,145.8 694.5,147.7 694.6,149.4 694.8,147.1 695.0,146.0 695.1,146.9 695.3,149.9 695.5,151.6 695.6,152.2 695.8,151.2 696.0,152.9 696.1,157.7 696.3,153.0 696.5,154.9 696.6,152.7 696.8,150.5 697.0,151.0 697.1,151.3 697.3,154.4 697.5,154.4 697.6,151.6 697.8,153.9 698.0,154.8 698.1,155.9 698.3,163.8 698.5,162.9 698.7,165.5 698.8,164.5 699.0,167.4 699.2,169.1 699.3,173.4 699.5,175.5 699.7,170.3 699.8,176.4 700.0,176.3 700.2,179.0 700.3,180.3 700.5,179.0 700.7,173.4 700.8,172.9 701.0,176.4 701.2,172.1 701.3,171.4 701.5,172.6 701.7,174.0 701.8,175.0 702.0,175.2 702.2,171.4 702.3,169.4 702.5,166.1 702.7,166.4 702.8,168.8 703.0,169.7 703.2,170.1 703.3,169.9 703.5,174.1 703.7,178.6 703.8,181.9 704.0,184.4 704.2,178.7 704.3,182.0 704.5,177.0 704.7,176.6 704.8,177.5 705.0,178.5 705.2,183.3 705.3,184.2 705.5,187.0 705.7,184.8 705.9,181.2 706.0,182.4 706.2,181.6 706.4,181.3 706.5,176.5 706.7,176.9 706.9,177.7 707.0,179.8 707.2,180.8 707.4,181.5 707.5,179.0 707.7,182.9 707.9,185.0 708.0,184.1 708.2,187.0 708.4,187.3 708.5,188.6 708.7,186.6 708.9,186.3 709.0,188.5 709.2,184.6 709.4,182.1 709.5,182.2 709.7,176.3 709.9,178.1 710.0,175.9 710.2,176.7 710.4,174.6 710.5,183.4 710.7,183.5 710.9,183.9 711.0,193.3 711.2,190.5 711.4,193.1 711.5,194.6 711.7,193.6 711.9,198.0 712.0,192.6 712.2,184.6 712.4,189.7 712.6,189.5 712.7,189.1 712.9,190.3 713.1,196.1 713.2,194.1 713.4,191.5 713.6,190.1 713.7,183.4 713.9,185.0 714.1,186.2 714.2,187.5 714.4,188.0 714.6,190.7 714.7,188.4 714.9,186.5 715.1,188.5 715.2,186.2 715.4,185.3 715.6,183.1 715.7,187.7 715.9,187.2 716.1,187.9 716.2,192.1 716.4,192.2 716.6,192.5 716.7,190.0 716.9,192.5 717.1,190.4 717.2,185.1 717.4,184.7 717.6,185.7 717.7,189.8 717.9,189.8 718.1,192.0 718.2,191.1 718.4,190.5 718.6,187.6 718.7,190.8 718.9,191.1 719.1,193.0 719.3,195.2 719.4,196.6 719.6,198.9 719.8,198.3 719.9,199.6 720.1,200.5 720.3,201.2 720.4,200.0 720.6,202.4 720.8,202.7 720.9,198.5 721.1,197.4 721.3,197.8 721.4,196.0 721.6,196.3 721.8,195.0 721.9,196.6 722.1,193.0 722.3,193.0 722.4,194.0 722.6,190.6 722.8,189.6 722.9,192.1 723.1,192.2 723.3,191.2 723.4,189.7 723.6,189.7 723.8,189.1 723.9,190.6 724.1,188.7 724.3,185.9 724.4,182.4 724.6,181.0 724.8,177.1 724.9,176.8 725.1,180.5 725.3,174.2 725.4,174.5 725.6,173.8 725.8,174.4 726.0,169.8 726.1,157.4 726.3,160.0 726.5,160.4 726.6,160.9 726.8,156.2 727.0,153.5 727.1,152.2 727.3,150.3 727.5,152.6 727.6,161.6 727.8,157.3 728.0,155.8 728.1,157.7 728.3,159.2 728.5,156.4 728.6,150.1 728.8,151.2 729.0,151.1 729.1,151.0 729.3,151.2 729.5,156.6 729.6,159.1 729.8,156.5 730.0,157.4 730.1,148.9 730.3,142.9 730.5,143.0 730.6,140.0 730.8,137.6 731.0,137.9 731.1,136.8 731.3,136.2 731.5,141.5 731.6,142.0 731.8,142.8 732.0,136.2 732.1,136.1 732.3,137.0 732.5,134.2 732.7,139.8 732.8,140.2 733.0,139.5 733.2,144.8 733.3,147.9 733.5,147.2 733.7,146.5 733.8,160.0 734.0,157.9 734.2,161.0 734.3,165.1 734.5,157.3 734.7,161.0 734.8,162.4 735.0,157.5 735.2,156.5 735.3,162.1 735.5,164.0 735.7,161.1 735.8,162.1 736.0,166.0 736.2,165.4 736.3,162.8 736.5,160.7 736.7,161.2 736.8,162.6 737.0,163.3 737.2,163.1 737.3,165.1 737.5,165.2 737.7,167.1 737.8,164.4 738.0,158.0 738.2,159.6 738.3,160.0 738.5,161.8 738.7,161.8 738.8,161.0 739.0,158.2 739.2,151.5 739.4,151.2 739.5,150.7 739.7,153.1 739.9,153.5 740.0,151.1 740.2,151.7 740.4,145.1 740.5,145.0 740.7,147.6 740.9,148.8 741.0,147.6 741.2,153.0 741.4,153.6 741.5,154.0 741.7,154.1 741.9,152.7 742.0,151.7 742.2,152.8 742.4,152.9 742.5,155.0 742.7,152.7 742.9,154.3 743.0,153.8 743.2,152.0 743.4,150.1 743.5,149.7 743.7,150.0 743.9,149.0 744.0,151.1 744.2,153.0 744.4,156.3 744.5,160.5 744.7,162.9 744.9,163.8 745.0,160.9 745.2,163.0 745.4,159.2 745.5,161.1 745.7,160.1 745.9,159.5 746.1,158.5 746.2,153.7 746.4,153.9 746.6,154.3 746.7,153.6 746.9,151.9 747.1,155.2 747.2,152.2 747.4,153.0 747.6,153.8 747.7,153.2 747.9,150.3 748.1,150.0 748.2,148.1 748.4,145.7 748.6,144.4 748.7,142.9 748.9,143.7 749.1,145.5 749.2,143.0 749.4,143.8 749.6,147.8 749.7,146.6 749.9,145.8 750.1,145.1 750.2,147.8 750.4,147.2 750.6,149.0 750.7,150.7 750.9,150.1 751.1,152.3 751.2,150.9 751.4,150.6 751.6,148.7 751.7,146.5 751.9,144.1 752.1,145.1 752.2,145.9 752.4,145.7 752.6,149.1 752.8,148.4 752.9,147.5 753.1,149.0 753.3,149.0 753.4,147.4 753.6,145.7 753.8,146.6 753.9,147.8 754.1,148.0 754.3,144.1 754.4,142.6 754.6,141.1 754.8,142.2 754.9,141.8 755.1,142.9 755.3,147.1 755.4,147.0 755.6,147.2 755.8,146.9 755.9,148.6 756.1,146.8 756.3,144.5 756.4,146.8 756.6,147.9 756.8,150.2 756.9,148.5 757.1,147.7 757.3,148.7 757.4,149.5 757.6,151.5 757.8,151.0 757.9,150.1 758.1,150.2 758.3,148.5 758.4,147.1 758.6,147.5 758.8,147.2 758.9,147.1 759.1,147.8 759.3,143.2 759.5,142.1 759.6,138.8 759.8,139.4 760.0,139.7 760.1,140.3 760.3,143.3 760.5,141.7 760.6,141.9 760.8,139.8 761.0,140.0 761.1,136.5 761.3,135.6 761.5,132.3 761.6,132.7 761.8,133.6 762.0,131.8 762.1,134.7 762.3,131.6 762.5,131.6 762.6,129.2 762.8,130.1 763.0,131.4 763.1,132.5 763.3,132.1 763.5,130.3 763.6,134.5 763.8,133.5 764.0,141.1 764.1,159.8 764.3,154.0 764.5,151.5 764.6,147.3 764.8,147.3 765.0,146.3 765.1,144.1 765.3,142.2 765.5,143.7 765.6,142.0 765.8,136.7 766.0,137.9 766.2,138.3 766.3,132.7 766.5,132.5 766.7,133.4 766.8,134.0 767.0,137.0 767.2,136.3 767.3,144.9 767.5,137.2 767.7,135.9 767.8,134.5 768.0,129.1 768.2,133.1 768.3,141.5 768.5,136.4 768.7,139.6 768.8,144.2 769.0,147.5 769.2,157.5 769.3,158.5 769.5,162.9 769.7,165.7 769.8,161.9 770.0,169.2 770.2,163.5 770.3,157.8 770.5,159.2 770.7,158.5 770.8,160.6 771.0,159.9 771.2,160.6 771.3,157.1 771.5,158.3 771.7,153.3 771.8,154.3 772.0,153.6 772.2,155.0 772.3,155.9 772.5,151.7 772.7,153.3 772.9,153.0 773.0,150.8 773.2,150.0 773.4,152.7 773.5,150.8 773.7,151.4 773.9,153.4 774.0,151.8 774.2,150.3 774.4,149.2 774.5,146.5 774.7,145.1 774.9,145.8 775.0,143.5 775.2,143.7 775.4,143.7 775.5,143.2 775.7,145.7 775.9,146.5 776.0,145.9 776.2,143.9 776.4,145.2 776.5,146.4 776.7,151.7 776.9,151.4 777.0,148.9 777.2,150.5 777.4,149.8 777.5,149.2 777.7,143.0 777.9,142.3 778.0,142.3 778.2,142.4 778.4,141.2 778.5,140.0 778.7,138.5 778.9,139.0 779.0,141.6 779.2,141.1 779.4,144.0 779.6,140.5 779.7,140.3 779.9,138.7 780.1,135.5 780.2,135.3 780.4,134.1 780.6,133.1 780.7,134.8 780.9,131.6 781.1,126.6 781.2,121.4 781.4,116.4 781.6,101.6 781.7,99.9 781.9,95.4 782.1,91.5 782.2,96.7 782.4,90.7 782.6,93.5 782.7,97.2 782.9,110.7 783.1,109.0 783.2,101.0 783.4,100.3 783.6,98.9 783.7,99.1 783.9,111.3 784.1,110.0 784.2,107.6 784.4,101.1 784.6,102.4 784.7,100.1 784.9,95.6 785.1,95.3 785.2,95.2 785.4,96.1 785.6,99.3 785.7,98.3 785.9,100.9 786.1,102.9 786.3,103.6 786.4,99.5 786.6,93.0 786.8,93.1 786.9,97.4 787.1,101.0 787.3,98.7 787.4,96.5 787.6,96.1 787.8,99.4 787.9,97.9 788.1,91.3 788.3,92.9 788.4,91.4 788.6,91.3 788.8,92.9 788.9,95.6 789.1,101.6 789.3,100.1 789.4,106.6 789.6,106.8 789.8,104.1 789.9,102.7 790.1,100.5 790.3,102.3 790.4,103.8 790.6,97.6 790.8,100.3 790.9,103.6 791.1,102.6 791.3,107.9 791.4,107.5 791.6,106.8 791.8,106.2 791.9,106.5 792.1,100.9 792.3,92.5 792.4,91.6 792.6,93.5 792.8,94.0 793.0,94.4 793.1,96.5 793.3,94.3 793.5,94.3 793.6,95.2 793.8,98.7 794.0,100.3 794.1,99.8 794.3,97.6 794.5,95.5 794.6,100.1 794.8,98.6 795.0,95.2 795.1,93.1 795.3,88.8 795.5,88.8 795.6,83.1 795.8,84.8 796.0,87.7 796.1,87.4 796.3,90.5 796.5,87.7 796.6,88.3 796.8,88.4 797.0,86.3 797.1,85.4 797.3,81.7 797.5,83.5 797.6,87.3 797.8,86.8 798.0,83.2 798.1,84.4 798.3,78.0 798.5,78.0 798.6,78.6 798.8,78.1 799.0,80.7 799.1,81.4 799.3,85.4 799.5,85.5 799.7,88.6 799.8,85.9 800.0,85.3 800.2,84.8 800.3,81.0 800.5,82.0 800.7,79.2 800.8,84.1 801.0,81.6 801.2,82.0 801.3,79.5 801.5,78.2 801.7,79.5 801.8,75.3 802.0,69.5 802.2,66.1 802.3,60.2 802.5,57.2 802.7,51.6 802.8,52.6 803.0,55.9 803.2,46.7 803.3,47.7 803.5,54.1 803.7,54.9 803.8,51.3 804.0,56.1 804.2,53.8 804.3,48.5 804.5,48.2 804.7,44.9 804.8,51.6 805.0,50.7 805.2,59.7 805.3,61.1 805.5,57.3 805.7,52.3 805.8,53.2 806.0,53.9 806.2,53.4 806.4,48.5 806.5,41.3 806.7,34.1 806.9,36.5 807.0,35.8 807.2,46.6 807.4,47.6 807.5,56.1 807.7,54.2 807.9,62.0 808.0,57.2 808.2,61.3 808.4,55.2 808.5,65.4 808.7,66.4 808.9,77.3 809.0,83.7 809.2,81.8 809.4,74.4 809.5,73.3 809.7,79.9 809.9,77.3 810.0,76.0 810.2,73.6 810.4,81.6 810.5,78.6 810.7,81.5 810.9,86.2 811.0,86.4 811.2,79.8 811.4,79.2 811.5,76.4 811.7,79.1 811.9,75.4 812.0,72.4 812.2,73.7 812.4,75.9 812.5,75.4 812.7,79.9 812.9,85.1 813.1,85.6 813.2,83.2 813.4,85.0 813.6,84.0 813.7,76.9 813.9,77.1 814.1,76.2 814.2,76.7 814.4,74.0 814.6,77.4 814.7,76.6 814.9,74.9 815.1,72.3 815.2,74.7 815.4,78.4 815.6,82.3 815.7,82.5 815.9,80.6 816.1,79.4 816.2,82.4 816.4,75.5 816.6,71.0 816.7,70.9 816.9,71.8 817.1,71.0 817.2,74.1 817.4,72.8 817.6,63.1 817.7,63.0 817.9,62.0 818.1,63.0 818.2,62.4 818.4,61.8 818.6,64.8 818.7,66.9 818.9,65.3 819.1,65.6 819.2,68.3 819.4,68.0 819.6,65.9 819.8,68.7 819.9,72.1 820.1,77.2 820.3,76.0 820.4,75.9 820.6,76.7 820.8,74.8 820.9,73.3 821.1,72.8 821.3,67.8 821.4,67.1 821.6,70.7 821.8,68.7 821.9,68.4 822.1,77.2 822.3,76.9 822.4,77.1 822.6,73.7 822.8,76.8 822.9,77.9 823.1,74.1 823.3,73.6 823.4,77.1 823.6,73.0 823.8,76.4 823.9,75.3 824.1,75.6 824.3,73.5 824.4,73.0 824.6,76.7 824.8,86.4 824.9,96.8 825.1,96.2 825.3,90.9 825.4,93.2 825.6,85.9 825.8,85.9 825.9,83.3 826.1,85.1 826.3,86.7 826.5,82.9 826.6,79.5 826.8,81.1 827.0,83.6 827.1,85.2 827.3,85.5 827.5,91.7 827.6,88.3 827.8,90.2 828.0,95.7 828.1,91.7 828.3,88.6 828.5,88.1 828.6,93.8 828.8,92.3 829.0,93.1 829.1,93.5 829.3,89.8 829.5,89.8 829.6,91.3 829.8,85.9 830.0,82.4 830.1,83.7 830.3,83.8 830.5,81.2 830.6,82.5 830.8,86.9 831.0,89.9 831.1,93.4 831.3,90.6 831.5,92.6 831.6,90.7 831.8,90.9 832.0,89.3 832.1,88.9 832.3,91.9 832.5,89.9 832.6,86.2 832.8,85.8 833.0,88.9 833.2,85.6 833.3,87.1 833.5,86.0 833.7,89.4 833.8,86.6 834.0,87.3 834.2,86.3 834.3,84.4 834.5,83.2 834.7,84.2 834.8,88.1 835.0,90.1 835.2,87.4 835.3,88.5 835.5,91.5 835.7,92.6 835.8,89.8 836.0,91.4 836.2,91.0 836.3,91.1 836.5,92.6 836.7,88.0 836.8,88.6 837.0,89.0 837.2,88.9 837.3,88.8 837.5,91.6 837.7,88.5 837.8,87.2 838.0,87.2 838.2,87.0 838.3,88.2 838.5,90.3 838.7,90.8 838.8,92.0 839.0,91.3 839.2,90.5 839.3,87.9 839.5,88.4 839.7,86.6 839.9,82.3 840.0,77.4 840.2,78.7 840.4,77.0 840.5,79.1 840.7,81.7 840.9,80.0 841.0,84.7 841.2,89.1 841.4,87.1 841.5,87.1 841.7,85.1 841.9,86.7 842.0,86.8 842.2,84.6 842.4,88.9 842.5,86.7 842.7,85.6 842.9,86.9 843.0,89.8 843.2,92.8 843.4,92.5 843.5,91.3 843.7,94.0 843.9,91.2 844.0,95.9 844.2,98.2 844.4,95.8 844.5,93.1 844.7,95.0 844.9,92.5 845.0,95.1 845.2,94.7 845.4,101.1 845.5,99.1 845.7,104.6 845.9,107.9 846.0,103.7 846.2,105.2 846.4,102.6 846.6,103.4 846.7,105.7 846.9,108.6 847.1,105.7 847.2,104.7 847.4,104.0 847.6,102.7 847.7,103.7 847.9,107.3 848.1,104.4 848.2,109.9 848.4,107.3 848.6,106.8 848.7,104.6 848.9,107.0 849.1,108.6 849.2,111.9 849.4,120.4 849.6,125.6 849.7,127.9 849.9,123.9 850.1,123.1 850.2,131.0 850.4,142.3 850.6,132.1 850.7,127.2 850.9,125.5 851.1,126.0 851.2,126.2 851.4,124.9 851.6,126.4 851.7,131.0 851.9,132.5 852.1,133.4 852.2,126.2 852.4,128.1 852.6,124.9 852.7,125.7 852.9,128.9 853.1,127.6 853.3,135.4 853.4,130.6 853.6,133.0 853.8,130.0 853.9,130.1 854.1,131.4 854.3,133.3 854.4,137.1 854.6,141.6 854.8,140.5 854.9,152.3 855.1,154.1 855.3,147.5 855.4,146.0 855.6,140.4 855.8,140.7 855.9,146.7 856.1,148.6 856.3,146.1 856.4,142.7 856.6,143.8 856.8,142.0 856.9,143.9 857.1,141.0 857.3,141.8 857.4,141.3 857.6,136.7 857.8,138.1 857.9,143.7 858.1,142.3 858.3,141.7 858.4,141.2 858.6,139.6 858.8,135.9 858.9,136.4 859.1,136.0 859.3,131.5 859.4,130.7 859.6,128.3 859.8,130.9 860.0,127.1 860.1,130.1 860.3,128.1 860.5,124.8 860.6,126.5 860.8,123.0 861.0,121.7 861.1,122.0 861.3,125.3 861.5,120.9 861.6,117.9 861.8,115.0 862.0,112.2 862.1,116.3 862.3,112.6 862.5,113.6 862.6,111.9 862.8,112.3 863.0,116.2 863.1,115.0 863.3,115.9 863.5,120.3 863.6,122.7 863.8,122.3 864.0,122.2 864.1,126.6 864.3,124.0 864.5,125.3 864.6,124.5 864.8,127.3 865.0,127.2 865.1,128.7 865.3,126.7 865.5,128.0 865.6,127.9 865.8,131.2 866.0,130.1 866.1,135.0 866.3,137.3 866.5,135.3 866.7,132.0 866.8,132.5 867.0,132.0 867.2,134.8 867.3,129.8 867.5,130.0 867.7,130.3 867.8,130.8 868.0,128.4 868.2,130.6 868.3,132.4 868.5,130.6 868.7,131.8 868.8,136.4 869.0,134.4 869.2,134.9 869.3,136.0 869.5,136.8 869.7,136.6 869.8,138.7 870.0,139.9"/>
</svg>
