<svg xmlns="http://www.w3.org/2000/svg" width="900" height="360">
<rect width="100%" height="100%" fill="white"/>
<text x="45" y="20" font-size="16">沪深300期货 收益率直方图</text>
<line class="axis-x" x1="45" y1="315" x2="855" y2="315" stroke="black" stroke-width="1"/>
<line class="axis-y" x1="45" y1="45" x2="45" y2="315" stroke="black" stroke-width="1"/>
<text x="450.0" y="355" font-size="12" text-anchor="middle">收益率</text>
<text x="14" y="180.0" font-size="12" text-anchor="middle" transform="rotate(-90 14 180.0)">频数</text>
<line x1="45.0" y1="315" x2="45.0" y2="320" stroke="black" stroke-width="1"/>
<text x="45.0" y="333" font-size="10" text-anchor="middle">-0.106</text>
<line x1="450.0" y1="315" x2="450.0" y2="320" stroke="black" stroke-width="1"/>
<text x="450.0" y="333" font-size="10" text-anchor="middle">-0.004</text>
<line x1="855.0" y1="315" x2="855.0" y2="320" stroke="black" stroke-width="1"/>
<text x="855.0" y="333" font-size="10" text-anchor="middle">0.097</text>
<line x1="40" y1="315.0" x2="45" y2="315.0" stroke="black" stroke-width="1"/>
<text x="37" y="318.0" font-size="10" text-anchor="end">0</text>
<line x1="40" y1="180.0" x2="45" y2="180.0" stroke="black" stroke-width="1"/>
<text x="37" y="183.0" font-size="10" text-anchor="end">413</text>
<line x1="40" y1="45.0" x2="45" y2="45.0" stroke="black" stroke-width="1"/>
<text x="37" y="48.0" font-size="10" text-anchor="end">826</text>
<rect x="45.0" y="313.7" width="26.0" height="1.3" fill="#9ecae1"/><rect x="72.0" y="314.7" width="26.0" height="0.3" fill="#9ecae1"/><rect x="99.0" y="314.7" width="26.0" height="0.3" fill="#9ecae1"/><rect x="126.0" y="314.7" width="26.0" height="0.3" fill="#9ecae1"/><rect x="153.0" y="314.3" width="26.0" height="0.7" fill="#9ecae1"/><rect x="180.0" y="313.4" width="26.0" height="1.6" fill="#9ecae1"/><rect x="207.0" y="313.4" width="26.0" height="1.6" fill="#9ecae1"/><rect x="234.0" y="311.7" width="26.0" height="3.3" fill="#9ecae1"/><rect x="261.0" y="311.7" width="26.0" height="3.3" fill="#9ecae1"/><rect x="288.0" y="311.4" width="26.0" height="3.6" fill="#9ecae1"/><rect x="315.0" y="303.2" width="26.0" height="11.8" fill="#9ecae1"/><rect x="342.0" y="301.9" width="26.0" height="13.1" fill="#9ecae1"/><rect x="369.0" y="276.4" width="26.0" height="38.6" fill="#9ecae1"/><rect x="396.0" y="243.4" width="26.0" height="71.6" fill="#9ecae1"/><rect x="423.0" y="146.3" width="26.0" height="168.7" fill="#9ecae1"/><rect x="450.0" y="45.0" width="26.0" height="270.0" fill="#9ecae1"/><rect x="477.0" y="126.1" width="26.0" height="188.9" fill="#9ecae1"/><rect x="504.0" y="216.9" width="26.0" height="98.1" fill="#9ecae1"/><rect x="531.0" y="267.3" width="26.0" height="47.7" fill="#9ecae1"/><rect x="558.0" y="285.3" width="26.0" height="29.7" fill="#9ecae1"/><rect x="585.0" y="300.0" width="26.0" height="15.0" fill="#9ecae1"/><rect x="612.0" y="310.8" width="26.0" height="4.2" fill="#9ecae1"/><rect x="639.0" y="311.1" width="26.0" height="3.9" fill="#9ecae1"/><rect x="666.0" y="312.1" width="26.0" height="2.9" fill="#9ecae1"/><rect x="693.0" y="314.3" width="26.0" height="0.7" fill="#9ecae1"/><rect x="720.0" y="314.3" width="26.0" height="0.7" fill="#9ecae1"/><rect x="747.0" y="314.0" width="26.0" height="1.0" fill="#9ecae1"/><rect x="774.0" y="315.0" width="26.0" height="0.0" fill="#9ecae1"/><rect x="801.0" y="314.3" width="26.0" height="0.7" fill="#9ecae1"/><rect x="828.0" y="314.3" width="26.0" height="0.7" fill="#9ecae1"/>
<polyline fill="none" stroke="#d62728" stroke-width="2" points="45.0,315.0 51.8,315.0 58.6,315.0 65.4,315.0 72.2,315.0 79.0,315.0 85.8,315.0 92.6,315.0 99.5,315.0 106.3,315.0 113.1,315.0 119.9,315.0 126.7,315.0 133.5,315.0 140.3,315.0 147.1,315.0 153.9,315.0 160.7,315.0 167.5,315.0 174.3,315.0 181.1,315.0 187.9,315.0 194.7,315.0 201.6,315.0 208.4,314.9 215.2,314.9 222.0,314.9 228.8,314.8 235.6,314.7 242.4,314.5 249.2,314.3 256.0,314.0 262.8,313.6 269.6,313.0 276.4,312.2 283.2,311.2 290.0,309.8 296.8,308.0 303.7,305.7 310.5,302.8 317.3,299.1 324.1,294.6 330.9,289.2 337.7,282.6 344.5,274.8 351.3,265.7 358.1,255.2 364.9,243.3 371.7,230.1 378.5,215.6 385.3,200.0 392.1,183.4 398.9,166.2 405.8,148.6 412.6,131.1 419.4,114.1 426.2,98.0 433.0,83.4 439.8,70.6 446.6,60.1 453.4,52.1 460.2,47.0 467.0,45.0 473.8,46.1 480.6,50.2 487.4,57.3 494.2,67.1 501.1,79.2 507.9,93.3 514.7,109.0 521.5,125.7 528.3,143.1 535.1,160.7 541.9,178.1 548.7,194.9 555.5,210.9 562.3,225.7 569.1,239.4 575.9,251.7 582.7,262.5 589.5,272.1 596.3,280.3 603.2,287.2 610.0,293.0 616.8,297.8 623.6,301.7 630.4,304.9 637.2,307.4 644.0,309.3 650.8,310.8 657.6,311.9 664.4,312.8 671.2,313.4 678.0,313.9 684.8,314.2 691.6,314.5 698.4,314.6 705.3,314.8 712.1,314.8 718.9,314.9 725.7,314.9 732.5,315.0 739.3,315.0 746.1,315.0 752.9,315.0 759.7,315.0 766.5,315.0 773.3,315.0 780.1,315.0 786.9,315.0 793.7,315.0 800.5,315.0 807.4,315.0 814.2,315.0 821.0,315.0 827.8,315.0 834.6,315.0 841.4,315.0 848.2,315.0 855.0,315.0"/>
</svg>
