<svg xmlns="http://www.w3.org/2000/svg" width="900" height="360">
<rect width="100%" height="100%" fill="white"/>
<text x="30" y="20" font-size="16">贵州茅台 价格</text>
<polyline fill="none" stroke="#1f77b4" stroke-width="2" points="30.0,326.8 30.3,326.8 30.5,327.0 30.8,327.2 31.1,327.4 31.4,327.4 31.6,327.1 31.9,327.4 32.2,326.9 32.5,326.8 32.7,326.7 33.0,326.8 33.3,327.1 33.5,327.0 33.8,327.2 34.1,327.1 34.4,327.0 34.6,327.2 34.9,326.8 35.2,326.9 35.5,326.8 35.7,327.0 36.0,327.1 36.3,326.9 36.5,326.7 36.8,326.7 37.1,326.7 37.4,326.6 37.6,326.5 37.9,326.5 38.2,326.8 38.5,327.0 38.7,326.9 39.0,326.9 39.3,327.0 39.5,327.0 39.8,327.1 40.1,327.1 40.4,327.1 40.6,327.2 40.9,327.3 41.2,327.3 41.5,327.2 41.7,327.3 42.0,327.4 42.3,327.6 42.5,327.6 42.8,327.5 43.1,327.6 43.4,327.6 43.6,327.7 43.9,327.7 44.2,327.6 44.5,327.7 44.7,327.5 45.0,327.4 45.3,327.5 45.6,327.6 45.8,327.5 46.1,328.1 46.4,328.1 46.6,328.1 46.9,328.2 47.2,328.3 47.5,328.4 47.7,328.3 48.0,328.2 48.3,328.4 48.6,328.4 48.8,328.5 49.1,328.7 49.4,328.4 49.6,328.4 49.9,328.7 50.2,329.2 50.5,329.5 50.7,329.6 51.0,329.4 51.3,329.8 51.6,329.8 51.8,329.7 52.1,329.9 52.4,329.7 52.6,329.5 52.9,329.5 53.2,329.5 53.5,329.4 53.7,329.4 54.0,329.7 54.3,329.7 54.6,329.7 54.8,329.6 55.1,329.4 55.4,329.3 55.6,329.6 55.9,329.6 56.2,329.6 56.5,329.6 56.7,329.6 57.0,329.5 57.3,329.4 57.6,329.4 57.8,329.1 58.1,328.9 58.4,329.0 58.6,328.9 58.9,328.9 59.2,329.1 59.5,329.2 59.7,329.6 60.0,329.4 60.3,329.6 60.6,329.6 60.8,329.7 61.1,329.7 61.4,329.9 61.6,330.0 61.9,329.9 62.2,329.9 62.5,329.9 62.7,329.9 63.0,329.8 63.3,329.8 63.6,329.8 63.8,329.6 64.1,329.6 64.4,329.7 64.6,329.6 64.9,329.5 65.2,329.4 65.5,329.2 65.7,329.1 66.0,329.0 66.3,329.0 66.6,328.8 66.8,328.8 67.1,328.7 67.4,328.7 67.6,328.9 67.9,329.0 68.2,328.6 68.5,328.7 68.7,328.6 69.0,328.3 69.3,328.3 69.6,328.0 69.8,328.4 70.1,328.3 70.4,328.2 70.6,328.1 70.9,327.9 71.2,327.8 71.5,327.9 71.7,328.0 72.0,328.2 72.3,328.1 72.6,328.0 72.8,328.2 73.1,328.1 73.4,328.1 73.7,327.4 73.9,327.5 74.2,327.6 74.5,327.4 74.7,327.2 75.0,326.9 75.3,327.0 75.6,326.9 75.8,326.9 76.1,326.7 76.4,326.7 76.7,326.9 76.9,327.2 77.2,327.4 77.5,327.3 77.7,327.0 78.0,326.9 78.3,326.7 78.6,326.6 78.8,326.9 79.1,326.7 79.4,326.4 79.7,326.8 79.9,326.9 80.2,327.3 80.5,327.5 80.7,327.4 81.0,327.2 81.3,327.2 81.6,326.8 81.8,326.8 82.1,326.8 82.4,326.4 82.7,326.7 82.9,326.8 83.2,326.9 83.5,327.2 83.7,327.1 84.0,327.2 84.3,327.1 84.6,327.0 84.8,327.1 85.1,327.1 85.4,327.0 85.7,325.9 85.9,326.2 86.2,326.1 86.5,325.6 86.7,326.1 87.0,327.0 87.3,326.7 87.6,326.3 87.8,326.0 88.1,325.2 88.4,324.4 88.7,324.2 88.9,323.9 89.2,323.2 89.5,324.1 89.7,324.2 90.0,324.5 90.3,324.4 90.6,324.9 90.8,324.6 91.1,324.7 91.4,324.8 91.7,324.6 91.9,324.6 92.2,324.6 92.5,324.4 92.7,323.9 93.0,324.1 93.3,324.6 93.6,324.9 93.8,325.1 94.1,325.1 94.4,325.3 94.7,325.7 94.9,325.7 95.2,325.5 95.5,325.8 95.7,325.6 96.0,325.5 96.3,325.8 96.6,325.9 96.8,325.9 97.1,326.3 97.4,326.4 97.7,326.3 97.9,325.9 98.2,325.9 98.5,326.2 98.7,325.7 99.0,325.7 99.3,325.9 99.6,326.2 99.8,326.5 100.1,326.6 100.4,326.5 100.7,326.4 100.9,326.4 101.2,326.1 101.5,325.9 101.8,326.1 102.0,325.5 102.3,325.5 102.6,325.4 102.8,325.5 103.1,325.6 103.4,325.8 103.7,325.8 103.9,325.6 104.2,325.8 104.5,325.7 104.8,325.7 105.0,325.9 105.3,326.0 105.6,326.0 105.8,326.1 106.1,326.3 106.4,326.2 106.7,326.1 106.9,326.1 107.2,326.1 107.5,325.8 107.8,325.9 108.0,325.7 108.3,326.0 108.6,325.8 108.8,325.2 109.1,325.1 109.4,325.4 109.7,325.5 109.9,325.4 110.2,325.6 110.5,325.6 110.8,325.8 111.0,326.0 111.3,326.0 111.6,325.9 111.8,325.9 112.1,326.1 112.4,326.3 112.7,326.2 112.9,326.1 113.2,326.1 113.5,326.0 113.8,326.2 114.0,326.5 114.3,326.4 114.6,326.4 114.8,326.3 115.1,326.3 115.4,326.2 115.7,325.7 115.9,325.8 116.2,325.8 116.5,326.0 116.8,325.7 117.0,325.5 117.3,325.6 117.6,325.5 117.8,325.5 118.1,325.6 118.4,325.6 118.7,325.5 118.9,325.4 119.2,325.3 119.5,325.3 119.8,325.3 120.0,324.8 120.3,324.4 120.6,324.3 120.8,324.6 121.1,324.8 121.4,324.8 121.7,324.5 121.9,324.9 122.2,324.2 122.5,324.1 122.8,323.7 123.0,323.9 123.3,323.5 123.6,323.8 123.8,323.8 124.1,324.3 124.4,324.2 124.7,324.3 124.9,324.1 125.2,324.2 125.5,324.2 125.8,323.8 126.0,324.2 126.3,324.2 126.6,324.0 126.8,323.8 127.1,323.9 127.4,323.8 127.7,323.6 127.9,323.6 128.2,323.5 128.5,323.4 128.8,323.3 129.0,323.5 129.3,323.5 129.6,323.2 129.9,323.2 130.1,323.0 130.4,323.3 130.7,323.2 130.9,323.3 131.2,323.1 131.5,322.8 131.8,322.8 132.0,322.7 132.3,322.5 132.6,322.2 132.9,322.4 133.1,322.4 133.4,322.4 133.7,322.1 133.9,322.2 134.2,322.5 134.5,322.6 134.8,322.6 135.0,322.3 135.3,322.5 135.6,322.8 135.9,322.6 136.1,322.3 136.4,321.5 136.7,321.3 136.9,321.6 137.2,321.9 137.5,321.9 137.8,322.1 138.0,321.9 138.3,322.4 138.6,322.3 138.9,322.3 139.1,322.1 139.4,321.7 139.7,321.5 139.9,321.5 140.2,321.5 140.5,321.8 140.8,321.8 141.0,322.1 141.3,322.5 141.6,322.1 141.9,322.3 142.1,322.2 142.4,322.6 142.7,322.9 142.9,322.9 143.2,322.5 143.5,322.5 143.8,322.7 144.0,322.4 144.3,322.9 144.6,323.2 144.9,323.7 145.1,323.6 145.4,323.8 145.7,323.8 145.9,323.5 146.2,323.7 146.5,323.8 146.8,323.4 147.0,323.4 147.3,323.5 147.6,323.0 147.9,323.0 148.1,322.9 148.4,323.5 148.7,323.2 148.9,322.7 149.2,322.7 149.5,322.6 149.8,322.6 150.0,322.3 150.3,322.4 150.6,322.1 150.9,321.9 151.1,322.1 151.4,322.1 151.7,322.2 151.9,322.3 152.2,322.4 152.5,322.3 152.8,322.4 153.0,322.1 153.3,322.4 153.6,322.7 153.9,322.6 154.1,322.7 154.4,322.7 154.7,322.2 154.9,322.0 155.2,322.1 155.5,321.9 155.8,321.6 156.0,321.7 156.3,321.9 156.6,321.7 156.9,321.6 157.1,322.2 157.4,322.4 157.7,322.3 158.0,322.5 158.2,322.8 158.5,322.9 158.8,323.1 159.0,322.9 159.3,323.0 159.6,322.6 159.9,322.7 160.1,322.7 160.4,323.0 160.7,322.8 161.0,322.7 161.2,323.3 161.5,323.7 161.8,323.6 162.0,323.4 162.3,323.3 162.6,324.0 162.9,324.1 163.1,323.8 163.4,323.7 163.7,323.2 164.0,323.6 164.2,323.5 164.5,323.7 164.8,324.6 165.0,324.4 165.3,324.6 165.6,324.3 165.9,323.9 166.1,324.1 166.4,323.9 166.7,323.9 167.0,323.9 167.2,323.9 167.5,323.7 167.8,323.9 168.0,323.7 168.3,323.5 168.6,323.5 168.9,323.3 169.1,323.3 169.4,323.2 169.7,323.4 170.0,323.5 170.2,323.5 170.5,323.4 170.8,323.3 171.0,323.2 171.3,322.9 171.6,322.9 171.9,322.7 172.1,322.4 172.4,322.5 172.7,322.7 173.0,322.8 173.2,323.1 173.5,323.3 173.8,323.2 174.0,322.7 174.3,322.7 174.6,322.6 174.9,322.9 175.1,322.8 175.4,322.1 175.7,322.1 176.0,322.1 176.2,322.3 176.5,322.3 176.8,321.7 177.0,321.5 177.3,322.6 177.6,322.6 177.9,322.6 178.1,323.0 178.4,322.2 178.7,322.1 179.0,322.0 179.2,322.1 179.5,322.0 179.8,321.7 180.0,321.7 180.3,321.7 180.6,321.9 180.9,321.6 181.1,322.0 181.4,321.7 181.7,321.8 182.0,321.8 182.2,321.7 182.5,321.4 182.8,320.7 183.0,320.6 183.3,320.5 183.6,319.9 183.9,319.9 184.1,319.9 184.4,320.2 184.7,320.4 185.0,320.4 185.2,320.9 185.5,320.8 185.8,321.1 186.1,321.1 186.3,321.3 186.6,320.8 186.9,320.3 187.1,320.2 187.4,321.1 187.7,321.2 188.0,320.6 188.2,320.6 188.5,320.4 188.8,319.7 189.1,319.4 189.3,319.7 189.6,319.4 189.9,319.7 190.1,319.6 190.4,319.5 190.7,319.8 191.0,319.9 191.2,319.5 191.5,319.0 191.8,319.1 192.1,318.9 192.3,319.1 192.6,319.1 192.9,319.4 193.1,319.6 193.4,319.6 193.7,319.3 194.0,319.7 194.2,319.5 194.5,319.3 194.8,318.2 195.1,317.9 195.3,318.1 195.6,317.4 195.9,317.9 196.1,318.2 196.4,317.6 196.7,317.8 197.0,317.2 197.2,317.2 197.5,317.9 197.8,318.7 198.1,318.6 198.3,318.8 198.6,318.9 198.9,318.3 199.1,317.8 199.4,318.2 199.7,318.3 200.0,318.3 200.2,318.6 200.5,318.9 200.8,318.9 201.1,318.5 201.3,318.4 201.6,318.1 201.9,318.0 202.1,317.3 202.4,318.4 202.7,318.4 203.0,318.5 203.2,318.8 203.5,319.2 203.8,320.0 204.1,319.7 204.3,319.5 204.6,319.8 204.9,320.1 205.1,319.8 205.4,320.1 205.7,320.3 206.0,320.9 206.2,321.0 206.5,320.8 206.8,320.8 207.1,319.7 207.3,319.6 207.6,319.8 207.9,319.0 208.1,319.0 208.4,319.1 208.7,319.1 209.0,319.1 209.2,318.7 209.5,319.0 209.8,319.1 210.1,319.8 210.3,320.0 210.6,319.9 210.9,319.8 211.1,319.2 211.4,319.5 211.7,319.0 212.0,318.6 212.2,319.1 212.5,318.8 212.8,318.8 213.1,318.9 213.3,318.8 213.6,318.6 213.9,318.3 214.2,318.4 214.4,318.2 214.7,318.0 215.0,318.2 215.2,318.7 215.5,318.6 215.8,318.6 216.1,319.0 216.3,319.0 216.6,318.7 216.9,318.5 217.2,318.3 217.4,318.4 217.7,318.9 218.0,319.5 218.2,319.3 218.5,319.6 218.8,319.5 219.1,319.8 219.3,320.1 219.6,319.9 219.9,320.2 220.2,320.4 220.4,321.3 220.7,321.1 221.0,320.9 221.2,321.0 221.5,320.6 221.8,321.0 222.1,320.8 222.3,320.9 222.6,320.9 222.9,321.1 223.2,322.5 223.4,322.7 223.7,322.8 224.0,323.0 224.2,322.6 224.5,322.6 224.8,322.3 225.1,321.5 225.3,322.0 225.6,321.8 225.9,321.5 226.2,321.3 226.4,320.8 226.7,320.9 227.0,321.1 227.2,322.1 227.5,322.1 227.8,322.0 228.1,321.8 228.3,321.4 228.6,321.7 228.9,321.9 229.2,322.1 229.4,321.6 229.7,321.1 230.0,321.3 230.2,321.5 230.5,321.7 230.8,321.6 231.1,322.0 231.3,322.0 231.6,322.2 231.9,322.7 232.2,322.6 232.4,322.6 232.7,322.8 233.0,323.4 233.2,324.3 233.5,324.3 233.8,324.2 234.1,324.3 234.3,324.3 234.6,324.6 234.9,323.8 235.2,323.8 235.4,323.7 235.7,323.5 236.0,324.2 236.2,324.3 236.5,324.3 236.8,324.2 237.1,323.7 237.3,324.1 237.6,324.4 237.9,324.4 238.2,324.6 238.4,324.7 238.7,324.6 239.0,324.6 239.2,324.4 239.5,323.8 239.8,323.8 240.1,323.7 240.3,324.0 240.6,323.8 240.9,324.3 241.2,324.4 241.4,325.1 241.7,325.4 242.0,325.0 242.3,325.3 242.5,325.1 242.8,325.1 243.1,325.0 243.3,325.3 243.6,325.3 243.9,325.1 244.2,325.4 244.4,325.5 244.7,325.5 245.0,325.5 245.3,325.5 245.5,325.0 245.8,325.1 246.1,324.8 246.3,324.8 246.6,324.7 246.9,324.3 247.2,324.2 247.4,324.2 247.7,324.7 248.0,324.9 248.3,324.6 248.5,324.4 248.8,324.7 249.1,324.9 249.3,324.8 249.6,324.4 249.9,323.5 250.2,323.4 250.4,322.7 250.7,322.7 251.0,322.7 251.3,323.2 251.5,322.9 251.8,322.9 252.1,322.8 252.3,322.9 252.6,322.9 252.9,322.5 253.2,322.3 253.4,322.4 253.7,322.3 254.0,322.3 254.3,322.4 254.5,322.5 254.8,322.7 255.1,322.3 255.3,322.3 255.6,322.4 255.9,322.3 256.2,322.3 256.4,322.4 256.7,322.4 257.0,322.8 257.3,322.7 257.5,322.4 257.8,322.6 258.1,322.7 258.3,323.2 258.6,322.8 258.9,322.9 259.2,322.8 259.4,322.6 259.7,322.4 260.0,322.1 260.3,322.1 260.5,322.2 260.8,322.2 261.1,322.3 261.3,322.6 261.6,322.5 261.9,322.3 262.2,322.9 262.4,323.0 262.7,322.7 263.0,323.1 263.3,323.2 263.5,324.0 263.8,324.1 264.1,323.7 264.3,324.1 264.6,323.8 264.9,324.1 265.2,324.4 265.4,324.7 265.7,324.7 266.0,324.4 266.3,324.0 266.5,324.1 266.8,324.1 267.1,324.0 267.3,324.1 267.6,324.3 267.9,323.8 268.2,323.7 268.4,323.8 268.7,323.9 269.0,324.2 269.3,324.1 269.5,324.2 269.8,324.1 270.1,324.1 270.4,324.3 270.6,324.2 270.9,324.3 271.2,324.5 271.4,324.7 271.7,324.6 272.0,326.1 272.3,326.1 272.5,326.1 272.8,326.3 273.1,326.3 273.4,326.2 273.6,326.1 273.9,326.1 274.2,326.1 274.4,326.1 274.7,326.3 275.0,327.0 275.3,327.0 275.5,327.1 275.8,327.4 276.1,327.6 276.4,327.5 276.6,327.7 276.9,327.5 277.2,327.4 277.4,327.4 277.7,327.4 278.0,327.4 278.3,327.2 278.5,326.8 278.8,326.8 279.1,326.8 279.4,326.9 279.6,326.7 279.9,326.9 280.2,326.8 280.4,326.8 280.7,327.4 281.0,327.7 281.3,327.8 281.5,327.8 281.8,327.6 282.1,327.6 282.4,327.5 282.6,327.3 282.9,327.2 283.2,327.2 283.4,327.5 283.7,327.2 284.0,326.7 284.3,326.7 284.5,326.8 284.8,326.8 285.1,326.8 285.4,326.9 285.6,327.0 285.9,327.3 286.2,327.3 286.4,327.1 286.7,327.1 287.0,327.2 287.3,327.0 287.5,327.0 287.8,327.4 288.1,327.4 288.4,327.3 288.6,327.4 288.9,327.3 289.2,327.3 289.4,327.4 289.7,327.5 290.0,327.5 290.3,327.5 290.5,327.8 290.8,327.7 291.1,327.8 291.4,327.9 291.6,328.3 291.9,328.3 292.2,328.3 292.4,328.3 292.7,328.5 293.0,328.3 293.3,328.5 293.5,328.2 293.8,328.4 294.1,328.5 294.4,328.8 294.6,328.8 294.9,328.9 295.2,328.9 295.4,329.0 295.7,328.9 296.0,328.8 296.3,329.0 296.5,328.7 296.8,328.9 297.1,328.3 297.4,328.3 297.6,327.7 297.9,327.7 298.2,327.5 298.5,327.1 298.7,327.2 299.0,327.4 299.3,327.8 299.5,327.7 299.8,327.8 300.1,327.7 300.4,327.7 300.6,327.5 300.9,326.9 301.2,326.3 301.5,326.5 301.7,326.3 302.0,326.4 302.3,326.4 302.5,326.5 302.8,326.9 303.1,327.0 303.4,326.7 303.6,326.3 303.9,325.8 304.2,326.0 304.5,325.4 304.7,325.2 305.0,324.9 305.3,325.7 305.5,325.2 305.8,325.5 306.1,325.0 306.4,325.1 306.6,324.8 306.9,324.4 307.2,324.2 307.5,324.6 307.7,324.4 308.0,324.4 308.3,324.8 308.5,325.5 308.8,325.6 309.1,326.0 309.4,325.9 309.6,325.2 309.9,324.9 310.2,324.9 310.5,325.1 310.7,325.0 311.0,325.1 311.3,324.6 311.5,324.0 311.8,324.2 312.1,324.1 312.4,324.4 312.6,324.1 312.9,324.1 313.2,324.4 313.5,324.4 313.7,324.0 314.0,324.0 314.3,325.0 314.5,325.2 314.8,325.1 315.1,325.1 315.4,325.4 315.6,325.3 315.9,325.3 316.2,325.3 316.5,325.4 316.7,325.3 317.0,325.3 317.3,325.8 317.5,325.7 317.8,325.8 318.1,326.5 318.4,326.7 318.6,326.2 318.9,326.3 319.2,326.1 319.5,326.0 319.7,326.0 320.0,325.9 320.3,325.9 320.5,326.0 320.8,326.0 321.1,326.2 321.4,325.9 321.6,326.0 321.9,326.0 322.2,325.9 322.5,325.9 322.7,326.0 323.0,326.0 323.3,325.9 323.5,326.0 323.8,326.0 324.1,326.0 324.4,326.0 324.6,325.7 324.9,325.1 325.2,325.3 325.5,325.4 325.7,325.5 326.0,325.4 326.3,325.4 326.6,325.4 326.8,325.2 327.1,325.2 327.4,325.2 327.6,325.3 327.9,325.4 328.2,325.5 328.5,325.4 328.7,324.6 329.0,324.2 329.3,324.1 329.6,324.2 329.8,323.5 330.1,323.5 330.4,323.3 330.6,323.2 330.9,323.2 331.2,323.2 331.5,323.2 331.7,323.5 332.0,323.7 332.3,323.6 332.6,323.3 332.8,323.2 333.1,323.0 333.4,323.3 333.6,323.5 333.9,323.4 334.2,323.3 334.5,323.4 334.7,323.3 335.0,323.4 335.3,323.4 335.6,323.6 335.8,323.7 336.1,323.4 336.4,323.6 336.6,323.7 336.9,323.7 337.2,323.8 337.5,323.9 337.7,324.0 338.0,323.8 338.3,323.7 338.6,323.3 338.8,323.1 339.1,323.1 339.4,322.9 339.6,323.2 339.9,323.2 340.2,323.4 340.5,323.4 340.7,323.7 341.0,323.8 341.3,323.8 341.6,323.7 341.8,323.5 342.1,323.9 342.4,323.8 342.6,323.6 342.9,323.4 343.2,323.4 343.5,323.3 343.7,323.4 344.0,323.5 344.3,323.6 344.6,323.7 344.8,324.0 345.1,324.1 345.4,323.9 345.6,323.9 345.9,323.8 346.2,323.9 346.5,323.7 346.7,323.7 347.0,323.7 347.3,323.7 347.6,323.8 347.8,323.7 348.1,323.8 348.4,324.0 348.6,323.9 348.9,324.0 349.2,324.4 349.5,325.0 349.7,324.9 350.0,324.8 350.3,324.2 350.6,324.2 350.8,324.3 351.1,324.4 351.4,323.9 351.6,323.6 351.9,324.0 352.2,324.3 352.5,324.5 352.7,324.3 353.0,324.2 353.3,324.1 353.6,324.0 353.8,323.9 354.1,324.0 354.4,323.6 354.7,323.5 354.9,323.1 355.2,322.2 355.5,322.5 355.7,322.3 356.0,322.3 356.3,321.6 356.6,322.0 356.8,322.0 357.1,321.2 357.4,321.6 357.7,321.7 357.9,321.7 358.2,321.5 358.5,321.2 358.7,320.8 359.0,321.3 359.3,321.1 359.6,320.9 359.8,321.3 360.1,321.0 360.4,320.7 360.7,319.4 360.9,319.9 361.2,320.4 361.5,320.5 361.7,320.6 362.0,321.0 362.3,321.1 362.6,321.3 362.8,321.0 363.1,321.0 363.4,322.1 363.7,321.8 363.9,321.4 364.2,321.5 364.5,321.5 364.7,321.3 365.0,321.6 365.3,321.9 365.6,322.0 365.8,321.9 366.1,322.1 366.4,321.8 366.7,321.9 366.9,322.2 367.2,322.2 367.5,321.2 367.7,321.3 368.0,321.3 368.3,321.3 368.6,321.4 368.8,321.3 369.1,321.4 369.4,321.2 369.7,321.0 369.9,320.5 370.2,320.6 370.5,321.0 370.7,320.9 371.0,321.1 371.3,321.3 371.6,320.5 371.8,320.9 372.1,320.4 372.4,320.4 372.7,320.7 372.9,320.3 373.2,320.0 373.5,319.7 373.7,320.1 374.0,320.3 374.3,320.1 374.6,320.1 374.8,320.4 375.1,319.8 375.4,320.2 375.7,320.0 375.9,320.1 376.2,320.1 376.5,320.2 376.7,320.0 377.0,319.6 377.3,319.2 377.6,319.7 377.8,319.6 378.1,319.3 378.4,319.1 378.7,319.1 378.9,317.1 379.2,316.5 379.5,316.3 379.7,314.0 380.0,313.4 380.3,314.1 380.6,313.9 380.8,314.2 381.1,314.9 381.4,314.8 381.7,314.5 381.9,314.2 382.2,315.6 382.5,315.5 382.8,315.2 383.0,314.3 383.3,314.0 383.6,314.3 383.8,314.1 384.1,314.6 384.4,315.2 384.7,315.6 384.9,314.7 385.2,314.3 385.5,313.9 385.8,312.2 386.0,311.1 386.3,311.2 386.6,312.1 386.8,313.6 387.1,313.4 387.4,312.6 387.7,313.1 387.9,313.5 388.2,313.9 388.5,314.4 388.8,313.3 389.0,313.8 389.3,313.7 389.6,313.7 389.8,313.2 390.1,313.7 390.4,314.3 390.7,314.2 390.9,315.3 391.2,316.2 391.5,314.5 391.8,313.6 392.0,314.6 392.3,315.5 392.6,315.1 392.8,314.0 393.1,314.0 393.4,313.7 393.7,314.8 393.9,314.3 394.2,315.3 394.5,316.0 394.8,314.0 395.0,313.2 395.3,314.0 395.6,314.8 395.8,314.6 396.1,314.6 396.4,314.2 396.7,314.5 396.9,314.9 397.2,315.4 397.5,315.2 397.8,315.2 398.0,317.1 398.3,316.7 398.6,316.5 398.8,316.6 399.1,316.6 399.4,316.3 399.7,316.0 399.9,316.5 400.2,316.8 400.5,316.5 400.8,316.0 401.0,316.1 401.3,316.3 401.6,316.3 401.8,316.2 402.1,316.6 402.4,317.2 402.7,317.1 402.9,317.8 403.2,318.8 403.5,320.7 403.8,319.9 404.0,319.1 404.3,317.6 404.6,318.1 404.8,317.8 405.1,317.9 405.4,317.9 405.7,318.5 405.9,318.5 406.2,318.2 406.5,318.1 406.8,318.1 407.0,317.0 407.3,317.1 407.6,316.8 407.8,317.5 408.1,317.4 408.4,317.4 408.7,317.4 408.9,317.9 409.2,318.0 409.5,318.0 409.8,318.3 410.0,318.4 410.3,318.4 410.6,317.6 410.9,317.6 411.1,317.5 411.4,317.4 411.7,317.5 411.9,317.3 412.2,317.2 412.5,317.0 412.8,317.1 413.0,317.3 413.3,317.0 413.6,316.1 413.9,315.4 414.1,315.6 414.4,315.9 414.7,315.9 414.9,315.8 415.2,315.9 415.5,316.2 415.8,315.7 416.0,315.5 416.3,315.3 416.6,315.0 416.9,314.8 417.1,315.1 417.4,315.1 417.7,315.6 417.9,315.8 418.2,315.7 418.5,315.7 418.8,315.7 419.0,315.8 419.3,315.9 419.6,316.0 419.9,315.9 420.1,315.9 420.4,316.5 420.7,315.7 420.9,315.8 421.2,314.9 421.5,315.1 421.8,315.6 422.0,315.7 422.3,316.0 422.6,315.7 422.9,315.9 423.1,316.0 423.4,315.8 423.7,315.7 423.9,315.8 424.2,315.6 424.5,315.4 424.8,314.3 425.0,314.5 425.3,314.8 425.6,314.6 425.9,314.6 426.1,315.2 426.4,315.1 426.7,315.2 426.9,315.3 427.2,316.2 427.5,315.9 427.8,316.0 428.0,317.1 428.3,316.8 428.6,317.3 428.9,317.7 429.1,317.3 429.4,316.8 429.7,317.4 429.9,317.4 430.2,316.2 430.5,317.1 430.8,317.3 431.0,317.0 431.3,317.0 431.6,317.4 431.9,317.3 432.1,317.7 432.4,317.2 432.7,317.2 432.9,316.8 433.2,316.9 433.5,316.8 433.8,316.9 434.0,317.3 434.3,316.9 434.6,317.1 434.9,317.1 435.1,317.0 435.4,316.4 435.7,315.9 435.9,315.4 436.2,315.9 436.5,315.5 436.8,315.7 437.0,315.3 437.3,314.6 437.6,314.2 437.9,313.0 438.1,313.6 438.4,314.1 438.7,314.3 439.0,314.2 439.2,314.2 439.5,314.6 439.8,313.8 440.0,314.2 440.3,314.1 440.6,314.4 440.9,313.8 441.1,313.5 441.4,313.5 441.7,312.6 442.0,312.4 442.2,311.8 442.5,312.0 442.8,311.9 443.0,312.1 443.3,312.3 443.6,312.3 443.9,311.0 444.1,311.3 444.4,311.8 444.7,312.5 445.0,312.4 445.2,312.7 445.5,312.6 445.8,312.4 446.0,312.5 446.3,312.6 446.6,313.1 446.9,312.9 447.1,312.1 447.4,312.4 447.7,312.5 448.0,312.4 448.2,312.2 448.5,311.7 448.8,310.7 449.0,311.1 449.3,310.9 449.6,311.6 449.9,311.7 450.1,311.6 450.4,311.0 450.7,311.1 451.0,311.7 451.2,311.6 451.5,311.8 451.8,312.4 452.0,312.3 452.3,311.7 452.6,311.3 452.9,311.6 453.1,311.6 453.4,311.5 453.7,311.5 454.0,311.1 454.2,310.2 454.5,310.3 454.8,309.8 455.0,308.1 455.3,308.9 455.6,308.7 455.9,309.1 456.1,309.9 456.4,309.3 456.7,308.9 457.0,309.2 457.2,308.7 457.5,308.9 457.8,309.2 458.0,308.7 458.3,308.9 458.6,309.2 458.9,307.6 459.1,307.6 459.4,307.6 459.7,307.2 460.0,307.1 460.2,306.3 460.5,305.5 460.8,303.6 461.0,303.7 461.3,304.5 461.6,303.9 461.9,302.8 462.1,303.6 462.4,303.7 462.7,303.6 463.0,303.8 463.2,304.7 463.5,304.6 463.8,304.0 464.1,304.7 464.3,304.3 464.6,303.4 464.9,304.0 465.1,303.8 465.4,304.1 465.7,304.8 466.0,304.9 466.2,304.8 466.5,304.9 466.8,304.9 467.1,304.7 467.3,303.8 467.6,304.0 467.9,303.7 468.1,303.7 468.4,303.5 468.7,304.5 469.0,304.7 469.2,304.9 469.5,304.8 469.8,304.8 470.1,304.8 470.3,305.0 470.6,305.2 470.9,305.4 471.1,304.7 471.4,304.9 471.7,304.4 472.0,304.6 472.2,304.9 472.5,304.6 472.8,304.5 473.1,304.8 473.3,304.9 473.6,305.1 473.9,305.8 474.1,305.5 474.4,305.6 474.7,305.6 475.0,306.1 475.2,306.2 475.5,305.9 475.8,305.8 476.1,306.8 476.3,306.6 476.6,306.9 476.9,306.6 477.1,305.8 477.4,305.2 477.7,304.6 478.0,304.9 478.2,305.1 478.5,304.9 478.8,305.3 479.1,304.8 479.3,304.9 479.6,305.0 479.9,305.1 480.1,304.8 480.4,304.1 480.7,304.0 481.0,303.7 481.2,303.7 481.5,303.6 481.8,303.7 482.1,303.9 482.3,303.8 482.6,303.9 482.9,303.9 483.1,303.3 483.4,303.7 483.7,303.4 484.0,303.9 484.2,304.3 484.5,304.0 484.8,304.1 485.1,304.3 485.3,304.5 485.6,304.5 485.9,304.6 486.1,304.1 486.4,303.7 486.7,303.7 487.0,303.4 487.2,302.9 487.5,303.4 487.8,303.2 488.1,303.1 488.3,303.8 488.6,302.6 488.9,302.5 489.1,301.3 489.4,301.3 489.7,302.6 490.0,301.9 490.2,301.9 490.5,302.4 490.8,302.5 491.1,302.7 491.3,302.6 491.6,302.4 491.9,302.7 492.2,303.3 492.4,302.8 492.7,302.6 493.0,302.9 493.2,302.5 493.5,301.7 493.8,301.7 494.1,299.7 494.3,300.3 494.6,299.9 494.9,300.1 495.2,300.1 495.4,300.5 495.7,300.3 496.0,300.5 496.2,300.9 496.5,300.1 496.8,299.4 497.1,299.4 497.3,299.4 497.6,299.8 497.9,299.9 498.2,300.2 498.4,300.6 498.7,300.3 499.0,300.3 499.2,300.7 499.5,300.6 499.8,300.2 500.1,300.5 500.3,300.0 500.6,299.9 500.9,300.1 501.2,300.2 501.4,299.9 501.7,298.7 502.0,299.0 502.2,298.6 502.5,298.6 502.8,298.5 503.1,299.1 503.3,299.4 503.6,299.2 503.9,299.2 504.2,299.2 504.4,298.9 504.7,298.0 505.0,298.0 505.2,297.7 505.5,297.7 505.8,297.5 506.1,297.8 506.3,297.2 506.6,297.2 506.9,296.7 507.2,295.9 507.4,295.0 507.7,294.9 508.0,295.5 508.2,295.8 508.5,296.7 508.8,296.5 509.1,296.2 509.3,295.9 509.6,295.9 509.9,295.5 510.2,295.2 510.4,295.1 510.7,295.5 511.0,296.0 511.2,295.4 511.5,294.5 511.8,294.8 512.1,294.8 512.3,293.8 512.6,293.7 512.9,292.6 513.2,294.3 513.4,294.5 513.7,292.2 514.0,292.3 514.2,291.9 514.5,292.8 514.8,293.0 515.1,292.3 515.3,292.5 515.6,292.5 515.9,293.7 516.2,293.3 516.4,293.2 516.7,293.0 517.0,292.8 517.2,292.1 517.5,290.9 517.8,291.3 518.1,291.0 518.3,289.7 518.6,289.6 518.9,288.2 519.2,288.7 519.4,288.6 519.7,288.5 520.0,289.5 520.3,288.8 520.5,289.0 520.8,289.3 521.1,288.8 521.3,287.6 521.6,287.1 521.9,286.9 522.2,286.1 522.4,286.1 522.7,286.0 523.0,287.1 523.3,287.3 523.5,286.4 523.8,286.9 524.1,286.1 524.3,286.1 524.6,286.1 524.9,284.8 525.2,284.9 525.4,285.9 525.7,286.1 526.0,286.2 526.3,287.5 526.5,288.5 526.8,287.6 527.1,288.0 527.3,288.4 527.6,287.4 527.9,286.4 528.2,287.1 528.4,287.2 528.7,287.2 529.0,287.9 529.3,287.6 529.5,287.2 529.8,286.1 530.1,285.3 530.3,284.8 530.6,284.7 530.9,285.5 531.2,285.2 531.4,284.1 531.7,284.4 532.0,284.5 532.3,284.2 532.5,284.8 532.8,285.2 533.1,284.3 533.3,284.2 533.6,283.3 533.9,283.2 534.2,284.0 534.4,282.2 534.7,282.7 535.0,282.6 535.3,283.1 535.5,283.4 535.8,283.4 536.1,283.7 536.3,282.9 536.6,283.0 536.9,283.0 537.2,283.1 537.4,283.4 537.7,283.0 538.0,283.2 538.3,282.8 538.5,283.1 538.8,283.4 539.1,283.9 539.3,284.4 539.6,285.2 539.9,284.7 540.2,283.9 540.4,283.2 540.7,283.3 541.0,283.4 541.3,282.3 541.5,282.6 541.8,282.7 542.1,282.4 542.3,282.2 542.6,281.4 542.9,281.2 543.2,281.3 543.4,280.1 543.7,280.2 544.0,279.1 544.3,277.6 544.5,277.0 544.8,277.2 545.1,275.8 545.3,275.3 545.6,275.7 545.9,275.3 546.2,272.8 546.4,273.7 546.7,273.8 547.0,274.5 547.3,274.7 547.5,270.2 547.8,265.1 548.1,268.3 548.4,268.7 548.6,268.2 548.9,267.7 549.2,266.3 549.4,264.7 549.7,266.0 550.0,265.0 550.3,265.1 550.5,261.9 550.8,260.8 551.1,261.8 551.4,260.7 551.6,257.2 551.9,260.5 552.2,261.8 552.4,262.0 552.7,265.0 553.0,267.0 553.3,267.4 553.5,268.4 553.8,265.3 554.1,266.4 554.4,267.3 554.6,268.2 554.9,266.5 555.2,267.0 555.4,267.9 555.7,268.9 556.0,267.7 556.3,265.0 556.5,264.9 556.8,263.0 557.1,263.4 557.4,264.7 557.6,263.3 557.9,263.1 558.2,261.1 558.4,261.5 558.7,261.3 559.0,260.7 559.3,261.6 559.5,263.5 559.8,257.2 560.1,259.7 560.4,258.9 560.6,257.6 560.9,255.1 561.2,255.0 561.4,253.4 561.7,250.0 562.0,249.6 562.3,250.8 562.5,249.3 562.8,249.6 563.1,251.0 563.4,253.9 563.6,253.6 563.9,253.6 564.2,251.0 564.4,251.0 564.7,252.0 565.0,251.5 565.3,250.6 565.5,255.2 565.8,254.6 566.1,252.0 566.4,252.8 566.6,254.8 566.9,257.3 567.2,258.4 567.4,261.3 567.7,259.3 568.0,261.3 568.3,259.7 568.5,258.0 568.8,257.3 569.1,254.5 569.4,254.5 569.6,254.4 569.9,255.0 570.2,256.5 570.4,254.6 570.7,255.2 571.0,257.1 571.3,257.3 571.5,258.2 571.8,256.8 572.1,256.2 572.4,256.6 572.6,258.2 572.9,256.3 573.2,254.1 573.4,254.8 573.7,253.3 574.0,253.9 574.3,254.6 574.5,256.4 574.8,258.1 575.1,257.8 575.4,257.7 575.6,261.4 575.9,260.6 576.2,261.3 576.5,261.7 576.7,261.9 577.0,260.1 577.3,259.6 577.5,258.5 577.8,258.8 578.1,260.0 578.4,260.9 578.6,261.5 578.9,263.2 579.2,264.4 579.5,261.7 579.7,262.8 580.0,262.3 580.3,260.5 580.5,260.4 580.8,261.9 581.1,263.7 581.4,263.1 581.6,262.7 581.9,263.6 582.2,259.6 582.5,258.4 582.7,259.2 583.0,257.8 583.3,257.3 583.5,254.5 583.8,254.5 584.1,255.4 584.4,256.3 584.6,254.9 584.9,255.4 585.2,254.9 585.5,256.7 585.7,257.6 586.0,257.5 586.3,254.8 586.5,255.8 586.8,256.4 587.1,253.5 587.4,254.2 587.6,250.0 587.9,249.3 588.2,249.6 588.5,250.1 588.7,250.5 589.0,250.7 589.3,248.1 589.5,249.1 589.8,249.5 590.1,249.8 590.4,253.8 590.6,250.9 590.9,251.4 591.2,250.5 591.5,250.7 591.7,251.9 592.0,255.6 592.3,257.0 592.5,254.6 592.8,256.9 593.1,258.8 593.4,259.3 593.6,258.0 593.9,256.6 594.2,255.1 594.5,255.3 594.7,256.0 595.0,253.9 595.3,252.8 595.5,251.9 595.8,253.3 596.1,253.9 596.4,253.5 596.6,253.5 596.9,254.5 597.2,253.0 597.5,253.2 597.7,254.1 598.0,253.8 598.3,256.0 598.5,255.2 598.8,256.5 599.1,258.7 599.4,260.7 599.6,261.8 599.9,259.8 600.2,261.0 600.5,259.2 600.7,259.7 601.0,260.7 601.3,260.5 601.5,262.6 601.8,264.2 602.1,265.8 602.4,264.6 602.6,261.5 602.9,262.0 603.2,261.7 603.5,262.8 603.7,259.7 604.0,260.4 604.3,259.9 604.6,260.5 604.8,263.0 605.1,262.2 605.4,261.1 605.6,263.1 605.9,264.7 606.2,263.9 606.5,264.6 606.7,264.5 607.0,266.4 607.3,266.1 607.6,264.9 607.8,264.5 608.1,262.1 608.4,260.4 608.6,260.7 608.9,258.2 609.2,258.6 609.5,255.4 609.7,255.5 610.0,254.8 610.3,259.9 610.6,258.8 610.8,261.6 611.1,264.6 611.4,262.0 611.6,262.1 611.9,262.1 612.2,262.2 612.5,264.5 612.7,261.7 613.0,259.1 613.3,265.0 613.6,265.5 613.8,267.6 614.1,268.7 614.4,275.7 614.6,278.6 614.9,275.7 615.2,274.1 615.5,269.8 615.7,272.6 616.0,273.8 616.3,273.7 616.6,273.3 616.8,274.2 617.1,275.4 617.4,273.3 617.6,275.0 617.9,274.5 618.2,274.5 618.5,273.4 618.7,274.3 619.0,273.9 619.3,273.9 619.6,274.8 619.8,275.4 620.1,275.8 620.4,274.8 620.6,275.4 620.9,273.9 621.2,269.7 621.5,269.6 621.7,268.7 622.0,270.8 622.3,271.3 622.6,272.5 622.8,271.8 623.1,271.1 623.4,269.6 623.6,270.6 623.9,270.9 624.2,270.9 624.5,272.4 624.7,272.8 625.0,273.6 625.3,273.5 625.6,273.8 625.8,274.5 626.1,274.1 626.4,271.0 626.6,269.9 626.9,271.0 627.2,269.6 627.5,269.2 627.7,269.3 628.0,268.0 628.3,267.7 628.6,265.7 628.8,267.0 629.1,262.9 629.4,262.8 629.6,263.0 629.9,260.1 630.2,259.8 630.5,261.6 630.7,262.2 631.0,261.4 631.3,260.6 631.6,260.9 631.8,260.0 632.1,261.0 632.4,259.5 632.7,259.1 632.9,255.3 633.2,256.2 633.5,254.2 633.7,253.9 634.0,255.4 634.3,253.6 634.6,254.7 634.8,255.7 635.1,255.9 635.4,255.2 635.7,253.3 635.9,255.1 636.2,253.5 636.5,251.9 636.7,247.9 637.0,248.8 637.3,249.0 637.6,250.4 637.8,252.6 638.1,253.9 638.4,251.5 638.7,253.0 638.9,252.0 639.2,249.2 639.5,249.3 639.7,245.5 640.0,247.5 640.3,247.5 640.6,248.3 640.8,247.4 641.1,249.5 641.4,249.8 641.7,248.0 641.9,245.9 642.2,240.4 642.5,239.8 642.7,240.9 643.0,241.5 643.3,239.1 643.6,235.1 643.8,234.5 644.1,229.5 644.4,232.2 644.7,233.5 644.9,234.3 645.2,230.5 645.5,229.1 645.7,229.8 646.0,229.0 646.3,229.4 646.6,226.4 646.8,227.0 647.1,229.0 647.4,229.9 647.7,226.7 647.9,226.5 648.2,234.4 648.5,236.2 648.7,236.9 649.0,239.8 649.3,234.3 649.6,236.0 649.8,236.6 650.1,232.0 650.4,231.6 650.7,234.3 650.9,236.8 651.2,235.7 651.5,236.5 651.7,239.6 652.0,237.6 652.3,237.5 652.6,236.5 652.8,233.7 653.1,234.5 653.4,236.2 653.7,236.0 653.9,237.9 654.2,238.4 654.5,239.5 654.7,238.4 655.0,233.8 655.3,234.3 655.6,233.9 655.8,233.6 656.1,233.7 656.4,233.1 656.7,231.4 656.9,226.4 657.2,226.2 657.5,225.0 657.7,225.5 658.0,225.8 658.3,223.9 658.6,223.7 658.8,218.0 659.1,218.8 659.4,223.2 659.7,224.0 659.9,221.8 660.2,223.6 660.5,224.6 660.8,223.8 661.0,224.0 661.3,223.4 661.6,224.6 661.8,225.5 662.1,226.1 662.4,227.9 662.7,227.0 662.9,226.8 663.2,227.2 663.5,228.1 663.8,226.1 664.0,225.9 664.3,224.6 664.6,224.3 664.8,225.0 665.1,226.6 665.4,227.1 665.7,228.5 665.9,228.1 666.2,228.2 666.5,225.1 666.8,226.2 667.0,219.6 667.3,219.7 667.6,216.7 667.8,216.5 668.1,215.4 668.4,215.2 668.7,213.5 668.9,214.0 669.2,209.6 669.5,206.5 669.8,209.7 670.0,209.0 670.3,210.0 670.6,208.5 670.8,205.1 671.1,205.5 671.4,205.3 671.7,207.1 671.9,204.9 672.2,205.0 672.5,205.7 672.8,207.2 673.0,213.6 673.3,210.1 673.6,210.1 673.8,210.7 674.1,204.3 674.4,204.7 674.7,203.3 674.9,204.3 675.2,200.1 675.5,201.3 675.8,202.1 676.0,201.2 676.3,204.1 676.6,202.1 676.8,204.5 677.1,203.6 677.4,201.3 677.7,200.6 677.9,197.0 678.2,201.8 678.5,200.2 678.8,201.1 679.0,202.0 679.3,201.7 679.6,203.1 679.8,204.1 680.1,201.6 680.4,200.8 680.7,199.1 680.9,200.2 681.2,200.6 681.5,200.0 681.8,198.3 682.0,198.4 682.3,199.1 682.6,198.1 682.8,197.7 683.1,198.4 683.4,198.1 683.7,195.4 683.9,194.7 684.2,195.3 684.5,195.1 684.8,194.5 685.0,194.3 685.3,194.6 685.6,199.0 685.8,200.4 686.1,200.0 686.4,199.4 686.7,201.1 686.9,206.6 687.2,206.1 687.5,207.9 687.8,207.4 688.0,206.5 688.3,201.8 688.6,203.1 688.9,202.5 689.1,203.1 689.4,205.7 689.7,202.6 689.9,204.4 690.2,201.8 690.5,202.0 690.8,203.3 691.0,204.6 691.3,204.2 691.6,204.4 691.9,206.1 692.1,205.9 692.4,202.6 692.7,199.9 692.9,200.3 693.2,206.5 693.5,212.5 693.8,212.6 694.0,210.7 694.3,211.4 694.6,209.7 694.9,208.6 695.1,207.2 695.4,209.2 695.7,208.6 695.9,209.2 696.2,209.1 696.5,211.1 696.8,212.9 697.0,212.9 697.3,215.6 697.6,221.3 697.9,217.3 698.1,215.9 698.4,213.4 698.7,212.8 698.9,214.0 699.2,210.3 699.5,210.3 699.8,211.1 700.0,211.4 700.3,210.7 700.6,211.9 700.9,210.4 701.1,207.9 701.4,208.5 701.7,211.5 701.9,213.0 702.2,213.1 702.5,211.5 702.8,215.1 703.0,211.7 703.3,208.5 703.6,206.6 703.9,201.7 704.1,203.5 704.4,208.4 704.7,203.4 704.9,203.1 705.2,205.5 705.5,208.6 705.8,213.9 706.0,216.5 706.3,220.8 706.6,222.2 706.9,217.6 707.1,219.5 707.4,215.2 707.7,212.4 707.9,214.1 708.2,212.9 708.5,213.3 708.8,208.7 709.0,209.7 709.3,204.7 709.6,205.3 709.9,203.0 710.1,203.0 710.4,203.1 710.7,202.4 710.9,202.7 711.2,200.0 711.5,199.5 711.8,198.6 712.0,195.2 712.3,195.1 712.6,198.3 712.9,193.0 713.1,192.1 713.4,192.3 713.7,189.3 713.9,189.0 714.2,189.5 714.5,190.5 714.8,186.5 715.0,185.1 715.3,184.8 715.6,183.8 715.9,182.6 716.1,182.3 716.4,183.4 716.7,185.0 717.0,181.1 717.2,181.1 717.5,180.5 717.8,178.7 718.0,183.2 718.3,179.1 718.6,179.7 718.9,182.0 719.1,181.3 719.4,178.7 719.7,172.5 720.0,173.5 720.2,174.8 720.5,173.8 720.8,171.8 721.0,174.0 721.3,172.8 721.6,172.0 721.9,174.7 722.1,172.8 722.4,176.8 722.7,174.3 723.0,174.2 723.2,173.2 723.5,170.1 723.8,170.2 724.0,166.0 724.3,165.7 724.6,165.3 724.9,165.4 725.1,161.6 725.4,155.7 725.7,156.0 726.0,149.0 726.2,138.6 726.5,139.4 726.8,136.4 727.0,135.5 727.3,127.4 727.6,129.8 727.9,130.9 728.1,147.4 728.4,143.3 728.7,144.7 729.0,141.0 729.2,139.8 729.5,140.0 729.8,149.6 730.0,146.4 730.3,140.7 730.6,140.5 730.9,139.5 731.1,139.8 731.4,141.0 731.7,140.7 732.0,141.0 732.2,144.5 732.5,145.4 732.8,145.0 733.0,144.0 733.3,145.8 733.6,144.9 733.9,141.8 734.1,138.3 734.4,136.6 734.7,138.7 735.0,141.4 735.2,140.0 735.5,137.6 735.8,133.9 736.0,133.9 736.3,133.5 736.6,130.4 736.9,126.9 737.1,125.0 737.4,125.9 737.7,126.1 738.0,128.8 738.2,134.4 738.5,135.8 738.8,138.6 739.0,136.5 739.3,133.2 739.6,129.3 739.9,130.0 740.1,134.2 740.4,140.7 740.7,137.7 741.0,141.1 741.2,141.2 741.5,143.1 741.8,145.6 742.0,144.9 742.3,141.8 742.6,142.8 742.9,140.9 743.1,137.6 743.4,131.1 743.7,132.5 744.0,133.7 744.2,134.2 744.5,135.7 744.8,137.3 745.1,133.1 745.3,133.2 745.6,132.1 745.9,135.3 746.1,143.9 746.4,146.1 746.7,141.3 747.0,140.0 747.2,140.7 747.5,140.2 747.8,137.7 748.1,137.2 748.3,134.6 748.6,137.1 748.9,132.1 749.1,131.8 749.4,133.4 749.7,133.0 750.0,136.6 750.2,133.6 750.5,135.3 750.8,137.9 751.1,134.8 751.3,134.8 751.6,126.4 751.9,129.6 752.1,134.0 752.4,133.1 752.7,132.6 753.0,135.5 753.2,132.8 753.5,132.6 753.8,131.3 754.1,126.1 754.3,123.8 754.6,119.3 754.9,120.5 755.1,121.3 755.4,122.9 755.7,121.8 756.0,123.4 756.2,120.5 756.5,117.5 756.8,119.9 757.1,120.2 757.3,115.6 757.6,120.3 757.9,121.7 758.1,121.7 758.4,116.6 758.7,117.3 759.0,109.4 759.2,101.7 759.5,101.8 759.8,94.4 760.1,89.6 760.3,84.8 760.6,90.8 760.9,89.6 761.1,82.3 761.4,82.0 761.7,85.5 762.0,91.7 762.2,94.0 762.5,100.4 762.8,96.6 763.1,93.2 763.3,92.0 763.6,80.7 763.9,84.6 764.1,90.9 764.4,91.0 764.7,87.7 765.0,88.5 765.2,84.2 765.5,78.9 765.8,63.3 766.1,64.3 766.3,57.6 766.6,47.2 766.9,30.0 767.1,45.5 767.4,46.8 767.7,67.2 768.0,65.0 768.2,79.0 768.5,83.6 768.8,86.9 769.1,82.7 769.3,94.6 769.6,84.8 769.9,97.6 770.1,94.3 770.4,106.2 770.7,109.0 771.0,105.0 771.2,95.8 771.5,98.4 771.8,104.4 772.1,100.2 772.3,97.9 772.6,93.2 772.9,100.3 773.2,102.7 773.4,102.0 773.7,102.8 774.0,104.9 774.2,99.9 774.5,97.4 774.8,94.8 775.1,100.4 775.3,96.2 775.6,82.2 775.9,86.5 776.2,94.2 776.4,93.2 776.7,99.1 777.0,100.4 777.2,99.0 777.5,95.9 777.8,99.6 778.1,94.9 778.3,91.0 778.6,90.2 778.9,92.0 779.2,94.9 779.4,88.5 779.7,92.2 780.0,90.2 780.2,96.5 780.5,98.3 780.8,100.7 781.1,106.4 781.3,113.0 781.6,115.9 781.9,106.4 782.2,103.4 782.4,104.9 782.7,100.3 783.0,94.6 783.2,94.4 783.5,95.6 783.8,94.5 784.1,96.5 784.3,93.0 784.6,78.3 784.9,75.3 785.2,72.3 785.4,74.1 785.7,75.5 786.0,72.8 786.2,75.1 786.5,75.0 786.8,71.6 787.1,69.2 787.3,78.8 787.6,77.8 787.9,73.1 788.2,80.2 788.4,78.5 788.7,82.7 789.0,82.8 789.2,90.7 789.5,91.8 789.8,92.6 790.1,97.0 790.3,93.4 790.6,88.2 790.9,86.9 791.2,91.8 791.4,92.4 791.7,86.6 792.0,97.7 792.2,100.0 792.5,97.7 792.8,98.8 793.1,101.0 793.3,102.6 793.6,103.9 793.9,101.3 794.2,103.8 794.4,99.5 794.7,104.5 795.0,102.2 795.2,101.6 795.5,103.0 795.8,106.4 796.1,111.2 796.3,122.8 796.6,133.7 796.9,127.0 797.2,129.3 797.4,137.8 797.7,128.6 798.0,129.3 798.2,132.4 798.5,135.4 798.8,138.7 799.1,136.0 799.3,123.4 799.6,129.2 799.9,136.5 800.2,135.2 800.4,135.3 800.7,143.1 801.0,144.9 801.3,144.9 801.5,153.5 801.8,150.8 802.1,144.2 802.3,139.5 802.6,147.9 802.9,147.7 803.2,148.9 803.4,152.3 803.7,144.6 804.0,145.0 804.3,140.3 804.5,138.8 804.8,139.0 805.1,143.3 805.3,143.2 805.6,139.7 805.9,140.8 806.2,140.4 806.4,145.4 806.7,142.7 807.0,136.9 807.3,142.7 807.5,143.1 807.8,136.0 808.1,116.6 808.3,120.6 808.6,120.8 808.9,119.6 809.2,118.5 809.4,115.2 809.7,114.7 810.0,107.7 810.3,109.9 810.5,109.2 810.8,123.2 811.1,121.8 811.3,118.3 811.6,118.0 811.9,111.1 812.2,114.5 812.4,115.9 812.7,121.0 813.0,120.2 813.3,120.1 813.5,122.9 813.8,122.7 814.1,127.4 814.3,122.7 814.6,120.9 814.9,120.8 815.2,124.4 815.4,128.8 815.7,126.9 816.0,126.4 816.3,127.9 816.5,122.3 816.8,123.8 817.1,124.2 817.3,119.8 817.6,116.7 817.9,111.7 818.2,106.3 818.4,104.5 818.7,106.3 819.0,101.0 819.3,107.5 819.5,107.3 819.8,107.2 820.1,102.6 820.3,103.2 820.6,104.5 820.9,94.1 821.2,88.8 821.4,88.4 821.7,85.0 822.0,81.2 822.3,83.0 822.5,85.0 822.8,93.2 823.1,92.2 823.3,94.7 823.6,93.5 823.9,84.8 824.2,75.9 824.4,83.4 824.7,82.6 825.0,94.3 825.3,90.2 825.5,93.2 825.8,93.1 826.1,96.4 826.3,101.4 826.6,106.2 826.9,103.3 827.2,106.4 827.4,103.2 827.7,114.0 828.0,115.2 828.3,115.9 828.5,112.2 828.8,109.8 829.1,102.9 829.4,101.0 829.6,105.2 829.9,106.1 830.2,104.6 830.4,103.4 830.7,112.8 831.0,115.1 831.3,118.6 831.5,111.7 831.8,114.5 832.1,117.2 832.4,115.0 832.6,112.4 832.9,112.1 833.2,112.8 833.4,110.4 833.7,114.0 834.0,122.3 834.3,120.0 834.5,127.6 834.8,123.4 835.1,124.4 835.4,116.2 835.6,117.9 835.9,123.2 836.2,125.6 836.4,134.4 836.7,128.9 837.0,125.7 837.3,123.9 837.5,127.0 837.8,135.3 838.1,146.9 838.4,138.3 838.6,132.8 838.9,134.3 839.2,134.7 839.4,135.9 839.7,129.0 840.0,132.7 840.3,136.5 840.5,140.0 840.8,139.2 841.1,131.6 841.4,133.0 841.6,125.6 841.9,127.4 842.2,127.4 842.4,125.2 842.7,132.9 843.0,125.4 843.3,127.0 843.5,122.2 843.8,122.5 844.1,124.3 844.4,124.4 844.6,123.6 844.9,125.7 845.2,126.5 845.4,134.3 845.7,131.4 846.0,123.9 846.3,119.0 846.5,119.8 846.8,118.8 847.1,124.1 847.4,129.0 847.6,127.3 847.9,127.1 848.2,127.7 848.4,125.9 848.7,128.3 849.0,127.1 849.3,127.9 849.5,128.5 849.8,123.2 850.1,125.5 850.4,128.0 850.6,128.6 850.9,130.1 851.2,128.6 851.4,125.8 851.7,122.8 852.0,124.7 852.3,124.9 852.5,124.7 852.8,121.1 853.1,115.4 853.4,116.9 853.6,111.2 853.9,116.5 854.2,114.7 854.4,114.2 854.7,114.0 855.0,105.1 855.3,106.2 855.5,105.8 855.8,106.9 856.1,104.4 856.4,98.2 856.6,98.0 856.9,94.9 857.2,95.6 857.5,91.2 857.7,93.1 858.0,94.5 858.3,92.6 858.5,96.4 858.8,97.9 859.1,96.8 859.4,101.1 859.6,102.9 859.9,101.6 860.2,102.3 860.5,102.8 860.7,102.5 861.0,103.6 861.3,102.7 861.5,104.0 861.8,103.1 862.1,103.4 862.4,102.7 862.6,106.4 862.9,109.0 863.2,109.0 863.5,110.0 863.7,111.2 864.0,110.6 864.3,106.8 864.5,105.9 864.8,107.4 865.1,107.6 865.4,111.7 865.6,107.9 865.9,105.4 866.2,106.4 866.5,106.6 866.7,106.6 867.0,109.3 867.3,109.4 867.5,109.5 867.8,112.4 868.1,114.3 868.4,110.6 868.6,109.0 868.9,111.4 869.2,112.4 869.5,105.9 869.7,111.1 870.0,111.8"/>
</svg>
