<svg xmlns="http://www.w3.org/2000/svg" width="900" height="360">
<rect width="100%" height="100%" fill="white"/>
<text x="45" y="20" font-size="16">贵州茅台 价格</text>
<line class="axis-x" x1="45" y1="315" x2="855" y2="315" stroke="black" stroke-width="1"/>
<line class="axis-y" x1="45" y1="45" x2="45" y2="315" stroke="black" stroke-width="1"/>
<text x="450.0" y="355" font-size="12" text-anchor="middle">样本点</text>
<text x="14" y="180.0" font-size="12" text-anchor="middle" transform="rotate(-90 14 180.0)">价格</text>
<line x1="45.0" y1="315" x2="45.0" y2="320" stroke="black" stroke-width="1"/>
<text x="45.0" y="333" font-size="10" text-anchor="middle">1</text>
<line x1="449.9" y1="315" x2="449.9" y2="320" stroke="black" stroke-width="1"/>
<text x="449.9" y="333" font-size="10" text-anchor="middle">1540</text>
<line x1="855.0" y1="315" x2="855.0" y2="320" stroke="black" stroke-width="1"/>
<text x="855.0" y="333" font-size="10" text-anchor="middle">3080</text>
<line x1="40" y1="315.0" x2="45" y2="315.0" stroke="black" stroke-width="1"/>
<text x="37" y="318.0" font-size="10" text-anchor="end">76.93</text>
<line x1="40" y1="180.0" x2="45" y2="180.0" stroke="black" stroke-width="1"/>
<text x="37" y="183.0" font-size="10" text-anchor="end">1313.08</text>
<line x1="40" y1="45.0" x2="45" y2="45.0" stroke="black" stroke-width="1"/>
<text x="37" y="48.0" font-size="10" text-anchor="end">2549.23</text>
<polyline fill="none" stroke="#1f77b4" stroke-width="2" points="45.0,312.1 45.3,312.1 45.5,312.3 45.8,312.5 46.1,312.6 46.3,312.7 46.6,312.4 46.8,312.7 47.1,312.2 47.4,312.1 47.6,312.0 47.9,312.1 48.2,312.4 48.4,312.3 48.7,312.5 48.9,312.4 49.2,312.3 49.5,312.5 49.7,312.1 50.0,312.2 50.3,312.2 50.5,312.3 50.8,312.4 51.1,312.2 51.3,312.0 51.6,312.0 51.8,312.0 52.1,312.0 52.4,311.9 52.6,311.9 52.9,312.2 53.2,312.3 53.4,312.2 53.7,312.2 53.9,312.3 54.2,312.3 54.5,312.4 54.7,312.4 55.0,312.4 55.3,312.5 55.5,312.5 55.8,312.5 56.0,312.5 56.3,312.6 56.6,312.6 56.8,312.8 57.1,312.8 57.4,312.7 57.6,312.9 57.9,312.8 58.2,312.9 58.4,312.9 58.7,312.8 58.9,312.9 59.2,312.8 59.5,312.6 59.7,312.8 60.0,312.8 60.3,312.8 60.5,313.2 60.8,313.3 61.0,313.3 61.3,313.4 61.6,313.5 61.8,313.6 62.1,313.4 62.4,313.4 62.6,313.6 62.9,313.6 63.2,313.7 63.4,313.9 63.7,313.6 63.9,313.5 64.2,313.8 64.5,314.3 64.7,314.6 65.0,314.6 65.3,314.5 65.5,314.8 65.8,314.8 66.0,314.7 66.3,314.9 66.6,314.8 66.8,314.5 67.1,314.5 67.4,314.5 67.6,314.4 67.9,314.4 68.2,314.8 68.4,314.7 68.7,314.8 68.9,314.7 69.2,314.5 69.5,314.4 69.7,314.7 70.0,314.6 70.3,314.6 70.5,314.6 70.8,314.6 71.0,314.6 71.3,314.5 71.6,314.4 71.8,314.2 72.1,314.0 72.4,314.1 72.6,314.0 72.9,314.0 73.1,314.2 73.4,314.3 73.7,314.6 73.9,314.5 74.2,314.6 74.5,314.6 74.7,314.8 75.0,314.7 75.3,314.9 75.5,315.0 75.8,314.9 76.0,315.0 76.3,314.9 76.6,315.0 76.8,314.8 77.1,314.9 77.4,314.8 77.6,314.6 77.9,314.6 78.1,314.7 78.4,314.7 78.7,314.5 78.9,314.4 79.2,314.3 79.5,314.2 79.7,314.1 80.0,314.1 80.3,314.0 80.5,313.9 80.8,313.9 81.0,313.8 81.3,314.0 81.6,314.1 81.8,313.8 82.1,313.8 82.4,313.7 82.6,313.5 82.9,313.4 83.1,313.2 83.4,313.5 83.7,313.5 83.9,313.4 84.2,313.3 84.5,313.1 84.7,313.0 85.0,313.1 85.3,313.2 85.5,313.4 85.8,313.3 86.0,313.2 86.3,313.3 86.6,313.3 86.8,313.3 87.1,312.7 87.4,312.7 87.6,312.9 87.9,312.7 88.1,312.5 88.4,312.2 88.7,312.3 88.9,312.2 89.2,312.2 89.5,312.0 89.7,312.1 90.0,312.2 90.2,312.5 90.5,312.7 90.8,312.5 91.0,312.3 91.3,312.2 91.6,312.1 91.8,311.9 92.1,312.2 92.4,312.1 92.6,311.7 92.9,312.1 93.1,312.2 93.4,312.6 93.7,312.8 93.9,312.7 94.2,312.5 94.5,312.4 94.7,312.2 95.0,312.2 95.2,312.1 95.5,311.8 95.8,312.1 96.0,312.1 96.3,312.2 96.6,312.4 96.8,312.4 97.1,312.5 97.4,312.4 97.6,312.3 97.9,312.4 98.1,312.4 98.4,312.3 98.7,311.3 98.9,311.6 99.2,311.5 99.5,311.1 99.7,311.5 100.0,312.3 100.2,312.0 100.5,311.6 100.8,311.4 101.0,310.7 101.3,310.0 101.6,309.8 101.8,309.5 102.1,308.9 102.3,309.6 102.6,309.8 102.9,310.1 103.1,310.0 103.4,310.4 103.7,310.1 103.9,310.2 104.2,310.3 104.5,310.1 104.7,310.2 105.0,310.1 105.2,309.9 105.5,309.5 105.8,309.7 106.0,310.1 106.3,310.4 106.6,310.6 106.8,310.6 107.1,310.7 107.3,311.1 107.6,311.1 107.9,310.9 108.1,311.2 108.4,311.1 108.7,310.9 108.9,311.2 109.2,311.3 109.5,311.3 109.7,311.7 110.0,311.7 110.2,311.7 110.5,311.3 110.8,311.3 111.0,311.6 111.3,311.1 111.6,311.1 111.8,311.3 112.1,311.6 112.3,311.9 112.6,311.9 112.9,311.8 113.1,311.8 113.4,311.8 113.7,311.4 113.9,311.3 114.2,311.5 114.5,311.0 114.7,311.0 115.0,310.8 115.2,311.0 115.5,311.1 115.8,311.2 116.0,311.2 116.3,311.1 116.6,311.2 116.8,311.1 117.1,311.2 117.3,311.3 117.6,311.4 117.9,311.4 118.1,311.5 118.4,311.6 118.7,311.6 118.9,311.5 119.2,311.5 119.4,311.4 119.7,311.2 120.0,311.3 120.2,311.1 120.5,311.4 120.8,311.2 121.0,310.7 121.3,310.6 121.6,310.8 121.8,310.9 122.1,310.9 122.3,311.1 122.6,311.1 122.9,311.3 123.1,311.4 123.4,311.4 123.7,311.3 123.9,311.3 124.2,311.5 124.4,311.7 124.7,311.6 125.0,311.5 125.2,311.5 125.5,311.4 125.8,311.6 126.0,311.8 126.3,311.8 126.6,311.8 126.8,311.7 127.1,311.7 127.3,311.6 127.6,311.1 127.9,311.2 128.1,311.2 128.4,311.4 128.7,311.2 128.9,310.9 129.2,311.1 129.4,311.0 129.7,310.9 130.0,311.0 130.2,311.1 130.5,311.0 130.8,310.8 131.0,310.8 131.3,310.8 131.6,310.8 131.8,310.3 132.1,310.0 132.3,309.9 132.6,310.2 132.9,310.3 133.1,310.3 133.4,310.1 133.7,310.4 133.9,309.8 134.2,309.7 134.4,309.3 134.7,309.5 135.0,309.2 135.2,309.4 135.5,309.4 135.8,309.8 136.0,309.8 136.3,309.9 136.5,309.7 136.8,309.8 137.1,309.8 137.3,309.4 137.6,309.7 137.9,309.7 138.1,309.6 138.4,309.4 138.7,309.5 138.9,309.4 139.2,309.3 139.4,309.2 139.7,309.1 140.0,309.1 140.2,309.0 140.5,309.1 140.8,309.1 141.0,308.9 141.3,308.9 141.5,308.7 141.8,308.9 142.1,308.9 142.3,309.0 142.6,308.8 142.9,308.5 143.1,308.6 143.4,308.5 143.7,308.2 143.9,308.0 144.2,308.2 144.4,308.2 144.7,308.1 145.0,307.9 145.2,308.0 145.5,308.2 145.8,308.4 146.0,308.3 146.3,308.1 146.5,308.2 146.8,308.5 147.1,308.4 147.3,308.0 147.6,307.4 147.9,307.2 148.1,307.5 148.4,307.7 148.7,307.7 148.9,307.9 149.2,307.7 149.4,308.1 149.7,308.1 150.0,308.0 150.2,307.9 150.5,307.5 150.8,307.3 151.0,307.4 151.3,307.4 151.5,307.6 151.8,307.6 152.1,307.9 152.3,308.2 152.6,307.9 152.9,308.0 153.1,307.9 153.4,308.3 153.6,308.6 153.9,308.6 154.2,308.2 154.4,308.3 154.7,308.4 155.0,308.1 155.2,308.6 155.5,308.9 155.8,309.4 156.0,309.3 156.3,309.4 156.5,309.4 156.8,309.2 157.1,309.4 157.3,309.4 157.6,309.1 157.9,309.1 158.1,309.1 158.4,308.7 158.6,308.7 158.9,308.6 159.2,309.1 159.4,308.9 159.7,308.4 160.0,308.4 160.2,308.3 160.5,308.3 160.8,308.1 161.0,308.2 161.3,307.9 161.5,307.8 161.8,307.9 162.1,307.9 162.3,308.0 162.6,308.1 162.9,308.2 163.1,308.1 163.4,308.2 163.6,307.9 163.9,308.2 164.2,308.4 164.4,308.3 164.7,308.4 165.0,308.4 165.2,308.0 165.5,307.8 165.8,307.9 166.0,307.7 166.3,307.4 166.5,307.5 166.8,307.7 167.1,307.5 167.3,307.4 167.6,308.0 167.9,308.2 168.1,308.0 168.4,308.2 168.6,308.5 168.9,308.6 169.2,308.7 169.4,308.6 169.7,308.7 170.0,308.3 170.2,308.4 170.5,308.4 170.7,308.7 171.0,308.5 171.3,308.4 171.5,309.0 171.8,309.3 172.1,309.2 172.3,309.0 172.6,309.0 172.9,309.6 173.1,309.7 173.4,309.5 173.6,309.4 173.9,308.9 174.2,309.2 174.4,309.2 174.7,309.3 175.0,310.2 175.2,309.9 175.5,310.2 175.7,309.9 176.0,309.5 176.3,309.7 176.5,309.5 176.8,309.5 177.1,309.5 177.3,309.5 177.6,309.3 177.9,309.5 178.1,309.3 178.4,309.2 178.6,309.2 178.9,309.0 179.2,308.9 179.4,308.9 179.7,309.1 180.0,309.1 180.2,309.1 180.5,309.1 180.7,309.0 181.0,308.9 181.3,308.6 181.5,308.6 181.8,308.4 182.1,308.1 182.3,308.3 182.6,308.4 182.8,308.5 183.1,308.8 183.4,309.0 183.6,308.9 183.9,308.5 184.2,308.4 184.4,308.3 184.7,308.6 185.0,308.5 185.2,307.9 185.5,307.9 185.7,307.9 186.0,308.1 186.3,308.1 186.5,307.6 186.8,307.3 187.1,308.4 187.3,308.4 187.6,308.4 187.8,308.7 188.1,308.0 188.4,307.9 188.6,307.8 188.9,307.9 189.2,307.8 189.4,307.5 189.7,307.5 190.0,307.5 190.2,307.7 190.5,307.4 190.7,307.8 191.0,307.5 191.3,307.6 191.5,307.6 191.8,307.5 192.1,307.2 192.3,306.6 192.6,306.5 192.8,306.5 193.1,305.9 193.4,305.9 193.6,305.9 193.9,306.2 194.2,306.4 194.4,306.4 194.7,306.8 195.0,306.7 195.2,307.0 195.5,307.0 195.7,307.1 196.0,306.7 196.3,306.3 196.5,306.2 196.8,307.0 197.1,307.1 197.3,306.6 197.6,306.6 197.8,306.3 198.1,305.7 198.4,305.5 198.6,305.7 198.9,305.4 199.2,305.7 199.4,305.6 199.7,305.6 199.9,305.8 200.2,305.9 200.5,305.6 200.7,305.1 201.0,305.2 201.3,305.0 201.5,305.2 201.8,305.2 202.1,305.5 202.3,305.7 202.6,305.6 202.8,305.3 203.1,305.8 203.4,305.5 203.6,305.3 203.9,304.4 204.2,304.1 204.4,304.3 204.7,303.7 204.9,304.1 205.2,304.4 205.5,303.8 205.7,304.0 206.0,303.5 206.3,303.5 206.5,304.2 206.8,304.8 207.1,304.7 207.3,305.0 207.6,305.0 207.8,304.5 208.1,304.0 208.4,304.4 208.6,304.5 208.9,304.5 209.2,304.7 209.4,305.0 209.7,305.0 209.9,304.7 210.2,304.5 210.5,304.3 210.7,304.2 211.0,303.6 211.3,304.6 211.5,304.6 211.8,304.6 212.1,304.9 212.3,305.3 212.6,306.0 212.8,305.8 213.1,305.5 213.4,305.8 213.6,306.1 213.9,305.8 214.2,306.1 214.4,306.3 214.7,306.8 214.9,306.9 215.2,306.7 215.5,306.7 215.7,305.7 216.0,305.6 216.3,305.8 216.5,305.1 216.8,305.1 217.0,305.2 217.3,305.2 217.6,305.2 217.8,304.8 218.1,305.1 218.4,305.2 218.6,305.8 218.9,306.0 219.2,305.9 219.4,305.8 219.7,305.3 219.9,305.5 220.2,305.1 220.5,304.8 220.7,305.2 221.0,304.9 221.3,304.9 221.5,305.1 221.8,304.9 222.0,304.8 222.3,304.5 222.6,304.5 222.8,304.3 223.1,304.2 223.4,304.4 223.6,304.8 223.9,304.7 224.2,304.7 224.4,305.1 224.7,305.1 224.9,304.8 225.2,304.6 225.5,304.5 225.7,304.6 226.0,305.0 226.3,305.5 226.5,305.4 226.8,305.6 227.0,305.6 227.3,305.8 227.6,306.1 227.8,305.9 228.1,306.2 228.4,306.4 228.6,307.2 228.9,307.0 229.2,306.8 229.4,306.9 229.7,306.5 229.9,306.9 230.2,306.7 230.5,306.8 230.7,306.8 231.0,307.0 231.3,308.2 231.5,308.5 231.8,308.5 232.0,308.7 232.3,308.3 232.6,308.3 232.8,308.1 233.1,307.3 233.4,307.8 233.6,307.6 233.9,307.4 234.1,307.1 234.4,306.8 234.7,306.8 234.9,307.0 235.2,307.9 235.5,307.9 235.7,307.8 236.0,307.7 236.3,307.3 236.5,307.5 236.8,307.7 237.0,307.9 237.3,307.4 237.6,307.0 237.8,307.1 238.1,307.4 238.4,307.5 238.6,307.4 238.9,307.8 239.1,307.8 239.4,307.9 239.7,308.4 239.9,308.3 240.2,308.3 240.5,308.5 240.7,309.1 241.0,309.9 241.3,309.9 241.5,309.7 241.8,309.8 242.0,309.8 242.3,310.1 242.6,309.4 242.8,309.5 243.1,309.4 243.4,309.2 243.6,309.8 243.9,309.9 244.1,309.9 244.4,309.7 244.7,309.3 244.9,309.7 245.2,309.9 245.5,310.0 245.7,310.1 246.0,310.2 246.3,310.1 246.5,310.1 246.8,310.0 247.0,309.5 247.3,309.4 247.6,309.4 247.8,309.6 248.1,309.5 248.4,309.8 248.6,310.0 248.9,310.5 249.1,310.9 249.4,310.5 249.7,310.8 249.9,310.6 250.2,310.6 250.5,310.5 250.7,310.8 251.0,310.7 251.2,310.6 251.5,310.9 251.8,311.0 252.0,311.0 252.3,310.9 252.6,311.0 252.8,310.5 253.1,310.6 253.4,310.3 253.6,310.3 253.9,310.3 254.1,309.9 254.4,309.8 254.7,309.8 254.9,310.2 255.2,310.4 255.5,310.1 255.7,310.0 256.0,310.2 256.2,310.4 256.5,310.3 256.8,309.9 257.0,309.2 257.3,309.1 257.6,308.4 257.8,308.5 258.1,308.4 258.4,308.9 258.6,308.6 258.9,308.6 259.1,308.5 259.4,308.6 259.7,308.6 259.9,308.3 260.2,308.0 260.5,308.2 260.7,308.1 261.0,308.1 261.2,308.1 261.5,308.2 261.8,308.5 262.0,308.1 262.3,308.1 262.6,308.1 262.8,308.1 263.1,308.0 263.4,308.1 263.6,308.2 263.9,308.6 264.1,308.4 264.4,308.1 264.7,308.4 264.9,308.4 265.2,308.9 265.5,308.5 265.7,308.6 266.0,308.5 266.2,308.3 266.5,308.2 266.8,307.9 267.0,307.9 267.3,308.0 267.6,308.0 267.8,308.1 268.1,308.4 268.3,308.2 268.6,308.0 268.9,308.6 269.1,308.7 269.4,308.4 269.7,308.8 269.9,308.9 270.2,309.6 270.5,309.7 270.7,309.3 271.0,309.7 271.2,309.4 271.5,309.7 271.8,310.0 272.0,310.2 272.3,310.2 272.6,309.9 272.8,309.6 273.1,309.7 273.3,309.7 273.6,309.6 273.9,309.7 274.1,309.9 274.4,309.4 274.7,309.3 274.9,309.4 275.2,309.5 275.5,309.7 275.7,309.7 276.0,309.8 276.2,309.7 276.5,309.7 276.8,309.8 277.0,309.8 277.3,309.8 277.6,310.1 277.8,310.2 278.1,310.2 278.3,311.5 278.6,311.5 278.9,311.5 279.1,311.6 279.4,311.6 279.7,311.6 279.9,311.5 280.2,311.4 280.4,311.5 280.7,311.5 281.0,311.7 281.2,312.3 281.5,312.3 281.8,312.4 282.0,312.7 282.3,312.8 282.6,312.8 282.8,312.9 283.1,312.8 283.3,312.7 283.6,312.7 283.9,312.7 284.1,312.6 284.4,312.5 284.7,312.1 284.9,312.1 285.2,312.1 285.4,312.2 285.7,312.0 286.0,312.2 286.2,312.1 286.5,312.1 286.8,312.7 287.0,312.9 287.3,313.0 287.6,313.0 287.8,312.8 288.1,312.8 288.3,312.7 288.6,312.6 288.9,312.5 289.1,312.5 289.4,312.7 289.7,312.5 289.9,312.1 290.2,312.1 290.4,312.1 290.7,312.2 291.0,312.2 291.2,312.2 291.5,312.3 291.8,312.5 292.0,312.6 292.3,312.4 292.6,312.4 292.8,312.4 293.1,312.3 293.3,312.3 293.6,312.7 293.9,312.6 294.1,312.6 294.4,312.7 294.7,312.5 294.9,312.6 295.2,312.7 295.4,312.7 295.7,312.7 296.0,312.7 296.2,313.0 296.5,313.0 296.8,313.0 297.0,313.1 297.3,313.5 297.5,313.5 297.8,313.5 298.1,313.5 298.3,313.6 298.6,313.5 298.9,313.7 299.1,313.3 299.4,313.5 299.7,313.7 299.9,313.9 300.2,314.0 300.4,314.0 300.7,314.1 301.0,314.1 301.2,314.0 301.5,313.9 301.8,314.1 302.0,313.8 302.3,314.0 302.5,313.5 302.8,313.5 303.1,312.9 303.3,312.9 303.6,312.8 303.9,312.4 304.1,312.5 304.4,312.7 304.7,313.0 304.9,312.9 305.2,313.0 305.4,312.9 305.7,312.9 306.0,312.8 306.2,312.2 306.5,311.7 306.8,311.9 307.0,311.7 307.3,311.7 307.5,311.7 307.8,311.8 308.1,312.2 308.3,312.3 308.6,312.0 308.9,311.6 309.1,311.3 309.4,311.4 309.7,310.9 309.9,310.7 310.2,310.4 310.4,311.1 310.7,310.7 311.0,311.0 311.2,310.5 311.5,310.6 311.8,310.4 312.0,310.0 312.3,309.7 312.5,310.1 312.8,310.0 313.1,310.0 313.3,310.3 313.6,311.0 313.9,311.0 314.1,311.4 314.4,311.3 314.6,310.7 314.9,310.4 315.2,310.5 315.4,310.5 315.7,310.5 316.0,310.6 316.2,310.1 316.5,309.6 316.8,309.7 317.0,309.7 317.3,310.0 317.5,309.7 317.8,309.7 318.1,309.9 318.3,309.9 318.6,309.6 318.9,309.6 319.1,310.5 319.4,310.6 319.6,310.6 319.9,310.6 320.2,310.8 320.4,310.8 320.7,310.8 321.0,310.8 321.2,310.8 321.5,310.8 321.8,310.8 322.0,311.2 322.3,311.2 322.5,311.2 322.8,311.8 323.1,312.0 323.3,311.6 323.6,311.6 323.9,311.5 324.1,311.4 324.4,311.4 324.6,311.3 324.9,311.3 325.2,311.4 325.4,311.4 325.7,311.6 326.0,311.3 326.2,311.4 326.5,311.4 326.8,311.3 327.0,311.3 327.3,311.4 327.5,311.4 327.8,311.3 328.1,311.4 328.3,311.4 328.6,311.4 328.9,311.4 329.1,311.2 329.4,310.6 329.6,310.8 329.9,310.9 330.2,311.0 330.4,310.8 330.7,310.8 331.0,310.8 331.2,310.7 331.5,310.7 331.7,310.6 332.0,310.8 332.3,310.9 332.5,310.9 332.8,310.8 333.1,310.1 333.3,309.8 333.6,309.7 333.9,309.8 334.1,309.1 334.4,309.1 334.6,309.0 334.9,308.9 335.2,308.9 335.4,308.9 335.7,308.9 336.0,309.1 336.2,309.4 336.5,309.2 336.7,309.0 337.0,308.8 337.3,308.7 337.5,308.9 337.8,309.2 338.1,309.0 338.3,309.0 338.6,309.1 338.9,309.0 339.1,309.1 339.4,309.1 339.6,309.3 339.9,309.4 340.2,309.1 340.4,309.2 340.7,309.3 341.0,309.3 341.2,309.4 341.5,309.6 341.7,309.6 342.0,309.4 342.3,309.4 342.5,309.0 342.8,308.8 343.1,308.8 343.3,308.6 343.6,308.9 343.9,308.9 344.1,309.1 344.4,309.0 344.6,309.3 344.9,309.5 345.2,309.4 345.4,309.3 345.7,309.2 346.0,309.5 346.2,309.5 346.5,309.2 346.7,309.0 347.0,309.0 347.3,309.0 347.5,309.0 347.8,309.2 348.1,309.2 348.3,309.3 348.6,309.6 348.8,309.7 349.1,309.5 349.4,309.5 349.6,309.4 349.9,309.5 350.2,309.4 350.4,309.3 350.7,309.3 351.0,309.3 351.2,309.5 351.5,309.3 351.7,309.4 352.0,309.6 352.3,309.5 352.5,309.6 352.8,310.0 353.1,310.5 353.3,310.4 353.6,310.3 353.8,309.8 354.1,309.8 354.4,309.9 354.6,310.0 354.9,309.5 355.2,309.2 355.4,309.6 355.7,309.8 356.0,310.1 356.2,309.8 356.5,309.8 356.7,309.7 357.0,309.6 357.3,309.5 357.5,309.6 357.8,309.2 358.1,309.1 358.3,308.8 358.6,308.0 358.8,308.3 359.1,308.1 359.4,308.1 359.6,307.5 359.9,307.8 360.2,307.8 360.4,307.1 360.7,307.4 360.9,307.5 361.2,307.5 361.5,307.4 361.7,307.1 362.0,306.7 362.3,307.2 362.5,306.9 362.8,306.8 363.1,307.2 363.3,306.9 363.6,306.6 363.8,305.5 364.1,305.9 364.4,306.3 364.6,306.4 364.9,306.5 365.2,306.9 365.4,307.0 365.7,307.2 365.9,306.9 366.2,306.9 366.5,307.9 366.7,307.6 367.0,307.3 367.3,307.4 367.5,307.4 367.8,307.2 368.1,307.5 368.3,307.7 368.6,307.8 368.8,307.7 369.1,307.9 369.4,307.6 369.6,307.7 369.9,308.0 370.2,307.9 370.4,307.1 370.7,307.2 370.9,307.2 371.2,307.1 371.5,307.2 371.7,307.2 372.0,307.3 372.3,307.1 372.5,306.9 372.8,306.5 373.1,306.5 373.3,306.9 373.6,306.8 373.8,307.0 374.1,307.1 374.4,306.4 374.6,306.8 374.9,306.4 375.2,306.3 375.4,306.6 375.7,306.2 375.9,306.0 376.2,305.7 376.5,306.1 376.7,306.3 377.0,306.1 377.3,306.1 377.5,306.3 377.8,305.8 378.0,306.2 378.3,306.0 378.6,306.0 378.8,306.1 379.1,306.2 379.4,306.0 379.6,305.6 379.9,305.3 380.2,305.7 380.4,305.7 380.7,305.3 380.9,305.2 381.2,305.2 381.5,303.4 381.7,302.8 382.0,302.7 382.3,300.6 382.5,300.0 382.8,300.7 383.0,300.5 383.3,300.8 383.6,301.5 383.8,301.3 384.1,301.1 384.4,300.8 384.6,302.1 384.9,301.9 385.2,301.7 385.4,300.9 385.7,300.6 385.9,300.9 386.2,300.7 386.5,301.1 386.7,301.7 387.0,302.0 387.3,301.3 387.5,300.9 387.8,300.5 388.0,299.0 388.3,298.0 388.6,298.1 388.8,298.9 389.1,300.3 389.4,300.0 389.6,299.4 389.9,299.8 390.2,300.1 390.4,300.5 390.7,300.9 390.9,300.0 391.2,300.5 391.5,300.3 391.7,300.4 392.0,299.8 392.3,300.3 392.5,300.9 392.8,300.8 393.0,301.8 393.3,302.6 393.6,301.1 393.8,300.3 394.1,301.1 394.4,301.9 394.6,301.6 394.9,300.6 395.1,300.6 395.4,300.4 395.7,301.3 395.9,300.9 396.2,301.8 396.5,302.4 396.7,300.6 397.0,299.9 397.3,300.6 397.5,301.3 397.8,301.2 398.0,301.1 398.3,300.8 398.6,301.1 398.8,301.4 399.1,301.9 399.4,301.6 399.6,301.7 399.9,303.4 400.1,303.0 400.4,302.8 400.7,303.0 400.9,302.9 401.2,302.6 401.5,302.4 401.7,302.9 402.0,303.1 402.3,302.9 402.5,302.4 402.8,302.5 403.0,302.6 403.3,302.6 403.6,302.6 403.8,303.0 404.1,303.5 404.4,303.4 404.6,304.1 404.9,304.9 405.1,306.6 405.4,305.9 405.7,305.2 405.9,303.9 406.2,304.3 406.5,304.0 406.7,304.1 407.0,304.1 407.3,304.7 407.5,304.6 407.8,304.4 408.0,304.2 408.3,304.3 408.6,303.3 408.8,303.4 409.1,303.1 409.4,303.8 409.6,303.6 409.9,303.6 410.1,303.6 410.4,304.1 410.7,304.2 410.9,304.2 411.2,304.4 411.5,304.6 411.7,304.5 412.0,303.8 412.2,303.9 412.5,303.8 412.8,303.7 413.0,303.8 413.3,303.6 413.6,303.5 413.8,303.3 414.1,303.4 414.4,303.5 414.6,303.3 414.9,302.5 415.1,301.8 415.4,302.1 415.7,302.3 415.9,302.3 416.2,302.2 416.5,302.3 416.7,302.6 417.0,302.1 417.2,301.9 417.5,301.7 417.8,301.5 418.0,301.4 418.3,301.6 418.6,301.6 418.8,302.1 419.1,302.2 419.4,302.2 419.6,302.1 419.9,302.1 420.1,302.2 420.4,302.3 420.7,302.4 420.9,302.3 421.2,302.3 421.5,302.8 421.7,302.2 422.0,302.2 422.2,301.4 422.5,301.6 422.8,302.1 423.0,302.1 423.3,302.4 423.6,302.1 423.8,302.3 424.1,302.4 424.4,302.2 424.6,302.1 424.9,302.2 425.1,302.0 425.4,301.9 425.7,300.9 425.9,301.1 426.2,301.3 426.5,301.1 426.7,301.1 427.0,301.7 427.2,301.6 427.5,301.7 427.8,301.8 428.0,302.6 428.3,302.3 428.6,302.4 428.8,303.4 429.1,303.1 429.3,303.6 429.6,303.9 429.9,303.6 430.1,303.1 430.4,303.7 430.7,303.6 430.9,302.6 431.2,303.3 431.5,303.5 431.7,303.3 432.0,303.3 432.2,303.7 432.5,303.6 432.8,303.9 433.0,303.5 433.3,303.4 433.6,303.1 433.8,303.2 434.1,303.1 434.3,303.2 434.6,303.5 434.9,303.2 435.1,303.3 435.4,303.4 435.7,303.3 435.9,302.8 436.2,302.3 436.5,301.8 436.7,302.3 437.0,301.9 437.2,302.1 437.5,301.7 437.8,301.2 438.0,300.8 438.3,299.7 438.6,300.2 438.8,300.7 439.1,300.9 439.3,300.8 439.6,300.8 439.9,301.1 440.1,300.4 440.4,300.7 440.7,300.6 440.9,301.0 441.2,300.4 441.5,300.2 441.7,300.1 442.0,299.3 442.2,299.1 442.5,298.7 442.8,298.8 443.0,298.8 443.3,298.9 443.6,299.1 443.8,299.1 444.1,297.9 444.3,298.2 444.6,298.6 444.9,299.2 445.1,299.1 445.4,299.4 445.7,299.3 445.9,299.1 446.2,299.2 446.4,299.3 446.7,299.8 447.0,299.6 447.2,298.9 447.5,299.2 447.8,299.2 448.0,299.1 448.3,299.0 448.6,298.5 448.8,297.6 449.1,298.0 449.3,297.8 449.6,298.4 449.9,298.5 450.1,298.4 450.4,297.9 450.7,298.0 450.9,298.5 451.2,298.5 451.4,298.6 451.7,299.2 452.0,299.0 452.2,298.5 452.5,298.2 452.8,298.4 453.0,298.4 453.3,298.4 453.6,298.4 453.8,298.0 454.1,297.2 454.3,297.3 454.6,296.9 454.9,295.3 455.1,296.0 455.4,295.9 455.7,296.2 455.9,296.9 456.2,296.4 456.4,296.0 456.7,296.2 457.0,295.8 457.2,296.0 457.5,296.3 457.8,295.8 458.0,296.0 458.3,296.3 458.5,294.9 458.8,294.8 459.1,294.8 459.3,294.5 459.6,294.4 459.9,293.6 460.1,293.0 460.4,291.3 460.7,291.3 460.9,292.0 461.2,291.5 461.4,290.5 461.7,291.3 462.0,291.3 462.2,291.2 462.5,291.4 462.8,292.2 463.0,292.2 463.3,291.6 463.5,292.2 463.8,291.9 464.1,291.1 464.3,291.6 464.6,291.4 464.9,291.7 465.1,292.3 465.4,292.4 465.7,292.3 465.9,292.4 466.2,292.4 466.4,292.2 466.7,291.4 467.0,291.6 467.2,291.3 467.5,291.3 467.8,291.1 468.0,292.1 468.3,292.2 468.5,292.4 468.8,292.4 469.1,292.3 469.3,292.3 469.6,292.5 469.9,292.7 470.1,292.9 470.4,292.3 470.7,292.4 470.9,292.0 471.2,292.1 471.4,292.4 471.7,292.2 472.0,292.0 472.2,292.4 472.5,292.4 472.8,292.6 473.0,293.2 473.3,293.0 473.5,293.1 473.8,293.0 474.1,293.5 474.3,293.6 474.6,293.3 474.9,293.3 475.1,294.2 475.4,293.9 475.6,294.2 475.9,293.9 476.2,293.2 476.4,292.7 476.7,292.1 477.0,292.4 477.2,292.6 477.5,292.5 477.8,292.8 478.0,292.3 478.3,292.4 478.5,292.5 478.8,292.6 479.1,292.3 479.3,291.7 479.6,291.6 479.9,291.3 480.1,291.3 480.4,291.2 480.6,291.3 480.9,291.5 481.2,291.4 481.4,291.5 481.7,291.5 482.0,291.0 482.2,291.3 482.5,291.1 482.8,291.5 483.0,291.9 483.3,291.6 483.5,291.7 483.8,291.9 484.1,292.0 484.3,292.1 484.6,292.1 484.9,291.7 485.1,291.3 485.4,291.3 485.6,291.0 485.9,290.6 486.2,291.1 486.4,290.9 486.7,290.8 487.0,291.4 487.2,290.3 487.5,290.2 487.8,289.2 488.0,289.2 488.3,290.3 488.5,289.7 488.8,289.8 489.1,290.2 489.3,290.2 489.6,290.4 489.9,290.3 490.1,290.1 490.4,290.5 490.6,291.0 490.9,290.5 491.2,290.4 491.4,290.6 491.7,290.3 492.0,289.6 492.2,289.5 492.5,287.8 492.7,288.3 493.0,287.9 493.3,288.1 493.5,288.1 493.8,288.4 494.1,288.3 494.3,288.5 494.6,288.8 494.9,288.0 495.1,287.4 495.4,287.5 495.6,287.5 495.9,287.8 496.2,287.9 496.4,288.2 496.7,288.5 497.0,288.3 497.2,288.3 497.5,288.6 497.7,288.5 498.0,288.2 498.3,288.5 498.5,288.0 498.8,287.9 499.1,288.1 499.3,288.2 499.6,287.9 499.9,286.8 500.1,287.1 500.4,286.8 500.6,286.8 500.9,286.7 501.2,287.2 501.4,287.5 501.7,287.3 502.0,287.3 502.2,287.3 502.5,287.1 502.7,286.2 503.0,286.2 503.3,285.9 503.5,285.9 503.8,285.8 504.1,286.0 504.3,285.5 504.6,285.4 504.9,285.1 505.1,284.3 505.4,283.5 505.6,283.5 505.9,283.9 506.2,284.2 506.4,285.0 506.7,284.9 507.0,284.5 507.2,284.3 507.5,284.3 507.7,283.9 508.0,283.7 508.3,283.6 508.5,284.0 508.8,284.4 509.1,283.9 509.3,283.1 509.6,283.4 509.8,283.3 510.1,282.4 510.4,282.3 510.6,281.3 510.9,282.8 511.2,283.0 511.4,281.0 511.7,281.1 512.0,280.7 512.2,281.5 512.5,281.7 512.7,281.1 513.0,281.3 513.3,281.3 513.5,282.3 513.8,282.0 514.1,281.9 514.3,281.7 514.6,281.5 514.8,280.9 515.1,279.8 515.4,280.2 515.6,279.9 515.9,278.8 516.2,278.7 516.4,277.4 516.7,277.8 517.0,277.8 517.2,277.6 517.5,278.5 517.7,277.9 518.0,278.1 518.3,278.4 518.5,278.0 518.8,276.9 519.1,276.4 519.3,276.2 519.6,275.5 519.8,275.5 520.1,275.4 520.4,276.4 520.6,276.6 520.9,275.8 521.2,276.2 521.4,275.5 521.7,275.5 522.0,275.5 522.2,274.3 522.5,274.4 522.7,275.3 523.0,275.5 523.3,275.6 523.5,276.8 523.8,277.6 524.1,276.8 524.3,277.2 524.6,277.6 524.8,276.7 525.1,275.8 525.4,276.4 525.6,276.5 525.9,276.5 526.2,277.1 526.4,276.9 526.7,276.4 526.9,275.4 527.2,274.8 527.5,274.3 527.7,274.3 528.0,274.9 528.3,274.7 528.5,273.7 528.8,273.9 529.1,274.0 529.3,273.8 529.6,274.3 529.8,274.7 530.1,273.9 530.4,273.8 530.6,272.9 530.9,272.9 531.2,273.6 531.4,272.0 531.7,272.4 531.9,272.4 532.2,272.8 532.5,273.1 532.7,273.1 533.0,273.3 533.3,272.6 533.5,272.7 533.8,272.7 534.1,272.8 534.3,273.1 534.6,272.7 534.8,272.9 535.1,272.5 535.4,272.8 535.6,273.0 535.9,273.5 536.2,273.9 536.4,274.6 536.7,274.2 536.9,273.6 537.2,272.9 537.5,273.0 537.7,273.0 538.0,272.1 538.3,272.3 538.5,272.4 538.8,272.1 539.1,272.0 539.3,271.3 539.6,271.0 539.8,271.2 540.1,270.1 540.4,270.2 540.6,269.1 540.9,267.9 541.2,267.3 541.4,267.5 541.7,266.2 541.9,265.8 542.2,266.2 542.5,265.8 542.7,263.5 543.0,264.4 543.3,264.5 543.5,265.1 543.8,265.3 544.0,261.2 544.3,256.6 544.6,259.5 544.8,259.9 545.1,259.4 545.4,259.0 545.6,257.7 545.9,256.3 546.2,257.4 546.4,256.5 546.7,256.6 546.9,253.7 547.2,252.7 547.5,253.6 547.7,252.7 548.0,249.5 548.3,252.4 548.5,253.6 548.8,253.8 549.0,256.5 549.3,258.3 549.6,258.6 549.8,259.5 550.1,256.8 550.4,257.8 550.6,258.5 550.9,259.4 551.2,257.8 551.4,258.3 551.7,259.2 551.9,260.0 552.2,258.9 552.5,256.5 552.7,256.4 553.0,254.7 553.3,255.1 553.5,256.2 553.8,255.0 554.0,254.8 554.3,253.0 554.6,253.3 554.8,253.2 555.1,252.7 555.4,253.4 555.6,255.1 555.9,249.5 556.1,251.7 556.4,251.0 556.7,249.8 556.9,247.6 557.2,247.5 557.5,246.1 557.7,243.0 558.0,242.6 558.3,243.8 558.5,242.4 558.8,242.7 559.0,243.9 559.3,246.5 559.6,246.2 559.8,246.3 560.1,243.9 560.4,243.9 560.6,244.8 560.9,244.3 561.1,243.5 561.4,247.7 561.7,247.1 561.9,244.8 562.2,245.5 562.5,247.3 562.7,249.6 563.0,250.5 563.3,253.1 563.5,251.3 563.8,253.1 564.0,251.7 564.3,250.2 564.6,249.5 564.8,247.1 565.1,247.1 565.4,247.0 565.6,247.5 565.9,248.8 566.1,247.1 566.4,247.7 566.7,249.4 566.9,249.6 567.2,250.4 567.5,249.1 567.7,248.5 568.0,249.0 568.3,250.4 568.5,248.7 568.8,246.7 569.0,247.3 569.3,245.9 569.6,246.5 569.8,247.1 570.1,248.8 570.4,250.3 570.6,250.1 570.9,249.9 571.1,253.3 571.4,252.6 571.7,253.1 571.9,253.5 572.2,253.7 572.5,252.1 572.7,251.6 573.0,250.6 573.2,250.9 573.5,252.0 573.8,252.8 574.0,253.4 574.3,254.9 574.6,256.0 574.8,253.5 575.1,254.5 575.4,254.1 575.6,252.5 575.9,252.4 576.1,253.7 576.4,255.3 576.7,254.7 576.9,254.4 577.2,255.3 577.5,251.6 577.7,250.5 578.0,251.2 578.2,250.0 578.5,249.6 578.8,247.1 579.0,247.0 579.3,247.9 579.6,248.6 579.8,247.4 580.1,247.9 580.4,247.4 580.6,249.0 580.9,249.9 581.1,249.7 581.4,247.3 581.7,248.2 581.9,248.8 582.2,246.2 582.5,246.8 582.7,243.0 583.0,242.4 583.2,242.6 583.5,243.1 583.8,243.4 584.0,243.7 584.3,241.2 584.6,242.2 584.8,242.6 585.1,242.8 585.4,246.5 585.6,243.8 585.9,244.2 586.1,243.5 586.4,243.6 586.7,244.7 586.9,248.1 587.2,249.3 587.5,247.1 587.7,249.2 588.0,251.0 588.2,251.4 588.5,250.2 588.8,248.9 589.0,247.6 589.3,247.7 589.6,248.4 589.8,246.5 590.1,245.5 590.3,244.7 590.6,246.0 590.9,246.5 591.1,246.2 591.4,246.1 591.7,247.1 591.9,245.7 592.2,245.9 592.5,246.7 592.7,246.4 593.0,248.4 593.2,247.7 593.5,248.9 593.8,250.9 594.0,252.6 594.3,253.6 594.6,251.9 594.8,252.9 595.1,251.3 595.3,251.8 595.6,252.6 595.9,252.5 596.1,254.3 596.4,255.8 596.7,257.2 596.9,256.2 597.2,253.4 597.5,253.8 597.7,253.5 598.0,254.6 598.2,251.7 598.5,252.4 598.8,251.9 599.0,252.5 599.3,254.7 599.6,253.9 599.8,253.0 600.1,254.8 600.3,256.3 600.6,255.5 600.9,256.2 601.1,256.1 601.4,257.7 601.7,257.5 601.9,256.4 602.2,256.1 602.5,253.9 602.7,252.4 603.0,252.7 603.2,250.4 603.5,250.7 603.8,247.8 604.0,247.9 604.3,247.3 604.6,251.9 604.8,250.9 605.1,253.5 605.3,256.2 605.6,253.8 605.9,253.9 606.1,253.8 606.4,254.0 606.7,256.1 606.9,253.5 607.2,251.2 607.4,256.5 607.7,257.0 608.0,258.9 608.2,259.8 608.5,266.2 608.8,268.8 609.0,266.2 609.3,264.7 609.6,260.9 609.8,263.4 610.1,264.4 610.3,264.4 610.6,263.9 610.9,264.8 611.1,265.9 611.4,264.0 611.7,265.5 611.9,265.0 612.2,265.0 612.4,264.1 612.7,264.9 613.0,264.5 613.2,264.5 613.5,265.3 613.8,265.8 614.0,266.3 614.3,265.3 614.6,265.9 614.8,264.5 615.1,260.7 615.3,260.6 615.6,259.8 615.9,261.7 616.1,262.2 616.4,263.2 616.7,262.6 616.9,262.0 617.2,260.7 617.4,261.6 617.7,261.8 618.0,261.8 618.2,263.2 618.5,263.5 618.8,264.2 619.0,264.2 619.3,264.4 619.6,265.0 619.8,264.7 620.1,261.9 620.3,261.0 620.6,261.9 620.9,260.6 621.1,260.3 621.4,260.3 621.7,259.2 621.9,258.9 622.2,257.1 622.4,258.3 622.7,254.6 623.0,254.5 623.2,254.7 623.5,252.1 623.8,251.8 624.0,253.4 624.3,254.0 624.5,253.3 624.8,252.5 625.1,252.8 625.3,252.0 625.6,252.9 625.9,251.5 626.1,251.2 626.4,247.8 626.7,248.6 626.9,246.7 627.2,246.5 627.4,247.8 627.7,246.3 628.0,247.2 628.2,248.1 628.5,248.3 628.8,247.7 629.0,246.0 629.3,247.6 629.5,246.2 629.8,244.7 630.1,241.1 630.3,241.9 630.6,242.1 630.9,243.3 631.1,245.4 631.4,246.5 631.7,244.3 631.9,245.7 632.2,244.8 632.4,242.3 632.7,242.4 633.0,238.9 633.2,240.8 633.5,240.7 633.8,241.5 634.0,240.6 634.3,242.5 634.5,242.8 634.8,241.2 635.1,239.3 635.3,234.4 635.6,233.8 635.9,234.8 636.1,235.4 636.4,233.2 636.6,229.5 636.9,229.0 637.2,224.6 637.4,226.9 637.7,228.1 638.0,228.8 638.2,225.4 638.5,224.1 638.8,224.8 639.0,224.1 639.3,224.4 639.5,221.8 639.8,222.3 640.1,224.1 640.3,224.9 640.6,222.1 640.9,221.9 641.1,228.9 641.4,230.6 641.6,231.2 641.9,233.9 642.2,228.8 642.4,230.4 642.7,231.0 643.0,226.8 643.2,226.5 643.5,228.9 643.8,231.1 644.0,230.1 644.3,230.8 644.5,233.6 644.8,231.8 645.1,231.8 645.3,230.8 645.6,228.3 645.9,229.0 646.1,230.6 646.4,230.4 646.6,232.1 646.9,232.5 647.2,233.5 647.4,232.6 647.7,228.4 648.0,228.9 648.2,228.5 648.5,228.2 648.8,228.4 649.0,227.8 649.3,226.2 649.5,221.8 649.8,221.6 650.1,220.5 650.3,220.9 650.6,221.2 650.9,219.5 651.1,219.3 651.4,214.2 651.6,215.0 651.9,218.9 652.2,219.6 652.4,217.6 652.7,219.2 653.0,220.1 653.2,219.4 653.5,219.6 653.7,219.1 654.0,220.1 654.3,221.0 654.5,221.5 654.8,223.2 655.1,222.3 655.3,222.1 655.6,222.5 655.9,223.3 656.1,221.5 656.4,221.3 656.6,220.1 656.9,219.8 657.2,220.5 657.4,221.9 657.7,222.4 658.0,223.7 658.2,223.3 658.5,223.4 658.7,220.6 659.0,221.6 659.3,215.6 659.5,215.7 659.8,213.0 660.1,212.8 660.3,211.8 660.6,211.7 660.9,210.2 661.1,210.6 661.4,206.6 661.6,203.8 661.9,206.7 662.2,206.1 662.4,207.0 662.7,205.6 663.0,202.6 663.2,202.9 663.5,202.8 663.7,204.4 664.0,202.4 664.3,202.5 664.5,203.2 664.8,204.5 665.1,210.2 665.3,207.1 665.6,207.1 665.9,207.7 666.1,201.8 666.4,202.3 666.6,200.9 666.9,201.8 667.2,198.1 667.4,199.2 667.7,199.9 668.0,199.1 668.2,201.7 668.5,199.9 668.7,202.1 669.0,201.2 669.3,199.1 669.5,198.6 669.8,195.3 670.1,199.6 670.3,198.2 670.6,199.0 670.8,199.8 671.1,199.5 671.4,200.8 671.6,201.7 671.9,199.5 672.2,198.7 672.4,197.2 672.7,198.2 673.0,198.6 673.2,198.0 673.5,196.5 673.7,196.5 674.0,197.2 674.3,196.3 674.5,195.9 674.8,196.5 675.1,196.3 675.3,193.9 675.6,193.3 675.8,193.8 676.1,193.6 676.4,193.0 676.6,192.9 676.9,193.1 677.2,197.1 677.4,198.3 677.7,198.0 678.0,197.5 678.2,199.0 678.5,204.0 678.7,203.5 679.0,205.1 679.3,204.7 679.5,203.9 679.8,199.6 680.1,200.8 680.3,200.2 680.6,200.8 680.8,203.1 681.1,200.4 681.4,202.0 681.6,199.6 681.9,199.8 682.2,200.9 682.4,202.1 682.7,201.8 683.0,201.9 683.2,203.5 683.5,203.3 683.7,200.4 684.0,197.9 684.3,198.2 684.5,203.8 684.8,209.3 685.1,209.3 685.3,207.6 685.6,208.3 685.8,206.7 686.1,205.7 686.4,204.5 686.6,206.2 686.9,205.7 687.2,206.3 687.4,206.2 687.7,208.0 687.9,209.6 688.2,209.6 688.5,212.0 688.7,217.2 689.0,213.6 689.3,212.3 689.5,210.1 689.8,209.6 690.1,210.6 690.3,207.2 690.6,207.3 690.8,208.0 691.1,208.3 691.4,207.7 691.6,208.7 691.9,207.4 692.2,205.1 692.4,205.7 692.7,208.4 692.9,209.7 693.2,209.8 693.5,208.4 693.7,211.6 694.0,208.5 694.3,205.6 694.5,204.0 694.8,199.5 695.1,201.1 695.3,205.5 695.6,201.1 695.8,200.8 696.1,202.9 696.4,205.7 696.6,210.5 696.9,212.8 697.2,216.8 697.4,218.0 697.7,213.9 697.9,215.6 698.2,211.7 698.5,209.1 698.7,210.7 699.0,209.6 699.3,210.0 699.5,205.9 699.8,206.7 700.1,202.3 700.3,202.8 700.6,200.7 700.8,200.7 701.1,200.8 701.4,200.1 701.6,200.4 701.9,198.0 702.2,197.5 702.4,196.7 702.7,193.7 702.9,193.6 703.2,196.4 703.5,191.7 703.7,190.9 704.0,191.1 704.3,188.4 704.5,188.1 704.8,188.5 705.0,189.5 705.3,185.9 705.6,184.6 705.8,184.3 706.1,183.4 706.4,182.4 706.6,182.1 706.9,183.0 707.2,184.5 707.4,181.0 707.7,181.0 707.9,180.5 708.2,178.9 708.5,182.9 708.7,179.2 709.0,179.7 709.3,181.8 709.5,181.2 709.8,178.8 710.0,173.2 710.3,174.1 710.6,175.4 710.8,174.4 711.1,172.6 711.4,174.6 711.6,173.5 711.9,172.8 712.2,175.2 712.4,173.5 712.7,177.1 712.9,174.9 713.2,174.8 713.5,173.9 713.7,171.1 714.0,171.2 714.3,167.4 714.5,167.1 714.8,166.8 715.0,166.8 715.3,163.5 715.6,158.1 715.8,158.4 716.1,152.1 716.4,142.7 716.6,143.4 716.9,140.8 717.2,140.0 717.4,132.7 717.7,134.8 717.9,135.8 718.2,150.6 718.5,147.0 718.7,148.2 719.0,144.9 719.3,143.8 719.5,144.0 719.8,152.6 720.0,149.7 720.3,144.7 720.6,144.4 720.8,143.6 721.1,143.8 721.4,144.9 721.6,144.7 721.9,144.9 722.1,148.1 722.4,148.8 722.7,148.5 722.9,147.6 723.2,149.3 723.5,148.4 723.7,145.6 724.0,142.5 724.3,140.9 724.5,142.8 724.8,145.3 725.0,144.0 725.3,141.8 725.6,138.5 725.8,138.5 726.1,138.1 726.4,135.3 726.6,132.2 726.9,130.5 727.1,131.3 727.4,131.5 727.7,133.9 727.9,138.9 728.2,140.2 728.5,142.7 728.7,140.8 729.0,137.9 729.3,134.4 729.5,135.0 729.8,138.8 730.0,144.6 730.3,142.0 730.6,145.0 730.8,145.1 731.1,146.8 731.4,149.0 731.6,148.4 731.9,145.6 732.1,146.5 732.4,144.8 732.7,141.9 732.9,136.0 733.2,137.3 733.5,138.3 733.7,138.8 734.0,140.2 734.2,141.5 734.5,137.8 734.8,137.9 735.0,136.9 735.3,139.8 735.6,147.5 735.8,149.5 736.1,145.2 736.4,144.0 736.6,144.6 736.9,144.2 737.1,142.0 737.4,141.5 737.7,139.1 737.9,141.4 738.2,136.9 738.5,136.6 738.7,138.1 739.0,137.7 739.2,140.9 739.5,138.2 739.8,139.7 740.0,142.1 740.3,139.3 740.6,139.3 740.8,131.8 741.1,134.6 741.4,138.6 741.6,137.8 741.9,137.4 742.1,140.0 742.4,137.5 742.7,137.4 742.9,136.2 743.2,131.5 743.5,129.4 743.7,125.4 744.0,126.5 744.2,127.2 744.5,128.6 744.8,127.6 745.0,129.0 745.3,126.5 745.6,123.7 745.8,125.9 746.1,126.2 746.4,122.1 746.6,126.3 746.9,127.5 747.1,127.5 747.4,122.9 747.7,123.6 747.9,116.5 748.2,109.5 748.5,109.6 748.7,103.0 749.0,98.6 749.2,94.3 749.5,99.7 749.8,98.7 750.0,92.1 750.3,91.8 750.6,95.0 750.8,100.6 751.1,102.6 751.3,108.3 751.6,105.0 751.9,101.8 752.1,100.8 752.4,90.6 752.7,94.1 752.9,99.8 753.2,99.9 753.5,96.9 753.7,97.6 754.0,93.8 754.2,89.0 754.5,75.0 754.8,75.8 755.0,69.9 755.3,60.5 755.6,45.0 755.8,58.9 756.1,60.1 756.3,78.5 756.6,76.5 756.9,89.1 757.1,93.3 757.4,96.2 757.7,92.4 757.9,103.1 758.2,94.3 758.5,105.8 758.7,102.9 759.0,113.6 759.2,116.1 759.5,112.5 759.8,104.2 760.0,106.5 760.3,112.0 760.6,108.2 760.8,106.1 761.1,101.9 761.3,108.3 761.6,110.4 761.9,109.8 762.1,110.5 762.4,112.4 762.7,107.9 762.9,105.7 763.2,103.3 763.5,108.4 763.7,104.6 764.0,92.0 764.2,95.8 764.5,102.8 764.8,101.8 765.0,107.2 765.3,108.4 765.6,107.1 765.8,104.3 766.1,107.7 766.3,103.4 766.6,99.9 766.9,99.2 767.1,100.8 767.4,103.4 767.7,97.7 767.9,101.0 768.2,99.2 768.4,104.8 768.7,106.5 769.0,108.6 769.2,113.7 769.5,119.7 769.8,122.3 770.0,113.7 770.3,111.0 770.6,112.4 770.8,108.3 771.1,103.1 771.3,103.0 771.6,104.1 771.9,103.0 772.1,104.8 772.4,101.7 772.7,88.5 772.9,85.8 773.2,83.1 773.4,84.7 773.7,86.0 774.0,83.5 774.2,85.6 774.5,85.5 774.8,82.4 775.0,80.3 775.3,88.9 775.6,88.0 775.8,83.8 776.1,90.2 776.3,88.7 776.6,92.4 776.9,92.5 777.1,99.6 777.4,100.6 777.7,101.3 777.9,105.3 778.2,102.0 778.4,97.4 778.7,96.2 779.0,100.6 779.2,101.2 779.5,96.0 779.8,105.9 780.0,108.0 780.3,105.9 780.6,106.9 780.8,108.9 781.1,110.3 781.3,111.5 781.6,109.2 781.9,111.4 782.1,107.5 782.4,112.1 782.7,110.0 782.9,109.5 783.2,110.7 783.4,113.8 783.7,118.1 784.0,128.5 784.2,138.3 784.5,132.3 784.8,134.3 785.0,142.0 785.3,133.8 785.5,134.4 785.8,137.1 786.1,139.8 786.3,142.9 786.6,140.4 786.9,129.0 787.1,134.3 787.4,140.8 787.7,139.7 787.9,139.8 788.2,146.7 788.4,148.4 788.7,148.4 789.0,156.1 789.2,153.8 789.5,147.8 789.8,143.5 790.0,151.1 790.3,151.0 790.5,152.0 790.8,155.1 791.1,148.2 791.3,148.5 791.6,144.2 791.9,142.9 792.1,143.1 792.4,147.0 792.7,146.8 792.9,143.8 793.2,144.7 793.4,144.4 793.7,148.8 794.0,146.4 794.2,141.2 794.5,146.5 794.8,146.7 795.0,140.4 795.3,123.0 795.5,126.5 795.8,126.8 796.1,125.7 796.3,124.6 796.6,121.7 796.9,121.3 797.1,114.9 797.4,116.9 797.7,116.3 797.9,128.9 798.2,127.6 798.4,124.5 798.7,124.2 799.0,118.0 799.2,121.0 799.5,122.3 799.8,126.9 800.0,126.2 800.3,126.1 800.5,128.6 800.8,128.4 801.1,132.7 801.3,128.5 801.6,126.8 801.9,126.8 802.1,130.0 802.4,133.9 802.6,132.2 802.9,131.8 803.2,133.1 803.4,128.1 803.7,129.5 804.0,129.8 804.2,125.9 804.5,123.1 804.8,118.5 805.0,113.7 805.3,112.1 805.5,113.7 805.8,108.9 806.1,114.8 806.3,114.6 806.6,114.4 806.9,110.4 807.1,110.8 807.4,112.1 807.6,102.7 807.9,98.0 808.2,97.6 808.4,94.5 808.7,91.1 809.0,92.7 809.2,94.5 809.5,101.8 809.8,100.9 810.0,103.2 810.3,102.1 810.5,94.3 810.8,86.3 811.1,93.1 811.3,92.4 811.6,102.9 811.9,99.2 812.1,101.9 812.4,101.8 812.6,104.7 812.9,109.2 813.2,113.6 813.4,111.0 813.7,113.7 814.0,110.9 814.2,120.6 814.5,121.7 814.7,122.3 815.0,119.0 815.3,116.8 815.5,110.6 815.8,108.9 816.1,112.7 816.3,113.5 816.6,112.2 816.9,111.1 817.1,119.5 817.4,121.6 817.6,124.7 817.9,118.6 818.2,121.0 818.4,123.5 818.7,121.5 819.0,119.1 819.2,118.9 819.5,119.5 819.7,117.4 820.0,120.6 820.3,128.1 820.5,126.0 820.8,132.8 821.1,129.0 821.3,130.0 821.6,122.6 821.9,124.1 822.1,128.9 822.4,131.0 822.6,139.0 822.9,134.0 823.2,131.2 823.4,129.5 823.7,132.3 824.0,139.7 824.2,150.2 824.5,142.4 824.7,137.5 825.0,138.9 825.3,139.3 825.5,140.3 825.8,134.1 826.1,137.5 826.3,140.8 826.6,144.0 826.9,143.3 827.1,136.5 827.4,137.7 827.6,131.1 827.9,132.7 828.2,132.7 828.4,130.7 828.7,137.6 829.0,130.9 829.2,132.3 829.5,127.9 829.7,128.3 830.0,129.9 830.3,130.0 830.5,129.2 830.8,131.1 831.1,131.8 831.3,138.9 831.6,136.2 831.8,129.5 832.1,125.1 832.4,125.9 832.6,124.9 832.9,129.7 833.2,134.1 833.4,132.6 833.7,132.4 834.0,133.0 834.2,131.3 834.5,133.5 834.7,132.4 835.0,133.1 835.3,133.7 835.5,128.9 835.8,131.0 836.1,133.2 836.3,133.7 836.6,135.1 836.8,133.8 837.1,131.3 837.4,128.5 837.6,130.2 837.9,130.4 838.2,130.2 838.4,127.0 838.7,121.8 839.0,123.2 839.2,118.1 839.5,122.9 839.7,121.3 840.0,120.8 840.3,120.6 840.5,112.6 840.8,113.6 841.1,113.2 841.3,114.2 841.6,111.9 841.8,106.3 842.1,106.2 842.4,103.4 842.6,104.1 842.9,100.1 843.2,101.8 843.4,103.0 843.7,101.4 844.0,104.8 844.2,106.1 844.5,105.1 844.7,109.0 845.0,110.6 845.3,109.5 845.5,110.1 845.8,110.5 846.1,110.3 846.3,111.2 846.6,110.4 846.8,111.6 847.1,110.8 847.4,111.0 847.6,110.4 847.9,113.8 848.2,116.1 848.4,116.1 848.7,117.0 848.9,118.1 849.2,117.5 849.5,114.2 849.7,113.3 850.0,114.6 850.3,114.8 850.5,118.5 850.8,115.1 851.1,112.8 851.3,113.7 851.6,114.0 851.8,113.9 852.1,116.4 852.4,116.4 852.6,116.6 852.9,119.2 853.2,120.9 853.4,117.5 853.7,116.1 853.9,118.2 854.2,119.2 854.5,113.3 854.7,118.0 855.0,118.6"/>
</svg>
