<svg xmlns="http://www.w3.org/2000/svg" width="900" height="360">
<rect width="100%" height="100%" fill="white"/>
<text x="30" y="20" font-size="16">贵州茅台 收益率直方图</text>
<rect x="30.0" y="328.9" width="27.0" height="1.1" fill="#9ecae1"/><rect x="58.0" y="329.5" width="27.0" height="0.5" fill="#9ecae1"/><rect x="86.0" y="330.0" width="27.0" height="0.0" fill="#9ecae1"/><rect x="114.0" y="328.9" width="27.0" height="1.1" fill="#9ecae1"/><rect x="142.0" y="327.8" width="27.0" height="2.2" fill="#9ecae1"/><rect x="170.0" y="328.9" width="27.0" height="1.1" fill="#9ecae1"/><rect x="198.0" y="326.2" width="27.0" height="3.8" fill="#9ecae1"/><rect x="226.0" y="325.2" width="27.0" height="4.8" fill="#9ecae1"/><rect x="254.0" y="315.5" width="27.0" height="14.5" fill="#9ecae1"/><rect x="282.0" y="316.0" width="27.0" height="14.0" fill="#9ecae1"/><rect x="310.0" y="302.6" width="27.0" height="27.4" fill="#9ecae1"/><rect x="338.0" y="285.9" width="27.0" height="44.1" fill="#9ecae1"/><rect x="366.0" y="241.3" width="27.0" height="88.7" fill="#9ecae1"/><rect x="394.0" y="174.6" width="27.0" height="155.4" fill="#9ecae1"/><rect x="422.0" y="96.7" width="27.0" height="233.3" fill="#9ecae1"/><rect x="450.0" y="30.0" width="27.0" height="300.0" fill="#9ecae1"/><rect x="478.0" y="71.9" width="27.0" height="258.1" fill="#9ecae1"/><rect x="506.0" y="151.0" width="27.0" height="179.0" fill="#9ecae1"/><rect x="534.0" y="206.3" width="27.0" height="123.7" fill="#9ecae1"/><rect x="562.0" y="250.4" width="27.0" height="79.6" fill="#9ecae1"/><rect x="590.0" y="283.8" width="27.0" height="46.2" fill="#9ecae1"/><rect x="618.0" y="296.1" width="27.0" height="33.9" fill="#9ecae1"/><rect x="646.0" y="312.3" width="27.0" height="17.7" fill="#9ecae1"/><rect x="674.0" y="318.7" width="27.0" height="11.3" fill="#9ecae1"/><rect x="702.0" y="323.5" width="27.0" height="6.5" fill="#9ecae1"/><rect x="730.0" y="327.3" width="27.0" height="2.7" fill="#9ecae1"/><rect x="758.0" y="328.4" width="27.0" height="1.6" fill="#9ecae1"/><rect x="786.0" y="328.9" width="27.0" height="1.1" fill="#9ecae1"/><rect x="814.0" y="329.5" width="27.0" height="0.5" fill="#9ecae1"/><rect x="842.0" y="328.4" width="27.0" height="1.6" fill="#9ecae1"/>
<polyline fill="none" stroke="#d62728" stroke-width="2" points="30.0,330.0 37.1,330.0 44.1,330.0 51.2,330.0 58.2,330.0 65.3,330.0 72.4,330.0 79.4,330.0 86.5,330.0 93.5,330.0 100.6,330.0 107.6,330.0 114.7,330.0 121.8,330.0 128.8,330.0 135.9,329.9 142.9,329.9 150.0,329.9 157.1,329.8 164.1,329.8 171.2,329.7 178.2,329.6 185.3,329.4 192.4,329.2 199.4,328.9 206.5,328.5 213.5,328.1 220.6,327.5 227.6,326.7 234.7,325.8 241.8,324.6 248.8,323.2 255.9,321.4 262.9,319.2 270.0,316.6 277.1,313.4 284.1,309.7 291.2,305.3 298.2,300.2 305.3,294.3 312.4,287.5 319.4,279.9 326.5,271.2 333.5,261.6 340.6,251.0 347.6,239.5 354.7,227.0 361.8,213.7 368.8,199.6 375.9,184.8 382.9,169.6 390.0,154.1 397.1,138.5 404.1,123.0 411.2,107.9 418.2,93.5 425.3,80.0 432.4,67.7 439.4,56.8 446.5,47.5 453.5,40.0 460.6,34.6 467.6,31.2 474.7,30.0 481.8,31.0 488.8,34.2 495.9,39.5 502.9,46.9 510.0,56.0 517.1,66.8 524.1,79.0 531.2,92.5 538.2,106.8 545.3,121.9 552.4,137.3 559.4,152.9 566.5,168.4 573.5,183.7 580.6,198.5 587.6,212.6 594.7,226.0 601.8,238.6 608.8,250.2 615.9,260.9 622.9,270.5 630.0,279.2 637.1,287.0 644.1,293.8 651.2,299.8 658.2,304.9 665.3,309.4 672.4,313.2 679.4,316.3 686.5,319.0 693.5,321.2 700.6,323.0 707.6,324.5 714.7,325.7 721.8,326.7 728.8,327.4 735.9,328.0 742.9,328.5 750.0,328.9 757.1,329.2 764.1,329.4 771.2,329.5 778.2,329.7 785.3,329.8 792.4,329.8 799.4,329.9 806.5,329.9 813.5,329.9 820.6,330.0 827.6,330.0 834.7,330.0 841.8,330.0 848.8,330.0 855.9,330.0 862.9,330.0 870.0,330.0"/>
</svg>
