<svg xmlns="http://www.w3.org/2000/svg" width="900" height="360">
<rect width="100%" height="100%" fill="white"/>
<text x="45" y="20" font-size="16">贵州茅台 收益率直方图</text>
<line class="axis-x" x1="45" y1="315" x2="855" y2="315" stroke="black" stroke-width="1"/>
<line class="axis-y" x1="45" y1="45" x2="45" y2="315" stroke="black" stroke-width="1"/>
<text x="450.0" y="355" font-size="12" text-anchor="middle">收益率</text>
<text x="14" y="180.0" font-size="12" text-anchor="middle" transform="rotate(-90 14 180.0)">频数</text>
<line x1="45.0" y1="315" x2="45.0" y2="320" stroke="black" stroke-width="1"/>
<text x="45.0" y="333" font-size="10" text-anchor="middle">-0.105</text>
<line x1="450.0" y1="315" x2="450.0" y2="320" stroke="black" stroke-width="1"/>
<text x="450.0" y="333" font-size="10" text-anchor="middle">-0.005</text>
<line x1="855.0" y1="315" x2="855.0" y2="320" stroke="black" stroke-width="1"/>
<text x="855.0" y="333" font-size="10" text-anchor="middle">0.095</text>
<line x1="40" y1="315.0" x2="45" y2="315.0" stroke="black" stroke-width="1"/>
<text x="37" y="318.0" font-size="10" text-anchor="end">0</text>
<line x1="40" y1="180.0" x2="45" y2="180.0" stroke="black" stroke-width="1"/>
<text x="37" y="183.0" font-size="10" text-anchor="end">279</text>
<line x1="40" y1="45.0" x2="45" y2="45.0" stroke="black" stroke-width="1"/>
<text x="37" y="48.0" font-size="10" text-anchor="end">558</text>
<rect x="45.0" y="314.0" width="26.0" height="1.0" fill="#9ecae1"/><rect x="72.0" y="314.5" width="26.0" height="0.5" fill="#9ecae1"/><rect x="99.0" y="315.0" width="26.0" height="0.0" fill="#9ecae1"/><rect x="126.0" y="314.0" width="26.0" height="1.0" fill="#9ecae1"/><rect x="153.0" y="313.1" width="26.0" height="1.9" fill="#9ecae1"/><rect x="180.0" y="314.0" width="26.0" height="1.0" fill="#9ecae1"/><rect x="207.0" y="311.6" width="26.0" height="3.4" fill="#9ecae1"/><rect x="234.0" y="310.6" width="26.0" height="4.4" fill="#9ecae1"/><rect x="261.0" y="301.9" width="26.0" height="13.1" fill="#9ecae1"/><rect x="288.0" y="302.4" width="26.0" height="12.6" fill="#9ecae1"/><rect x="315.0" y="290.3" width="26.0" height="24.7" fill="#9ecae1"/><rect x="342.0" y="275.3" width="26.0" height="39.7" fill="#9ecae1"/><rect x="369.0" y="235.2" width="26.0" height="79.8" fill="#9ecae1"/><rect x="396.0" y="175.2" width="26.0" height="139.8" fill="#9ecae1"/><rect x="423.0" y="105.0" width="26.0" height="210.0" fill="#9ecae1"/><rect x="450.0" y="45.0" width="26.0" height="270.0" fill="#9ecae1"/><rect x="477.0" y="82.7" width="26.0" height="232.3" fill="#9ecae1"/><rect x="504.0" y="153.9" width="26.0" height="161.1" fill="#9ecae1"/><rect x="531.0" y="203.7" width="26.0" height="111.3" fill="#9ecae1"/><rect x="558.0" y="243.4" width="26.0" height="71.6" fill="#9ecae1"/><rect x="585.0" y="273.4" width="26.0" height="41.6" fill="#9ecae1"/><rect x="612.0" y="284.5" width="26.0" height="30.5" fill="#9ecae1"/><rect x="639.0" y="299.0" width="26.0" height="16.0" fill="#9ecae1"/><rect x="666.0" y="304.8" width="26.0" height="10.2" fill="#9ecae1"/><rect x="693.0" y="309.2" width="26.0" height="5.8" fill="#9ecae1"/><rect x="720.0" y="312.6" width="26.0" height="2.4" fill="#9ecae1"/><rect x="747.0" y="313.5" width="26.0" height="1.5" fill="#9ecae1"/><rect x="774.0" y="314.0" width="26.0" height="1.0" fill="#9ecae1"/><rect x="801.0" y="314.5" width="26.0" height="0.5" fill="#9ecae1"/><rect x="828.0" y="313.5" width="26.0" height="1.5" fill="#9ecae1"/>
<polyline fill="none" stroke="#d62728" stroke-width="2" points="45.0,315.0 51.8,315.0 58.6,315.0 65.4,315.0 72.2,315.0 79.0,315.0 85.8,315.0 92.6,315.0 99.5,315.0 106.3,315.0 113.1,315.0 119.9,315.0 126.7,315.0 133.5,315.0 140.3,315.0 147.1,314.9 153.9,314.9 160.7,314.9 167.5,314.8 174.3,314.8 181.1,314.7 187.9,314.6 194.7,314.5 201.6,314.3 208.4,314.0 215.2,313.7 222.0,313.3 228.8,312.7 235.6,312.1 242.4,311.2 249.2,310.2 256.0,308.8 262.8,307.2 269.6,305.3 276.4,302.9 283.2,300.1 290.0,296.7 296.8,292.8 303.7,288.2 310.5,282.9 317.3,276.8 324.1,269.9 330.9,262.1 337.7,253.5 344.5,243.9 351.3,233.5 358.1,222.3 364.9,210.3 371.7,197.6 378.5,184.3 385.3,170.6 392.1,156.7 398.9,142.6 405.8,128.7 412.6,115.1 419.4,102.2 426.2,90.0 433.0,78.9 439.8,69.1 446.6,60.7 453.4,54.0 460.2,49.1 467.0,46.1 473.8,45.0 480.6,45.9 487.4,48.8 494.2,53.6 501.1,60.2 507.9,68.4 514.7,78.1 521.5,89.1 528.3,101.2 535.1,114.1 541.9,127.7 548.7,141.6 555.5,155.6 562.3,169.6 569.1,183.3 575.9,196.6 582.7,209.4 589.5,221.4 596.3,232.7 603.2,243.2 610.0,252.8 616.8,261.5 623.6,269.3 630.4,276.3 637.2,282.4 644.0,287.8 650.8,292.4 657.6,296.4 664.4,299.8 671.2,302.7 678.0,305.1 684.8,307.1 691.6,308.7 698.4,310.1 705.3,311.1 712.1,312.0 718.9,312.7 725.7,313.2 732.5,313.7 739.3,314.0 746.1,314.2 752.9,314.4 759.7,314.6 766.5,314.7 773.3,314.8 780.1,314.8 786.9,314.9 793.7,314.9 800.5,314.9 807.4,315.0 814.2,315.0 821.0,315.0 827.8,315.0 834.6,315.0 841.4,315.0 848.2,315.0 855.0,315.0"/>
</svg>
