<svg xmlns="http://www.w3.org/2000/svg" width="900" height="360">
<rect width="100%" height="100%" fill="white"/>
<text x="45" y="20" font-size="16">长江电力 价格</text>
<line class="axis-x" x1="45" y1="315" x2="855" y2="315" stroke="black" stroke-width="1"/>
<line class="axis-y" x1="45" y1="45" x2="45" y2="315" stroke="black" stroke-width="1"/>
<text x="450.0" y="355" font-size="12" text-anchor="middle">样本点</text>
<text x="14" y="180.0" font-size="12" text-anchor="middle" transform="rotate(-90 14 180.0)">价格</text>
<line x1="45.0" y1="315" x2="45.0" y2="320" stroke="black" stroke-width="1"/>
<text x="45.0" y="333" font-size="10" text-anchor="middle">1</text>
<line x1="449.9" y1="315" x2="449.9" y2="320" stroke="black" stroke-width="1"/>
<text x="449.9" y="333" font-size="10" text-anchor="middle">1540</text>
<line x1="855.0" y1="315" x2="855.0" y2="320" stroke="black" stroke-width="1"/>
<text x="855.0" y="333" font-size="10" text-anchor="middle">3080</text>
<line x1="40" y1="315.0" x2="45" y2="315.0" stroke="black" stroke-width="1"/>
<text x="37" y="318.0" font-size="10" text-anchor="end">3.99</text>
<line x1="40" y1="180.0" x2="45" y2="180.0" stroke="black" stroke-width="1"/>
<text x="37" y="183.0" font-size="10" text-anchor="end">14.11</text>
<line x1="40" y1="45.0" x2="45" y2="45.0" stroke="black" stroke-width="1"/>
<text x="37" y="48.0" font-size="10" text-anchor="end">24.23</text>
<polyline fill="none" stroke="#1f77b4" stroke-width="2" points="45.0,295.7 45.3,295.7 45.5,296.1 45.8,297.1 46.1,296.8 46.3,296.7 46.6,295.7 46.8,296.5 47.1,296.3 47.4,296.6 47.6,296.7 47.9,296.8 48.2,296.8 48.4,297.6 48.7,299.0 48.9,297.7 49.2,297.4 49.5,297.3 49.7,297.3 50.0,298.0 50.3,298.4 50.5,298.6 50.8,297.6 51.1,297.4 51.3,297.9 51.6,298.4 51.8,298.2 52.1,298.2 52.4,298.4 52.6,298.2 52.9,298.0 53.2,297.7 53.4,296.9 53.7,296.8 53.9,296.8 54.2,296.0 54.5,296.7 54.7,296.5 55.0,296.5 55.3,297.9 55.5,298.2 55.8,297.9 56.0,298.2 56.3,298.0 56.6,298.2 56.8,298.3 57.1,298.3 57.4,297.5 57.6,297.9 57.9,297.9 58.2,298.1 58.4,298.7 58.7,299.0 58.9,299.4 59.2,299.3 59.5,298.4 59.7,299.0 60.0,299.4 60.3,299.0 60.5,299.1 60.8,299.3 61.0,298.9 61.3,299.2 61.6,297.8 61.8,296.0 62.1,295.7 62.4,295.8 62.6,295.9 62.9,297.1 63.2,297.8 63.4,296.5 63.7,293.3 63.9,293.0 64.2,294.6 64.5,292.3 64.7,292.4 65.0,294.4 65.3,295.4 65.5,293.2 65.8,294.2 66.0,295.4 66.3,297.3 66.6,299.5 66.8,297.8 67.1,299.3 67.4,299.0 67.6,298.0 67.9,297.6 68.2,299.4 68.4,299.4 68.7,298.7 68.9,299.7 69.2,299.5 69.5,298.4 69.7,300.3 70.0,300.4 70.3,299.7 70.5,300.2 70.8,300.9 71.0,301.2 71.3,301.4 71.6,301.6 71.8,300.5 72.1,301.4 72.4,301.8 72.6,301.4 72.9,301.6 73.1,301.4 73.4,301.2 73.7,302.1 73.9,300.6 74.2,300.6 74.5,301.2 74.7,301.0 75.0,300.0 75.3,300.0 75.5,300.9 75.8,299.6 76.0,300.4 76.3,300.0 76.6,300.3 76.8,300.3 77.1,301.4 77.4,302.2 77.6,301.5 77.9,301.3 78.1,301.5 78.4,300.4 78.7,300.5 78.9,300.1 79.2,299.4 79.5,299.2 79.7,298.9 80.0,299.0 80.3,299.4 80.5,299.3 80.8,299.0 81.0,298.3 81.3,298.2 81.6,298.4 81.8,298.0 82.1,299.2 82.4,298.8 82.6,299.4 82.9,298.4 83.1,298.5 83.4,298.4 83.7,298.1 83.9,298.9 84.2,298.9 84.5,297.9 84.7,298.4 85.0,299.1 85.3,298.8 85.5,299.5 85.8,299.6 86.0,299.5 86.3,300.6 86.6,300.6 86.8,300.6 87.1,300.1 87.4,301.0 87.6,302.3 87.9,301.4 88.1,301.9 88.4,301.2 88.7,301.7 88.9,302.2 89.2,302.4 89.5,302.9 89.7,302.9 90.0,301.6 90.2,302.1 90.5,302.9 90.8,302.9 91.0,303.3 91.3,303.3 91.6,302.9 91.8,303.6 92.1,303.9 92.4,303.2 92.6,302.2 92.9,298.4 93.1,298.2 93.4,298.8 93.7,297.8 93.9,296.0 94.2,295.3 94.5,295.7 94.7,297.9 95.0,298.9 95.2,299.0 95.5,297.9 95.8,297.9 96.0,299.1 96.3,298.8 96.6,299.2 96.8,297.5 97.1,296.7 97.4,297.9 97.6,297.8 97.9,297.6 98.1,296.7 98.4,297.4 98.7,297.8 98.9,297.0 99.2,300.0 99.5,299.9 99.7,302.9 100.0,302.8 100.2,302.9 100.5,302.6 100.8,303.1 101.0,304.5 101.3,303.7 101.6,302.5 101.8,303.2 102.1,302.9 102.3,304.0 102.6,302.6 102.9,302.8 103.1,301.8 103.4,302.1 103.7,302.3 103.9,303.0 104.2,303.2 104.5,302.5 104.7,300.9 105.0,301.3 105.2,302.0 105.5,302.3 105.8,302.5 106.0,303.4 106.3,302.6 106.6,303.4 106.8,303.4 107.1,303.4 107.3,304.4 107.6,304.6 107.9,304.1 108.1,304.5 108.4,304.0 108.7,303.6 108.9,303.7 109.2,303.7 109.5,303.4 109.7,303.6 110.0,302.7 110.2,302.9 110.5,303.4 110.8,303.4 111.0,305.0 111.3,305.1 111.6,304.1 111.8,305.1 112.1,304.6 112.3,304.6 112.6,303.6 112.9,303.2 113.1,302.4 113.4,301.7 113.7,301.6 113.9,302.1 114.2,302.3 114.5,301.9 114.7,302.3 115.0,301.0 115.2,300.5 115.5,300.6 115.8,300.9 116.0,302.0 116.3,301.4 116.6,302.7 116.8,302.7 117.1,302.5 117.3,302.3 117.6,302.2 117.9,301.7 118.1,302.3 118.4,302.2 118.7,301.8 118.9,300.6 119.2,300.8 119.4,301.2 119.7,302.2 120.0,302.4 120.2,302.3 120.5,303.1 120.8,302.7 121.0,300.2 121.3,300.7 121.6,301.2 121.8,300.5 122.1,299.5 122.3,299.5 122.6,299.5 122.9,299.8 123.1,300.6 123.4,300.6 123.7,300.6 123.9,300.6 124.2,299.5 124.4,299.1 124.7,299.4 125.0,299.1 125.2,297.4 125.5,297.6 125.8,297.9 126.0,298.1 126.3,297.2 126.6,298.9 126.8,299.3 127.1,299.0 127.3,298.8 127.6,299.9 127.9,300.1 128.1,299.4 128.4,300.4 128.7,298.4 128.9,298.0 129.2,299.2 129.4,299.4 129.7,298.0 130.0,297.5 130.2,297.4 130.5,298.3 130.8,298.4 131.0,298.6 131.3,299.5 131.6,299.9 131.8,299.6 132.1,301.0 132.3,301.0 132.6,305.1 132.9,305.0 133.1,305.2 133.4,305.6 133.7,305.9 133.9,306.2 134.2,305.4 134.4,305.4 134.7,305.4 135.0,305.2 135.2,305.0 135.5,305.1 135.8,305.9 136.0,305.3 136.3,305.0 136.5,304.9 136.8,305.1 137.1,305.7 137.3,305.7 137.6,305.7 137.9,305.3 138.1,305.2 138.4,304.9 138.7,304.1 138.9,304.4 139.2,304.7 139.4,305.0 139.7,304.8 140.0,305.1 140.2,304.0 140.5,303.9 140.8,304.3 141.0,304.6 141.3,304.7 141.5,304.5 141.8,305.4 142.1,304.9 142.3,305.1 142.6,304.9 142.9,305.0 143.1,305.6 143.4,305.3 143.7,306.0 143.9,306.0 144.2,308.5 144.4,308.9 144.7,309.1 145.0,309.5 145.2,308.9 145.5,309.1 145.8,309.6 146.0,310.0 146.3,309.5 146.5,310.7 146.8,311.7 147.1,312.3 147.3,311.9 147.6,311.7 147.9,311.3 148.1,310.7 148.4,310.6 148.7,310.5 148.9,310.8 149.2,312.2 149.4,312.9 149.7,312.0 150.0,312.4 150.2,311.1 150.5,311.5 150.8,312.6 151.0,312.4 151.3,312.6 151.5,312.8 151.8,313.9 152.1,314.7 152.3,315.0 152.6,314.4 152.9,313.4 153.1,313.1 153.4,312.0 153.6,312.2 153.9,312.2 154.2,312.7 154.4,313.4 154.7,312.4 155.0,311.6 155.2,312.8 155.5,313.2 155.8,313.3 156.0,312.4 156.3,313.3 156.5,313.1 156.8,313.2 157.1,313.2 157.3,312.8 157.6,311.7 157.9,311.5 158.1,311.5 158.4,311.2 158.6,312.4 158.9,312.1 159.2,313.2 159.4,313.2 159.7,312.4 160.0,311.7 160.2,311.2 160.5,311.0 160.8,310.9 161.0,310.5 161.3,310.8 161.5,309.5 161.8,310.2 162.1,309.8 162.3,310.3 162.6,309.1 162.9,308.9 163.1,309.8 163.4,309.8 163.6,308.7 163.9,308.3 164.2,309.7 164.4,309.0 164.7,310.2 165.0,310.0 165.2,309.5 165.5,309.9 165.8,310.5 166.0,310.7 166.3,310.9 166.5,310.0 166.8,311.0 167.1,310.4 167.3,311.6 167.6,312.5 167.9,312.3 168.1,312.4 168.4,312.4 168.6,311.9 168.9,312.6 169.2,312.0 169.4,311.3 169.7,311.6 170.0,312.0 170.2,311.7 170.5,312.2 170.7,312.0 171.0,311.9 171.3,311.8 171.5,312.4 171.8,312.4 172.1,312.4 172.3,312.3 172.6,312.3 172.9,312.9 173.1,313.3 173.4,313.5 173.6,312.9 173.9,311.9 174.2,312.1 174.4,311.8 174.7,312.4 175.0,312.3 175.2,310.8 175.5,311.2 175.7,310.5 176.0,310.4 176.3,311.5 176.5,311.1 176.8,311.6 177.1,311.2 177.3,310.9 177.6,311.3 177.9,312.5 178.1,311.3 178.4,311.8 178.6,311.9 178.9,312.0 179.2,311.9 179.4,311.6 179.7,311.2 180.0,311.5 180.2,311.6 180.5,311.6 180.7,311.3 181.0,311.0 181.3,310.8 181.5,310.5 181.8,310.3 182.1,310.8 182.3,310.5 182.6,309.6 182.8,309.7 183.1,309.6 183.4,309.5 183.6,309.3 183.9,308.6 184.2,308.9 184.4,308.4 184.7,309.5 185.0,309.9 185.2,309.1 185.5,309.6 185.7,309.4 186.0,309.4 186.3,309.6 186.5,310.0 186.8,310.2 187.1,310.0 187.3,311.0 187.6,311.2 187.8,310.9 188.1,311.0 188.4,311.4 188.6,312.1 188.9,311.6 189.2,311.8 189.4,311.1 189.7,311.3 190.0,311.4 190.2,311.2 190.5,310.9 190.7,310.9 191.0,311.0 191.3,311.0 191.5,310.9 191.8,310.8 192.1,311.2 192.3,311.2 192.6,309.5 192.8,309.8 193.1,309.8 193.4,309.3 193.6,309.5 193.9,309.6 194.2,309.5 194.4,309.5 194.7,309.7 195.0,309.2 195.2,309.4 195.5,308.9 195.7,308.8 196.0,309.1 196.3,308.5 196.5,308.8 196.8,309.2 197.1,309.2 197.3,308.8 197.6,308.3 197.8,308.3 198.1,307.5 198.4,307.7 198.6,308.6 198.9,307.7 199.2,308.6 199.4,308.5 199.7,308.5 199.9,307.9 200.2,307.9 200.5,307.3 200.7,307.3 201.0,306.5 201.3,307.0 201.5,307.8 201.8,308.1 202.1,308.4 202.3,308.8 202.6,308.8 202.8,308.8 203.1,308.4 203.4,308.4 203.6,307.9 203.9,307.8 204.2,307.2 204.4,307.3 204.7,306.7 204.9,306.7 205.2,307.2 205.5,306.7 205.7,307.0 206.0,307.0 206.3,307.4 206.5,307.4 206.8,307.7 207.1,307.5 207.3,308.5 207.6,308.9 207.8,308.3 208.1,309.1 208.4,309.0 208.6,308.4 208.9,308.5 209.2,308.1 209.4,308.1 209.7,308.0 209.9,308.0 210.2,308.2 210.5,308.3 210.7,308.3 211.0,308.4 211.3,308.1 211.5,307.9 211.8,308.0 212.1,308.6 212.3,308.8 212.6,308.9 212.8,308.9 213.1,308.8 213.4,308.7 213.6,308.9 213.9,308.8 214.2,308.8 214.4,308.6 214.7,308.5 214.9,308.5 215.2,309.1 215.5,310.0 215.7,310.0 216.0,310.2 216.3,310.4 216.5,309.3 216.8,309.2 217.0,310.0 217.3,310.7 217.6,310.2 217.8,310.0 218.1,310.0 218.4,310.4 218.6,310.3 218.9,311.2 219.2,311.0 219.4,312.0 219.7,311.7 219.9,311.0 220.2,310.0 220.5,309.2 220.7,309.8 221.0,309.1 221.3,309.4 221.5,308.9 221.8,308.7 222.0,308.7 222.3,309.2 222.6,309.7 222.8,309.2 223.1,309.5 223.4,309.1 223.6,309.2 223.9,309.1 224.2,309.2 224.4,309.5 224.7,309.8 224.9,310.0 225.2,309.6 225.5,309.2 225.7,308.6 226.0,308.5 226.3,308.9 226.5,309.0 226.8,309.5 227.0,309.7 227.3,309.3 227.6,310.0 227.8,310.0 228.1,310.5 228.4,310.9 228.6,310.2 228.9,310.6 229.2,310.1 229.4,310.0 229.7,309.5 229.9,309.4 230.2,309.7 230.5,310.0 230.7,310.6 231.0,310.1 231.3,310.1 231.5,310.0 231.8,309.0 232.0,309.4 232.3,308.9 232.6,308.4 232.8,307.9 233.1,308.1 233.4,308.2 233.6,306.5 233.9,306.5 234.1,306.7 234.4,306.7 234.7,306.6 234.9,307.0 235.2,307.2 235.5,305.4 235.7,305.8 236.0,305.8 236.3,305.7 236.5,305.5 236.8,305.1 237.0,305.5 237.3,305.8 237.6,306.2 237.8,305.4 238.1,305.7 238.4,304.3 238.6,304.4 238.9,304.4 239.1,302.3 239.4,300.7 239.7,300.5 239.9,301.1 240.2,301.3 240.5,301.5 240.7,301.4 241.0,300.8 241.3,301.3 241.5,301.7 241.8,299.3 242.0,297.9 242.3,299.1 242.6,297.4 242.8,298.9 243.1,298.8 243.4,298.4 243.6,298.5 243.9,299.9 244.1,299.1 244.4,301.2 244.7,301.5 244.9,301.7 245.2,302.8 245.5,303.4 245.7,301.8 246.0,302.5 246.3,302.9 246.5,302.7 246.8,301.5 247.0,301.7 247.3,301.9 247.6,302.3 247.8,302.8 248.1,303.1 248.4,303.3 248.6,301.6 248.9,302.6 249.1,300.2 249.4,299.4 249.7,300.1 249.9,299.6 250.2,300.5 250.5,300.9 250.7,300.7 251.0,300.8 251.2,300.4 251.5,301.0 251.8,300.6 252.0,301.3 252.3,301.7 252.6,301.8 252.8,302.6 253.1,302.8 253.4,303.6 253.6,303.6 253.9,303.6 254.1,303.6 254.4,303.4 254.7,302.7 254.9,303.1 255.2,304.4 255.5,303.9 255.7,303.0 256.0,303.1 256.2,303.1 256.5,302.3 256.8,302.6 257.0,300.3 257.3,300.6 257.6,300.6 257.8,300.5 258.1,300.5 258.4,300.8 258.6,300.5 258.9,300.0 259.1,299.1 259.4,297.2 259.7,296.8 259.9,298.2 260.2,299.1 260.5,299.6 260.7,299.7 261.0,299.2 261.2,298.4 261.5,298.9 261.8,299.2 262.0,298.4 262.3,298.9 262.6,299.1 262.8,300.2 263.1,300.9 263.4,302.7 263.6,302.9 263.9,303.2 264.1,303.0 264.4,303.8 264.7,304.4 264.9,305.8 265.2,306.9 265.5,306.8 265.7,306.8 266.0,305.8 266.2,305.0 266.5,305.0 266.8,303.5 267.0,301.4 267.3,301.0 267.6,301.7 267.8,303.2 268.1,301.4 268.3,301.5 268.6,300.4 268.9,301.1 269.1,301.5 269.4,300.8 269.7,300.3 269.9,300.3 270.2,301.6 270.5,300.3 270.7,300.2 271.0,301.2 271.2,301.4 271.5,301.3 271.8,302.7 272.0,301.9 272.3,302.0 272.6,300.8 272.8,301.3 273.1,301.0 273.3,301.2 273.6,301.6 273.9,302.0 274.1,302.8 274.4,301.4 274.7,301.5 274.9,302.2 275.2,302.4 275.5,302.9 275.7,303.5 276.0,304.5 276.2,304.3 276.5,304.8 276.8,304.7 277.0,304.0 277.3,304.5 277.6,304.6 277.8,304.6 278.1,304.0 278.3,303.9 278.6,303.5 278.9,303.6 279.1,303.4 279.4,303.8 279.7,302.8 279.9,302.6 280.2,301.9 280.4,301.8 280.7,302.3 281.0,302.5 281.2,302.6 281.5,302.2 281.8,301.4 282.0,302.9 282.3,303.0 282.6,304.1 282.8,304.6 283.1,304.4 283.3,303.7 283.6,304.3 283.9,304.7 284.1,304.2 284.4,303.9 284.7,303.8 284.9,303.9 285.2,304.4 285.4,305.1 285.7,305.3 286.0,306.0 286.2,307.1 286.5,307.6 286.8,307.6 287.0,307.0 287.3,306.7 287.6,305.3 287.8,306.3 288.1,305.4 288.3,306.0 288.6,306.4 288.9,307.2 289.1,307.1 289.4,307.5 289.7,307.6 289.9,307.5 290.2,308.3 290.4,307.7 290.7,306.9 291.0,305.3 291.2,305.2 291.5,305.2 291.8,305.7 292.0,305.6 292.3,306.2 292.6,306.0 292.8,305.8 293.1,305.2 293.3,305.2 293.6,304.3 293.9,304.4 294.1,304.5 294.4,304.8 294.7,305.0 294.9,304.9 295.2,304.7 295.4,304.7 295.7,305.9 296.0,307.0 296.2,307.6 296.5,307.6 296.8,307.8 297.0,307.9 297.3,308.3 297.5,308.7 297.8,308.5 298.1,307.9 298.3,308.1 298.6,307.1 298.9,308.3 299.1,307.6 299.4,308.0 299.7,309.0 299.9,310.2 300.2,310.6 300.4,310.8 300.7,311.6 301.0,311.1 301.2,311.1 301.5,310.7 301.8,311.0 302.0,310.8 302.3,311.1 302.5,311.1 302.8,310.2 303.1,309.9 303.3,309.7 303.6,309.6 303.9,310.5 304.1,310.8 304.4,310.5 304.7,310.4 304.9,310.7 305.2,310.0 305.4,309.9 305.7,310.3 306.0,310.8 306.2,310.6 306.5,310.5 306.8,311.3 307.0,311.0 307.3,310.1 307.5,310.9 307.8,311.4 308.1,311.9 308.3,312.0 308.6,311.4 308.9,311.0 309.1,311.2 309.4,312.0 309.7,312.4 309.9,313.0 310.2,313.3 310.4,314.8 310.7,314.6 311.0,314.1 311.2,313.9 311.5,314.5 311.8,314.1 312.0,313.8 312.3,313.1 312.5,313.8 312.8,312.8 313.1,312.5 313.3,312.4 313.6,312.6 313.9,313.3 314.1,312.7 314.4,312.9 314.6,312.9 314.9,311.7 315.2,312.4 315.4,311.9 315.7,311.4 316.0,311.5 316.2,310.9 316.5,310.0 316.8,310.6 317.0,311.1 317.3,310.9 317.5,311.4 317.8,311.4 318.1,311.7 318.3,311.7 318.6,311.8 318.9,312.4 319.1,312.3 319.4,312.7 319.6,313.4 319.9,313.7 320.2,313.5 320.4,313.5 320.7,313.7 321.0,313.2 321.2,313.0 321.5,312.1 321.8,311.7 322.0,311.8 322.3,311.9 322.5,311.4 322.8,311.6 323.1,311.1 323.3,311.0 323.6,310.3 323.9,309.5 324.1,310.3 324.4,310.3 324.6,309.7 324.9,309.7 325.2,310.4 325.4,309.3 325.7,310.0 326.0,309.4 326.2,309.7 326.5,308.1 326.8,308.2 327.0,308.0 327.3,308.6 327.5,308.3 327.8,308.2 328.1,308.6 328.3,308.3 328.6,308.8 328.9,309.2 329.1,309.7 329.4,309.6 329.6,309.6 329.9,309.7 330.2,309.8 330.4,308.6 330.7,309.0 331.0,308.5 331.2,307.8 331.5,307.6 331.7,307.9 332.0,307.5 332.3,308.0 332.5,308.0 332.8,306.9 333.1,305.1 333.3,304.3 333.6,304.1 333.9,304.1 334.1,304.6 334.4,304.4 334.6,303.8 334.9,303.3 335.2,301.4 335.4,301.2 335.7,300.7 336.0,299.9 336.2,300.2 336.5,299.8 336.7,299.4 337.0,298.4 337.3,298.5 337.5,299.7 337.8,300.6 338.1,300.7 338.3,299.5 338.6,299.4 338.9,300.0 339.1,300.3 339.4,299.2 339.6,297.5 339.9,298.2 340.2,298.2 340.4,297.7 340.7,296.9 341.0,296.9 341.2,293.9 341.5,295.2 341.7,296.2 342.0,293.4 342.3,293.4 342.5,293.3 342.8,291.7 343.1,291.1 343.3,291.3 343.6,292.1 343.9,291.9 344.1,292.3 344.4,292.1 344.6,293.1 344.9,292.8 345.2,292.1 345.4,291.9 345.7,291.4 346.0,291.2 346.2,291.2 346.5,290.4 346.7,290.5 347.0,290.0 347.3,289.4 347.5,288.9 347.8,288.9 348.1,289.6 348.3,292.0 348.6,293.0 348.8,294.5 349.1,291.8 349.4,293.6 349.6,293.3 349.9,292.5 350.2,289.3 350.4,289.1 350.7,288.5 351.0,289.0 351.2,290.4 351.5,288.7 351.7,287.5 352.0,286.0 352.3,285.3 352.5,285.3 352.8,284.7 353.1,283.1 353.3,284.6 353.6,284.5 353.8,283.0 354.1,283.2 354.4,282.7 354.6,279.9 354.9,279.0 355.2,278.9 355.4,282.4 355.7,282.3 356.0,281.3 356.2,280.6 356.5,279.9 356.7,279.3 357.0,278.6 357.3,278.7 357.5,280.2 357.8,278.9 358.1,278.0 358.3,276.9 358.6,275.1 358.8,275.5 359.1,271.6 359.4,275.3 359.6,268.8 359.9,269.9 360.2,270.1 360.4,269.9 360.7,270.7 360.9,270.6 361.2,268.9 361.5,265.4 361.7,257.4 362.0,265.2 362.3,266.0 362.5,264.9 362.8,264.4 363.1,263.6 363.3,265.4 363.6,261.1 363.8,256.0 364.1,259.1 364.4,256.2 364.6,259.6 364.9,260.9 365.2,261.4 365.4,262.3 365.7,260.2 365.9,258.6 366.2,258.0 366.5,265.9 366.7,265.8 367.0,263.1 367.3,264.0 367.5,263.5 367.8,263.9 368.1,265.7 368.3,267.0 368.6,266.4 368.8,266.0 369.1,268.3 369.4,267.0 369.6,267.7 369.9,270.6 370.2,274.8 370.4,274.9 370.7,273.0 370.9,270.9 371.2,270.4 371.5,268.5 371.7,269.1 372.0,268.3 372.3,268.9 372.5,266.5 372.8,267.5 373.1,266.2 373.3,268.7 373.6,268.1 373.8,270.3 374.1,269.6 374.4,267.0 374.6,267.4 374.9,267.8 375.2,266.5 375.4,265.3 375.7,263.6 375.9,263.2 376.2,262.8 376.5,260.2 376.7,259.5 377.0,255.7 377.3,255.8 377.5,259.5 377.8,259.3 378.0,260.5 378.3,257.9 378.6,258.9 378.8,258.9 379.1,260.8 379.4,259.3 379.6,255.9 379.9,254.9 380.2,256.0 380.4,255.0 380.7,251.7 380.9,249.1 381.2,251.9 381.5,245.3 381.7,242.9 382.0,245.0 382.3,239.1 382.5,235.1 382.8,238.1 383.0,241.7 383.3,236.8 383.6,239.2 383.8,238.7 384.1,235.6 384.4,226.9 384.6,240.3 384.9,242.5 385.2,247.9 385.4,246.7 385.7,243.3 385.9,239.1 386.2,243.2 386.5,242.6 386.7,246.1 387.0,247.6 387.3,242.7 387.5,241.9 387.8,240.3 388.0,236.0 388.3,232.2 388.6,229.0 388.8,230.6 389.1,237.3 389.4,235.8 389.6,229.1 389.9,226.8 390.2,226.9 390.4,223.1 390.7,223.8 390.9,222.6 391.2,217.0 391.5,220.8 391.7,223.2 392.0,220.3 392.3,220.3 392.5,220.3 392.8,220.3 393.0,220.3 393.3,220.3 393.6,220.3 393.8,220.3 394.1,220.3 394.4,220.3 394.6,220.3 394.9,220.3 395.1,220.3 395.4,220.3 395.7,220.3 395.9,220.3 396.2,220.3 396.5,220.3 396.7,220.3 397.0,220.3 397.3,220.3 397.5,220.3 397.8,220.3 398.0,220.3 398.3,220.3 398.6,220.3 398.8,220.3 399.1,220.3 399.4,220.3 399.6,220.3 399.9,220.3 400.1,220.3 400.4,220.3 400.7,220.3 400.9,220.3 401.2,220.3 401.5,220.3 401.7,220.3 402.0,220.3 402.3,220.3 402.5,220.3 402.8,220.3 403.0,220.3 403.3,220.3 403.6,220.3 403.8,220.3 404.1,220.3 404.4,220.3 404.6,220.3 404.9,220.3 405.1,220.3 405.4,220.3 405.7,220.3 405.9,220.3 406.2,220.3 406.5,220.3 406.7,220.3 407.0,220.3 407.3,220.3 407.5,220.3 407.8,220.3 408.0,220.3 408.3,220.3 408.6,220.3 408.8,220.3 409.1,220.3 409.4,220.3 409.6,220.3 409.9,220.3 410.1,220.3 410.4,220.3 410.7,220.3 410.9,220.3 411.2,220.3 411.5,220.3 411.7,220.3 412.0,220.3 412.2,220.3 412.5,220.3 412.8,220.3 413.0,220.3 413.3,220.3 413.6,220.3 413.8,220.3 414.1,220.3 414.4,220.3 414.6,220.3 414.9,220.3 415.1,220.3 415.4,220.3 415.7,220.3 415.9,220.3 416.2,220.3 416.5,220.3 416.7,220.3 417.0,220.3 417.2,220.3 417.5,220.3 417.8,220.3 418.0,220.3 418.3,220.3 418.6,220.3 418.8,220.3 419.1,233.0 419.4,226.3 419.6,229.7 419.9,229.0 420.1,231.9 420.4,232.0 420.7,230.7 420.9,231.6 421.2,232.5 421.5,234.5 421.7,229.6 422.0,232.4 422.2,223.7 422.5,223.0 422.8,224.6 423.0,226.2 423.3,227.3 423.6,226.5 423.8,228.8 424.1,228.6 424.4,226.6 424.6,227.8 424.9,226.1 425.1,225.6 425.4,225.5 425.7,222.4 425.9,222.7 426.2,223.0 426.5,222.8 426.7,225.0 427.0,227.7 427.2,228.2 427.5,228.6 427.8,228.5 428.0,232.7 428.3,232.5 428.6,232.1 428.8,236.1 429.1,234.8 429.3,238.8 429.6,239.1 429.9,240.0 430.1,235.9 430.4,238.2 430.7,237.9 430.9,236.2 431.2,238.4 431.5,239.4 431.7,239.3 432.0,239.1 432.2,243.6 432.5,244.3 432.8,244.6 433.0,243.4 433.3,243.0 433.6,243.2 433.8,242.9 434.1,241.4 434.3,242.0 434.6,244.0 434.9,242.1 435.1,242.6 435.4,242.7 435.7,243.7 435.9,243.5 436.2,243.0 436.5,242.4 436.7,245.5 437.0,247.0 437.2,250.7 437.5,249.9 437.8,247.2 438.0,247.2 438.3,247.2 438.6,247.2 438.8,247.2 439.1,247.2 439.3,247.2 439.6,244.0 439.9,243.4 440.1,242.4 440.4,241.4 440.7,241.6 440.9,241.5 441.2,241.4 441.5,241.2 441.7,241.8 442.0,242.8 442.2,242.7 442.5,243.5 442.8,243.3 443.0,241.5 443.3,241.7 443.6,239.6 443.8,240.4 444.1,241.4 444.3,242.7 444.6,242.6 444.9,242.8 445.1,242.8 445.4,242.3 445.7,242.2 445.9,242.0 446.2,240.9 446.4,239.7 446.7,239.7 447.0,241.4 447.2,241.2 447.5,239.9 447.8,240.3 448.0,239.4 448.3,239.6 448.6,241.2 448.8,240.7 449.1,241.0 449.3,240.9 449.6,241.8 449.9,241.8 450.1,241.8 450.4,242.1 450.7,239.6 450.9,239.9 451.2,239.5 451.4,240.5 451.7,240.2 452.0,241.3 452.2,240.7 452.5,241.5 452.8,241.0 453.0,241.7 453.3,241.7 453.6,241.7 453.8,241.8 454.1,239.8 454.3,239.9 454.6,239.9 454.9,238.4 455.1,239.1 455.4,239.2 455.7,237.8 455.9,239.1 456.2,240.3 456.4,239.9 456.7,241.4 457.0,241.0 457.2,239.8 457.5,240.1 457.8,239.9 458.0,240.8 458.3,240.9 458.5,240.2 458.8,240.4 459.1,240.2 459.3,239.5 459.6,238.9 459.9,238.3 460.1,237.9 460.4,234.2 460.7,235.3 460.9,235.1 461.2,235.0 461.4,234.5 461.7,233.8 462.0,232.5 462.2,231.8 462.5,232.9 462.8,231.6 463.0,232.2 463.3,232.4 463.5,233.3 463.8,232.3 464.1,231.4 464.3,229.2 464.6,226.7 464.9,227.9 465.1,226.3 465.4,227.4 465.7,227.2 465.9,227.9 466.2,227.8 466.4,225.1 466.7,224.6 467.0,223.2 467.2,220.6 467.5,218.4 467.8,218.3 468.0,222.7 468.3,223.4 468.5,223.1 468.8,221.9 469.1,222.2 469.3,223.3 469.6,222.9 469.9,224.3 470.1,221.6 470.4,223.5 470.7,223.3 470.9,222.1 471.2,223.3 471.4,220.4 471.7,222.1 472.0,222.6 472.2,223.8 472.5,224.1 472.8,224.6 473.0,222.7 473.3,224.9 473.5,226.0 473.8,225.9 474.1,226.3 474.3,226.3 474.6,225.9 474.9,226.7 475.1,226.5 475.4,227.4 475.6,227.9 475.9,227.6 476.2,227.3 476.4,226.8 476.7,225.4 477.0,224.7 477.2,225.0 477.5,224.0 477.8,225.1 478.0,224.5 478.3,225.3 478.5,226.4 478.8,226.2 479.1,226.5 479.3,226.1 479.6,226.9 479.9,227.5 480.1,226.9 480.4,225.7 480.6,225.7 480.9,227.3 481.2,227.1 481.4,227.9 481.7,229.0 482.0,229.1 482.2,229.3 482.5,229.0 482.8,229.2 483.0,230.2 483.3,230.0 483.5,229.7 483.8,229.6 484.1,230.2 484.3,229.5 484.6,229.6 484.9,229.7 485.1,228.6 485.4,226.9 485.6,227.4 485.9,225.5 486.2,226.9 486.4,227.2 486.7,226.9 487.0,227.3 487.2,228.2 487.5,228.9 487.8,229.7 488.0,228.9 488.3,229.6 488.5,230.6 488.8,231.2 489.1,231.7 489.3,231.1 489.6,231.7 489.9,233.3 490.1,231.6 490.4,232.6 490.6,232.8 490.9,234.1 491.2,235.1 491.4,236.3 491.7,234.9 492.0,234.1 492.2,234.6 492.5,233.6 492.7,233.6 493.0,233.5 493.3,233.3 493.5,233.4 493.8,233.6 494.1,234.1 494.3,232.8 494.6,231.1 494.9,231.2 495.1,231.2 495.4,231.1 495.6,230.9 495.9,230.4 496.2,229.8 496.4,229.9 496.7,230.2 497.0,231.4 497.2,230.8 497.5,230.7 497.7,229.4 498.0,229.8 498.3,229.2 498.5,228.9 498.8,229.0 499.1,228.6 499.3,228.7 499.6,229.2 499.9,227.6 500.1,228.0 500.4,228.5 500.6,228.6 500.9,229.0 501.2,230.4 501.4,230.8 501.7,230.5 502.0,230.5 502.2,230.3 502.5,230.7 502.7,230.9 503.0,230.8 503.3,230.6 503.5,231.5 503.8,230.3 504.1,229.6 504.3,228.7 504.6,228.7 504.9,228.9 505.1,228.6 505.4,228.2 505.6,228.7 505.9,227.7 506.2,226.0 506.4,226.9 506.7,227.6 507.0,227.6 507.2,227.8 507.5,227.6 507.7,227.2 508.0,227.7 508.3,227.6 508.5,227.3 508.8,227.4 509.1,224.6 509.3,224.4 509.6,224.6 509.8,225.0 510.1,225.6 510.4,225.5 510.6,223.5 510.9,221.9 511.2,221.9 511.4,223.2 511.7,220.7 512.0,221.0 512.2,221.0 512.5,219.9 512.7,219.9 513.0,219.9 513.3,219.2 513.5,218.2 513.8,220.2 514.1,220.2 514.3,218.8 514.6,218.6 514.8,217.6 515.1,216.4 515.4,217.8 515.6,217.3 515.9,216.8 516.2,213.9 516.4,211.8 516.7,211.6 517.0,212.6 517.2,213.1 517.5,211.3 517.7,209.0 518.0,209.5 518.3,211.6 518.5,211.6 518.8,211.4 519.1,208.7 519.3,210.5 519.6,210.4 519.8,212.5 520.1,214.3 520.4,215.6 520.6,215.6 520.9,214.3 521.2,213.9 521.4,212.3 521.7,211.3 522.0,210.5 522.2,209.8 522.5,209.2 522.7,209.3 523.0,207.3 523.3,205.2 523.5,205.7 523.8,204.9 524.1,207.3 524.3,206.6 524.6,205.7 524.8,203.8 525.1,202.6 525.4,205.8 525.6,207.0 525.9,203.2 526.2,201.7 526.4,202.2 526.7,202.5 526.9,200.4 527.2,201.2 527.5,202.4 527.7,202.7 528.0,201.8 528.3,201.4 528.5,197.9 528.8,199.2 529.1,198.3 529.3,196.2 529.6,196.0 529.8,201.7 530.1,201.3 530.4,202.5 530.6,202.4 530.9,200.9 531.2,200.2 531.4,201.3 531.7,200.5 531.9,197.7 532.2,197.8 532.5,196.8 532.7,198.4 533.0,198.6 533.3,198.7 533.5,198.7 533.8,197.5 534.1,198.4 534.3,197.0 534.6,199.8 534.8,201.7 535.1,201.8 535.4,201.7 535.6,202.7 535.9,201.5 536.2,200.4 536.4,198.9 536.7,198.2 536.9,199.0 537.2,199.4 537.5,201.0 537.7,200.9 538.0,201.8 538.3,201.7 538.5,201.7 538.8,201.5 539.1,200.2 539.3,198.2 539.6,198.7 539.8,199.9 540.1,199.9 540.4,200.7 540.6,198.8 540.9,198.5 541.2,195.6 541.4,197.6 541.7,197.4 541.9,197.3 542.2,196.2 542.5,191.4 542.7,189.8 543.0,190.8 543.3,190.5 543.5,187.8 543.8,187.1 544.0,190.4 544.3,189.8 544.6,189.6 544.8,191.4 545.1,191.2 545.4,190.6 545.6,189.9 545.9,187.0 546.2,185.4 546.4,185.6 546.7,184.6 546.9,183.8 547.2,186.8 547.5,187.5 547.7,187.7 548.0,187.0 548.3,180.0 548.5,179.0 548.8,180.7 549.0,177.5 549.3,181.5 549.6,180.9 549.8,181.3 550.1,184.3 550.4,184.8 550.6,185.3 550.9,185.1 551.2,185.0 551.4,180.5 551.7,182.1 551.9,183.7 552.2,184.6 552.5,184.6 552.7,185.8 553.0,184.9 553.3,185.1 553.5,185.9 553.8,185.6 554.0,186.1 554.3,185.6 554.6,184.8 554.8,185.6 555.1,186.7 555.4,189.0 555.6,192.7 555.9,192.4 556.1,194.9 556.4,194.4 556.7,190.5 556.9,192.0 557.2,190.3 557.5,190.6 557.7,188.9 558.0,188.5 558.3,186.8 558.5,187.3 558.8,186.3 559.0,189.7 559.3,189.0 559.6,189.6 559.8,189.3 560.1,189.4 560.4,188.9 560.6,190.3 560.9,189.6 561.1,189.7 561.4,191.9 561.7,192.7 561.9,191.5 562.2,188.6 562.5,188.4 562.7,187.1 563.0,187.1 563.3,187.4 563.5,187.9 563.8,190.7 564.0,194.8 564.3,193.0 564.6,190.5 564.8,189.2 565.1,187.6 565.4,185.8 565.6,184.4 565.9,185.1 566.1,184.9 566.4,182.0 566.7,181.0 566.9,183.0 567.2,182.9 567.5,179.8 567.7,179.7 568.0,182.6 568.3,182.6 568.5,182.6 568.8,183.1 569.0,183.1 569.3,183.1 569.6,182.8 569.8,183.4 570.1,184.7 570.4,184.9 570.6,186.3 570.9,184.9 571.1,188.3 571.4,189.3 571.7,190.2 571.9,190.7 572.2,191.8 572.5,191.9 572.7,190.0 573.0,188.7 573.2,187.8 573.5,188.7 573.8,191.0 574.0,192.3 574.3,190.5 574.6,190.0 574.8,190.9 575.1,189.8 575.4,188.8 575.6,188.2 575.9,190.4 576.1,190.4 576.4,189.2 576.7,190.8 576.9,190.6 577.2,189.4 577.5,188.9 577.7,188.5 578.0,188.3 578.2,190.0 578.5,188.9 578.8,187.8 579.0,183.3 579.3,182.6 579.6,182.6 579.8,181.7 580.1,183.0 580.4,182.4 580.6,183.3 580.9,183.7 581.1,180.7 581.4,180.3 581.7,179.5 581.9,181.7 582.2,178.0 582.5,181.7 582.7,180.8 583.0,180.4 583.2,177.0 583.5,178.9 583.8,179.4 584.0,179.3 584.3,177.7 584.6,175.7 584.8,173.3 585.1,171.8 585.4,171.6 585.6,173.0 585.9,172.0 586.1,176.2 586.4,177.8 586.7,180.6 586.9,180.7 587.2,181.7 587.5,181.6 587.7,185.0 588.0,184.9 588.2,181.5 588.5,179.3 588.8,179.5 589.0,179.7 589.3,179.9 589.6,181.9 589.8,181.7 590.1,182.3 590.3,182.0 590.6,182.9 590.9,179.9 591.1,176.0 591.4,174.8 591.7,174.6 591.9,177.0 592.2,179.3 592.5,176.8 592.7,178.4 593.0,173.4 593.2,173.5 593.5,174.2 593.8,176.1 594.0,174.3 594.3,178.6 594.6,177.5 594.8,180.6 595.1,178.9 595.3,179.2 595.6,178.4 595.9,179.7 596.1,181.7 596.4,182.0 596.7,181.7 596.9,175.7 597.2,176.7 597.5,178.6 597.7,180.4 598.0,180.8 598.2,180.8 598.5,180.0 598.8,182.2 599.0,182.4 599.3,185.3 599.6,183.7 599.8,182.0 600.1,184.5 600.3,185.3 600.6,186.7 600.9,188.0 601.1,189.4 601.4,187.1 601.7,185.9 601.9,186.6 602.2,186.5 602.5,185.1 602.7,184.9 603.0,183.8 603.2,180.6 603.5,180.7 603.8,181.2 604.0,178.9 604.3,178.9 604.6,183.2 604.8,184.6 605.1,185.6 605.3,190.5 605.6,190.4 605.9,190.2 606.1,189.0 606.4,185.4 606.7,188.9 606.9,185.2 607.2,182.4 607.4,186.1 607.7,185.7 608.0,185.4 608.2,183.1 608.5,187.9 608.8,187.6 609.0,187.8 609.3,189.0 609.6,187.8 609.8,190.0 610.1,193.5 610.3,193.4 610.6,192.7 610.9,198.9 611.1,199.2 611.4,199.4 611.7,201.4 611.9,199.5 612.2,199.0 612.4,198.3 612.7,201.2 613.0,200.5 613.2,201.3 613.5,203.5 613.8,200.9 614.0,201.4 614.3,201.7 614.6,203.6 614.8,202.3 615.1,198.3 615.3,198.3 615.6,199.3 615.9,203.8 616.1,202.3 616.4,202.2 616.7,202.8 616.9,198.7 617.2,195.6 617.4,195.3 617.7,194.8 618.0,193.5 618.2,191.3 618.5,192.8 618.8,190.4 619.0,192.7 619.3,191.3 619.6,188.8 619.8,188.1 620.1,184.6 620.3,190.0 620.6,188.2 620.9,191.1 621.1,192.0 621.4,188.3 621.7,189.3 621.9,191.0 622.2,190.3 622.4,191.7 622.7,190.2 623.0,188.8 623.2,189.6 623.5,186.1 623.8,185.3 624.0,185.4 624.3,183.7 624.5,183.8 624.8,184.3 625.1,184.3 625.3,180.9 625.6,181.0 625.9,178.3 626.1,179.2 626.4,179.7 626.7,179.3 626.9,178.7 627.2,179.5 627.4,179.8 627.7,179.3 628.0,180.4 628.2,180.5 628.5,182.1 628.8,180.9 629.0,178.9 629.3,180.0 629.5,180.7 629.8,179.8 630.1,180.1 630.3,180.2 630.6,179.8 630.9,173.3 631.1,175.3 631.4,175.6 631.7,177.8 631.9,179.2 632.2,182.8 632.4,179.9 632.7,180.0 633.0,174.6 633.2,172.4 633.5,173.5 633.8,173.5 634.0,170.3 634.3,172.6 634.5,171.1 634.8,174.5 635.1,172.4 635.3,173.2 635.6,172.8 635.9,172.6 636.1,173.0 636.4,174.0 636.6,176.9 636.9,177.1 637.2,176.5 637.4,174.6 637.7,173.1 638.0,176.2 638.2,174.2 638.5,174.2 638.8,175.4 639.0,174.3 639.3,175.4 639.5,174.2 639.8,173.5 640.1,174.6 640.3,176.8 640.6,174.2 640.9,173.2 641.1,172.7 641.4,173.5 641.6,177.2 641.9,178.6 642.2,177.1 642.4,177.5 642.7,178.6 643.0,178.5 643.2,176.2 643.5,176.8 643.8,177.3 644.0,175.3 644.3,173.1 644.5,172.8 644.8,171.7 645.1,172.3 645.3,169.3 645.6,169.1 645.9,163.4 646.1,163.5 646.4,164.1 646.6,164.7 646.9,165.6 647.2,165.7 647.4,160.7 647.7,160.1 648.0,161.2 648.2,163.9 648.5,165.9 648.8,164.9 649.0,163.7 649.3,162.7 649.5,160.4 649.8,164.4 650.1,165.0 650.3,164.2 650.6,162.1 650.9,162.3 651.1,161.3 651.4,162.3 651.6,162.0 651.9,157.1 652.2,156.9 652.4,155.8 652.7,158.8 653.0,162.0 653.2,160.1 653.5,157.2 653.7,157.7 654.0,157.9 654.3,158.8 654.5,159.1 654.8,155.4 655.1,152.5 655.3,149.7 655.6,149.6 655.9,149.8 656.1,149.3 656.4,146.0 656.6,142.4 656.9,143.1 657.2,143.3 657.4,142.9 657.7,142.5 658.0,149.0 658.2,147.9 658.5,148.0 658.7,140.9 659.0,141.7 659.3,142.7 659.5,143.2 659.8,142.1 660.1,141.9 660.3,139.4 660.6,133.7 660.9,141.2 661.1,142.7 661.4,142.4 661.6,141.2 661.9,141.8 662.2,137.8 662.4,139.5 662.7,142.6 663.0,144.5 663.2,147.4 663.5,144.3 663.7,145.6 664.0,146.3 664.3,144.8 664.5,145.5 664.8,144.1 665.1,144.2 665.3,141.8 665.6,140.0 665.9,145.9 666.1,142.5 666.4,144.2 666.6,141.5 666.9,143.5 667.2,140.2 667.4,146.7 667.7,146.9 668.0,149.6 668.2,149.2 668.5,145.0 668.7,146.3 669.0,149.1 669.3,147.5 669.5,149.2 669.8,153.2 670.1,154.3 670.3,153.6 670.6,155.2 670.8,159.0 671.1,156.6 671.4,154.9 671.6,154.9 671.9,154.5 672.2,155.2 672.4,158.0 672.7,156.9 673.0,153.7 673.2,153.4 673.5,152.0 673.7,151.0 674.0,151.2 674.3,154.2 674.5,152.0 674.8,152.0 675.1,150.9 675.3,152.1 675.6,154.3 675.8,152.6 676.1,151.2 676.4,151.2 676.6,150.6 676.9,152.0 677.2,153.2 677.4,150.2 677.7,147.5 678.0,150.9 678.2,150.6 678.5,150.4 678.7,152.7 679.0,152.6 679.3,152.7 679.5,154.0 679.8,154.0 680.1,153.0 680.3,153.9 680.6,151.9 680.8,146.9 681.1,145.9 681.4,142.0 681.6,142.7 681.9,147.2 682.2,147.1 682.4,148.5 682.7,148.9 683.0,149.6 683.2,151.0 683.5,149.8 683.7,149.7 684.0,147.5 684.3,147.4 684.5,146.3 684.8,145.1 685.1,149.6 685.3,149.7 685.6,151.4 685.8,150.9 686.1,152.0 686.4,151.2 686.6,149.8 686.9,151.9 687.2,151.8 687.4,155.1 687.7,153.6 687.9,154.5 688.2,156.8 688.5,162.2 688.7,162.4 689.0,160.3 689.3,160.3 689.5,158.7 689.8,153.3 690.1,156.4 690.3,156.8 690.6,157.0 690.8,156.8 691.1,156.6 691.4,155.7 691.6,157.8 691.9,157.8 692.2,156.6 692.4,157.6 692.7,159.1 692.9,161.8 693.2,164.0 693.5,161.2 693.7,163.6 694.0,160.9 694.3,157.2 694.5,156.9 694.8,155.4 695.1,158.2 695.3,158.6 695.6,156.3 695.8,156.9 696.1,158.6 696.4,164.0 696.6,165.0 696.9,164.8 697.2,167.4 697.4,171.7 697.7,170.1 697.9,169.8 698.2,165.1 698.5,163.6 698.7,166.0 699.0,165.1 699.3,162.8 699.5,160.5 699.8,163.6 700.1,160.9 700.3,161.4 700.6,161.0 700.8,161.5 701.1,163.3 701.4,163.4 701.6,162.7 701.9,161.2 702.2,163.2 702.4,162.2 702.7,162.6 702.9,164.0 703.2,162.9 703.5,161.4 703.7,160.4 704.0,157.6 704.3,156.7 704.5,155.0 704.8,156.7 705.0,158.6 705.3,161.1 705.6,163.6 705.8,162.9 706.1,162.1 706.4,161.4 706.6,161.8 706.9,162.2 707.2,162.1 707.4,163.5 707.7,163.8 707.9,163.5 708.2,163.8 708.5,166.8 708.7,163.2 709.0,163.3 709.3,164.2 709.5,158.6 709.8,159.3 710.0,154.4 710.3,152.0 710.6,150.1 710.8,154.4 711.1,155.0 711.4,153.3 711.6,151.8 711.9,153.6 712.2,156.8 712.4,157.6 712.7,161.2 712.9,156.3 713.2,153.0 713.5,149.7 713.7,150.0 714.0,149.5 714.3,143.0 714.5,138.9 714.8,140.2 715.0,140.7 715.3,134.6 715.6,138.2 715.8,138.9 716.1,136.3 716.4,136.1 716.6,137.8 716.9,139.6 717.2,141.3 717.4,138.1 717.7,135.1 717.9,128.4 718.2,138.4 718.5,136.4 718.7,136.1 719.0,135.7 719.3,135.7 719.5,135.8 719.8,141.5 720.0,137.4 720.3,135.8 720.6,136.9 720.8,139.9 721.1,139.4 721.4,139.9 721.6,139.7 721.9,141.9 722.1,143.2 722.4,143.0 722.7,143.3 722.9,143.2 723.2,143.8 723.5,143.8 723.7,141.4 724.0,139.4 724.3,141.0 724.5,137.4 724.8,131.8 725.0,131.7 725.3,132.7 725.6,137.2 725.8,135.1 726.1,135.7 726.4,131.7 726.6,127.8 726.9,125.0 727.1,123.5 727.4,118.9 727.7,119.0 727.9,118.1 728.2,119.1 728.5,119.2 728.7,118.2 729.0,114.6 729.3,107.9 729.5,111.8 729.8,111.5 730.0,113.9 730.3,110.3 730.6,115.1 730.8,118.5 731.1,119.0 731.4,126.6 731.6,133.3 731.9,130.9 732.1,131.1 732.4,129.9 732.7,132.1 732.9,128.5 733.2,127.5 733.5,130.1 733.7,131.2 734.0,132.7 734.2,133.8 734.5,133.6 734.8,131.6 735.0,131.6 735.3,134.9 735.6,131.7 735.8,130.4 736.1,129.9 736.4,132.8 736.6,132.1 736.9,121.7 737.1,119.1 737.4,119.7 737.7,114.7 737.9,114.6 738.2,114.6 738.5,116.4 738.7,112.4 739.0,111.5 739.2,114.6 739.5,119.4 739.8,124.7 740.0,122.0 740.3,121.1 740.6,121.5 740.8,120.4 741.1,122.7 741.4,125.8 741.6,116.2 741.9,115.2 742.1,117.7 742.4,115.4 742.7,116.6 742.9,116.1 743.2,117.6 743.5,121.6 743.7,121.2 744.0,118.0 744.2,119.7 744.5,119.0 744.8,122.0 745.0,125.0 745.3,122.1 745.6,121.4 745.8,122.2 746.1,124.3 746.4,129.7 746.6,130.9 746.9,131.8 747.1,127.6 747.4,129.9 747.7,131.8 747.9,131.2 748.2,129.6 748.5,132.8 748.7,132.9 749.0,129.0 749.2,128.7 749.5,127.3 749.8,130.3 750.0,129.6 750.3,126.3 750.6,129.3 750.8,129.1 751.1,130.3 751.3,126.6 751.6,130.3 751.9,129.9 752.1,132.7 752.4,132.8 752.7,131.7 752.9,129.6 753.2,119.1 753.5,123.1 753.7,126.2 754.0,125.2 754.2,125.6 754.5,125.1 754.8,126.2 755.0,125.3 755.3,128.1 755.6,123.0 755.8,123.7 756.1,119.4 756.3,124.6 756.6,122.5 756.9,124.0 757.1,121.6 757.4,122.2 757.7,123.2 757.9,122.2 758.2,118.7 758.5,115.7 758.7,116.6 759.0,116.6 759.2,116.0 759.5,120.4 759.8,116.6 760.0,102.7 760.3,107.4 760.6,107.8 760.8,113.9 761.1,113.8 761.3,113.3 761.6,104.0 761.9,107.0 762.1,109.4 762.4,105.9 762.7,108.8 762.9,103.4 763.2,101.2 763.5,101.2 763.7,98.8 764.0,105.2 764.2,107.3 764.5,105.0 764.8,108.4 765.0,108.5 765.3,104.3 765.6,106.4 765.8,109.6 766.1,115.1 766.3,113.3 766.6,112.8 766.9,111.5 767.1,111.6 767.4,114.1 767.7,114.4 767.9,117.1 768.2,117.6 768.4,117.6 768.7,117.5 769.0,119.5 769.2,120.5 769.5,122.1 769.8,123.2 770.0,120.5 770.3,122.0 770.6,122.1 770.8,123.5 771.1,122.1 771.3,121.7 771.6,124.0 771.9,126.2 772.1,124.1 772.4,126.8 772.7,121.5 772.9,126.3 773.2,126.1 773.4,123.2 773.7,120.9 774.0,120.0 774.2,121.4 774.5,120.4 774.8,120.7 775.0,122.3 775.3,121.4 775.6,115.1 775.8,115.1 776.1,110.5 776.3,113.8 776.6,114.1 776.9,114.1 777.1,118.1 777.4,119.9 777.7,117.2 777.9,115.7 778.2,114.1 778.4,111.1 778.7,107.0 779.0,112.9 779.2,111.1 779.5,108.0 779.8,115.4 780.0,117.5 780.3,115.7 780.6,115.2 780.8,115.2 781.1,115.2 781.3,119.6 781.6,116.7 781.9,116.5 782.1,115.6 782.4,119.4 782.7,117.9 782.9,119.4 783.2,123.0 783.4,125.2 783.7,125.8 784.0,125.2 784.2,131.7 784.5,126.2 784.8,128.4 785.0,123.1 785.3,124.4 785.5,124.7 785.8,122.3 786.1,121.2 786.3,122.5 786.6,118.6 786.9,116.0 787.1,115.8 787.4,114.2 787.7,115.4 787.9,113.2 788.2,115.0 788.4,114.2 788.7,111.2 789.0,112.1 789.2,110.2 789.5,112.1 789.8,113.7 790.0,116.7 790.3,116.3 790.5,121.9 790.8,118.7 791.1,112.5 791.3,110.5 791.6,109.4 791.9,109.9 792.1,109.8 792.4,105.9 792.7,105.2 792.9,105.0 793.2,105.3 793.4,109.0 793.7,113.9 794.0,113.3 794.2,106.2 794.5,92.7 794.8,94.3 795.0,96.1 795.3,89.8 795.5,87.1 795.8,82.9 796.1,84.4 796.3,85.0 796.6,89.3 796.9,93.0 797.1,99.2 797.4,101.4 797.7,99.2 797.9,96.5 798.2,93.3 798.4,97.4 798.7,96.4 799.0,97.3 799.2,96.9 799.5,95.2 799.8,93.8 800.0,95.6 800.3,94.1 800.5,92.4 800.8,97.9 801.1,95.1 801.3,96.5 801.6,101.7 801.9,105.7 802.1,105.8 802.4,108.3 802.6,108.5 802.9,110.6 803.2,108.0 803.4,110.2 803.7,109.4 804.0,109.7 804.2,107.5 804.5,110.3 804.8,110.5 805.0,112.9 805.3,112.9 805.5,116.3 805.8,116.3 806.1,116.3 806.3,116.3 806.6,116.3 806.9,116.3 807.1,116.3 807.4,116.3 807.6,116.3 807.9,116.3 808.2,116.3 808.4,99.1 808.7,88.5 809.0,86.6 809.2,84.1 809.5,85.6 809.8,87.6 810.0,84.7 810.3,84.3 810.5,81.8 810.8,79.6 811.1,79.9 811.3,79.6 811.6,81.2 811.9,77.6 812.1,75.4 812.4,73.6 812.6,74.2 812.9,84.3 813.2,82.3 813.4,79.2 813.7,77.9 814.0,80.9 814.2,79.8 814.5,78.6 814.7,76.4 815.0,73.3 815.3,72.1 815.5,70.5 815.8,71.8 816.1,73.4 816.3,78.7 816.6,77.0 816.9,79.5 817.1,85.4 817.4,79.4 817.6,68.7 817.9,67.2 818.2,61.4 818.4,61.9 818.7,66.5 819.0,70.2 819.2,70.3 819.5,68.4 819.7,68.5 820.0,70.9 820.3,73.6 820.5,74.1 820.8,75.9 821.1,74.7 821.3,69.2 821.6,68.0 821.9,64.1 822.1,59.2 822.4,59.2 822.6,60.9 822.9,68.9 823.2,71.8 823.4,75.2 823.7,76.7 824.0,77.9 824.2,95.4 824.5,79.5 824.7,85.7 825.0,87.2 825.3,88.9 825.5,83.9 825.8,85.8 826.1,89.9 826.3,93.3 826.6,87.6 826.9,86.9 827.1,85.7 827.4,84.4 827.6,81.6 827.9,79.8 828.2,75.8 828.4,68.9 828.7,72.3 829.0,71.0 829.2,70.3 829.5,68.4 829.7,66.3 830.0,72.1 830.3,69.0 830.5,67.0 830.8,64.5 831.1,62.6 831.3,72.5 831.6,69.0 831.8,73.0 832.1,71.4 832.4,75.1 832.6,70.5 832.9,75.1 833.2,80.0 833.4,73.6 833.7,77.3 834.0,80.4 834.2,68.5 834.5,71.6 834.7,71.5 835.0,74.3 835.3,67.9 835.5,67.6 835.8,72.8 836.1,72.9 836.3,68.8 836.6,61.2 836.8,62.2 837.1,61.9 837.4,58.3 837.6,55.6 837.9,59.6 838.2,56.9 838.4,62.9 838.7,61.6 839.0,62.3 839.2,58.3 839.5,67.9 839.7,58.6 840.0,62.9 840.3,68.5 840.5,63.8 840.8,69.8 841.1,69.6 841.3,68.9 841.6,70.2 841.8,66.7 842.1,67.5 842.4,70.1 842.6,69.6 842.9,69.9 843.2,54.5 843.4,54.1 843.7,55.5 844.0,57.8 844.2,57.3 844.5,56.0 844.7,49.7 845.0,47.0 845.3,46.1 845.5,47.5 845.8,54.7 846.1,46.3 846.3,45.0 846.6,46.5 846.8,47.9 847.1,46.3 847.4,46.7 847.6,46.7 847.9,49.1 848.2,49.4 848.4,49.7 848.7,51.0 848.9,53.1 849.2,55.5 849.5,50.1 849.7,47.0 850.0,46.2 850.3,47.7 850.5,49.5 850.8,48.1 851.1,45.0 851.3,47.9 851.6,49.4 851.8,53.9 852.1,56.1 852.4,53.5 852.6,55.0 852.9,58.3 853.2,59.3 853.4,53.5 853.7,56.2 853.9,57.4 854.2,57.7 854.5,48.3 854.7,49.3 855.0,50.5"/>
</svg>
