<svg xmlns="http://www.w3.org/2000/svg" width="900" height="360">
<rect width="100%" height="100%" fill="white"/>
<text x="30" y="20" font-size="16">长江电力 价格</text>
<polyline fill="none" stroke="#1f77b4" stroke-width="2" points="30.0,308.6 30.3,308.5 30.5,309.0 30.8,310.1 31.1,309.8 31.4,309.6 31.6,308.5 31.9,309.5 32.2,309.3 32.5,309.6 32.7,309.7 33.0,309.8 33.3,309.8 33.5,310.7 33.8,312.2 34.1,310.7 34.4,310.5 34.6,310.4 34.9,310.3 35.2,311.1 35.5,311.6 35.7,311.8 36.0,310.7 36.3,310.5 36.5,311.0 36.8,311.5 37.1,311.3 37.4,311.4 37.6,311.5 37.9,311.4 38.2,311.1 38.5,310.8 38.7,309.9 39.0,309.8 39.3,309.8 39.5,308.9 39.8,309.6 40.1,309.4 40.4,309.4 40.6,311.0 40.9,311.3 41.2,311.0 41.5,311.3 41.7,311.1 42.0,311.4 42.3,311.5 42.5,311.5 42.8,310.6 43.1,311.0 43.4,311.0 43.6,311.2 43.9,311.9 44.2,312.2 44.5,312.7 44.7,312.5 45.0,311.5 45.3,312.3 45.6,312.7 45.8,312.3 46.1,312.3 46.4,312.6 46.6,312.1 46.9,312.5 47.2,310.9 47.5,308.8 47.7,308.6 48.0,308.7 48.3,308.8 48.6,310.1 48.8,310.9 49.1,309.5 49.4,305.9 49.6,305.6 49.9,307.4 50.2,304.8 50.5,304.9 50.7,307.1 51.0,308.2 51.3,305.8 51.6,306.8 51.8,308.2 52.1,310.3 52.4,312.8 52.6,310.9 52.9,312.6 53.2,312.2 53.5,311.1 53.7,310.6 54.0,312.6 54.3,312.6 54.6,311.9 54.8,313.0 55.1,312.8 55.4,311.6 55.6,313.6 55.9,313.7 56.2,313.0 56.5,313.6 56.7,314.3 57.0,314.7 57.3,314.8 57.6,315.1 57.8,313.9 58.1,314.8 58.4,315.3 58.6,314.8 58.9,315.1 59.2,314.8 59.5,314.7 59.7,315.6 60.0,314.0 60.3,314.0 60.6,314.7 60.8,314.4 61.1,313.4 61.4,313.4 61.6,314.3 61.9,312.9 62.2,313.8 62.5,313.3 62.7,313.6 63.0,313.7 63.3,314.9 63.6,315.8 63.8,315.0 64.1,314.8 64.4,315.0 64.6,313.8 64.9,313.9 65.2,313.5 65.5,312.6 65.7,312.4 66.0,312.1 66.3,312.3 66.6,312.6 66.8,312.5 67.1,312.3 67.4,311.4 67.6,311.3 67.9,311.6 68.2,311.1 68.5,312.4 68.7,312.0 69.0,312.6 69.3,311.5 69.6,311.7 69.8,311.5 70.1,311.2 70.4,312.2 70.6,312.1 70.9,311.0 71.2,311.5 71.5,312.4 71.7,312.0 72.0,312.8 72.3,312.9 72.6,312.7 72.8,314.1 73.1,314.0 73.4,314.1 73.7,313.4 73.9,314.4 74.2,315.8 74.5,314.9 74.7,315.5 75.0,314.7 75.3,315.2 75.6,315.7 75.8,316.0 76.1,316.5 76.4,316.5 76.7,315.1 76.9,315.7 77.2,316.5 77.5,316.5 77.7,317.0 78.0,317.0 78.3,316.6 78.6,317.4 78.8,317.6 79.1,316.9 79.4,315.7 79.7,311.6 79.9,311.3 80.2,312.0 80.5,310.8 80.7,308.9 81.0,308.1 81.3,308.6 81.6,311.0 81.8,312.2 82.1,312.3 82.4,311.0 82.7,311.0 82.9,312.4 83.2,312.0 83.5,312.4 83.7,310.6 84.0,309.6 84.3,311.0 84.6,310.8 84.8,310.7 85.1,309.6 85.4,310.5 85.7,310.9 85.9,310.0 86.2,313.3 86.5,313.2 86.7,316.5 87.0,316.4 87.3,316.6 87.6,316.2 87.8,316.8 88.1,318.3 88.4,317.4 88.7,316.1 88.9,316.9 89.2,316.6 89.5,317.7 89.7,316.2 90.0,316.4 90.3,315.4 90.6,315.7 90.8,315.9 91.1,316.7 91.4,316.9 91.7,316.1 91.9,314.3 92.2,314.8 92.5,315.6 92.7,315.8 93.0,316.1 93.3,317.2 93.6,316.2 93.8,317.1 94.1,317.2 94.4,317.2 94.7,318.2 94.9,318.4 95.2,317.9 95.5,318.3 95.7,317.7 96.0,317.4 96.3,317.4 96.6,317.4 96.8,317.1 97.1,317.4 97.4,316.3 97.7,316.5 97.9,317.1 98.2,317.1 98.5,318.9 98.7,319.0 99.0,317.9 99.3,319.1 99.6,318.4 99.8,318.4 100.1,317.4 100.4,316.9 100.7,316.0 100.9,315.2 101.2,315.1 101.5,315.7 101.8,315.8 102.0,315.5 102.3,315.8 102.6,314.4 102.8,313.9 103.1,314.1 103.4,314.3 103.7,315.6 103.9,314.9 104.2,316.3 104.5,316.3 104.8,316.1 105.0,315.8 105.3,315.7 105.6,315.2 105.8,315.8 106.1,315.7 106.4,315.3 106.7,314.1 106.9,314.2 107.2,314.6 107.5,315.7 107.8,316.0 108.0,315.8 108.3,316.8 108.6,316.3 108.8,313.6 109.1,314.1 109.4,314.7 109.7,313.9 109.9,312.8 110.2,312.8 110.5,312.8 110.8,313.1 111.0,314.1 111.3,314.1 111.6,314.0 111.8,314.0 112.1,312.8 112.4,312.4 112.7,312.6 112.9,312.4 113.2,310.5 113.5,310.7 113.8,311.0 114.0,311.2 114.3,310.3 114.6,312.2 114.8,312.5 115.1,312.3 115.4,312.0 115.7,313.2 115.9,313.4 116.2,312.6 116.5,313.8 116.8,311.5 117.0,311.1 117.3,312.4 117.6,312.6 117.8,311.1 118.1,310.6 118.4,310.5 118.7,311.4 118.9,311.5 119.2,311.8 119.5,312.7 119.8,313.2 120.0,312.9 120.3,314.4 120.6,314.4 120.8,319.0 121.1,318.9 121.4,319.1 121.7,319.5 121.9,319.9 122.2,320.2 122.5,319.3 122.8,319.3 123.0,319.3 123.3,319.1 123.6,318.9 123.8,319.1 124.1,319.9 124.4,319.2 124.7,318.9 124.9,318.8 125.2,319.1 125.5,319.7 125.8,319.6 126.0,319.6 126.3,319.2 126.6,319.1 126.8,318.8 127.1,317.9 127.4,318.3 127.7,318.6 127.9,318.9 128.2,318.7 128.5,319.0 128.8,317.8 129.0,317.7 129.3,318.1 129.6,318.5 129.9,318.6 130.1,318.4 130.4,319.3 130.7,318.8 130.9,319.0 131.2,318.8 131.5,318.9 131.8,319.5 132.0,319.2 132.3,320.0 132.6,320.0 132.9,322.8 133.1,323.3 133.4,323.4 133.7,323.9 133.9,323.3 134.2,323.4 134.5,324.0 134.8,324.4 135.0,323.8 135.3,325.2 135.6,326.4 135.9,327.0 136.1,326.6 136.4,326.3 136.7,325.9 136.9,325.2 137.2,325.1 137.5,325.0 137.8,325.3 138.0,326.9 138.3,327.7 138.6,326.7 138.9,327.2 139.1,325.7 139.4,326.1 139.7,327.4 139.9,327.2 140.2,327.4 140.5,327.6 140.8,328.7 141.0,329.7 141.3,330.0 141.6,329.3 141.9,328.2 142.1,327.8 142.4,326.7 142.7,326.9 142.9,326.9 143.2,327.5 143.5,328.2 143.8,327.2 144.0,326.2 144.3,327.6 144.6,328.0 144.9,328.1 145.1,327.2 145.4,328.1 145.7,327.8 145.9,327.9 146.2,328.0 146.5,327.6 146.8,326.4 147.0,326.1 147.3,326.1 147.6,325.8 147.9,327.2 148.1,326.8 148.4,328.0 148.7,327.9 148.9,327.1 149.2,326.3 149.5,325.8 149.8,325.5 150.0,325.4 150.3,325.0 150.6,325.3 150.9,323.9 151.1,324.6 151.4,324.2 151.7,324.8 151.9,323.4 152.2,323.3 152.5,324.2 152.8,324.2 153.0,323.0 153.3,322.6 153.6,324.1 153.9,323.4 154.1,324.6 154.4,324.4 154.7,323.9 154.9,324.3 155.2,325.0 155.5,325.2 155.8,325.4 156.0,324.4 156.3,325.5 156.6,324.9 156.9,326.2 157.1,327.3 157.4,327.0 157.7,327.2 158.0,327.2 158.2,326.6 158.5,327.4 158.8,326.7 159.0,325.9 159.3,326.2 159.6,326.7 159.9,326.4 160.1,326.9 160.4,326.7 160.7,326.6 161.0,326.5 161.2,327.1 161.5,327.2 161.8,327.2 162.0,327.0 162.3,327.0 162.6,327.7 162.9,328.1 163.1,328.3 163.4,327.7 163.7,326.6 164.0,326.8 164.2,326.5 164.5,327.1 164.8,327.0 165.0,325.3 165.3,325.8 165.6,325.0 165.9,324.9 166.1,326.1 166.4,325.7 166.7,326.2 167.0,325.8 167.2,325.4 167.5,325.9 167.8,327.3 168.0,325.9 168.3,326.5 168.6,326.6 168.9,326.7 169.1,326.6 169.4,326.2 169.7,325.8 170.0,326.1 170.2,326.2 170.5,326.2 170.8,325.9 171.0,325.6 171.3,325.3 171.6,325.0 171.9,324.8 172.1,325.3 172.4,325.0 172.7,324.0 173.0,324.1 173.2,324.0 173.5,323.8 173.8,323.6 174.0,322.9 174.3,323.3 174.6,322.7 174.9,323.8 175.1,324.3 175.4,323.4 175.7,324.0 176.0,323.7 176.2,323.7 176.5,324.0 176.8,324.4 177.0,324.6 177.3,324.4 177.6,325.6 177.9,325.8 178.1,325.4 178.4,325.5 178.7,326.0 179.0,326.8 179.2,326.2 179.5,326.5 179.8,325.7 180.0,325.9 180.3,326.0 180.6,325.8 180.9,325.4 181.1,325.4 181.4,325.5 181.7,325.6 182.0,325.4 182.2,325.3 182.5,325.8 182.8,325.8 183.0,323.9 183.3,324.2 183.6,324.2 183.9,323.6 184.1,323.8 184.4,324.0 184.7,323.8 185.0,323.8 185.2,324.1 185.5,323.5 185.8,323.7 186.1,323.3 186.3,323.2 186.6,323.4 186.9,322.8 187.1,323.2 187.4,323.5 187.7,323.5 188.0,323.1 188.2,322.6 188.5,322.6 188.8,321.7 189.1,321.9 189.3,322.9 189.6,321.9 189.9,322.9 190.1,322.8 190.4,322.8 190.7,322.1 191.0,322.1 191.2,321.5 191.5,321.5 191.8,320.5 192.1,321.1 192.3,322.0 192.6,322.4 192.9,322.7 193.1,323.1 193.4,323.2 193.7,323.2 194.0,322.7 194.2,322.7 194.5,322.1 194.8,322.0 195.1,321.3 195.3,321.4 195.6,320.7 195.9,320.7 196.1,321.3 196.4,320.7 196.7,321.1 197.0,321.1 197.2,321.5 197.5,321.5 197.8,321.9 198.1,321.7 198.3,322.8 198.6,323.2 198.9,322.6 199.1,323.5 199.4,323.4 199.7,322.7 200.0,322.8 200.2,322.4 200.5,322.4 200.8,322.3 201.1,322.3 201.3,322.5 201.6,322.6 201.9,322.6 202.1,322.7 202.4,322.4 202.7,322.2 203.0,322.3 203.2,322.9 203.5,323.1 203.8,323.3 204.1,323.3 204.3,323.1 204.6,323.0 204.9,323.2 205.1,323.1 205.4,323.1 205.7,322.9 206.0,322.8 206.2,322.8 206.5,323.5 206.8,324.5 207.1,324.5 207.3,324.7 207.6,324.9 207.9,323.7 208.1,323.6 208.4,324.4 208.7,325.2 209.0,324.7 209.2,324.4 209.5,324.5 209.8,324.9 210.1,324.8 210.3,325.8 210.6,325.5 210.9,326.6 211.1,326.3 211.4,325.6 211.7,324.4 212.0,323.6 212.2,324.2 212.5,323.5 212.8,323.8 213.1,323.3 213.3,323.0 213.6,323.0 213.9,323.6 214.2,324.1 214.4,323.6 214.7,323.9 215.0,323.5 215.2,323.6 215.5,323.5 215.8,323.6 216.1,323.9 216.3,324.2 216.6,324.4 216.9,324.0 217.2,323.6 217.4,322.9 217.7,322.8 218.0,323.2 218.2,323.4 218.5,323.9 218.8,324.1 219.1,323.7 219.3,324.4 219.6,324.5 219.9,325.0 220.2,325.4 220.4,324.7 220.7,325.1 221.0,324.6 221.2,324.4 221.5,323.9 221.8,323.8 222.1,324.1 222.3,324.5 222.6,325.1 222.9,324.6 223.2,324.6 223.4,324.4 223.7,323.4 224.0,323.8 224.2,323.2 224.5,322.7 224.8,322.1 225.1,322.4 225.3,322.5 225.6,320.5 225.9,320.5 226.2,320.7 226.4,320.7 226.7,320.6 227.0,321.1 227.2,321.3 227.5,319.3 227.8,319.8 228.1,319.8 228.3,319.6 228.6,319.4 228.9,319.0 229.2,319.4 229.4,319.7 229.7,320.2 230.0,319.3 230.2,319.6 230.5,318.1 230.8,318.2 231.1,318.2 231.3,315.9 231.6,314.1 231.9,313.8 232.2,314.5 232.4,314.7 232.7,315.1 233.0,314.8 233.2,314.2 233.5,314.7 233.8,315.3 234.1,312.5 234.3,311.0 234.6,312.3 234.9,310.5 235.2,312.1 235.4,312.0 235.7,311.5 236.0,311.7 236.2,313.2 236.5,312.3 236.8,314.6 237.1,315.1 237.3,315.3 237.6,316.5 237.9,317.1 238.2,315.4 238.4,316.1 238.7,316.6 239.0,316.4 239.2,315.1 239.5,315.3 239.8,315.5 240.1,315.9 240.3,316.5 240.6,316.8 240.9,317.0 241.2,315.2 241.4,316.2 241.7,313.5 242.0,312.7 242.3,313.4 242.5,312.9 242.8,313.9 243.1,314.3 243.3,314.1 243.6,314.2 243.9,313.7 244.2,314.4 244.4,314.0 244.7,314.7 245.0,315.3 245.3,315.4 245.5,316.3 245.8,316.5 246.1,317.4 246.3,317.3 246.6,317.3 246.9,317.3 247.2,317.1 247.4,316.4 247.7,316.8 248.0,318.2 248.3,317.7 248.5,316.7 248.8,316.8 249.1,316.8 249.3,315.9 249.6,316.3 249.9,313.6 250.2,314.0 250.4,314.0 250.7,313.8 251.0,313.9 251.3,314.2 251.5,313.9 251.8,313.3 252.1,312.3 252.3,310.2 252.6,309.8 252.9,311.3 253.2,312.3 253.4,312.9 253.7,313.0 254.0,312.4 254.3,311.6 254.5,312.1 254.8,312.4 255.1,311.6 255.3,312.1 255.6,312.3 255.9,313.5 256.2,314.3 256.4,316.4 256.7,316.6 257.0,316.9 257.3,316.7 257.5,317.6 257.8,318.2 258.1,319.7 258.3,321.0 258.6,320.8 258.9,320.9 259.2,319.8 259.4,318.9 259.7,318.9 260.0,317.2 260.3,314.9 260.5,314.4 260.8,315.2 261.1,316.9 261.3,314.9 261.6,315.0 261.9,313.8 262.2,314.5 262.4,315.0 262.7,314.2 263.0,313.7 263.3,313.7 263.5,315.1 263.8,313.7 264.1,313.6 264.3,314.6 264.6,314.9 264.9,314.8 265.2,316.4 265.4,315.4 265.7,315.6 266.0,314.2 266.3,314.8 266.5,314.4 266.8,314.6 267.1,315.1 267.3,315.6 267.6,316.5 267.9,314.9 268.2,315.0 268.4,315.8 268.7,316.0 269.0,316.6 269.3,317.2 269.5,318.4 269.8,318.2 270.1,318.7 270.4,318.6 270.6,317.7 270.9,318.4 271.2,318.5 271.4,318.5 271.7,317.7 272.0,317.6 272.3,317.2 272.5,317.3 272.8,317.1 273.1,317.5 273.4,316.5 273.6,316.2 273.9,315.5 274.2,315.3 274.4,315.9 274.7,316.1 275.0,316.2 275.3,315.8 275.5,314.9 275.8,316.6 276.1,316.7 276.4,317.8 276.6,318.5 276.9,318.3 277.2,317.4 277.4,318.2 277.7,318.6 278.0,318.0 278.3,317.6 278.5,317.5 278.8,317.6 279.1,318.3 279.4,319.0 279.6,319.2 279.9,320.0 280.2,321.3 280.4,321.8 280.7,321.8 281.0,321.1 281.3,320.7 281.5,319.2 281.8,320.3 282.1,319.3 282.4,320.0 282.6,320.4 282.9,321.4 283.2,321.3 283.4,321.7 283.7,321.8 284.0,321.7 284.3,322.5 284.5,321.9 284.8,321.0 285.1,319.2 285.4,319.1 285.6,319.1 285.9,319.7 286.2,319.6 286.4,320.2 286.7,320.0 287.0,319.8 287.3,319.1 287.5,319.1 287.8,318.2 288.1,318.3 288.4,318.4 288.6,318.7 288.9,318.9 289.2,318.8 289.4,318.6 289.7,318.6 290.0,319.9 290.3,321.1 290.5,321.8 290.8,321.8 291.1,322.0 291.4,322.1 291.6,322.5 291.9,323.0 292.2,322.7 292.4,322.1 292.7,322.3 293.0,321.3 293.3,322.5 293.5,321.8 293.8,322.2 294.1,323.3 294.4,324.7 294.6,325.1 294.9,325.3 295.2,326.3 295.4,325.6 295.7,325.6 296.0,325.2 296.3,325.5 296.5,325.3 296.8,325.6 297.1,325.6 297.4,324.7 297.6,324.3 297.9,324.1 298.2,324.0 298.5,325.0 298.7,325.3 299.0,325.0 299.3,324.9 299.5,325.2 299.8,324.5 300.1,324.3 300.4,324.8 300.6,325.3 300.9,325.1 301.2,325.0 301.5,325.8 301.7,325.5 302.0,324.6 302.3,325.4 302.5,326.1 302.8,326.6 303.1,326.7 303.4,325.9 303.6,325.5 303.9,325.7 304.2,326.7 304.5,327.1 304.7,327.8 305.0,328.1 305.3,329.8 305.5,329.6 305.8,329.0 306.1,328.8 306.4,329.5 306.6,329.0 306.9,328.7 307.2,327.9 307.5,328.7 307.7,327.5 308.0,327.2 308.3,327.1 308.5,327.3 308.8,328.1 309.1,327.4 309.4,327.7 309.6,327.7 309.9,326.4 310.2,327.1 310.5,326.6 310.7,325.9 311.0,326.2 311.3,325.4 311.5,324.5 311.8,325.1 312.1,325.6 312.4,325.4 312.6,325.9 312.9,326.1 313.2,326.4 313.5,326.4 313.7,326.5 314.0,327.1 314.3,327.0 314.5,327.4 314.8,328.2 315.1,328.5 315.4,328.3 315.6,328.3 315.9,328.6 316.2,328.0 316.5,327.8 316.7,326.8 317.0,326.4 317.3,326.5 317.5,326.6 317.8,326.1 318.1,326.3 318.4,325.6 318.6,325.5 318.9,324.8 319.2,323.9 319.5,324.8 319.7,324.8 320.0,324.1 320.3,324.1 320.5,324.9 320.8,323.7 321.1,324.5 321.4,323.8 321.6,324.1 321.9,322.3 322.2,322.4 322.5,322.2 322.7,322.9 323.0,322.5 323.3,322.4 323.5,322.9 323.8,322.5 324.1,323.1 324.4,323.6 324.6,324.1 324.9,324.0 325.2,324.0 325.5,324.1 325.7,324.2 326.0,322.9 326.3,323.4 326.6,322.7 326.8,322.0 327.1,321.8 327.4,322.1 327.6,321.7 327.9,322.2 328.2,322.2 328.5,321.0 328.7,319.0 329.0,318.1 329.3,317.9 329.6,317.9 329.8,318.4 330.1,318.2 330.4,317.5 330.6,317.0 330.9,314.9 331.2,314.6 331.5,314.1 331.7,313.2 332.0,313.5 332.3,313.1 332.6,312.6 332.8,311.5 333.1,311.6 333.4,313.0 333.6,314.0 333.9,314.1 334.2,312.7 334.5,312.6 334.7,313.3 335.0,313.6 335.3,312.4 335.6,310.5 335.8,311.3 336.1,311.3 336.4,310.7 336.6,309.9 336.9,309.9 337.2,306.6 337.5,308.0 337.7,309.2 338.0,306.0 338.3,306.0 338.6,305.9 338.8,304.1 339.1,303.5 339.4,303.7 339.6,304.6 339.9,304.4 340.2,304.8 340.5,304.6 340.7,305.7 341.0,305.4 341.3,304.6 341.6,304.4 341.8,303.8 342.1,303.6 342.4,303.6 342.6,302.7 342.9,302.8 343.2,302.2 343.5,301.6 343.7,301.0 344.0,301.0 344.3,301.8 344.6,304.5 344.8,305.6 345.1,307.3 345.4,304.3 345.6,306.3 345.9,305.9 346.2,305.0 346.5,301.5 346.7,301.2 347.0,300.6 347.3,301.1 347.6,302.7 347.8,300.8 348.1,299.5 348.4,297.8 348.6,297.0 348.9,297.0 349.2,296.3 349.5,294.5 349.7,296.2 350.0,296.1 350.3,294.4 350.6,294.7 350.8,294.1 351.1,291.0 351.4,290.0 351.6,289.9 351.9,293.8 352.2,293.7 352.5,292.5 352.7,291.8 353.0,291.0 353.3,290.3 353.6,289.5 353.8,289.6 354.1,291.3 354.4,289.9 354.7,288.9 354.9,287.6 355.2,285.6 355.5,286.1 355.7,281.8 356.0,285.8 356.3,278.7 356.6,279.9 356.8,280.2 357.1,279.9 357.4,280.8 357.7,280.7 357.9,278.8 358.2,274.9 358.5,266.0 358.7,274.7 359.0,275.6 359.3,274.4 359.6,273.8 359.8,272.9 360.1,274.9 360.4,270.1 360.7,264.4 360.9,267.9 361.2,264.6 361.5,268.4 361.7,269.9 362.0,270.4 362.3,271.5 362.6,269.1 362.8,267.3 363.1,266.7 363.4,275.5 363.7,275.4 363.9,272.3 364.2,273.3 364.5,272.8 364.7,273.2 365.0,275.2 365.3,276.7 365.6,276.0 365.8,275.6 366.1,278.1 366.4,276.7 366.7,277.5 366.9,280.7 367.2,285.3 367.5,285.4 367.7,283.4 368.0,281.0 368.3,280.5 368.6,278.4 368.8,279.0 369.1,278.1 369.4,278.8 369.7,276.1 369.9,277.3 370.2,275.8 370.5,278.6 370.7,277.9 371.0,280.4 371.3,279.6 371.6,276.7 371.8,277.1 372.1,277.6 372.4,276.1 372.7,274.8 372.9,272.9 373.2,272.5 373.5,272.0 373.7,269.1 374.0,268.3 374.3,264.1 374.6,264.2 374.8,268.3 375.1,268.1 375.4,269.4 375.7,266.5 375.9,267.7 376.2,267.7 376.5,269.8 376.7,268.1 377.0,264.3 377.3,263.2 377.6,264.4 377.8,263.3 378.1,259.6 378.4,256.7 378.7,259.8 378.9,252.6 379.2,249.9 379.5,252.3 379.7,245.7 380.0,241.2 380.3,244.6 380.6,248.6 380.8,243.1 381.1,245.8 381.4,245.2 381.7,241.8 381.9,232.1 382.2,247.0 382.5,249.5 382.8,255.5 383.0,254.2 383.3,250.4 383.6,245.7 383.8,250.3 384.1,249.6 384.4,253.5 384.7,255.2 384.9,249.7 385.2,248.8 385.5,247.0 385.8,242.2 386.0,238.0 386.3,234.4 386.6,236.2 386.8,243.7 387.1,242.0 387.4,234.5 387.7,232.0 387.9,232.1 388.2,227.9 388.5,228.7 388.8,227.4 389.0,221.1 389.3,225.4 389.6,228.0 389.8,224.8 390.1,224.8 390.4,224.8 390.7,224.8 390.9,224.8 391.2,224.8 391.5,224.8 391.8,224.8 392.0,224.8 392.3,224.8 392.6,224.8 392.8,224.8 393.1,224.8 393.4,224.8 393.7,224.8 393.9,224.8 394.2,224.8 394.5,224.8 394.8,224.8 395.0,224.8 395.3,224.8 395.6,224.8 395.8,224.8 396.1,224.8 396.4,224.8 396.7,224.8 396.9,224.8 397.2,224.8 397.5,224.8 397.8,224.8 398.0,224.8 398.3,224.8 398.6,224.8 398.8,224.8 399.1,224.8 399.4,224.8 399.7,224.8 399.9,224.8 400.2,224.8 400.5,224.8 400.8,224.8 401.0,224.8 401.3,224.8 401.6,224.8 401.8,224.8 402.1,224.8 402.4,224.8 402.7,224.8 402.9,224.8 403.2,224.8 403.5,224.8 403.8,224.8 404.0,224.8 404.3,224.8 404.6,224.8 404.8,224.8 405.1,224.8 405.4,224.8 405.7,224.8 405.9,224.8 406.2,224.8 406.5,224.8 406.8,224.8 407.0,224.8 407.3,224.8 407.6,224.8 407.8,224.8 408.1,224.8 408.4,224.8 408.7,224.8 408.9,224.8 409.2,224.8 409.5,224.8 409.8,224.8 410.0,224.8 410.3,224.8 410.6,224.8 410.9,224.8 411.1,224.8 411.4,224.8 411.7,224.8 411.9,224.8 412.2,224.8 412.5,224.8 412.8,224.8 413.0,224.8 413.3,224.8 413.6,224.8 413.9,224.8 414.1,224.8 414.4,224.8 414.7,224.8 414.9,224.8 415.2,224.8 415.5,224.8 415.8,224.8 416.0,224.8 416.3,224.8 416.6,224.8 416.9,224.8 417.1,224.8 417.4,224.8 417.7,224.8 417.9,238.9 418.2,231.5 418.5,235.2 418.8,234.4 419.0,237.6 419.3,237.8 419.6,236.4 419.9,237.3 420.1,238.3 420.4,240.5 420.7,235.1 420.9,238.2 421.2,228.6 421.5,227.8 421.8,229.5 422.0,231.3 422.3,232.6 422.6,231.7 422.9,234.2 423.1,234.0 423.4,231.8 423.7,233.1 423.9,231.2 424.2,230.7 424.5,230.5 424.8,227.1 425.0,227.4 425.3,227.8 425.6,227.6 425.9,230.0 426.1,232.9 426.4,233.5 426.7,234.0 426.9,233.9 427.2,238.6 427.5,238.3 427.8,237.9 428.0,242.3 428.3,240.8 428.6,245.3 428.9,245.7 429.1,246.7 429.4,242.1 429.7,244.6 429.9,244.3 430.2,242.5 430.5,244.9 430.8,246.0 431.0,245.9 431.3,245.7 431.6,250.7 431.9,251.5 432.1,251.7 432.4,250.5 432.7,250.0 432.9,250.2 433.2,249.9 433.5,248.2 433.8,248.9 434.0,251.2 434.3,249.0 434.6,249.6 434.9,249.7 435.1,250.8 435.4,250.6 435.7,250.0 435.9,249.3 436.2,252.8 436.5,254.5 436.8,258.6 437.0,257.7 437.3,254.7 437.6,254.7 437.9,254.7 438.1,254.7 438.4,254.7 438.7,254.7 439.0,254.7 439.2,251.2 439.5,250.5 439.8,249.3 440.0,248.2 440.3,248.4 440.6,248.3 440.9,248.2 441.1,247.9 441.4,248.6 441.7,249.8 442.0,249.7 442.2,250.6 442.5,250.4 442.8,248.3 443.0,248.5 443.3,246.2 443.6,247.1 443.9,248.2 444.1,249.7 444.4,249.6 444.7,249.8 445.0,249.8 445.2,249.2 445.5,249.1 445.8,248.9 446.0,247.7 446.3,246.3 446.6,246.3 446.9,248.2 447.1,247.9 447.4,246.6 447.7,247.0 448.0,246.0 448.2,246.2 448.5,247.9 448.8,247.5 449.0,247.8 449.3,247.7 449.6,248.6 449.9,248.6 450.1,248.6 450.4,249.0 450.7,246.2 451.0,246.6 451.2,246.1 451.5,247.3 451.8,246.9 452.0,248.1 452.3,247.5 452.6,248.3 452.9,247.8 453.1,248.5 453.4,248.5 453.7,248.5 454.0,248.6 454.2,246.5 454.5,246.6 454.8,246.6 455.0,244.9 455.3,245.7 455.6,245.8 455.9,244.2 456.1,245.7 456.4,247.0 456.7,246.6 457.0,248.2 457.2,247.8 457.5,246.5 457.8,246.8 458.0,246.6 458.3,247.6 458.6,247.7 458.9,246.9 459.1,247.1 459.4,246.9 459.7,246.1 460.0,245.4 460.2,244.7 460.5,244.3 460.8,240.3 461.0,241.4 461.3,241.2 461.6,241.1 461.9,240.5 462.1,239.8 462.4,238.3 462.7,237.5 463.0,238.8 463.2,237.4 463.5,238.0 463.8,238.2 464.1,239.3 464.3,238.1 464.6,237.1 464.9,234.7 465.1,231.8 465.4,233.3 465.7,231.5 466.0,232.7 466.2,232.4 466.5,233.3 466.8,233.1 467.1,230.1 467.3,229.6 467.6,228.0 467.9,225.1 468.1,222.7 468.4,222.5 468.7,227.5 469.0,228.2 469.2,227.8 469.5,226.5 469.8,226.9 470.1,228.1 470.3,227.7 470.6,229.2 470.9,226.2 471.1,228.3 471.4,228.1 471.7,226.8 472.0,228.1 472.2,224.9 472.5,226.8 472.8,227.4 473.1,228.7 473.3,229.0 473.6,229.6 473.9,227.5 474.1,229.8 474.4,231.1 474.7,231.0 475.0,231.5 475.2,231.5 475.5,231.0 475.8,231.8 476.1,231.7 476.3,232.7 476.6,233.3 476.9,232.9 477.1,232.5 477.4,232.0 477.7,230.4 478.0,229.7 478.2,230.0 478.5,228.9 478.8,230.1 479.1,229.5 479.3,230.3 479.6,231.6 479.9,231.4 480.1,231.7 480.4,231.2 480.7,232.1 481.0,232.8 481.2,232.1 481.5,230.8 481.8,230.8 482.1,232.5 482.3,232.3 482.6,233.3 482.9,234.4 483.1,234.5 483.4,234.8 483.7,234.4 484.0,234.7 484.2,235.7 484.5,235.6 484.8,235.3 485.1,235.1 485.3,235.7 485.6,235.0 485.9,235.1 486.1,235.3 486.4,234.0 486.7,232.1 487.0,232.7 487.2,230.5 487.5,232.1 487.8,232.4 488.1,232.1 488.3,232.5 488.6,233.6 488.9,234.3 489.1,235.3 489.4,234.3 489.7,235.1 490.0,236.2 490.2,236.9 490.5,237.5 490.8,236.8 491.1,237.5 491.3,239.3 491.6,237.4 491.9,238.4 492.2,238.7 492.4,240.1 492.7,241.3 493.0,242.6 493.2,241.0 493.5,240.1 493.8,240.7 494.1,239.6 494.3,239.6 494.6,239.5 494.9,239.3 495.2,239.4 495.4,239.6 495.7,240.1 496.0,238.7 496.2,236.8 496.5,236.9 496.8,236.9 497.1,236.8 497.3,236.5 497.6,236.0 497.9,235.4 498.2,235.5 498.4,235.7 498.7,237.1 499.0,236.4 499.2,236.3 499.5,234.9 499.8,235.4 500.1,234.7 500.3,234.3 500.6,234.4 500.9,234.0 501.2,234.1 501.4,234.7 501.7,232.9 502.0,233.4 502.2,233.8 502.5,234.0 502.8,234.4 503.1,236.0 503.3,236.4 503.6,236.1 503.9,236.1 504.2,235.8 504.4,236.3 504.7,236.5 505.0,236.4 505.2,236.2 505.5,237.3 505.8,235.8 506.1,235.1 506.3,234.1 506.6,234.1 506.9,234.3 507.2,234.0 507.4,233.6 507.7,234.1 508.0,233.0 508.2,231.1 508.5,232.1 508.8,232.9 509.1,232.9 509.3,233.1 509.6,232.9 509.9,232.4 510.2,233.0 510.4,232.9 510.7,232.5 511.0,232.7 511.2,229.6 511.5,229.4 511.8,229.6 512.1,230.0 512.3,230.7 512.6,230.5 512.9,228.3 513.2,226.5 513.4,226.5 513.7,228.0 514.0,225.2 514.2,225.6 514.5,225.6 514.8,224.3 515.1,224.3 515.3,224.3 515.6,223.6 515.9,222.4 516.2,224.7 516.4,224.7 516.7,223.1 517.0,222.9 517.2,221.8 517.5,220.4 517.8,221.9 518.1,221.5 518.3,220.9 518.6,217.7 518.9,215.4 519.2,215.1 519.4,216.2 519.7,216.8 520.0,214.8 520.3,212.2 520.5,212.8 520.8,215.1 521.1,215.1 521.3,214.9 521.6,211.9 521.9,213.9 522.2,213.8 522.4,216.1 522.7,218.1 523.0,219.6 523.3,219.6 523.5,218.1 523.8,217.7 524.1,215.9 524.3,214.8 524.6,213.9 524.9,213.1 525.2,212.4 525.4,212.5 525.7,210.3 526.0,208.1 526.3,208.5 526.5,207.7 526.8,210.3 527.1,209.6 527.3,208.5 527.6,206.4 527.9,205.1 528.2,208.6 528.4,210.1 528.7,205.7 529.0,204.1 529.3,204.6 529.5,205.0 529.8,202.6 530.1,203.5 530.3,204.9 530.6,205.2 530.9,204.2 531.2,203.8 531.4,199.9 531.7,201.3 532.0,200.3 532.3,197.9 532.5,197.8 532.8,204.1 533.1,203.6 533.3,205.0 533.6,204.9 533.9,203.3 534.2,202.4 534.4,203.6 534.7,202.8 535.0,199.7 535.3,199.8 535.5,198.7 535.8,200.4 536.1,200.7 536.3,200.8 536.6,200.8 536.9,199.4 537.2,200.4 537.4,198.9 537.7,202.0 538.0,204.1 538.3,204.2 538.5,204.1 538.8,205.2 539.1,203.9 539.3,202.6 539.6,201.0 539.9,200.2 540.2,201.2 540.4,201.5 540.7,203.4 541.0,203.3 541.3,204.2 541.5,204.1 541.8,204.1 542.1,203.9 542.3,202.4 542.6,200.2 542.9,200.8 543.2,202.1 543.4,202.1 543.7,203.0 544.0,200.9 544.3,200.5 544.5,197.3 544.8,199.6 545.1,199.3 545.3,199.2 545.6,197.9 545.9,192.6 546.2,190.9 546.4,192.0 546.7,191.6 547.0,188.7 547.3,187.9 547.5,191.5 547.8,190.9 548.1,190.7 548.4,192.6 548.6,192.4 548.9,191.8 549.2,191.0 549.4,187.8 549.7,186.0 550.0,186.2 550.3,185.1 550.5,184.2 550.8,187.6 551.1,188.3 551.4,188.6 551.6,187.8 551.9,180.0 552.2,178.9 552.4,180.8 552.7,177.2 553.0,181.6 553.3,181.0 553.5,181.4 553.8,184.7 554.1,185.4 554.4,185.8 554.6,185.7 554.9,185.6 555.2,180.5 555.4,182.4 555.7,184.1 556.0,185.1 556.3,185.1 556.5,186.5 556.8,185.5 557.1,185.7 557.4,186.6 557.6,186.2 557.9,186.8 558.2,186.2 558.4,185.4 558.7,186.2 559.0,187.4 559.3,190.0 559.5,194.1 559.8,193.7 560.1,196.6 560.4,196.0 560.6,191.6 560.9,193.4 561.2,191.4 561.4,191.8 561.7,189.9 562.0,189.4 562.3,187.6 562.5,188.1 562.8,187.0 563.1,190.8 563.4,190.0 563.6,190.7 563.9,190.3 564.2,190.4 564.4,189.9 564.7,191.4 565.0,190.7 565.3,190.8 565.5,193.3 565.8,194.1 566.1,192.8 566.4,189.5 566.6,189.3 566.9,187.9 567.2,187.9 567.4,188.2 567.7,188.8 568.0,191.9 568.3,196.5 568.5,194.5 568.8,191.6 569.1,190.2 569.4,188.4 569.6,186.5 569.9,184.9 570.2,185.7 570.4,185.5 570.7,182.3 571.0,181.2 571.3,183.4 571.5,183.3 571.8,179.8 572.1,179.7 572.4,182.9 572.6,182.9 572.9,182.9 573.2,183.5 573.4,183.5 573.7,183.5 574.0,183.1 574.3,183.7 574.5,185.2 574.8,185.5 575.1,187.0 575.4,185.5 575.6,189.2 575.9,190.3 576.2,191.3 576.5,191.9 576.7,193.1 577.0,193.3 577.3,191.2 577.5,189.7 577.8,188.7 578.1,189.7 578.4,192.3 578.6,193.6 578.9,191.6 579.2,191.2 579.5,192.1 579.7,190.9 580.0,189.8 580.3,189.1 580.5,191.5 580.8,191.5 581.1,190.2 581.4,192.0 581.6,191.8 581.9,190.4 582.2,189.9 582.5,189.4 582.7,189.2 583.0,191.2 583.3,189.9 583.5,188.7 583.8,183.6 584.1,182.9 584.4,182.9 584.6,181.9 584.9,183.4 585.2,182.6 585.5,183.6 585.7,184.1 586.0,180.8 586.3,180.3 586.5,179.4 586.8,181.9 587.1,177.8 587.4,181.9 587.6,180.9 587.9,180.4 588.2,176.7 588.5,178.8 588.7,179.3 589.0,179.2 589.3,177.4 589.5,175.2 589.8,172.5 590.1,170.9 590.4,170.7 590.6,172.3 590.9,171.1 591.2,175.8 591.5,177.6 591.7,180.7 592.0,180.8 592.3,181.9 592.5,181.8 592.8,185.5 593.1,185.4 593.4,181.7 593.6,179.2 593.9,179.5 594.2,179.6 594.5,179.9 594.7,182.1 595.0,181.9 595.3,182.6 595.5,182.2 595.8,183.2 596.1,179.9 596.4,175.5 596.6,174.2 596.9,174.0 597.2,176.7 597.5,179.2 597.7,176.4 598.0,178.2 598.3,172.7 598.5,172.8 598.8,173.6 599.1,175.6 599.4,173.7 599.6,178.5 599.9,177.2 600.2,180.7 600.5,178.7 600.7,179.1 601.0,178.2 601.3,179.6 601.5,181.9 601.8,182.2 602.1,181.9 602.4,175.3 602.6,176.3 602.9,178.5 603.2,180.4 603.5,180.9 603.7,180.9 604.0,180.0 604.3,182.5 604.6,182.7 604.8,185.9 605.1,184.1 605.4,182.2 605.6,185.0 605.9,185.9 606.2,187.5 606.5,188.9 606.7,190.4 607.0,187.8 607.3,186.6 607.6,187.3 607.8,187.2 608.1,185.7 608.4,185.4 608.6,184.2 608.9,180.7 609.2,180.8 609.5,181.3 609.7,178.7 610.0,178.7 610.3,183.6 610.6,185.1 610.8,186.2 611.1,191.7 611.4,191.6 611.6,191.3 611.9,190.0 612.2,186.0 612.5,189.9 612.7,185.8 613.0,182.7 613.3,186.8 613.6,186.3 613.8,186.0 614.1,183.5 614.4,188.7 614.6,188.5 614.9,188.6 615.2,190.0 615.5,188.6 615.7,191.1 616.0,195.0 616.3,194.9 616.6,194.1 616.8,201.0 617.1,201.3 617.4,201.6 617.6,203.8 617.9,201.7 618.2,201.1 618.5,200.3 618.7,203.5 619.0,202.7 619.3,203.6 619.6,206.1 619.8,203.3 620.1,203.8 620.4,204.2 620.6,206.2 620.9,204.8 621.2,200.3 621.5,200.3 621.7,201.5 622.0,206.5 622.3,204.8 622.6,204.7 622.8,205.3 623.1,200.8 623.4,197.4 623.6,197.0 623.9,196.5 624.2,195.0 624.5,192.6 624.7,194.3 625.0,191.6 625.3,194.1 625.6,192.6 625.8,189.8 626.1,189.0 626.4,185.1 626.6,191.1 626.9,189.1 627.2,192.3 627.5,193.4 627.7,189.3 628.0,190.3 628.3,192.2 628.6,191.4 628.8,193.0 629.1,191.3 629.4,189.8 629.6,190.7 629.9,186.8 630.2,185.9 630.5,186.0 630.7,184.1 631.0,184.2 631.3,184.8 631.6,184.8 631.8,181.0 632.1,181.2 632.4,178.1 632.7,179.1 632.9,179.6 633.2,179.2 633.5,178.6 633.7,179.5 634.0,179.8 634.3,179.2 634.6,180.4 634.8,180.5 635.1,182.3 635.4,181.0 635.7,178.7 635.9,180.0 636.2,180.8 636.5,179.8 636.7,180.1 637.0,180.3 637.3,179.8 637.6,172.6 637.8,174.7 638.1,175.1 638.4,177.6 638.7,179.1 638.9,183.1 639.2,179.9 639.5,180.0 639.7,174.0 640.0,171.5 640.3,172.8 640.6,172.8 640.8,169.2 641.1,171.8 641.4,170.1 641.7,173.8 641.9,171.5 642.2,172.4 642.5,172.0 642.7,171.8 643.0,172.2 643.3,173.3 643.6,176.5 643.8,176.8 644.1,176.2 644.4,174.0 644.7,172.3 644.9,175.8 645.2,173.6 645.5,173.6 645.7,174.9 646.0,173.7 646.3,174.9 646.6,173.6 646.8,172.8 647.1,174.0 647.4,176.4 647.7,173.6 647.9,172.4 648.2,171.9 648.5,172.8 648.7,176.9 649.0,178.5 649.3,176.8 649.6,177.2 649.8,178.5 650.1,178.3 650.4,175.8 650.7,176.4 650.9,177.1 651.2,174.7 651.5,172.3 651.7,172.0 652.0,170.8 652.3,171.4 652.6,168.1 652.8,167.9 653.1,161.5 653.4,161.6 653.7,162.3 653.9,163.1 654.2,164.0 654.5,164.1 654.7,158.6 655.0,157.9 655.3,159.1 655.6,162.2 655.8,164.3 656.1,163.2 656.4,161.9 656.7,160.7 656.9,158.2 657.2,162.7 657.5,163.3 657.7,162.4 658.0,160.1 658.3,160.4 658.6,159.2 658.8,160.4 659.1,160.0 659.4,154.6 659.7,154.3 659.9,153.2 660.2,156.5 660.5,160.0 660.8,157.9 661.0,154.7 661.3,155.2 661.6,155.5 661.8,156.5 662.1,156.8 662.4,152.6 662.7,149.4 662.9,146.3 663.2,146.2 663.5,146.5 663.8,145.9 664.0,142.2 664.3,138.2 664.6,139.0 664.8,139.3 665.1,138.7 665.4,138.3 665.7,145.5 665.9,144.3 666.2,144.5 666.5,136.6 666.8,137.4 667.0,138.6 667.3,139.1 667.6,137.9 667.8,137.7 668.1,134.9 668.4,128.6 668.7,136.9 668.9,138.6 669.2,138.2 669.5,136.9 669.8,137.5 670.0,133.1 670.3,135.0 670.6,138.5 670.8,140.6 671.1,143.8 671.4,140.3 671.7,141.8 671.9,142.6 672.2,140.9 672.5,141.7 672.8,140.1 673.0,140.2 673.3,137.5 673.6,135.5 673.8,142.1 674.1,138.3 674.4,140.2 674.7,137.3 674.9,139.4 675.2,135.8 675.5,143.0 675.8,143.3 676.0,146.2 676.3,145.8 676.6,141.1 676.8,142.6 677.1,145.7 677.4,143.9 677.7,145.8 677.9,150.2 678.2,151.4 678.5,150.6 678.8,152.5 679.0,156.6 679.3,154.0 679.6,152.1 679.8,152.1 680.1,151.7 680.4,152.5 680.7,155.6 680.9,154.4 681.2,150.7 681.5,150.5 681.8,148.9 682.0,147.8 682.3,147.9 682.6,151.3 682.8,148.9 683.1,148.9 683.4,147.7 683.7,149.0 683.9,151.4 684.2,149.5 684.5,147.9 684.8,147.9 685.0,147.3 685.3,148.9 685.6,150.2 685.8,146.9 686.1,143.9 686.4,147.7 686.7,147.3 686.9,147.1 687.2,149.7 687.5,149.5 687.8,149.7 688.0,151.2 688.3,151.2 688.6,149.9 688.9,151.0 689.1,148.7 689.4,143.3 689.7,142.1 689.9,137.8 690.2,138.6 690.5,143.5 690.8,143.4 691.0,145.0 691.3,145.4 691.6,146.2 691.9,147.8 692.1,146.5 692.4,146.3 692.7,143.9 692.9,143.8 693.2,142.6 693.5,141.3 693.8,146.2 694.0,146.3 694.3,148.2 694.6,147.7 694.9,148.9 695.1,147.9 695.4,146.5 695.7,148.7 695.9,148.6 696.2,152.4 696.5,150.6 696.8,151.7 697.0,154.2 697.3,160.2 697.6,160.5 697.9,158.1 698.1,158.1 698.4,156.4 698.7,150.3 698.9,153.8 699.2,154.2 699.5,154.5 699.8,154.2 700.0,154.0 700.3,153.0 700.6,155.3 700.9,155.3 701.1,154.0 701.4,155.2 701.7,156.8 701.9,159.8 702.2,162.2 702.5,159.2 702.8,161.8 703.0,158.8 703.3,154.6 703.6,154.4 703.9,152.6 704.1,155.8 704.4,156.2 704.7,153.7 704.9,154.4 705.2,156.2 705.5,162.2 705.8,163.3 706.0,163.2 706.3,166.0 706.6,170.8 706.9,169.0 707.1,168.6 707.4,163.4 707.7,161.8 707.9,164.5 708.2,163.4 708.5,160.9 708.8,158.4 709.0,161.8 709.3,158.8 709.6,159.3 709.9,158.9 710.1,159.4 710.4,161.4 710.7,161.6 710.9,160.8 711.2,159.2 711.5,161.3 711.8,160.2 712.0,160.6 712.3,162.2 712.6,161.0 712.9,159.3 713.1,158.2 713.4,155.2 713.7,154.1 713.9,152.2 714.2,154.1 714.5,156.2 714.8,159.0 715.0,161.8 715.3,161.0 715.6,160.1 715.9,159.3 716.1,159.8 716.4,160.2 716.7,160.1 717.0,161.7 717.2,162.0 717.5,161.7 717.8,162.0 718.0,165.3 718.3,161.3 718.6,161.4 718.9,162.5 719.1,156.2 719.4,157.0 719.7,151.6 720.0,148.9 720.2,146.7 720.5,151.6 720.8,152.2 721.0,150.3 721.3,148.6 721.6,150.6 721.9,154.2 722.1,155.2 722.4,159.2 722.7,153.7 723.0,149.9 723.2,146.3 723.5,146.6 723.8,146.1 724.0,138.9 724.3,134.3 724.6,135.8 724.9,136.3 725.1,129.5 725.4,133.5 725.7,134.3 726.0,131.4 726.2,131.3 726.5,133.1 726.8,135.1 727.0,137.0 727.3,133.4 727.6,130.1 727.9,122.7 728.1,133.8 728.4,131.6 728.7,131.2 729.0,130.8 729.2,130.8 729.5,130.9 729.8,137.3 730.0,132.7 730.3,130.9 730.6,132.1 730.9,135.5 731.1,134.9 731.4,135.5 731.7,135.2 732.0,137.7 732.2,139.1 732.5,138.9 732.8,139.2 733.0,139.1 733.3,139.7 733.6,139.7 733.9,137.1 734.1,134.9 734.4,136.7 734.7,132.7 735.0,126.5 735.2,126.3 735.5,127.4 735.8,132.4 736.0,130.1 736.3,130.8 736.6,126.3 736.9,122.0 737.1,118.8 737.4,117.2 737.7,112.1 738.0,112.2 738.2,111.2 738.5,112.3 738.8,112.5 739.0,111.4 739.3,107.4 739.6,99.9 739.9,104.2 740.1,103.9 740.4,106.5 740.7,102.5 741.0,107.9 741.2,111.7 741.5,112.2 741.8,120.6 742.0,128.1 742.3,125.5 742.6,125.6 742.9,124.4 743.1,126.7 743.4,122.7 743.7,121.6 744.0,124.5 744.2,125.8 744.5,127.4 744.8,128.7 745.1,128.4 745.3,126.2 745.6,126.2 745.9,129.9 746.1,126.3 746.4,124.9 746.7,124.4 747.0,127.6 747.2,126.7 747.5,115.3 747.8,112.3 748.1,113.0 748.3,107.5 748.6,107.4 748.9,107.4 749.1,109.3 749.4,104.9 749.7,103.9 750.0,107.4 750.2,112.6 750.5,118.6 750.8,115.5 751.1,114.6 751.3,115.0 751.6,113.7 751.9,116.4 752.1,119.8 752.4,109.2 752.7,108.1 753.0,110.8 753.2,108.2 753.5,109.6 753.8,109.0 754.1,110.7 754.3,115.1 754.6,114.7 754.9,111.1 755.1,113.0 755.4,112.2 755.7,115.5 756.0,118.8 756.2,115.7 756.5,114.8 756.8,115.8 757.1,118.2 757.3,124.1 757.6,125.5 757.9,126.5 758.1,121.8 758.4,124.4 758.7,126.5 759.0,125.8 759.2,124.0 759.5,127.6 759.8,127.7 760.1,123.3 760.3,123.0 760.6,121.5 760.9,124.8 761.1,124.0 761.4,120.4 761.7,123.7 762.0,123.4 762.2,124.8 762.5,120.6 762.8,124.8 763.1,124.4 763.3,127.4 763.6,127.6 763.9,126.3 764.1,124.0 764.4,112.3 764.7,116.8 765.0,120.2 765.2,119.1 765.5,119.5 765.8,119.0 766.1,120.2 766.3,119.3 766.6,122.3 766.9,116.6 767.1,117.5 767.4,112.6 767.7,118.4 768.0,116.1 768.2,117.7 768.5,115.1 768.8,115.8 769.1,116.9 769.3,115.8 769.6,111.9 769.9,108.6 770.1,109.6 770.4,109.6 770.7,108.9 771.0,113.7 771.2,109.6 771.5,94.1 771.8,99.3 772.1,99.7 772.3,106.5 772.6,106.4 772.9,105.8 773.2,95.6 773.4,98.9 773.7,101.5 774.0,97.7 774.2,100.9 774.5,94.9 774.8,92.4 775.1,92.4 775.3,89.8 775.6,96.8 775.9,99.2 776.2,96.7 776.4,100.4 776.7,100.6 777.0,95.9 777.2,98.2 777.5,101.8 777.8,107.9 778.1,105.8 778.3,105.3 778.6,103.9 778.9,104.0 779.2,106.8 779.4,107.1 779.7,110.1 780.0,110.7 780.2,110.7 780.5,110.5 780.8,112.8 781.1,113.9 781.3,115.7 781.6,116.9 781.9,113.9 782.2,115.5 782.4,115.7 782.7,117.2 783.0,115.7 783.2,115.3 783.5,117.7 783.8,120.2 784.1,117.9 784.3,120.9 784.6,115.0 784.9,120.4 785.2,120.1 785.4,116.9 785.7,114.3 786.0,113.3 786.2,114.8 786.5,113.7 786.8,114.1 787.1,115.9 787.3,114.8 787.6,107.9 787.9,107.9 788.2,102.8 788.4,106.4 788.7,106.8 789.0,106.8 789.2,111.2 789.5,113.2 789.8,110.3 790.1,108.6 790.3,106.8 790.6,103.5 790.9,98.9 791.2,105.4 791.4,103.5 791.7,100.0 792.0,108.2 792.2,110.5 792.5,108.6 792.8,108.1 793.1,108.1 793.3,108.1 793.6,112.9 793.9,109.7 794.2,109.4 794.4,108.5 794.7,112.6 795.0,111.0 795.2,112.6 795.5,116.6 795.8,119.1 796.1,119.8 796.3,119.1 796.6,126.4 796.9,120.2 797.2,122.7 797.4,116.8 797.7,118.2 798.0,118.5 798.2,115.9 798.5,114.6 798.8,116.1 799.1,111.8 799.3,108.9 799.6,108.6 799.9,106.9 800.2,108.2 800.4,105.7 800.7,107.8 801.0,106.9 801.3,103.6 801.5,104.6 801.8,102.4 802.1,104.6 802.3,106.3 802.6,109.6 802.9,109.2 803.2,115.5 803.4,111.9 803.7,105.0 804.0,102.7 804.3,101.6 804.5,102.2 804.8,102.0 805.1,97.7 805.3,96.9 805.6,96.7 805.9,97.0 806.2,101.2 806.4,106.6 806.7,105.9 807.0,98.0 807.3,83.0 807.5,84.8 807.8,86.8 808.1,79.8 808.3,76.8 808.6,72.1 808.9,73.8 809.2,74.5 809.4,79.2 809.7,83.4 810.0,90.3 810.3,92.7 810.5,90.3 810.8,87.3 811.1,83.7 811.3,88.3 811.6,87.1 811.9,88.1 812.2,87.7 812.4,85.8 812.7,84.2 813.0,86.2 813.3,84.5 813.5,82.7 813.8,88.8 814.1,85.7 814.3,87.3 814.6,93.0 814.9,97.4 815.2,97.6 815.4,100.3 815.7,100.6 816.0,102.9 816.3,100.0 816.5,102.4 816.8,101.6 817.1,101.9 817.3,99.4 817.6,102.6 817.9,102.7 818.2,105.5 818.4,105.5 818.7,109.2 819.0,109.2 819.3,109.2 819.5,109.2 819.8,109.2 820.1,109.2 820.3,109.2 820.6,109.2 820.9,109.2 821.2,109.2 821.4,109.2 821.7,90.1 822.0,78.4 822.3,76.2 822.5,73.5 822.8,75.1 823.1,77.4 823.3,74.1 823.6,73.6 823.9,70.9 824.2,68.5 824.4,68.8 824.7,68.5 825.0,70.2 825.3,66.2 825.5,63.7 825.8,61.7 826.1,62.5 826.3,73.6 826.6,71.5 826.9,68.0 827.2,66.6 827.4,69.9 827.7,68.6 828.0,67.3 828.3,64.9 828.5,61.4 828.8,60.2 829.1,58.3 829.4,59.7 829.6,61.6 829.9,67.5 830.2,65.6 830.4,68.3 830.7,74.9 831.0,68.2 831.3,56.3 831.5,54.7 831.8,48.3 832.1,48.8 832.4,53.9 832.6,58.0 832.9,58.2 833.2,56.0 833.4,56.1 833.7,58.7 834.0,61.7 834.3,62.3 834.5,64.3 834.8,63.0 835.1,56.9 835.4,55.6 835.6,51.3 835.9,45.8 836.2,45.8 836.4,47.7 836.7,56.6 837.0,59.7 837.3,63.6 837.5,65.2 837.8,66.6 838.1,86.0 838.4,68.3 838.6,75.2 838.9,76.9 839.2,78.8 839.4,73.2 839.7,75.4 840.0,79.9 840.3,83.7 840.5,77.4 840.8,76.5 841.1,75.2 841.4,73.8 841.6,70.6 841.9,68.6 842.2,64.2 842.4,56.6 842.7,60.3 843.0,58.9 843.3,58.2 843.5,56.0 843.8,53.7 844.1,60.2 844.4,56.7 844.6,54.4 844.9,51.7 845.2,49.5 845.4,60.6 845.7,56.7 846.0,61.2 846.3,59.3 846.5,63.5 846.8,58.3 847.1,63.5 847.4,68.9 847.6,61.7 847.9,65.9 848.2,69.3 848.4,56.1 848.7,59.6 849.0,59.4 849.3,62.6 849.5,55.4 849.8,55.1 850.1,60.9 850.4,61.0 850.6,56.4 850.9,48.0 851.2,49.1 851.4,48.8 851.7,44.8 852.0,41.8 852.3,46.3 852.5,43.2 852.8,49.8 853.1,48.4 853.4,49.3 853.6,44.8 853.9,55.4 854.2,45.1 854.4,49.8 854.7,56.1 855.0,50.8 855.3,57.6 855.5,57.3 855.8,56.6 856.1,58.0 856.4,54.1 856.6,55.0 856.9,57.9 857.2,57.3 857.5,57.7 857.7,40.5 858.0,40.1 858.3,41.7 858.5,44.2 858.8,43.7 859.1,42.2 859.4,35.2 859.6,32.2 859.9,31.2 860.2,32.8 860.5,40.8 860.7,31.5 861.0,30.1 861.3,31.6 861.5,33.3 861.8,31.5 862.1,31.9 862.4,31.9 862.6,34.6 862.9,34.9 863.2,35.2 863.5,36.7 863.7,39.0 864.0,41.7 864.3,35.6 864.5,32.2 864.8,31.3 865.1,33.0 865.4,35.0 865.6,33.4 865.9,30.0 866.2,33.3 866.5,34.9 866.7,39.9 867.0,42.3 867.3,39.5 867.5,41.1 867.8,44.8 868.1,45.9 868.4,39.5 868.6,42.5 868.9,43.8 869.2,44.1 869.5,33.7 869.7,34.7 870.0,36.1"/>
</svg>
