<svg xmlns="http://www.w3.org/2000/svg" width="900" height="360">
<rect width="100%" height="100%" fill="white"/>
<text x="30" y="20" font-size="16">长江电力 收益率直方图</text>
<rect x="30.0" y="329.7" width="27.0" height="0.3" fill="#9ecae1"/><rect x="58.0" y="329.7" width="27.0" height="0.3" fill="#9ecae1"/><rect x="86.0" y="330.0" width="27.0" height="0.0" fill="#9ecae1"/><rect x="114.0" y="330.0" width="27.0" height="0.0" fill="#9ecae1"/><rect x="142.0" y="329.3" width="27.0" height="0.7" fill="#9ecae1"/><rect x="170.0" y="330.0" width="27.0" height="0.0" fill="#9ecae1"/><rect x="198.0" y="329.3" width="27.0" height="0.7" fill="#9ecae1"/><rect x="226.0" y="330.0" width="27.0" height="0.0" fill="#9ecae1"/><rect x="254.0" y="329.7" width="27.0" height="0.3" fill="#9ecae1"/><rect x="282.0" y="328.3" width="27.0" height="1.7" fill="#9ecae1"/><rect x="310.0" y="329.0" width="27.0" height="1.0" fill="#9ecae1"/><rect x="338.0" y="323.1" width="27.0" height="6.9" fill="#9ecae1"/><rect x="366.0" y="319.3" width="27.0" height="10.7" fill="#9ecae1"/><rect x="394.0" y="299.0" width="27.0" height="31.0" fill="#9ecae1"/><rect x="422.0" y="266.7" width="27.0" height="63.3" fill="#9ecae1"/><rect x="450.0" y="203.4" width="27.0" height="126.6" fill="#9ecae1"/><rect x="478.0" y="113.3" width="27.0" height="216.7" fill="#9ecae1"/><rect x="506.0" y="30.0" width="27.0" height="300.0" fill="#9ecae1"/><rect x="534.0" y="191.4" width="27.0" height="138.6" fill="#9ecae1"/><rect x="562.0" y="247.4" width="27.0" height="82.6" fill="#9ecae1"/><rect x="590.0" y="294.6" width="27.0" height="35.4" fill="#9ecae1"/><rect x="618.0" y="309.7" width="27.0" height="20.3" fill="#9ecae1"/><rect x="646.0" y="321.7" width="27.0" height="8.3" fill="#9ecae1"/><rect x="674.0" y="324.2" width="27.0" height="5.8" fill="#9ecae1"/><rect x="702.0" y="327.2" width="27.0" height="2.8" fill="#9ecae1"/><rect x="730.0" y="327.9" width="27.0" height="2.1" fill="#9ecae1"/><rect x="758.0" y="328.6" width="27.0" height="1.4" fill="#9ecae1"/><rect x="786.0" y="329.7" width="27.0" height="0.3" fill="#9ecae1"/><rect x="814.0" y="329.0" width="27.0" height="1.0" fill="#9ecae1"/><rect x="842.0" y="329.7" width="27.0" height="0.3" fill="#9ecae1"/>
<polyline fill="none" stroke="#d62728" stroke-width="2" points="30.0,330.0 37.1,330.0 44.1,330.0 51.2,330.0 58.2,330.0 65.3,330.0 72.4,330.0 79.4,330.0 86.5,330.0 93.5,330.0 100.6,330.0 107.6,330.0 114.7,330.0 121.8,330.0 128.8,330.0 135.9,330.0 142.9,330.0 150.0,330.0 157.1,330.0 164.1,330.0 171.2,330.0 178.2,330.0 185.3,330.0 192.4,330.0 199.4,330.0 206.5,330.0 213.5,330.0 220.6,330.0 227.6,330.0 234.7,330.0 241.8,330.0 248.8,330.0 255.9,330.0 262.9,330.0 270.0,329.9 277.1,329.9 284.1,329.8 291.2,329.7 298.2,329.5 305.3,329.3 312.4,328.9 319.4,328.4 326.5,327.6 333.5,326.6 340.6,325.1 347.6,323.2 354.7,320.7 361.8,317.4 368.8,313.1 375.9,307.7 382.9,301.0 390.0,292.7 397.1,282.9 404.1,271.2 411.2,257.7 418.2,242.3 425.3,225.2 432.4,206.4 439.4,186.3 446.5,165.2 453.5,143.7 460.6,122.3 467.6,101.7 474.7,82.5 481.8,65.5 488.8,51.2 495.9,40.3 502.9,33.1 510.0,30.0 517.1,31.1 524.1,36.3 531.2,45.5 538.2,58.2 545.3,74.0 552.4,92.2 559.4,112.2 566.5,133.3 573.5,154.8 580.6,176.2 587.6,196.8 594.7,216.3 601.8,234.2 608.8,250.5 615.9,264.9 622.9,277.5 630.0,288.2 637.1,297.2 644.1,304.6 651.2,310.6 658.2,315.4 665.3,319.2 672.4,322.1 679.4,324.3 686.5,325.9 693.5,327.1 700.6,328.0 707.6,328.7 714.7,329.1 721.8,329.4 728.8,329.6 735.9,329.7 742.9,329.8 750.0,329.9 757.1,329.9 764.1,330.0 771.2,330.0 778.2,330.0 785.3,330.0 792.4,330.0 799.4,330.0 806.5,330.0 813.5,330.0 820.6,330.0 827.6,330.0 834.7,330.0 841.8,330.0 848.8,330.0 855.9,330.0 862.9,330.0 870.0,330.0"/>
</svg>
