<svg xmlns="http://www.w3.org/2000/svg" width="900" height="360">
<rect width="100%" height="100%" fill="white"/>
<text x="45" y="20" font-size="16">长江电力 收益率直方图</text>
<line class="axis-x" x1="45" y1="315" x2="855" y2="315" stroke="black" stroke-width="1"/>
<line class="axis-y" x1="45" y1="45" x2="45" y2="315" stroke="black" stroke-width="1"/>
<text x="450.0" y="355" font-size="12" text-anchor="middle">收益率</text>
<text x="14" y="180.0" font-size="12" text-anchor="middle" transform="rotate(-90 14 180.0)">频数</text>
<line x1="45.0" y1="315" x2="45.0" y2="320" stroke="black" stroke-width="1"/>
<text x="45.0" y="333" font-size="10" text-anchor="middle">-0.100</text>
<line x1="450.0" y1="315" x2="450.0" y2="320" stroke="black" stroke-width="1"/>
<text x="450.0" y="333" font-size="10" text-anchor="middle">-0.012</text>
<line x1="855.0" y1="315" x2="855.0" y2="320" stroke="black" stroke-width="1"/>
<text x="855.0" y="333" font-size="10" text-anchor="middle">0.075</text>
<line x1="40" y1="315.0" x2="45" y2="315.0" stroke="black" stroke-width="1"/>
<text x="37" y="318.0" font-size="10" text-anchor="end">0</text>
<line x1="40" y1="180.0" x2="45" y2="180.0" stroke="black" stroke-width="1"/>
<text x="37" y="183.0" font-size="10" text-anchor="end">436</text>
<line x1="40" y1="45.0" x2="45" y2="45.0" stroke="black" stroke-width="1"/>
<text x="37" y="48.0" font-size="10" text-anchor="end">872</text>
<rect x="45.0" y="314.7" width="26.0" height="0.3" fill="#9ecae1"/><rect x="72.0" y="314.7" width="26.0" height="0.3" fill="#9ecae1"/><rect x="99.0" y="315.0" width="26.0" height="0.0" fill="#9ecae1"/><rect x="126.0" y="315.0" width="26.0" height="0.0" fill="#9ecae1"/><rect x="153.0" y="314.4" width="26.0" height="0.6" fill="#9ecae1"/><rect x="180.0" y="315.0" width="26.0" height="0.0" fill="#9ecae1"/><rect x="207.0" y="314.4" width="26.0" height="0.6" fill="#9ecae1"/><rect x="234.0" y="315.0" width="26.0" height="0.0" fill="#9ecae1"/><rect x="261.0" y="314.7" width="26.0" height="0.3" fill="#9ecae1"/><rect x="288.0" y="313.5" width="26.0" height="1.5" fill="#9ecae1"/><rect x="315.0" y="314.1" width="26.0" height="0.9" fill="#9ecae1"/><rect x="342.0" y="308.8" width="26.0" height="6.2" fill="#9ecae1"/><rect x="369.0" y="305.4" width="26.0" height="9.6" fill="#9ecae1"/><rect x="396.0" y="287.1" width="26.0" height="27.9" fill="#9ecae1"/><rect x="423.0" y="258.0" width="26.0" height="57.0" fill="#9ecae1"/><rect x="450.0" y="201.1" width="26.0" height="113.9" fill="#9ecae1"/><rect x="477.0" y="119.9" width="26.0" height="195.1" fill="#9ecae1"/><rect x="504.0" y="45.0" width="26.0" height="270.0" fill="#9ecae1"/><rect x="531.0" y="190.2" width="26.0" height="124.8" fill="#9ecae1"/><rect x="558.0" y="240.7" width="26.0" height="74.3" fill="#9ecae1"/><rect x="585.0" y="283.1" width="26.0" height="31.9" fill="#9ecae1"/><rect x="612.0" y="296.7" width="26.0" height="18.3" fill="#9ecae1"/><rect x="639.0" y="307.6" width="26.0" height="7.4" fill="#9ecae1"/><rect x="666.0" y="309.7" width="26.0" height="5.3" fill="#9ecae1"/><rect x="693.0" y="312.5" width="26.0" height="2.5" fill="#9ecae1"/><rect x="720.0" y="313.1" width="26.0" height="1.9" fill="#9ecae1"/><rect x="747.0" y="313.8" width="26.0" height="1.2" fill="#9ecae1"/><rect x="774.0" y="314.7" width="26.0" height="0.3" fill="#9ecae1"/><rect x="801.0" y="314.1" width="26.0" height="0.9" fill="#9ecae1"/><rect x="828.0" y="314.7" width="26.0" height="0.3" fill="#9ecae1"/>
<polyline fill="none" stroke="#d62728" stroke-width="2" points="45.0,315.0 51.8,315.0 58.6,315.0 65.4,315.0 72.2,315.0 79.0,315.0 85.8,315.0 92.6,315.0 99.5,315.0 106.3,315.0 113.1,315.0 119.9,315.0 126.7,315.0 133.5,315.0 140.3,315.0 147.1,315.0 153.9,315.0 160.7,315.0 167.5,315.0 174.3,315.0 181.1,315.0 187.9,315.0 194.7,315.0 201.6,315.0 208.4,315.0 215.2,315.0 222.0,315.0 228.8,315.0 235.6,315.0 242.4,315.0 249.2,315.0 256.0,315.0 262.8,315.0 269.6,315.0 276.4,314.9 283.2,314.9 290.0,314.8 296.8,314.7 303.7,314.6 310.5,314.3 317.3,314.0 324.1,313.5 330.9,312.8 337.7,311.9 344.5,310.6 351.3,308.9 358.1,306.6 364.9,303.6 371.7,299.8 378.5,294.9 385.3,288.9 392.1,281.5 398.9,272.6 405.8,262.1 412.6,249.9 419.4,236.1 426.2,220.6 433.0,203.7 439.8,185.6 446.6,166.7 453.4,147.3 460.2,128.1 467.0,109.5 473.8,92.3 480.6,76.9 487.4,64.1 494.2,54.3 501.1,47.8 507.9,45.0 514.7,46.0 521.5,50.7 528.3,58.9 535.1,70.4 541.9,84.6 548.7,101.0 555.5,119.0 562.3,138.0 569.1,157.3 575.9,176.5 582.7,195.1 589.5,212.6 596.3,228.8 603.2,243.5 610.0,256.4 616.8,267.7 623.6,277.4 630.4,285.5 637.2,292.1 644.0,297.6 650.8,301.9 657.6,305.3 664.4,307.9 671.2,309.9 678.0,311.3 684.8,312.4 691.6,313.2 698.4,313.8 705.3,314.2 712.1,314.5 718.9,314.6 725.7,314.8 732.5,314.9 739.3,314.9 746.1,314.9 752.9,315.0 759.7,315.0 766.5,315.0 773.3,315.0 780.1,315.0 786.9,315.0 793.7,315.0 800.5,315.0 807.4,315.0 814.2,315.0 821.0,315.0 827.8,315.0 834.6,315.0 841.4,315.0 848.2,315.0 855.0,315.0"/>
</svg>
