<svg xmlns="http://www.w3.org/2000/svg" width="1040" height="460">
<rect width="100%" height="100%" fill="white"/>
<text x="120" y="24" font-size="16">累计IC曲线</text>
<line x1="120" y1="405" x2="790" y2="405" stroke="black" stroke-width="1"/><line x1="120" y1="55" x2="120" y2="405" stroke="black" stroke-width="1"/><text x="455.0" y="448" font-size="12" text-anchor="middle">时间</text><text x="32" y="230.0" font-size="12" text-anchor="middle" transform="rotate(-90 32 230.0)">累计IC</text><rect x="810" y="55" width="215" height="70" fill="white" stroke="#cccccc" stroke-width="1"/><line x1="120.0" y1="405" x2="120.0" y2="410" stroke="black" stroke-width="1"/><text x="120.0" y="423" font-size="10" text-anchor="middle">2016-02</text><line x1="227.9" y1="405" x2="227.9" y2="410" stroke="black" stroke-width="1"/><text x="227.9" y="423" font-size="10" text-anchor="middle">2017-09</text><line x1="335.8" y1="405" x2="335.8" y2="410" stroke="black" stroke-width="1"/><text x="335.8" y="423" font-size="10" text-anchor="middle">2019-04</text><line x1="443.6" y1="405" x2="443.6" y2="410" stroke="black" stroke-width="1"/><text x="443.6" y="423" font-size="10" text-anchor="middle">2020-11</text><line x1="551.5" y1="405" x2="551.5" y2="410" stroke="black" stroke-width="1"/><text x="551.5" y="423" font-size="10" text-anchor="middle">2022-06</text><line x1="659.4" y1="405" x2="659.4" y2="410" stroke="black" stroke-width="1"/><text x="659.4" y="423" font-size="10" text-anchor="middle">2024-01</text><line x1="767.3" y1="405" x2="767.3" y2="410" stroke="black" stroke-width="1"/><text x="767.3" y="423" font-size="10" text-anchor="middle">2025-08</text><line x1="790.0" y1="405" x2="790.0" y2="410" stroke="black" stroke-width="1"/><text x="790.0" y="423" font-size="10" text-anchor="middle">2025-12</text><line x1="115" y1="405.0" x2="120" y2="405.0" stroke="black" stroke-width="1"/><text x="110" y="408.0" font-size="10" text-anchor="end">-2.49</text><line x1="115" y1="230.0" x2="120" y2="230.0" stroke="black" stroke-width="1"/><text x="110" y="233.0" font-size="10" text-anchor="end">0.689</text><line x1="115" y1="55.0" x2="120" y2="55.0" stroke="black" stroke-width="1"/><text x="110" y="58.0" font-size="10" text-anchor="end">3.87</text><polyline fill="none" stroke="#1f77b4" stroke-width="2" points="120.0,74.5 125.7,117.1 131.4,127.9 137.0,121.6 142.7,108.8 148.4,160.0 154.1,172.6 159.7,195.9 165.4,168.8 171.1,198.7 176.8,184.8 182.5,223.9 188.1,208.4 193.8,152.3 199.5,98.0 205.2,115.6 210.8,127.9 216.5,141.7 222.2,147.3 227.9,97.7 233.6,92.2 239.2,82.8 244.9,73.7 250.6,125.8 256.3,133.6 261.9,146.0 267.6,164.5 273.3,156.2 279.0,138.1 284.7,91.9 290.3,78.3 296.0,55.0 301.7,105.0 307.4,103.8 313.1,105.2 318.7,157.9 324.4,120.8 330.1,136.6 335.8,140.1 341.4,165.6 347.1,169.4 352.8,163.9 358.5,205.3 364.2,179.3 369.8,172.6 375.5,162.1 381.2,192.4 386.9,147.5 392.5,156.4 398.2,197.3 403.9,177.5 409.6,178.6 415.3,152.7 420.9,172.9 426.6,170.8 432.3,159.7 438.0,176.7 443.6,198.4 449.3,146.4 455.0,169.7 460.7,155.6 466.4,190.7 472.0,160.4 477.7,136.9 483.4,106.9 489.1,68.6 494.7,91.5 500.4,144.7 506.1,181.7 511.8,187.3 517.5,166.1 523.1,191.0 528.8,178.3 534.5,168.9 540.2,213.4 545.8,191.3 551.5,259.5 557.2,268.1 562.9,227.4 568.6,276.8 574.2,357.9 579.9,340.9 585.6,385.6 591.3,405.0 596.9,367.4 602.6,360.0 608.3,336.3 614.0,356.3 619.7,381.0 625.3,391.1 631.0,372.8 636.7,350.6 642.4,307.2 648.1,286.5 653.7,242.9 659.4,338.2 665.1,305.9 670.8,303.6 676.4,298.6 682.1,271.7 687.8,292.0 693.5,290.1 699.2,287.8 704.8,270.7 710.5,262.9 716.2,287.0 721.9,285.0 727.5,328.3 733.2,364.1 738.9,366.8 744.6,351.3 750.3,342.8 755.9,326.2 761.6,311.6 767.3,264.5 773.0,288.2 778.6,253.6 784.3,251.9 790.0,236.7"/><line x1="825" y1="75" x2="849" y2="75" stroke="#1f77b4" stroke-width="2"/><text x="855" y="79" font-size="11">20日动量</text><polyline fill="none" stroke="#d62728" stroke-width="2" points="120.0,368.5 125.7,355.7 131.4,363.3 137.0,381.5 142.7,366.2 148.4,351.7 154.1,347.1 159.7,331.9 165.4,297.8 171.1,282.2 176.8,256.4 182.5,258.1 188.1,257.6 193.8,254.7 199.5,246.5 205.2,265.4 210.8,234.0 216.5,249.1 222.2,261.9 227.9,272.7 233.6,248.6 239.2,263.7 244.9,241.9 250.6,261.8 256.3,283.9 261.9,270.8 267.6,289.3 273.3,290.3 279.0,263.4 284.7,245.0 290.3,237.2 296.0,198.9 301.7,219.2 307.4,211.8 313.1,209.1 318.7,215.6 324.4,237.7 330.1,230.2 335.8,234.1 341.4,246.5 347.1,256.5 352.8,286.5 358.5,265.9 364.2,265.9 369.8,259.8 375.5,261.3 381.2,280.7 386.9,296.3 392.5,281.1 398.2,313.5 403.9,325.0 409.6,363.6 415.3,380.6 420.9,381.5 426.6,368.6 432.3,374.4 438.0,354.5 443.6,389.6 449.3,405.0 455.0,374.9 460.7,341.2 466.4,366.6 472.0,380.2 477.7,374.4 483.4,358.2 489.1,335.2 494.7,325.8 500.4,347.0 506.1,351.1 511.8,340.1 517.5,299.3 523.1,298.3 528.8,253.4 534.5,252.1 540.2,279.0 545.8,308.2 551.5,292.0 557.2,277.7 562.9,269.5 568.6,264.4 574.2,248.0 579.9,265.8 585.6,274.5 591.3,274.6 596.9,267.6 602.6,226.1 608.3,209.1 614.0,223.2 619.7,196.6 625.3,195.8 631.0,165.6 636.7,180.9 642.4,178.8 648.1,176.4 653.7,135.0 659.4,172.3 665.1,179.6 670.8,173.9 676.4,151.0 682.1,139.4 687.8,119.8 693.5,115.9 699.2,121.6 704.8,103.6 710.5,101.5 716.2,78.7 721.9,75.3 727.5,79.5 733.2,84.0 738.9,88.7 744.6,79.8 750.3,63.8 755.9,55.0 761.6,87.6 767.3,102.2 773.0,91.8 778.6,74.6 784.3,85.7 790.0,108.2"/><line x1="825" y1="93" x2="849" y2="93" stroke="#d62728" stroke-width="2"/><text x="855" y="97" font-size="11">BP(1/PB)</text>
</svg>
