<svg xmlns="http://www.w3.org/2000/svg" width="1040" height="460">
<rect width="100%" height="100%" fill="white"/>
<text x="120" y="24" font-size="16">全样本净值曲线</text>
<line x1="120" y1="405" x2="790" y2="405" stroke="black" stroke-width="1"/><line x1="120" y1="55" x2="120" y2="405" stroke="black" stroke-width="1"/><text x="455.0" y="448" font-size="12" text-anchor="middle">时间</text><text x="32" y="230.0" font-size="12" text-anchor="middle" transform="rotate(-90 32 230.0)">净值</text><rect x="810" y="55" width="215" height="70" fill="white" stroke="#cccccc" stroke-width="1"/><line x1="120.0" y1="405" x2="120.0" y2="410" stroke="black" stroke-width="1"/><text x="120.0" y="423" font-size="10" text-anchor="middle">2016-03</text><line x1="231.7" y1="405" x2="231.7" y2="410" stroke="black" stroke-width="1"/><text x="231.7" y="423" font-size="10" text-anchor="middle">2017-10</text><line x1="343.4" y1="405" x2="343.4" y2="410" stroke="black" stroke-width="1"/><text x="343.4" y="423" font-size="10" text-anchor="middle">2019-06</text><line x1="455.1" y1="405" x2="455.1" y2="410" stroke="black" stroke-width="1"/><text x="455.1" y="423" font-size="10" text-anchor="middle">2021-02</text><line x1="566.9" y1="405" x2="566.9" y2="410" stroke="black" stroke-width="1"/><text x="566.9" y="423" font-size="10" text-anchor="middle">2022-09</text><line x1="678.6" y1="405" x2="678.6" y2="410" stroke="black" stroke-width="1"/><text x="678.6" y="423" font-size="10" text-anchor="middle">2024-05</text><line x1="790.0" y1="405" x2="790.0" y2="410" stroke="black" stroke-width="1"/><text x="790.0" y="423" font-size="10" text-anchor="middle">2026-01</text><line x1="115" y1="405.0" x2="120" y2="405.0" stroke="black" stroke-width="1"/><text x="110" y="408.0" font-size="10" text-anchor="end">0.941</text><line x1="115" y1="230.0" x2="120" y2="230.0" stroke="black" stroke-width="1"/><text x="110" y="233.0" font-size="10" text-anchor="end">1.69</text><line x1="115" y1="55.0" x2="120" y2="55.0" stroke="black" stroke-width="1"/><text x="110" y="58.0" font-size="10" text-anchor="end">2.45</text><polyline fill="none" stroke="#1f77b4" stroke-width="2" points="120.0,377.2 120.3,360.5 120.6,361.0 120.8,359.8 121.1,356.8 121.4,357.4 121.7,367.3 122.0,372.9 122.2,372.3 122.5,366.2 122.8,367.6 123.1,367.9 123.3,362.7 123.6,357.6 123.9,351.3 124.2,354.1 124.5,353.3 124.7,360.2 125.0,359.1 125.3,361.0 125.6,365.0 125.9,355.4 126.1,356.3 126.4,359.9 126.7,349.9 127.0,348.5 127.2,358.2 127.5,362.0 127.8,354.7 128.1,357.5 128.4,351.2 128.6,347.4 128.9,349.8 129.2,358.2 129.5,355.7 129.8,369.6 130.0,376.3 130.3,372.0 130.6,374.9 130.9,370.7 131.1,373.9 131.4,373.3 131.7,374.8 132.0,367.2 132.3,368.6 132.5,367.3 132.8,379.3 133.1,389.7 133.4,390.1 133.7,386.1 133.9,384.1 134.2,386.0 134.5,382.7 134.8,381.5 135.0,386.9 135.3,386.7 135.6,385.3 135.9,383.3 136.2,387.1 136.4,389.4 136.7,387.6 137.0,388.6 137.3,389.7 137.6,377.1 137.8,375.1 138.1,372.1 138.4,369.8 138.7,370.0 138.9,370.8 139.2,373.1 139.5,387.8 139.8,386.2 140.1,377.6 140.3,380.7 140.6,378.0 140.9,377.7 141.2,380.1 141.5,375.7 141.7,378.9 142.0,383.4 142.3,376.6 142.6,374.7 142.8,372.5 143.1,372.9 143.4,373.1 143.7,362.6 144.0,362.1 144.2,356.1 144.5,355.5 144.8,356.8 145.1,353.6 145.4,344.5 145.6,344.9 145.9,346.1 146.2,347.5 146.5,350.7 146.7,350.7 147.0,352.3 147.3,350.9 147.6,354.4 147.9,353.1 148.1,347.6 148.4,360.6 148.7,360.3 149.0,363.1 149.3,369.8 149.5,367.1 149.8,364.3 150.1,364.4 150.4,365.5 150.6,363.0 150.9,360.0 151.2,361.4 151.5,365.5 151.8,360.5 152.0,350.3 152.3,352.2 152.6,351.5 152.9,353.4 153.2,355.1 153.4,358.1 153.7,357.0 154.0,357.8 154.3,361.9 154.5,360.8 154.8,360.6 155.1,361.8 155.4,360.9 155.7,366.7 155.9,365.2 156.2,365.0 156.5,361.3 156.8,361.7 157.1,362.9 157.3,366.3 157.6,374.0 157.9,373.1 158.2,375.8 158.4,372.8 158.7,373.4 159.0,370.8 159.3,367.4 159.6,369.8 159.8,379.5 160.1,376.1 160.4,377.3 160.7,375.3 161.0,373.9 161.2,367.0 161.5,365.9 161.8,366.7 162.1,366.6 162.3,367.5 162.6,372.0 162.9,366.6 163.2,368.3 163.5,368.4 163.7,368.5 164.0,364.7 164.3,363.4 164.6,364.5 164.9,366.4 165.1,368.2 165.4,368.7 165.7,366.2 166.0,369.3 166.2,363.1 166.5,364.8 166.8,363.7 167.1,362.6 167.4,365.6 167.6,359.4 167.9,353.6 168.2,350.2 168.5,352.4 168.8,353.1 169.0,351.0 169.3,354.9 169.6,353.1 169.9,348.6 170.1,349.6 170.4,346.2 170.7,342.9 171.0,339.2 171.3,337.9 171.5,342.8 171.8,338.6 172.1,345.0 172.4,360.2 172.7,362.6 172.9,357.4 173.2,359.0 173.5,353.9 173.8,367.6 174.0,364.6 174.3,370.6 174.6,372.4 174.9,372.1 175.2,374.5 175.4,376.8 175.7,371.7 176.0,372.0 176.3,376.6 176.6,373.8 176.8,374.4 177.1,377.1 177.4,376.0 177.7,376.5 177.9,373.9 178.2,370.9 178.5,369.2 178.8,370.3 179.1,367.4 179.3,368.2 179.6,372.7 179.9,376.7 180.2,377.1 180.5,377.8 180.7,376.1 181.0,374.5 181.3,376.6 181.6,374.4 181.8,372.9 182.1,372.2 182.4,371.6 182.7,370.9 183.0,374.7 183.2,374.7 183.5,374.3 183.8,372.7 184.1,371.7 184.4,368.7 184.6,365.4 184.9,373.5 185.2,367.1 185.5,363.9 185.7,367.3 186.0,360.7 186.3,358.4 186.6,356.5 186.9,359.5 187.1,362.2 187.4,364.8 187.7,363.3 188.0,361.5 188.3,364.2 188.5,364.2 188.8,360.7 189.1,359.8 189.4,361.1 189.6,363.7 189.9,363.0 190.2,356.9 190.5,358.8 190.8,357.9 191.0,355.8 191.3,361.0 191.6,359.4 191.9,355.4 192.2,355.6 192.4,354.1 192.7,349.9 193.0,353.4 193.3,353.8 193.5,353.1 193.8,359.0 194.1,356.5 194.4,352.8 194.7,351.1 194.9,349.7 195.2,351.0 195.5,352.5 195.8,353.1 196.1,350.2 196.3,354.4 196.6,354.7 196.9,351.8 197.2,351.9 197.4,345.2 197.7,346.7 198.0,350.6 198.3,347.3 198.6,346.4 198.8,345.4 199.1,348.6 199.4,348.5 199.7,353.3 200.0,350.9 200.2,354.0 200.5,362.1 200.8,361.2 201.1,363.9 201.3,359.7 201.6,356.3 201.9,352.2 202.2,342.6 202.5,344.6 202.7,345.5 203.0,346.1 203.3,344.9 203.6,343.3 203.9,343.1 204.1,340.6 204.4,342.3 204.7,340.8 205.0,337.8 205.2,339.7 205.5,342.2 205.8,339.1 206.1,334.5 206.4,329.0 206.6,326.9 206.9,325.2 207.2,325.9 207.5,332.4 207.8,335.0 208.0,335.2 208.3,331.9 208.6,334.3 208.9,326.1 209.1,327.6 209.4,321.8 209.7,317.2 210.0,316.6 210.3,320.5 210.5,316.8 210.8,316.6 211.1,319.3 211.4,322.8 211.7,316.7 211.9,314.8 212.2,313.4 212.5,314.5 212.8,318.2 213.0,318.8 213.3,319.7 213.6,317.0 213.9,327.1 214.2,323.4 214.4,311.5 214.7,307.4 215.0,306.9 215.3,305.1 215.6,309.5 215.8,311.3 216.1,310.8 216.4,307.8 216.7,301.8 216.9,302.7 217.2,302.0 217.5,302.2 217.8,304.3 218.1,298.6 218.3,296.2 218.6,295.5 218.9,300.2 219.2,318.3 219.5,309.9 219.7,309.2 220.0,311.1 220.3,305.7 220.6,308.2 220.8,303.9 221.1,304.8 221.4,309.3 221.7,311.5 222.0,301.4 222.2,294.8 222.5,295.5 222.8,292.6 223.1,291.1 223.4,286.2 223.6,280.0 223.9,282.2 224.2,281.7 224.5,286.1 224.7,285.8 225.0,285.2 225.3,283.4 225.6,284.7 225.9,287.9 226.1,290.1 226.4,288.5 226.7,293.0 227.0,290.7 227.3,292.9 227.5,293.4 227.8,298.3 228.1,297.9 228.4,294.7 228.6,294.2 228.9,291.5 229.2,284.1 229.5,285.5 229.8,285.1 230.0,282.3 230.3,281.0 230.6,285.8 230.9,283.9 231.2,279.3 231.4,279.9 231.7,276.7 232.0,274.4 232.3,272.2 232.5,269.2 232.8,267.8 233.1,266.0 233.4,271.2 233.7,269.5 233.9,274.2 234.2,274.9 234.5,272.9 234.8,260.8 235.1,260.2 235.3,265.1 235.6,257.4 235.9,246.0 236.2,243.3 236.4,252.3 236.7,256.2 237.0,249.4 237.3,253.0 237.6,247.4 237.8,236.4 238.1,243.0 238.4,265.6 238.7,266.0 239.0,277.8 239.2,274.2 239.5,280.0 239.8,286.6 240.1,287.4 240.3,285.7 240.6,285.5 240.9,287.5 241.2,294.6 241.5,293.7 241.7,287.3 242.0,294.9 242.3,289.5 242.6,291.3 242.9,296.1 243.1,297.2 243.4,288.9 243.7,289.3 244.0,283.4 244.2,284.1 244.5,283.7 244.8,278.4 245.1,285.4 245.4,283.1 245.6,280.8 245.9,276.8 246.2,274.6 246.5,272.0 246.8,273.8 247.0,268.9 247.3,265.3 247.6,263.7 247.9,267.3 248.1,265.6 248.4,264.8 248.7,260.3 249.0,267.1 249.3,264.3 249.5,266.2 249.8,255.6 250.1,252.1 250.4,251.9 250.7,251.0 250.9,248.6 251.2,257.4 251.5,261.8 251.8,256.5 252.0,257.7 252.3,249.1 252.6,245.0 252.9,264.6 253.2,280.7 253.4,289.7 253.7,312.1 254.0,306.6 254.3,301.0 254.6,296.0 254.8,284.9 255.1,282.0 255.4,279.5 255.7,289.4 256.0,293.9 256.2,288.8 256.5,294.5 256.8,290.9 257.1,285.9 257.3,290.6 257.6,287.3 257.9,280.7 258.2,277.0 258.5,280.7 258.7,285.5 259.0,284.8 259.3,289.7 259.6,288.4 259.9,286.4 260.1,289.8 260.4,295.1 260.7,309.7 261.0,305.8 261.2,298.0 261.5,305.4 261.8,304.7 262.1,298.8 262.4,296.1 262.6,299.2 262.9,302.4 263.2,299.4 263.5,302.0 263.8,302.1 264.0,303.8 264.3,305.3 264.6,303.1 264.9,314.0 265.1,309.2 265.4,305.1 265.7,311.7 266.0,321.6 266.3,313.9 266.5,310.6 266.8,317.2 267.1,314.1 267.4,313.5 267.7,308.2 267.9,309.4 268.2,300.8 268.5,300.4 268.8,302.5 269.0,299.8 269.3,304.6 269.6,302.2 269.9,298.1 270.2,301.0 270.4,305.2 270.7,300.9 271.0,299.7 271.3,301.3 271.6,308.1 271.8,311.0 272.1,312.3 272.4,310.6 272.7,314.4 272.9,323.6 273.2,314.9 273.5,324.3 273.8,322.0 274.1,314.7 274.3,314.3 274.6,319.3 274.9,322.7 275.2,325.9 275.5,318.3 275.7,323.2 276.0,326.2 276.3,331.4 276.6,344.4 276.8,339.5 277.1,343.7 277.4,340.0 277.7,340.7 278.0,344.1 278.2,353.7 278.5,358.7 278.8,347.1 279.1,358.6 279.4,358.9 279.6,364.3 279.9,366.7 280.2,365.8 280.5,356.5 280.7,353.7 281.0,361.3 281.3,353.3 281.6,351.7 281.9,350.2 282.1,352.1 282.4,353.5 282.7,353.1 283.0,348.5 283.3,341.2 283.5,335.2 283.8,334.1 284.1,339.6 284.4,340.7 284.6,341.4 284.9,340.8 285.2,348.5 285.5,353.1 285.8,359.7 286.0,363.3 286.3,349.4 286.6,353.8 286.9,345.2 287.2,347.0 287.4,347.2 287.7,349.2 288.0,357.9 288.3,360.6 288.5,366.1 288.8,361.5 289.1,354.7 289.4,357.9 289.7,355.9 289.9,354.1 290.2,345.1 290.5,345.1 290.8,347.7 291.1,351.3 291.3,351.1 291.6,351.6 291.9,345.4 292.2,353.0 292.4,355.6 292.7,355.8 293.0,363.2 293.3,362.5 293.6,364.0 293.8,357.8 294.1,360.4 294.4,363.8 294.7,356.2 295.0,349.0 295.2,349.8 295.5,340.2 295.8,344.2 296.1,342.1 296.3,344.4 296.6,341.0 296.9,356.4 297.2,355.4 297.5,356.2 297.7,374.3 298.0,366.6 298.3,373.4 298.6,376.5 298.9,374.7 299.1,384.4 299.4,373.4 299.7,359.6 300.0,369.2 300.2,371.0 300.5,371.7 300.8,373.9 301.1,386.3 301.4,383.2 301.6,378.0 301.9,377.4 302.2,370.5 302.5,372.6 302.8,374.6 303.0,377.4 303.3,380.6 303.6,384.1 303.9,379.1 304.1,373.8 304.4,377.5 304.7,370.8 305.0,367.0 305.3,359.8 305.5,370.9 305.8,370.4 306.1,372.0 306.4,381.9 306.7,381.9 306.9,382.1 307.2,376.1 307.5,382.8 307.8,378.7 308.0,369.9 308.3,368.4 308.6,369.8 308.9,377.9 309.2,375.4 309.4,380.0 309.7,376.8 310.0,375.7 310.3,371.1 310.6,379.8 310.8,381.2 311.1,385.5 311.4,389.9 311.7,388.4 311.9,393.4 312.2,391.9 312.5,396.2 312.8,398.0 313.1,400.6 313.3,399.2 313.6,403.0 313.9,405.0 314.2,400.9 314.5,397.6 314.7,399.2 315.0,396.6 315.3,398.2 315.6,395.9 315.8,397.6 316.1,392.9 316.4,393.6 316.7,394.0 317.0,390.3 317.2,389.4 317.5,393.0 317.8,392.3 318.1,391.4 318.4,390.0 318.6,389.3 318.9,387.8 319.2,391.0 319.5,390.3 319.7,383.6 320.0,376.7 320.3,372.5 320.6,366.5 320.9,366.9 321.1,376.6 321.4,362.7 321.7,365.1 322.0,361.8 322.3,362.1 322.5,353.8 322.8,333.6 323.1,338.2 323.4,340.2 323.6,340.5 323.9,331.5 324.2,323.0 324.5,318.1 324.8,309.4 325.0,306.9 325.3,324.9 325.6,311.9 325.9,307.1 326.2,319.0 326.4,331.4 326.7,326.1 327.0,314.3 327.3,314.5 327.5,313.6 327.8,307.7 328.1,308.9 328.4,319.8 328.7,330.8 328.9,327.0 329.2,330.4 329.5,309.4 329.8,296.6 330.1,298.8 330.3,292.9 330.6,285.0 330.9,289.2 331.2,285.7 331.4,286.1 331.7,298.4 332.0,296.8 332.3,302.1 332.6,293.4 332.8,292.0 333.1,296.0 333.4,295.8 333.7,305.3 334.0,307.5 334.2,304.1 334.5,315.6 334.8,319.4 335.1,324.2 335.3,319.6 335.6,344.9 335.9,339.9 336.2,348.3 336.5,356.7 336.7,339.4 337.0,343.5 337.3,346.1 337.6,334.6 337.9,332.7 338.1,343.2 338.4,349.3 338.7,343.1 339.0,345.3 339.2,352.8 339.5,351.3 339.8,348.2 340.1,341.3 340.4,342.4 340.6,345.4 340.9,346.3 341.2,347.7 341.5,352.3 341.8,354.0 342.0,357.4 342.3,353.4 342.6,341.7 342.9,342.1 343.1,343.2 343.4,346.8 343.7,347.6 344.0,346.1 344.3,343.2 344.5,335.3 344.8,333.4 345.1,331.4 345.4,331.9 345.7,334.1 345.9,331.4 346.2,330.5 346.5,320.0 346.8,321.4 347.0,327.1 347.3,330.0 347.6,326.5 347.9,337.1 348.2,337.6 348.4,337.4 348.7,337.0 349.0,334.2 349.3,330.1 349.6,332.4 349.8,333.9 350.1,339.7 350.4,333.3 350.7,335.0 350.9,332.6 351.2,328.8 351.5,324.1 351.8,323.8 352.1,325.6 352.3,325.2 352.6,327.7 352.9,328.8 353.2,334.0 353.5,342.7 353.7,347.1 354.0,348.6 354.3,344.4 354.6,349.1 354.8,341.4 355.1,346.3 355.4,344.3 355.7,340.3 356.0,338.7 356.2,327.8 356.5,329.0 356.8,329.4 357.1,327.7 357.4,325.0 357.6,329.3 357.9,323.7 358.2,326.2 358.5,328.3 358.7,330.8 359.0,324.2 359.3,323.9 359.6,324.3 359.9,321.8 360.1,320.9 360.4,318.4 360.7,319.7 361.0,326.0 361.3,324.5 361.5,323.1 361.8,329.9 362.1,326.5 362.4,323.7 362.6,321.2 362.9,325.7 363.2,323.6 363.5,328.5 363.8,337.2 364.0,336.0 364.3,338.8 364.6,339.5 364.9,338.7 365.2,334.2 365.4,331.8 365.7,324.3 366.0,329.7 366.3,330.4 366.5,329.7 366.8,336.3 367.1,334.6 367.4,332.3 367.7,334.3 367.9,332.8 368.2,328.2 368.5,326.5 368.8,329.2 369.1,329.4 369.3,332.5 369.6,323.1 369.9,319.2 370.2,315.0 370.4,317.0 370.7,315.7 371.0,317.9 371.3,324.8 371.6,322.7 371.8,320.3 372.1,318.8 372.4,321.0 372.7,315.8 373.0,311.1 373.2,316.7 373.5,319.5 373.8,325.7 374.1,324.4 374.3,322.4 374.6,323.1 374.9,324.5 375.2,327.7 375.5,326.7 375.7,325.1 376.0,326.9 376.3,322.9 376.6,321.6 376.9,321.1 377.1,316.9 377.4,318.0 377.7,318.2 378.0,312.3 378.2,303.8 378.5,298.5 378.8,299.8 379.1,300.1 379.4,302.7 379.6,308.2 379.9,302.4 380.2,299.6 380.5,297.9 380.8,300.5 381.0,295.7 381.3,291.2 381.6,283.2 381.9,283.6 382.1,284.8 382.4,282.2 382.7,290.6 383.0,285.2 383.3,285.9 383.5,281.2 383.8,283.4 384.1,286.6 384.4,288.6 384.7,288.2 384.9,284.3 385.2,295.6 385.5,291.6 385.8,311.0 386.0,341.2 386.3,329.6 386.6,317.8 386.9,303.7 387.2,305.2 387.4,305.6 387.7,305.5 388.0,298.9 388.3,302.8 388.6,300.3 388.8,286.8 389.1,283.5 389.4,287.5 389.7,276.5 390.0,271.2 390.2,266.1 390.5,263.5 390.8,279.2 391.1,276.4 391.3,296.9 391.6,276.7 391.9,272.8 392.2,270.6 392.5,266.4 392.7,273.7 393.0,291.5 393.3,278.4 393.6,284.2 393.9,295.0 394.1,299.3 394.4,321.7 394.7,321.4 395.0,330.3 395.2,329.5 395.5,323.4 395.8,340.3 396.1,329.7 396.4,317.8 396.6,321.6 396.9,320.1 397.2,324.2 397.5,325.8 397.8,331.6 398.0,330.0 398.3,329.7 398.6,321.4 398.9,324.1 399.1,322.6 399.4,326.6 399.7,327.8 400.0,323.1 400.3,323.6 400.5,321.2 400.8,322.8 401.1,322.5 401.4,324.2 401.7,320.4 401.9,321.1 402.2,323.0 402.5,321.0 402.8,323.2 403.0,323.9 403.3,322.4 403.6,316.3 403.9,317.3 404.2,312.4 404.4,311.7 404.7,311.4 405.0,310.2 405.3,313.4 405.6,315.0 405.8,314.4 406.1,306.5 406.4,309.6 406.7,311.6 406.9,321.3 407.2,319.5 407.5,311.4 407.8,315.5 408.1,316.3 408.3,313.0 408.6,302.3 408.9,303.4 409.2,302.9 409.5,304.4 409.7,301.7 410.0,299.6 410.3,296.3 410.6,295.5 410.8,299.0 411.1,297.5 411.4,303.5 411.7,295.1 412.0,293.9 412.2,290.2 412.5,284.9 412.8,286.4 413.1,284.1 413.4,283.4 413.6,286.8 413.9,280.0 414.2,272.8 414.5,265.5 414.7,252.0 415.0,227.6 415.3,220.8 415.6,205.7 415.9,190.2 416.1,196.9 416.4,180.6 416.7,185.3 417.0,196.3 417.3,227.8 417.5,225.2 417.8,214.5 418.1,212.5 418.4,204.0 418.6,203.3 418.9,234.6 419.2,228.6 419.5,223.4 419.8,207.3 420.0,212.7 420.3,202.9 420.6,185.0 420.9,195.9 421.2,183.6 421.4,177.6 421.7,179.4 422.0,185.7 422.3,193.6 422.5,209.5 422.8,209.3 423.1,201.6 423.4,187.3 423.7,183.1 423.9,192.6 424.2,202.2 424.5,199.7 424.8,194.6 425.1,197.6 425.3,205.6 425.6,201.0 425.9,187.9 426.2,192.1 426.4,188.5 426.7,188.6 427.0,189.3 427.3,194.3 427.6,204.1 427.8,199.5 428.1,212.1 428.4,211.3 428.7,208.5 429.0,208.9 429.2,202.9 429.5,202.9 429.8,205.5 430.1,195.8 430.3,203.0 430.6,214.5 430.9,214.0 431.2,225.5 431.5,227.2 431.7,226.1 432.0,224.5 432.3,226.3 432.6,214.2 432.9,200.9 433.1,196.7 433.4,203.3 433.7,204.4 434.0,205.4 434.2,208.7 434.5,201.1 434.8,200.7 435.1,204.8 435.4,212.2 435.6,212.6 435.9,215.4 436.2,210.1 436.5,204.7 436.8,215.5 437.0,200.6 437.3,196.4 437.6,183.3 437.9,171.8 438.1,168.8 438.4,160.9 438.7,169.0 439.0,180.0 439.3,175.1 439.5,176.9 439.8,170.6 440.1,171.4 440.4,170.4 440.7,166.7 440.9,156.3 441.2,149.5 441.5,155.4 441.8,164.0 442.0,167.7 442.3,162.4 442.6,166.3 442.9,150.6 443.2,151.5 443.4,163.4 443.7,163.6 444.0,172.6 444.3,176.1 444.6,186.5 444.8,189.0 445.1,194.7 445.4,195.8 445.7,194.7 445.9,193.3 446.2,182.8 446.5,179.7 446.8,175.5 447.1,199.1 447.3,187.8 447.6,190.8 447.9,178.3 448.2,175.0 448.5,181.9 448.7,171.3 449.0,158.0 449.3,139.9 449.6,125.4 449.8,126.4 450.1,102.7 450.4,105.4 450.7,112.8 451.0,91.3 451.2,97.0 451.5,121.1 451.8,129.0 452.1,125.3 452.4,140.0 452.6,128.9 452.9,114.5 453.2,104.6 453.5,88.8 453.7,105.8 454.0,107.7 454.3,132.1 454.6,131.3 454.9,120.9 455.1,106.1 455.4,112.3 455.7,115.9 456.0,124.4 456.3,108.0 456.5,87.3 456.8,79.5 457.1,79.9 457.4,78.7 457.6,94.5 457.9,98.7 458.2,117.6 458.5,118.8 458.8,137.0 459.0,120.6 459.3,130.4 459.6,113.2 459.9,127.1 460.2,141.8 460.4,154.0 460.7,160.6 461.0,163.7 461.3,142.5 461.5,139.2 461.8,136.3 462.1,136.3 462.4,138.2 462.7,130.7 462.9,145.4 463.2,137.7 463.5,152.5 463.8,174.9 464.1,174.3 464.3,161.4 464.6,158.4 464.9,152.9 465.2,156.3 465.4,154.8 465.7,158.9 466.0,160.7 466.3,154.5 466.6,158.4 466.8,160.8 467.1,165.6 467.4,172.2 467.7,167.6 468.0,172.4 468.2,166.7 468.5,162.0 468.8,163.5 469.1,163.8 469.3,165.6 469.6,170.0 469.9,173.8 470.2,176.0 470.5,172.1 470.7,168.8 471.0,176.4 471.3,181.5 471.6,187.7 471.9,179.6 472.1,179.9 472.4,174.9 472.7,181.3 473.0,169.5 473.2,158.8 473.5,156.8 473.8,156.6 474.1,161.0 474.4,160.0 474.6,160.1 474.9,142.3 475.2,139.8 475.5,139.3 475.8,134.8 476.0,131.9 476.3,135.2 476.6,145.8 476.9,150.7 477.1,147.5 477.4,144.2 477.7,145.8 478.0,145.8 478.3,141.6 478.5,150.7 478.8,158.8 479.1,169.3 479.4,161.6 479.7,156.2 479.9,155.4 480.2,147.8 480.5,145.6 480.8,149.0 481.0,134.7 481.3,129.7 481.6,138.4 481.9,133.0 482.2,139.4 482.4,150.1 482.7,145.7 483.0,148.8 483.3,141.9 483.6,146.0 483.8,148.8 484.1,141.2 484.4,143.7 484.7,155.1 484.9,153.9 485.2,157.3 485.5,153.1 485.8,151.0 486.1,140.7 486.3,139.2 486.6,143.9 486.9,161.0 487.2,180.8 487.5,182.3 487.7,166.2 488.0,166.5 488.3,149.0 488.6,157.6 488.8,142.1 489.1,151.9 489.4,149.8 489.7,150.2 490.0,149.4 490.2,149.4 490.5,146.4 490.8,151.7 491.1,158.0 491.4,167.1 491.6,158.1 491.9,157.9 492.2,163.1 492.5,145.3 492.7,137.4 493.0,129.2 493.3,135.1 493.6,128.4 493.9,121.7 494.1,108.7 494.4,105.2 494.7,87.4 495.0,101.4 495.3,91.8 495.5,74.3 495.8,71.8 496.1,59.1 496.4,64.2 496.6,55.0 496.9,77.0 497.2,80.7 497.5,96.9 497.8,99.0 498.0,83.3 498.3,73.3 498.6,88.2 498.9,113.8 499.2,103.5 499.4,126.6 499.7,120.7 500.0,122.1 500.3,130.8 500.5,140.8 500.8,144.0 501.1,153.0 501.4,152.2 501.7,150.3 501.9,146.9 502.2,144.3 502.5,143.8 502.8,148.8 503.1,142.8 503.3,145.3 503.6,144.9 503.9,150.5 504.2,144.9 504.4,154.1 504.7,158.0 505.0,162.9 505.3,153.3 505.6,157.2 505.8,156.3 506.1,159.6 506.4,168.2 506.7,160.7 507.0,156.6 507.2,156.0 507.5,158.4 507.8,160.4 508.1,167.0 508.3,160.3 508.6,158.2 508.9,160.4 509.2,161.7 509.5,164.3 509.7,169.5 510.0,173.0 510.3,175.9 510.6,168.9 510.9,162.8 511.1,160.3 511.4,161.0 511.7,161.6 512.0,147.1 512.2,138.5 512.5,149.5 512.8,145.9 513.1,145.2 513.4,149.1 513.6,142.4 513.9,153.4 514.2,159.8 514.5,154.4 514.8,151.3 515.0,147.2 515.3,146.5 515.6,147.6 515.9,145.9 516.1,156.5 516.4,151.4 516.7,146.2 517.0,144.0 517.3,150.9 517.5,154.0 517.8,152.0 518.1,149.8 518.4,151.6 518.7,153.1 518.9,164.5 519.2,169.4 519.5,163.7 519.8,152.0 520.0,154.2 520.3,148.4 520.6,156.1 520.9,153.2 521.2,169.4 521.4,164.7 521.7,173.4 522.0,179.0 522.3,160.6 522.6,151.0 522.8,150.7 523.1,136.9 523.4,139.6 523.7,153.2 524.0,159.1 524.2,153.8 524.5,159.0 524.8,146.0 525.1,145.2 525.3,151.5 525.6,159.9 525.9,169.1 526.2,172.5 526.5,172.9 526.7,171.7 527.0,167.7 527.3,162.7 527.6,168.0 527.9,173.7 528.1,187.5 528.4,195.6 528.7,195.9 529.0,197.8 529.2,214.8 529.5,249.0 529.8,230.9 530.1,224.3 530.4,218.5 530.6,214.5 530.9,210.0 531.2,210.5 531.5,207.5 531.8,214.0 532.0,210.3 532.3,208.2 532.6,203.5 532.9,209.8 533.1,204.0 533.4,198.2 533.7,207.1 534.0,203.0 534.3,206.8 534.5,205.3 534.8,206.8 535.1,200.0 535.4,199.4 535.7,206.9 535.9,203.4 536.2,216.6 536.5,224.1 536.8,219.0 537.0,236.1 537.3,238.2 537.6,236.7 537.9,228.3 538.2,224.4 538.4,222.5 538.7,236.6 539.0,241.5 539.3,234.6 539.6,235.4 539.8,235.1 540.1,226.8 540.4,229.4 540.7,228.5 540.9,232.7 541.2,230.0 541.5,221.1 541.8,227.0 542.1,235.0 542.3,228.0 542.6,224.5 542.9,223.8 543.2,222.4 543.5,217.5 543.7,214.9 544.0,208.9 544.3,199.5 544.6,202.9 544.8,196.1 545.1,205.7 545.4,193.2 545.7,186.4 546.0,180.1 546.2,180.6 546.5,183.6 546.8,178.2 547.1,174.7 547.4,178.6 547.6,188.2 547.9,171.7 548.2,167.1 548.5,159.0 548.7,149.0 549.0,168.6 549.3,165.4 549.6,169.4 549.9,166.6 550.1,169.6 550.4,182.3 550.7,183.1 551.0,184.0 551.3,193.8 551.5,196.3 551.8,191.4 552.1,190.6 552.4,199.6 552.6,195.0 552.9,197.7 553.2,193.7 553.5,197.5 553.8,198.0 554.0,201.6 554.3,196.7 554.6,199.3 554.9,202.1 555.2,211.2 555.4,210.1 555.7,219.9 556.0,222.6 556.3,221.9 556.5,219.5 556.8,218.5 557.1,219.8 557.4,220.7 557.7,212.8 557.9,215.7 558.2,215.5 558.5,214.6 558.8,209.7 559.1,214.8 559.3,218.6 559.6,215.3 559.9,218.1 560.2,230.4 560.4,225.9 560.7,228.0 561.0,225.2 561.3,226.1 561.6,230.3 561.8,229.6 562.1,229.7 562.4,217.5 562.7,210.2 563.0,211.4 563.2,213.0 563.5,204.9 563.8,208.8 564.1,212.9 564.3,214.5 564.6,233.6 564.9,234.3 565.2,238.7 565.5,234.8 565.7,235.7 566.0,239.1 566.3,247.3 566.6,243.7 566.9,250.3 567.1,250.3 567.4,247.5 567.7,252.0 568.0,255.4 568.2,254.8 568.5,257.6 568.8,253.5 569.1,250.1 569.4,250.9 569.6,258.6 569.9,259.7 570.2,256.3 570.5,271.1 570.8,271.3 571.0,272.3 571.3,273.5 571.6,280.0 571.9,294.7 572.1,286.8 572.4,281.5 572.7,288.1 573.0,280.3 573.3,282.0 573.5,284.5 573.8,284.5 574.1,288.8 574.4,280.2 574.7,277.3 574.9,271.4 575.2,272.0 575.5,271.8 575.8,270.4 576.0,273.3 576.3,277.3 576.6,279.5 576.9,279.6 577.2,278.7 577.4,281.8 577.7,274.1 578.0,273.5 578.3,273.3 578.6,278.7 578.8,257.0 579.1,260.3 579.4,266.4 579.7,262.7 579.9,256.4 580.2,269.4 580.5,267.6 580.8,267.8 581.1,272.9 581.3,267.1 581.6,279.6 581.9,286.9 582.2,285.4 582.5,285.9 582.7,284.2 583.0,289.2 583.3,282.4 583.6,280.1 583.8,286.0 584.1,281.4 584.4,282.9 584.7,281.8 585.0,271.4 585.2,276.4 585.5,271.0 585.8,270.9 586.1,273.5 586.4,273.9 586.6,262.6 586.9,257.2 587.2,258.6 587.5,259.9 587.7,257.7 588.0,256.7 588.3,259.5 588.6,269.2 588.9,261.3 589.1,267.0 589.4,269.7 589.7,274.5 590.0,273.1 590.3,276.7 590.5,270.7 590.8,273.5 591.1,269.1 591.4,266.6 591.6,265.3 591.9,273.4 592.2,278.7 592.5,261.8 592.8,256.5 593.0,261.3 593.3,263.1 593.6,267.7 593.9,271.7 594.2,267.3 594.4,257.7 594.7,253.0 595.0,251.1 595.3,252.4 595.5,260.3 595.8,260.7 596.1,263.5 596.4,271.7 596.7,261.4 596.9,265.9 597.2,261.5 597.5,267.6 597.8,258.5 598.1,263.7 598.3,262.9 598.6,259.0 598.9,249.9 599.2,254.7 599.4,258.2 599.7,259.0 600.0,258.7 600.3,256.8 600.6,251.4 600.8,247.5 601.1,239.2 601.4,238.5 601.7,237.7 602.0,240.5 602.2,239.4 602.5,232.4 602.8,236.5 603.1,233.0 603.3,227.8 603.6,226.2 603.9,228.7 604.2,226.9 604.5,237.9 604.7,241.9 605.0,238.1 605.3,243.4 605.6,240.2 605.9,230.5 606.1,218.9 606.4,224.5 606.7,207.5 607.0,219.1 607.2,233.7 607.5,237.5 607.8,247.8 608.1,239.3 608.4,244.0 608.6,245.0 608.9,239.9 609.2,247.9 609.5,249.1 609.8,260.2 610.0,270.7 610.3,270.2 610.6,268.6 610.9,262.8 611.1,256.8 611.4,261.4 611.7,264.8 612.0,265.6 612.3,262.7 612.5,270.7 612.8,269.6 613.1,265.5 613.4,263.9 613.7,269.3 613.9,268.2 614.2,271.4 614.5,268.8 614.8,266.8 615.0,265.2 615.3,263.6 615.6,267.0 615.9,271.0 616.2,265.2 616.4,263.8 616.7,262.0 617.0,260.3 617.3,255.6 617.6,256.2 617.8,257.3 618.1,260.1 618.4,259.8 618.7,260.8 618.9,255.8 619.2,257.9 619.5,253.5 619.8,251.0 620.1,254.0 620.3,254.2 620.6,256.1 620.9,261.4 621.2,262.8 621.5,263.4 621.7,250.8 622.0,254.6 622.3,257.6 622.6,250.0 622.8,246.7 623.1,252.2 623.4,252.6 623.7,246.1 624.0,244.0 624.2,248.5 624.5,249.8 624.8,251.9 625.1,248.9 625.4,262.1 625.6,267.3 625.9,265.3 626.2,268.3 626.5,267.1 626.7,272.2 627.0,282.0 627.3,276.0 627.6,284.3 627.9,281.0 628.1,280.4 628.4,271.7 628.7,268.0 629.0,273.4 629.3,280.9 629.5,278.0 629.8,273.9 630.1,274.5 630.4,275.9 630.6,278.0 630.9,279.1 631.2,275.9 631.5,275.9 631.8,275.8 632.0,270.6 632.3,274.1 632.6,273.7 632.9,271.4 633.2,272.7 633.4,276.5 633.7,272.8 634.0,273.1 634.3,274.2 634.5,275.8 634.8,276.7 635.1,274.3 635.4,279.2 635.7,280.8 635.9,276.6 636.2,276.0 636.5,273.0 636.8,270.6 637.1,273.3 637.3,282.7 637.6,285.6 637.9,290.5 638.2,289.0 638.4,283.7 638.7,283.3 639.0,280.0 639.3,285.4 639.6,283.5 639.8,284.8 640.1,285.9 640.4,283.7 640.7,277.9 641.0,276.0 641.2,277.8 641.5,276.8 641.8,276.2 642.1,279.2 642.3,278.0 642.6,274.2 642.9,276.8 643.2,275.3 643.5,275.7 643.7,277.0 644.0,280.4 644.3,277.0 644.6,279.3 644.9,278.9 645.1,274.7 645.4,278.4 645.7,277.7 646.0,278.4 646.2,277.3 646.5,284.7 646.8,284.4 647.1,285.3 647.4,285.9 647.6,279.5 647.9,277.8 648.2,283.0 648.5,285.5 648.8,289.2 649.0,288.7 649.3,289.1 649.6,294.8 649.9,293.2 650.1,291.3 650.4,287.7 650.7,292.2 651.0,288.1 651.3,287.0 651.5,282.5 651.8,281.0 652.1,280.4 652.4,281.9 652.7,285.3 652.9,290.3 653.2,291.1 653.5,294.6 653.8,295.7 654.0,295.7 654.3,294.9 654.6,293.2 654.9,300.7 655.2,298.8 655.4,299.5 655.7,308.0 656.0,303.9 656.3,296.3 656.6,285.4 656.8,284.2 657.1,284.7 657.4,289.8 657.7,295.8 658.0,300.4 658.2,298.8 658.5,294.1 658.8,291.0 659.1,291.2 659.3,293.4 659.6,281.5 659.9,277.1 660.2,272.8 660.5,267.1 660.7,268.9 661.0,276.9 661.3,276.3 661.6,277.0 661.9,274.6 662.1,271.8 662.4,268.0 662.7,264.1 663.0,265.2 663.2,264.8 663.5,262.9 663.8,265.9 664.1,274.5 664.4,275.3 664.6,274.2 664.9,272.6 665.2,271.7 665.5,274.9 665.8,273.5 666.0,273.9 666.3,278.0 666.6,278.9 666.9,278.6 667.1,282.7 667.4,278.0 667.7,268.1 668.0,264.4 668.3,263.9 668.5,259.9 668.8,257.1 669.1,260.5 669.4,258.7 669.7,256.4 669.9,255.5 670.2,246.6 670.5,256.6 670.8,248.1 671.0,250.6 671.3,250.8 671.6,256.4 671.9,266.2 672.2,259.8 672.4,260.5 672.7,253.9 673.0,259.3 673.3,260.9 673.6,252.6 673.8,253.9 674.1,256.0 674.4,248.8 674.7,244.3 674.9,239.0 675.2,239.4 675.5,243.4 675.8,243.4 676.1,241.1 676.3,239.5 676.6,242.7 676.9,246.0 677.2,249.5 677.5,251.7 677.7,242.4 678.0,245.4 678.3,246.2 678.6,250.8 678.8,253.0 679.1,252.1 679.4,250.0 679.7,253.8 680.0,252.4 680.2,250.9 680.5,259.3 680.8,254.8 681.1,258.5 681.4,258.2 681.6,261.5 681.9,258.6 682.2,259.1 682.5,260.6 682.7,259.7 683.0,266.6 683.3,268.0 683.6,267.8 683.9,271.2 684.1,263.0 684.4,256.5 684.7,254.2 685.0,257.3 685.3,256.7 685.5,258.5 685.8,254.7 686.1,247.9 686.4,253.0 686.6,251.4 686.9,253.9 687.2,249.6 687.5,245.2 687.8,250.0 688.0,246.5 688.3,245.7 688.6,252.3 688.9,256.1 689.2,252.9 689.4,259.9 689.7,261.8 690.0,258.3 690.3,262.7 690.5,264.4 690.8,266.0 691.1,270.9 691.4,276.1 691.7,275.8 691.9,278.3 692.2,280.3 692.5,282.9 692.8,283.0 693.1,281.0 693.3,284.7 693.6,281.3 693.9,283.2 694.2,281.6 694.4,286.8 694.7,286.9 695.0,291.1 695.3,286.7 695.6,289.6 695.8,294.5 696.1,296.1 696.4,295.1 696.7,287.5 697.0,289.5 697.2,287.9 697.5,292.3 697.8,291.8 698.1,295.3 698.3,302.0 698.6,303.5 698.9,304.2 699.2,306.1 699.5,305.5 699.7,298.4 700.0,296.5 700.3,294.1 700.6,291.7 700.9,275.8 701.1,269.4 701.4,250.4 701.7,235.2 702.0,199.4 702.2,155.3 702.5,194.9 702.8,204.5 703.1,219.2 703.4,209.8 703.6,222.1 703.9,222.6 704.2,232.6 704.5,211.0 704.8,211.5 705.0,208.4 705.3,206.4 705.6,213.4 705.9,209.2 706.1,206.0 706.4,212.2 706.7,216.9 707.0,214.7 707.3,221.6 707.5,213.7 707.8,187.8 708.1,185.6 708.4,164.2 708.7,170.1 708.9,161.8 709.2,170.8 709.5,170.5 709.8,185.5 710.0,200.1 710.3,206.4 710.6,202.4 710.9,198.4 711.2,197.8 711.4,217.8 711.7,224.3 712.0,227.0 712.3,214.6 712.6,217.3 712.8,205.2 713.1,200.5 713.4,200.0 713.7,207.2 713.9,204.9 714.2,197.4 714.5,195.8 714.8,193.5 715.1,192.9 715.3,189.9 715.6,201.0 715.9,207.5 716.2,207.9 716.5,204.1 716.7,202.3 717.0,202.4 717.3,207.7 717.6,201.6 717.8,202.5 718.1,201.3 718.4,200.1 718.7,196.9 719.0,209.5 719.2,224.4 719.5,231.3 719.8,232.0 720.1,229.5 720.4,226.4 720.6,230.1 720.9,235.5 721.2,241.3 721.5,232.3 721.7,233.4 722.0,231.2 722.3,233.3 722.6,235.8 722.9,236.9 723.1,243.1 723.4,238.2 723.7,236.4 724.0,231.4 724.3,234.6 724.5,232.7 724.8,231.1 725.1,229.6 725.4,227.6 725.6,227.4 725.9,230.1 726.2,227.0 726.5,231.6 726.8,232.6 727.0,231.5 727.3,230.8 727.6,232.0 727.9,232.2 728.2,236.9 728.4,234.3 728.7,232.0 729.0,239.4 729.3,237.9 729.5,238.3 729.8,235.5 730.1,227.8 730.4,225.5 730.7,228.0 730.9,225.8 731.2,230.0 731.5,233.3 731.8,225.7 732.1,227.3 732.3,226.4 732.6,227.7 732.9,230.8 733.2,238.4 733.4,237.3 733.7,240.2 734.0,241.1 734.3,241.2 734.6,242.3 734.8,246.0 735.1,248.2 735.4,250.8 735.7,254.0 736.0,286.3 736.2,278.7 736.5,275.4 736.8,266.0 737.1,266.5 737.3,262.6 737.6,262.2 737.9,258.3 738.2,259.8 738.5,259.6 738.7,254.0 739.0,250.9 739.3,255.7 739.6,254.3 739.9,256.2 740.1,255.3 740.4,257.6 740.7,260.6 741.0,260.6 741.2,257.2 741.5,258.5 741.8,257.4 742.1,256.9 742.4,254.0 742.6,252.3 742.9,252.0 743.2,254.3 743.5,255.7 743.8,251.8 744.0,249.4 744.3,249.3 744.6,252.6 744.9,253.9 745.1,255.0 745.4,255.3 745.7,255.2 746.0,254.3 746.3,253.6 746.5,254.4 746.8,256.7 747.1,257.0 747.4,253.1 747.7,253.1 747.9,250.7 748.2,248.5 748.5,251.9 748.8,252.3 749.0,253.4 749.3,254.3 749.6,258.5 749.9,257.2 750.2,254.5 750.4,249.4 750.7,242.4 751.0,243.1 751.3,246.8 751.6,244.3 751.8,244.3 752.1,246.0 752.4,242.2 752.7,240.8 752.9,241.5 753.2,239.5 753.5,244.3 753.8,240.2 754.1,233.9 754.3,234.9 754.6,236.2 754.9,238.7 755.2,232.8 755.5,226.8 755.7,222.8 756.0,222.4 756.3,220.2 756.6,213.1 756.8,214.1 757.1,208.6 757.4,208.9 757.7,209.2 758.0,221.2 758.2,228.9 758.5,228.9 758.8,224.3 759.1,224.0 759.4,222.1 759.6,223.1 759.9,221.2 760.2,221.2 760.5,219.6 760.7,220.5 761.0,215.2 761.3,209.4 761.6,212.0 761.9,206.6 762.1,202.3 762.4,192.7 762.7,179.0 763.0,185.1 763.3,197.6 763.5,193.3 763.8,192.0 764.1,184.3 764.4,191.8 764.6,196.8 764.9,208.4 765.2,196.7 765.5,195.1 765.8,195.1 766.0,198.1 766.3,186.2 766.6,184.0 766.9,185.2 767.2,188.1 767.4,188.4 767.7,200.5 768.0,200.0 768.3,192.7 768.5,195.6 768.8,189.6 769.1,182.9 769.4,186.9 769.7,168.9 769.9,158.3 770.2,134.7 770.5,144.1 770.8,145.2 771.1,153.3 771.3,142.5 771.6,147.2 771.9,164.6 772.2,165.1 772.4,156.9 772.7,163.4 773.0,161.4 773.3,155.6 773.6,147.3 773.8,158.6 774.1,140.1 774.4,140.3 774.7,149.7 775.0,142.6 775.2,146.8 775.5,140.4 775.8,126.8 776.1,126.1 776.3,115.7 776.6,121.2 776.9,121.6 777.2,111.0 777.5,124.1 777.7,128.4 778.0,138.1 778.3,129.8 778.6,135.0 778.9,152.9 779.1,155.4 779.4,150.9 779.7,150.8 780.0,149.6 780.2,147.5 780.5,142.5 780.8,143.2 781.1,145.8 781.4,149.2 781.6,147.6 781.9,147.9 782.2,154.2 782.5,156.2 782.8,157.5 783.0,153.6 783.3,153.2 783.6,155.9 783.9,148.5 784.1,146.0 784.4,143.4 784.7,140.3 785.0,138.5 785.3,139.9 785.5,140.6 785.8,138.0 786.1,138.0 786.4,138.3 786.7,135.9 786.9,125.1 787.2,105.3 787.5,106.3 787.8,113.5 788.0,108.8 788.3,105.4 788.6,107.6 788.9,111.6 789.2,111.4 789.4,118.3 789.7,109.0 790.0,103.1"/><line x1="825" y1="75" x2="849" y2="75" stroke="#1f77b4" stroke-width="2"/><text x="855" y="79" font-size="11">20日动量</text><polyline fill="none" stroke="#d62728" stroke-width="2" points="120.0,405.0 120.3,393.5 120.6,393.3 120.8,388.3 121.1,386.4 121.4,386.7 121.7,391.4 122.0,397.0 122.2,396.2 122.5,392.3 122.8,391.7 123.1,390.4 123.3,388.6 123.6,385.5 123.9,381.1 124.2,383.8 124.5,383.5 124.7,388.1 125.0,386.9 125.3,388.8 125.6,391.8 125.9,385.1 126.1,385.0 126.4,383.2 126.7,380.6 127.0,381.8 127.2,385.2 127.5,386.3 127.8,381.2 128.1,381.0 128.4,376.3 128.6,375.7 128.9,377.0 129.2,380.3 129.5,379.9 129.8,384.9 130.0,385.6 130.3,386.0 130.6,386.8 130.9,385.9 131.1,387.3 131.4,387.4 131.7,388.0 132.0,384.4 132.3,384.8 132.5,384.8 132.8,391.5 133.1,398.8 133.4,398.8 133.7,397.1 133.9,397.0 134.2,398.0 134.5,397.4 134.8,398.1 135.0,400.6 135.3,400.8 135.6,400.0 135.9,399.1 136.2,400.5 136.4,400.3 136.7,399.9 137.0,399.9 137.3,399.7 137.6,392.5 137.8,393.2 138.1,393.2 138.4,392.6 138.7,393.1 138.9,393.6 139.2,394.4 139.5,401.7 139.8,401.1 140.1,398.5 140.3,400.4 140.6,398.4 140.9,398.9 141.2,399.1 141.5,396.3 141.7,396.8 142.0,399.9 142.3,396.5 142.6,395.9 142.8,394.3 143.1,394.4 143.4,394.1 143.7,388.8 144.0,387.2 144.2,388.1 144.5,387.9 144.8,389.4 145.1,388.4 145.4,381.7 145.6,379.4 145.9,380.5 146.2,379.4 146.5,379.9 146.7,381.0 147.0,382.4 147.3,381.0 147.6,383.5 147.9,382.7 148.1,379.5 148.4,381.9 148.7,380.8 149.0,381.3 149.3,381.5 149.5,380.4 149.8,380.3 150.1,380.1 150.4,378.9 150.6,375.7 150.9,374.6 151.2,374.8 151.5,375.3 151.8,368.9 152.0,361.5 152.3,362.9 152.6,363.3 152.9,363.1 153.2,362.4 153.4,364.6 153.7,364.9 154.0,365.5 154.3,367.5 154.5,367.7 154.8,367.6 155.1,367.2 155.4,366.4 155.7,368.6 155.9,367.8 156.2,366.9 156.5,366.1 156.8,365.2 157.1,365.6 157.3,367.3 157.6,371.7 157.9,372.1 158.2,374.2 158.4,372.2 158.7,372.9 159.0,371.7 159.3,370.5 159.6,370.8 159.8,374.8 160.1,373.4 160.4,374.8 160.7,373.6 161.0,373.4 161.2,369.9 161.5,368.6 161.8,369.9 162.1,369.2 162.3,367.5 162.6,369.0 162.9,364.7 163.2,364.7 163.5,364.6 163.7,362.1 164.0,357.4 164.3,356.8 164.6,359.2 164.9,360.4 165.1,361.5 165.4,361.7 165.7,360.5 166.0,363.4 166.2,360.7 166.5,360.9 166.8,358.6 167.1,357.9 167.4,359.2 167.6,354.4 167.9,351.0 168.2,348.3 168.5,350.4 168.8,350.7 169.0,349.5 169.3,351.2 169.6,348.0 169.9,344.0 170.1,343.5 170.4,342.6 170.7,338.5 171.0,335.1 171.3,333.2 171.5,338.0 171.8,333.2 172.1,333.1 172.4,336.5 172.7,339.3 172.9,336.9 173.2,336.8 173.5,333.7 173.8,338.5 174.0,338.5 174.3,340.5 174.6,345.4 174.9,346.0 175.2,346.1 175.4,349.7 175.7,345.5 176.0,345.8 176.3,347.5 176.6,346.6 176.8,347.6 177.1,348.7 177.4,348.5 177.7,347.9 177.9,343.7 178.2,341.7 178.5,340.2 178.8,340.7 179.1,338.7 179.3,338.7 179.6,340.4 179.9,342.0 180.2,340.9 180.5,338.9 180.7,339.0 181.0,336.2 181.3,336.8 181.6,335.1 181.8,334.2 182.1,332.1 182.4,331.8 182.7,330.2 183.0,332.8 183.2,332.9 183.5,332.6 183.8,331.5 184.1,329.7 184.4,326.0 184.6,324.2 184.9,333.2 185.2,323.3 185.5,321.6 185.7,325.3 186.0,318.9 186.3,318.3 186.6,316.8 186.9,319.3 187.1,320.3 187.4,323.5 187.7,322.2 188.0,321.8 188.3,324.1 188.5,325.6 188.8,324.6 189.1,324.2 189.4,324.9 189.6,327.5 189.9,328.0 190.2,324.7 190.5,324.4 190.8,323.5 191.0,322.2 191.3,326.7 191.6,325.4 191.9,324.6 192.2,327.5 192.4,326.1 192.7,323.6 193.0,323.4 193.3,324.4 193.5,324.2 193.8,325.8 194.1,323.2 194.4,317.3 194.7,315.5 194.9,313.8 195.2,311.8 195.5,309.6 195.8,310.9 196.1,310.1 196.3,312.9 196.6,315.3 196.9,318.9 197.2,322.1 197.4,322.8 197.7,321.1 198.0,324.9 198.3,325.2 198.6,325.2 198.8,326.0 199.1,325.5 199.4,326.7 199.7,329.6 200.0,330.0 200.2,333.1 200.5,335.8 200.8,335.2 201.1,338.3 201.3,337.2 201.6,333.8 201.9,332.5 202.2,330.4 202.5,331.4 202.7,332.8 203.0,331.8 203.3,332.7 203.6,332.7 203.9,332.2 204.1,324.7 204.4,324.6 204.7,324.1 205.0,325.7 205.2,324.5 205.5,326.2 205.8,325.5 206.1,322.0 206.4,321.6 206.6,319.2 206.9,321.7 207.2,319.6 207.5,321.5 207.8,321.4 208.0,322.5 208.3,320.1 208.6,320.3 208.9,319.0 209.1,318.2 209.4,316.3 209.7,312.4 210.0,311.5 210.3,311.5 210.5,310.1 210.8,310.4 211.1,309.0 211.4,312.0 211.7,309.6 211.9,309.4 212.2,307.1 212.5,305.9 212.8,304.5 213.0,304.1 213.3,299.1 213.6,296.8 213.9,298.5 214.2,296.5 214.4,289.8 214.7,288.7 215.0,289.7 215.3,288.2 215.6,289.5 215.8,289.0 216.1,289.5 216.4,288.8 216.7,286.4 216.9,284.5 217.2,285.7 217.5,286.7 217.8,287.5 218.1,286.5 218.3,287.9 218.6,289.9 218.9,293.0 219.2,302.0 219.5,299.2 219.7,298.0 220.0,298.7 220.3,295.8 220.6,295.2 220.8,293.1 221.1,294.0 221.4,293.9 221.7,295.7 222.0,288.6 222.2,284.4 222.5,284.1 222.8,284.1 223.1,286.1 223.4,286.3 223.6,284.7 223.9,284.2 224.2,284.1 224.5,286.3 224.7,285.9 225.0,284.1 225.3,284.2 225.6,285.0 225.9,285.3 226.1,285.9 226.4,285.3 226.7,285.1 227.0,283.4 227.3,283.6 227.5,285.7 227.8,288.3 228.1,287.1 228.4,287.4 228.6,288.9 228.9,288.6 229.2,285.3 229.5,283.4 229.8,283.4 230.0,284.5 230.3,284.3 230.6,285.2 230.9,286.4 231.2,285.7 231.4,287.3 231.7,286.9 232.0,287.3 232.3,284.0 232.5,283.6 232.8,283.9 233.1,284.1 233.4,286.1 233.7,286.6 233.9,287.0 234.2,287.9 234.5,289.3 234.8,289.8 235.1,285.4 235.3,283.1 235.6,282.7 235.9,284.4 236.2,281.9 236.4,283.0 236.7,284.1 237.0,285.9 237.3,283.6 237.6,282.1 237.8,278.3 238.1,272.4 238.4,278.6 238.7,278.0 239.0,280.6 239.2,280.9 239.5,277.9 239.8,279.7 240.1,279.8 240.3,280.8 240.6,280.0 240.9,281.3 241.2,283.3 241.5,282.6 241.7,280.4 242.0,284.0 242.3,282.8 242.6,284.0 242.9,286.0 243.1,286.2 243.4,283.9 243.7,285.9 244.0,284.7 244.2,284.9 244.5,286.2 244.8,282.0 245.1,283.8 245.4,282.5 245.6,280.6 245.9,274.8 246.2,272.6 246.5,272.0 246.8,269.9 247.0,266.6 247.3,268.3 247.6,266.6 247.9,266.4 248.1,265.5 248.4,267.5 248.7,263.2 249.0,259.3 249.3,254.0 249.5,250.2 249.8,250.6 250.1,244.5 250.4,241.1 250.7,242.0 250.9,240.6 251.2,242.4 251.5,248.4 251.8,249.4 252.0,252.7 252.3,249.4 252.6,242.0 252.9,254.7 253.2,259.7 253.4,266.6 253.7,285.3 254.0,284.7 254.3,281.6 254.6,281.4 254.8,275.4 255.1,272.7 255.4,268.7 255.7,273.5 256.0,276.2 256.2,275.6 256.5,278.2 256.8,278.2 257.1,273.9 257.3,276.1 257.6,275.1 257.9,274.0 258.2,272.2 258.5,273.5 258.7,275.9 259.0,276.1 259.3,278.3 259.6,278.5 259.9,277.6 260.1,277.8 260.4,279.1 260.7,292.8 261.0,296.2 261.2,293.2 261.5,296.4 261.8,291.6 262.1,292.4 262.4,292.7 262.6,296.2 262.9,297.6 263.2,297.1 263.5,289.2 263.8,286.9 264.0,290.7 264.3,292.8 264.6,299.4 264.9,301.7 265.1,298.8 265.4,295.9 265.7,302.2 266.0,301.4 266.3,295.1 266.5,297.9 266.8,301.7 267.1,299.7 267.4,299.9 267.7,297.9 267.9,298.5 268.2,295.1 268.5,293.1 268.8,293.9 269.0,292.2 269.3,293.3 269.6,293.3 269.9,292.7 270.2,294.9 270.4,294.7 270.7,289.9 271.0,288.4 271.3,289.7 271.6,294.1 271.8,295.5 272.1,298.0 272.4,299.3 272.7,301.3 272.9,311.1 273.2,306.4 273.5,306.4 273.8,306.0 274.1,305.0 274.3,306.1 274.6,305.3 274.9,311.9 275.2,312.7 275.5,311.7 275.7,315.0 276.0,314.0 276.3,314.5 276.6,330.3 276.8,329.6 277.1,331.5 277.4,329.2 277.7,332.8 278.0,334.9 278.2,337.3 278.5,338.8 278.8,333.7 279.1,342.4 279.4,339.5 279.6,341.3 279.9,344.9 280.2,343.7 280.5,336.5 280.7,335.8 281.0,341.9 281.3,334.9 281.6,335.5 281.9,338.0 282.1,339.0 282.4,338.5 282.7,339.3 283.0,331.5 283.3,325.6 283.5,319.1 283.8,320.0 284.1,321.5 284.4,321.7 284.6,319.8 284.9,319.5 285.2,326.3 285.5,333.3 285.8,335.1 286.0,337.9 286.3,329.2 286.6,331.1 286.9,326.7 287.2,327.0 287.4,329.4 287.7,329.6 288.0,335.7 288.3,336.8 288.5,339.9 288.8,336.6 289.1,333.6 289.4,335.2 289.7,334.6 289.9,331.9 290.2,327.2 290.5,327.7 290.8,328.8 291.1,332.8 291.3,331.8 291.6,333.3 291.9,330.5 292.2,335.7 292.4,337.8 292.7,337.4 293.0,340.8 293.3,342.1 293.6,341.4 293.8,338.3 294.1,338.4 294.4,341.7 294.7,335.6 295.0,332.1 295.2,331.9 295.5,323.3 295.8,326.7 296.1,325.0 296.3,325.9 296.6,323.2 296.9,333.7 297.2,334.4 297.5,333.4 297.7,351.7 298.0,350.4 298.3,356.2 298.6,358.8 298.9,355.4 299.1,362.5 299.4,353.7 299.7,339.9 300.0,345.1 300.2,341.1 300.5,337.4 300.8,337.1 301.1,340.2 301.4,333.9 301.6,333.5 301.9,334.2 302.2,327.9 302.5,329.6 302.8,330.4 303.0,332.4 303.3,333.5 303.6,337.7 303.9,332.5 304.1,328.6 304.4,330.5 304.7,326.3 305.0,324.0 305.3,318.3 305.5,326.4 305.8,325.8 306.1,327.0 306.4,335.9 306.7,335.9 306.9,336.5 307.2,332.2 307.5,337.4 307.8,335.4 308.0,328.0 308.3,326.5 308.6,329.3 308.9,334.4 309.2,332.4 309.4,335.6 309.7,335.0 310.0,334.2 310.3,330.9 310.6,336.2 310.8,335.0 311.1,339.0 311.4,341.4 311.7,343.3 311.9,346.2 312.2,345.3 312.5,349.4 312.8,349.4 313.1,350.3 313.3,348.5 313.6,352.5 313.9,351.0 314.2,342.9 314.5,340.0 314.7,340.1 315.0,338.2 315.3,338.9 315.6,335.6 315.8,336.0 316.1,333.9 316.4,333.3 316.7,333.6 317.0,329.0 317.2,328.7 317.5,332.5 317.8,334.2 318.1,333.6 318.4,331.1 318.6,333.0 318.9,332.8 319.2,334.3 319.5,332.3 319.7,328.3 320.0,324.5 320.3,320.0 320.6,313.8 320.9,313.2 321.1,315.4 321.4,307.6 321.7,306.1 322.0,304.8 322.3,306.7 322.5,300.7 322.8,278.8 323.1,278.5 323.4,277.5 323.6,277.6 323.9,271.0 324.2,267.0 324.5,264.5 324.8,259.2 325.0,258.5 325.3,278.4 325.6,270.9 325.9,268.2 326.2,273.0 326.4,277.8 326.7,274.5 327.0,265.7 327.3,267.5 327.5,268.0 327.8,267.6 328.1,266.5 328.4,273.9 328.7,281.3 328.9,279.3 329.2,283.9 329.5,272.7 329.8,261.9 330.1,261.7 330.3,256.4 330.6,249.7 330.9,247.1 331.2,249.8 331.4,250.7 331.7,255.5 332.0,254.7 332.3,256.3 332.6,246.0 332.8,245.3 333.1,248.9 333.4,245.1 333.7,253.8 334.0,256.9 334.2,254.7 334.5,263.7 334.8,270.9 335.1,271.6 335.3,268.6 335.6,288.0 335.9,286.1 336.2,289.6 336.5,294.7 336.7,287.3 337.0,291.8 337.3,293.3 337.6,288.5 337.9,286.2 338.1,294.0 338.4,295.3 338.7,291.7 339.0,293.8 339.2,297.8 339.5,296.8 339.8,293.2 340.1,291.4 340.4,293.8 340.6,294.6 340.9,295.5 341.2,296.3 341.5,298.0 341.8,297.9 342.0,300.3 342.3,297.7 342.6,290.5 342.9,292.6 343.1,292.6 343.4,295.9 343.7,294.7 344.0,295.3 344.3,292.8 344.5,286.5 344.8,284.7 345.1,283.5 345.4,287.3 345.7,286.2 345.9,284.4 346.2,285.4 346.5,279.5 346.8,279.8 347.0,280.0 347.3,278.7 347.6,279.9 347.9,288.2 348.2,289.4 348.4,291.9 348.7,292.3 349.0,290.0 349.3,288.3 349.6,287.5 349.8,287.7 350.1,290.5 350.4,287.4 350.7,290.8 350.9,288.4 351.2,286.7 351.5,285.2 351.8,285.4 352.1,285.6 352.3,283.4 352.6,286.4 352.9,288.9 353.2,294.8 353.5,301.1 353.7,307.9 354.0,308.8 354.3,306.6 354.6,308.5 354.8,305.3 355.1,307.6 355.4,306.6 355.7,306.4 356.0,306.9 356.2,301.1 356.5,301.8 356.8,302.5 357.1,302.9 357.4,303.6 357.6,307.4 357.9,303.1 358.2,303.7 358.5,304.6 358.7,306.2 359.0,300.3 359.3,298.4 359.6,292.2 359.9,290.2 360.1,288.8 360.4,286.8 360.7,287.5 361.0,286.1 361.3,284.2 361.5,285.3 361.8,291.6 362.1,291.8 362.4,290.5 362.6,289.9 362.9,293.7 363.2,294.6 363.5,297.6 363.8,298.0 364.0,297.9 364.3,299.1 364.6,297.6 364.9,294.5 365.2,293.0 365.4,289.8 365.7,284.2 366.0,285.8 366.3,287.2 366.5,288.1 366.8,293.5 367.1,292.5 367.4,291.8 367.7,292.5 367.9,291.0 368.2,291.0 368.5,289.9 368.8,291.7 369.1,292.6 369.3,294.8 369.6,291.5 369.9,290.1 370.2,287.2 370.4,288.2 370.7,288.7 371.0,291.0 371.3,298.1 371.6,297.6 371.8,300.4 372.1,301.0 372.4,304.1 372.7,301.7 373.0,299.1 373.2,302.5 373.5,301.4 373.8,299.7 374.1,290.9 374.3,292.3 374.6,294.3 374.9,296.0 375.2,296.5 375.5,296.6 375.7,296.1 376.0,297.7 376.3,296.4 376.6,296.9 376.9,293.8 377.1,295.2 377.4,292.5 377.7,294.5 378.0,289.5 378.2,288.1 378.5,282.7 378.8,283.1 379.1,281.7 379.4,282.5 379.6,288.3 379.9,286.2 380.2,287.6 380.5,284.5 380.8,284.2 381.0,280.6 381.3,278.0 381.6,273.6 381.9,273.4 382.1,274.3 382.4,271.4 382.7,277.5 383.0,275.8 383.3,277.4 383.5,277.0 383.8,276.7 384.1,280.7 384.4,283.5 384.7,283.6 384.9,281.6 385.2,287.4 385.5,288.0 385.8,297.7 386.0,328.2 386.3,324.9 386.6,322.2 386.9,318.4 387.2,318.6 387.4,316.3 387.7,314.4 388.0,312.7 388.3,315.1 388.6,312.9 388.8,306.4 389.1,307.5 389.4,307.3 389.7,301.9 390.0,302.4 390.2,305.9 390.5,308.7 390.8,302.1 391.1,303.4 391.3,311.4 391.6,297.7 391.9,296.7 392.2,294.6 392.5,289.2 392.7,295.3 393.0,303.9 393.3,299.4 393.6,302.1 393.9,306.0 394.1,308.9 394.4,315.8 394.7,315.7 395.0,321.8 395.2,327.6 395.5,323.3 395.8,331.5 396.1,326.2 396.4,321.2 396.6,324.3 396.9,321.1 397.2,321.6 397.5,324.5 397.8,326.4 398.0,322.7 398.3,325.2 398.6,320.2 398.9,320.8 399.1,320.6 399.4,323.3 399.7,324.3 400.0,321.5 400.3,323.7 400.5,323.6 400.8,321.5 401.1,322.2 401.4,325.0 401.7,324.9 401.9,326.4 402.2,328.7 402.5,326.6 402.8,330.2 403.0,326.9 403.3,323.0 403.6,322.7 403.9,324.0 404.2,322.2 404.4,322.5 404.7,325.5 405.0,324.4 405.3,327.5 405.6,327.9 405.8,328.1 406.1,326.8 406.4,326.2 406.7,328.0 406.9,332.6 407.2,332.0 407.5,331.0 407.8,329.6 408.1,328.2 408.3,329.9 408.6,325.3 408.9,322.8 409.2,324.6 409.5,326.7 409.7,326.5 410.0,325.7 410.3,324.3 410.6,326.9 410.8,329.3 411.1,329.6 411.4,333.5 411.7,329.7 412.0,329.2 412.2,325.9 412.5,325.8 412.8,327.5 413.1,330.0 413.4,328.9 413.6,332.3 413.9,331.2 414.2,324.0 414.5,315.4 414.7,308.5 415.0,282.1 415.3,284.8 415.6,280.6 415.9,280.9 416.1,291.2 416.4,286.0 416.7,289.9 417.0,298.2 417.3,305.0 417.5,306.5 417.8,293.4 418.1,294.6 418.4,294.5 418.6,298.0 418.9,307.2 419.2,308.9 419.5,308.3 419.8,304.1 420.0,305.1 420.3,305.4 420.6,302.1 420.9,298.0 421.2,302.4 421.4,301.4 421.7,304.8 422.0,299.9 422.3,302.8 422.5,300.3 422.8,299.7 423.1,297.5 423.4,290.1 423.7,292.5 423.9,293.5 424.2,297.2 424.5,296.6 424.8,297.2 425.1,299.2 425.3,303.0 425.6,302.6 425.9,298.9 426.2,300.3 426.4,300.2 426.7,302.2 427.0,303.0 427.3,304.4 427.6,305.7 427.8,301.2 428.1,301.1 428.4,305.4 428.7,306.1 429.0,306.3 429.2,305.0 429.5,303.1 429.8,304.2 430.1,298.2 430.3,299.7 430.6,304.6 430.9,306.1 431.2,311.0 431.5,312.4 431.7,310.4 432.0,312.3 432.3,313.4 432.6,310.2 432.9,304.1 433.1,306.1 433.4,308.2 433.7,307.7 434.0,304.6 434.2,305.4 434.5,307.3 434.8,305.0 435.1,306.3 435.4,304.4 435.6,307.1 435.9,309.3 436.2,309.7 436.5,310.2 436.8,314.0 437.0,314.2 437.3,310.2 437.6,309.6 437.9,306.3 438.1,304.7 438.4,301.1 438.7,302.0 439.0,297.3 439.3,300.7 439.5,304.9 439.8,299.0 440.1,298.0 440.4,295.1 440.7,295.3 440.9,295.6 441.2,288.3 441.5,288.2 441.8,291.2 442.0,288.9 442.3,283.7 442.6,285.1 442.9,280.4 443.2,280.7 443.4,283.1 443.7,286.8 444.0,292.4 444.3,294.6 444.6,297.0 444.8,297.7 445.1,300.1 445.4,302.2 445.7,304.3 445.9,304.6 446.2,300.5 446.5,298.2 446.8,299.5 447.1,306.7 447.3,305.2 447.6,306.6 447.9,303.6 448.2,305.2 448.5,305.3 448.7,305.2 449.0,302.7 449.3,304.4 449.6,306.2 449.8,302.3 450.1,302.6 450.4,301.2 450.7,305.7 451.0,302.4 451.2,296.0 451.5,292.6 451.8,292.9 452.1,292.1 452.4,290.9 452.6,293.6 452.9,294.5 453.2,300.5 453.5,302.3 453.7,302.3 454.0,301.2 454.3,305.1 454.6,306.7 454.9,304.3 455.1,305.3 455.4,306.9 455.7,309.2 456.0,303.4 456.3,302.7 456.5,299.6 456.8,299.0 457.1,291.3 457.4,285.4 457.6,280.0 457.9,282.4 458.2,286.6 458.5,279.6 458.8,287.7 459.0,285.9 459.3,290.9 459.6,281.1 459.9,280.9 460.2,281.0 460.4,280.7 460.7,282.1 461.0,285.8 461.3,279.4 461.5,274.6 461.8,271.2 462.1,269.9 462.4,274.6 462.7,274.8 462.9,279.7 463.2,273.3 463.5,276.9 463.8,281.8 464.1,284.8 464.3,282.1 464.6,278.6 464.9,278.1 465.2,273.1 465.4,273.5 465.7,276.1 466.0,276.7 466.3,274.0 466.6,276.2 466.8,276.7 467.1,275.8 467.4,279.4 467.7,280.6 468.0,282.4 468.2,278.8 468.5,276.9 468.8,279.9 469.1,282.1 469.3,282.9 469.6,285.3 469.9,287.7 470.2,288.9 470.5,288.7 470.7,285.1 471.0,290.1 471.3,287.9 471.6,284.7 471.9,283.9 472.1,283.0 472.4,281.1 472.7,283.4 473.0,280.8 473.2,280.5 473.5,278.8 473.8,282.7 474.1,283.9 474.4,284.9 474.6,285.4 474.9,280.5 475.2,278.7 475.5,278.6 475.8,279.9 476.0,282.0 476.3,283.0 476.6,282.1 476.9,283.3 477.1,283.0 477.4,283.0 477.7,282.3 478.0,282.8 478.3,284.2 478.5,283.4 478.8,288.5 479.1,285.6 479.4,287.3 479.7,288.2 479.9,289.0 480.2,286.8 480.5,286.4 480.8,285.5 481.0,283.0 481.3,283.1 481.6,285.4 481.9,285.1 482.2,282.4 482.4,285.7 482.7,286.9 483.0,283.6 483.3,284.8 483.6,287.1 483.8,287.3 484.1,288.3 484.4,287.3 484.7,291.7 484.9,289.0 485.2,289.5 485.5,292.0 485.8,292.3 486.1,294.3 486.3,290.5 486.6,289.1 486.9,295.1 487.2,302.0 487.5,303.1 487.7,305.7 488.0,301.2 488.3,296.3 488.6,295.9 488.8,297.6 489.1,297.6 489.4,297.7 489.7,292.2 490.0,291.1 490.2,285.2 490.5,287.5 490.8,289.5 491.1,286.1 491.4,286.0 491.6,280.6 491.9,283.7 492.2,284.6 492.5,283.6 492.7,284.7 493.0,283.9 493.3,286.7 493.6,284.2 493.9,287.0 494.1,279.7 494.4,266.8 494.7,260.6 495.0,260.8 495.3,258.7 495.5,252.6 495.8,249.8 496.1,247.1 496.4,246.5 496.6,242.9 496.9,252.7 497.2,255.8 497.5,260.7 497.8,259.1 498.0,252.3 498.3,247.3 498.6,252.5 498.9,259.8 499.2,252.8 499.4,256.3 499.7,256.2 500.0,252.2 500.3,250.1 500.5,252.9 500.8,254.8 501.1,257.9 501.4,256.7 501.7,256.8 501.9,256.5 502.2,259.1 502.5,255.1 502.8,256.3 503.1,256.3 503.3,259.5 503.6,263.6 503.9,268.2 504.2,267.4 504.4,266.8 504.7,274.4 505.0,272.5 505.3,274.0 505.6,275.9 505.8,275.4 506.1,275.9 506.4,273.6 506.7,263.6 507.0,267.1 507.2,266.7 507.5,269.6 507.8,269.7 508.1,273.4 508.3,268.3 508.6,272.9 508.9,270.7 509.2,269.9 509.5,271.3 509.7,274.2 510.0,276.8 510.3,278.4 510.6,274.0 510.9,270.3 511.1,268.1 511.4,267.5 511.7,261.3 512.0,262.7 512.2,259.1 512.5,260.5 512.8,262.1 513.1,266.8 513.4,266.6 513.6,262.6 513.9,263.6 514.2,262.7 514.5,256.3 514.8,258.7 515.0,259.3 515.3,260.6 515.6,258.2 515.9,258.0 516.1,259.9 516.4,259.8 516.7,257.5 517.0,254.1 517.3,251.3 517.5,249.3 517.8,242.6 518.1,239.8 518.4,239.5 518.7,241.0 518.9,241.0 519.2,250.5 519.5,250.8 519.8,240.4 520.0,238.1 520.3,234.7 520.6,239.7 520.9,239.3 521.2,249.0 521.4,246.1 521.7,248.3 522.0,254.0 522.3,241.1 522.6,232.6 522.8,234.1 523.1,228.7 523.4,228.0 523.7,235.6 524.0,239.3 524.2,235.1 524.5,236.9 524.8,231.1 525.1,232.4 525.3,235.3 525.6,238.6 525.9,245.6 526.2,248.6 526.5,248.6 526.7,244.3 527.0,243.6 527.3,237.3 527.6,239.2 527.9,241.4 528.1,249.8 528.4,255.6 528.7,255.1 529.0,254.2 529.2,260.2 529.5,280.4 529.8,271.7 530.1,269.6 530.4,260.3 530.6,263.6 530.9,256.2 531.2,257.6 531.5,258.1 531.8,258.2 532.0,251.9 532.3,251.8 532.6,246.2 532.9,244.0 533.1,240.4 533.4,231.5 533.7,237.0 534.0,231.5 534.3,236.7 534.5,233.7 534.8,234.4 535.1,230.6 535.4,230.8 535.7,238.1 535.9,234.6 536.2,242.5 536.5,247.9 536.8,242.3 537.0,256.7 537.3,257.5 537.6,254.8 537.9,248.6 538.2,244.5 538.4,245.9 538.7,255.6 539.0,255.9 539.3,254.3 539.6,257.0 539.8,259.2 540.1,255.2 540.4,256.2 540.7,256.9 540.9,259.2 541.2,257.6 541.5,253.5 541.8,255.0 542.1,260.9 542.3,257.8 542.6,254.6 542.9,253.3 543.2,255.9 543.5,255.8 543.7,256.3 544.0,257.4 544.3,258.9 544.6,258.0 544.8,256.5 545.1,254.0 545.4,252.2 545.7,258.7 546.0,252.6 546.2,247.1 546.5,251.7 546.8,252.1 547.1,253.9 547.4,252.5 547.6,257.0 547.9,252.9 548.2,255.0 548.5,254.6 548.7,252.6 549.0,250.2 549.3,248.0 549.6,248.0 549.9,249.5 550.1,247.6 550.4,253.2 550.7,254.2 551.0,251.7 551.3,252.6 551.5,250.6 551.8,253.4 552.1,259.0 552.4,265.3 552.6,259.3 552.9,258.2 553.2,257.6 553.5,262.6 553.8,261.3 554.0,261.6 554.3,258.9 554.6,260.8 554.9,260.3 555.2,263.6 555.4,265.7 555.7,271.9 556.0,275.1 556.3,272.7 556.5,269.0 556.8,269.6 557.1,269.8 557.4,270.9 557.7,265.8 557.9,264.8 558.2,267.2 558.5,267.7 558.8,264.7 559.1,268.3 559.3,266.6 559.6,264.9 559.9,266.7 560.2,269.2 560.4,264.4 560.7,265.5 561.0,266.6 561.3,265.0 561.6,264.3 561.8,264.0 562.1,265.7 562.4,262.5 562.7,260.5 563.0,261.4 563.2,261.0 563.5,256.9 563.8,257.2 564.1,260.6 564.3,257.5 564.6,267.8 564.9,266.8 565.2,269.0 565.5,266.8 565.7,268.0 566.0,265.7 566.3,274.6 566.6,272.4 566.9,274.7 567.1,279.3 567.4,276.8 567.7,276.8 568.0,277.9 568.2,274.1 568.5,277.4 568.8,273.9 569.1,273.5 569.4,274.6 569.6,278.0 569.9,277.9 570.2,276.0 570.5,283.1 570.8,282.9 571.0,284.1 571.3,282.8 571.6,287.1 571.9,293.3 572.1,288.1 572.4,286.2 572.7,288.9 573.0,283.2 573.3,281.6 573.5,281.9 573.8,280.6 574.1,279.9 574.4,269.7 574.7,265.1 574.9,263.5 575.2,266.5 575.5,266.8 575.8,268.9 576.0,270.8 576.3,260.2 576.6,254.3 576.9,256.9 577.2,244.6 577.4,249.2 577.7,234.2 578.0,234.2 578.3,237.4 578.6,239.4 578.8,224.6 579.1,225.4 579.4,229.5 579.7,227.4 579.9,227.1 580.2,234.2 580.5,232.2 580.8,232.9 581.1,237.6 581.3,232.2 581.6,242.2 581.9,246.8 582.2,245.8 582.5,246.4 582.7,247.3 583.0,249.8 583.3,245.5 583.6,244.6 583.8,248.7 584.1,245.5 584.4,244.1 584.7,238.6 585.0,237.8 585.2,239.1 585.5,239.6 585.8,242.9 586.1,241.5 586.4,242.9 586.6,238.7 586.9,236.8 587.2,237.8 587.5,237.5 587.7,236.1 588.0,232.0 588.3,234.0 588.6,234.3 588.9,232.0 589.1,233.5 589.4,238.0 589.7,239.8 590.0,236.6 590.3,239.2 590.5,237.3 590.8,237.1 591.1,236.4 591.4,235.4 591.6,238.0 591.9,239.3 592.2,242.2 592.5,231.5 592.8,229.1 593.0,231.3 593.3,231.6 593.6,234.1 593.9,235.9 594.2,233.5 594.4,228.3 594.7,223.3 595.0,215.4 595.3,219.1 595.5,217.6 595.8,218.1 596.1,220.4 596.4,228.2 596.7,221.6 596.9,223.8 597.2,215.9 597.5,216.8 597.8,211.2 598.1,213.5 598.3,217.0 598.6,214.7 598.9,209.5 599.2,215.8 599.4,221.3 599.7,219.0 600.0,223.3 600.3,218.3 600.6,219.6 600.8,216.5 601.1,207.4 601.4,207.3 601.7,206.0 602.0,204.7 602.2,202.4 602.5,197.8 602.8,197.3 603.1,194.5 603.3,183.7 603.6,180.7 603.9,184.1 604.2,179.8 604.5,186.4 604.7,189.4 605.0,184.6 605.3,190.0 605.6,186.8 605.9,178.5 606.1,166.9 606.4,160.3 606.7,142.1 607.0,143.3 607.2,159.2 607.5,162.1 607.8,168.8 608.1,166.2 608.4,170.5 608.6,173.6 608.9,170.3 609.2,177.2 609.5,177.2 609.8,185.2 610.0,197.0 610.3,198.1 610.6,195.6 610.9,193.2 611.1,192.4 611.4,195.9 611.7,195.7 612.0,191.6 612.3,189.3 612.5,190.0 612.8,187.4 613.1,177.8 613.4,180.4 613.7,187.3 613.9,188.1 614.2,193.6 614.5,189.9 614.8,187.7 615.0,194.9 615.3,199.7 615.6,200.9 615.9,209.5 616.2,199.3 616.4,198.9 616.7,201.0 617.0,198.6 617.3,191.4 617.6,193.6 617.8,194.4 618.1,197.6 618.4,196.6 618.7,195.7 618.9,193.4 619.2,197.7 619.5,191.1 619.8,190.0 620.1,191.9 620.3,193.4 620.6,190.1 620.9,191.0 621.2,190.9 621.5,191.4 621.7,178.5 622.0,178.7 622.3,176.8 622.6,162.2 622.8,157.3 623.1,158.7 623.4,164.5 623.7,158.9 624.0,159.2 624.2,165.4 624.5,167.9 624.8,166.4 625.1,165.5 625.4,175.5 625.6,178.4 625.9,174.5 626.2,174.6 626.5,177.1 626.7,179.2 627.0,185.7 627.3,179.8 627.6,183.2 627.9,192.4 628.1,189.8 628.4,180.7 628.7,183.9 629.0,188.8 629.3,193.5 629.5,188.7 629.8,180.5 630.1,186.0 630.4,185.0 630.6,187.8 630.9,189.8 631.2,187.6 631.5,188.2 631.8,188.3 632.0,184.5 632.3,188.4 632.6,188.6 632.9,185.9 633.2,184.5 633.4,188.1 633.7,182.6 634.0,185.4 634.3,187.7 634.5,187.9 634.8,186.7 635.1,190.4 635.4,197.9 635.7,197.4 635.9,189.2 636.2,190.9 636.5,193.0 636.8,193.6 637.1,196.4 637.3,207.1 637.6,208.2 637.9,212.3 638.2,212.7 638.4,207.7 638.7,205.9 639.0,204.6 639.3,211.5 639.6,212.2 639.8,213.0 640.1,212.0 640.4,213.7 640.7,209.7 641.0,210.5 641.2,211.1 641.5,209.2 641.8,212.3 642.1,212.2 642.3,211.3 642.6,209.7 642.9,211.2 643.2,214.1 643.5,213.4 643.7,210.0 644.0,212.7 644.3,209.8 644.6,210.7 644.9,214.4 645.1,215.5 645.4,222.4 645.7,220.3 646.0,218.2 646.2,220.6 646.5,227.8 646.8,229.9 647.1,229.2 647.4,230.6 647.6,230.5 647.9,224.8 648.2,230.5 648.5,232.1 648.8,233.7 649.0,234.4 649.3,236.2 649.6,238.5 649.9,236.6 650.1,235.5 650.4,235.7 650.7,237.9 651.0,236.0 651.3,230.3 651.5,229.8 651.8,232.5 652.1,229.5 652.4,230.7 652.7,228.3 652.9,233.2 653.2,231.8 653.5,234.3 653.8,236.1 654.0,234.3 654.3,232.7 654.6,230.3 654.9,236.2 655.2,236.5 655.4,236.4 655.7,241.7 656.0,241.0 656.3,227.2 656.6,213.0 656.8,206.1 657.1,201.7 657.4,206.0 657.7,208.9 658.0,215.2 658.2,213.8 658.5,215.2 658.8,206.8 659.1,207.3 659.3,205.6 659.6,199.3 659.9,195.8 660.2,186.5 660.5,185.1 660.7,182.5 661.0,193.9 661.3,191.7 661.6,193.1 661.9,190.0 662.1,191.0 662.4,196.1 662.7,189.3 663.0,192.7 663.2,191.9 663.5,191.6 663.8,190.7 664.1,193.5 664.4,198.3 664.6,197.0 664.9,195.4 665.2,193.7 665.5,198.6 665.8,196.1 666.0,194.1 666.3,197.9 666.6,195.9 666.9,191.1 667.1,192.6 667.4,196.8 667.7,195.7 668.0,191.8 668.3,193.8 668.5,195.4 668.8,195.2 669.1,198.8 669.4,202.0 669.7,201.1 669.9,206.6 670.2,194.1 670.5,195.9 670.8,187.2 671.0,184.5 671.3,186.1 671.6,190.3 671.9,194.8 672.2,194.4 672.4,192.2 672.7,190.9 673.0,185.6 673.3,189.3 673.6,187.6 673.8,187.3 674.1,189.6 674.4,186.3 674.7,180.9 674.9,178.1 675.2,180.4 675.5,181.4 675.8,173.5 676.1,164.0 676.3,165.0 676.6,162.8 676.9,158.9 677.2,164.1 677.5,169.0 677.7,164.3 678.0,167.4 678.3,168.7 678.6,172.9 678.8,174.0 679.1,175.4 679.4,172.1 679.7,176.0 680.0,177.6 680.2,174.1 680.5,183.1 680.8,184.1 681.1,188.5 681.4,183.9 681.6,188.4 681.9,184.3 682.2,183.1 682.5,187.3 682.7,185.9 683.0,188.5 683.3,186.0 683.6,184.9 683.9,184.2 684.1,181.8 684.4,175.7 684.7,172.4 685.0,173.6 685.3,175.6 685.5,182.1 685.8,185.0 686.1,181.2 686.4,181.3 686.6,179.3 686.9,173.4 687.2,170.2 687.5,168.9 687.8,165.2 688.0,164.2 688.3,165.2 688.6,169.3 688.9,170.0 689.2,170.5 689.4,173.2 689.7,175.7 690.0,169.8 690.3,170.5 690.5,167.9 690.8,167.9 691.1,171.7 691.4,176.0 691.7,177.6 691.9,177.7 692.2,177.0 692.5,175.2 692.8,178.6 693.1,176.3 693.3,178.0 693.6,172.2 693.9,170.1 694.2,164.2 694.4,166.3 694.7,169.5 695.0,167.6 695.3,165.7 695.6,165.2 695.8,168.1 696.1,174.2 696.4,186.3 696.7,187.3 697.0,192.7 697.2,197.8 697.5,201.4 697.8,199.6 698.1,200.3 698.3,207.3 698.6,206.3 698.9,214.4 699.2,212.9 699.5,215.4 699.7,211.6 700.0,207.2 700.3,204.6 700.6,199.3 700.9,182.1 701.1,169.6 701.4,147.6 701.7,143.4 702.0,112.6 702.2,96.4 702.5,138.2 702.8,113.5 703.1,121.4 703.4,107.2 703.6,119.8 703.9,110.7 704.2,122.8 704.5,117.2 704.8,118.8 705.0,118.5 705.3,115.1 705.6,120.1 705.9,120.5 706.1,119.8 706.4,124.6 706.7,128.6 707.0,129.6 707.3,123.1 707.5,120.8 707.8,113.4 708.1,114.9 708.4,101.4 708.7,109.4 708.9,114.3 709.2,115.2 709.5,110.6 709.8,114.9 710.0,117.2 710.3,98.3 710.6,106.6 710.9,108.1 711.2,108.4 711.4,122.0 711.7,119.1 712.0,118.0 712.3,113.0 712.6,113.7 712.8,112.2 713.1,107.6 713.4,97.6 713.7,100.7 713.9,102.5 714.2,98.2 714.5,99.3 714.8,96.5 715.1,100.1 715.3,95.4 715.6,103.2 715.9,103.9 716.2,106.5 716.5,100.4 716.7,104.5 717.0,107.4 717.3,101.0 717.6,94.7 717.8,90.4 718.1,95.4 718.4,93.1 718.7,87.5 719.0,95.5 719.2,113.5 719.5,118.7 719.8,116.9 720.1,113.6 720.4,113.7 720.6,119.3 720.9,124.6 721.2,130.0 721.5,121.3 721.7,120.7 722.0,117.5 722.3,120.7 722.6,120.2 722.9,120.5 723.1,128.9 723.4,118.2 723.7,116.4 724.0,109.8 724.3,119.5 724.5,117.8 724.8,113.4 725.1,112.6 725.4,111.7 725.6,108.2 725.9,107.2 726.2,107.2 726.5,107.4 726.8,108.6 727.0,109.0 727.3,112.3 727.6,116.4 727.9,114.2 728.2,119.2 728.4,114.2 728.7,110.6 729.0,114.4 729.3,118.2 729.5,120.2 729.8,116.2 730.1,116.1 730.4,118.3 730.7,122.1 730.9,120.9 731.2,121.2 731.5,119.3 731.8,111.8 732.1,109.1 732.3,110.9 732.6,108.8 732.9,110.3 733.2,114.3 733.4,113.1 733.7,110.0 734.0,111.7 734.3,112.3 734.6,115.9 734.8,120.0 735.1,125.6 735.4,123.0 735.7,120.5 736.0,151.2 736.2,134.6 736.5,131.6 736.8,130.6 737.1,131.6 737.3,128.5 737.6,125.6 737.9,119.9 738.2,119.1 738.5,117.4 738.7,122.6 739.0,119.9 739.3,122.3 739.6,119.0 739.9,120.3 740.1,120.6 740.4,122.0 740.7,127.7 741.0,128.4 741.2,121.7 741.5,121.1 741.8,119.1 742.1,117.2 742.4,110.5 742.6,106.6 742.9,109.5 743.2,113.4 743.5,114.4 743.8,113.9 744.0,111.4 744.3,110.1 744.6,115.4 744.9,119.1 745.1,118.5 745.4,118.7 745.7,118.2 746.0,115.6 746.3,114.8 746.5,112.7 746.8,115.8 747.1,113.6 747.4,112.6 747.7,112.1 747.9,109.7 748.2,108.1 748.5,111.6 748.8,108.6 749.0,108.4 749.3,107.0 749.6,111.9 749.9,107.9 750.2,103.7 750.4,98.4 750.7,94.3 751.0,93.0 751.3,99.6 751.6,99.4 751.8,97.0 752.1,90.5 752.4,90.1 752.7,82.8 752.9,78.5 753.2,78.3 753.5,76.8 753.8,70.1 754.1,75.8 754.3,71.7 754.6,76.3 754.9,79.6 755.2,79.8 755.5,75.9 755.7,67.4 756.0,57.4 756.3,58.3 756.6,57.2 756.8,62.9 757.1,64.3 757.4,65.4 757.7,66.1 758.0,74.9 758.2,76.8 758.5,75.0 758.8,68.2 759.1,69.6 759.4,66.9 759.6,64.2 759.9,67.2 760.2,66.3 760.5,70.0 760.7,71.7 761.0,75.2 761.3,75.6 761.6,74.7 761.9,70.1 762.1,66.3 762.4,65.3 762.7,55.0 763.0,59.6 763.3,73.1 763.5,72.3 763.8,76.7 764.1,81.2 764.4,77.4 764.6,83.1 764.9,83.2 765.2,83.8 765.5,84.4 765.8,82.7 766.0,84.2 766.3,80.6 766.6,84.6 766.9,85.2 767.2,88.9 767.4,87.6 767.7,98.6 768.0,94.8 768.3,100.0 768.5,97.0 768.8,99.4 769.1,102.1 769.4,102.0 769.7,103.3 769.9,102.4 770.2,98.3 770.5,97.1 770.8,97.7 771.1,92.4 771.3,88.5 771.6,87.0 771.9,92.7 772.2,92.9 772.4,90.9 772.7,88.1 773.0,84.8 773.3,86.3 773.6,83.9 773.8,89.8 774.1,93.6 774.4,93.1 774.7,98.2 775.0,93.5 775.2,90.3 775.5,90.6 775.8,89.7 776.1,88.7 776.3,85.8 776.6,85.6 776.9,86.4 777.2,85.7 777.5,87.1 777.7,89.8 778.0,94.1 778.3,91.1 778.6,86.1 778.9,94.6 779.1,95.3 779.4,90.5 779.7,95.3 780.0,96.2 780.2,96.6 780.5,93.7 780.8,94.5 781.1,98.1 781.4,99.7 781.6,100.2 781.9,101.6 782.2,109.9 782.5,108.5 782.8,110.7 783.0,110.2 783.3,110.9 783.6,114.7 783.9,112.3 784.1,107.5 784.4,107.7 784.7,109.6 785.0,109.8 785.3,110.4 785.5,109.8 785.8,110.7 786.1,107.5 786.4,112.2 786.7,111.8 786.9,111.0 787.2,105.6 787.5,107.9 787.8,107.4 788.0,108.2 788.3,106.9 788.6,105.4 788.9,115.0 789.2,116.0 789.4,119.3 789.7,119.0 790.0,107.1"/><line x1="825" y1="93" x2="849" y2="93" stroke="#d62728" stroke-width="2"/><text x="855" y="97" font-size="11">BP(1/PB)</text>
</svg>
