<svg xmlns="http://www.w3.org/2000/svg" width="1040" height="460">
<rect width="100%" height="100%" fill="white"/>
<text x="120" y="24" font-size="16">训练集IC时间序列</text>
<line x1="120" y1="405" x2="790" y2="405" stroke="black" stroke-width="1"/><line x1="120" y1="55" x2="120" y2="405" stroke="black" stroke-width="1"/><text x="455.0" y="448" font-size="12" text-anchor="middle">时间</text><text x="32" y="230.0" font-size="12" text-anchor="middle" transform="rotate(-90 32 230.0)">IC</text><rect x="810" y="55" width="215" height="70" fill="white" stroke="#cccccc" stroke-width="1"/><line x1="120.0" y1="405" x2="120.0" y2="410" stroke="black" stroke-width="1"/><text x="120.0" y="423" font-size="10" text-anchor="middle">2016-02</text><line x1="224.0" y1="405" x2="224.0" y2="410" stroke="black" stroke-width="1"/><text x="224.0" y="423" font-size="10" text-anchor="middle">2016-11</text><line x1="327.9" y1="405" x2="327.9" y2="410" stroke="black" stroke-width="1"/><text x="327.9" y="423" font-size="10" text-anchor="middle">2017-08</text><line x1="431.9" y1="405" x2="431.9" y2="410" stroke="black" stroke-width="1"/><text x="431.9" y="423" font-size="10" text-anchor="middle">2018-05</text><line x1="535.9" y1="405" x2="535.9" y2="410" stroke="black" stroke-width="1"/><text x="535.9" y="423" font-size="10" text-anchor="middle">2019-02</text><line x1="639.8" y1="405" x2="639.8" y2="410" stroke="black" stroke-width="1"/><text x="639.8" y="423" font-size="10" text-anchor="middle">2019-11</text><line x1="743.8" y1="405" x2="743.8" y2="410" stroke="black" stroke-width="1"/><text x="743.8" y="423" font-size="10" text-anchor="middle">2020-08</text><line x1="790.0" y1="405" x2="790.0" y2="410" stroke="black" stroke-width="1"/><text x="790.0" y="423" font-size="10" text-anchor="middle">2020-12</text><line x1="115" y1="405.0" x2="120" y2="405.0" stroke="black" stroke-width="1"/><text x="110" y="408.0" font-size="10" text-anchor="end">-0.505</text><line x1="115" y1="230.0" x2="120" y2="230.0" stroke="black" stroke-width="1"/><text x="110" y="233.0" font-size="10" text-anchor="end">-0.002</text><line x1="115" y1="55.0" x2="120" y2="55.0" stroke="black" stroke-width="1"/><text x="110" y="58.0" font-size="10" text-anchor="end">0.500</text><polyline fill="none" stroke="#1f77b4" stroke-width="2" points="120.0,405.0 131.6,309.2 143.1,227.1 154.7,183.3 166.2,166.4 177.8,331.1 189.3,231.8 200.9,259.5 212.4,129.7 224.0,276.3 235.5,163.6 247.1,300.2 258.6,159.6 270.2,55.0 281.7,59.8 293.3,244.7 304.8,231.1 316.4,234.9 327.9,213.8 339.5,71.8 351.0,185.2 362.6,175.2 374.1,176.2 385.7,333.3 397.2,219.4 408.8,231.4 420.3,247.1 431.9,178.1 443.4,152.7 455.0,80.6 466.6,164.4 478.1,139.5 489.7,328.1 501.2,196.4 512.8,203.0 524.3,334.8 535.9,104.1 547.4,240.0 559.0,208.4 570.5,265.0 582.1,209.3 593.6,185.2 605.2,305.8 616.7,132.6 628.3,182.2 639.8,172.3 651.4,277.3 662.9,83.9 674.5,222.4 686.0,304.8 697.6,148.3 709.1,202.3 720.7,132.8 732.2,251.4 743.8,194.1 755.3,170.9 766.9,243.2 778.4,255.2 790.0,65.6"/><line x1="825" y1="75" x2="849" y2="75" stroke="#1f77b4" stroke-width="2"/><text x="855" y="79" font-size="11">20日动量</text><polyline fill="none" stroke="#d62728" stroke-width="2" points="120.0,308.4 131.6,170.9 143.1,264.2 154.7,312.1 166.2,159.4 177.8,163.1 189.3,208.4 200.9,160.3 212.4,74.1 224.0,158.0 235.5,112.0 247.1,237.0 258.6,227.1 270.2,215.7 281.7,192.1 293.3,315.4 304.8,86.3 316.4,297.8 327.9,287.8 339.5,278.5 351.0,119.4 362.6,297.9 374.1,129.8 385.7,320.2 397.2,329.7 408.8,169.7 420.3,313.6 431.9,233.7 443.4,106.7 455.0,145.6 466.6,193.8 478.1,55.0 489.7,321.4 501.2,195.6 512.8,217.1 524.3,258.8 535.9,329.9 547.4,195.0 559.0,247.1 570.5,285.4 582.1,275.2 593.6,365.6 605.2,135.4 616.7,229.5 628.3,201.4 639.8,235.9 651.4,317.8 662.9,300.0 674.5,160.3 686.0,376.6 697.6,281.7 709.1,405.0 720.7,306.3 732.2,233.4 743.8,170.9 755.3,255.5 766.9,138.8 778.4,388.8 790.0,299.5"/><line x1="825" y1="93" x2="849" y2="93" stroke="#d62728" stroke-width="2"/><text x="855" y="97" font-size="11">BP(1/PB)</text>
</svg>
