<svg xmlns="http://www.w3.org/2000/svg" width="1040" height="460">
<rect width="100%" height="100%" fill="white"/>
<text x="120" y="24" font-size="16">训练集累计IC曲线</text>
<line x1="120" y1="405" x2="790" y2="405" stroke="black" stroke-width="1"/><line x1="120" y1="55" x2="120" y2="405" stroke="black" stroke-width="1"/><text x="455.0" y="448" font-size="12" text-anchor="middle">时间</text><text x="32" y="230.0" font-size="12" text-anchor="middle" transform="rotate(-90 32 230.0)">累计IC</text><rect x="810" y="55" width="215" height="70" fill="white" stroke="#cccccc" stroke-width="1"/><line x1="120.0" y1="405" x2="120.0" y2="410" stroke="black" stroke-width="1"/><text x="120.0" y="423" font-size="10" text-anchor="middle">2016-02</text><line x1="224.0" y1="405" x2="224.0" y2="410" stroke="black" stroke-width="1"/><text x="224.0" y="423" font-size="10" text-anchor="middle">2016-11</text><line x1="327.9" y1="405" x2="327.9" y2="410" stroke="black" stroke-width="1"/><text x="327.9" y="423" font-size="10" text-anchor="middle">2017-08</text><line x1="431.9" y1="405" x2="431.9" y2="410" stroke="black" stroke-width="1"/><text x="431.9" y="423" font-size="10" text-anchor="middle">2018-05</text><line x1="535.9" y1="405" x2="535.9" y2="410" stroke="black" stroke-width="1"/><text x="535.9" y="423" font-size="10" text-anchor="middle">2019-02</text><line x1="639.8" y1="405" x2="639.8" y2="410" stroke="black" stroke-width="1"/><text x="639.8" y="423" font-size="10" text-anchor="middle">2019-11</text><line x1="743.8" y1="405" x2="743.8" y2="410" stroke="black" stroke-width="1"/><text x="743.8" y="423" font-size="10" text-anchor="middle">2020-08</text><line x1="790.0" y1="405" x2="790.0" y2="410" stroke="black" stroke-width="1"/><text x="790.0" y="423" font-size="10" text-anchor="middle">2020-12</text><line x1="115" y1="405.0" x2="120" y2="405.0" stroke="black" stroke-width="1"/><text x="110" y="408.0" font-size="10" text-anchor="end">-1.39</text><line x1="115" y1="230.0" x2="120" y2="230.0" stroke="black" stroke-width="1"/><text x="110" y="233.0" font-size="10" text-anchor="end">0.298</text><line x1="115" y1="55.0" x2="120" y2="55.0" stroke="black" stroke-width="1"/><text x="110" y="58.0" font-size="10" text-anchor="end">1.99</text><polyline fill="none" stroke="#1f77b4" stroke-width="2" points="120.0,95.4 131.6,183.8 143.1,206.1 154.7,193.1 166.2,166.5 177.8,272.6 189.3,298.6 200.9,347.0 212.4,290.8 224.0,352.7 235.5,323.9 247.1,405.0 258.6,372.9 270.2,256.6 281.7,144.1 293.3,180.6 304.8,206.2 316.4,234.7 327.9,246.3 339.5,143.5 351.0,132.1 362.6,112.5 374.1,93.8 385.7,201.7 397.2,217.8 408.8,243.5 420.3,281.9 431.9,264.7 443.4,227.1 455.0,131.4 466.6,103.2 478.1,55.0 489.7,158.6 501.2,156.2 512.8,159.1 524.3,268.2 535.9,191.4 547.4,224.1 559.0,231.3 570.5,284.2 582.1,292.1 593.6,280.7 605.2,366.3 616.7,312.5 628.3,298.7 639.8,276.9 651.4,339.6 662.9,246.6 674.5,265.1 686.0,350.0 697.6,308.8 709.1,311.1 720.7,257.4 732.2,299.3 743.8,295.0 755.3,272.0 766.9,307.3 778.4,352.2 790.0,244.4"/><line x1="825" y1="75" x2="849" y2="75" stroke="#1f77b4" stroke-width="2"/><text x="855" y="79" font-size="11">20日动量</text><polyline fill="none" stroke="#d62728" stroke-width="2" points="120.0,343.0 131.6,321.2 143.1,334.3 154.7,365.2 166.2,339.1 177.8,314.4 189.3,306.6 200.9,280.9 212.4,223.0 224.0,196.4 235.5,152.6 247.1,155.5 258.6,154.7 270.2,149.7 281.7,135.8 293.3,167.9 304.8,114.6 316.4,140.1 327.9,162.0 339.5,180.4 351.0,139.4 362.6,165.0 374.1,127.9 385.7,161.8 397.2,199.3 408.8,177.1 420.3,208.6 431.9,210.2 443.4,164.5 455.0,133.3 466.6,120.0 478.1,55.0 489.7,89.4 501.2,76.8 512.8,72.3 524.3,83.3 535.9,120.9 547.4,108.1 559.0,114.8 570.5,135.7 582.1,152.9 593.6,203.8 605.2,168.7 616.7,168.8 628.3,158.4 639.8,160.9 651.4,193.9 662.9,220.3 674.5,194.6 686.0,249.6 697.6,269.2 709.1,334.7 720.7,363.5 732.2,365.0 743.8,343.2 755.3,353.0 766.9,319.3 778.4,378.8 790.0,405.0"/><line x1="825" y1="93" x2="849" y2="93" stroke="#d62728" stroke-width="2"/><text x="855" y="97" font-size="11">BP(1/PB)</text>
</svg>
